<svg width="160" height="160" viewBox="0 0 160 160" fill="none" xmlns="http://www.w3.org/2000/svg">
<g id="Star 1" filter="url(#filter0_d_140_174)">
<path d="M73.5216 11.6227C74.3149 10.752 75.6851 10.752 76.4784 11.6227L89.6656 26.0967C90.1919 26.6743 91.0063 26.8925 91.7509 26.6554L110.408 20.7142C111.531 20.3568 112.717 21.0419 112.969 22.1926L117.152 41.321C117.319 42.0844 117.916 42.6806 118.679 42.8475L137.807 47.031C138.958 47.2827 139.643 48.4693 139.286 49.5917L133.345 68.2491C133.107 68.9937 133.326 69.8081 133.903 70.3344L148.377 83.5216C149.248 84.3149 149.248 85.6851 148.377 86.4784L133.903 99.6656C133.326 100.192 133.107 101.006 133.345 101.751L139.286 120.408C139.643 121.531 138.958 122.717 137.807 122.969L118.679 127.152C117.916 127.319 117.319 127.916 117.152 128.679L112.969 147.807C112.717 148.958 111.531 149.643 110.408 149.286L91.7509 143.345C91.0063 143.107 90.1919 143.326 89.6656 143.903L76.4784 158.377C75.6851 159.248 74.3149 159.248 73.5216 158.377L60.3344 143.903C59.8081 143.326 58.9937 143.107 58.2491 143.345L39.5917 149.286C38.4693 149.643 37.2827 148.958 37.031 147.807L32.8475 128.679C32.6806 127.916 32.0844 127.319 31.321 127.152L12.1926 122.969C11.0419 122.717 10.3568 121.531 10.7142 120.408L16.6554 101.751C16.8925 101.006 16.6743 100.192 16.0967 99.6656L1.62266 86.4784C0.751953 85.6851 0.751954 84.3149 1.62266 83.5216L16.0967 70.3344C16.6743 69.8081 16.8925 68.9937 16.6554 68.2491L10.7142 49.5917C10.3568 48.4693 11.0419 47.2827 12.1926 47.031L31.321 42.8475C32.0844 42.6806 32.6806 42.0844 32.8475 41.321L37.031 22.1926C37.2827 21.0419 38.4693 20.3568 39.5917 20.7142L58.2491 26.6554C58.9937 26.8925 59.8081 26.6743 60.3344 26.0967L73.5216 11.6227Z" fill="url(#paint0_linear_140_174)"/>
</g>
<defs>
<filter id="filter0_d_140_174" x="0.969727" y="0.969727" width="158.061" height="158.061" filterUnits="userSpaceOnUse" color-interpolation-filters="sRGB">
<feFlood flood-opacity="0" result="BackgroundImageFix"/>
<feColorMatrix in="SourceAlpha" type="matrix" values="0 0 0 0 0 0 0 0 0 0 0 0 0 0 0 0 0 0 127 0" result="hardAlpha"/>
<feOffset dx="6" dy="-6"/>
<feGaussianBlur stdDeviation="2"/>
<feComposite in2="hardAlpha" operator="out"/>
<feColorMatrix type="matrix" values="0 0 0 0 0.984314 0 0 0 0 0.905882 0 0 0 0 0.690196 0 0 0 1 0"/>
<feBlend mode="normal" in2="BackgroundImageFix" result="effect1_dropShadow_140_174"/>
<feBlend mode="normal" in="SourceGraphic" in2="effect1_dropShadow_140_174" result="shape"/>
</filter>
<linearGradient id="paint0_linear_140_174" x1="75" y1="10" x2="75" y2="160" gradientUnits="userSpaceOnUse">
<stop stop-color="#F4C033"/>
<stop offset="1" stop-color="#F5A623"/>
</linearGradient>
</defs>
</svg>
