<?xml version="1.0" encoding="utf-8"?>
<!-- Generator: Adobe Illustrator 24.2.3, SVG Export Plug-In . SVG Version: 6.00 Build 0)  -->
<svg version="1.1" id="Layer_1" xmlns="http://www.w3.org/2000/svg" xmlns:xlink="http://www.w3.org/1999/xlink" x="0px" y="0px"
	 width="524px" height="134.4px" viewBox="0 0 524 134.4" style="enable-background:new 0 0 524 134.4;" xml:space="preserve">
<style type="text/css">
	.st0{fill:url(#SVGID_1_);}
	.st1{fill:none;stroke:url(#SVGID_2_);}
</style>
<g>
	
		<linearGradient id="SVGID_1_" gradientUnits="userSpaceOnUse" x1="4.7532" y1="122.7482" x2="515.7528" y2="2.7479" gradientTransform="matrix(1 0 0 -1 0 152.5234)">
		<stop  offset="0" style="stop-color:#F4C033"/>
		<stop  offset="1" style="stop-color:#DD4D40"/>
	</linearGradient>
	<path class="st0" d="M0.5,24.2C-2.4,10.9,8.5-1.2,22,0.1l464.4,46.1c7.4,0.7,13.8,5.5,16.6,12.4l19.6,48.3
		c5.3,13.2-4.3,27.5-18.5,27.5H40.2c-9.4,0-17.6-6.6-19.6-15.8L0.5,24.2z"/>
	
		<linearGradient id="SVGID_2_" gradientUnits="userSpaceOnUse" x1="0.9741" y1="124.4396" x2="517.9737" y2="1.4399" gradientTransform="matrix(1 0 0 -1 0 152.5234)">
		<stop  offset="0" style="stop-color:#FFFFFF"/>
		<stop  offset="1" style="stop-color:#ECECEC"/>
	</linearGradient>
	<path class="st1" d="M0.9,24.1c-2.8-12.9,7.9-24.8,21-23.5l464.4,46.1c7.2,0.7,13.4,5.4,16.1,12.1l19.6,48.3
		c5.2,12.8-4.2,26.8-18.1,26.8H40.2c-9.2,0-17.1-6.4-19.1-15.4L0.9,24.1z"/>
</g>
</svg>
