<?xml version="1.0" encoding="utf-8"?>
<!-- Generator: Adobe Illustrator 24.2.3, SVG Export Plug-In . SVG Version: 6.00 Build 0)  -->
<svg version="1.1" id="Layer_1" xmlns="http://www.w3.org/2000/svg" xmlns:xlink="http://www.w3.org/1999/xlink" x="0px" y="0px"
	 width="282.4px" height="87px" viewBox="0 0 282.4 87" style="enable-background:new 0 0 282.4 87;" xml:space="preserve">
<style type="text/css">
	.st0{fill:url(#SVGID_1_);}
	.st1{fill:none;stroke:url(#SVGID_2_);}
</style>
<g>
	
		<linearGradient id="SVGID_1_" gradientUnits="userSpaceOnUse" x1="375.8803" y1="111.7753" x2="-1.1197" y2="31.7753" gradientTransform="matrix(1 0 0 -1 0 105.2714)">
		<stop  offset="0" style="stop-color:#DD4D40"/>
		<stop  offset="1" style="stop-color:#F4C033"/>
	</linearGradient>
	<path class="st0" d="M280.7,28.2C286.6,14.9,276.9,0,262.4,0H39.1C31,0,23.7,4.9,20.6,12.5l-19.1,47C-3.9,72.6,5.8,87,20,87h221.3
		c7.9,0,15-4.6,18.3-11.8L280.7,28.2z"/>
	
		<linearGradient id="SVGID_2_" gradientUnits="userSpaceOnUse" x1="284.014" y1="97.9039" x2="-2.486" y2="25.9039" gradientTransform="matrix(1 0 0 -1 0 105.2714)">
		<stop  offset="0" style="stop-color:#FFFFFF"/>
		<stop  offset="1" style="stop-color:#F0F0F0"/>
	</linearGradient>
	<path class="st1" d="M280.2,28c5.8-12.9-3.7-27.5-17.8-27.5H39.1c-7.9,0-15.1,4.8-18.1,12.2L2,59.7C-3.3,72.5,6.2,86.5,20,86.5
		h221.3c7.7,0,14.7-4.5,17.8-11.5L280.2,28z"/>
</g>
</svg>
