<svg width="32" height="33" viewBox="0 0 32 33" fill="none" xmlns="http://www.w3.org/2000/svg">
<g id="tabler:pointer-filled" clip-path="url(#clip0_957_77909)">
<g id="Group">
<path id="Vector" d="M4.052 5.80277L9.25733 23.8868C9.504 25.0028 10.484 25.9081 11.6987 26.0761L11.9253 26.0974C12.4452 26.1286 12.9641 26.0208 13.4285 25.785C13.893 25.5493 14.2863 25.1942 14.568 24.7561L14.628 24.6521L16.4947 21.8894L21.8947 27.2894C22.1506 27.5455 22.4545 27.7487 22.789 27.8873C23.1234 28.0259 23.4819 28.0972 23.844 28.0972C24.2061 28.0972 24.5646 28.0259 24.899 27.8873C25.2335 27.7487 25.5374 27.5455 25.7933 27.2894L27.1893 25.8934C27.7067 25.3761 27.9973 24.6761 27.9973 23.9454L27.9867 23.7028C27.9296 23.0579 27.6473 22.4537 27.1893 21.9961L21.7933 16.5988L24.5973 14.7161C25.5653 14.2028 26.1707 13.0121 26.0013 11.7974C25.9191 11.2051 25.6578 10.652 25.2525 10.2124C24.8471 9.77268 24.3171 9.4674 23.7333 9.33744L5.70133 4.15077C5.4722 4.08507 5.22966 4.08199 4.99894 4.14186C4.76822 4.20173 4.55776 4.32235 4.38949 4.49117C4.22122 4.65999 4.10128 4.87083 4.04215 5.10174C3.98303 5.33265 3.98689 5.57519 4.05333 5.8041L4.052 5.80277Z" fill="#294563"/>
</g>
</g>
<defs>
<clipPath id="clip0_957_77909">
<rect width="32" height="32" fill="white" transform="translate(0 0.100098)"/>
</clipPath>
</defs>
</svg>
