<?xml version="1.0" encoding="UTF-8"?>
<svg width="32px" height="32px" viewBox="0 0 32 32" version="1.1" xmlns="http://www.w3.org/2000/svg" xmlns:xlink="http://www.w3.org/1999/xlink">
    <!-- Generator: sketchtool 52.2 (67145) - http://www.bohemiancoding.com/sketch -->
    <title>8E8128B7-78AE-431C-97A2-FDAF07FF179A@2x</title>
    <desc>Created with sketchtool.</desc>
    <g id="1400px-WOT-" stroke="none" stroke-width="1" fill="none" fill-rule="evenodd">
        <g id="[-1400---WOT-]-2.0---PDP" transform="translate(-847.000000, -611.000000)">
            <g id="Group-3" transform="translate(827.000000, 611.000000)">
                <g id="SOT/-Icn/-Modules/-Writing" transform="translate(20.000000, 0.000000)">
                    <polygon id="Fill-1" fill="#FEEEDE" points="4.30225 23.9346917 8.2015 27.8339417 1.05283333 31.0833583"></polygon>
                    <path d="M23.7985,4.1501 L27.9860833,8.33768333 L30.0799167,6.24385 C31.23625,5.08751667 31.23625,3.21268333 30.0799167,2.05626667 C28.9235,0.899933333 27.0486667,0.899933333 25.89225,2.05626667 L23.7985,4.1501 Z" id="Fill-2" fill="#FEEEDE"></path>
                    <polyline id="Fill-4" fill="#FFFFFF" points="27.9575167 8.30195833 8.27685 27.9812083 4.04918333 23.7535417 23.7324333 4.073625"></polyline>
                    <path d="M29.4831583,5.597775 L27.9574917,7.123025 L24.910075,4.07319167 L26.4337417,2.54810833 C27.2744917,1.707775 28.6426583,1.70785833 29.4829083,2.547775 C30.3236583,3.38894167 30.3237417,4.75719167 29.4831583,5.597775 Z M4.341325,25.224275 L6.80615833,27.6891083 L2.59440833,29.436025 L4.341325,25.224275 Z M23.732075,5.252275 L26.7792417,8.30169167 L8.276825,26.802775 L5.22774167,23.7536083 L23.732075,5.252275 Z M30.6614917,1.369275 C29.171075,-0.120308333 26.7459917,-0.120308333 25.2551583,1.369775 L23.142575,3.484275 C23.1401583,3.48669167 23.1381583,3.48935833 23.1357417,3.49185833 L3.467575,23.1566083 C3.44565833,23.178025 3.42474167,23.200775 3.405075,23.2248583 C3.40315833,23.2271917 3.401575,23.229775 3.399575,23.2321083 C3.384575,23.250775 3.37015833,23.2699417 3.356575,23.2901917 C3.35215833,23.2968583 3.34849167,23.3039417 3.34415833,23.310775 C3.33399167,23.3269417 3.323825,23.3428583 3.31474167,23.3599417 C3.304575,23.3786917 3.29590833,23.3981917 3.28724167,23.4176083 C3.284825,23.423275 3.28174167,23.428525 3.27940833,23.434275 L0.283075,30.6583583 C0.153908333,30.969775 0.225075,31.3284417 0.463575,31.5668583 C0.622991667,31.726275 0.836075,31.8109417 1.05299167,31.8109417 C1.16049167,31.8109417 1.26890833,31.7901917 1.372075,31.7473583 L8.587825,28.754525 C8.589825,28.7536083 8.591825,28.752775 8.59390833,28.7519417 L8.596075,28.751025 C8.59949167,28.7496083 8.60265833,28.747775 8.606075,28.746275 C8.627575,28.737025 8.649075,28.7271083 8.66999167,28.7159417 C8.67940833,28.7108583 8.68815833,28.7051083 8.69724167,28.6998583 C8.711575,28.6914417 8.72590833,28.683275 8.739825,28.674025 C8.75440833,28.6643583 8.768075,28.6536083 8.78190833,28.6431083 C8.78965833,28.6371917 8.797575,28.631775 8.80515833,28.6256083 C8.82415833,28.610025 8.842075,28.5936083 8.85940833,28.5766083 C8.861575,28.574525 8.86390833,28.5726917 8.86615833,28.570525 L8.867575,28.569025 C8.869325,28.5673583 8.87099167,28.5656917 8.87265833,28.5639417 L28.546825,8.89119167 C28.5489917,8.889025 28.550825,8.88669167 28.5529083,8.88444167 L30.6616583,6.77644167 C32.1519083,5.286025 32.1519083,2.860525 30.6614917,1.369275 Z" id="Fill-6" fill="#F9A95A"></path>
                </g>
            </g>
        </g>
    </g>
</svg>