<svg width="105" height="109" viewBox="0 0 105 109" fill="none" xmlns="http://www.w3.org/2000/svg">
<g id="Asset 5 2" opacity="0.8" clip-path="url(#clip0_2303_10000)">
<g id="Mask group">
<mask id="mask0_2303_10000" style="mask-type:alpha" maskUnits="userSpaceOnUse" x="22" y="-1" width="84" height="90">
<path id="Vector 6" d="M52.5 30L88.5 66C88.5 66 93.5 71.5 98.25 74.75C105 74.5 106 88.2437 106 88.2437V1.52588e-05L22 -0.5L24.9071 1.43804C30.6344 5.462 31.3676 7.54718 37.25 14.5L52.5 30Z" fill="#D9D9D9"/>
</mask>
<g mask="url(#mask0_2303_10000)">
<g id="Clip path group">
<mask id="mask1_2303_10000" style="mask-type:luminance" maskUnits="userSpaceOnUse" x="17" y="-2" width="98" height="93">
<g id="clip-path">
<path id="Vector" d="M114.792 91H17V-1.90662H114.792V91Z" fill="white"/>
</g>
</mask>
<g mask="url(#mask1_2303_10000)">
<g id="Group">
<path id="Vector_2" d="M135.563 92.863H24.7734V37.314H135.563V92.863Z" fill="#00008B"/>
<path id="Vector_3" d="M135.563 37.3125H24.7734V-10.1341H135.563V37.3125Z" fill="#00008B"/>
<g id="Clip path group_2">
<mask id="mask2_2303_10000" style="mask-type:luminance" maskUnits="userSpaceOnUse" x="-33" y="-3" width="148" height="94">
<g id="clip-path-2">
<path id="Vector_4" d="M114.795 90.7483H-32.7305V-2.29891H114.795V90.7483Z" fill="white"/>
</g>
</mask>
<g mask="url(#mask2_2303_10000)">
<g id="Group_2">
<path id="Vector_5" d="M113.378 -11.9153L-48.3242 90.0747L-41.299 107.568L120.405 5.57635L113.378 -11.9153Z" fill="white"/>
<path id="Vector_6" d="M114.695 -8.63715L-47.0078 93.3544L-44.9572 98.4614L116.747 -3.53008L114.695 -8.63715Z" fill="#FF0000"/>
<g id="Clip path group_3">
<mask id="mask3_2303_10000" style="mask-type:luminance" maskUnits="userSpaceOnUse" x="41" y="-19" width="85" height="83">
<g id="clip-path-3">
<path id="Vector_7" d="M125.078 63.8489H41.7559V-18.3292H125.078V63.8489Z" fill="white"/>
</g>
</mask>
<g mask="url(#mask3_2303_10000)">
<g id="Group_3">
<path id="Vector_8" d="M-41.299 107.568L120.405 5.57635L113.378 -11.9153L-48.3242 90.0747L-41.299 107.568Z" fill="white"/>
<path id="Vector_9" d="M-42.6158 104.288L119.087 2.29837L117.036 -2.80871L-44.668 99.1813L-42.6158 104.288Z" fill="#FF0000"/>
</g>
</g>
</g>
<g id="Clip path group_4">
<mask id="mask4_2303_10000" style="mask-type:luminance" maskUnits="userSpaceOnUse" x="-39" y="-7" width="82" height="106">
<g id="clip-path-4">
<path id="Vector_10" d="M42.7624 98.4614H-38.4629V-6.20411H42.7624V98.4614Z" fill="white"/>
</g>
</mask>
<g mask="url(#mask4_2303_10000)">
<g id="Group_4">
<path id="Vector_11" d="M113.378 -11.9153L-48.3242 90.0747L-41.299 107.568L120.405 5.57635L113.378 -11.9153Z" fill="white"/>
<path id="Vector_12" d="M114.695 -8.63715L-47.0078 93.3544L-44.9572 98.4614L116.747 -3.53008L114.695 -8.63715Z" fill="#FF0000"/>
</g>
</g>
</g>
<g id="Clip path group_5">
<mask id="mask5_2303_10000" style="mask-type:luminance" maskUnits="userSpaceOnUse" x="41" y="-19" width="85" height="83">
<g id="clip-path-3_2">
<path id="Vector_13" d="M125.078 63.8489H41.7559V-18.3292H125.078V63.8489Z" fill="white"/>
</g>
</mask>
<g mask="url(#mask5_2303_10000)">
<g id="Group_5">
<path id="Vector_14" d="M-41.299 107.568L120.405 5.57635L113.378 -11.9153L-48.3242 90.0747L-41.299 107.568Z" fill="white"/>
<path id="Vector_15" d="M-42.6158 104.288L119.087 2.29837L117.036 -2.80871L-44.668 99.1813L-42.6158 104.288Z" fill="#FF0000"/>
</g>
</g>
</g>
<g id="Clip path group_6">
<mask id="mask6_2303_10000" style="mask-type:luminance" maskUnits="userSpaceOnUse" x="-39" y="-7" width="82" height="106">
<g id="clip-path-4_2">
<path id="Vector_16" d="M42.7624 98.4614H-38.4629V-6.20411H42.7624V98.4614Z" fill="white"/>
</g>
</mask>
<g mask="url(#mask6_2303_10000)">
<g id="Group_6">
<path id="Vector_17" d="M113.378 -11.9153L-48.3242 90.0747L-41.299 107.568L120.405 5.57635L113.378 -11.9153Z" fill="white"/>
<path id="Vector_18" d="M114.695 -8.63715L-47.0078 93.3544L-44.9572 98.4614L116.747 -3.53008L114.695 -8.63715Z" fill="#FF0000"/>
</g>
</g>
</g>
<g id="Clip path group_7">
<mask id="mask7_2303_10000" style="mask-type:luminance" maskUnits="userSpaceOnUse" x="44" y="-19" width="72" height="116">
<g id="clip-path-7">
<path id="Vector_19" d="M115.696 96.1812H44.0234V-18.3309H115.696V96.1812Z" fill="white"/>
</g>
</mask>
<g mask="url(#mask7_2303_10000)">
<g id="Group_7">
<path id="Vector_20" d="M125.341 107.568L-36.3633 5.57635L-29.3365 -11.9153L132.366 90.0747L125.341 107.568Z" fill="white"/>
<path id="Vector_21" d="M126.657 104.288L-35.0469 2.29837L-32.9948 -2.80871L128.709 99.1813L126.657 104.288Z" fill="#FF0000"/>
</g>
</g>
</g>
<g id="Clip path group_8">
<mask id="mask8_2303_10000" style="mask-type:luminance" maskUnits="userSpaceOnUse" x="-37" y="-7" width="83" height="106">
<g id="clip-path-8">
<path id="Vector_22" d="M45.5548 98.4614H-36.9668V-6.20411H45.5548V98.4614Z" fill="white"/>
</g>
</mask>
<g mask="url(#mask8_2303_10000)">
<g id="Group_8">
<path id="Vector_23" d="M-29.3365 -11.9153L132.366 90.0747L125.341 107.568L-36.3633 5.57635L-29.3365 -11.9153Z" fill="white"/>
<path id="Vector_24" d="M-30.653 -8.63715L131.05 93.3544L128.999 98.4614L-32.7051 -3.53008L-30.653 -8.63715Z" fill="#FF0000"/>
</g>
</g>
</g>
<path id="Vector_25" d="M115.696 57.3081H-32.7305V31.4298H115.696V57.3081Z" fill="white"/>
<path id="Vector_26" d="M53.7648 91.0371H29.0371V-2.29896H53.7648V91.0371Z" fill="white"/>
<path id="Vector_27" d="M49.1056 91.0371H33.6953V-2.29896H49.1056V91.0371Z" fill="#FF0000"/>
<path id="Vector_28" d="M115.696 52.4329H-32.7305V36.3053H115.696V52.4329Z" fill="#FF0000"/>
</g>
</g>
</g>
</g>
</g>
</g>
</g>
</g>
<g id="Group 198">
<g id="Vector_29" filter="url(#filter0_f_2303_10000)">
<path d="M104.999 92.6289V91.0788C104.713 85.7609 102.533 82.5784 98.457 78.5513L27.944 8.87212C26.2143 7.16359 24.1365 5.84326 21.8505 5L21.2363 5C21.2363 5 30.515 8.3976 32.9206 29.5804C36.5099 61.2153 34.3939 82.0185 34.3939 82.0185C34.3939 82.0185 55.9487 79.9591 75.3621 78.5924C89.0606 77.6276 103.195 77.9218 104.999 92.6289Z" fill="black" fill-opacity="0.5"/>
</g>
<path id="Vector_30" d="M105.999 87.6289V86.0788C105.713 80.7609 103.533 77.5784 99.457 73.5513L28.944 3.87212C27.2143 2.16359 25.1365 0.84326 22.8505 0L22.2363 0C22.2363 0 31.515 3.3976 33.9206 24.5804C37.5099 56.2153 35.3939 77.0185 35.3939 77.0185C35.3939 77.0185 56.9487 74.9591 76.3621 73.5924C90.0606 72.6276 104.195 72.9218 105.999 87.6289Z" fill="url(#paint0_linear_2303_10000)"/>
</g>
</g>
<defs>
<filter id="filter0_f_2303_10000" x="-8.76367" y="-25" width="143.764" height="147.629" filterUnits="userSpaceOnUse" color-interpolation-filters="sRGB">
<feFlood flood-opacity="0" result="BackgroundImageFix"/>
<feBlend mode="normal" in="SourceGraphic" in2="BackgroundImageFix" result="shape"/>
<feGaussianBlur stdDeviation="15" result="effect1_foregroundBlur_2303_10000"/>
</filter>
<linearGradient id="paint0_linear_2303_10000" x1="66.1702" y1="41.7803" x2="31.3233" y2="76.5732" gradientUnits="userSpaceOnUse">
<stop stop-color="#919699"/>
<stop offset="0.01" stop-color="#A2A6A8"/>
<stop offset="0.05" stop-color="#C3C6C7"/>
<stop offset="0.08" stop-color="#DDDFE0"/>
<stop offset="0.12" stop-color="#F0F1F1"/>
<stop offset="0.15" stop-color="#FBFCFC"/>
<stop offset="0.19" stop-color="white"/>
<stop offset="0.32" stop-color="#F9F9F9"/>
<stop offset="0.49" stop-color="#E8E9EA"/>
<stop offset="0.69" stop-color="#CCCED0"/>
<stop offset="0.9" stop-color="#A6AAAC"/>
<stop offset="1" stop-color="#919699"/>
</linearGradient>
<clipPath id="clip0_2303_10000">
<rect width="106" height="109" fill="white" transform="matrix(1 0 0 -1 0 109)"/>
</clipPath>
</defs>
</svg>
