<svg width="1150" height="624" viewBox="0 0 1150 624" fill="none" xmlns="http://www.w3.org/2000/svg">
<mask id="mask0_268_308" style="mask-type:alpha" maskUnits="userSpaceOnUse" x="0" y="0" width="1150" height="624">
<rect width="1150" height="624" fill="#D9D9D9"/>
</mask>
<g mask="url(#mask0_268_308)">
<mask id="path-2-inside-1_268_308" fill="white">
<path d="M1134.25 623.5C1134.25 461.851 1075.23 306.822 970.176 192.518C865.123 78.215 722.64 14 574.073 14C425.506 14 283.024 78.215 177.971 192.518C72.918 306.822 13.8999 461.85 13.8999 623.5L181.221 623.5C181.221 510.135 222.611 401.412 296.285 321.251C369.959 241.089 469.882 196.055 574.073 196.055C678.264 196.055 778.187 241.089 851.861 321.251C925.535 401.412 966.925 510.135 966.925 623.5H1134.25Z"/>
</mask>
<path d="M1134.25 623.5C1134.25 461.851 1075.23 306.822 970.176 192.518C865.123 78.215 722.64 14 574.073 14C425.506 14 283.024 78.215 177.971 192.518C72.918 306.822 13.8999 461.85 13.8999 623.5L181.221 623.5C181.221 510.135 222.611 401.412 296.285 321.251C369.959 241.089 469.882 196.055 574.073 196.055C678.264 196.055 778.187 241.089 851.861 321.251C925.535 401.412 966.925 510.135 966.925 623.5H1134.25Z" stroke="url(#paint0_linear_268_308)" stroke-width="8" mask="url(#path-2-inside-1_268_308)"/>
<mask id="path-3-inside-2_268_308" fill="white">
<path d="M844.683 623.5C844.683 547.537 816.949 474.685 767.582 420.971C718.215 367.257 651.259 337.081 581.444 337.081C511.629 337.081 444.673 367.257 395.306 420.971C345.939 474.685 318.205 547.537 318.205 623.5H468.415C468.415 590.883 480.323 559.602 501.52 536.538C522.717 513.475 551.467 500.518 581.444 500.518C611.421 500.518 640.171 513.475 661.368 536.538C682.565 559.602 694.473 590.883 694.473 623.5H844.683Z"/>
</mask>
<path d="M844.683 623.5C844.683 547.537 816.949 474.685 767.582 420.971C718.215 367.257 651.259 337.081 581.444 337.081C511.629 337.081 444.673 367.257 395.306 420.971C345.939 474.685 318.205 547.537 318.205 623.5H468.415C468.415 590.883 480.323 559.602 501.52 536.538C522.717 513.475 551.467 500.518 581.444 500.518C611.421 500.518 640.171 513.475 661.368 536.538C682.565 559.602 694.473 590.883 694.473 623.5H844.683Z" stroke="url(#paint1_linear_268_308)" stroke-width="8" mask="url(#path-3-inside-2_268_308)"/>
</g>
<defs>
<linearGradient id="paint0_linear_268_308" x1="574.073" y1="-93.3271" x2="561.217" y2="664.822" gradientUnits="userSpaceOnUse">
<stop stop-color="#D6FEFE"/>
<stop offset="1" stop-color="white"/>
</linearGradient>
<linearGradient id="paint1_linear_268_308" x1="581.444" y1="337.081" x2="581.289" y2="623.5" gradientUnits="userSpaceOnUse">
<stop stop-color="#D6FEFE"/>
<stop offset="1" stop-color="white"/>
</linearGradient>
</defs>
</svg>
