<svg width="50" height="49" viewBox="0 0 50 49" fill="none" xmlns="http://www.w3.org/2000/svg">
<g id="Star 2" filter="url(#filter0_d_29_728)">
<path d="M18.5216 11.1441C19.3149 10.2734 20.6851 10.2734 21.4784 11.1441L23.2776 13.1189C23.8038 13.6965 24.6183 13.9147 25.3628 13.6776L27.9083 12.867C29.0307 12.5096 30.2173 13.1947 30.469 14.3454L31.0398 16.9552C31.2067 17.7186 31.8029 18.3148 32.5663 18.4817L35.176 19.0525C36.3267 19.3041 37.0118 20.4908 36.6544 21.6132L35.8439 24.1586C35.6068 24.9032 35.825 25.7177 36.4026 26.2439L38.3773 28.0431C39.248 28.8364 39.248 30.2066 38.3773 30.9999L36.4026 32.7991C35.825 33.3253 35.6068 34.1398 35.8439 34.8843L36.6544 37.4298C37.0118 38.5522 36.3267 39.7388 35.176 39.9905L32.5663 40.5613C31.8029 40.7282 31.2067 41.3244 31.0398 42.0878L30.469 44.6975C30.2173 45.8482 29.0307 46.5333 27.9083 46.1759L25.3628 45.3653C24.6183 45.1282 23.8038 45.3465 23.2776 45.9241L21.4784 47.8988C20.6851 48.7695 19.3149 48.7695 18.5216 47.8988L16.7224 45.9241C16.1962 45.3465 15.3817 45.1282 14.6372 45.3653L12.0917 46.1759C10.9693 46.5333 9.78266 45.8482 9.531 44.6975L8.96023 42.0878C8.79329 41.3244 8.19707 40.7282 7.43372 40.5613L4.82396 39.9905C3.67326 39.7388 2.98815 38.5522 3.34556 37.4298L4.15614 34.8843C4.39324 34.1398 4.17501 33.3253 3.5974 32.7991L1.62266 30.9999C0.751956 30.2066 0.751955 28.8364 1.62266 28.0431L3.5974 26.2439C4.175 25.7177 4.39324 24.9032 4.15614 24.1587L3.34556 21.6132C2.98815 20.4908 3.67325 19.3041 4.82396 19.0525L7.43372 18.4817C8.19707 18.3148 8.79329 17.7186 8.96023 16.9552L9.531 14.3454C9.78266 13.1947 10.9693 12.5096 12.0917 12.867L14.6372 13.6776C15.3817 13.9147 16.1962 13.6965 16.7224 13.1189L18.5216 11.1441Z" fill="url(#paint0_linear_29_728)"/>
</g>
<defs>
<filter id="filter0_d_29_728" x="0.969604" y="0.491211" width="48.0608" height="48.0605" filterUnits="userSpaceOnUse" color-interpolation-filters="sRGB">
<feFlood flood-opacity="0" result="BackgroundImageFix"/>
<feColorMatrix in="SourceAlpha" type="matrix" values="0 0 0 0 0 0 0 0 0 0 0 0 0 0 0 0 0 0 127 0" result="hardAlpha"/>
<feOffset dx="6" dy="-6"/>
<feGaussianBlur stdDeviation="2"/>
<feComposite in2="hardAlpha" operator="out"/>
<feColorMatrix type="matrix" values="0 0 0 0 0.984314 0 0 0 0 0.905882 0 0 0 0 0.690196 0 0 0 1 0"/>
<feBlend mode="normal" in2="BackgroundImageFix" result="effect1_dropShadow_29_728"/>
<feBlend mode="normal" in="SourceGraphic" in2="effect1_dropShadow_29_728" result="shape"/>
</filter>
<linearGradient id="paint0_linear_29_728" x1="20" y1="9.52148" x2="20" y2="49.5215" gradientUnits="userSpaceOnUse">
<stop stop-color="#F4C033"/>
<stop offset="1" stop-color="#F5A623"/>
</linearGradient>
</defs>
</svg>
