<svg width="665" height="671" viewBox="0 0 665 671" fill="none" xmlns="http://www.w3.org/2000/svg">
<mask id="path-1-inside-1_140_374" fill="white">
<path d="M664.504 335.522C664.504 520.537 515.749 670.522 332.252 670.522C148.754 670.522 0 520.537 0 335.522C0 150.506 148.754 0.521729 332.252 0.521729C515.749 0.521729 664.504 150.506 664.504 335.522ZM99.2422 335.522C99.2422 465.274 203.564 570.459 332.252 570.459C460.939 570.459 565.261 465.274 565.261 335.522C565.261 205.77 460.939 100.585 332.252 100.585C203.564 100.585 99.2422 205.77 99.2422 335.522Z"/>
</mask>
<path d="M664.504 335.522C664.504 520.537 515.749 670.522 332.252 670.522C148.754 670.522 0 520.537 0 335.522C0 150.506 148.754 0.521729 332.252 0.521729C515.749 0.521729 664.504 150.506 664.504 335.522ZM99.2422 335.522C99.2422 465.274 203.564 570.459 332.252 570.459C460.939 570.459 565.261 465.274 565.261 335.522C565.261 205.77 460.939 100.585 332.252 100.585C203.564 100.585 99.2422 205.77 99.2422 335.522Z" stroke="#32B3C7" stroke-opacity="0.1" stroke-width="8" mask="url(#path-1-inside-1_140_374)"/>
<mask id="path-2-inside-2_140_374" fill="white">
<path d="M492.757 335.522C492.757 422.465 422.854 492.947 336.624 492.947C250.394 492.947 180.49 422.465 180.49 335.522C180.49 248.578 250.394 178.097 336.624 178.097C422.854 178.097 492.757 248.578 492.757 335.522ZM269.583 335.522C269.583 372.853 299.598 403.117 336.624 403.117C373.649 403.117 403.664 372.853 403.664 335.522C403.664 298.19 373.649 267.927 336.624 267.927C299.598 267.927 269.583 298.19 269.583 335.522Z"/>
</mask>
<path d="M492.757 335.522C492.757 422.465 422.854 492.947 336.624 492.947C250.394 492.947 180.49 422.465 180.49 335.522C180.49 248.578 250.394 178.097 336.624 178.097C422.854 178.097 492.757 248.578 492.757 335.522ZM269.583 335.522C269.583 372.853 299.598 403.117 336.624 403.117C373.649 403.117 403.664 372.853 403.664 335.522C403.664 298.19 373.649 267.927 336.624 267.927C299.598 267.927 269.583 298.19 269.583 335.522Z" stroke="#32B3C7" stroke-opacity="0.1" stroke-width="8" mask="url(#path-2-inside-2_140_374)"/>
</svg>
