<svg width="145" height="35" viewBox="0 0 145 35" fill="none" xmlns="http://www.w3.org/2000/svg">
<g id="Group 182">
<path id="Vector" d="M43.6833 4.45104C43.5432 4.30475 43.375 4.1879 43.1885 4.10741C43.0021 4.02692 42.8013 3.98444 42.598 3.98249C42.3842 3.97155 42.1704 4.00332 41.9693 4.07593C41.7681 4.14854 41.5837 4.2605 41.427 4.40518C41.2734 4.54704 41.1512 4.71895 41.0679 4.91006C40.9847 5.10117 40.9422 5.30735 40.9433 5.51558L40.6832 18.3129C40.6736 18.5197 40.7066 18.7263 40.7802 18.92C40.8538 19.1137 40.9663 19.2905 41.111 19.4396C41.2557 19.5887 41.4295 19.707 41.6217 19.7872C41.814 19.8675 42.0207 19.908 42.2292 19.9063C42.6445 19.9171 43.0475 19.7662 43.3519 19.4858C43.5113 19.3475 43.639 19.1768 43.7263 18.9854C43.8137 18.7939 43.8586 18.5861 43.8581 18.3759L44.1182 5.57851C44.1279 5.37099 44.0943 5.16372 44.0194 4.9697C43.9446 4.77567 43.8301 4.59909 43.6833 4.45104Z" fill="white"/>
<path id="Vector_2" d="M55.9812 9.2412C55.3879 8.28495 54.2904 7.78415 52.7223 7.75228C51.9423 7.73079 51.1714 7.92274 50.4941 8.30712C50.0304 8.5657 49.6046 8.88603 49.2284 9.25919C49.2042 8.91491 49.0604 8.5896 48.8215 8.33873C48.5341 8.04672 48.1426 7.87841 47.7314 7.87005C47.3203 7.86169 46.9223 8.01396 46.6232 8.29405C46.4778 8.43647 46.3625 8.60622 46.2839 8.79339C46.2054 8.98056 46.1652 9.1814 46.1657 9.38418L45.9819 18.4287C45.973 18.6311 46.0049 18.8332 46.0758 19.0232C46.1467 19.2131 46.2552 19.3871 46.3947 19.5349C46.6825 19.8271 47.0742 19.9954 47.4856 20.0038C47.8971 20.0121 48.2953 19.8598 48.5946 19.5796C48.7399 19.4376 48.8551 19.268 48.9334 19.0811C49.0116 18.8942 49.0515 18.6936 49.0505 18.4911L49.1644 12.8842C49.1596 12.5699 49.2193 12.258 49.34 11.9674C49.4607 11.6768 49.6397 11.4137 49.8663 11.1942C50.3185 10.7585 50.9468 10.5456 51.7381 10.5617C52.4859 10.5769 53.0104 10.7908 53.2972 11.1967C53.584 11.6026 53.7439 12.2236 53.7286 12.977L53.6147 18.5838C53.6057 18.7862 53.6377 18.9883 53.7086 19.1783C53.7795 19.3683 53.8879 19.5423 54.0275 19.6901C54.3152 19.9822 54.7069 20.1505 55.1184 20.1589C55.5298 20.1673 55.9281 20.015 56.2274 19.7348C56.3727 19.5927 56.4878 19.4232 56.5661 19.2362C56.6444 19.0493 56.6842 18.8487 56.6832 18.6462L56.7972 13.0394C56.8296 11.4445 56.5557 10.1667 55.9812 9.2412Z" fill="white"/>
<path id="Vector_3" d="M64.509 17.456C64.3145 17.4536 64.1214 17.4894 63.9409 17.5613C63.8018 17.6036 63.6577 17.6276 63.5122 17.6326C63.3237 17.6399 63.1388 17.5794 62.9917 17.462C62.93 17.3924 62.8839 17.3107 62.8565 17.2221C62.8292 17.1335 62.8211 17.0402 62.8328 16.9483L62.9491 11.2278L64.3045 11.2554C64.4941 11.2639 64.6835 11.235 64.8617 11.1702C65.0399 11.1054 65.2033 11.0061 65.3424 10.878C65.4797 10.7526 65.5893 10.6004 65.6644 10.4309C65.7394 10.2614 65.7782 10.0782 65.7784 9.89306C65.7872 9.70278 65.7568 9.51271 65.6893 9.3344C65.6217 9.1561 65.5183 8.99329 65.3853 8.85587C65.2524 8.71845 65.0927 8.60929 64.916 8.53502C64.7392 8.46076 64.5491 8.42295 64.3572 8.42388L63.0018 8.39633L63.026 7.20778C63.0348 6.77427 62.9083 5.77949 62.6258 5.47769C62.4902 5.33056 62.3253 5.21297 62.1415 5.13238C61.9578 5.05179 61.7592 5.00994 61.5583 5.0095C61.3526 5.00048 61.1471 5.03326 60.9546 5.10585C60.7621 5.17844 60.5866 5.28931 60.4388 5.43164C60.1363 5.71995 59.9662 6.7103 59.9574 7.14541L59.9332 8.33717L59.1274 8.32079C58.9378 8.31225 58.7484 8.34121 58.5702 8.406C58.392 8.47079 58.2286 8.57011 58.0894 8.69818C57.9519 8.82346 57.8421 8.97565 57.7668 9.14515C57.6915 9.31466 57.6523 9.49781 57.6518 9.68309C57.6438 9.8732 57.6746 10.063 57.7424 10.241C57.8102 10.419 57.9137 10.5815 58.0465 10.7188C58.1793 10.8561 58.3387 10.9652 58.5151 11.0397C58.6915 11.1142 58.8813 11.1525 59.073 11.1523L59.8789 11.1686L59.7604 16.9994C59.7334 18.3256 60.0634 19.2221 60.743 19.6616C61.3906 20.0812 62.2004 20.3025 63.148 20.3218C63.7055 20.3398 64.2565 20.1994 64.7363 19.9172C65.239 19.6185 65.5 19.2285 65.5096 18.7582C65.5293 18.428 65.4277 18.1018 65.2235 17.8402C65.1409 17.7273 65.0338 17.6342 64.9101 17.5677C64.7865 17.5012 64.6494 17.4631 64.509 17.456Z" fill="white"/>
<path id="Vector_4" d="M77.1673 11.032C76.6721 10.1217 75.9529 9.35067 75.0766 8.7906C74.2314 8.23925 73.2468 7.93528 72.2358 7.9135C71.2202 7.8923 70.2177 8.14278 69.3334 8.63867C68.4047 9.16205 67.6376 9.92722 67.115 10.8516C66.531 11.8882 66.2242 13.056 66.2238 14.2438C66.1865 15.3368 66.432 16.4212 66.9369 17.3934C67.4312 18.3282 68.1825 19.1049 69.1035 19.6331C69.9352 20.0848 70.8499 20.3655 71.7932 20.4587C72.7364 20.5518 73.6889 20.4554 74.5937 20.1751C75.2183 19.9944 75.8055 19.7051 76.3282 19.3206C76.7981 18.9685 77.0418 18.5574 77.0512 18.0966C77.0552 17.9256 77.0241 17.7555 76.9597 17.5968C76.8953 17.4381 76.7989 17.2941 76.6765 17.1736C76.236 16.7182 75.6138 16.6271 74.8796 16.9771C74.8046 17.0188 74.6642 17.1007 74.4618 17.2214C74.2203 17.3564 73.9631 17.4618 73.6961 17.5356C73.2556 17.6463 72.8009 17.691 72.3471 17.6682C71.6174 17.6581 70.9131 17.4004 70.3514 16.9379C69.8266 16.5104 69.4597 15.922 69.3084 15.2651L76.3206 15.4076C76.7088 15.4208 77.0887 15.2944 77.3904 15.0517C77.545 14.9319 77.6712 14.7799 77.7603 14.6064C77.8493 14.4329 77.899 14.2422 77.9058 14.0476C77.9327 12.9953 77.6779 11.9547 77.1673 11.032ZM72.1751 10.74C72.8043 10.7484 73.4105 10.9766 73.8872 11.3846C74.1041 11.5505 74.2858 11.7575 74.4219 11.9934C74.5579 12.2293 74.6456 12.4897 74.6799 12.7594L69.3792 12.6516C69.7478 11.3356 70.6666 10.7094 72.1783 10.7401L72.1751 10.74Z" fill="white"/>
<path id="Vector_5" d="M86.8363 8.86647C86.4895 8.57579 86.0496 8.41759 85.5958 8.42038C84.8585 8.40249 84.1274 8.55702 83.4616 8.8715C83.0013 9.08459 82.5917 9.39206 82.2598 9.77367C82.2086 9.48748 82.0745 9.22227 81.8739 9.01047C81.5862 8.71835 81.1944 8.54999 80.783 8.54163C80.3716 8.53327 79.9733 8.68557 79.674 8.96576C79.5286 9.10817 79.4132 9.27792 79.3347 9.46509C79.2562 9.65226 79.216 9.85311 79.2165 10.0559L79.0327 19.1004C79.0238 19.3028 79.0557 19.5049 79.1266 19.6949C79.1975 19.8848 79.3059 20.0588 79.4455 20.2066C79.7332 20.4988 80.125 20.6671 80.5364 20.6755C80.9478 20.6838 81.3461 20.5315 81.6454 20.2513C81.7907 20.1093 81.9059 19.9397 81.9841 19.7528C82.0624 19.5659 82.1022 19.3653 82.1012 19.1628L82.2067 13.9719C82.2049 13.4213 82.3261 12.8772 82.5616 12.3787C82.7411 11.9906 83.0238 11.6583 83.3792 11.4176C83.6716 11.2194 84.018 11.1148 84.3721 11.1177C84.5202 11.1201 84.6674 11.143 84.8092 11.1858C84.9582 11.2304 85.0544 11.2612 85.0896 11.2731C85.851 11.5702 86.4425 11.5038 86.9026 11.0779C87.1852 10.818 87.3334 10.4273 87.3437 9.9186C87.3463 9.71633 87.3019 9.51617 87.2139 9.33369C87.1259 9.15121 86.9967 8.99132 86.8363 8.86647Z" fill="white"/>
<path id="Vector_6" d="M100.862 12.829C100.725 12.6822 100.559 12.5653 100.374 12.4858C100.189 12.4063 99.9896 12.3658 99.7881 12.3671L96.2264 12.2947C96.0256 12.2857 95.825 12.3166 95.6364 12.3856C95.4479 12.4546 95.2751 12.5603 95.1283 12.6965C94.8386 12.9776 94.6717 13.3604 94.6635 13.7625C94.6553 14.1645 94.8065 14.5538 95.0846 14.8464C95.2254 14.9891 95.3936 15.1022 95.5793 15.1791C95.7649 15.256 95.9642 15.2951 96.1654 15.2941L97.9994 15.3314L97.9497 17.7773C97.6062 17.8692 97.2569 17.938 96.904 17.9833C96.4821 18.0418 96.0563 18.0684 95.6303 18.063C94.7648 18.05 93.9196 17.8003 93.1878 17.3412C92.4503 16.8801 91.8455 16.2375 91.432 15.4759C91.0186 14.7143 90.8105 13.8596 90.8281 12.9948C90.8457 12.1299 91.0883 11.2844 91.5323 10.5402C91.9764 9.79606 92.6068 9.17859 93.3624 8.74778C94.1125 8.31956 94.9671 8.10491 95.8322 8.12744C96.6396 8.14438 97.4351 8.32388 98.1706 8.65507C98.9229 9.00642 99.5554 8.90406 100.012 8.41563C100.288 8.12772 100.443 7.74644 100.446 7.34904C100.453 7.09296 100.388 6.84009 100.258 6.6187C100.128 6.39732 99.9385 6.21614 99.7108 6.09543C98.6397 5.48474 97.3549 5.15937 95.8931 5.12966C94.4622 5.09264 93.0473 5.43453 91.7938 6.12017C90.5552 6.78904 89.513 7.76602 88.7696 8.9553C88.0271 10.153 87.6205 11.526 87.592 12.9322C87.5634 14.3384 87.9138 15.7267 88.607 16.9536C89.3068 18.1809 90.3169 19.206 91.5375 19.9276C92.7582 20.6493 94.1472 21.0426 95.5676 21.0687C97.2582 21.1105 98.9258 20.6737 100.375 19.8094C100.617 19.6817 100.82 19.4909 100.961 19.2574C101.102 19.0239 101.175 18.7567 101.175 18.4845L101.267 13.9191C101.276 13.7198 101.245 13.5207 101.176 13.3335C101.106 13.1463 100.999 12.9748 100.862 12.829Z" fill="white"/>
<path id="Vector_7" d="M110.366 9.34475C110.019 9.05406 109.579 8.89586 109.125 8.89865C108.388 8.88076 107.657 9.0353 106.991 9.34977C106.531 9.56286 106.121 9.87033 105.789 10.2519C105.738 9.96575 105.604 9.70055 105.403 9.48874C105.115 9.19662 104.724 9.02826 104.312 9.0199C103.901 9.01154 103.503 9.16384 103.203 9.44403C103.058 9.58644 102.943 9.75619 102.864 9.94336C102.785 10.1305 102.745 10.3314 102.746 10.5342L102.562 19.5787C102.553 19.7811 102.585 19.9832 102.656 20.1731C102.727 20.3631 102.835 20.5371 102.975 20.6849C103.263 20.977 103.654 21.1454 104.066 21.1538C104.477 21.1621 104.875 21.0098 105.175 20.7296C105.32 20.5875 105.435 20.418 105.513 20.2311C105.592 20.0441 105.632 19.8435 105.631 19.6411L105.736 14.4501C105.734 13.8995 105.855 13.3555 106.091 12.857C106.27 12.4688 106.553 12.1366 106.909 11.8958C107.201 11.6977 107.547 11.5931 107.901 11.5959C108.05 11.5983 108.197 11.6213 108.339 11.664C108.488 11.7087 108.584 11.7394 108.619 11.7514C109.38 12.0485 109.972 11.9821 110.432 11.5561C110.714 11.2962 110.863 10.9056 110.873 10.3969C110.876 10.1946 110.831 9.99444 110.743 9.81196C110.655 9.62948 110.526 9.4696 110.366 9.34475Z" fill="white"/>
<path id="Vector_8" d="M121.477 11.9328C120.982 11.0224 120.264 10.2512 119.388 9.69145C118.543 9.14008 117.559 8.8361 116.548 8.81438C115.533 8.7927 114.53 9.04322 113.646 9.53955C112.717 10.0633 111.95 10.8283 111.426 11.7525C110.842 12.7892 110.536 13.957 110.536 15.1447C110.499 16.2378 110.744 17.3222 111.249 18.2943C111.743 19.229 112.494 20.0056 113.414 20.5339C114.246 20.9856 115.161 21.2664 116.104 21.3595C117.047 21.4527 118 21.3562 118.905 21.076C119.529 20.8954 120.116 20.6061 120.638 20.2214C121.109 19.8693 121.353 19.4582 121.362 18.9975C121.366 18.8265 121.335 18.6564 121.271 18.4977C121.206 18.339 121.11 18.195 120.987 18.0745C120.545 17.619 119.923 17.528 119.189 17.8779C119.114 17.9196 118.975 18.0016 118.771 18.1223C118.53 18.2572 118.274 18.3627 118.007 18.4364C117.566 18.5471 117.111 18.5918 116.656 18.569C115.927 18.5586 115.223 18.3009 114.661 17.8387C114.133 17.4106 113.765 16.8203 113.613 16.161L120.627 16.3036C121.015 16.3168 121.395 16.1904 121.697 15.9477C121.851 15.8278 121.977 15.6758 122.067 15.5024C122.156 15.3289 122.205 15.1381 122.212 14.9435C122.24 13.8931 121.986 12.8541 121.477 11.9328ZM116.484 11.6409C117.112 11.6496 117.717 11.8778 118.192 12.2853C118.409 12.4513 118.59 12.6582 118.726 12.8941C118.862 13.1301 118.95 13.3904 118.984 13.6601L113.69 13.5525C114.059 12.2365 114.976 11.6102 116.489 11.641L116.484 11.6409Z" fill="white"/>
<path id="Vector_9" d="M134.443 9.93967C134.306 9.79785 134.142 9.6853 133.959 9.60894C133.777 9.53258 133.581 9.49402 133.383 9.49564C133.049 9.48236 132.72 9.5834 132.452 9.78186C132.184 9.98031 131.992 10.2642 131.91 10.5859C131.521 10.2778 131.092 10.0226 130.635 9.82708C130.003 9.55363 129.322 9.40761 128.632 9.39748C127.661 9.37167 126.704 9.6263 125.876 10.1304C125.026 10.6537 124.336 11.3971 123.88 12.2807C123.377 13.2514 123.112 14.3261 123.107 15.4176C123.067 16.5068 123.292 17.5895 123.763 18.574C124.194 19.4716 124.86 20.2379 125.692 20.7929C126.517 21.3337 127.482 21.6267 128.47 21.6367C129.168 21.6523 129.86 21.5104 130.494 21.2218C130.943 21.0253 131.361 20.7642 131.734 20.4468C131.796 20.6836 131.918 20.9012 132.087 21.0797C132.221 21.2222 132.384 21.3354 132.566 21.4121C132.747 21.4888 132.942 21.5273 133.139 21.5252C133.338 21.5345 133.537 21.5026 133.723 21.4314C133.909 21.3602 134.078 21.2514 134.219 21.1118C134.361 20.9734 134.473 20.8084 134.549 20.6263C134.625 20.4443 134.664 20.249 134.663 20.0518L134.847 11.0233C134.856 10.825 134.826 10.6268 134.756 10.4406C134.687 10.2544 134.58 10.084 134.443 9.93967ZM131.872 15.5974C131.853 16.5652 131.556 17.3721 130.992 17.9944C130.72 18.2851 130.389 18.5153 130.021 18.6702C129.654 18.825 129.257 18.9008 128.857 18.8927C128.458 18.8846 128.065 18.7927 127.703 18.623C127.342 18.4534 127.021 18.2099 126.761 17.9084C126.231 17.2575 125.97 16.444 125.99 15.4762C126.01 14.5084 126.307 13.6967 126.871 13.0664C127.14 12.7728 127.469 12.5397 127.836 12.3828C128.203 12.226 128.6 12.1491 129 12.1572C129.4 12.1653 129.793 12.2583 130.154 12.43C130.514 12.6016 130.834 12.8479 131.09 13.1522C131.628 13.8001 131.892 14.6232 131.873 15.591L131.872 15.5974Z" fill="white"/>
<path id="Vector_10" d="M142.558 19.0424C142.363 19.04 142.17 19.0758 141.99 19.1477C141.85 19.19 141.706 19.214 141.561 19.219C141.372 19.2266 141.187 19.166 141.04 19.0484C140.98 18.9782 140.935 18.8961 140.909 18.8076C140.883 18.7191 140.877 18.6261 140.889 18.5348L141.006 12.8144L142.361 12.8419C142.551 12.8506 142.74 12.8217 142.918 12.7569C143.096 12.6921 143.259 12.5927 143.397 12.4645C143.535 12.3395 143.645 12.1873 143.721 12.0178C143.796 11.8482 143.835 11.6649 143.835 11.4796C143.844 11.2893 143.813 11.0992 143.746 10.9209C143.678 10.7426 143.575 10.5798 143.442 10.4424C143.309 10.305 143.149 10.1958 142.973 10.1215C142.796 10.0473 142.606 10.0095 142.414 10.0104L141.058 9.98285L141.095 8.17203C141.104 7.96943 141.072 7.76713 141.001 7.57692C140.93 7.38671 140.822 7.21241 140.682 7.06421C140.547 6.91687 140.382 6.79916 140.197 6.71856C140.013 6.63795 139.814 6.59621 139.613 6.59599C139.408 6.58835 139.203 6.62181 139.011 6.69437C138.819 6.76693 138.644 6.87711 138.496 7.01834C138.347 7.15958 138.229 7.32898 138.149 7.51647C138.068 7.70395 138.026 7.90567 138.025 8.10963L137.988 9.92365L137.182 9.90727C136.993 9.89877 136.804 9.92777 136.626 9.99256C136.448 10.0574 136.285 10.1567 136.146 10.2847C136.008 10.4097 135.898 10.5619 135.823 10.7314C135.748 10.901 135.709 11.0843 135.708 11.2696C135.7 11.4597 135.731 11.6495 135.799 11.8275C135.867 12.0055 135.97 12.168 136.103 12.3053C136.236 12.4426 136.395 12.5518 136.572 12.6263C136.748 12.7008 136.938 12.739 137.13 12.7388L137.936 12.7552L137.817 18.586C137.79 19.9121 138.122 20.8086 138.801 21.2481C139.449 21.6678 140.257 21.889 141.206 21.9083C141.764 21.9268 142.315 21.7864 142.795 21.5037C143.299 21.2051 143.558 20.8151 143.568 20.3448C143.588 20.0147 143.487 19.6885 143.283 19.4268C143.2 19.3124 143.091 19.2184 142.965 19.1518C142.839 19.0852 142.7 19.0478 142.558 19.0424Z" fill="white"/>
<path id="Vector_11" d="M16.8723 0.409586C13.6848 0.344802 10.5498 1.21966 7.86371 2.92353C5.17764 4.62741 3.06118 7.08377 1.78196 9.98199C0.502731 12.8802 0.118202 16.0901 0.676992 19.2058C1.23578 22.3215 2.71279 25.203 4.92125 27.486C7.12971 29.769 9.97042 31.3509 13.0842 32.0317C16.1979 32.7125 19.4448 32.4615 22.4143 31.3106C25.3838 30.1597 27.9426 28.1606 29.7669 25.5659C31.5913 22.9713 32.5994 19.8977 32.6637 16.7338C32.7443 12.4928 31.1272 8.39265 28.1669 5.33248C25.2066 2.27231 21.1449 0.501926 16.8723 0.409586ZM16.2458 31.2352C13.2917 31.1764 10.4212 30.2494 7.99743 28.5714C5.57364 26.8935 3.70541 24.5399 2.62901 21.8083C1.55262 19.0768 1.31643 16.09 1.95029 13.2257C2.58416 10.3614 4.05962 7.74829 6.19007 5.71683C8.32052 3.68538 11.0102 2.32684 13.9191 1.81303C16.8279 1.29922 19.8252 1.65323 22.5319 2.83027C25.2385 4.00731 27.5329 5.95453 29.125 8.42563C30.717 10.8967 31.5351 13.7807 31.4758 16.7129C31.4371 18.6594 31.0124 20.5792 30.226 22.3625C29.4396 24.1459 28.3069 25.7579 26.8926 27.1065C25.4783 28.4551 23.8101 29.5138 21.9833 30.2222C20.1565 30.9306 18.2069 31.2749 16.2458 31.2352Z" fill="white"/>
<path id="Vector_12" d="M16.8184 3.03591C14.1868 2.98116 11.5983 3.70227 9.38009 5.10803C7.16192 6.51379 5.41378 8.54105 4.3568 10.9334C3.29981 13.3257 2.98146 15.9757 3.442 18.5481C3.90255 21.1205 5.1213 23.4998 6.94411 25.3851C8.76692 27.2703 11.1119 28.5768 13.6825 29.1393C16.253 29.7018 18.9337 29.4951 21.3854 28.5452C23.8371 27.5953 25.9497 25.945 27.456 23.803C28.9623 21.661 29.7946 19.1235 29.8477 16.5114C29.8834 14.7777 29.5746 13.0539 28.9392 11.4384C28.3037 9.82295 27.3539 8.34742 26.144 7.0961C24.9341 5.84478 23.4878 4.84218 21.8877 4.14553C20.2877 3.44888 18.5651 3.07183 16.8184 3.03591ZM19.9235 18.5934C19.921 19.3444 19.7679 20.0873 19.473 20.7788C19.1782 21.4704 18.7477 22.0967 18.2064 22.6212C17.6652 23.1458 17.0241 23.5582 16.3205 23.8342C15.617 24.1103 14.8651 24.2445 14.1087 24.2292C13.3522 24.2138 12.6064 24.0491 11.9147 23.7447C11.2229 23.4403 10.5991 23.0022 10.0796 22.4561C9.56015 21.9099 9.15537 21.2666 8.8889 20.5637C8.62243 19.8608 8.49961 19.1123 8.52758 18.3618C8.52491 18.2097 8.55318 18.0586 8.61069 17.9176C8.66821 17.7766 8.75379 17.6486 8.86231 17.5412C8.97084 17.4338 9.10008 17.3493 9.24231 17.2926C9.38453 17.2359 9.53682 17.2083 9.69006 17.2114C9.8433 17.2146 9.99434 17.2483 10.1342 17.3107C10.274 17.3731 10.3997 17.4628 10.5037 17.5746C10.6078 17.6863 10.6881 17.8177 10.7398 17.9609C10.7916 18.1041 10.8137 18.2562 10.8048 18.4081C10.8062 19.2962 11.158 20.1486 11.7847 20.7826C12.4115 21.4166 13.2634 21.7818 14.158 21.8C15.0526 21.8182 15.9187 21.4879 16.5707 20.8799C17.2227 20.2718 17.6088 19.4345 17.6463 18.5471L17.739 13.9865C17.756 13.6939 17.8866 13.4193 18.1034 13.2204C18.3201 13.0214 18.6062 12.9136 18.9014 12.9196C19.1966 12.9256 19.478 13.045 19.6865 13.2525C19.895 13.4601 20.0143 13.7398 20.0194 14.0328L19.9235 18.5934ZM23.4101 15.2268C23.2611 15.225 23.1139 15.194 22.977 15.1355C22.8402 15.077 22.7163 14.9921 22.6127 14.8859C22.509 14.7796 22.4276 14.654 22.373 14.5164C22.3185 14.3787 22.292 14.2317 22.295 14.0839C22.3171 13.6358 22.2495 13.1878 22.0962 12.7657C21.9429 12.3436 21.7069 11.9558 21.4018 11.6248C21.0967 11.2937 20.7286 11.0258 20.3187 10.8367C19.9088 10.6476 19.4652 10.5409 19.0136 10.5228C18.5619 10.5048 18.1112 10.5757 17.6874 10.7315C17.2636 10.8873 16.8751 11.1249 16.5444 11.4306C16.2136 11.7362 15.9472 12.1039 15.7604 12.5124C15.5737 12.9209 15.4703 13.362 15.4563 13.8105L15.3607 18.5119C15.3634 18.664 15.3351 18.8151 15.2776 18.9561C15.2201 19.0971 15.1345 19.2251 15.026 19.3325C14.9175 19.4399 14.7882 19.5244 14.646 19.5811C14.5038 19.6377 14.3515 19.6653 14.1983 19.6622C14.045 19.6591 13.894 19.6254 13.7542 19.563C13.6144 19.5006 13.4887 19.4108 13.3846 19.2991C13.2805 19.1874 13.2002 19.056 13.1485 18.9128C13.0967 18.7696 13.0746 18.6175 13.0835 18.4656L13.1764 13.8937C13.2317 12.4108 13.8718 11.0089 14.9588 9.99027C16.0458 8.97166 17.4926 8.41786 18.9874 8.44824C20.4822 8.47862 21.9053 9.09075 22.95 10.1527C23.9947 11.2146 24.5774 12.6414 24.5723 14.1254C24.57 14.2738 24.5379 14.4202 24.478 14.5562C24.4181 14.6922 24.3316 14.815 24.2234 14.9175C24.1153 15.02 23.9877 15.1001 23.848 15.1532C23.7084 15.2063 23.5595 15.2313 23.4101 15.2268Z" fill="#4ABFA7"/>
<path id="Vector_13" d="M14.1058 24.3069C14.8542 24.3219 15.5981 24.1905 16.2952 23.9201C16.9924 23.6497 17.6289 23.2456 18.1686 22.731C18.7084 22.2163 19.1406 21.6012 19.4408 20.9206C19.7409 20.2401 19.9031 19.5075 19.9179 18.7647L20.0106 14.204C20.0055 13.911 19.8861 13.6313 19.6776 13.4237C19.4692 13.2162 19.1877 13.0968 18.8925 13.0908C18.5973 13.0848 18.3113 13.1926 18.0946 13.3916C17.8778 13.5905 17.7472 13.8651 17.7302 14.1577L17.6375 18.7183C17.6 19.6057 17.2139 20.443 16.5619 21.0511C15.9099 21.6591 15.0438 21.9894 14.1492 21.9712C13.2546 21.953 12.4027 21.5878 11.7759 20.9538C11.1492 20.3198 10.7974 19.4674 10.796 18.5793C10.8049 18.4274 10.7828 18.2753 10.731 18.1321C10.6793 17.9889 10.599 17.8575 10.4949 17.7458C10.3908 17.6341 10.2651 17.5443 10.1253 17.4819C9.98553 17.4195 9.83449 17.3858 9.68125 17.3827C9.52801 17.3795 9.37572 17.4071 9.2335 17.4638C9.09127 17.5205 8.96203 17.605 8.8535 17.7124C8.74497 17.8198 8.65939 17.9478 8.60188 18.0888C8.54437 18.2298 8.5161 18.3809 8.51877 18.533C8.48913 20.0336 9.06095 21.4848 10.1086 22.5674C11.1562 23.6501 12.5939 24.2758 14.1058 24.3069Z" fill="white"/>
<path id="Vector_14" d="M19.0741 8.61121C18.3257 8.58415 17.5794 8.70383 16.8778 8.9634C16.1762 9.22297 15.5332 9.61734 14.9854 10.1239C14.4376 10.6305 13.9959 11.2394 13.6855 11.9157C13.3752 12.592 13.2022 13.3225 13.1766 14.0653L13.0839 18.6292C13.075 18.781 13.0971 18.9331 13.1488 19.0764C13.2006 19.2196 13.2809 19.351 13.385 19.4627C13.489 19.5744 13.6147 19.6641 13.7545 19.7265C13.8944 19.7889 14.0454 19.8227 14.1986 19.8258C14.3519 19.8289 14.5042 19.8013 14.6464 19.7447C14.7886 19.688 14.9179 19.6034 15.0264 19.496C15.1349 19.3887 15.2205 19.2606 15.278 19.1196C15.3355 18.9786 15.3638 18.8276 15.3611 18.6754L15.4567 13.974C15.4707 13.5256 15.5741 13.0844 15.7608 12.6759C15.9476 12.2675 16.214 11.8998 16.5448 11.5941C16.8755 11.2884 17.264 11.0508 17.6878 10.895C18.1116 10.7392 18.5623 10.6683 19.0139 10.6864C19.4656 10.7044 19.9091 10.8111 20.319 11.0002C20.7289 11.1894 21.0971 11.4572 21.4022 11.7883C21.7073 12.1194 21.9433 12.5072 22.0966 12.9293C22.2499 13.3513 22.3175 13.7994 22.2954 14.2474C22.2924 14.3953 22.3189 14.5423 22.3734 14.6799C22.4279 14.8176 22.5094 14.9432 22.613 15.0494C22.7167 15.1557 22.8406 15.2405 22.9774 15.299C23.1143 15.3575 23.2614 15.3886 23.4104 15.3903C23.7107 15.3964 24.0012 15.2847 24.2188 15.0793C24.4365 14.874 24.5636 14.5917 24.5726 14.2937C24.5792 12.8233 24.009 11.4079 22.9827 10.3473C21.9563 9.28663 20.5545 8.66399 19.0741 8.61121Z" fill="white"/>
<path id="Vector_15" d="M44.4936 29.6776C44.5314 29.7165 44.561 29.7625 44.5804 29.813C44.5999 29.8634 44.6089 29.9172 44.607 29.9712C44.6082 30.0245 44.5976 30.0774 44.576 30.1261C44.5544 30.1749 44.5223 30.2184 44.4819 30.2535C44.3968 30.3269 44.2861 30.3643 44.1735 30.3577L41.0952 30.2951C41.0393 30.2942 40.9841 30.2823 40.9328 30.2601C40.8815 30.2379 40.8351 30.2058 40.7964 30.1658C40.7576 30.1257 40.7273 30.0784 40.707 30.0267C40.6867 29.9749 40.677 29.9197 40.6783 29.8642L40.7863 24.5501C40.7873 24.4945 40.7992 24.4397 40.8216 24.3888C40.8439 24.3379 40.8762 24.2919 40.9166 24.2535C40.9569 24.215 41.0045 24.1849 41.0567 24.1648C41.1088 24.1447 41.1645 24.135 41.2204 24.1364L44.3051 24.1991C44.3613 24.1981 44.4172 24.2084 44.4694 24.2292C44.5216 24.2501 44.5691 24.2811 44.609 24.3205C44.6482 24.3599 44.6786 24.4072 44.6982 24.4592C44.7177 24.5112 44.7258 24.5667 44.7221 24.622C44.7231 24.6753 44.7124 24.7281 44.6909 24.7768C44.6693 24.8256 44.6373 24.8691 44.5971 24.9044C44.5119 24.9777 44.4012 25.0151 44.2886 25.0085L41.6536 24.955L41.6171 26.7498L43.8509 26.7952C43.9071 26.7944 43.9629 26.8047 44.0151 26.8256C44.0672 26.8464 44.1147 26.8774 44.1547 26.9166C44.1931 26.9547 44.2231 27.0004 44.2426 27.0507C44.2621 27.1009 44.2708 27.1547 44.2681 27.2085C44.2697 27.2628 44.2593 27.3168 44.2377 27.3667C44.2161 27.4165 44.1837 27.4611 44.1429 27.4973C44.0564 27.5677 43.9463 27.6032 43.8346 27.5966L41.6008 27.5512L41.5613 29.4964L44.1931 29.5499C44.2494 29.5495 44.3051 29.5606 44.3568 29.5826C44.4085 29.6046 44.4551 29.6369 44.4936 29.6776Z" fill="white"/>
<path id="Vector_16" d="M51.3751 24.7575C51.7679 25.0444 52.0703 25.4363 52.247 25.8875C52.6286 26.8955 52.6059 28.0103 52.1837 29.002C51.99 29.4455 51.6717 29.8241 51.2667 30.0924C50.8396 30.3646 50.3375 30.4976 49.8304 30.4729L47.6499 30.4286C47.594 30.4277 47.5388 30.4158 47.4875 30.3936C47.4362 30.3714 47.3898 30.3393 47.3511 30.2993C47.3123 30.2592 47.2819 30.2119 47.2617 30.1601C47.2414 30.1084 47.2317 30.0532 47.233 29.9976L47.341 24.6835C47.3419 24.628 47.3539 24.5732 47.3762 24.5223C47.3986 24.4714 47.4309 24.4254 47.4712 24.387C47.5116 24.3485 47.5592 24.3184 47.6113 24.2983C47.6635 24.2782 47.7191 24.2685 47.7751 24.2699L49.9556 24.3142C50.4639 24.3102 50.9606 24.4653 51.3751 24.7575ZM51.1266 29.051C51.4336 28.5646 51.6018 28.0047 51.6135 27.4309C51.6252 26.8571 51.4798 26.2908 51.1929 25.7924C50.8975 25.3597 50.4511 25.1372 49.8537 25.1251L48.2114 25.0917L48.1192 29.63L49.7582 29.6633C50.361 29.6755 50.8177 29.4714 51.1282 29.051L51.1266 29.051Z" fill="white"/>
<path id="Vector_17" d="M59.9136 24.6269C59.9876 24.7115 60.0253 24.8214 60.0187 24.9331L59.95 28.3116C59.9481 28.7479 59.8322 29.1762 59.6136 29.5547C59.4076 29.9119 59.1058 30.2055 58.7418 30.4027C58.3644 30.6091 57.938 30.711 57.5072 30.6977C57.0721 30.694 56.6459 30.5748 56.2728 30.3525C55.9145 30.1417 55.6226 29.836 55.4297 29.4696C55.2279 29.0822 55.1301 28.6498 55.1457 28.214L55.2144 24.8355C55.2134 24.779 55.2245 24.7229 55.2469 24.6709C55.2694 24.619 55.3027 24.5723 55.3446 24.5341C55.3883 24.4945 55.4396 24.4642 55.4954 24.445C55.5512 24.4258 55.6104 24.418 55.6694 24.4223C55.7246 24.4231 55.7791 24.4349 55.8296 24.4571C55.8802 24.4793 55.9257 24.5114 55.9634 24.5515C56.004 24.5904 56.036 24.6374 56.0571 24.6894C56.0783 24.7414 56.0882 24.7972 56.0863 24.8532L56.0176 28.2317C56.0075 28.5196 56.0751 28.805 56.2136 29.0583C56.3436 29.2971 56.5354 29.4971 56.7694 29.6377C56.9982 29.7757 57.2599 29.8506 57.5276 29.8547C57.8034 29.8623 58.0765 29.7984 58.3198 29.6692C58.5641 29.5398 58.769 29.3478 58.9131 29.1131C59.0635 28.8663 59.1439 28.5838 59.1458 28.2953L59.2145 24.9168C59.2122 24.8057 59.2524 24.6979 59.327 24.615C59.3649 24.5758 59.411 24.5453 59.4622 24.5259C59.5133 24.5064 59.5681 24.4985 59.6227 24.5026C59.6774 24.5015 59.7316 24.512 59.7818 24.5334C59.832 24.5549 59.8769 24.5868 59.9136 24.6269Z" fill="white"/>
<path id="Vector_18" d="M67.6162 25.385C67.6138 25.4909 67.5741 25.5926 67.5039 25.6724C67.4698 25.7172 67.4251 25.753 67.3737 25.7765C67.3223 25.8 67.2659 25.8106 67.2094 25.8072C67.1255 25.8051 67.0435 25.7825 66.9705 25.7415C66.613 25.5292 66.2054 25.4144 65.7889 25.4087C65.3784 25.3924 64.9709 25.4846 64.6081 25.6759C64.2679 25.8602 63.9873 26.1364 63.7987 26.4724C63.5973 26.8393 63.4914 27.2502 63.4906 27.668C63.4702 28.1053 63.5624 28.5407 63.7584 28.9329C63.9363 29.2752 64.2107 29.5587 64.5479 29.7491C64.8987 29.9434 65.2931 30.0466 65.6946 30.0493C66.1127 30.0625 66.5262 29.9601 66.8889 29.7535C66.9612 29.7197 67.0405 29.7032 67.1205 29.7054C67.1808 29.7046 67.2404 29.7184 67.2941 29.7457C67.3478 29.773 67.3939 29.813 67.4285 29.8621C67.4944 29.9421 67.53 30.0425 67.5291 30.1458C67.5279 30.2156 67.5063 30.2835 67.4671 30.3414C67.4263 30.4027 67.3696 30.4518 67.303 30.4837C67.0554 30.6136 66.7923 30.7121 66.5199 30.7766C66.2425 30.8452 65.9573 30.8776 65.6714 30.873C65.1206 30.8668 64.5797 30.7261 64.0965 30.4633C63.6212 30.2017 63.23 29.8121 62.9681 29.3393C62.683 28.8196 62.5461 28.2325 62.5722 27.6413C62.5772 27.0815 62.7301 26.5328 63.0156 26.05C63.2932 25.5886 63.6907 25.2097 64.1665 24.9532C64.6666 24.6946 65.2246 24.5663 65.7883 24.5802C66.352 24.5942 66.903 24.75 67.3895 25.0331C67.4583 25.0628 67.5165 25.1121 67.5569 25.1748C67.5972 25.2375 67.6179 25.3106 67.6162 25.385Z" fill="white"/>
<path id="Vector_19" d="M74.8349 30.603C74.8347 30.6556 74.824 30.7076 74.8034 30.7561C74.7828 30.8045 74.7528 30.8485 74.715 30.8853C74.6772 30.9222 74.6325 30.9513 74.5833 30.9709C74.5341 30.9905 74.4816 31.0003 74.4286 30.9996C74.3466 30.9981 74.2674 30.9701 74.2029 30.9198C74.1333 30.8645 74.0792 30.7923 74.0459 30.7102L73.5194 29.4048L70.7796 29.3491L70.2132 30.6403C70.1857 30.7212 70.1329 30.7914 70.0624 30.8405C69.9955 30.8852 69.9161 30.9082 69.8354 30.9063C69.7839 30.9086 69.7324 30.9007 69.684 30.8829C69.6356 30.8652 69.5913 30.838 69.5537 30.8029C69.5223 30.7677 69.4983 30.7266 69.4831 30.6821C69.468 30.6375 69.462 30.5904 69.4655 30.5435C69.4695 30.4963 69.4764 30.4494 69.4861 30.4031L71.8529 25.01C71.8897 24.9236 71.9511 24.8497 72.0297 24.7976C72.1048 24.7491 72.1957 24.7309 72.2839 24.7467C72.3689 24.7469 72.4517 24.7732 72.521 24.822C72.5921 24.8717 72.644 24.9438 72.6684 25.0266L74.8156 30.4394C74.8306 30.4926 74.8371 30.5478 74.8349 30.603ZM71.1343 28.5562L73.2004 28.5982L72.2125 26.1184L71.1343 28.5562Z" fill="white"/>
<path id="Vector_20" d="M81.2405 25.0602C81.2796 25.0988 81.3099 25.1452 81.3294 25.1964C81.349 25.2476 81.3573 25.3023 81.3538 25.357C81.3553 25.4112 81.3449 25.4652 81.3233 25.5151C81.3017 25.5649 81.2694 25.6095 81.2286 25.6457C81.142 25.7161 81.0319 25.7516 80.9202 25.745L79.3424 25.713L79.2421 30.6479C79.2417 30.704 79.2295 30.7593 79.2062 30.8104C79.183 30.8615 79.1492 30.9071 79.1071 30.9445C79.0169 31.0214 78.9012 31.0625 78.7823 31.0601C78.6634 31.0577 78.5495 31.0119 78.4624 30.9314C78.4216 30.8926 78.3895 30.8456 78.3683 30.7936C78.3471 30.7416 78.3373 30.6857 78.3396 30.6296L78.4399 25.6946L76.8685 25.6627C76.7558 25.6645 76.6468 25.6227 76.5646 25.5461C76.5255 25.5075 76.4951 25.461 76.4756 25.4098C76.4561 25.3587 76.4478 25.3039 76.4513 25.2493C76.4505 25.1959 76.4613 25.1429 76.4828 25.0939C76.5044 25.0449 76.5363 25.0011 76.5764 24.9654C76.6616 24.8922 76.7723 24.8548 76.8848 24.8612L80.9365 24.9436C81.0492 24.9418 81.1583 24.9836 81.2405 25.0602Z" fill="white"/>
<path id="Vector_21" d="M84.5094 31.0541C84.4248 31.132 84.3128 31.174 84.1975 31.171C84.138 31.1729 84.0787 31.1624 84.0236 31.14C83.9685 31.1177 83.9187 31.084 83.8776 31.0412C83.839 30.9997 83.8091 30.9509 83.7897 30.8977C83.7703 30.8446 83.7618 30.7881 83.7646 30.7317L83.8725 25.4256C83.8729 25.37 83.8847 25.315 83.907 25.2641C83.9294 25.2131 83.9619 25.1671 84.0026 25.129C84.0459 25.0886 84.0971 25.0575 84.1529 25.0374C84.2088 25.0174 84.2682 25.0088 84.3275 25.0123C84.3842 25.0129 84.4402 25.0246 84.4924 25.0468C84.5445 25.069 84.5917 25.1013 84.6312 25.1417C84.6716 25.1809 84.7033 25.2279 84.7245 25.2798C84.7456 25.3318 84.7557 25.3875 84.754 25.4435L84.6462 30.7496C84.6467 30.8071 84.6347 30.8641 84.6111 30.9166C84.5875 30.9691 84.5528 31.016 84.5094 31.0541Z" fill="white"/>
<path id="Vector_22" d="M92.9007 29.8787C92.6459 30.3422 92.2692 30.7283 91.8107 30.996C91.3378 31.2598 90.8023 31.3932 90.2598 31.3822C89.7174 31.3711 89.1878 31.2161 88.726 30.9333C88.2778 30.6478 87.9165 30.2465 87.6806 29.7726C87.4375 29.268 87.3168 28.7139 87.3282 28.1547C87.3396 27.5955 87.4827 27.0468 87.7461 26.5525C88.0009 26.0881 88.3783 25.7013 88.8378 25.4336C89.3107 25.1698 89.8461 25.0364 90.3886 25.0475C90.931 25.0585 91.4607 25.2135 91.9225 25.4963C92.3698 25.783 92.7305 26.1847 92.9662 26.6586C93.2103 27.1629 93.3315 27.7171 93.3202 28.2765C93.3088 28.8359 93.1651 29.3847 92.9007 29.8787ZM92.1648 27.06C92.0069 26.7158 91.7569 26.4212 91.442 26.2083C91.1216 26.0051 90.7509 25.8935 90.3707 25.8858C89.9906 25.8781 89.6157 25.9745 89.2873 26.1645C88.9636 26.3612 88.7016 26.6435 88.5306 26.9797C88.3413 27.3504 88.2419 27.76 88.2403 28.1757C88.2256 28.5879 88.3084 28.9979 88.482 29.3728C88.6399 29.717 88.8899 30.0116 89.2047 30.2245C89.5244 30.4298 89.8953 30.5426 90.2759 30.5503C90.6565 30.5581 91.0318 30.4604 91.3595 30.2683C91.6828 30.0683 91.9445 29.7842 92.1163 29.4467C92.299 29.077 92.3981 28.6721 92.4065 28.2603C92.4148 27.8486 92.3323 27.44 92.1647 27.0632L92.1648 27.06Z" fill="white"/>
<path id="Vector_23" d="M100.915 25.4601C100.949 25.4976 100.976 25.5416 100.993 25.5894C101.011 25.6373 101.018 25.6882 101.015 25.739L100.907 31.0803C100.907 31.1369 100.896 31.1931 100.875 31.2455C100.853 31.2978 100.82 31.3453 100.78 31.3849C100.74 31.4247 100.692 31.4557 100.639 31.4758C100.586 31.496 100.529 31.5049 100.473 31.5019C100.407 31.5009 100.343 31.4893 100.281 31.4676C100.226 31.4492 100.176 31.4161 100.138 31.3719L96.7454 26.7964L96.6592 31.0371C96.6595 31.0884 96.6493 31.1391 96.6292 31.1863C96.6091 31.2335 96.5795 31.2761 96.5423 31.3116C96.5051 31.347 96.461 31.3746 96.4127 31.3926C96.3644 31.4106 96.3129 31.4187 96.2613 31.4163C96.2104 31.4171 96.1598 31.4072 96.113 31.3872C96.0661 31.3673 96.0241 31.3377 95.9896 31.3004C95.9549 31.2629 95.9281 31.219 95.9108 31.1711C95.8935 31.1231 95.886 31.0723 95.8889 31.0215L95.9976 25.6722C95.9966 25.6161 96.0072 25.5604 96.0287 25.5085C96.0503 25.4566 96.0824 25.4097 96.123 25.3707C96.1625 25.3328 96.2094 25.3033 96.2608 25.2839C96.3122 25.2646 96.3671 25.2559 96.422 25.2583C96.4922 25.2594 96.5615 25.2744 96.6258 25.3025C96.6849 25.3256 96.7361 25.3649 96.7735 25.4159L100.156 29.9992L100.243 25.7281C100.243 25.6769 100.253 25.6261 100.273 25.5789C100.293 25.5318 100.323 25.4891 100.36 25.4537C100.397 25.4182 100.441 25.3906 100.49 25.3726C100.538 25.3546 100.59 25.3465 100.641 25.3489C100.692 25.3474 100.743 25.3566 100.79 25.3757C100.837 25.3949 100.879 25.4236 100.915 25.4601Z" fill="white"/>
<path id="Vector_24" d="M112.753 28.6355C112.792 28.6755 112.822 28.7229 112.841 28.7747C112.861 28.8265 112.87 28.8817 112.868 28.9371L112.828 30.9174C112.828 30.9924 112.807 31.066 112.768 31.1303C112.73 31.1946 112.674 31.2473 112.607 31.2826C112.034 31.6317 111.372 31.8103 110.699 31.7976C110.129 31.7932 109.57 31.6382 109.08 31.3486C108.599 31.0613 108.203 30.6532 107.932 30.1656C107.661 29.6779 107.524 29.1279 107.535 28.571C107.546 28.0142 107.706 27.4701 107.996 26.9939C108.287 26.5177 108.699 26.126 109.192 25.8585C109.692 25.5845 110.257 25.4479 110.828 25.4629C111.116 25.4676 111.402 25.5062 111.68 25.5778C111.94 25.6411 112.188 25.7439 112.416 25.8824C112.481 25.9194 112.535 25.9723 112.574 26.0361C112.608 26.0952 112.625 26.1626 112.623 26.2307C112.622 26.3434 112.577 26.4513 112.496 26.5306C112.46 26.5706 112.415 26.6023 112.365 26.6234C112.315 26.6445 112.261 26.6545 112.207 26.6527C112.125 26.653 112.046 26.6303 111.977 26.5873C111.615 26.4082 111.217 26.31 110.813 26.2995C110.406 26.2863 110.003 26.3826 109.647 26.5782C109.29 26.7738 108.994 27.0615 108.789 27.4107C108.579 27.7664 108.465 28.1707 108.461 28.5834C108.448 28.9945 108.545 29.4017 108.741 29.7638C108.933 30.1169 109.214 30.414 109.557 30.6253C109.905 30.8442 110.306 30.9631 110.718 30.969C110.931 30.9716 111.144 30.9523 111.353 30.9115C111.551 30.8759 111.744 30.8175 111.928 30.7375L111.957 29.3266L110.884 29.3048C110.828 29.3048 110.773 29.2936 110.721 29.2719C110.67 29.2503 110.624 29.2186 110.585 29.1787C110.545 29.1402 110.514 29.0938 110.494 29.0427C110.474 28.9916 110.464 28.9368 110.467 28.8819C110.466 28.8254 110.478 28.7695 110.5 28.7176C110.522 28.6657 110.555 28.619 110.597 28.5804C110.638 28.5427 110.685 28.5134 110.738 28.4941C110.79 28.4748 110.845 28.466 110.901 28.4682L112.461 28.4999C112.516 28.5009 112.571 28.5135 112.622 28.5368C112.672 28.5602 112.717 28.5938 112.753 28.6355Z" fill="white"/>
<path id="Vector_25" d="M120.382 31.3561C120.416 31.4145 120.433 31.4805 120.432 31.5475C120.434 31.5991 120.424 31.6506 120.403 31.6975C120.381 31.7444 120.348 31.7855 120.307 31.817C120.222 31.8754 120.12 31.9043 120.017 31.8992C119.917 31.9002 119.82 31.8738 119.734 31.823C119.547 31.7063 119.399 31.5359 119.311 31.3343C119.19 31.0192 119.142 30.6815 119.17 30.3456C119.182 30.2242 119.165 30.1017 119.122 29.9877C119.078 29.8737 119.008 29.7715 118.917 29.6892C118.721 29.5374 118.478 29.4578 118.23 29.4639L116.431 29.4274L116.391 31.4062C116.393 31.5172 116.353 31.625 116.278 31.708C116.243 31.7457 116.201 31.7753 116.153 31.7948C116.105 31.8143 116.054 31.8232 116.002 31.8208C115.874 31.8208 115.75 31.7745 115.653 31.6904C115.609 31.6538 115.573 31.6075 115.549 31.5552C115.525 31.5029 115.513 31.4458 115.514 31.3884L115.622 26.0711C115.623 26.0155 115.635 25.9607 115.658 25.9098C115.68 25.8589 115.712 25.8129 115.752 25.7745C115.793 25.736 115.84 25.7059 115.893 25.6858C115.945 25.6657 116 25.656 116.056 25.6574L118.546 25.708C118.855 25.7117 119.157 25.7986 119.42 25.9594C119.684 26.1187 119.902 26.3438 120.052 26.6124C120.207 26.8955 120.283 27.2149 120.271 27.537C120.266 27.8624 120.167 28.1795 119.987 28.4514C119.818 28.7202 119.578 28.937 119.292 29.0774C119.502 29.1871 119.678 29.3518 119.8 29.5535C119.926 29.7658 119.993 30.0073 119.995 30.2536C120.001 30.4825 120.022 30.7108 120.06 30.9366C120.071 30.9917 120.093 31.0438 120.126 31.0893C120.158 31.1348 120.201 31.1725 120.25 31.1998C120.305 31.2418 120.35 31.2952 120.382 31.3561ZM118.891 28.5668C119.034 28.4548 119.147 28.3106 119.222 28.1462C119.311 27.9588 119.357 27.7544 119.359 27.5473C119.371 27.284 119.283 27.0257 119.112 26.8237C119.037 26.7296 118.942 26.6533 118.833 26.6001C118.725 26.547 118.606 26.5184 118.485 26.5165L116.491 26.476L116.446 28.6931L118.467 28.7342C118.623 28.7231 118.771 28.6647 118.891 28.5668Z" fill="white"/>
<path id="Vector_26" d="M128.233 30.5967C127.978 31.0602 127.601 31.4464 127.143 31.714C126.67 31.9779 126.134 32.1112 125.592 32.1002C125.049 32.0891 124.52 31.9342 124.058 31.6513C123.61 31.3658 123.248 30.9645 123.013 30.4906C122.77 29.986 122.649 29.4319 122.66 28.8727C122.672 28.3136 122.815 27.7648 123.078 27.2705C123.333 26.8061 123.71 26.4194 124.17 26.1516C124.643 25.8878 125.178 25.7545 125.721 25.7655C126.263 25.7765 126.793 25.9315 127.254 26.2143C127.702 26.501 128.063 26.9027 128.298 27.3766C128.542 27.881 128.664 28.4352 128.652 28.9945C128.641 29.5539 128.497 30.1027 128.233 30.5967ZM127.497 27.778C127.339 27.4338 127.089 27.1392 126.774 26.9263C126.454 26.7231 126.083 26.6115 125.703 26.6038C125.323 26.5961 124.948 26.6925 124.619 26.8825C124.296 27.0792 124.034 27.3615 123.863 27.6977C123.673 28.0685 123.574 28.478 123.572 28.8937C123.558 29.306 123.64 29.716 123.814 30.0908C123.972 30.435 124.222 30.7296 124.537 30.9425C124.856 31.1478 125.227 31.2606 125.608 31.2683C125.989 31.2761 126.364 31.1784 126.692 30.9863C127.015 30.7864 127.277 30.5022 127.448 30.1647C127.631 29.795 127.73 29.3901 127.738 28.9783C127.747 28.5666 127.664 28.158 127.497 27.7812L127.497 27.778Z" fill="white"/>
<path id="Vector_27" d="M136.029 26.1741C136.102 26.2588 136.139 26.3687 136.132 26.4802L136.064 29.8587C136.061 30.2948 135.946 30.7229 135.729 31.1018C135.523 31.4594 135.22 31.7531 134.855 31.9498C134.479 32.1564 134.053 32.2583 133.622 32.2448C133.187 32.2411 132.761 32.122 132.388 31.8997C132.029 31.6893 131.737 31.3835 131.545 31.0168C131.343 30.6294 131.245 30.1969 131.261 29.7611L131.33 26.3826C131.329 26.3261 131.34 26.27 131.362 26.218C131.385 26.1661 131.418 26.1194 131.46 26.0812C131.504 26.0417 131.555 26.0113 131.611 25.9921C131.666 25.9729 131.726 25.9652 131.785 25.9694C131.84 25.9702 131.894 25.9821 131.945 26.0043C131.995 26.0265 132.041 26.0585 132.079 26.0986C132.119 26.1376 132.151 26.1846 132.172 26.2366C132.193 26.2886 132.202 26.3444 132.2 26.4003L132.131 29.7788C132.122 30.0669 132.19 30.3523 132.329 30.6054C132.458 30.8441 132.65 31.0442 132.883 31.1848C133.112 31.3226 133.375 31.3975 133.643 31.4019C133.916 31.4105 134.186 31.3493 134.428 31.2242C134.672 31.0943 134.876 30.9024 135.02 30.6681C135.172 30.4218 135.253 30.139 135.254 29.8503L135.323 26.4638C135.321 26.3527 135.361 26.2449 135.436 26.162C135.474 26.1228 135.52 26.0923 135.571 26.0729C135.622 26.0534 135.677 26.0455 135.732 26.0496C135.787 26.0477 135.843 26.0578 135.894 26.0793C135.945 26.1008 135.991 26.1331 136.029 26.1741Z" fill="white"/>
<path id="Vector_28" d="M142.465 26.4452C142.73 26.6192 142.944 26.8585 143.087 27.1396C143.238 27.435 143.311 27.7634 143.301 28.0945C143.297 28.4288 143.21 28.7569 143.048 29.0496C142.895 29.329 142.671 29.5638 142.399 29.731C142.137 29.8937 141.833 29.9765 141.525 29.9692L139.858 29.9354L139.819 31.879C139.82 31.9898 139.776 32.0965 139.698 32.1758C139.618 32.2514 139.511 32.2925 139.401 32.2903C139.29 32.288 139.185 32.2426 139.108 32.1638C139.035 32.0789 138.998 31.9691 139.005 31.8576L139.113 26.5483C139.113 26.4928 139.125 26.438 139.147 26.387C139.169 26.336 139.201 26.2899 139.242 26.2513C139.282 26.2128 139.329 26.1827 139.382 26.1626C139.434 26.1426 139.489 26.1331 139.545 26.1346L141.602 26.1764C141.91 26.1808 142.21 26.2742 142.465 26.4452ZM141.987 29.0232C142.13 28.9183 142.243 28.7798 142.318 28.6203C142.402 28.4512 142.446 28.2656 142.448 28.0772C142.461 27.8007 142.374 27.5287 142.203 27.3105C142.132 27.2127 142.039 27.1325 141.931 27.0762C141.824 27.0199 141.705 26.989 141.584 26.9858L139.917 26.952L139.873 29.1339L141.539 29.1678C141.701 29.171 141.859 29.1201 141.987 29.0232Z" fill="white"/>
</g>
</svg>
