<svg width="341" height="348" viewBox="0 0 341 348" fill="none" xmlns="http://www.w3.org/2000/svg">
    <g filter="url(#filter0_ii_2386_11465)">
        <path d="M294.905 125.324C300.001 115.634 295.335 106.179 284.572 104.303C279.292 103.295 274.562 100.371 271.284 96.0888C268.007 91.8067 266.412 86.4668 266.805 81.0891C267.824 70.1714 259.924 63.2272 249.267 65.6445C244.011 66.739 238.532 65.85 233.876 63.1473C229.221 60.4445 225.716 56.1175 224.03 50.9926C220.807 40.5168 210.858 37.1146 201.96 43.4419C197.532 46.4786 192.139 47.767 186.814 47.0607C181.489 46.3544 176.605 43.7031 173.095 39.6135C166.111 31.1555 155.659 31.8331 149.82 41.1076C146.919 45.6523 142.413 48.9258 137.204 50.2738C132.018 51.7091 126.478 51.1251 121.692 48.6387C112.031 43.5141 102.64 48.1497 100.788 58.9735C99.7953 64.254 96.9033 68.9787 92.6618 72.2489C88.4203 75.5191 83.1252 77.1066 77.7838 76.7094C66.9067 75.6571 60.0168 83.5876 62.4486 94.2753C63.5532 99.5557 62.6827 105.054 60.0035 109.721C57.3243 114.387 53.0241 117.895 47.9242 119.573C37.5038 122.799 34.1375 132.76 40.464 141.711C43.5034 146.169 44.7995 151.592 44.1036 156.941C43.4077 162.289 40.7688 167.185 36.6931 170.691C28.3062 177.674 29.0147 188.189 38.2634 194.058C42.7627 197.016 46.0228 201.531 47.42 206.742C48.8172 211.952 48.2535 217.492 45.8367 222.301C40.7589 231.986 45.4018 241.428 56.1693 243.322C61.4535 244.329 66.1878 247.255 69.4666 251.541C72.7454 255.828 74.3384 261.173 73.9409 266.554C72.9226 277.472 80.8404 284.411 91.479 281.999C96.736 280.895 102.219 281.781 106.876 284.485C111.534 287.188 115.038 291.521 116.716 296.65C119.958 307.121 129.883 310.51 138.786 304.201C143.217 301.165 148.612 299.879 153.938 300.589C159.265 301.299 164.149 303.954 167.657 308.048C174.635 316.488 185.093 315.829 190.927 306.535C193.859 302.021 198.351 298.756 203.541 297.366C208.732 295.977 214.255 296.56 219.054 299.004C228.72 304.147 238.106 299.493 239.964 288.688C240.941 283.383 243.834 278.632 248.09 275.345C252.346 272.058 257.664 270.467 263.026 270.877C273.903 271.929 280.904 263.969 278.361 253.311C277.248 248.03 278.115 242.528 280.795 237.859C283.476 233.19 287.781 229.684 292.886 228.013C303.325 224.782 306.673 214.827 300.346 205.875C297.317 201.411 296.027 195.988 296.722 190.64C297.416 185.293 300.047 180.394 304.112 176.877C312.499 169.894 311.814 159.392 302.542 153.509C298.045 150.564 294.782 146.063 293.373 140.864C291.965 135.666 292.51 130.134 294.905 125.324Z" fill="url(#paint0_linear_2386_11465)"/>
    </g>
    <g filter="url(#filter1_d_2386_11465)">
        <path d="M200.409 286.253C178.277 292.187 154.872 291.393 133.153 283.971C111.434 276.55 92.3774 262.835 78.3932 244.56C64.409 226.286 56.1254 204.273 54.5901 181.306C53.0547 158.339 58.3365 135.449 69.7676 115.531C81.1986 95.6137 98.2653 79.5632 118.809 69.4097C139.353 59.2562 162.452 55.4558 185.183 58.4892C207.914 61.5225 229.258 71.2533 246.514 86.4509C263.769 101.649 276.163 121.63 282.126 143.869C290.084 173.68 285.95 205.411 270.631 232.102C255.312 258.794 230.059 278.268 200.409 286.253ZM141.663 67.177C120.67 72.7977 101.826 84.5467 87.5136 100.938C73.201 117.33 64.0629 137.628 61.2547 159.266C58.4464 180.903 62.0943 202.908 71.7371 222.499C81.3798 242.089 96.5842 258.384 115.428 269.324C134.271 280.264 155.907 285.357 177.6 283.959C199.293 282.562 220.068 274.736 237.298 261.471C254.529 248.207 267.44 230.099 274.401 209.439C281.361 188.779 282.057 166.494 276.401 145.402C268.786 117.138 250.324 93.0294 225.065 78.3649C199.806 63.7004 169.812 59.6769 141.663 67.177Z" fill="white"/>
    </g>
    <g filter="url(#filter2_d_2386_11465)">
        <path d="M149.982 98.1334C135.076 102.117 121.693 110.452 111.527 122.085C101.361 133.719 94.8685 148.127 92.8701 163.489C90.8717 178.85 93.4576 194.474 100.301 208.383C107.144 222.293 117.936 233.864 131.314 241.633C144.691 249.401 160.051 253.019 175.453 252.027C190.854 251.035 205.603 245.478 217.836 236.06C230.068 226.642 239.234 213.786 244.173 199.117C249.112 184.448 249.603 168.626 245.584 153.653C240.203 133.584 227.108 116.46 209.179 106.049C191.251 95.6374 169.958 92.7902 149.982 98.1334ZM188.448 241.583C175.109 245.162 161.001 244.686 147.909 240.215C134.817 235.745 123.329 227.48 114.898 216.466C106.467 205.452 101.472 192.184 100.545 178.341C99.6173 164.497 102.799 150.7 109.688 138.694C116.577 126.687 126.863 117.012 139.246 110.891C151.628 104.77 165.551 102.478 179.253 104.306C192.954 106.133 205.819 111.998 216.221 121.158C226.622 130.318 234.093 142.363 237.687 155.767C240.075 164.663 240.696 173.94 239.514 183.067C238.332 192.194 235.37 200.993 230.798 208.962C226.226 216.931 220.132 223.913 212.866 229.51C205.6 235.107 197.302 239.209 188.448 241.583Z" fill="white"/>
    </g>
    <path d="M169.91 173.088L189.222 245.109L213.909 234.752L242.38 198.703L243.974 174.112L238.523 153.785L169.91 173.088Z" fill="#707070"/>
    <path d="M171.152 175.33L151.748 103.334L127.075 113.721L98.6491 149.807L97.0864 174.4L102.563 194.719L171.152 175.33Z" fill="#707070"/>
    <path d="M99.0975 193.016L109.36 213.996L124.239 232.769L153.29 245.528L185.335 246.721L189.222 245.105L169.91 173.085L99.0975 193.016Z" fill="#7D7D7D"/>
    <path d="M241.94 155.313L231.651 134.345L216.749 115.591L187.682 102.869L155.635 101.716L151.75 103.337L171.153 175.333L241.94 155.313Z" fill="#7D7D7D"/>
    <g filter="url(#filter3_d_2386_11465)">
        <path d="M193.879 228.26L184.08 226.007L176.68 232.845L175.753 222.765L166.965 217.803L176.22 213.839L178.2 203.932L184.822 211.555L194.831 210.402L189.68 219.076L193.879 228.26Z" fill="white"/>
    </g>
    <g filter="url(#filter4_d_2386_11465)">
        <path d="M169.331 137.588L159.533 135.335L152.133 142.173L151.205 132.093L142.417 127.132L151.673 123.167L153.653 113.26L160.274 120.883L170.283 119.73L165.132 128.404L169.331 137.588Z" fill="white"/>
    </g>
    <g filter="url(#filter5_d_2386_11465)">
        <path d="M267.904 128.168L63.6514 182.855L72.983 217.655L277.236 162.967L267.904 128.168Z" fill="white"/>
    </g>
    <path d="M270.811 122.061L56.6641 179.398L67.3288 219.17L281.476 161.833L270.811 122.061Z" fill="white"/>
    <g filter="url(#filter6_d_2386_11465)">
        <path d="M257.586 146.595C257.225 145.249 257.269 143.827 257.714 142.508C258.158 141.19 258.982 140.034 260.081 139.187C261.181 138.341 262.507 137.841 263.892 137.752C265.276 137.663 266.657 137.988 267.86 138.686C269.062 139.384 270.033 140.425 270.648 141.675C271.263 142.925 271.496 144.33 271.317 145.711C271.138 147.091 270.555 148.387 269.641 149.433C268.728 150.479 267.525 151.229 266.185 151.588C265.296 151.826 264.367 151.886 263.454 151.764C262.54 151.642 261.659 151.34 260.861 150.877C260.062 150.413 259.362 149.797 258.8 149.062C258.238 148.327 257.826 147.489 257.586 146.595Z" fill="#830F0F"/>
    </g>
    <g filter="url(#filter7_d_2386_11465)">
        <path d="M66.8632 197.658C66.502 196.311 66.5467 194.888 66.9917 193.569C67.4366 192.249 68.2618 191.093 69.3627 190.247C70.4636 189.401 71.7907 188.902 73.1761 188.814C74.5615 188.726 75.9428 189.053 77.1452 189.754C78.3476 190.454 79.317 191.496 79.9307 192.748C80.5443 194 80.7747 195.406 80.5925 196.787C80.4104 198.169 79.824 199.464 78.9075 200.508C77.991 201.553 76.7857 202.3 75.4441 202.655C74.5554 202.893 73.6281 202.953 72.7155 202.83C71.8029 202.708 70.9228 202.406 70.1257 201.941C69.3286 201.477 68.6301 200.86 68.0702 200.125C67.5104 199.39 67.1002 198.551 66.8632 197.658Z" fill="#830F0F"/>
    </g>
    <g filter="url(#filter8_d_2386_11465)">
        <path d="M220.989 207.019L214.976 205.636L210.455 209.82L209.89 203.667L204.517 200.626L210.179 198.198L211.378 192.148L215.449 196.807L221.554 196.104L218.418 201.404L220.989 207.019Z" fill="white"/>
    </g>
    <g filter="url(#filter9_d_2386_11465)">
        <path d="M200.805 132.628L194.791 131.245L190.27 135.429L189.705 129.276L184.332 126.235L189.995 123.807L191.194 117.757L195.265 122.416L201.37 121.713L198.233 127.013L200.805 132.628Z" fill="white"/>
    </g>
    <g filter="url(#filter10_d_2386_11465)">
        <path d="M142.993 227.907L147.509 223.705L153.517 225.07L150.928 219.459L154.041 214.146L147.94 214.867L143.875 210.227L142.681 216.295L137.041 218.737L142.41 221.76L142.993 227.907Z" fill="white"/>
    </g>
    <g filter="url(#filter11_d_2386_11465)">
        <path d="M122.81 153.509L127.326 149.307L133.335 150.671L130.745 145.061L133.858 139.747L127.758 140.469L123.692 135.828L122.498 141.897L116.859 144.338L122.227 147.361L122.81 153.509Z" fill="white"/>
    </g>
    <path d="M80.4193 132.362C80.8822 131.366 81.1278 130.884 81.619 129.92L91.0248 134.756C90.5874 135.626 90.3871 136.056 89.9928 137.014L80.4193 132.362Z" fill="white"/>
    <path d="M92.2953 123.371C91.0353 125.295 90.4153 126.293 89.2452 128.331L91.582 129.688C92.9269 127.345 93.5653 126.342 94.9881 124.216L96.5566 125.283C94.9312 127.67 93.4414 130.147 92.0944 132.702L82.8366 127.609C84.2885 124.843 85.895 122.163 87.6485 119.58L89.212 120.629C87.8225 122.805 87.0616 123.94 85.7301 126.259L87.6697 127.385C88.8666 125.3 89.4867 124.302 90.7919 122.327L92.2953 123.371Z" fill="white"/>
    <path d="M88.9627 117.649L90.5058 115.531L97.4625 120.726C98.8074 118.899 99.499 118.02 100.952 116.302L102.408 117.538C100.701 119.537 99.1012 121.627 97.6153 123.797L88.9627 117.649Z" fill="white"/>
    <path d="M100.738 103.73L102.062 105.06C101.03 106.07 100.499 106.589 99.5572 107.713L105.848 113.661C105.217 114.325 104.895 114.669 104.329 115.356L97.8462 109.5C96.8764 110.592 96.3179 111.158 95.4684 112.257L94.0224 111.059C96.1172 108.487 98.3596 106.04 100.738 103.73Z" fill="white"/>
    <path d="M111.028 106.564C111.376 106.274 111.677 105.933 111.921 105.551C112.098 105.326 112.191 105.045 112.182 104.757C112.174 104.469 112.065 104.194 111.874 103.978C111.772 103.846 111.633 103.747 111.474 103.694C111.316 103.641 111.146 103.636 110.985 103.681C110.456 103.798 109.951 104.007 109.493 104.298L108.413 104.905C107.677 105.375 106.876 105.736 106.037 105.977C105.595 106.067 105.136 106.034 104.71 105.883C104.284 105.732 103.906 105.468 103.617 105.118C103.306 104.779 103.082 104.37 102.963 103.926C102.844 103.481 102.833 103.015 102.933 102.566C103.198 101.351 103.889 100.273 104.88 99.5272C105.724 98.7343 106.798 98.2316 107.947 98.0913C108.456 98.0332 108.971 98.1078 109.443 98.3079C109.914 98.508 110.327 98.8268 110.641 99.2335C109.907 99.8067 109.533 100.105 108.809 100.715C108.619 100.493 108.368 100.333 108.087 100.256C107.806 100.179 107.508 100.189 107.233 100.285C106.758 100.436 106.321 100.688 105.952 101.024C105.542 101.365 105.226 101.804 105.032 102.301C104.977 102.492 104.975 102.695 105.027 102.888C105.078 103.08 105.181 103.255 105.324 103.393C105.442 103.53 105.598 103.629 105.773 103.674C105.947 103.72 106.131 103.71 106.3 103.647C106.799 103.466 107.28 103.238 107.735 102.965L109.452 102.01C110.071 101.654 110.756 101.43 111.466 101.352C111.884 101.329 112.301 101.416 112.677 101.604C113.052 101.792 113.373 102.074 113.608 102.424C113.911 102.775 114.131 103.19 114.252 103.639C114.372 104.087 114.389 104.557 114.302 105.013C114.013 106.128 113.36 107.113 112.447 107.809C111.554 108.704 110.384 109.269 109.128 109.411C108.63 109.471 108.125 109.409 107.655 109.232C107.185 109.054 106.764 108.765 106.428 108.39L107.991 106.861C108.284 107.128 108.647 107.306 109.036 107.374C109.407 107.396 109.779 107.334 110.123 107.194C110.468 107.054 110.777 106.838 111.028 106.564Z" fill="white"/>
    <path d="M124.294 99.0862C123.211 99.8339 121.886 100.146 120.583 99.961C119.793 99.8037 119.043 99.485 118.38 99.0249C117.717 98.5647 117.154 97.9728 116.728 97.286C116.22 96.6455 115.866 95.8965 115.693 95.0972C115.52 94.2979 115.532 93.4697 115.729 92.677C116.168 91.3171 117.116 90.1825 118.372 89.5112C119.545 88.7213 120.97 88.3964 122.37 88.5995C123.161 88.7904 123.9 89.1584 124.531 89.6761C125.162 90.1938 125.668 90.8477 126.012 91.5888C126.428 92.2693 126.704 93.026 126.824 93.8144C126.944 94.6028 126.905 95.4069 126.711 96.1793C126.29 97.4152 125.43 98.4504 124.294 99.0862ZM124.683 95.5329C124.761 94.544 124.496 93.5575 123.934 92.7401C123.516 91.8469 122.786 91.139 121.882 90.7522C121.464 90.6366 121.027 90.6077 120.598 90.6673C120.169 90.727 119.757 90.874 119.387 91.0992C119.017 91.3244 118.697 91.6232 118.447 91.9773C118.196 92.3313 118.02 92.7332 117.93 93.1583C117.803 94.1574 118.074 95.1675 118.684 95.9695C119.209 96.7975 120.003 97.4183 120.931 97.7269C121.325 97.8412 121.739 97.8724 122.145 97.8185C122.552 97.7646 122.943 97.6269 123.293 97.4139C123.644 97.2008 123.946 96.9172 124.182 96.5808C124.418 96.2443 124.581 95.8623 124.663 95.4589L124.683 95.5329Z" fill="white"/>
    <path d="M137.983 91.9325C137.142 92.2566 136.734 92.4255 135.922 92.7817C133.589 90.9929 131.166 89.3258 128.664 87.7869C129.985 90.5058 130.643 91.856 131.945 94.5799L130.08 95.4956L125.238 86.0479L127.589 84.8831C130.591 86.7355 132.023 87.6605 134.817 89.7669C133.649 87.027 133.088 85.6707 131.924 82.9493L134.072 82.057C135.642 85.9979 136.431 87.9868 137.983 91.9325Z" fill="white"/>
    <path d="M136.239 81.2386L138.596 80.3895L141.4 88.6385C143.44 87.9336 144.48 87.6157 146.555 87.0402C146.753 87.78 146.852 88.1499 147.051 88.8897C144.627 89.532 142.239 90.3037 139.897 91.2016C138.451 87.2077 137.742 85.2965 136.239 81.2386Z" fill="white"/>
    <path d="M145.702 78.2694L148.095 77.6286C149.067 81.7691 149.544 83.8418 150.511 87.9637L148.376 88.5354C147.311 84.4196 146.779 82.3617 145.702 78.2694Z" fill="white"/>
    <path d="M160.868 86.5148C159.987 86.612 159.543 86.6514 158.653 86.7906C156.854 84.4573 154.937 82.2183 152.909 80.0823L154.305 87.4988C153.495 87.7156 153.084 87.7267 152.264 87.9065L150.069 77.5123L152.635 77.0035C154.649 79.1055 156.556 81.3074 158.35 83.6008C157.936 80.6589 157.739 79.1855 157.348 76.2572C158.261 76.1315 158.718 76.0687 159.641 75.9801C160.194 80.1735 160.384 82.2831 160.868 86.5148Z" fill="white"/>
    <path d="M170.555 80.9713C168.368 80.9821 167.278 81.0361 165.102 81.1628C165.177 82.2527 165.206 82.8001 165.281 83.8901C167.687 83.7413 168.898 83.6947 171.326 83.6988C171.317 84.4743 171.319 84.8504 171.343 85.6765C168.635 85.6526 165.928 85.7752 163.234 86.0437C162.866 81.801 162.675 79.6914 162.367 75.4524C165.279 75.1755 168.203 75.0542 171.128 75.089C171.133 75.8411 171.135 76.2171 171.121 76.9742C168.638 76.9848 167.404 77.0179 164.919 77.1679L165.07 79.4267C167.283 79.2903 168.397 79.2498 170.639 79.2242L170.555 80.9713Z" fill="white"/>
    <path d="M186.613 76.1808L186.323 78.0425C184.922 77.8228 184.264 77.7216 182.799 77.5586L181.833 86.2422C180.939 86.1446 180.489 86.0866 179.581 86.0125C179.911 82.5344 180.148 80.7663 180.386 77.3128C178.968 77.177 178.356 77.1029 176.862 77.0472L176.948 75.1607C180.185 75.3172 183.412 75.6578 186.613 76.1808Z" fill="white"/>
    <path d="M194.88 84.056C192.752 83.4761 191.619 83.2244 189.433 82.7987L188.927 85.4716C191.326 85.9591 192.543 86.228 194.927 86.8782L194.438 88.7337C191.785 87.986 189.094 87.383 186.377 86.9273C187.079 82.7748 187.448 80.6937 188.168 76.5362C191.108 77.0192 194.021 77.6622 196.892 78.4624L196.412 80.276C193.968 79.6221 192.713 79.284 190.245 78.8348L189.813 81.0516C192.041 81.486 193.137 81.7476 195.344 82.3262L194.88 84.056Z" fill="white"/>
    <path d="M200.464 88.9806C200.893 89.14 201.344 89.2332 201.8 89.257C202.087 89.298 202.378 89.2389 202.625 89.0897C202.873 88.9404 203.061 88.71 203.159 88.4373C203.204 88.2752 203.205 88.1038 203.161 87.9411C203.118 87.7784 203.031 87.6303 202.911 87.5125C202.519 87.1169 202.07 86.7827 201.58 86.521L200.505 85.8969C199.714 85.4946 198.989 84.9735 198.354 84.3517C198.05 84.0125 197.842 83.5972 197.754 83.1498C197.665 82.7024 197.698 82.2396 197.85 81.8104C197.97 81.3669 198.196 80.9598 198.508 80.6241C198.821 80.2883 199.21 80.0342 199.642 79.8836C200.836 79.5073 202.125 79.5696 203.28 80.0593C204.407 80.4147 205.402 81.1013 206.137 82.0301C206.449 82.4416 206.651 82.9268 206.723 83.439C206.795 83.9511 206.734 84.4727 206.546 84.9535L204.338 84.0777C204.426 83.7965 204.432 83.4957 204.355 83.2107C204.279 82.9257 204.123 82.6683 203.906 82.4686C203.523 82.1319 203.072 81.8809 202.584 81.7323C202.081 81.5319 201.533 81.473 201 81.5619C200.802 81.5963 200.619 81.6859 200.47 81.8204C200.321 81.955 200.213 82.129 200.158 82.3225C200.099 82.4932 200.092 82.6781 200.139 82.853C200.186 83.0278 200.284 83.1846 200.421 83.3028C200.839 83.6428 201.284 83.948 201.751 84.2154C202.475 84.6359 202.831 84.8579 203.542 85.3019C204.179 85.6551 204.734 86.1422 205.167 86.73C205.397 87.0838 205.535 87.4893 205.568 87.9097C205.601 88.3301 205.53 88.7519 205.359 89.1367C205.187 89.5688 204.919 89.9555 204.575 90.2674C204.231 90.5792 203.821 90.8081 203.375 90.9365C202.246 91.2432 201.047 91.1672 199.963 90.7202C198.802 90.3987 197.77 89.7176 197.015 88.7741C196.708 88.3721 196.503 87.9016 196.418 87.403C196.332 86.9045 196.368 86.3929 196.524 85.9123C197.402 86.1726 197.83 86.2959 198.677 86.5846C198.595 86.9733 198.628 87.3777 198.772 87.7485C198.951 88.0624 199.195 88.3346 199.486 88.547C199.778 88.7595 200.111 88.9072 200.464 88.9806Z" fill="white"/>
    <path d="M218.177 86.8394C217.824 87.5088 217.659 87.8503 217.3 88.5013C215.988 87.802 215.326 87.464 213.987 86.8116L210.175 94.671L208.03 93.6596L211.599 85.7064C210.251 85.0959 209.562 84.8048 208.206 84.2361L208.905 82.5027C212.08 83.7583 215.176 85.2066 218.177 86.8394Z" fill="white"/>
    <path d="M218.856 97.6762C219.256 97.9355 219.689 98.1396 220.143 98.2831C220.409 98.4052 220.709 98.4307 220.991 98.3551C221.273 98.2796 221.52 98.1077 221.69 97.8691C221.785 97.7293 221.837 97.5636 221.837 97.3937C221.837 97.2238 221.786 97.0577 221.691 96.9172C221.392 96.423 221.014 95.9817 220.571 95.6113L219.602 94.721C218.9 94.1327 218.279 93.452 217.758 92.6973C217.522 92.3004 217.399 91.8471 217.4 91.3858C217.402 90.9246 217.528 90.4727 217.766 90.0785C217.985 89.6697 218.301 89.322 218.687 89.0665C219.073 88.811 219.516 88.6555 219.977 88.6142C221.269 88.5261 222.554 88.8811 223.621 89.6209C224.685 90.231 225.543 91.1479 226.083 92.2524C226.314 92.7236 226.418 93.2469 226.385 93.7703C226.353 94.2938 226.184 94.7991 225.896 95.2362C225.067 94.6454 224.636 94.3642 223.78 93.8204C223.929 93.5621 224 93.2655 223.983 92.9671C223.966 92.6687 223.863 92.3816 223.685 92.1411C223.373 91.7056 222.966 91.3468 222.496 91.0916C222.03 90.7727 221.489 90.5825 220.928 90.5402C220.728 90.5267 220.529 90.5686 220.352 90.6615C220.175 90.7543 220.027 90.8945 219.925 91.0665C219.835 91.2301 219.795 91.4164 219.81 91.6027C219.825 91.7889 219.894 91.9668 220.008 92.1145C220.359 92.5488 220.75 92.9485 221.177 93.3082C221.812 93.9113 222.127 94.2035 222.759 94.867C223.323 95.3717 223.782 95.9832 224.109 96.6661C224.272 97.0585 224.33 97.4867 224.277 97.9078C224.223 98.329 224.061 98.7285 223.806 99.0666C223.539 99.4587 223.182 99.7809 222.766 100.006C222.349 100.232 221.885 100.354 221.411 100.362C220.193 100.378 219 100.003 218.007 99.2913C216.876 98.7173 215.945 97.8119 215.338 96.6954C215.116 96.2362 215.009 95.7298 215.028 95.2203C215.046 94.7109 215.188 94.2141 215.442 93.7733C216.273 94.2247 216.694 94.4689 217.512 94.9438C217.35 95.3049 217.293 95.705 217.348 96.0978C217.475 96.4522 217.675 96.7759 217.935 97.0479C218.195 97.3198 218.508 97.5339 218.856 97.6762Z" fill="white"/>
    <path d="M93.7828 197.114C92.9046 197.351 92.0214 197.465 91.1332 197.455C90.2527 197.432 89.5124 197.297 88.9122 197.05L89.2621 194.88C89.8325 195.1 90.4743 195.228 91.1875 195.262C91.9007 195.296 92.5853 195.225 93.2413 195.048C93.9714 194.851 94.4824 194.6 94.7744 194.294C95.0635 193.978 95.1595 193.64 95.0623 193.28C94.9909 193.016 94.8265 192.828 94.5691 192.716C94.3195 192.59 94.0164 192.519 93.6598 192.502C93.3138 192.482 92.8486 192.482 92.2641 192.504C91.3633 192.532 90.6159 192.518 90.022 192.463C89.4281 192.407 88.8753 192.211 88.3638 191.872C87.8629 191.531 87.5123 190.99 87.3123 190.25C87.1379 189.605 87.1553 188.977 87.3644 188.364C87.5707 187.741 87.9815 187.182 88.597 186.687C89.223 186.189 90.0439 185.803 91.0596 185.529C91.7686 185.338 92.4845 185.235 93.2074 185.222C93.9303 185.208 94.5885 185.291 95.1822 185.471L94.9159 187.636C93.7324 187.332 92.6275 187.318 91.6011 187.595C90.8816 187.789 90.3787 188.05 90.0924 188.377C89.8167 188.701 89.7303 189.053 89.8332 189.434C89.9361 189.814 90.209 190.047 90.652 190.131C91.1026 190.203 91.7596 190.218 92.6229 190.178C93.5237 190.15 94.2711 190.164 94.865 190.219C95.4589 190.275 96.0049 190.468 96.503 190.798C97.0117 191.126 97.3661 191.66 97.5662 192.4C97.7377 193.034 97.715 193.665 97.4981 194.29C97.289 194.903 96.8715 195.458 96.2454 195.956C95.6194 196.454 94.7985 196.84 93.7828 197.114Z" fill="#821010"/>
    <path d="M105.57 193.932C104.438 194.238 103.346 194.272 102.294 194.034C101.25 193.782 100.346 193.295 99.5825 192.571C98.8268 191.833 98.3003 190.914 98.003 189.815C97.7058 188.715 97.6992 187.662 97.9833 186.655C98.2751 185.635 98.8102 184.759 99.5887 184.027C100.375 183.281 101.339 182.754 102.482 182.446C103.445 182.186 104.358 182.121 105.222 182.251C106.097 182.378 106.884 182.687 107.585 183.179L106.346 185.147C105.36 184.482 104.312 184.3 103.201 184.6C102.513 184.786 101.941 185.105 101.484 185.557C101.024 185.999 100.714 186.531 100.553 187.153C100.402 187.772 100.42 188.425 100.606 189.112C100.792 189.799 101.106 190.373 101.548 190.832C102 191.288 102.538 191.597 103.16 191.758C103.78 191.908 104.434 191.891 105.121 191.705C106.232 191.405 107.045 190.715 107.559 189.635L109.621 190.712C109.266 191.499 108.743 192.168 108.052 192.718C107.36 193.267 106.533 193.672 105.57 193.932Z" fill="#821010"/>
    <path d="M117.041 190.836C115.888 191.147 114.778 191.18 113.713 190.934C112.658 190.686 111.749 190.2 110.986 189.476C110.23 188.738 109.705 187.825 109.41 186.736C109.116 185.647 109.111 184.599 109.395 183.592C109.687 182.571 110.226 181.689 111.012 180.943C111.809 180.195 112.784 179.665 113.937 179.354C115.09 179.042 116.195 179.011 117.249 179.259C118.304 179.508 119.215 180 119.981 180.734C120.745 181.458 121.273 182.365 121.568 183.454C121.862 184.543 121.864 185.598 121.572 186.618C121.277 187.628 120.737 188.505 119.95 189.251C119.164 189.996 118.194 190.525 117.041 190.836ZM116.45 188.647C117.106 188.47 117.658 188.162 118.107 187.723C118.553 187.274 118.852 186.74 119.002 186.121C119.163 185.498 119.151 184.844 118.965 184.157C118.779 183.469 118.46 182.898 118.007 182.441C117.565 181.982 117.04 181.676 116.431 181.522C115.819 181.359 115.185 181.365 114.529 181.542C113.873 181.719 113.322 182.033 112.876 182.482C112.427 182.921 112.121 183.451 111.96 184.073C111.81 184.693 111.828 185.346 112.013 186.033C112.199 186.72 112.513 187.294 112.955 187.753C113.408 188.209 113.94 188.519 114.552 188.683C115.161 188.836 115.794 188.824 116.45 188.647Z" fill="#821010"/>
    <path d="M132.079 186.572L129.101 184.058L126.736 184.697L127.572 187.789L125.001 188.483L122 177.382L126.809 176.084C127.793 175.818 128.689 175.752 129.497 175.886C130.315 176.016 131.002 176.33 131.556 176.827C132.111 177.324 132.499 177.985 132.722 178.81C132.945 179.634 132.937 180.402 132.698 181.113C132.467 181.811 132.029 182.417 131.384 182.931L134.841 185.827L132.079 186.572ZM130.12 179.512C129.951 178.888 129.621 178.467 129.131 178.248C128.637 178.018 128.004 178.007 127.232 178.216L125.137 178.781L126.183 182.651L128.278 182.085C129.05 181.877 129.592 181.549 129.902 181.102C130.213 180.655 130.285 180.125 130.12 179.512Z" fill="#821010"/>
    <path d="M144.716 180.949L145.274 183.011L136.672 185.333L133.671 174.231L142.066 171.965L142.624 174.027L136.783 175.603L137.435 178.014L142.593 176.622L143.133 178.62L137.975 180.012L138.67 182.581L144.716 180.949Z" fill="#821010"/>
    <path d="M157.774 173.494L160.123 172.86L161.34 177.364C160.86 177.981 160.256 178.519 159.528 178.976C158.8 179.433 158.034 179.771 157.23 179.988C156.077 180.299 154.974 180.336 153.922 180.098C152.867 179.849 151.958 179.363 151.195 178.639C150.439 177.901 149.913 176.983 149.616 175.883C149.318 174.784 149.312 173.73 149.596 172.723C149.888 171.703 150.433 170.824 151.233 170.086C152.03 169.338 153.01 168.807 154.174 168.493C155.147 168.23 156.075 168.155 156.957 168.269C157.839 168.383 158.635 168.678 159.343 169.156L158.104 171.125C157.085 170.503 156.014 170.344 154.893 170.647C154.184 170.838 153.594 171.156 153.124 171.601C152.654 172.045 152.338 172.579 152.177 173.201C152.016 173.823 152.03 174.483 152.218 175.181C152.404 175.868 152.723 176.44 153.176 176.896C153.629 177.352 154.166 177.661 154.789 177.822C155.419 177.97 156.083 177.949 156.782 177.761C157.522 177.561 158.146 177.222 158.653 176.745L157.774 173.494Z" fill="#821010"/>
    <path d="M169.046 176.798C167.459 177.227 166.103 177.122 164.976 176.484C163.861 175.844 163.083 174.71 162.643 173.081L160.962 166.865L163.534 166.171L165.188 172.292C165.726 174.28 166.82 175.051 168.47 174.605C169.275 174.388 169.824 173.985 170.119 173.395C170.41 172.794 170.418 171.981 170.14 170.956L168.485 164.834L171.025 164.148L172.705 170.365C173.146 171.993 173.04 173.366 172.388 174.484C171.747 175.598 170.633 176.37 169.046 176.798Z" fill="#821010"/>
    <path d="M183.008 170.273L177.85 171.665L177.509 174.31L174.874 175.021L176.825 162.583L179.364 161.897L187.333 171.658L184.635 172.386L183.008 170.273ZM181.671 168.541L178.76 164.766L178.148 169.492L181.671 168.541Z" fill="#821010"/>
    <path d="M195.564 169.436L192.586 166.922L190.221 167.56L191.057 170.653L188.486 171.347L185.484 160.245L190.293 158.947C191.277 158.682 192.174 158.616 192.982 158.749C193.8 158.88 194.487 159.194 195.041 159.691C195.596 160.188 195.984 160.848 196.207 161.673C196.43 162.498 196.422 163.266 196.183 163.977C195.952 164.675 195.514 165.281 194.869 165.795L198.326 168.691L195.564 169.436ZM193.604 162.376C193.436 161.752 193.106 161.33 192.615 161.111C192.122 160.881 191.489 160.871 190.717 161.079L188.622 161.645L189.668 165.514L191.763 164.949C192.535 164.74 193.077 164.413 193.387 163.966C193.698 163.519 193.77 162.989 193.604 162.376Z" fill="#821010"/>
    <path d="M206.83 163.843L201.672 165.235L201.331 167.879L198.696 168.591L200.647 156.153L203.186 155.467L211.155 165.228L208.457 165.956L206.83 163.843ZM205.493 162.11L202.583 158.336L201.97 163.062L205.493 162.11Z" fill="#821010"/>
    <path d="M219.496 151.065L222.497 162.166L220.386 162.736L213.025 157.491L214.847 164.231L212.308 164.916L209.307 153.815L211.434 153.241L218.779 158.49L216.957 151.75L219.496 151.065Z" fill="#821010"/>
    <path d="M224.992 151.827L221.437 152.787L220.871 150.694L230.552 148.08L231.118 150.174L227.563 151.133L229.998 160.141L227.427 160.835L224.992 151.827Z" fill="#821010"/>
    <path d="M242.982 154.425L243.539 156.486L234.937 158.808L231.936 147.707L240.332 145.441L240.889 147.502L235.048 149.079L235.7 151.489L240.858 150.097L241.398 152.095L236.24 153.488L236.935 156.057L242.982 154.425Z" fill="#821010"/>
    <path d="M253.63 151.55L254.187 153.612L245.585 155.934L242.584 144.833L250.98 142.566L251.537 144.628L245.696 146.205L246.348 148.615L251.506 147.223L252.046 149.221L246.888 150.613L247.583 153.183L253.63 151.55Z" fill="#821010"/>
    <defs>
        <filter id="filter0_ii_2386_11465" x="30.8369" y="29.6875" width="279.139" height="287.277" filterUnits="userSpaceOnUse" color-interpolation-filters="sRGB">
            <feFlood flood-opacity="0" result="BackgroundImageFix"/>
            <feBlend mode="normal" in="SourceGraphic" in2="BackgroundImageFix" result="shape"/>
            <feColorMatrix in="SourceAlpha" type="matrix" values="0 0 0 0 0 0 0 0 0 0 0 0 0 0 0 0 0 0 127 0" result="hardAlpha"/>
            <feOffset dy="-4"/>
            <feGaussianBlur stdDeviation="2"/>
            <feComposite in2="hardAlpha" operator="arithmetic" k2="-1" k3="1"/>
            <feColorMatrix type="matrix" values="0 0 0 0 0 0 0 0 0 0 0 0 0 0 0 0 0 0 0.25 0"/>
            <feBlend mode="normal" in2="shape" result="effect1_innerShadow_2386_11465"/>
            <feColorMatrix in="SourceAlpha" type="matrix" values="0 0 0 0 0 0 0 0 0 0 0 0 0 0 0 0 0 0 127 0" result="hardAlpha"/>
            <feOffset dy="3"/>
            <feGaussianBlur stdDeviation="2"/>
            <feComposite in2="hardAlpha" operator="arithmetic" k2="-1" k3="1"/>
            <feColorMatrix type="matrix" values="0 0 0 0 1 0 0 0 0 1 0 0 0 0 1 0 0 0 0.25 0"/>
            <feBlend mode="normal" in2="effect1_innerShadow_2386_11465" result="effect2_innerShadow_2386_11465"/>
        </filter>
        <filter id="filter1_d_2386_11465" x="50.3301" y="57.4727" width="239.757" height="240.715" filterUnits="userSpaceOnUse" color-interpolation-filters="sRGB">
            <feFlood flood-opacity="0" result="BackgroundImageFix"/>
            <feColorMatrix in="SourceAlpha" type="matrix" values="0 0 0 0 0 0 0 0 0 0 0 0 0 0 0 0 0 0 127 0" result="hardAlpha"/>
            <feOffset dy="4"/>
            <feGaussianBlur stdDeviation="2"/>
            <feComposite in2="hardAlpha" operator="out"/>
            <feColorMatrix type="matrix" values="0 0 0 0 0 0 0 0 0 0 0 0 0 0 0 0 0 0 0.25 0"/>
            <feBlend mode="normal" in2="BackgroundImageFix" result="effect1_dropShadow_2386_11465"/>
            <feBlend mode="normal" in="SourceGraphic" in2="effect1_dropShadow_2386_11465" result="shape"/>
        </filter>
        <filter id="filter2_d_2386_11465" x="88.2129" y="95.4961" width="164.062" height="164.691" filterUnits="userSpaceOnUse" color-interpolation-filters="sRGB">
            <feFlood flood-opacity="0" result="BackgroundImageFix"/>
            <feColorMatrix in="SourceAlpha" type="matrix" values="0 0 0 0 0 0 0 0 0 0 0 0 0 0 0 0 0 0 127 0" result="hardAlpha"/>
            <feOffset dy="4"/>
            <feGaussianBlur stdDeviation="2"/>
            <feComposite in2="hardAlpha" operator="out"/>
            <feColorMatrix type="matrix" values="0 0 0 0 0 0 0 0 0 0 0 0 0 0 0 0 0 0 0.25 0"/>
            <feBlend mode="normal" in2="BackgroundImageFix" result="effect1_dropShadow_2386_11465"/>
            <feBlend mode="normal" in="SourceGraphic" in2="effect1_dropShadow_2386_11465" result="shape"/>
        </filter>
        <filter id="filter3_d_2386_11465" x="162.965" y="203.934" width="35.8662" height="36.9102" filterUnits="userSpaceOnUse" color-interpolation-filters="sRGB">
            <feFlood flood-opacity="0" result="BackgroundImageFix"/>
            <feColorMatrix in="SourceAlpha" type="matrix" values="0 0 0 0 0 0 0 0 0 0 0 0 0 0 0 0 0 0 127 0" result="hardAlpha"/>
            <feOffset dy="4"/>
            <feGaussianBlur stdDeviation="2"/>
            <feComposite in2="hardAlpha" operator="out"/>
            <feColorMatrix type="matrix" values="0 0 0 0 0 0 0 0 0 0 0 0 0 0 0 0 0 0 0.25 0"/>
            <feBlend mode="normal" in2="BackgroundImageFix" result="effect1_dropShadow_2386_11465"/>
            <feBlend mode="normal" in="SourceGraphic" in2="effect1_dropShadow_2386_11465" result="shape"/>
        </filter>
        <filter id="filter4_d_2386_11465" x="138.417" y="113.262" width="35.8662" height="36.9102" filterUnits="userSpaceOnUse" color-interpolation-filters="sRGB">
            <feFlood flood-opacity="0" result="BackgroundImageFix"/>
            <feColorMatrix in="SourceAlpha" type="matrix" values="0 0 0 0 0 0 0 0 0 0 0 0 0 0 0 0 0 0 127 0" result="hardAlpha"/>
            <feOffset dy="4"/>
            <feGaussianBlur stdDeviation="2"/>
            <feComposite in2="hardAlpha" operator="out"/>
            <feColorMatrix type="matrix" values="0 0 0 0 0 0 0 0 0 0 0 0 0 0 0 0 0 0 0.25 0"/>
            <feBlend mode="normal" in2="BackgroundImageFix" result="effect1_dropShadow_2386_11465"/>
            <feBlend mode="normal" in="SourceGraphic" in2="effect1_dropShadow_2386_11465" result="shape"/>
        </filter>
        <filter id="filter5_d_2386_11465" x="59.6514" y="128.168" width="221.584" height="98.4883" filterUnits="userSpaceOnUse" color-interpolation-filters="sRGB">
            <feFlood flood-opacity="0" result="BackgroundImageFix"/>
            <feColorMatrix in="SourceAlpha" type="matrix" values="0 0 0 0 0 0 0 0 0 0 0 0 0 0 0 0 0 0 127 0" result="hardAlpha"/>
            <feOffset dy="5"/>
            <feGaussianBlur stdDeviation="2"/>
            <feComposite in2="hardAlpha" operator="out"/>
            <feColorMatrix type="matrix" values="0 0 0 0 0 0 0 0 0 0 0 0 0 0 0 0 0 0 0.25 0"/>
            <feBlend mode="normal" in2="BackgroundImageFix" result="effect1_dropShadow_2386_11465"/>
            <feBlend mode="normal" in="SourceGraphic" in2="effect1_dropShadow_2386_11465" result="shape"/>
        </filter>
        <filter id="filter6_d_2386_11465" x="253.345" y="135.738" width="22.0312" height="22.0859" filterUnits="userSpaceOnUse" color-interpolation-filters="sRGB">
            <feFlood flood-opacity="0" result="BackgroundImageFix"/>
            <feColorMatrix in="SourceAlpha" type="matrix" values="0 0 0 0 0 0 0 0 0 0 0 0 0 0 0 0 0 0 127 0" result="hardAlpha"/>
            <feOffset dy="2"/>
            <feGaussianBlur stdDeviation="2"/>
            <feComposite in2="hardAlpha" operator="out"/>
            <feColorMatrix type="matrix" values="0 0 0 0 0 0 0 0 0 0 0 0 0 0 0 0 0 0 0.25 0"/>
            <feBlend mode="normal" in2="BackgroundImageFix" result="effect1_dropShadow_2386_11465"/>
            <feBlend mode="normal" in="SourceGraphic" in2="effect1_dropShadow_2386_11465" result="shape"/>
        </filter>
        <filter id="filter7_d_2386_11465" x="62.6221" y="186.801" width="22.0312" height="22.0898" filterUnits="userSpaceOnUse" color-interpolation-filters="sRGB">
            <feFlood flood-opacity="0" result="BackgroundImageFix"/>
            <feColorMatrix in="SourceAlpha" type="matrix" values="0 0 0 0 0 0 0 0 0 0 0 0 0 0 0 0 0 0 127 0" result="hardAlpha"/>
            <feOffset dy="2"/>
            <feGaussianBlur stdDeviation="2"/>
            <feComposite in2="hardAlpha" operator="out"/>
            <feColorMatrix type="matrix" values="0 0 0 0 0 0 0 0 0 0 0 0 0 0 0 0 0 0 0.25 0"/>
            <feBlend mode="normal" in2="BackgroundImageFix" result="effect1_dropShadow_2386_11465"/>
            <feBlend mode="normal" in="SourceGraphic" in2="effect1_dropShadow_2386_11465" result="shape"/>
        </filter>
        <filter id="filter8_d_2386_11465" x="200.517" y="192.148" width="25.0381" height="25.6719" filterUnits="userSpaceOnUse" color-interpolation-filters="sRGB">
            <feFlood flood-opacity="0" result="BackgroundImageFix"/>
            <feColorMatrix in="SourceAlpha" type="matrix" values="0 0 0 0 0 0 0 0 0 0 0 0 0 0 0 0 0 0 127 0" result="hardAlpha"/>
            <feOffset dy="4"/>
            <feGaussianBlur stdDeviation="2"/>
            <feComposite in2="hardAlpha" operator="out"/>
            <feColorMatrix type="matrix" values="0 0 0 0 0 0 0 0 0 0 0 0 0 0 0 0 0 0 0.25 0"/>
            <feBlend mode="normal" in2="BackgroundImageFix" result="effect1_dropShadow_2386_11465"/>
            <feBlend mode="normal" in="SourceGraphic" in2="effect1_dropShadow_2386_11465" result="shape"/>
        </filter>
        <filter id="filter9_d_2386_11465" x="180.332" y="117.758" width="25.0381" height="25.6719" filterUnits="userSpaceOnUse" color-interpolation-filters="sRGB">
            <feFlood flood-opacity="0" result="BackgroundImageFix"/>
            <feColorMatrix in="SourceAlpha" type="matrix" values="0 0 0 0 0 0 0 0 0 0 0 0 0 0 0 0 0 0 127 0" result="hardAlpha"/>
            <feOffset dy="4"/>
            <feGaussianBlur stdDeviation="2"/>
            <feComposite in2="hardAlpha" operator="out"/>
            <feColorMatrix type="matrix" values="0 0 0 0 0 0 0 0 0 0 0 0 0 0 0 0 0 0 0.25 0"/>
            <feBlend mode="normal" in2="BackgroundImageFix" result="effect1_dropShadow_2386_11465"/>
            <feBlend mode="normal" in="SourceGraphic" in2="effect1_dropShadow_2386_11465" result="shape"/>
        </filter>
        <filter id="filter10_d_2386_11465" x="133.041" y="210.227" width="25" height="25.6797" filterUnits="userSpaceOnUse" color-interpolation-filters="sRGB">
            <feFlood flood-opacity="0" result="BackgroundImageFix"/>
            <feColorMatrix in="SourceAlpha" type="matrix" values="0 0 0 0 0 0 0 0 0 0 0 0 0 0 0 0 0 0 127 0" result="hardAlpha"/>
            <feOffset dy="4"/>
            <feGaussianBlur stdDeviation="2"/>
            <feComposite in2="hardAlpha" operator="out"/>
            <feColorMatrix type="matrix" values="0 0 0 0 0 0 0 0 0 0 0 0 0 0 0 0 0 0 0.25 0"/>
            <feBlend mode="normal" in2="BackgroundImageFix" result="effect1_dropShadow_2386_11465"/>
            <feBlend mode="normal" in="SourceGraphic" in2="effect1_dropShadow_2386_11465" result="shape"/>
        </filter>
        <filter id="filter11_d_2386_11465" x="112.858" y="135.828" width="25" height="25.6797" filterUnits="userSpaceOnUse" color-interpolation-filters="sRGB">
            <feFlood flood-opacity="0" result="BackgroundImageFix"/>
            <feColorMatrix in="SourceAlpha" type="matrix" values="0 0 0 0 0 0 0 0 0 0 0 0 0 0 0 0 0 0 127 0" result="hardAlpha"/>
            <feOffset dy="4"/>
            <feGaussianBlur stdDeviation="2"/>
            <feComposite in2="hardAlpha" operator="out"/>
            <feColorMatrix type="matrix" values="0 0 0 0 0 0 0 0 0 0 0 0 0 0 0 0 0 0 0.25 0"/>
            <feBlend mode="normal" in2="BackgroundImageFix" result="effect1_dropShadow_2386_11465"/>
            <feBlend mode="normal" in="SourceGraphic" in2="effect1_dropShadow_2386_11465" result="shape"/>
        </filter>
        <linearGradient id="paint0_linear_2386_11465" x1="129.855" y1="23.8542" x2="208.315" y2="316.893" gradientUnits="userSpaceOnUse">
            <stop offset="0.0989583" stop-color="#881010"/>
            <stop offset="0.34375" stop-color="#820F0F"/>
            <stop offset="0.692708" stop-color="#7A0D0D" stop-opacity="0.909603"/>
            <stop offset="0.9375" stop-color="#740B0B" stop-opacity="0.83"/>
        </linearGradient>
    </defs>
</svg>
