<svg width="1259" height="840" viewBox="0 0 1259 840" fill="none" xmlns="http://www.w3.org/2000/svg">
<g opacity="0.59">
<path d="M21.79 877.825V-38.4922" stroke="#0A5D6B" stroke-width="0.25" stroke-miterlimit="10"/>
<path d="M57.3242 877.825V-38.4922" stroke="#0A5D6B" stroke-width="0.25" stroke-miterlimit="10"/>
<path d="M92.8809 877.825V-38.4922" stroke="#0A5D6B" stroke-width="0.25" stroke-miterlimit="10"/>
<path d="M128.432 877.825V-38.4922" stroke="#0A5D6B" stroke-width="0.25" stroke-miterlimit="10"/>
<path d="M163.971 877.825V-38.4922" stroke="#0A5D6B" stroke-width="0.25" stroke-miterlimit="10"/>
<path d="M199.522 877.825V-38.4922" stroke="#0A5D6B" stroke-width="0.25" stroke-miterlimit="10"/>
<path d="M235.061 877.825V-38.4922" stroke="#0A5D6B" stroke-width="0.25" stroke-miterlimit="10"/>
<path d="M270.616 877.825V-38.4922" stroke="#0A5D6B" stroke-width="0.25" stroke-miterlimit="10"/>
<path d="M306.168 877.825V-38.4922" stroke="#0A5D6B" stroke-width="0.25" stroke-miterlimit="10"/>
<path d="M341.709 877.825V-38.4922" stroke="#0A5D6B" stroke-width="0.25" stroke-miterlimit="10"/>
<path d="M377.263 877.825V-38.4922" stroke="#0A5D6B" stroke-width="0.25" stroke-miterlimit="10"/>
<path d="M412.816 877.825V-38.4922" stroke="#0A5D6B" stroke-width="0.25" stroke-miterlimit="10"/>
<path d="M448.353 877.825V-38.4922" stroke="#0A5D6B" stroke-width="0.25" stroke-miterlimit="10"/>
<path d="M483.907 877.825V-38.4922" stroke="#0A5D6B" stroke-width="0.25" stroke-miterlimit="10"/>
<path d="M519.46 877.825V-38.4922" stroke="#0A5D6B" stroke-width="0.25" stroke-miterlimit="10"/>
<path d="M554.998 877.825V-38.4922" stroke="#0A5D6B" stroke-width="0.25" stroke-miterlimit="10"/>
<path d="M590.554 877.825V-38.4922" stroke="#0A5D6B" stroke-width="0.25" stroke-miterlimit="10"/>
<path d="M626.106 877.825V-38.4922" stroke="#0A5D6B" stroke-width="0.25" stroke-miterlimit="10"/>
<path d="M661.644 877.825V-38.4922" stroke="#0A5D6B" stroke-width="0.25" stroke-miterlimit="10"/>
<path d="M697.198 877.825V-38.4922" stroke="#0A5D6B" stroke-width="0.25" stroke-miterlimit="10"/>
<path d="M732.754 877.825V-38.4922" stroke="#0A5D6B" stroke-width="0.25" stroke-miterlimit="10"/>
<path d="M768.29 877.825V-38.4922" stroke="#0A5D6B" stroke-width="0.25" stroke-miterlimit="10"/>
<path d="M803.844 877.825V-38.4922" stroke="#0A5D6B" stroke-width="0.25" stroke-miterlimit="10"/>
<path d="M839.381 877.825V-38.4922" stroke="#0A5D6B" stroke-width="0.25" stroke-miterlimit="10"/>
<path d="M874.937 877.825V-38.4922" stroke="#0A5D6B" stroke-width="0.25" stroke-miterlimit="10"/>
<path d="M910.49 877.825V-38.4922" stroke="#0A5D6B" stroke-width="0.25" stroke-miterlimit="10"/>
<path d="M946.027 877.825V-38.4922" stroke="#0A5D6B" stroke-width="0.25" stroke-miterlimit="10"/>
<path d="M981.581 877.825V-38.4922" stroke="#0A5D6B" stroke-width="0.25" stroke-miterlimit="10"/>
<path d="M1017.14 877.825V-38.4922" stroke="#0A5D6B" stroke-width="0.25" stroke-miterlimit="10"/>
<path d="M1052.67 877.825V-38.4922" stroke="#0A5D6B" stroke-width="0.25" stroke-miterlimit="10"/>
<path d="M1088.23 877.825V-38.4922" stroke="#0A5D6B" stroke-width="0.25" stroke-miterlimit="10"/>
<path d="M1123.78 877.825V-38.4922" stroke="#0A5D6B" stroke-width="0.25" stroke-miterlimit="10"/>
<path d="M1159.32 877.825V-38.4922" stroke="#0A5D6B" stroke-width="0.25" stroke-miterlimit="10"/>
<path d="M1194.87 877.825V-38.4922" stroke="#0A5D6B" stroke-width="0.25" stroke-miterlimit="10"/>
<path d="M1230.43 877.825V-38.4922" stroke="#0A5D6B" stroke-width="0.25" stroke-miterlimit="10"/>
<path d="M-19.5586 830.906H1278.54" stroke="#0A5D6B" stroke-width="0.25" stroke-miterlimit="10"/>
<path d="M-18.4346 6.57812H1278.54" stroke="#0A5D6B" stroke-width="0.25" stroke-miterlimit="10"/>
<path d="M-18.4346 42.1328H1278.54" stroke="#0A5D6B" stroke-width="0.25" stroke-miterlimit="10"/>
<path d="M-18.4346 77.6719H1278.54" stroke="#0A5D6B" stroke-width="0.25" stroke-miterlimit="10"/>
<path d="M-18.4346 113.227H1278.54" stroke="#0A5D6B" stroke-width="0.25" stroke-miterlimit="10"/>
<path d="M-18.4346 148.777H1278.54" stroke="#0A5D6B" stroke-width="0.25" stroke-miterlimit="10"/>
<path d="M-18.4346 184.316H1278.54" stroke="#0A5D6B" stroke-width="0.25" stroke-miterlimit="10"/>
<path d="M-18.4346 219.871H1278.54" stroke="#0A5D6B" stroke-width="0.25" stroke-miterlimit="10"/>
<path d="M-18.4346 255.426H1278.54" stroke="#0A5D6B" stroke-width="0.25" stroke-miterlimit="10"/>
<path d="M-18.4346 290.961H1278.54" stroke="#0A5D6B" stroke-width="0.25" stroke-miterlimit="10"/>
<path d="M-18.4346 326.52H1278.54" stroke="#0A5D6B" stroke-width="0.25" stroke-miterlimit="10"/>
<path d="M-18.4346 362.07H1278.54" stroke="#0A5D6B" stroke-width="0.25" stroke-miterlimit="10"/>
<path d="M-18.4346 397.609H1278.54" stroke="#0A5D6B" stroke-width="0.25" stroke-miterlimit="10"/>
<path d="M-18.4346 433.16H1278.54" stroke="#0A5D6B" stroke-width="0.25" stroke-miterlimit="10"/>
<path d="M-18.4346 468.719H1278.54" stroke="#0A5D6B" stroke-width="0.25" stroke-miterlimit="10"/>
<path d="M-18.4346 504.254H1278.54" stroke="#0A5D6B" stroke-width="0.25" stroke-miterlimit="10"/>
<path d="M-18.4346 539.809H1278.54" stroke="#0A5D6B" stroke-width="0.25" stroke-miterlimit="10"/>
<path d="M-18.4346 575.348H1278.54" stroke="#0A5D6B" stroke-width="0.25" stroke-miterlimit="10"/>
<path d="M-18.4346 610.898H1278.54" stroke="#0A5D6B" stroke-width="0.25" stroke-miterlimit="10"/>
<path d="M-18.4346 646.453H1278.54" stroke="#0A5D6B" stroke-width="0.25" stroke-miterlimit="10"/>
<path d="M-18.4346 681.992H1278.54" stroke="#0A5D6B" stroke-width="0.25" stroke-miterlimit="10"/>
<path d="M-18.4346 717.547H1278.54" stroke="#0A5D6B" stroke-width="0.25" stroke-miterlimit="10"/>
<path d="M-18.4346 753.102H1278.54" stroke="#0A5D6B" stroke-width="0.25" stroke-miterlimit="10"/>
<path d="M-18.4346 788.637H1278.54" stroke="#0A5D6B" stroke-width="0.25" stroke-miterlimit="10"/>
</g>
</svg>
