<svg width="3600" height="1614" viewBox="0 0 3600 1614" fill="none" xmlns="http://www.w3.org/2000/svg">
<g clip-path="url(#clip0_1860_9393)">
<rect width="3600" height="1614" fill="white"/>
<path d="M3075.41 798.573C2896.65 74.428 2342.18 582.437 1948.97 364.824C1708.94 231.979 1572.12 196.666 1365.18 200.241C1171.26 203.574 966.445 292.531 861.187 476.93C775.744 626.545 749.626 765.859 611.282 877.662C515.72 954.863 506.385 1027.22 503.045 1104.59C499.25 1192.5 495.29 1335.17 499.25 1367.5H3071.62C3071.62 1367.5 3112.5 1178 3112.5 1087.5C3112.5 997 3075.41 798.573 3075.41 798.573Z" fill="url(#paint0_linear_1860_9393)"/>
<path d="M1160.16 244.171C1161.98 242.444 1164.23 241.249 1166.68 240.715C1169.13 240.18 1171.68 240.327 1174.06 241.138C1175.41 236.933 1178.09 233.281 1181.69 230.733C1185.3 228.184 1189.64 226.877 1194.06 227.009C1215.19 227.009 1216.89 247.803 1216.89 247.803C1231.79 243.304 1234.65 256.467 1234.65 257H1154.66C1154.59 254.591 1155.05 252.197 1156 249.982C1156.95 247.767 1158.37 245.784 1160.16 244.171Z" fill="white"/>
<path d="M1398.41 209.459C1401.57 209.452 1404.67 210.29 1407.39 211.888C1409.81 207.557 1413.3 203.924 1417.53 201.339C1421.76 198.754 1426.58 197.304 1431.52 197.129C1436.47 196.953 1441.38 198.057 1445.78 200.335C1450.18 202.613 1453.92 205.989 1456.64 210.137C1458.12 205.139 1461.29 200.81 1465.59 197.885C1469.9 194.961 1475.08 193.621 1480.25 194.093C1485.43 194.565 1490.29 196.82 1494 200.476C1497.7 204.131 1500.04 208.961 1500.6 214.146C1501.53 213.992 1502.47 213.907 1503.41 213.892C1506.79 213.908 1510.09 214.861 1512.96 216.645C1515.82 218.43 1518.14 220.975 1519.65 224H1380.65C1381.54 219.919 1383.77 216.259 1387 213.618C1390.23 210.977 1394.25 209.511 1398.41 209.459Z" fill="white"/>
<path d="M1715.5 520.156C1717.2 520.156 1718.58 518.778 1718.58 517.078C1718.58 515.378 1717.2 514 1715.5 514C1713.8 514 1712.43 515.378 1712.43 517.078C1712.43 518.778 1713.8 520.156 1715.5 520.156Z" fill="#EBF5FF"/>
<path d="M1647.88 581.345C1647.88 581.753 1647.76 582.152 1647.54 582.492C1647.31 582.832 1646.99 583.098 1646.62 583.255C1646.24 583.413 1645.83 583.455 1645.43 583.376C1645.02 583.298 1644.66 583.102 1644.37 582.814C1644.08 582.526 1643.88 582.159 1643.8 581.759C1643.72 581.359 1643.76 580.944 1643.92 580.567C1644.07 580.19 1644.34 579.868 1644.68 579.641C1645.01 579.414 1645.41 579.293 1645.82 579.293C1646.37 579.293 1646.89 579.509 1647.28 579.893C1647.66 580.278 1647.88 580.8 1647.88 581.345Z" fill="#84D1DD"/>
<path d="M1730.19 570.53L1728.96 569.873C1728.89 569.827 1728.82 569.765 1728.78 569.693L1728.12 568.451C1728.08 568.382 1728.03 568.324 1727.96 568.284C1727.89 568.244 1727.81 568.223 1727.73 568.223C1727.65 568.223 1727.57 568.244 1727.5 568.284C1727.43 568.324 1727.38 568.382 1727.34 568.451L1726.67 569.693C1726.63 569.769 1726.57 569.832 1726.49 569.873L1725.26 570.53C1725.19 570.567 1725.13 570.623 1725.09 570.692C1725.04 570.761 1725.02 570.84 1725.02 570.921C1725.02 571.002 1725.04 571.081 1725.09 571.15C1725.13 571.219 1725.19 571.275 1725.26 571.313L1726.49 571.979C1726.57 572.014 1726.64 572.078 1726.67 572.159L1727.34 573.391C1727.38 573.461 1727.43 573.518 1727.5 573.558C1727.57 573.598 1727.65 573.62 1727.73 573.62C1727.81 573.62 1727.89 573.598 1727.96 573.558C1728.03 573.518 1728.08 573.461 1728.12 573.391L1728.78 572.159C1728.82 572.082 1728.88 572.019 1728.96 571.979L1730.19 571.313C1730.26 571.275 1730.32 571.219 1730.36 571.15C1730.41 571.081 1730.43 571.002 1730.43 570.921C1730.43 570.84 1730.41 570.761 1730.36 570.692C1730.32 570.623 1730.26 570.567 1730.19 570.53Z" fill="#EBF5FF"/>
<path d="M1657.49 529.265L1655.94 528.437C1655.84 528.386 1655.76 528.303 1655.71 528.203L1654.87 526.655C1654.83 526.567 1654.76 526.493 1654.67 526.442C1654.58 526.39 1654.48 526.363 1654.38 526.363C1654.28 526.363 1654.19 526.39 1654.1 526.442C1654.01 526.493 1653.94 526.567 1653.89 526.655L1653.06 528.203C1653 528.3 1652.93 528.38 1652.83 528.437L1651.28 529.265C1651.18 529.312 1651.11 529.383 1651.06 529.471C1651 529.558 1650.97 529.658 1650.97 529.76C1650.97 529.862 1651 529.962 1651.06 530.05C1651.11 530.137 1651.18 530.208 1651.28 530.255L1652.83 531.092C1652.93 531.143 1653.01 531.221 1653.06 531.317L1653.89 532.874C1653.94 532.962 1654.01 533.036 1654.1 533.087C1654.19 533.139 1654.28 533.166 1654.38 533.166C1654.48 533.166 1654.58 533.139 1654.67 533.087C1654.76 533.036 1654.83 532.962 1654.87 532.874L1655.71 531.317C1655.76 531.217 1655.84 531.138 1655.94 531.092L1657.49 530.255C1657.58 530.206 1657.66 530.134 1657.71 530.047C1657.76 529.96 1657.78 529.861 1657.78 529.76C1657.78 529.659 1657.76 529.56 1657.71 529.473C1657.66 529.386 1657.58 529.314 1657.49 529.265Z" fill="#D6F0F4"/>
<path d="M1765.29 560.482L1763.41 559.474C1763.29 559.409 1763.2 559.312 1763.14 559.195L1762.13 557.314C1762.07 557.207 1761.98 557.118 1761.88 557.056C1761.77 556.994 1761.65 556.961 1761.53 556.961C1761.41 556.961 1761.29 556.994 1761.18 557.056C1761.08 557.118 1760.99 557.207 1760.93 557.314L1759.92 559.195C1759.86 559.312 1759.77 559.409 1759.65 559.474L1757.77 560.482C1757.67 560.539 1757.58 560.625 1757.51 560.73C1757.45 560.834 1757.42 560.954 1757.42 561.076C1757.42 561.197 1757.45 561.317 1757.51 561.421C1757.58 561.526 1757.67 561.612 1757.77 561.669L1759.65 562.677C1759.77 562.742 1759.86 562.839 1759.92 562.956L1760.93 564.837C1760.99 564.944 1761.08 565.033 1761.18 565.095C1761.29 565.157 1761.41 565.19 1761.53 565.19C1761.65 565.19 1761.77 565.157 1761.88 565.095C1761.98 565.033 1762.07 564.944 1762.13 564.837L1763.14 562.956C1763.2 562.839 1763.29 562.742 1763.41 562.677L1765.29 561.669C1765.39 561.612 1765.48 561.526 1765.55 561.421C1765.61 561.317 1765.64 561.197 1765.64 561.076C1765.64 560.954 1765.61 560.834 1765.55 560.73C1765.48 560.625 1765.39 560.539 1765.29 560.482Z" fill="#D6F0F4"/>
<path d="M1618.81 553.248L1617.1 552.348C1616.99 552.293 1616.9 552.205 1616.84 552.096L1615.94 550.377C1615.89 550.279 1615.81 550.198 1615.72 550.141C1615.62 550.085 1615.51 550.055 1615.4 550.055C1615.29 550.055 1615.18 550.085 1615.08 550.141C1614.99 550.198 1614.91 550.279 1614.85 550.377L1613.95 552.096C1613.9 552.203 1613.81 552.29 1613.7 552.348L1611.97 553.248C1611.88 553.301 1611.8 553.38 1611.74 553.476C1611.68 553.572 1611.65 553.681 1611.65 553.792C1611.65 553.904 1611.68 554.013 1611.74 554.109C1611.8 554.205 1611.88 554.283 1611.97 554.337L1613.7 555.237C1613.81 555.294 1613.9 555.382 1613.95 555.489L1614.85 557.208C1614.91 557.305 1614.99 557.387 1615.08 557.443C1615.18 557.5 1615.29 557.53 1615.4 557.53C1615.51 557.53 1615.62 557.5 1615.72 557.443C1615.81 557.387 1615.89 557.305 1615.94 557.208L1616.84 555.489C1616.9 555.38 1616.99 555.291 1617.1 555.237L1618.81 554.337C1618.91 554.285 1619 554.207 1619.06 554.111C1619.12 554.015 1619.15 553.905 1619.15 553.792C1619.15 553.68 1619.12 553.569 1619.06 553.473C1619 553.377 1618.91 553.299 1618.81 553.248Z" fill="#84D1DD"/>
<path d="M1733.73 542.52L1732.47 541.845C1732.39 541.802 1732.32 541.736 1732.28 541.656L1731.6 540.396C1731.56 540.325 1731.51 540.265 1731.44 540.224C1731.37 540.182 1731.29 540.16 1731.21 540.16C1731.13 540.16 1731.05 540.182 1730.98 540.224C1730.91 540.265 1730.85 540.325 1730.81 540.396L1730.13 541.656C1730.09 541.737 1730.03 541.804 1729.95 541.845L1728.69 542.52C1728.62 542.559 1728.56 542.616 1728.51 542.686C1728.47 542.755 1728.45 542.835 1728.45 542.916C1728.45 542.997 1728.47 543.077 1728.51 543.147C1728.56 543.216 1728.62 543.274 1728.69 543.312L1729.95 543.996C1730.03 544.032 1730.09 544.096 1730.13 544.176L1730.81 545.436C1730.85 545.508 1730.91 545.567 1730.98 545.609C1731.05 545.65 1731.13 545.672 1731.21 545.672C1731.29 545.672 1731.37 545.65 1731.44 545.609C1731.51 545.567 1731.56 545.508 1731.6 545.436L1732.28 544.176C1732.32 544.097 1732.39 544.034 1732.47 543.996L1733.73 543.312C1733.8 543.274 1733.86 543.216 1733.9 543.147C1733.94 543.077 1733.96 542.997 1733.96 542.916C1733.96 542.835 1733.94 542.755 1733.9 542.686C1733.86 542.616 1733.8 542.559 1733.73 542.52Z" fill="#84D1DD"/>
<path d="M1901.79 511.258C1900.09 511.258 1898.71 512.636 1898.71 514.336C1898.71 516.036 1900.09 517.414 1901.79 517.414C1903.49 517.414 1904.87 516.036 1904.87 514.336C1904.87 512.636 1903.49 511.258 1901.79 511.258Z" fill="#EBF5FF"/>
<path d="M1969.41 450.069C1969.41 449.661 1969.53 449.262 1969.75 448.922C1969.98 448.582 1970.3 448.316 1970.68 448.159C1971.05 448.001 1971.47 447.959 1971.87 448.038C1972.27 448.116 1972.64 448.312 1972.93 448.6C1973.22 448.888 1973.41 449.255 1973.49 449.655C1973.57 450.055 1973.53 450.47 1973.38 450.847C1973.22 451.224 1972.96 451.546 1972.62 451.773C1972.28 452 1971.88 452.121 1971.47 452.121C1970.93 452.121 1970.4 451.905 1970.02 451.521C1969.63 451.136 1969.41 450.614 1969.41 450.069Z" fill="#84D1DD"/>
<path d="M1887.1 460.884L1888.34 461.541C1888.41 461.587 1888.47 461.649 1888.52 461.721L1889.17 462.963C1889.21 463.033 1889.27 463.09 1889.34 463.13C1889.41 463.17 1889.48 463.191 1889.56 463.191C1889.64 463.191 1889.72 463.17 1889.79 463.13C1889.86 463.09 1889.92 463.033 1889.96 462.963L1890.62 461.721C1890.66 461.645 1890.72 461.582 1890.8 461.541L1892.03 460.884C1892.11 460.847 1892.17 460.791 1892.21 460.722C1892.25 460.653 1892.27 460.574 1892.27 460.493C1892.27 460.412 1892.25 460.333 1892.21 460.264C1892.17 460.195 1892.11 460.139 1892.03 460.101L1890.8 459.436C1890.72 459.4 1890.66 459.336 1890.62 459.256L1889.96 458.023C1889.92 457.953 1889.86 457.896 1889.79 457.856C1889.72 457.816 1889.64 457.795 1889.56 457.795C1889.48 457.795 1889.41 457.816 1889.34 457.856C1889.27 457.896 1889.21 457.953 1889.17 458.023L1888.52 459.256C1888.48 459.332 1888.41 459.395 1888.34 459.436L1887.1 460.101C1887.03 460.139 1886.97 460.195 1886.93 460.264C1886.89 460.333 1886.86 460.412 1886.86 460.493C1886.86 460.574 1886.89 460.653 1886.93 460.722C1886.97 460.791 1887.03 460.847 1887.1 460.884Z" fill="#EBF5FF"/>
<path d="M1959.8 502.149L1961.36 502.977C1961.46 503.029 1961.53 503.111 1961.58 503.211L1962.42 504.759C1962.47 504.847 1962.54 504.921 1962.62 504.972C1962.71 505.024 1962.81 505.051 1962.91 505.051C1963.01 505.051 1963.11 505.024 1963.2 504.972C1963.28 504.921 1963.35 504.847 1963.4 504.759L1964.24 503.211C1964.29 503.114 1964.37 503.034 1964.46 502.977L1966.02 502.149C1966.11 502.102 1966.19 502.031 1966.24 501.944C1966.29 501.856 1966.32 501.756 1966.32 501.654C1966.32 501.552 1966.29 501.452 1966.24 501.365C1966.19 501.277 1966.11 501.206 1966.02 501.159L1964.46 500.322C1964.37 500.271 1964.29 500.193 1964.24 500.097L1963.4 498.54C1963.35 498.452 1963.28 498.378 1963.2 498.327C1963.11 498.275 1963.01 498.248 1962.91 498.248C1962.81 498.248 1962.71 498.275 1962.62 498.327C1962.54 498.378 1962.47 498.452 1962.42 498.54L1961.58 500.097C1961.54 500.197 1961.46 500.276 1961.36 500.322L1959.8 501.159C1959.71 501.208 1959.64 501.28 1959.59 501.367C1959.54 501.454 1959.51 501.553 1959.51 501.654C1959.51 501.755 1959.54 501.854 1959.59 501.941C1959.64 502.028 1959.71 502.1 1959.8 502.149Z" fill="#D6F0F4"/>
<path d="M1852.01 470.932L1853.89 471.94C1854 472.005 1854.1 472.102 1854.16 472.219L1855.16 474.1C1855.22 474.207 1855.31 474.296 1855.42 474.358C1855.52 474.42 1855.64 474.453 1855.76 474.453C1855.89 474.453 1856.01 474.42 1856.11 474.358C1856.22 474.296 1856.3 474.207 1856.36 474.1L1857.37 472.219C1857.43 472.102 1857.52 472.005 1857.64 471.94L1859.52 470.932C1859.63 470.875 1859.72 470.789 1859.78 470.684C1859.84 470.58 1859.88 470.46 1859.88 470.339C1859.88 470.217 1859.84 470.097 1859.78 469.993C1859.72 469.888 1859.63 469.802 1859.52 469.745L1857.64 468.737C1857.52 468.672 1857.43 468.575 1857.37 468.458L1856.36 466.577C1856.3 466.47 1856.22 466.381 1856.11 466.319C1856.01 466.257 1855.89 466.224 1855.76 466.224C1855.64 466.224 1855.52 466.257 1855.42 466.319C1855.31 466.381 1855.22 466.47 1855.16 466.577L1854.16 468.458C1854.1 468.575 1854 468.672 1853.89 468.737L1852.01 469.745C1851.9 469.802 1851.81 469.888 1851.75 469.993C1851.68 470.097 1851.65 470.217 1851.65 470.339C1851.65 470.46 1851.68 470.58 1851.75 470.684C1851.81 470.789 1851.9 470.875 1852.01 470.932Z" fill="#D6F0F4"/>
<path d="M1998.48 478.166L2000.2 479.066C2000.31 479.121 2000.4 479.209 2000.45 479.318L2001.35 481.037C2001.4 481.135 2001.48 481.216 2001.58 481.273C2001.67 481.329 2001.78 481.359 2001.89 481.359C2002.01 481.359 2002.12 481.329 2002.21 481.273C2002.31 481.216 2002.39 481.135 2002.44 481.037L2003.34 479.318C2003.4 479.211 2003.48 479.124 2003.59 479.066L2005.32 478.166C2005.42 478.113 2005.5 478.034 2005.55 477.938C2005.61 477.842 2005.64 477.733 2005.64 477.622C2005.64 477.51 2005.61 477.401 2005.55 477.305C2005.5 477.21 2005.42 477.131 2005.32 477.077L2003.59 476.177C2003.48 476.12 2003.4 476.032 2003.34 475.925L2002.44 474.206C2002.39 474.109 2002.31 474.027 2002.21 473.971C2002.12 473.914 2002.01 473.884 2001.89 473.884C2001.78 473.884 2001.67 473.914 2001.58 473.971C2001.48 474.027 2001.4 474.109 2001.35 474.206L2000.45 475.925C2000.4 476.034 2000.31 476.123 2000.2 476.177L1998.48 477.077C1998.38 477.129 1998.3 477.207 1998.24 477.303C1998.18 477.399 1998.15 477.509 1998.15 477.622C1998.15 477.734 1998.18 477.845 1998.24 477.941C1998.3 478.037 1998.38 478.115 1998.48 478.166Z" fill="#84D1DD"/>
<path d="M1883.57 488.894L1884.83 489.569C1884.91 489.612 1884.97 489.678 1885.02 489.758L1885.69 491.018C1885.73 491.089 1885.79 491.149 1885.86 491.19C1885.93 491.232 1886.01 491.254 1886.09 491.254C1886.17 491.254 1886.25 491.232 1886.32 491.19C1886.39 491.149 1886.44 491.089 1886.48 491.018L1887.17 489.758C1887.2 489.677 1887.27 489.61 1887.35 489.569L1888.61 488.894C1888.68 488.855 1888.74 488.798 1888.78 488.728C1888.82 488.659 1888.84 488.579 1888.84 488.498C1888.84 488.417 1888.82 488.337 1888.78 488.267C1888.74 488.198 1888.68 488.14 1888.61 488.102L1887.35 487.418C1887.27 487.383 1887.2 487.318 1887.17 487.238L1886.48 485.978C1886.44 485.907 1886.39 485.847 1886.32 485.805C1886.25 485.764 1886.17 485.742 1886.09 485.742C1886.01 485.742 1885.93 485.764 1885.86 485.805C1885.79 485.847 1885.73 485.907 1885.69 485.978L1885.02 487.238C1884.97 487.317 1884.91 487.38 1884.83 487.418L1883.57 488.102C1883.5 488.14 1883.44 488.198 1883.39 488.267C1883.35 488.337 1883.33 488.417 1883.33 488.498C1883.33 488.579 1883.35 488.659 1883.39 488.728C1883.44 488.798 1883.5 488.855 1883.57 488.894Z" fill="#84D1DD"/>
<path d="M1307.5 493.258C1309.2 493.258 1310.58 494.636 1310.58 496.336C1310.58 498.036 1309.2 499.414 1307.5 499.414C1305.8 499.414 1304.43 498.036 1304.43 496.336C1304.43 494.636 1305.8 493.258 1307.5 493.258Z" fill="#EBF5FF"/>
<path d="M1239.88 432.069C1239.88 431.661 1239.76 431.262 1239.54 430.922C1239.31 430.582 1238.99 430.316 1238.62 430.159C1238.24 430.001 1237.83 429.959 1237.43 430.038C1237.02 430.116 1236.66 430.312 1236.37 430.6C1236.08 430.888 1235.88 431.255 1235.8 431.655C1235.72 432.055 1235.76 432.47 1235.92 432.847C1236.07 433.224 1236.34 433.546 1236.68 433.773C1237.01 434 1237.41 434.121 1237.82 434.121C1238.37 434.121 1238.89 433.905 1239.28 433.521C1239.66 433.136 1239.88 432.614 1239.88 432.069Z" fill="#84D1DD"/>
<path d="M1322.19 442.884L1320.96 443.541C1320.89 443.587 1320.82 443.649 1320.78 443.721L1320.12 444.963C1320.08 445.033 1320.03 445.09 1319.96 445.13C1319.89 445.17 1319.81 445.191 1319.73 445.191C1319.65 445.191 1319.57 445.17 1319.5 445.13C1319.43 445.09 1319.38 445.033 1319.34 444.963L1318.67 443.721C1318.63 443.645 1318.57 443.582 1318.49 443.541L1317.26 442.884C1317.19 442.847 1317.13 442.791 1317.09 442.722C1317.04 442.653 1317.02 442.574 1317.02 442.493C1317.02 442.412 1317.04 442.333 1317.09 442.264C1317.13 442.195 1317.19 442.139 1317.26 442.101L1318.49 441.436C1318.57 441.4 1318.64 441.336 1318.67 441.256L1319.34 440.023C1319.38 439.953 1319.43 439.896 1319.5 439.856C1319.57 439.816 1319.65 439.795 1319.73 439.795C1319.81 439.795 1319.89 439.816 1319.96 439.856C1320.03 439.896 1320.08 439.953 1320.12 440.023L1320.78 441.256C1320.82 441.332 1320.88 441.395 1320.96 441.436L1322.19 442.101C1322.26 442.139 1322.32 442.195 1322.36 442.264C1322.41 442.333 1322.43 442.412 1322.43 442.493C1322.43 442.574 1322.41 442.653 1322.36 442.722C1322.32 442.791 1322.26 442.847 1322.19 442.884Z" fill="#EBF5FF"/>
<path d="M1249.49 484.149L1247.94 484.977C1247.84 485.029 1247.76 485.111 1247.71 485.211L1246.87 486.759C1246.83 486.847 1246.76 486.921 1246.67 486.972C1246.58 487.024 1246.48 487.051 1246.38 487.051C1246.28 487.051 1246.19 487.024 1246.1 486.972C1246.01 486.921 1245.94 486.847 1245.89 486.759L1245.06 485.211C1245 485.114 1244.93 485.034 1244.83 484.977L1243.28 484.149C1243.18 484.102 1243.11 484.031 1243.06 483.944C1243 483.856 1242.97 483.756 1242.97 483.654C1242.97 483.552 1243 483.452 1243.06 483.365C1243.11 483.277 1243.18 483.206 1243.28 483.159L1244.83 482.322C1244.93 482.271 1245.01 482.193 1245.06 482.097L1245.89 480.54C1245.94 480.452 1246.01 480.378 1246.1 480.327C1246.19 480.275 1246.28 480.248 1246.38 480.248C1246.48 480.248 1246.58 480.275 1246.67 480.327C1246.76 480.378 1246.83 480.452 1246.87 480.54L1247.71 482.097C1247.76 482.197 1247.84 482.276 1247.94 482.322L1249.49 483.159C1249.58 483.208 1249.66 483.28 1249.71 483.367C1249.76 483.454 1249.78 483.553 1249.78 483.654C1249.78 483.755 1249.76 483.854 1249.71 483.941C1249.66 484.028 1249.58 484.1 1249.49 484.149Z" fill="#D6F0F4"/>
<path d="M1357.29 452.932L1355.41 453.94C1355.29 454.005 1355.2 454.102 1355.14 454.219L1354.13 456.1C1354.07 456.207 1353.98 456.296 1353.88 456.358C1353.77 456.42 1353.65 456.453 1353.53 456.453C1353.41 456.453 1353.29 456.42 1353.18 456.358C1353.08 456.296 1352.99 456.207 1352.93 456.1L1351.92 454.219C1351.86 454.102 1351.77 454.005 1351.65 453.94L1349.77 452.932C1349.67 452.875 1349.58 452.789 1349.51 452.684C1349.45 452.58 1349.42 452.46 1349.42 452.339C1349.42 452.217 1349.45 452.097 1349.51 451.993C1349.58 451.888 1349.67 451.802 1349.77 451.745L1351.65 450.737C1351.77 450.672 1351.86 450.575 1351.92 450.458L1352.93 448.577C1352.99 448.47 1353.08 448.381 1353.18 448.319C1353.29 448.257 1353.41 448.224 1353.53 448.224C1353.65 448.224 1353.77 448.257 1353.88 448.319C1353.98 448.381 1354.07 448.47 1354.13 448.577L1355.14 450.458C1355.2 450.575 1355.29 450.672 1355.41 450.737L1357.29 451.745C1357.39 451.802 1357.48 451.888 1357.55 451.993C1357.61 452.097 1357.64 452.217 1357.64 452.339C1357.64 452.46 1357.61 452.58 1357.55 452.684C1357.48 452.789 1357.39 452.875 1357.29 452.932Z" fill="#D6F0F4"/>
<path d="M1210.81 460.166L1209.1 461.066C1208.99 461.121 1208.9 461.209 1208.84 461.318L1207.94 463.037C1207.89 463.135 1207.81 463.216 1207.72 463.273C1207.62 463.329 1207.51 463.359 1207.4 463.359C1207.29 463.359 1207.18 463.329 1207.08 463.273C1206.99 463.216 1206.91 463.135 1206.85 463.037L1205.95 461.318C1205.9 461.211 1205.81 461.124 1205.7 461.066L1203.97 460.166C1203.88 460.113 1203.8 460.034 1203.74 459.938C1203.68 459.842 1203.65 459.733 1203.65 459.622C1203.65 459.51 1203.68 459.401 1203.74 459.305C1203.8 459.21 1203.88 459.131 1203.97 459.077L1205.7 458.177C1205.81 458.12 1205.9 458.032 1205.95 457.925L1206.85 456.206C1206.91 456.109 1206.99 456.027 1207.08 455.971C1207.18 455.914 1207.29 455.884 1207.4 455.884C1207.51 455.884 1207.62 455.914 1207.72 455.971C1207.81 456.027 1207.89 456.109 1207.94 456.206L1208.84 457.925C1208.9 458.034 1208.99 458.123 1209.1 458.177L1210.81 459.077C1210.91 459.129 1211 459.207 1211.06 459.303C1211.12 459.399 1211.15 459.509 1211.15 459.622C1211.15 459.734 1211.12 459.845 1211.06 459.941C1211 460.037 1210.91 460.115 1210.81 460.166Z" fill="#84D1DD"/>
<path d="M1325.73 470.894L1324.47 471.569C1324.39 471.612 1324.32 471.678 1324.28 471.758L1323.6 473.018C1323.56 473.089 1323.51 473.149 1323.44 473.19C1323.37 473.232 1323.29 473.254 1323.21 473.254C1323.13 473.254 1323.05 473.232 1322.98 473.19C1322.91 473.149 1322.85 473.089 1322.81 473.018L1322.13 471.758C1322.09 471.677 1322.03 471.61 1321.95 471.569L1320.69 470.894C1320.62 470.855 1320.56 470.798 1320.51 470.728C1320.47 470.659 1320.45 470.579 1320.45 470.498C1320.45 470.417 1320.47 470.337 1320.51 470.267C1320.56 470.198 1320.62 470.14 1320.69 470.102L1321.95 469.418C1322.03 469.383 1322.09 469.318 1322.13 469.238L1322.81 467.978C1322.85 467.907 1322.91 467.847 1322.98 467.805C1323.05 467.764 1323.13 467.742 1323.21 467.742C1323.29 467.742 1323.37 467.764 1323.44 467.805C1323.51 467.847 1323.56 467.907 1323.6 467.978L1324.28 469.238C1324.32 469.317 1324.39 469.38 1324.47 469.418L1325.73 470.102C1325.8 470.14 1325.86 470.198 1325.9 470.267C1325.94 470.337 1325.96 470.417 1325.96 470.498C1325.96 470.579 1325.94 470.659 1325.9 470.728C1325.86 470.798 1325.8 470.855 1325.73 470.894Z" fill="#84D1DD"/>
<path d="M1477.5 318.258C1479.2 318.258 1480.58 319.636 1480.58 321.336C1480.58 323.036 1479.2 324.414 1477.5 324.414C1475.8 324.414 1474.43 323.036 1474.43 321.336C1474.43 319.636 1475.8 318.258 1477.5 318.258Z" fill="#EBF5FF"/>
<path d="M1409.88 257.069C1409.88 256.661 1409.76 256.262 1409.54 255.922C1409.31 255.582 1408.99 255.316 1408.62 255.159C1408.24 255.001 1407.83 254.959 1407.43 255.038C1407.02 255.116 1406.66 255.312 1406.37 255.6C1406.08 255.888 1405.88 256.255 1405.8 256.655C1405.72 257.055 1405.76 257.47 1405.92 257.847C1406.07 258.224 1406.34 258.546 1406.68 258.773C1407.01 259 1407.41 259.121 1407.82 259.121C1408.37 259.121 1408.89 258.905 1409.28 258.521C1409.66 258.136 1409.88 257.614 1409.88 257.069Z" fill="#84D1DD"/>
<path d="M1492.19 267.884L1490.96 268.541C1490.89 268.587 1490.82 268.649 1490.78 268.721L1490.12 269.963C1490.08 270.033 1490.03 270.09 1489.96 270.13C1489.89 270.17 1489.81 270.191 1489.73 270.191C1489.65 270.191 1489.57 270.17 1489.5 270.13C1489.43 270.09 1489.38 270.033 1489.34 269.963L1488.67 268.721C1488.63 268.645 1488.57 268.582 1488.49 268.541L1487.26 267.884C1487.19 267.847 1487.13 267.791 1487.09 267.722C1487.04 267.653 1487.02 267.574 1487.02 267.493C1487.02 267.412 1487.04 267.333 1487.09 267.264C1487.13 267.195 1487.19 267.139 1487.26 267.101L1488.49 266.436C1488.57 266.4 1488.64 266.336 1488.67 266.256L1489.34 265.023C1489.38 264.953 1489.43 264.896 1489.5 264.856C1489.57 264.816 1489.65 264.795 1489.73 264.795C1489.81 264.795 1489.89 264.816 1489.96 264.856C1490.03 264.896 1490.08 264.953 1490.12 265.023L1490.78 266.256C1490.82 266.332 1490.88 266.395 1490.96 266.436L1492.19 267.101C1492.26 267.139 1492.32 267.195 1492.36 267.264C1492.41 267.333 1492.43 267.412 1492.43 267.493C1492.43 267.574 1492.41 267.653 1492.36 267.722C1492.32 267.791 1492.26 267.847 1492.19 267.884Z" fill="#EBF5FF"/>
<path d="M1419.49 309.149L1417.94 309.977C1417.84 310.029 1417.76 310.111 1417.71 310.211L1416.87 311.759C1416.83 311.847 1416.76 311.921 1416.67 311.972C1416.58 312.024 1416.48 312.051 1416.38 312.051C1416.28 312.051 1416.19 312.024 1416.1 311.972C1416.01 311.921 1415.94 311.847 1415.89 311.759L1415.06 310.211C1415 310.114 1414.93 310.034 1414.83 309.977L1413.28 309.149C1413.18 309.102 1413.11 309.031 1413.06 308.944C1413 308.856 1412.97 308.756 1412.97 308.654C1412.97 308.552 1413 308.452 1413.06 308.365C1413.11 308.277 1413.18 308.206 1413.28 308.159L1414.83 307.322C1414.93 307.271 1415.01 307.193 1415.06 307.097L1415.89 305.54C1415.94 305.452 1416.01 305.378 1416.1 305.327C1416.19 305.275 1416.28 305.248 1416.38 305.248C1416.48 305.248 1416.58 305.275 1416.67 305.327C1416.76 305.378 1416.83 305.452 1416.87 305.54L1417.71 307.097C1417.76 307.197 1417.84 307.276 1417.94 307.322L1419.49 308.159C1419.58 308.208 1419.66 308.28 1419.71 308.367C1419.76 308.454 1419.78 308.553 1419.78 308.654C1419.78 308.755 1419.76 308.854 1419.71 308.941C1419.66 309.028 1419.58 309.1 1419.49 309.149Z" fill="#D6F0F4"/>
<path d="M1527.29 277.932L1525.41 278.94C1525.29 279.005 1525.2 279.102 1525.14 279.219L1524.13 281.1C1524.07 281.207 1523.98 281.296 1523.88 281.358C1523.77 281.42 1523.65 281.453 1523.53 281.453C1523.41 281.453 1523.29 281.42 1523.18 281.358C1523.08 281.296 1522.99 281.207 1522.93 281.1L1521.92 279.219C1521.86 279.102 1521.77 279.005 1521.65 278.94L1519.77 277.932C1519.67 277.875 1519.58 277.789 1519.51 277.684C1519.45 277.58 1519.42 277.46 1519.42 277.339C1519.42 277.217 1519.45 277.097 1519.51 276.993C1519.58 276.888 1519.67 276.802 1519.77 276.745L1521.65 275.737C1521.77 275.672 1521.86 275.575 1521.92 275.458L1522.93 273.577C1522.99 273.47 1523.08 273.381 1523.18 273.319C1523.29 273.257 1523.41 273.224 1523.53 273.224C1523.65 273.224 1523.77 273.257 1523.88 273.319C1523.98 273.381 1524.07 273.47 1524.13 273.577L1525.14 275.458C1525.2 275.575 1525.29 275.672 1525.41 275.737L1527.29 276.745C1527.39 276.802 1527.48 276.888 1527.55 276.993C1527.61 277.097 1527.64 277.217 1527.64 277.339C1527.64 277.46 1527.61 277.58 1527.55 277.684C1527.48 277.789 1527.39 277.875 1527.29 277.932Z" fill="#D6F0F4"/>
<path d="M1380.81 285.166L1379.1 286.066C1378.99 286.121 1378.9 286.209 1378.84 286.318L1377.94 288.037C1377.89 288.135 1377.81 288.216 1377.72 288.273C1377.62 288.329 1377.51 288.359 1377.4 288.359C1377.29 288.359 1377.18 288.329 1377.08 288.273C1376.99 288.216 1376.91 288.135 1376.85 288.037L1375.95 286.318C1375.9 286.211 1375.81 286.124 1375.7 286.066L1373.97 285.166C1373.88 285.113 1373.8 285.034 1373.74 284.938C1373.68 284.842 1373.65 284.733 1373.65 284.622C1373.65 284.51 1373.68 284.401 1373.74 284.305C1373.8 284.21 1373.88 284.131 1373.97 284.077L1375.7 283.177C1375.81 283.12 1375.9 283.032 1375.95 282.925L1376.85 281.206C1376.91 281.109 1376.99 281.027 1377.08 280.971C1377.18 280.914 1377.29 280.884 1377.4 280.884C1377.51 280.884 1377.62 280.914 1377.72 280.971C1377.81 281.027 1377.89 281.109 1377.94 281.206L1378.84 282.925C1378.9 283.034 1378.99 283.123 1379.1 283.177L1380.81 284.077C1380.91 284.129 1381 284.207 1381.06 284.303C1381.12 284.399 1381.15 284.509 1381.15 284.622C1381.15 284.734 1381.12 284.845 1381.06 284.941C1381 285.037 1380.91 285.115 1380.81 285.166Z" fill="#84D1DD"/>
<path d="M1495.73 295.894L1494.47 296.569C1494.39 296.612 1494.32 296.678 1494.28 296.758L1493.6 298.018C1493.56 298.089 1493.51 298.149 1493.44 298.19C1493.37 298.232 1493.29 298.254 1493.21 298.254C1493.13 298.254 1493.05 298.232 1492.98 298.19C1492.91 298.149 1492.85 298.089 1492.81 298.018L1492.13 296.758C1492.09 296.677 1492.03 296.61 1491.95 296.569L1490.69 295.894C1490.62 295.855 1490.56 295.798 1490.51 295.728C1490.47 295.659 1490.45 295.579 1490.45 295.498C1490.45 295.417 1490.47 295.337 1490.51 295.267C1490.56 295.198 1490.62 295.14 1490.69 295.102L1491.95 294.418C1492.03 294.383 1492.09 294.318 1492.13 294.238L1492.81 292.978C1492.85 292.907 1492.91 292.847 1492.98 292.805C1493.05 292.764 1493.13 292.742 1493.21 292.742C1493.29 292.742 1493.37 292.764 1493.44 292.805C1493.51 292.847 1493.56 292.907 1493.6 292.978L1494.28 294.238C1494.32 294.317 1494.39 294.38 1494.47 294.418L1495.73 295.102C1495.8 295.14 1495.86 295.198 1495.9 295.267C1495.94 295.337 1495.96 295.417 1495.96 295.498C1495.96 295.579 1495.94 295.659 1495.9 295.728C1495.86 295.798 1495.8 295.855 1495.73 295.894Z" fill="#84D1DD"/>
<path d="M2675.73 1289.6C2684.68 1277.05 2693.04 1217.77 2692.64 1202.35C2692.23 1186.94 2686.82 1172.08 2677.22 1160.02C2667.62 1147.96 2654.36 1139.35 2639.44 1135.5C2624.52 1131.65 2608.75 1132.77 2594.52 1138.68C2583.36 1126.6 2567.95 1119.34 2551.54 1118.43C2555.62 1096 2551.53 1072.85 2540.02 1053.18C2528.5 1033.5 2510.33 1018.61 2488.78 1011.18C2467.24 1003.76 2443.75 1004.3 2422.57 1012.71C2401.39 1021.12 2383.92 1036.85 2373.33 1057.03C2363.92 1049.67 2352.94 1044.57 2341.25 1042.14C2329.55 1039.71 2317.46 1040.01 2305.9 1043.02C2294.34 1046.02 2283.63 1051.66 2274.6 1059.48C2265.57 1067.3 2258.46 1077.1 2253.83 1088.12C2243.86 1089.37 2234.32 1093.01 2226.04 1098.72C2224.07 1082.68 2216.31 1067.91 2204.21 1057.2C2192.11 1046.49 2176.52 1040.58 2160.37 1040.57C2156.41 1040.58 2152.46 1040.96 2148.57 1041.7C2143.34 1026.47 2132.99 1013.53 2119.3 1005.07C2105.6 996.62 2089.4 993.177 2073.45 995.33C2057.5 997.484 2042.79 1005.1 2031.82 1016.89C2020.85 1028.67 2014.31 1043.89 2013.29 1059.96C2006.05 1052.69 1997.21 1047.21 1987.48 1043.95C1977.75 1040.68 1967.4 1039.73 1957.23 1041.16C1947.07 1042.58 1937.38 1046.36 1928.93 1052.18C1920.47 1058 1913.49 1065.71 1908.53 1074.7C1898.94 1071.07 1888.61 1069.82 1878.44 1071.05C1868.26 1072.28 1858.54 1075.96 1850.09 1081.76C1845.46 1061.44 1834.2 1043.25 1818.07 1030.06C1801.95 1016.87 1781.89 1009.44 1761.07 1008.94C1740.24 1008.45 1719.85 1014.92 1703.12 1027.33C1686.39 1039.74 1674.27 1057.37 1668.69 1077.45C1663.88 1075.01 1658.78 1073.2 1653.51 1072.08C1637.3 1058.49 1617.97 1049.14 1597.25 1044.87C1576.54 1040.61 1555.09 1041.56 1534.83 1047.65C1514.58 1053.74 1496.15 1064.78 1481.22 1079.76C1466.28 1094.74 1455.3 1113.2 1449.27 1133.48C1446.64 1137.49 1444.42 1141.75 1442.63 1146.2C1442.63 1145.04 1442.81 1143.87 1442.81 1142.67C1442.8 1131.85 1439.61 1121.27 1433.62 1112.26C1427.64 1103.25 1419.13 1096.2 1409.16 1092.01C1399.19 1087.82 1388.21 1086.66 1377.59 1088.68C1366.96 1090.7 1357.17 1095.82 1349.44 1103.38C1352.93 1086.68 1350.91 1069.29 1343.67 1053.83C1336.44 1038.37 1324.38 1025.68 1309.32 1017.67C1294.26 1009.66 1277.01 1006.75 1260.15 1009.39C1243.3 1012.03 1227.76 1020.07 1215.86 1032.3C1219.34 1023.09 1220.76 1013.23 1220.01 1003.42C1219.26 993.605 1216.36 984.076 1211.52 975.507C1206.68 966.938 1200.01 959.539 1191.99 953.835C1183.97 948.13 1174.8 944.26 1165.12 942.498C1155.44 940.736 1145.49 941.126 1135.98 943.639C1126.47 946.152 1117.63 950.728 1110.08 957.041C1102.53 963.355 1096.46 971.252 1092.31 980.173C1088.15 989.094 1086 998.821 1086.02 1008.66C1074.69 1000.52 1061.33 995.654 1047.41 994.616C1033.49 993.579 1019.56 996.405 1007.14 1002.78C994.728 1009.16 984.314 1018.85 977.048 1030.77C969.782 1042.69 965.946 1056.39 965.962 1070.35C965.962 1072.29 965.962 1074.2 966.245 1076.07C954.608 1077.27 943.382 1081.03 933.376 1087.1C923.37 1093.16 914.835 1101.37 908.386 1111.14C901.936 1120.9 897.735 1131.98 896.083 1143.57C894.432 1155.15 895.372 1166.96 898.836 1178.14C889.756 1182.42 882.077 1189.19 876.695 1197.66C871.312 1206.14 868.447 1215.97 868.433 1226.01C868.433 1232.67 865.96 1283.42 868.433 1289.6H2675.73Z" fill="#D6F0F4"/>
<path d="M4006.08 1366.19C4015.03 1353.63 4023.39 1294.35 4022.98 1278.94C4022.58 1263.53 4017.17 1248.67 4007.57 1236.61C3997.97 1224.54 3984.71 1215.94 3969.79 1212.09C3954.86 1208.24 3939.1 1209.35 3924.86 1215.26C3913.71 1203.19 3898.3 1195.93 3881.89 1195.02C3885.97 1172.59 3881.88 1149.44 3870.36 1129.76C3858.85 1110.09 3840.68 1095.19 3819.13 1087.77C3797.58 1080.34 3774.09 1080.89 3752.92 1089.3C3731.74 1097.71 3714.27 1113.43 3703.67 1133.62C3694.27 1126.25 3683.29 1121.16 3671.6 1118.72C3659.9 1116.29 3647.81 1116.59 3636.25 1119.6C3624.69 1122.61 3613.97 1128.24 3604.94 1136.07C3595.92 1143.89 3588.81 1153.69 3584.18 1164.71C3574.2 1165.96 3564.67 1169.6 3556.39 1175.31C3554.42 1159.26 3546.65 1144.5 3534.56 1133.79C3522.46 1123.08 3506.87 1117.16 3490.71 1117.15C3486.76 1117.17 3482.81 1117.55 3478.92 1118.28C3473.69 1103.06 3463.34 1090.11 3449.64 1081.66C3435.95 1073.21 3419.74 1069.76 3403.79 1071.92C3387.85 1074.07 3373.13 1081.69 3362.17 1093.47C3351.2 1105.26 3344.65 1120.48 3343.64 1136.55C3336.39 1129.28 3327.56 1123.8 3317.83 1120.53C3308.1 1117.27 3297.74 1116.31 3287.58 1117.74C3277.42 1119.17 3267.73 1122.95 3259.27 1128.77C3250.82 1134.59 3243.84 1142.3 3238.87 1151.28C3229.28 1147.66 3218.96 1146.41 3208.79 1147.64C3198.61 1148.87 3188.88 1152.54 3180.43 1158.35C3175.81 1138.03 3164.55 1119.83 3148.42 1106.64C3132.3 1093.45 3112.24 1086.02 3091.41 1085.53C3070.59 1085.03 3050.2 1091.5 3033.47 1103.91C3016.74 1116.32 3004.62 1133.96 2999.04 1154.04C2994.23 1151.6 2989.13 1149.79 2983.86 1148.67C2967.65 1135.07 2948.32 1125.72 2927.6 1121.46C2906.88 1117.19 2885.43 1118.15 2865.18 1124.24C2844.92 1130.33 2826.5 1141.36 2811.56 1156.34C2796.63 1171.33 2785.65 1189.79 2779.62 1210.07C2776.99 1214.08 2774.76 1218.34 2772.98 1222.79C2772.98 1221.62 2773.15 1220.46 2773.15 1219.26C2773.15 1208.44 2769.96 1197.86 2763.97 1188.85C2757.99 1179.83 2749.48 1172.79 2739.51 1168.6C2729.54 1164.4 2718.56 1163.24 2707.93 1165.27C2697.31 1167.29 2687.52 1172.4 2679.79 1179.97C2683.28 1163.26 2681.25 1145.87 2674.02 1130.42C2666.78 1114.96 2654.73 1102.27 2639.67 1094.26C2624.61 1086.24 2607.35 1083.33 2590.5 1085.97C2573.65 1088.61 2558.1 1096.65 2546.21 1108.89C2549.69 1099.68 2551.11 1089.82 2550.36 1080.01C2549.6 1070.19 2546.71 1060.66 2541.86 1052.09C2537.02 1043.52 2530.36 1036.12 2522.34 1030.42C2514.32 1024.72 2505.15 1020.85 2495.47 1019.08C2485.79 1017.32 2475.84 1017.71 2466.33 1020.22C2456.82 1022.74 2447.97 1027.31 2440.43 1033.63C2432.88 1039.94 2426.81 1047.84 2422.65 1056.76C2418.5 1065.68 2416.35 1075.41 2416.37 1085.25C2405.04 1077.1 2391.67 1072.24 2377.76 1071.2C2363.84 1070.16 2349.91 1072.99 2337.49 1079.37C2325.08 1085.75 2314.66 1095.43 2307.4 1107.35C2300.13 1119.28 2296.29 1132.97 2296.31 1146.94C2296.31 1148.88 2296.31 1150.79 2296.59 1152.66C2284.96 1153.86 2273.73 1157.62 2263.72 1163.68C2253.72 1169.75 2245.18 1177.96 2238.73 1187.72C2232.28 1197.49 2228.08 1208.56 2226.43 1220.15C2224.78 1231.74 2225.72 1243.55 2229.18 1254.73C2220.1 1259 2212.42 1265.78 2207.04 1274.25C2201.66 1282.73 2198.79 1292.56 2198.78 1302.6C2198.78 1309.25 2196.31 1360.01 2198.78 1366.19H4006.08Z" fill="#D6F0F4"/>
<path d="M1229.08 1350.19C1238.03 1337.63 1246.39 1278.35 1245.98 1262.94C1245.58 1247.53 1240.17 1232.67 1230.57 1220.61C1220.97 1208.54 1207.71 1199.94 1192.79 1196.09C1177.86 1192.24 1162.1 1193.35 1147.86 1199.26C1136.71 1187.19 1121.3 1179.93 1104.89 1179.02C1108.97 1156.59 1104.88 1133.44 1093.36 1113.76C1081.85 1094.09 1063.68 1079.19 1042.13 1071.77C1020.58 1064.34 997.095 1064.89 975.916 1073.3C954.736 1081.71 937.268 1097.43 926.675 1117.62C917.269 1110.25 906.292 1105.16 894.597 1102.72C882.903 1100.29 870.805 1100.59 859.245 1103.6C847.686 1106.61 836.975 1112.24 827.945 1120.07C818.915 1127.89 811.81 1137.69 807.182 1148.71C797.203 1149.96 787.672 1153.6 779.392 1159.31C777.419 1143.26 769.653 1128.5 757.556 1117.79C745.459 1107.08 729.866 1101.16 713.713 1101.15C709.755 1101.17 705.808 1101.55 701.919 1102.28C696.686 1087.06 686.34 1074.11 672.643 1065.66C658.946 1057.21 642.744 1053.76 626.794 1055.92C610.845 1058.07 596.135 1065.69 585.167 1077.47C574.2 1089.26 567.653 1104.48 566.642 1120.55C559.395 1113.28 550.557 1107.8 540.827 1104.53C531.098 1101.27 520.743 1100.31 510.581 1101.74C500.419 1103.17 490.728 1106.95 482.275 1112.77C473.821 1118.59 466.837 1126.3 461.873 1135.28C452.284 1131.66 441.962 1130.41 431.786 1131.64C421.61 1132.87 411.883 1136.54 403.433 1142.35C398.811 1122.03 387.545 1103.83 371.421 1090.64C355.297 1077.45 335.235 1070.02 314.413 1069.53C293.592 1069.03 273.2 1075.5 256.468 1087.91C239.736 1100.32 227.62 1117.96 222.039 1138.04C217.232 1135.6 212.128 1133.79 206.855 1132.67C190.648 1119.07 171.316 1109.72 150.6 1105.46C129.884 1101.19 108.434 1102.15 88.1786 1108.24C67.9235 1114.33 49.4993 1125.36 34.5635 1140.34C19.6277 1155.33 8.64905 1173.79 2.61517 1194.07C-0.0127563 1198.08 -2.23651 1202.34 -4.02332 1206.79C-4.02332 1205.62 -3.8468 1204.46 -3.8468 1203.26C-3.84949 1192.44 -7.04315 1181.86 -13.0278 1172.85C-19.0125 1163.83 -27.5219 1156.79 -37.4901 1152.6C-47.4584 1148.4 -58.4421 1147.24 -69.0653 1149.27C-79.6885 1151.29 -89.4789 1156.4 -97.2097 1163.97C-93.7202 1147.26 -95.7451 1129.87 -102.98 1114.42C-110.215 1098.96 -122.27 1086.27 -137.331 1078.26C-152.392 1070.24 -169.647 1067.33 -186.501 1069.97C-203.355 1072.61 -218.897 1080.65 -230.792 1092.89C-227.31 1083.68 -225.894 1073.82 -226.645 1064.01C-227.395 1054.19 -230.294 1044.66 -235.135 1036.09C-239.977 1027.52 -246.643 1020.12 -254.66 1014.42C-262.678 1008.72 -271.852 1004.85 -281.531 1003.08C-291.21 1001.32 -301.158 1001.71 -310.67 1004.22C-320.182 1006.74 -329.026 1011.31 -336.573 1017.63C-344.121 1023.94 -350.189 1031.84 -354.346 1040.76C-358.504 1049.68 -360.65 1059.41 -360.632 1069.25C-371.965 1061.1 -385.326 1056.24 -399.243 1055.2C-413.161 1054.16 -427.095 1056.99 -439.509 1063.37C-451.924 1069.75 -462.338 1079.43 -469.604 1091.35C-476.87 1103.28 -480.706 1116.97 -480.69 1130.94C-480.69 1132.88 -480.69 1134.79 -480.407 1136.66C-492.044 1137.86 -503.271 1141.62 -513.276 1147.68C-523.282 1153.75 -531.818 1161.96 -538.267 1171.72C-544.716 1181.49 -548.918 1192.56 -550.569 1204.15C-552.221 1215.74 -551.281 1227.55 -547.817 1238.73C-556.897 1243 -564.575 1249.78 -569.958 1258.25C-575.34 1266.73 -578.206 1276.56 -578.22 1286.6C-578.219 1293.25 -580.692 1344.01 -578.22 1350.19H1229.08Z" fill="#D6F0F4"/>
<path d="M2638.05 1392.82C2647 1380.27 2655.36 1320.99 2654.95 1305.58C2654.55 1290.16 2649.14 1275.3 2639.54 1263.24C2629.94 1251.18 2616.68 1242.57 2601.76 1238.72C2586.84 1234.87 2571.07 1235.99 2556.84 1241.9C2545.68 1229.83 2530.27 1222.57 2513.86 1221.66C2517.94 1199.23 2513.85 1176.08 2502.33 1156.4C2490.82 1136.73 2472.65 1121.83 2451.1 1114.4C2429.56 1106.98 2406.07 1107.52 2384.89 1115.94C2363.71 1124.35 2346.24 1140.07 2335.65 1160.25C2326.24 1152.89 2315.26 1147.79 2303.57 1145.36C2291.87 1142.93 2279.78 1143.23 2268.22 1146.24C2256.66 1149.25 2245.95 1154.88 2236.92 1162.7C2227.89 1170.53 2220.78 1180.33 2216.15 1191.34C2206.17 1192.6 2196.64 1196.23 2188.36 1201.94C2186.39 1185.9 2178.62 1171.14 2166.53 1160.43C2154.43 1149.71 2138.84 1143.8 2122.68 1143.79C2118.73 1143.81 2114.78 1144.19 2110.89 1144.92C2105.66 1129.69 2095.31 1116.75 2081.61 1108.3C2067.92 1099.84 2051.71 1096.4 2035.77 1098.55C2019.82 1100.71 2005.11 1108.32 1994.14 1120.11C1983.17 1131.89 1976.62 1147.12 1975.61 1163.19C1968.37 1155.92 1959.53 1150.43 1949.8 1147.17C1940.07 1143.9 1929.71 1142.95 1919.55 1144.38C1909.39 1145.81 1899.7 1149.58 1891.25 1155.4C1882.79 1161.22 1875.81 1168.93 1870.84 1177.92C1861.26 1174.29 1850.93 1173.04 1840.76 1174.27C1830.58 1175.5 1820.85 1179.18 1812.4 1184.98C1807.78 1164.67 1796.52 1146.47 1780.39 1133.28C1764.27 1120.09 1744.21 1112.66 1723.38 1112.16C1702.56 1111.67 1682.17 1118.14 1665.44 1130.55C1648.71 1142.96 1636.59 1160.6 1631.01 1180.67C1626.2 1178.23 1621.1 1176.43 1615.83 1175.3C1599.62 1161.71 1580.29 1152.36 1559.57 1148.1C1538.85 1143.83 1517.4 1144.79 1497.15 1150.88C1476.89 1156.97 1458.47 1168 1443.53 1182.98C1428.6 1197.96 1417.62 1216.43 1411.59 1236.71C1408.96 1240.72 1406.73 1244.98 1404.95 1249.43C1404.95 1248.26 1405.12 1247.09 1405.12 1245.89C1405.12 1235.07 1401.93 1224.49 1395.94 1215.48C1389.96 1206.47 1381.45 1199.43 1371.48 1195.23C1361.51 1191.04 1350.53 1189.88 1339.91 1191.9C1329.28 1193.93 1319.49 1199.04 1311.76 1206.61C1315.25 1189.9 1313.23 1172.51 1305.99 1157.05C1298.76 1141.6 1286.7 1128.91 1271.64 1120.89C1256.58 1112.88 1239.32 1109.97 1222.47 1112.61C1205.62 1115.25 1190.07 1123.29 1178.18 1135.52C1181.66 1126.32 1183.08 1116.46 1182.33 1106.64C1181.58 1096.83 1178.68 1087.3 1173.84 1078.73C1168.99 1070.16 1162.33 1062.76 1154.31 1057.06C1146.29 1051.35 1137.12 1047.48 1127.44 1045.72C1117.76 1043.96 1107.81 1044.35 1098.3 1046.86C1088.79 1049.37 1079.95 1053.95 1072.4 1060.26C1064.85 1066.58 1058.78 1074.47 1054.62 1083.4C1050.47 1092.32 1048.32 1102.04 1048.34 1111.89C1037.01 1103.74 1023.64 1098.88 1009.73 1097.84C995.81 1096.8 981.876 1099.63 969.461 1106.01C957.047 1112.39 946.632 1122.07 939.366 1133.99C932.1 1145.91 928.264 1159.61 928.281 1173.57C928.281 1175.52 928.281 1177.42 928.563 1179.3C916.926 1180.49 905.7 1184.26 895.694 1190.32C885.689 1196.38 877.153 1204.6 870.704 1214.36C864.255 1224.13 860.053 1235.2 858.401 1246.79C856.75 1258.37 857.69 1270.18 861.154 1281.36C852.074 1285.64 844.395 1292.41 839.013 1300.89C833.63 1309.36 830.765 1319.19 830.751 1329.24C830.751 1335.89 828.279 1386.64 830.751 1392.82H2638.05Z" fill="white"/>
<path d="M3968.4 1469.41C3977.35 1456.86 3985.71 1397.57 3985.3 1382.16C3984.9 1366.75 3979.48 1351.89 3969.89 1339.83C3960.29 1327.77 3947.03 1319.16 3932.1 1315.31C3917.18 1311.46 3901.41 1312.57 3887.18 1318.49C3876.03 1306.41 3860.62 1299.15 3844.21 1298.24C3848.28 1275.81 3844.19 1252.66 3832.68 1232.99C3821.17 1213.31 3802.99 1198.41 3781.45 1190.99C3759.9 1183.57 3736.41 1184.11 3715.23 1192.52C3694.05 1200.93 3676.59 1216.65 3665.99 1236.84C3656.59 1229.47 3645.61 1224.38 3633.92 1221.95C3622.22 1219.52 3610.12 1219.82 3598.56 1222.82C3587 1225.83 3576.29 1231.47 3567.26 1239.29C3558.23 1247.11 3551.13 1256.91 3546.5 1267.93C3536.52 1269.18 3526.99 1272.82 3518.71 1278.53C3516.74 1262.49 3508.97 1247.72 3496.87 1237.01C3484.78 1226.3 3469.18 1220.38 3453.03 1220.38C3449.07 1220.39 3445.13 1220.77 3441.24 1221.51C3436 1206.28 3425.66 1193.34 3411.96 1184.88C3398.26 1176.43 3382.06 1172.99 3366.11 1175.14C3350.16 1177.29 3335.45 1184.91 3324.49 1196.69C3313.52 1208.48 3306.97 1223.7 3305.96 1239.77C3298.71 1232.5 3289.88 1227.02 3280.15 1223.75C3270.42 1220.49 3260.06 1219.54 3249.9 1220.96C3239.74 1222.39 3230.05 1226.17 3221.59 1231.99C3213.14 1237.81 3206.16 1245.52 3201.19 1254.5C3191.6 1250.88 3181.28 1249.63 3171.1 1250.86C3160.93 1252.09 3151.2 1255.76 3142.75 1261.57C3138.13 1241.25 3126.86 1223.06 3110.74 1209.87C3094.62 1196.68 3074.55 1189.25 3053.73 1188.75C3032.91 1188.26 3012.52 1194.73 2995.79 1207.13C2979.05 1219.54 2966.94 1237.18 2961.36 1257.26C2956.55 1254.82 2951.45 1253.01 2946.17 1251.89C2929.97 1238.3 2910.63 1228.95 2889.92 1224.68C2869.2 1220.42 2847.75 1221.37 2827.5 1227.46C2807.24 1233.55 2788.82 1244.58 2773.88 1259.57C2758.95 1274.55 2747.97 1293.01 2741.93 1313.29C2739.31 1317.3 2737.08 1321.56 2735.3 1326.01C2735.3 1324.85 2735.47 1323.68 2735.47 1322.48C2735.47 1311.66 2732.28 1301.08 2726.29 1292.07C2720.31 1283.06 2711.8 1276.01 2701.83 1271.82C2691.86 1267.62 2680.88 1266.47 2670.25 1268.49C2659.63 1270.51 2649.84 1275.63 2642.11 1283.19C2645.6 1266.48 2643.57 1249.1 2636.34 1233.64C2629.1 1218.18 2617.05 1205.49 2601.99 1197.48C2586.93 1189.46 2569.67 1186.56 2552.82 1189.2C2535.96 1191.83 2520.42 1199.87 2508.53 1212.11C2512.01 1202.9 2513.42 1193.04 2512.67 1183.23C2511.92 1173.41 2509.02 1163.88 2504.18 1155.32C2499.34 1146.75 2492.68 1139.35 2484.66 1133.64C2476.64 1127.94 2467.47 1124.07 2457.79 1122.31C2448.11 1120.54 2438.16 1120.93 2428.65 1123.45C2419.14 1125.96 2410.29 1130.54 2402.74 1136.85C2395.2 1143.16 2389.13 1151.06 2384.97 1159.98C2380.81 1168.9 2378.67 1178.63 2378.69 1188.47C2367.35 1180.32 2353.99 1175.46 2340.08 1174.43C2326.16 1173.39 2312.22 1176.21 2299.81 1182.59C2287.39 1188.97 2276.98 1198.65 2269.71 1210.58C2262.45 1222.5 2258.61 1236.2 2258.63 1250.16C2258.63 1252.1 2258.63 1254.01 2258.91 1255.88C2247.27 1257.08 2236.05 1260.84 2226.04 1266.91C2216.04 1272.97 2207.5 1281.18 2201.05 1290.95C2194.6 1300.71 2190.4 1311.79 2188.75 1323.37C2187.1 1334.96 2188.04 1346.77 2191.5 1357.95C2182.42 1362.23 2174.74 1369 2169.36 1377.47C2163.98 1385.95 2161.11 1395.78 2161.1 1405.82C2161.1 1412.48 2158.63 1463.23 2161.1 1469.41H3968.4Z" fill="white"/>
<path d="M1191.4 1453.41C1200.35 1440.86 1208.71 1381.57 1208.3 1366.16C1207.9 1350.75 1202.48 1335.89 1192.89 1323.83C1183.29 1311.77 1170.03 1303.16 1155.1 1299.31C1140.18 1295.46 1124.41 1296.57 1110.18 1302.49C1099.03 1290.41 1083.62 1283.15 1067.21 1282.24C1071.28 1259.81 1067.19 1236.66 1055.68 1216.99C1044.17 1197.31 1025.99 1182.41 1004.45 1174.99C982.903 1167.57 959.413 1168.11 938.234 1176.52C917.054 1184.93 899.586 1200.65 888.993 1220.84C879.587 1213.47 868.61 1208.38 856.916 1205.95C845.221 1203.52 833.124 1203.82 821.564 1206.82C810.004 1209.83 799.293 1215.47 790.263 1223.29C781.234 1231.11 774.129 1240.91 769.5 1251.93C759.522 1253.18 749.991 1256.82 741.71 1262.53C739.737 1246.49 731.971 1231.72 719.875 1221.01C707.778 1210.3 692.185 1204.38 676.031 1204.38C672.074 1204.39 668.126 1204.77 664.237 1205.51C659.004 1190.28 648.659 1177.34 634.961 1168.88C621.264 1160.43 605.062 1156.99 589.113 1159.14C573.164 1161.29 558.453 1168.91 547.486 1180.69C536.518 1192.48 529.971 1207.7 528.96 1223.77C521.713 1216.5 512.875 1211.02 503.146 1207.75C493.416 1204.49 483.061 1203.54 472.899 1204.96C462.737 1206.39 453.046 1210.17 444.593 1215.99C436.14 1221.81 429.155 1229.52 424.191 1238.5C414.603 1234.88 404.281 1233.63 394.105 1234.86C383.929 1236.09 374.201 1239.76 365.751 1245.57C361.129 1225.25 349.864 1207.06 333.739 1193.87C317.615 1180.68 297.554 1173.25 276.732 1172.75C255.91 1172.26 235.519 1178.73 218.787 1191.13C202.055 1203.54 189.939 1221.18 184.358 1241.26C179.551 1238.82 174.447 1237.01 169.174 1235.89C152.966 1222.3 133.634 1212.95 112.919 1208.68C92.2026 1204.42 70.7521 1205.37 50.4969 1211.46C30.2418 1217.55 11.8176 1228.58 -3.11816 1243.57C-18.054 1258.55 -29.0326 1277.01 -35.0665 1297.29C-37.6944 1301.3 -39.9182 1305.56 -41.705 1310.01C-41.705 1308.85 -41.5284 1307.68 -41.5284 1306.48C-41.5311 1295.66 -44.7248 1285.08 -50.7094 1276.07C-56.6941 1267.06 -65.2036 1260.01 -75.1718 1255.82C-85.14 1251.62 -96.1237 1250.47 -106.747 1252.49C-117.37 1254.51 -127.16 1259.63 -134.891 1267.19C-131.402 1250.48 -133.427 1233.1 -140.662 1217.64C-147.897 1202.18 -159.951 1189.49 -175.012 1181.48C-190.074 1173.46 -207.328 1170.56 -224.182 1173.2C-241.036 1175.83 -256.579 1183.87 -268.474 1196.11C-264.992 1186.9 -263.576 1177.04 -264.326 1167.23C-265.077 1157.41 -267.975 1147.88 -272.817 1139.32C-277.658 1130.75 -284.324 1123.35 -292.342 1117.64C-300.36 1111.94 -309.533 1108.07 -319.212 1106.31C-328.892 1104.54 -338.84 1104.93 -348.352 1107.45C-357.864 1109.96 -366.707 1114.54 -374.255 1120.85C-381.803 1127.16 -387.87 1135.06 -392.028 1143.98C-396.186 1152.9 -398.331 1162.63 -398.313 1172.47C-409.646 1164.32 -423.007 1159.46 -436.925 1158.43C-450.842 1157.39 -464.776 1160.21 -477.191 1166.59C-489.606 1172.97 -500.02 1182.65 -507.286 1194.58C-514.552 1206.5 -518.388 1220.2 -518.371 1234.16C-518.371 1236.1 -518.371 1238.01 -518.089 1239.88C-529.726 1241.08 -540.952 1244.84 -550.958 1250.91C-560.964 1256.97 -569.499 1265.18 -575.948 1274.95C-582.398 1284.71 -586.599 1295.79 -588.251 1307.37C-589.902 1318.96 -588.962 1330.77 -585.498 1341.95C-594.578 1346.23 -602.257 1353 -607.639 1361.47C-613.022 1369.95 -615.887 1379.78 -615.901 1389.82C-615.901 1396.48 -618.374 1447.23 -615.901 1453.41H1191.4Z" fill="white"/>
</g>
<defs>
<linearGradient id="paint0_linear_1860_9393" x1="1805.05" y1="200" x2="1805.05" y2="1367.5" gradientUnits="userSpaceOnUse">
<stop stop-color="#294563"/>
<stop offset="1" stop-color="#172636"/>
</linearGradient>
<clipPath id="clip0_1860_9393">
<rect width="3600" height="1614" fill="white"/>
</clipPath>
</defs>
</svg>
