<svg width="32" height="33" viewBox="0 0 32 33" fill="none" xmlns="http://www.w3.org/2000/svg">
<g id="noto-v1:1st-place-medal" clip-path="url(#clip0_1642_12933)">
<g id="Clip path group">
<mask id="mask0_1642_12933" style="mask-type:luminance" maskUnits="userSpaceOnUse" x="0" y="0" width="32" height="33">
<g id="notoV11stPlaceMedal1">
<path id="Vector" d="M0 0.101562H32V32.1016H0V0.101562Z" fill="white"/>
</g>
</mask>
<g mask="url(#mask0_1642_12933)">
<g id="Group">
<path id="Vector_2" d="M12.2178 15.5566H18.6128L26.6078 0.101562H20.2128L12.2178 15.5566Z" fill="#006CA2"/>
<path id="Vector_3" d="M16.2151 7.82812L13.0176 14.0106L13.8176 15.5556H18.6126L19.4126 14.0106L16.2151 7.82812Z" fill="#2F2F2F"/>
<path id="Vector_4" d="M19.1249 19.2909H12.7299V15.5584H19.1249V19.2909ZM19.1249 13.9609H12.7299C12.3055 13.9609 11.8986 14.1295 11.5985 14.4296C11.2985 14.7296 11.1299 15.1366 11.1299 15.5609V19.2909C11.1299 19.7153 11.2985 20.1222 11.5985 20.4223C11.8986 20.7224 12.3055 20.8909 12.7299 20.8909H19.1249C20.0074 20.8909 20.7224 20.1759 20.7224 19.2909V15.5584C20.7224 14.6759 20.0074 13.9609 19.1249 13.9609Z" fill="#FCC21B"/>
<path id="Vector_5" d="M23.9207 24.0848C23.9207 28.4998 20.3407 32.0798 15.9257 32.0798C11.5107 32.0798 7.93066 28.5023 7.93066 24.0848C7.93066 19.6673 11.5107 16.0898 15.9257 16.0898C20.3432 16.0898 23.9207 19.6698 23.9207 24.0848Z" fill="#FCC21B"/>
<path id="Vector_6" d="M10.5681 22.1374C10.4631 22.1374 10.3581 22.1174 10.2581 22.0724C9.87313 21.9074 9.68813 21.4599 9.83813 21.0724C9.84063 21.0674 9.84313 21.0599 9.84313 21.0549C9.84563 21.0424 9.84813 21.0449 9.85313 21.0349C10.5606 19.3499 12.0431 18.1049 13.8231 17.6924C13.9106 17.6724 14.0031 17.7149 14.0431 17.7974C14.0831 17.8799 14.0606 17.9799 13.9881 18.0374C12.8206 18.9649 11.8881 20.2149 11.2931 21.6549C11.2931 21.6574 11.2906 21.6599 11.2906 21.6599C11.2906 21.6599 11.2906 21.6624 11.2881 21.6624C11.2056 21.8549 11.0531 22.0049 10.8581 22.0799C10.7656 22.1199 10.6656 22.1374 10.5681 22.1374Z" fill="white"/>
<path id="Vector_7" d="M19.1478 15.5566H12.7503L4.75781 0.101562H11.1528L19.1478 15.5566Z" fill="#006CA2"/>
<path id="Vector_8" d="M14.3749 22.4556L15.1174 22.2431V26.3206H14.5449C14.4824 26.3206 14.4349 26.3706 14.4349 26.4306V27.8256C14.4349 27.8856 14.4824 27.9356 14.5449 27.9356H17.5074C17.5674 27.9356 17.6174 27.8856 17.6174 27.8256V26.4306C17.6174 26.3706 17.5674 26.3206 17.5074 26.3206H16.9349V20.3481C16.9349 20.3156 16.9199 20.2831 16.8924 20.2631C16.8796 20.2527 16.8647 20.2453 16.8487 20.2414C16.8327 20.2375 16.816 20.2372 16.7999 20.2406L14.3199 20.7731C14.2699 20.7856 14.2324 20.8281 14.2324 20.8806V22.3506C14.2324 22.3831 14.2474 22.4181 14.2749 22.4381C14.3074 22.4581 14.3424 22.4631 14.3749 22.4556Z" fill="#F79329"/>
</g>
</g>
</g>
</g>
<defs>
<clipPath id="clip0_1642_12933">
<rect width="32" height="32" fill="white" transform="translate(0 0.101562)"/>
</clipPath>
</defs>
</svg>
