<svg width="25" height="25" viewBox="0 0 25 25" fill="none" xmlns="http://www.w3.org/2000/svg">
<g id="emojione-monotone:right-arrow">
<circle id="Ellipse 13" cx="12.5" cy="12.3008" r="11.25" fill="#F1B000"/>
<path id="Vector" d="M13 12.8008L7.405 10.5658L7.75 18.8008H6.25L6.61 10.2433L5.5 9.80078L13 6.80078L20.5 9.80078L13 12.8008ZM13 9.05078C12.5875 9.05078 12.25 9.21578 12.25 9.42578C12.25 9.63578 12.5875 9.80078 13 9.80078C13.4125 9.80078 13.75 9.63578 13.75 9.42578C13.75 9.21578 13.4125 9.05078 13 9.05078ZM13 13.5508L17.1775 11.8783C17.71 12.5833 18.0775 13.4308 18.1975 14.3533C17.9725 14.3233 17.74 14.3008 17.5 14.3008C15.5875 14.3008 13.915 15.3283 13 16.8583C12.5356 16.0788 11.8767 15.4334 11.0879 14.9851C10.299 14.5367 9.40732 14.301 8.5 14.3008C8.26 14.3008 8.0275 14.3233 7.8025 14.3533C7.9225 13.4308 8.29 12.5833 8.8225 11.8783L13 13.5508Z" fill="white"/>
</g>
</svg>
