<svg width="40" height="41" viewBox="0 0 40 41" fill="none" xmlns="http://www.w3.org/2000/svg">
<rect y="0.101562" width="40" height="40" rx="20" fill="url(#paint0_linear_1642_12909)"/>
<path d="M8 20.1016C8 25.9006 13.373 30.6016 20 30.6016C21.1885 30.6032 22.3721 30.4488 23.5205 30.1426C24.3965 30.5866 26.408 31.4386 29.792 31.9936C30.092 32.0416 30.32 31.7296 30.2015 31.4506C29.6705 30.1966 29.1905 28.5256 29.0465 27.0016C30.884 25.1566 32 22.7416 32 20.1016C32 14.3026 26.627 9.60156 20 9.60156C13.373 9.60156 8 14.3026 8 20.1016ZM21.209 18.2506C21.3079 18.103 21.422 17.9662 21.5495 17.8426C21.75 17.6361 21.989 17.471 22.253 17.3566L22.265 17.3506C22.6202 17.1856 23.0073 17.1006 23.399 17.1016C24.836 17.1016 26 18.2206 26 19.6021C26 20.9821 24.836 22.1011 23.399 22.1011C22.8845 22.1011 22.406 21.9586 22.0025 21.7111C22.208 22.2946 22.5875 22.9171 23.2175 23.5411C23.2768 23.599 23.3237 23.6684 23.3552 23.7452C23.3867 23.8219 23.4021 23.9042 23.4006 23.9871C23.399 24.07 23.3805 24.1518 23.3462 24.2272C23.3119 24.3027 23.2625 24.3704 23.201 24.4261C22.9415 24.6661 22.5305 24.6586 22.28 24.4111C20.279 22.4176 20.225 20.2741 20.8685 18.8521C20.963 18.6419 21.077 18.441 21.209 18.2521V18.2506ZM15.5 21.7111C15.704 22.2946 16.085 22.9171 16.715 23.5411C16.7743 23.5991 16.821 23.6686 16.8523 23.7454C16.8837 23.8222 16.899 23.9045 16.8973 23.9875C16.8956 24.0704 16.877 24.1521 16.8425 24.2275C16.8081 24.3029 16.7586 24.3705 16.697 24.4261C16.439 24.6661 16.028 24.6586 15.7775 24.4111C13.7765 22.4176 13.7225 20.2741 14.3645 18.8521C14.4595 18.6418 14.574 18.441 14.7065 18.2521C14.8053 18.104 14.9194 17.9667 15.047 17.8426C15.2474 17.6361 15.4865 17.471 15.7505 17.3566L15.7625 17.3506C16.1173 17.1858 16.5038 17.1008 16.895 17.1016C18.3305 17.1016 19.496 18.2206 19.496 19.6021C19.496 20.9821 18.3305 22.1011 16.895 22.1011C16.3805 22.1011 15.902 21.9586 15.4985 21.7111H15.5Z" fill="white"/>
<defs>
<linearGradient id="paint0_linear_1642_12909" x1="20" y1="0.101562" x2="20" y2="40.1016" gradientUnits="userSpaceOnUse">
<stop stop-color="#C86478"/>
<stop offset="1" stop-color="#954B5A"/>
</linearGradient>
</defs>
</svg>
