<svg width="61" height="96" viewBox="0 0 61 96" fill="none" xmlns="http://www.w3.org/2000/svg">
<path d="M12.9323 62.2422C12.9323 62.2422 -5.63225 70.6304 1.72417 95.3823C1.72417 95.3823 5.65078 82.9365 18.254 79.7171L12.9323 62.2422Z" fill="#33B2C7"/>
<path d="M47.7406 62.2422C47.7406 62.2422 66.312 70.6304 58.9488 95.3823C58.9488 95.3823 55.0222 82.9365 42.4258 79.7171L47.7406 62.2422Z" fill="#33B2C7"/>
<path d="M36.3627 84.905H23.739C23.498 84.9047 23.2642 84.8278 23.0762 84.687C22.8882 84.5462 22.7572 84.3499 22.7047 84.1304L22.0241 81.2793C21.9882 81.1336 21.988 80.9822 22.0237 80.8364C22.0594 80.6907 22.13 80.5544 22.2301 80.4377C22.3303 80.321 22.4575 80.227 22.6021 80.1627C22.7468 80.0984 22.9051 80.0655 23.0653 80.0664H37.0704C37.2306 80.0655 37.389 80.0984 37.5337 80.1627C37.6783 80.227 37.8055 80.321 37.9056 80.4377C38.0058 80.5544 38.0764 80.6907 38.112 80.8364C38.1477 80.9822 38.1476 81.1336 38.1116 81.2793L37.4311 84.1304C37.3762 84.3547 37.2398 84.5544 37.0451 84.6956C36.8503 84.8368 36.6092 84.9108 36.3627 84.905Z" fill="#294563"/>
<path d="M11.8368 55.5583C11.8368 55.5583 13.7762 72.1569 19.7648 82.6723C26.4218 80.1278 33.8841 80.1278 40.5411 82.6723C40.5411 82.6723 47.4143 73.7825 48.823 54.2438C49.6328 42.9791 48.6597 30.1143 44.665 19.0273H16.7637C13.0004 28.0569 10.3668 40.1852 11.8368 55.5583Z" fill="#D6F0F4"/>
<path d="M28.0942 1.04303C23.1995 6.36534 19.352 12.4534 16.7295 19.0259H44.6308C42.072 11.9331 38.2747 5.57051 32.8986 0.820792C32.2298 0.256048 31.348 -0.0377767 30.4471 0.00389818C29.5462 0.0455731 28.6999 0.419331 28.0942 1.04303Z" fill="#294563"/>
<path d="M29.843 54.7578C29.843 54.7578 21.2753 72.9249 29.843 94.5208C29.843 94.5208 39.3635 76.4998 29.843 54.7578Z" fill="#33B2C7"/>
<path d="M30.6398 47.9563C36.5931 47.9563 41.4192 43.4531 41.4192 37.8981C41.4192 32.3431 36.5931 27.8398 30.6398 27.8398C24.6865 27.8398 19.8604 32.3431 19.8604 37.8981C19.8604 43.4531 24.6865 47.9563 30.6398 47.9563Z" fill="#294563"/>
<path d="M37.9272 39.5004C38.8727 35.745 36.3765 31.9855 32.3518 31.1033C28.3271 30.2211 24.298 32.5503 23.3525 36.3057C22.4071 40.0611 24.9033 43.8206 28.928 44.7028C32.9526 45.5851 36.9818 43.2559 37.9272 39.5004Z" fill="#33B2C7"/>
</svg>
