<?xml version="1.0" encoding="utf-8"?>
<!-- Generator: Adobe Illustrator 27.0.0, SVG Export Plug-In . SVG Version: 6.00 Build 0)  -->
<svg version="1.1" id="Layer_1" xmlns="http://www.w3.org/2000/svg" xmlns:xlink="http://www.w3.org/1999/xlink" x="0px" y="0px"
	 width="60px" height="60px" viewBox="0 0 60 60" style="enable-background:new 0 0 60 60;" xml:space="preserve">
<style type="text/css">
	.st0{fill:#FFFFFF;}
	.st1{fill:#C86478;}
	.st2{fill:#294563;}
</style>
<g id="g2658">
	<path id="path2670" class="st0" d="M29.4,49.5l0.5,4.8h22.4l-1.7-9.6c-0.7-3.6,0.4-7.3,2.9-9.9c5.3-5.5,5.5-11.8,5.6-14.1
		C59.4,9,51.4,1.3,40.6,1c-9.9-0.3-17.1,3.9-19.4,14.2c-0.2,1-0.2,2,0,3l0.2,0.8c0.2,0.9,0,1.9-0.6,2.6l-4.6,6.1
		C15.6,28.4,16,29.7,17,30l3.4,1c0.6,0.2,0.8,1,0.3,1.4l-1.1,1.2c-0.3,0.3-0.2,0.7,0.1,1l1.5,1.3c0.4,0.3,0.4,0.9,0.1,1.3
		c-0.2,0.2-1.4,1.4-1.4,1.4c-0.4,0.3-0.3,0.9,0.1,1.1l1.6,0.9l-1.7,3.6c-0.7,2,0.9,4.1,2.9,3.9l4.4-0.5
		C28.2,47.3,29.3,48.2,29.4,49.5z"/>
	<path id="path2678" class="st1" d="M52.5,59.1c1.2,0,2.1-1.1,2-2.3l-0.2-3.6c-0.1-0.9-0.8-1.6-1.6-1.5l-23.3,1.8
		c-1.3,0.1-2.4,0.8-3.1,1.9l-2,3c-0.2,0.3,0,0.8,0.4,0.8H52.5z"/>
	<path id="path2682" class="st2" d="M6.5,26.5c0.3-0.4,0.3-1,0-1.3c-0.3-0.4-0.9-0.4-1.2,0c-7,7.5-7,19.7,0,27.1
		c0.2,0.2,0.4,0.3,0.6,0.3c0.2,0,0.4-0.1,0.6-0.3c0.3-0.4,0.3-1,0-1.3C0.2,44.2,0.2,33.2,6.5,26.5z"/>
	<path id="path2686" class="st2" d="M6.8,38.7c0-3.2,1.2-6.2,3.2-8.4c0.3-0.4,0.3-1,0-1.3c-0.3-0.4-0.9-0.4-1.2,0
		C6.3,31.6,5,35,5,38.7c0,3.7,1.3,7.2,3.8,9.8c0.2,0.2,0.4,0.3,0.6,0.3c0.2,0,0.4-0.1,0.6-0.3c0.3-0.4,0.3-1,0-1.3
		C7.9,44.9,6.8,41.9,6.8,38.7z"/>
	<path id="path2690" class="st2" d="M13.5,32.8c-0.3-0.4-0.9-0.4-1.2,0c-3.1,3.3-3.1,8.6,0,11.9c0.2,0.2,0.4,0.3,0.6,0.3
		c0.2,0,0.4-0.1,0.6-0.3c0.3-0.4,0.3-1,0-1.3c-2.4-2.6-2.4-6.7,0-9.3C13.9,33.7,13.9,33.1,13.5,32.8z"/>
	<path id="path2694" class="st2" d="M54.1,35.4c5.6-5.8,5.8-12.5,5.9-14.7c0.1-3-0.4-5.9-1.4-8.4c-0.2-0.5-0.7-0.7-1.1-0.5
		C57,11.9,56.8,12.5,57,13c0.9,2.3,1.3,4.9,1.2,7.7c0,2-0.2,8.1-5.3,13.4c-2.7,2.8-3.9,6.8-3.2,10.8l1.1,6l-15,1.1
		c-0.5,0-0.8,0.5-0.8,1c0,0.5,0.5,0.9,0.9,0.9l16.8-1.3c0.3,0,0.6,0.3,0.7,0.6l0.2,3.6c0,0.3-0.1,0.7-0.3,0.9
		c-0.2,0.3-0.5,0.4-0.8,0.4h-27l1.5-2.3c0.6-0.9,1.5-1.4,2.5-1.5l2.9-0.2c0.5,0,0.8-0.5,0.8-1c0-0.5-0.5-0.9-0.9-0.9l-1.7,0.1
		l-0.3-3c-0.1-0.9-0.5-1.7-1.1-2.2c-0.6-0.5-1.4-0.8-2.3-0.7L22.6,47c-0.6,0.1-1.3-0.2-1.7-0.7c-0.4-0.5-0.5-1.2-0.3-1.9l1.7-3.6
		c0.1-0.2,0.1-0.5,0-0.7c-0.1-0.2-0.2-0.4-0.4-0.5l-1.2-0.7c0.5-0.5,1.1-1.1,1.2-1.2c0.3-0.4,0.4-0.9,0.4-1.4c0-0.5-0.3-0.9-0.6-1.2
		L20.4,34l0.9-0.9c0.4-0.4,0.6-1.1,0.5-1.7c-0.1-0.6-0.6-1.1-1.2-1.3l-3.4-1c-0.2-0.1-0.3-0.3-0.4-0.4c0-0.1-0.1-0.3,0.1-0.5l0,0
		l4.6-6.1c0.7-0.9,1-2.2,0.7-3.4l-0.2-0.8c-0.2-0.8-0.2-1.7,0-2.5c2-9.2,8.3-13.7,18.5-13.4c6.3,0.2,11.7,3,14.8,7.8
		c0.3,0.4,0.8,0.5,1.2,0.2c0.4-0.3,0.5-0.9,0.2-1.3C53.4,3.4,47.5,0.2,40.6,0C35.3-0.1,30.9,1,27.5,3.3c-3.6,2.5-6,6.4-7.2,11.6
		c-0.2,1.1-0.2,2.3,0,3.4l0.2,0.8c0.1,0.6,0,1.3-0.4,1.8l0,0L15.6,27c-0.5,0.6-0.6,1.5-0.4,2.3c0.2,0.8,0.8,1.4,1.6,1.6l3.2,1l-1,1
		c-0.3,0.3-0.5,0.8-0.4,1.3c0,0.5,0.3,0.9,0.6,1.1l1.4,1.2c-0.2,0.2-0.7,0.8-1.2,1.3c-0.4,0.3-0.6,0.9-0.5,1.4
		c0.1,0.6,0.4,1,0.8,1.3l0.8,0.4L19,43.6c0,0,0,0.1,0,0.1c-0.4,1.3-0.2,2.7,0.6,3.7c0.8,1.1,2,1.6,3.2,1.4l4.4-0.5
		c0.3,0,0.7,0.1,1,0.3c0.3,0.2,0.4,0.6,0.5,0.9l0.3,3c-1.3,0.2-2.5,1-3.3,2.2l-2,3c-0.3,0.4-0.3,1-0.1,1.5c0.2,0.5,0.7,0.8,1.2,0.8
		h27.9c0.8,0,1.6-0.3,2.1-1c0.6-0.6,0.8-1.5,0.8-2.3l-0.2-3.6c0,0,0,0,0,0c-0.1-1.4-1.2-2.5-2.6-2.4l-0.1,0l-1.1-6.3
		C50.9,41.1,51.9,37.8,54.1,35.4z"/>
</g>
</svg>
