<svg width="985" height="625" viewBox="0 0 985 625" fill="none" xmlns="http://www.w3.org/2000/svg">
<g opacity="0.6">
<path d="M52.5865 291.119C51.9976 325.714 0.5856 325.709 0 291.119C0.590563 256.513 52.0026 256.523 52.5865 291.119Z" fill="#FBCB9C"/>
<mask id="mask0_1642_13492" style="mask-type:luminance" maskUnits="userSpaceOnUse" x="0" y="265" width="53" height="53">
<path d="M52.5865 291.119C51.9976 325.714 0.5856 325.709 0 291.119C0.590563 256.513 52.0026 256.523 52.5865 291.119Z" fill="white"/>
</mask>
<g mask="url(#mask0_1642_13492)">
<path d="M46.793 270.164C60.9202 302.514 22.9174 328.245 -1.20801 304.035C-1.20801 304.035 13.1524 323.521 29.6898 321.7C46.2273 319.878 56.9782 311.321 57.7077 304.216C58.4372 297.111 53.3388 273.441 46.793 270.164Z" fill="#BB7F44"/>
</g>
<path d="M33.0552 283.273H15.2788C13.5877 283.273 12.2168 284.646 12.2168 286.338V296.772C12.2168 298.464 13.5877 299.837 15.2788 299.837H33.0552C34.7463 299.837 36.1172 298.464 36.1172 296.772V286.338C36.1172 284.646 34.7463 283.273 33.0552 283.273Z" fill="#294563"/>
<path d="M37.2617 287.355V294.548L43.7827 298.624V284.305L37.2617 287.355Z" fill="#294563"/>
<path d="M14.8225 272.47C14.6786 280.924 2.11297 280.915 1.9707 272.47C2.11462 264.015 14.6786 264.015 14.8225 272.47Z" fill="#294563"/>
</g>
<path d="M220.562 91.6155C221.831 86.2403 218.502 80.8545 213.127 79.5858C207.751 78.3172 202.366 81.6461 201.097 87.0213C199.828 92.3965 203.157 97.7824 208.532 99.051C213.908 100.32 219.293 96.9907 220.562 91.6155Z" fill="#E1FFFE"/>
<path d="M75.5628 208.116C77.3408 202.887 74.5433 197.207 69.3145 195.429C64.0857 193.651 58.4056 196.448 56.6276 201.677C54.8496 206.906 57.647 212.586 62.8758 214.364C68.1046 216.142 73.7848 213.344 75.5628 208.116Z" fill="#E1FFFE"/>
<path d="M710.686 598.246C711.876 592.853 708.47 587.516 703.077 586.325C697.684 585.135 692.347 588.541 691.156 593.934C689.965 599.327 693.372 604.664 698.765 605.855C704.158 607.046 709.495 603.639 710.686 598.246Z" fill="#E1FFFE"/>
<path d="M923.061 21.7859C926.966 17.8807 926.966 11.549 923.061 7.64378C919.156 3.73853 912.824 3.73854 908.919 7.64378C905.013 11.549 905.013 17.8807 908.919 21.7859C912.824 25.6912 919.156 25.6912 923.061 21.7859Z" fill="#E1FFFE"/>
<path d="M130.213 617.384C134.118 613.478 134.118 607.147 130.213 603.241C126.308 599.336 119.976 599.336 116.071 603.241C112.166 607.147 112.166 613.478 116.071 617.384C119.976 621.289 126.308 621.289 130.213 617.384Z" fill="#E1FFFE"/>
<path d="M969.485 314.617C978.037 311.075 982.098 301.271 978.556 292.719C975.013 284.167 965.209 280.106 956.657 283.649C948.105 287.191 944.044 296.995 947.587 305.547C951.129 314.099 960.933 318.16 969.485 314.617Z" fill="#E1FFFE"/>
<g opacity="0.5">
<path d="M594.682 208.865C594.627 211.024 593.937 213.119 592.699 214.889C591.593 216.563 590.168 218.003 588.505 219.126C586.842 220.248 584.974 221.032 583.008 221.431C581.041 221.831 579.016 221.839 577.046 221.454C575.077 221.07 573.203 220.301 571.531 219.191C571.295 219.042 571.071 218.886 570.848 218.718C572.284 217.612 573.732 216.449 575.199 215.349C576.939 216.123 578.836 216.475 580.738 216.377C582.639 216.278 584.49 215.732 586.14 214.783C588.005 213.689 589.703 211.632 589.143 209.53C588.708 207.902 587.005 206.863 585.326 206.677C583.648 206.49 581.093 207.205 579.476 207.684C580.098 206.267 580.95 204.52 581.553 203.096C584.835 202.108 588.664 201.194 591.549 202.91C591.722 203.013 591.89 203.125 592.052 203.245C592.889 203.92 593.561 204.777 594.017 205.751C594.473 206.725 594.7 207.79 594.682 208.865Z" fill="#FFBB59"/>
<path d="M594.682 208.866C594.626 211.025 593.937 213.12 592.699 214.89C591.593 216.564 590.168 218.003 588.505 219.126C586.842 220.249 584.974 221.032 583.007 221.432C581.041 221.831 579.015 221.839 577.046 221.455C575.077 221.07 573.203 220.301 571.531 219.191C571.841 218.622 572.24 218.106 572.712 217.662C576.405 218.843 580.471 219.117 584.139 217.88C587.806 216.643 591.014 213.758 592.139 210.053C592.832 207.678 592.61 205.13 591.518 202.91C591.691 203.013 591.859 203.125 592.021 203.246C592.864 203.918 593.541 204.773 594.003 205.747C594.464 206.721 594.696 207.788 594.682 208.866Z" fill="#E6A530"/>
<path d="M557.755 191.517C557.538 191.908 557.314 192.337 557.084 192.76C556.531 193.836 555.959 194.998 555.43 195.955C554.809 194.389 553.795 191.94 552.608 190.733C551.421 189.527 549.556 188.831 548.001 189.49C546.006 190.348 545.434 192.953 545.732 195.085C546.007 196.969 546.722 198.761 547.821 200.316C548.92 201.87 550.371 203.143 552.055 204.031C552.055 205.274 552.055 206.517 552.055 207.761C552.055 208.345 552.055 208.923 552.055 209.501C550.061 208.954 548.2 208.007 546.584 206.718C544.967 205.429 543.629 203.826 542.651 202.005C541.673 200.183 541.074 198.183 540.892 196.123C540.71 194.064 540.948 191.989 541.592 190.025C542.215 187.955 543.438 186.116 545.105 184.741C545.941 184.063 546.922 183.586 547.971 183.346C549.021 183.106 550.111 183.109 551.16 183.354C554.647 184.293 556.431 188.129 557.755 191.517Z" fill="#FFBB59"/>
<path d="M557.083 192.785C556.53 193.86 555.958 195.022 555.43 195.98C554.808 194.413 553.795 191.964 552.607 190.758C551.42 189.552 549.555 188.856 548.001 189.515C546.005 190.372 545.433 192.977 545.732 195.11C546.006 196.993 546.722 198.786 547.82 200.34C548.919 201.895 550.37 203.168 552.054 204.055C552.054 205.299 552.054 206.542 552.054 207.785C548.285 205.03 545.386 201.253 543.699 196.9C542.953 194.954 542.456 192.741 543.289 190.826C544.258 188.576 546.919 187.357 549.362 187.606C550.975 187.769 552.523 188.327 553.87 189.23C555.216 190.133 556.32 191.354 557.083 192.785Z" fill="#E6A530"/>
<path d="M564.717 211.637L549.319 243.342C555.536 246.898 559.042 252.275 557.295 255.868L554.466 254.494L531.26 243.224C533.007 239.624 539.41 239.077 546.037 241.75L561.678 209.555L563.586 210.481L564.494 210.922L564.96 211.146L564.717 211.637Z" fill="#FFBB59"/>
<path d="M557.295 255.857L554.467 254.483C554.044 249.64 551.458 244.505 547.007 244.505L563.58 210.469L564.034 209.543C564.19 209.997 564.339 210.451 564.488 210.911L564.712 211.638L549.313 243.343C555.524 246.886 559.042 252.263 557.295 255.857Z" fill="#E6A530"/>
<path d="M586.613 199.71C577.288 220.001 569.554 226.131 558.75 221.319L558.128 221.014C557.917 220.909 557.706 220.815 557.507 220.704C554.175 218.944 551.912 216.75 550.7 213.927C548.107 207.891 550.333 199.008 557.271 185.449L571.32 192.287L572.563 192.909L580.241 196.639L586.613 199.71Z" fill="#FFBB59"/>
<path d="M586.612 199.709C577.288 220 569.554 226.13 558.75 221.318L558.128 221.013C557.917 220.908 557.705 220.814 557.506 220.703C554.174 218.943 551.911 216.749 550.699 213.927C553.808 216.792 558.625 217.88 562.846 216.904C568.211 215.661 572.606 211.682 575.547 207.032C577.522 203.757 579.104 200.26 580.259 196.613L586.612 199.709Z" fill="#E6A530"/>
<path d="M561.484 191.132C557.399 197.143 554.449 203.852 552.781 210.926C552.217 207.18 552.414 203.36 553.359 199.692C554.304 196.024 555.979 192.584 558.283 189.578C559.424 189.926 560.505 190.451 561.484 191.132Z" fill="#F8F185"/>
</g>
<g opacity="0.5">
<path d="M131.432 110.023C127.005 110.26 122.576 109.615 118.401 108.125C114.226 106.634 110.388 104.329 107.112 101.343L105.93 100.254C102.307 96.9312 104.237 91.4941 109.146 91.2119C113.572 90.9748 118.001 91.6206 122.176 93.1115C126.35 94.6024 130.186 96.9087 133.461 99.8961L134.648 100.984C138.271 104.308 136.336 109.749 131.432 110.023Z" fill="#09556D"/>
<path d="M109.469 79.6939L104.057 94.6562L136.107 106.249L141.519 91.2867L109.469 79.6939Z" fill="#09556D"/>
<g style="mix-blend-mode:multiply" opacity="0.6">
<path d="M141.741 91.4795L139.076 98.8201C137.618 99.6964 136.033 100.343 134.378 100.737C129.9 101.751 125.222 101.405 120.942 99.7427C116.356 97.9054 112.282 94.9858 109.069 91.2331C108.219 90.2643 107.419 89.2523 106.673 88.201L109.683 79.8438L141.741 91.4795Z" fill="#173E6D"/>
</g>
<path d="M151.957 95.0962L126.106 96.5159C125.047 96.5697 123.987 96.4137 122.988 96.0571C121.989 95.7005 121.07 95.1502 120.284 94.4378L99.7042 75.6272C99.5182 75.4797 99.383 75.2777 99.3176 75.0496C99.2521 74.8214 99.2596 74.5785 99.3391 74.3549C99.4186 74.1312 99.5661 73.938 99.7608 73.8023C99.9556 73.6667 100.188 73.5953 100.425 73.5983L126.276 72.1786C127.336 72.1242 128.395 72.2794 129.394 72.6353C130.393 72.9911 131.312 73.5406 132.099 74.2522L152.674 93.0628C152.859 93.2109 152.993 93.4127 153.058 93.6404C153.123 93.8681 153.116 94.1104 153.037 94.3337C152.958 94.557 152.812 94.7504 152.619 94.887C152.425 95.0236 152.194 95.0967 151.957 95.0962Z" fill="#09556D"/>
<path d="M126.196 82.8906L151.304 94.7637L151.537 108.267" stroke="#FFBB4D" stroke-width="3" stroke-miterlimit="10"/>
<path d="M150.264 112.352C150.811 112.889 151.451 112.979 152.217 113.248C152.823 112.508 153.291 111.666 153.601 110.762C153.747 110.33 153.791 109.87 153.729 109.419C153.667 108.967 153.5 108.536 153.243 108.16C153.013 107.867 152.719 107.631 152.383 107.47C152.054 107.306 151.697 107.209 151.33 107.184C150.3 107.914 149.422 108.975 149.337 110.126C149.333 110.211 149.333 110.296 149.337 110.381C149.386 111.132 149.717 111.836 150.264 112.352Z" fill="#FFBB59"/>
<g style="mix-blend-mode:multiply" opacity="0.25">
<path d="M150.264 112.354C150.811 112.892 151.451 112.981 152.217 113.25C152.823 112.511 153.291 111.669 153.601 110.765C153.747 110.333 153.791 109.873 153.729 109.421C153.667 108.97 153.5 108.539 153.243 108.162C153.013 107.869 152.719 107.633 152.383 107.473C152.527 108.21 152.573 108.963 152.517 109.712C152.497 110.108 152.378 110.493 152.172 110.832C151.411 112.019 150.067 111.472 149.543 110.572C149.46 110.43 149.391 110.28 149.337 110.124C149.333 110.209 149.333 110.294 149.337 110.379C149.385 111.131 149.716 111.837 150.264 112.354Z" fill="#6B2618"/>
</g>
</g>
</svg>
