<svg width="64" height="61" viewBox="0 0 64 61" fill="none" xmlns="http://www.w3.org/2000/svg">
<g id="Group">
<g id="Group_2">
<g id="Group_3">
<path id="Vector" d="M60.5678 18.2193C60.5678 15.3497 58.2415 13.0234 55.3719 13.0234H8.62754C5.75794 13.0234 3.43164 15.3497 3.43164 18.2193V56.3185H60.5679V18.2193H60.5678Z" fill="white"/>
</g>
<path id="Vector_2" d="M37.8187 52.685L37.5371 53.0988C37.101 53.7397 36.3758 54.1234 35.6005 54.1234H28.2734C27.4981 54.1234 26.773 53.7398 26.3368 53.0988L26.0552 52.6851C25.8699 52.4129 25.562 52.25 25.2328 52.25H1.718C1.28749 52.25 0.938477 52.599 0.938477 53.0295V54.2049C0.938477 57.2261 3.38771 59.6753 6.40891 59.6753H57.5903C60.6116 59.6753 63.0607 57.2261 63.0607 54.2049V53.0295C63.0607 52.599 62.7117 52.25 62.2812 52.25H38.6413C38.3119 52.2499 38.0039 52.4127 37.8187 52.685Z" fill="white"/>
<g id="Group_4">
<path id="Vector_3" d="M55.3718 17.0312C56.0291 17.0312 56.5618 17.564 56.5618 18.2213V47.4914C56.5618 47.908 56.2241 48.2457 55.8075 48.2457H8.19186C7.77525 48.2457 7.4375 47.908 7.4375 47.4914V18.2213C7.4375 17.564 7.97028 17.0312 8.6275 17.0312H55.3718Z" fill="white"/>
</g>
<g id="Group_5">
<path id="Vector_4" d="M41.4864 21.9815H21.5723C19.8366 21.9815 18.4297 20.5744 18.4297 18.8389V4.71294C18.4297 2.97726 19.8368 1.57031 21.5723 1.57031H41.4864C43.2221 1.57031 44.629 2.97738 44.629 4.71294V18.8387C44.629 20.5744 43.222 21.9815 41.4864 21.9815Z" fill="white"/>
<path id="Vector_5" d="M27.5391 15.1703V8.38427C27.5391 7.23721 28.7851 6.52403 29.7742 7.10514L35.5491 10.4981C36.5252 11.0716 36.5252 12.4829 35.5491 13.0564L29.7742 16.4494C28.7853 17.0305 27.5391 16.3173 27.5391 15.1703Z" fill="#33B2C7"/>
<g id="XMLID_249_">
<g id="Group_6">
<path id="Vector_6" d="M41.0638 43.4882V48.244H22.9346V43.4882C22.9346 41.7196 23.6394 40.0234 24.895 38.7737L26.6826 36.9925L29.7408 33.9805H34.5191L37.3157 36.9925L39.1034 38.7737C40.359 40.0234 41.0638 41.7196 41.0638 43.4882Z" fill="white"/>
</g>
</g>
<path id="Vector_7" d="M31.9996 39.5382C35.7812 39.5382 38.8468 36.4726 38.8468 32.691C38.8468 28.9094 35.7812 25.8438 31.9996 25.8438C28.2179 25.8438 25.1523 28.9094 25.1523 32.691C25.1523 36.4726 28.2179 39.5382 31.9996 39.5382Z" fill="#33B2C7"/>
</g>
</g>
<g id="Group_7">
<path id="Vector_8" d="M63.0611 51.3669H61.507V18.2753C61.507 14.8927 58.7549 12.1406 55.3722 12.1406H48.3851C47.8665 12.1406 47.4462 12.5609 47.4462 13.0795C47.4462 13.5981 47.8665 14.0184 48.3851 14.0184H55.3722C57.7195 14.0184 59.6292 15.9281 59.6292 18.2753V51.3669H38.6417C38.001 51.3669 37.4032 51.683 37.0429 52.2126L36.7614 52.6264C36.4998 53.0108 36.066 53.2403 35.6009 53.2403H28.2738C27.8087 53.2403 27.3749 53.0108 27.1133 52.6264L26.8319 52.2128C26.4716 51.6832 25.874 51.3669 25.2332 51.3669H4.37081V18.2753C4.37081 15.9281 6.2805 14.0184 8.62783 14.0184H14.6747C15.1934 14.0184 15.6136 13.5981 15.6136 13.0795C15.6136 12.5609 15.1934 12.1406 14.6747 12.1406H8.62783C5.24522 12.1406 2.49305 14.8926 2.49305 18.2753V51.3669H0.938883C0.420244 51.3669 0 51.7871 0 52.3058V54.2605C0 57.7946 2.87523 60.6698 6.40931 60.6698H57.5907C61.1248 60.6698 64 57.7946 64 54.2605V52.3058C64 51.7871 63.5798 51.3669 63.0611 51.3669ZM62.1222 54.2605C62.1222 56.7592 60.0894 58.7921 57.5907 58.7921H6.40931C3.91063 58.7921 1.87777 56.7592 1.87777 54.2605V53.2447H25.2332C25.2517 53.2447 25.269 53.2537 25.2795 53.2691L25.561 53.6828C26.1727 54.5815 27.1867 55.118 28.2738 55.118H35.6009C36.688 55.118 37.702 54.5815 38.3137 53.6828L38.5952 53.2691L38.5953 53.2689C38.6057 53.2537 38.623 53.2447 38.6415 53.2447H62.1221V54.2605H62.1222Z" fill="#294563"/>
<path id="Vector_9" d="M6.49902 48.298C6.49902 48.8166 6.91927 49.2369 7.43791 49.2369H56.5622C57.0809 49.2369 57.5011 48.8166 57.5011 48.298V18.2734C57.5011 17.0996 56.5461 16.1445 55.3722 16.1445H48.3852C47.8666 16.1445 47.4463 16.5648 47.4463 17.0834C47.4463 17.6021 47.8666 18.0223 48.3852 18.0223H55.3722C55.5107 18.0223 55.6234 18.1348 55.6234 18.2734V47.3591H42.0038V43.5257C42.0038 41.4871 41.2099 39.5705 39.7684 38.1289L38.546 36.9065C38.9796 36.234 39.3155 35.4875 39.5279 34.6827C39.6602 34.1813 39.361 33.6677 38.8597 33.5353C38.3581 33.4033 37.8448 33.7021 37.7122 34.2035C37.4947 35.0277 37.1076 35.7723 36.5952 36.405C36.5915 36.4095 36.5877 36.4139 36.5841 36.4183C35.4875 37.7645 33.8205 38.5991 32.0001 38.5991C28.7423 38.5991 26.0918 35.9486 26.0918 32.6908C26.0918 29.433 28.7423 26.7824 32.0001 26.7824C34.514 26.7824 36.757 28.3779 37.5815 30.7527C37.7515 31.2424 38.2858 31.5018 38.7764 31.3316C39.2663 31.1616 39.5254 30.6266 39.3554 30.1368C38.2688 27.0073 35.313 24.9047 32.0001 24.9047C27.7068 24.9047 24.214 28.3975 24.214 32.6908C24.214 34.2423 24.6719 35.6881 25.4572 36.9035L24.2318 38.1289C22.7901 39.5707 21.9963 41.4871 21.9963 43.5257V47.3591H8.37679V43.9194C8.37679 43.4008 7.95654 42.9806 7.43791 42.9806C6.91927 42.9806 6.49902 43.4008 6.49902 43.9194V48.298ZM23.8741 43.5256C23.8741 41.9886 24.4727 40.5436 25.5597 39.4566L26.6637 38.3526C28.0585 39.668 29.9362 40.4767 32.0001 40.4767C34.0381 40.4767 35.9297 39.6822 37.3393 38.3554L38.4406 39.4565C39.5275 40.5435 40.1262 41.9885 40.1262 43.5255V47.3589H23.8741V43.5256Z" fill="#294563"/>
<path id="Vector_10" d="M7.43791 40.8537C7.95655 40.8537 8.37679 40.4334 8.37679 39.9148V18.2734C8.37679 18.135 8.48933 18.0223 8.62778 18.0223H14.6748C15.1935 18.0223 15.6137 17.6021 15.6137 17.0834C15.6137 16.5648 15.1935 16.1445 14.6748 16.1445H8.62778C7.45393 16.1445 6.49902 17.0996 6.49902 18.2734V39.9148C6.49902 40.4333 6.91927 40.8537 7.43791 40.8537Z" fill="#294563"/>
<path id="Vector_11" d="M21.5727 22.9218H41.4867C43.7374 22.9218 45.5682 21.0908 45.5682 18.8403V4.71445C45.5682 2.46376 43.7372 0.632812 41.4867 0.632812H21.5727C19.322 0.632812 17.4912 2.46388 17.4912 4.71445V6.68072C17.4912 7.19936 17.9115 7.6196 18.4301 7.6196C18.9487 7.6196 19.369 7.19936 19.369 6.68072V4.71445C19.369 3.49916 20.3576 2.51058 21.5727 2.51058H41.4867C42.7018 2.51058 43.6904 3.49916 43.6904 4.71445V18.8403C43.6904 20.0554 42.7018 21.044 41.4867 21.044H21.5727C20.3576 21.044 19.369 20.0554 19.369 18.8403V10.6852C19.369 10.1666 18.9487 9.74636 18.4301 9.74636C17.9115 9.74636 17.4912 10.1666 17.4912 10.6852V18.8403C17.4912 21.0908 19.3222 22.9218 21.5727 22.9218Z" fill="#294563"/>
<path id="Vector_12" d="M29.0234 17.5962C29.4451 17.5962 29.8668 17.4835 30.2502 17.2583L36.0251 13.8653C36.7736 13.4254 37.2204 12.6446 37.2204 11.7765C37.2204 10.9083 36.7734 10.1276 36.0251 9.68791L30.2501 6.29491C29.4918 5.84938 28.5831 5.84412 27.8198 6.28114C27.0563 6.71803 26.6006 7.50407 26.6006 8.38361V15.1696C26.6006 16.0492 27.0564 16.8353 27.8198 17.2722C28.1973 17.4881 28.6104 17.5962 29.0234 17.5962ZM28.4782 8.38349C28.4782 8.09844 28.6699 7.95798 28.7523 7.91079C28.802 7.88237 28.901 7.83681 29.0259 7.83681C29.1079 7.83681 29.2012 7.85659 29.2988 7.91392L35.0738 11.3069C35.3164 11.4494 35.3425 11.6827 35.3425 11.7764C35.3425 11.8701 35.3163 12.1035 35.0737 12.246L29.2989 15.639C29.0529 15.7835 28.8349 15.6892 28.7525 15.6422C28.67 15.595 28.4784 15.4544 28.4784 15.1694V8.38349H28.4782Z" fill="#294563"/>
</g>
</g>
</svg>
