<svg width="65" height="65" viewBox="0 0 65 65" fill="none" xmlns="http://www.w3.org/2000/svg">
<g id="Group">
<g id="Group_2">
<path id="Vector" d="M62.2888 63.7139C62.9487 63.7139 63.4607 63.1383 63.3891 62.4804C62.7886 56.9648 58.2087 52.6758 52.6481 52.6758C47.0875 52.6758 42.5076 56.9648 41.9071 62.4804C41.8355 63.1383 42.3475 63.7139 43.0073 63.7139H62.2888Z" fill="#FEEEDE"/>
<g id="Group_3">
<path id="Vector_2" d="M52.6501 43.353C55.1639 43.353 57.2016 41.3152 57.2016 38.8015C57.2016 36.2878 55.1639 34.25 52.6501 34.25C50.1364 34.25 48.0986 36.2878 48.0986 38.8015C48.0986 41.3152 50.1364 43.353 52.6501 43.353Z" fill="#FAA859"/>
<g id="Group_4">
<g id="Group_5">
<path id="Vector_3" d="M21.659 63.7139C22.3188 63.7139 22.8308 63.1383 22.7592 62.4804C22.1587 56.9648 17.579 52.6758 12.0182 52.6758C6.45745 52.6758 1.8777 56.9648 1.2772 62.4804C1.20558 63.1383 1.71758 63.7139 2.37745 63.7139H21.659Z" fill="#FEEEDE"/>
<path id="Vector_4" d="M12.0185 36.3672C7.48698 36.3672 3.81348 40.1189 3.81348 44.7469V56.5298C5.54173 54.4728 7.99873 53.0737 10.7757 52.7488C11.1237 52.7011 11.4774 52.6758 11.8349 52.6758C12.554 52.7119 13.2719 52.7927 13.9895 52.8596V56.5319C13.9895 58.2883 15.3836 59.7122 17.1034 59.7122C18.8231 59.7122 20.2172 58.2883 20.2172 56.5319V45.0732C20.395 40.2966 16.656 36.3672 12.0185 36.3672Z" fill="#FAA859"/>
<path id="Vector_5" d="M12.0179 57.8492C10.9293 57.8492 10.0469 56.9479 10.0469 55.8362V53.6263C10.0469 52.5145 10.9294 51.6133 12.0179 51.6133C13.0811 51.6363 13.9889 52.5182 13.9889 53.6263V55.8362C13.989 56.9478 13.1065 57.8492 12.0179 57.8492Z" fill="white"/>
<path id="Vector_6" d="M12.0182 54.6311C9.07568 54.6311 6.69043 52.1949 6.69043 49.1897V47.9762C6.69043 47.176 7.22293 46.4664 7.98693 46.2893C9.9028 45.8451 11.2772 44.4132 11.7953 42.5019C12.0594 41.5273 13.1068 41.0104 14.0241 41.3914C15.9724 42.2007 17.3461 44.1534 17.3461 46.4339V49.1898C17.3459 52.1949 14.9606 54.6311 12.0182 54.6311Z" fill="white"/>
</g>
<g id="Group_6">
<path id="Vector_7" d="M34.1478 51.5298C37.7136 51.5298 40.6044 48.6391 40.6044 45.0732C40.6624 43.5131 40.6538 40.8223 40.6364 38.8441C40.6244 37.4721 39.5085 36.3672 38.1365 36.3672H32.4056C27.688 36.3672 24.1175 40.4768 24.2006 45.0733C24.2006 48.6392 27.0914 51.5299 30.6573 51.5299H34.1478V51.5298Z" fill="#FAA859"/>
<path id="Vector_8" d="M42.0466 63.7139C42.7065 63.7139 43.2185 63.1383 43.1469 62.4804C42.5464 56.9648 37.9666 52.6758 32.4059 52.6758C26.8451 52.6758 22.2654 56.9648 21.6649 62.4804C21.5933 63.1383 22.1053 63.7139 22.7652 63.7139H42.0466Z" fill="#FEEEDE"/>
<path id="Vector_9" d="M32.4056 57.8492C31.3169 57.8492 30.4346 56.9479 30.4346 55.8362V53.6263C30.4346 52.5145 31.3171 51.6133 32.4056 51.6133C33.4688 51.6363 34.3766 52.5182 34.3766 53.6263V55.8362C34.3767 56.9478 33.4942 57.8492 32.4056 57.8492Z" fill="white"/>
<path id="Vector_10" d="M32.4059 54.6311C29.4634 54.6311 27.0781 52.1949 27.0781 49.1897V47.9762C27.0781 47.176 27.6106 46.4664 28.3746 46.2893C30.2905 45.8451 31.6649 44.4132 32.183 42.5019C32.4471 41.5273 33.4945 41.0104 34.4118 41.3914C36.3601 42.2007 37.7337 44.1534 37.7337 46.4339V49.1898C37.7337 52.1949 35.3484 54.6311 32.4059 54.6311Z" fill="white"/>
</g>
<g id="Group_7">
<path id="Vector_11" d="M54.3901 52.7798C57.956 52.7798 60.8467 49.8891 60.8467 46.3232C60.8496 46.2444 60.8523 46.1629 60.855 46.0787C60.9976 41.4483 57.2803 37.6172 52.6478 37.6172C47.9302 37.6172 44.3597 41.7268 44.4428 46.3233C44.4428 49.8892 47.3336 52.7799 50.8995 52.7799H54.3901V52.7798Z" fill="#FAA859"/>
<path id="Vector_12" d="M52.6478 57.8492C51.5591 57.8492 50.6768 56.9479 50.6768 55.8362V53.6263C50.6768 52.5145 51.5593 51.6133 52.6478 51.6133C53.711 51.6363 54.6188 52.5182 54.6188 53.6263V55.8362C54.6188 56.9478 53.7363 57.8492 52.6478 57.8492Z" fill="white"/>
<path id="Vector_13" d="M52.6481 54.6311C49.7056 54.6311 47.3203 52.1949 47.3203 49.1897V47.9762C47.3203 47.176 47.8528 46.4664 48.6168 46.2893C50.5327 45.8451 51.9071 44.4132 52.4252 42.5019C52.6893 41.5273 53.7367 41.0104 54.6539 41.3914C56.6023 42.2007 57.9759 44.1534 57.9759 46.4339V49.1898C57.9758 52.1949 55.5904 54.6311 52.6481 54.6311Z" fill="white"/>
</g>
</g>
</g>
</g>
<g id="Group_8">
<path id="Vector_14" d="M11.239 30.2997V27.2973C4.96588 26.1021 0.333008 20.568 0.333008 14.0982C0.333008 6.68034 6.36101 0.652344 13.7703 0.652344H47.441H50.8958C58.305 0.652344 64.333 6.68034 64.333 14.0896C64.333 20.5676 59.7001 26.1021 53.427 27.2973V30.2997C53.427 30.934 53.0484 31.5007 52.4624 31.7433C51.8764 31.986 51.2081 31.853 50.7596 31.4047L46.8905 27.5355H35.7339L33.6861 31.0823C33.4036 31.5716 32.8978 31.8636 32.333 31.8636C31.7683 31.8636 31.2624 31.5716 30.9799 31.0825L28.9321 27.5355H17.7755L13.9064 31.4047C13.4579 31.8531 12.7896 31.9861 12.2036 31.7433C11.6176 31.5006 11.239 30.934 11.239 30.2997Z" fill="white"/>
<path id="Vector_15" d="M11.239 27.2973V30.2997C11.239 30.934 11.6176 31.5006 12.2036 31.7433C12.7896 31.9861 13.4579 31.8531 13.9064 31.4047L17.7755 27.5355H28.9321L30.9799 31.0825C31.2624 31.5716 31.7683 31.8636 32.333 31.8636C32.8978 31.8636 33.4036 31.5716 33.6861 31.0823L35.7339 27.5355H46.8905L50.7596 31.4047C51.2081 31.853 51.8764 31.986 52.4624 31.7433C53.0484 31.5007 53.427 30.934 53.427 30.2997V27.2973C59.7001 26.1021 64.333 20.5676 64.333 14.0896C64.333 6.68034 58.305 0.652344 50.8958 0.652344H47.441C46.9231 0.652344 46.5035 1.07197 46.5035 1.58984C46.5035 2.10772 46.9231 2.52734 47.441 2.52734H50.8958C57.2713 2.52734 62.458 7.71409 62.458 14.0982C62.458 19.9048 58.1216 24.8355 52.3711 25.5672C51.903 25.627 51.552 26.0252 51.552 26.4972V29.5452L47.9418 25.9348C47.7659 25.7591 47.5275 25.6603 47.2788 25.6603H35.1926C34.8576 25.6603 34.5483 25.8391 34.3808 26.1291L32.333 29.676L30.2853 26.1291C30.1178 25.8391 29.8084 25.6603 29.4734 25.6603H17.3873C17.1386 25.6603 16.9003 25.7591 16.7243 25.9348L13.114 29.5452V26.4973C13.114 26.0253 12.763 25.627 12.2949 25.5673C6.54438 24.8356 2.20801 19.905 2.20801 14.0896C2.20801 7.71409 7.39476 2.52734 13.7703 2.52734H43.7108C44.2286 2.52734 44.6483 2.10772 44.6483 1.58984C44.6483 1.07197 44.2286 0.652344 43.7108 0.652344H13.7703C6.36101 0.652344 0.333008 6.68034 0.333008 14.0982C0.333008 20.568 4.96588 26.1021 11.239 27.2973Z" fill="#294563"/>
<path id="Vector_16" d="M19.0952 8.50128C18.9121 8.05653 18.4832 7.76953 18.0026 7.76953C18.0021 7.76953 18.0014 7.76953 18.0009 7.76953C17.5196 7.77016 17.0909 8.05841 16.9088 8.50403C16.9059 8.51116 16.9032 8.51816 16.9004 8.52528L12.8574 19.1477C12.6733 19.6315 12.9163 20.1732 13.4002 20.3574C13.8501 20.5285 14.4368 20.2692 14.6099 19.8147L15.3869 17.7732H20.5884L21.3573 19.812C21.5401 20.2965 22.0813 20.5408 22.5653 20.3584C23.0498 20.1757 23.2944 19.6349 23.1117 19.1504L19.1054 8.52741C19.1021 8.51866 19.0987 8.50991 19.0952 8.50128ZM16.1004 15.898L17.9994 10.9085L19.8812 15.898H16.1004Z" fill="#294563"/>
<path id="Vector_17" d="M40.6084 9.54203C40.0905 9.54203 39.6709 9.96166 39.6709 10.4795C39.6709 10.9974 40.0905 11.417 40.6084 11.417H42.1007C42.3549 12.4278 42.9835 14.2175 44.4873 16.0743C43.4733 17.0305 42.1481 17.961 40.4165 18.7314C39.9435 18.9419 39.7306 19.4959 39.941 19.969C40.1401 20.4164 40.7354 20.6414 41.1786 20.4445C43.1207 19.5805 44.617 18.5353 45.7706 17.4524C46.9243 18.5352 48.4206 19.5805 50.3626 20.4445C50.8059 20.6415 51.4013 20.4164 51.6003 19.969C51.8108 19.4959 51.5978 18.9418 51.1248 18.7314C49.3897 17.9594 48.063 17.0323 47.049 16.0805C48.5564 14.2214 49.1861 12.4288 49.4406 11.417H50.9329C51.4508 11.417 51.8704 10.9974 51.8704 10.4795C51.8704 9.96166 51.4508 9.54203 50.9329 9.54203H46.5483V8.59766C46.5483 8.07978 46.1287 7.66016 45.6108 7.66016C45.0929 7.66016 44.6733 8.07978 44.6733 8.59766V9.54203H40.6084ZM45.7634 14.6677C44.7936 13.41 44.2958 12.224 44.0446 11.417H47.4904C47.2354 12.2224 46.7325 13.4099 45.7634 14.6677Z" fill="#294563"/>
<path id="Vector_18" d="M31.3955 10.3281V17.8621C31.3955 18.38 31.8151 18.7996 32.333 18.7996C32.8509 18.7996 33.2705 18.38 33.2705 17.8621V10.3281C33.2705 9.81025 32.8509 9.39062 32.333 9.39062C31.8151 9.39062 31.3955 9.81037 31.3955 10.3281Z" fill="#294563"/>
<path id="Vector_19" d="M57.7328 52.9184C60.3386 51.5942 61.705 48.9488 61.7916 46.1073C61.8826 43.1543 60.4879 40.2771 58.1303 38.5029C57.9747 35.6146 55.5761 33.3125 52.6497 33.3125C49.6956 33.3125 47.2802 35.6587 47.1662 38.5854C44.8222 40.4264 43.4538 43.3555 43.505 46.3316C43.5082 49.1117 45.088 51.6658 47.5548 52.9188C45.4442 53.9511 43.697 55.5942 42.5186 57.6436C41.3442 55.6195 39.5972 53.9543 37.4858 52.916C37.8655 52.381 38.1658 51.7844 38.3688 51.1432C40.353 49.7616 41.5357 47.5111 41.5415 45.0907C41.5993 43.5129 41.5908 40.8201 41.5735 38.8355C41.5568 36.9574 40.0148 35.4294 38.1361 35.4294H32.4051C27.2418 35.4294 23.1756 40.0125 23.2626 45.0816C23.2652 47.5256 24.4475 49.7662 26.4432 51.149C26.6462 51.7877 26.9457 52.3824 27.3241 52.9157C25.7105 53.7061 24.2883 54.8652 23.171 56.3125C22.8152 56.7734 22.4957 57.2584 22.2122 57.7625C21.9031 57.213 21.5487 56.6895 21.1543 56.1922V45.0899C21.3356 39.9606 17.2143 35.4295 12.018 35.4295C6.97683 35.4295 2.87545 39.6093 2.87545 44.7469V56.2059C1.49758 57.9498 0.594829 60.0824 0.344829 62.3788C0.214829 63.5724 1.1742 64.6512 2.37695 64.6512H6.68995C7.20783 64.6512 7.62745 64.2316 7.62745 63.7137C7.62745 63.1959 7.20783 62.7762 6.68995 62.7762H2.37695C2.2637 62.7624 2.20758 62.6976 2.2087 62.5818C2.60945 58.901 4.99058 55.7215 8.33045 54.343C8.57708 54.5264 8.8372 54.6917 9.10908 54.8375V55.8341C9.10908 57.4611 10.4138 58.7846 12.0177 58.7846C12.5523 58.7846 13.0533 58.6369 13.4843 58.3805C14.152 59.7249 15.5227 60.6495 17.1027 60.6495C18.5696 60.6495 19.8568 59.853 20.568 58.6631C20.82 59.109 21.0362 59.5751 21.2192 60.0575C20.9755 60.8333 20.6562 61.9297 20.729 62.7761H10.8745C10.3566 62.7761 9.93695 63.1957 9.93695 63.7136C9.93695 64.2315 10.3566 64.6511 10.8745 64.6511H62.2882C63.491 64.6511 64.4505 63.5724 64.3205 62.3788C63.8755 58.2909 61.3348 54.6916 57.7328 52.9184ZM12.0177 53.6942C9.59695 53.6942 7.62745 51.6739 7.62745 49.1905V47.977C7.62745 47.6054 7.86745 47.2801 8.1982 47.2034C10.399 46.693 12.0817 45.0275 12.6997 42.7479C12.8128 42.3305 13.2838 42.1 13.664 42.258C15.331 42.9502 16.408 44.5896 16.408 46.4346V49.1905C16.4081 51.6739 14.4386 53.6942 12.0177 53.6942ZM12.0177 56.9097C11.4477 56.9097 10.9841 56.4272 10.9841 55.8342V55.4809C11.3206 55.538 11.6655 55.5692 12.0177 55.5692C12.37 55.5692 12.7148 55.538 13.0513 55.4809V55.8342C13.0513 56.4272 12.5877 56.9097 12.0177 56.9097ZM19.2791 45.073V56.5319C19.2791 57.7686 18.3027 58.7746 17.1027 58.7746C15.9027 58.7746 14.9263 57.7685 14.9263 56.5319C14.9263 55.9671 14.9263 55.4024 14.9263 54.8376C16.92 53.769 18.2831 51.6394 18.2831 49.1905V46.4346C18.2831 43.8294 16.7523 41.5102 14.3833 40.5262C12.9618 39.936 11.2858 40.7976 10.8901 42.2574C10.4496 43.8829 9.31408 45.0199 7.77495 45.3767C6.5842 45.6529 5.75258 46.7221 5.75258 47.977V49.1905C5.75258 50.5804 6.1927 51.8669 6.93683 52.9159C6.15383 53.3001 5.42195 53.77 4.75045 54.3118V44.7467C4.75045 40.6431 8.01058 37.3045 12.018 37.3045C16.3027 37.3045 19.2791 40.9827 19.2791 45.073ZM57.0377 49.1904C57.0377 51.6737 55.0682 53.6941 52.6475 53.6941C50.2267 53.6941 48.2572 51.6737 48.2572 49.1904V47.9769C48.2572 47.6053 48.4972 47.28 48.828 47.2032C51.0287 46.6929 52.7115 45.0274 53.3295 42.7477C53.4426 42.3304 53.9134 42.0999 54.2937 42.2579C55.9607 42.9501 57.0377 44.5895 57.0377 46.4345V49.1904ZM51.6138 55.4809C51.9503 55.538 52.2952 55.5692 52.6475 55.5692C52.9997 55.5692 53.3446 55.538 53.6811 55.4809V55.8342C53.6811 56.4272 53.2175 56.9097 52.6475 56.9097C52.0775 56.9097 51.6138 56.4272 51.6138 55.8342V55.4809ZM52.6497 35.1875C54.1007 35.1875 55.354 36.0474 55.9285 37.284C54.8962 36.8883 53.7895 36.6794 52.6473 36.6794C51.5043 36.6794 50.3928 36.8997 49.356 37.3167C49.9237 36.0626 51.186 35.1875 52.6497 35.1875ZM45.38 46.323C45.38 44.2334 46.1315 42.2019 47.6086 40.6979C48.966 39.3156 50.7555 38.5545 52.6475 38.5545C54.6328 38.5545 56.4875 39.3395 57.8697 40.7651C59.2513 42.1899 59.9786 44.0667 59.9176 46.05C59.879 47.2855 59.6333 48.4735 58.9048 49.5056C58.9538 48.486 58.9127 47.4549 58.9127 46.4346C58.9127 43.8294 57.382 41.5102 55.0129 40.5262C53.5915 39.9359 51.9155 40.7977 51.5197 42.2574C51.0792 43.8829 49.9437 45.0199 48.4046 45.3767C47.2138 45.6529 46.3822 46.7221 46.3822 47.977C46.3777 48.4835 46.366 48.9937 46.39 49.4999C45.7467 48.5857 45.38 47.4806 45.38 46.323ZM28.0147 49.1904V47.9769C28.0147 47.6053 28.2547 47.28 28.5855 47.2032C30.7862 46.6929 32.469 45.0274 33.087 42.7477C33.2001 42.3304 33.671 42.0999 34.0512 42.2579C35.7182 42.9501 36.7952 44.5895 36.7952 46.4345V49.1904C36.7952 51.6737 34.8257 53.6941 32.405 53.6941C29.9842 53.6941 28.0147 51.6739 28.0147 49.1904ZM31.3715 55.4809C31.708 55.538 32.0528 55.5692 32.4051 55.5692C32.7573 55.5692 33.1022 55.538 33.4387 55.4809V55.8342C33.4387 56.4272 32.9751 56.9097 32.4051 56.9097C31.8351 56.9097 31.3715 56.4272 31.3715 55.8342V55.4809ZM25.1375 45.073C25.1375 41.037 28.2112 37.3045 32.405 37.3045H38.136C38.99 37.3045 39.6908 37.9989 39.6983 38.8521C39.7157 40.8242 39.7242 43.4984 39.667 45.0382C39.6303 46.1982 39.3423 47.2764 38.6702 48.2366V46.4346C38.6702 43.8294 37.1395 41.5102 34.7705 40.5262C33.3489 39.936 31.673 40.7976 31.2772 42.2574C30.8367 43.8829 29.7012 45.0199 28.1621 45.3767C26.8441 45.6824 26.0948 46.956 26.1397 48.2474C25.4963 47.334 25.1375 46.2346 25.1375 45.073ZM28.7175 54.3429C28.9642 54.5264 29.2245 54.6917 29.4965 54.8376V55.8342C29.4965 57.4612 30.8012 58.7847 32.4051 58.7847C34.009 58.7847 35.3137 57.4611 35.3137 55.8342V54.8376C35.5861 54.6916 35.8467 54.526 36.0937 54.3423C39.4277 55.7198 41.8152 58.9174 42.2142 62.582C42.2153 62.6978 42.1592 62.7625 42.046 62.7764H22.7642C22.651 62.7625 22.5948 62.6978 22.596 62.5819C22.9943 58.924 25.3856 55.7191 28.7175 54.3429ZM62.4123 62.7205C62.3895 62.7459 62.3495 62.7762 62.2882 62.7762H44.081C44.1585 61.8735 43.7986 60.6823 43.5233 59.8636C44.5402 57.3385 46.4905 55.3581 48.9593 54.3425C49.2062 54.5261 49.4666 54.6916 49.7388 54.8376V55.8342C49.7388 57.4612 51.0436 58.7847 52.6475 58.7847C54.2513 58.7847 55.5561 57.4611 55.5561 55.8342V54.8376C55.8285 54.6916 56.0891 54.526 56.3361 54.3421C59.6701 55.7196 62.0576 58.9174 62.4565 62.5819C62.4636 62.6479 62.4363 62.6936 62.4123 62.7205Z" fill="#294563"/>
</g>
</g>
</svg>
