<?xml version="1.0" encoding="utf-8"?>
<!-- Generator: Adobe Illustrator 27.0.0, SVG Export Plug-In . SVG Version: 6.00 Build 0)  -->
<svg version="1.1" id="Layer_1" xmlns="http://www.w3.org/2000/svg" xmlns:xlink="http://www.w3.org/1999/xlink" x="0px" y="0px"
	 width="54.6px" height="60px" viewBox="0 0 54.6 60" style="enable-background:new 0 0 54.6 60;" xml:space="preserve">
<style type="text/css">
	.st0{fill:#FFFFFF;}
	.st1{fill-rule:evenodd;clip-rule:evenodd;fill:#294563;}
	.st2{fill:#FAA859;}
</style>
<g id="Group">
	<path id="Vector" class="st0" d="M43.3,3.6v52.8c0,1.6-1.3,2.9-2.9,2.9H3.6c-1.6,0-2.9-1.3-2.9-2.9V3.6C0.8,2,2,0.7,3.6,0.7h36.8
		C42,0.7,43.3,2,43.3,3.6z"/>
	<path id="Vector__x28_Stroke_x29_" class="st1" d="M11.1,6.4c0-0.4,0.3-0.7,0.8-0.7h25c0.4,0,0.8,0.3,0.8,0.7
		c0,0.4-0.3,0.7-0.8,0.7h-25C11.4,7.1,11.1,6.8,11.1,6.4z"/>
	<path id="Vector__x28_Stroke_x29__x5F_2" class="st1" d="M11.1,10.3c0-0.4,0.3-0.7,0.8-0.7h25c0.4,0,0.8,0.3,0.8,0.7
		S37.3,11,36.9,11h-25C11.4,11,11.1,10.7,11.1,10.3z"/>
	<path id="Vector__x28_Stroke_x29__x5F_3" class="st1" d="M11.1,14.1c0-0.4,0.3-0.7,0.8-0.7h25c0.4,0,0.8,0.3,0.8,0.7
		c0,0.4-0.3,0.7-0.8,0.7h-25C11.4,14.9,11.1,14.5,11.1,14.1z"/>
	<path id="Vector__x28_Stroke_x29__x5F_4" class="st1" d="M11.1,18c0-0.4,0.3-0.7,0.8-0.7h25c0.4,0,0.8,0.3,0.8,0.7
		c0,0.4-0.3,0.7-0.8,0.7h-25C11.4,18.7,11.1,18.4,11.1,18z"/>
	<path id="Vector__x28_Stroke_x29__x5F_5" class="st1" d="M11.1,21.8c0-0.4,0.3-0.7,0.8-0.7h25c0.4,0,0.8,0.3,0.8,0.7
		c0,0.4-0.3,0.7-0.8,0.7h-25C11.4,22.6,11.1,22.2,11.1,21.8z"/>
	<path id="Vector__x28_Stroke_x29__x5F_6" class="st1" d="M11.1,25.7c0-0.4,0.3-0.7,0.8-0.7h25c0.4,0,0.8,0.3,0.8,0.7
		c0,0.4-0.3,0.7-0.8,0.7h-25C11.4,26.4,11.1,26.1,11.1,25.7z"/>
	<path id="Vector__x28_Stroke_x29__x5F_7" class="st1" d="M11.1,29.6c0-0.4,0.3-0.7,0.8-0.7h25c0.4,0,0.8,0.3,0.8,0.7
		c0,0.4-0.3,0.7-0.8,0.7h-25C11.4,30.3,11.1,30,11.1,29.6z"/>
	<path id="Vector__x28_Stroke_x29__x5F_8" class="st1" d="M11.1,33.4c0-0.4,0.3-0.7,0.8-0.7h25c0.4,0,0.8,0.3,0.8,0.7
		c0,0.4-0.3,0.7-0.8,0.7h-25C11.4,34.2,11.1,33.8,11.1,33.4z"/>
	<path id="Vector__x28_Stroke_x29__x5F_9" class="st1" d="M11.1,37.3c0-0.4,0.3-0.7,0.8-0.7h25c0.4,0,0.8,0.3,0.8,0.7
		c0,0.4-0.3,0.7-0.8,0.7h-25C11.4,38,11.1,37.7,11.1,37.3z"/>
	<path id="Vector__x28_Stroke_x29__x5F_10" class="st1" d="M11.1,41.1c0-0.4,0.3-0.7,0.8-0.7h22.1c0.4,0,0.8,0.3,0.8,0.7
		s-0.3,0.7-0.8,0.7H11.8C11.4,41.9,11.1,41.6,11.1,41.1z"/>
	<path id="Vector__x28_Stroke_x29__x5F_11" class="st1" d="M11.1,45c0-0.4,0.3-0.7,0.8-0.7h17.3c0.4,0,0.8,0.3,0.8,0.7
		c0,0.4-0.3,0.7-0.8,0.7H11.8C11.4,45.7,11.1,45.4,11.1,45z"/>
	<path id="Vector__x28_Stroke_x29__x5F_12" class="st1" d="M11.1,48.9c0-0.4,0.3-0.7,0.8-0.7h13.9c0.4,0,0.8,0.3,0.8,0.7
		c0,0.4-0.3,0.7-0.8,0.7H11.8C11.4,49.6,11.1,49.3,11.1,48.9z"/>
	<path id="Vector_2" class="st2" d="M51.6,21.6H35c-1.3,0-2.3-1-2.3-2.3V3c0-1.2,1-2.3,2.3-2.3h16.5c1.3,0,2.3,1,2.3,2.3v16.4
		C53.8,20.6,52.8,21.6,51.6,21.6z"/>
	<path id="Vector_3" class="st2" d="M33.3,52.5l-2.9,0.3l1-2.8c0.2-0.6,0.6-1.2,1.2-1.6l16.9-13.7c0.9-0.8,2.3-0.6,3.1,0.3
		c0.7,0.9,0.6,2.2-0.3,3L35.4,51.6C34.8,52.1,34.1,52.4,33.3,52.5z"/>
	<path id="Vector__x28_Stroke_x29__x5F_13" class="st1" d="M3.6,1.5c-1.2,0-2.1,0.9-2.1,2.1v43.1c0,0.4-0.3,0.7-0.8,0.7
		c-0.4,0-0.8-0.3-0.8-0.7V3.6C0,1.6,1.6,0,3.6,0h36.8c0.4,0,0.8,0.3,0.8,0.7c0,0.4-0.3,0.7-0.8,0.7H3.6z"/>
	<path id="Vector__x28_Stroke_x29__x5F_14" class="st1" d="M43.3,44.5c0.4,0,0.8,0.3,0.8,0.7v11.2c0,2-1.6,3.6-3.6,3.6H3.6
		c-2,0-3.6-1.6-3.6-3.6v-5.6c0-0.4,0.3-0.7,0.8-0.7c0.4,0,0.8,0.3,0.8,0.7v5.6c0,1.2,1,2.1,2.1,2.1h36.8c1.2,0,2.1-0.9,2.1-2.1V45.2
		C42.5,44.8,42.9,44.5,43.3,44.5z"/>
	<path id="Vector__x28_Stroke_x29__x5F_15" class="st1" d="M43.3,25c0.4,0,0.8,0.3,0.8,0.7v14c0,0.4-0.3,0.7-0.8,0.7
		s-0.8-0.3-0.8-0.7v-14C42.5,25.3,42.9,25,43.3,25z"/>
	<path id="Vector__x28_Stroke_x29__x5F_16" class="st1" d="M11.1,52.7c0-0.4,0.3-0.7,0.8-0.7h18.5c0.4,0,0.8,0.3,0.8,0.7
		s-0.3,0.7-0.8,0.7H11.9C11.5,53.5,11.1,53.1,11.1,52.7z"/>
	<path id="Vector__x28_Stroke_x29__x5F_17" class="st1" d="M52.1,34.4c0.3-0.3,0.8-0.2,1.1,0.1c1,1.2,0.8,3-0.4,4h0L35.9,52.2l0,0
		c-0.7,0.6-1.6,0.9-2.5,1l-2.9,0.3c-0.4,0-0.8-0.3-0.8-0.7c0-0.4,0.3-0.8,0.7-0.8l2.9-0.3l0,0c0.6-0.1,1.2-0.3,1.7-0.7l0,0
		l16.9-13.6c0.6-0.5,0.7-1.4,0.2-2C51.8,35.1,51.8,34.7,52.1,34.4z"/>
	<path id="Vector__x28_Stroke_x29__x5F_18" class="st1" d="M52,35.5c-0.5-0.6-1.4-0.7-2-0.2l0,0L33.1,48.9c-0.4,0.3-0.7,0.8-0.9,1.3
		v0l-1,2.8c-0.1,0.4-0.6,0.6-1,0.4c-0.4-0.1-0.6-0.6-0.4-1l1-2.8l0,0c0.3-0.8,0.8-1.4,1.4-1.9l0.5,0.6l-0.5-0.6l16.9-13.7h0
		c1.3-1,3.1-0.8,4.1,0.4c0.3,0.3,0.2,0.8-0.1,1C52.7,35.8,52.3,35.8,52,35.5z"/>
	<g id="Group_2">
		<g id="Group_3">
			<path id="Vector__x28_Stroke_x29__x5F_19" class="st1" d="M35,1.5c-0.8,0-1.5,0.7-1.5,1.5v16.4c0,0.8,0.7,1.5,1.5,1.5h16.5
				c0.8,0,1.5-0.7,1.5-1.5c0,0,0,0,0,0V3c0-0.8-0.7-1.5-1.5-1.5H35z M32,3c0-1.7,1.4-3,3-3h16.5c1.7,0,3,1.3,3,3v16.4
				c0,1.7-1.4,3-3,3H35c-1.7,0-3-1.3-3-3V3z"/>
		</g>
		<path id="Vector__x28_Stroke_x29__x5F_20" class="st1" d="M53.8,16.4c0.4,0,0.8,0.3,0.8,0.7v7.2c0,0.9-0.4,1.7-1.1,2.3L53,26.1
			l0.4,0.6l-4.9,3.8c-0.3,0.3-0.8,0.2-1.1-0.1c-0.3-0.3-0.2-0.8,0.1-1l4.9-3.8c0.4-0.3,0.6-0.7,0.6-1.1v-7.2
			C53.1,16.7,53.4,16.4,53.8,16.4z"/>
	</g>
</g>
</svg>
