<svg xmlns="http://www.w3.org/2000/svg" xmlns:xlink="http://www.w3.org/1999/xlink" width="18" height="20" viewBox="0 0 18 20">
    <defs>
        <path id="b" d="M3 5.5H0v5h3v.5l4 4V1L3 5v.5zm6.078-3.966a6.575 6.575 0 0 1 5.401 6.46 6.575 6.575 0 0 1-5.47 6.472L9 16c3.954-.54 7-3.918 7-8.006C16 3.936 12.998.577 9.087 0l-.009 1.534zM9 5.03c.122-.02.248-.03.375-.03C10.825 5 12 6.343 12 8s-1.175 3-2.625 3c-.127 0-.253-.01-.375-.03V5.03z"/>
        <filter id="a" width="118.8%" height="123.9%" x="-9.4%" y="-12%" filterUnits="objectBoundingBox">
            <feMorphology in="SourceAlpha" operator="dilate" radius=".5" result="shadowSpreadOuter1"/>
            <feOffset in="shadowSpreadOuter1" result="shadowOffsetOuter1"/>
            <feColorMatrix in="shadowOffsetOuter1" values="0 0 0 0 0 0 0 0 0 0 0 0 0 0 0 0 0 0 0.1 0"/>
        </filter>
    </defs>
    <g fill="none" fill-rule="evenodd" opacity=".9" transform="translate(1 2)">
        <use fill="#000" filter="url(#a)" xlink:href="#b"/>
        <use fill="#FFF" xlink:href="#b"/>
    </g>
</svg>
