<svg xmlns="http://www.w3.org/2000/svg" width="40" height="40" viewBox="0 0 20 20">
    <g fill="#294563" fill-rule="nonzero">
        <path d="M12.13 8.672a3.441 3.441 0 0 0-3.438 3.437 3.441 3.441 0 0 0 3.437 3.438 3.441 3.441 0 0 0 3.438-3.438 3.441 3.441 0 0 0-3.438-3.437z"/>
        <path d="M19.632 17.739a1.326 1.326 0 0 1-.937 2.26c-.34 0-.678-.129-.937-.387L15.8 17.654v1.174c0 .646-.526 1.172-1.172 1.172H1.191A1.173 1.173 0 0 1 .02 18.828V1.172C.02.526.545 0 1.19 0h10.39v.001a.39.39 0 0 1 .277.113l3.827 3.828a.39.39 0 0 1 .114.276v4.386a5.06 5.06 0 0 1 1.408 3.505c0 .92-.246 1.784-.676 2.53l3.1 3.1zm-7.503-1.333a4.302 4.302 0 0 0 4.297-4.297 4.302 4.302 0 0 0-4.297-4.296 4.302 4.302 0 0 0-4.297 4.296 4.302 4.302 0 0 0 4.297 4.297zm-.157-15.072v2.103c0 .215.175.39.39.39h2.104l-2.494-2.493zM19.08 19.06a.544.544 0 0 0 0-.769l-2.997-2.997c-.229.282-.486.54-.769.768l2.998 2.998a.544.544 0 0 0 .768 0zM6.041 10.968H2.525a.39.39 0 0 0 0 .782h3.516a.39.39 0 1 0 0-.782zm.231-2.708H2.525a.39.39 0 0 0 0 .781h3.747a.39.39 0 0 0 0-.78zM2.525 6.333a.393.393 0 0 0 .391-.39.393.393 0 0 0-.39-.391.394.394 0 0 0-.277.114.394.394 0 0 0 0 .553.394.394 0 0 0 .276.114zm7.495-.781H4.18a.39.39 0 0 0 0 .781h5.839a.39.39 0 0 0 0-.781z"/>
    </g>
</svg>
