<?xml version="1.0" encoding="UTF-8"?>
<svg width="29px" height="29px" viewBox="0 0 29 29" version="1.1" xmlns="http://www.w3.org/2000/svg" xmlns:xlink="http://www.w3.org/1999/xlink">
    <!-- Generator: sketchtool 52.2 (67145) - http://www.bohemiancoding.com/sketch -->
    <title>C9A426CA-3CF3-417B-BF75-06B5D9BAAF72@2x</title>
    <desc>Created with sketchtool.</desc>
    <g id="1400px-WOT-" stroke="none" stroke-width="1" fill="none" fill-rule="evenodd">
        <g id="[-1400---WOT-]-2.0---PDP" transform="translate(-710.000000, -613.000000)">
            <g id="Listening" transform="translate(682.000000, 613.000000)">
                <g id="Group" transform="translate(28.281250, 0.281250)">
                    <path d="M27.34375,25.073825 C27.34375,26.3293771 26.3167187,27.3564812 25.0610937,27.3564812 L23.919875,27.3564812 C22.66425,27.3564812 21.6372187,26.3293771 21.6372187,25.073825 L21.6372187,18.2260021 C21.6372187,16.9710333 22.66425,15.9433458 23.919875,15.9433458 L25.0610937,15.9433458 C26.3167187,15.9433458 27.34375,16.9710333 27.34375,18.2260021 L27.34375,25.073825 Z" id="Fill-1" fill="#D6F0F4"></path>
                    <path d="M6.80025938,25.073825 C6.80025938,26.3293771 5.77322813,27.3564812 4.51767604,27.3564812 L3.37631146,27.3564812 C2.12083229,27.3564812 1.09372813,26.3293771 1.09372813,25.073825 L1.09372813,18.2260021 C1.09372813,16.9710333 2.12083229,15.9433458 3.37631146,15.9433458 L4.51767604,15.9433458 C5.77322813,15.9433458 6.80025938,16.9710333 6.80025938,18.2260021 L6.80025938,25.073825 Z" id="Fill-3" fill="#D6F0F4"></path>
                    <path d="M26.6145833,25.073825 C26.6145833,25.9303771 25.9176458,26.6273146 25.0610938,26.6273146 L23.919875,26.6273146 C23.0633229,26.6273146 22.3663854,25.9303771 22.3663854,25.073825 L22.3663854,18.2260021 C22.3663854,17.36945 23.0633229,16.6725125 23.919875,16.6725125 L25.0610938,16.6725125 C25.9176458,16.6725125 26.6145833,17.36945 26.6145833,18.2260021 L26.6145833,18.5812521 L26.6145833,25.073825 Z M3.37633333,16.6725125 L4.51769792,16.6725125 C5.37425,16.6725125 6.07111458,17.36945 6.07111458,18.2260021 L6.07111458,25.073825 C6.07111458,25.9303771 5.37425,26.6273146 4.51769792,26.6273146 L3.37633333,26.6273146 C2.51978125,26.6273146 1.82291667,25.9303771 1.82291667,25.073825 L1.82291667,18.5812521 L1.82291667,18.2260021 C1.82291667,17.36945 2.51978125,16.6725125 3.37633333,16.6725125 Z M14.21875,0.351866667 C6.5795625,0.351866667 0.364583333,6.56677292 0.364583333,14.2060333 L0.364583333,18.2260021 L0.364583333,18.5812521 L0.364583333,25.073825 C0.364583333,26.7345021 1.71565625,28.0856479 3.37633333,28.0856479 L4.51769792,28.0856479 C6.178375,28.0856479 7.52944792,26.7345021 7.52944792,25.073825 L7.52944792,18.2260021 C7.52944792,16.565325 6.178375,15.2141792 4.51769792,15.2141792 L3.37633333,15.2141792 C2.80838542,15.2141792 2.27682292,15.3723354 1.82291667,15.6467208 L1.82291667,14.2060333 C1.82291667,7.37097083 7.3836875,1.8102 14.21875,1.8102 C21.0538125,1.8102 26.6145833,7.37097083 26.6145833,14.2060333 L26.6145833,15.6467937 C26.1606771,15.3724083 25.6290417,15.2141792 25.0610938,15.2141792 L23.919875,15.2141792 C22.2591979,15.2141792 20.9080521,16.565325 20.9080521,18.2260021 L20.9080521,25.073825 C20.9080521,26.7345021 22.2591979,28.0856479 23.919875,28.0856479 L25.0610938,28.0856479 C26.7218438,28.0856479 28.0729167,26.7345021 28.0729167,25.073825 L28.0729167,18.5812521 L28.0729167,18.2260021 L28.0729167,14.2060333 C28.0729167,6.56677292 21.8580104,0.351866667 14.21875,0.351866667 Z" id="Fill-5" fill="#32B3C7"></path>
                </g>
            </g>
        </g>
    </g>
</svg>