<svg width="1920" height="523" viewBox="0 0 1920 523" fill="none" xmlns="http://www.w3.org/2000/svg">
<path fill-rule="evenodd" clip-rule="evenodd" d="M1453.43 522.544L1470.27 218.67C1469.15 218.503 1468.04 218.301 1466.93 218.099C1464.07 217.575 1461.21 217.053 1458.21 217.158C1456.68 217.208 1455.16 217.233 1453.64 217.257C1448.62 217.339 1443.61 217.42 1438.61 218.412C1437.2 218.694 1435.77 218.475 1434.32 218.253C1433.35 218.105 1432.37 217.955 1431.38 217.955C1427.76 217.959 1424.31 218.736 1420.85 219.511C1418.88 219.953 1416.91 220.394 1414.92 220.692C1405.6 222.084 1396.14 222.243 1386.79 221.164C1380.69 220.417 1374.54 220.198 1368.4 220.51C1362.87 220.828 1357.37 221.427 1351.86 222.027C1348.57 222.386 1345.28 222.744 1341.98 223.042C1336.66 223.523 1331.44 222.907 1326.15 222.282L1325.79 222.24C1320.99 221.673 1316.27 220.705 1311.55 219.738C1307.32 218.87 1303.1 218.004 1298.83 217.431C1290.78 216.326 1282.61 216.313 1274.56 217.392C1271.09 217.86 1267.69 218.588 1264.3 219.317C1262.28 219.751 1260.25 220.186 1258.21 220.565C1253.57 221.427 1248.87 221.535 1244.18 221.643C1241.31 221.71 1238.44 221.776 1235.59 222.014C1235.22 222.045 1234.84 222.047 1234.46 222.049C1233.67 222.054 1232.88 222.058 1232.2 222.328C1228.98 223.597 1225.76 223.457 1222.51 222.754C1220.69 222.358 1219.31 222.719 1217.92 224.149C1216.17 225.942 1214.78 225.419 1213.93 222.99C1213.76 222.446 1213.65 221.887 1213.59 221.322C1213.54 220.972 1213.5 220.615 1213.46 220.259C1213.34 219.048 1213.21 217.835 1212.38 216.856C1211.6 215.943 1210.68 216.129 1209.75 216.315C1209.28 216.411 1208.8 216.507 1208.34 216.453C1207.64 216.401 1206.96 216.167 1206.37 215.773C1201.48 212.003 1195.68 211.965 1190.06 212.274C1188.9 212.337 1187.74 212.402 1186.58 212.467C1177.04 213.004 1167.52 213.54 1157.98 212.523C1156.11 212.323 1154.22 212.174 1152.33 212.024C1148.07 211.686 1143.8 211.347 1139.72 210.432C1135.55 209.5 1131.34 209.309 1127.13 209.119C1122.68 208.918 1118.24 208.717 1113.88 207.638C1111.88 207.144 1109.86 206.746 1107.83 206.348C1105.8 205.949 1103.76 205.549 1101.75 205.051C1096.8 203.828 1091.71 203.291 1086.63 202.756C1085.89 202.677 1085.15 202.599 1084.41 202.519C1079.05 201.935 1073.69 201.325 1068.34 200.601C1058.23 199.213 1047.96 197.903 1037.65 199.106C1036.36 199.25 1035.15 199.745 1034.13 200.534C1031.14 202.81 1027.89 202.973 1024.38 202.007C1021.94 201.34 1019.51 200.64 1017.08 199.94C1011.42 198.307 1005.75 196.675 999.976 195.455C998.962 195.242 997.951 195.014 996.94 194.786C995.025 194.355 993.112 193.924 991.183 193.593C987.064 192.888 983.03 191.829 978.997 190.77C975.852 189.944 972.707 189.118 969.524 188.461C966.475 187.831 963.43 187.167 960.385 186.503C947.822 183.765 935.249 181.025 922.302 180.615C918.356 180.499 914.873 178.994 911.398 177.491C910.694 177.187 909.991 176.883 909.284 176.591C894.885 170.614 880.052 166.023 864.959 162.189C864.477 162.066 863.994 161.947 863.511 161.827C860.4 161.058 857.277 160.286 854.417 158.726C853.379 158.228 852.234 157.996 851.084 158.049L850.079 158.035C842.152 157.923 834.227 157.811 826.309 158.63C816.641 159.632 806.946 159.322 797.251 158.784C793.267 158.564 789.212 158.356 785.274 158.845C776.641 159.909 768.161 158.831 759.693 157.629C750.509 156.33 741.46 154.338 732.41 152.345C725.562 150.838 718.714 149.33 711.807 148.122C709.28 147.672 706.731 147.352 704.17 147.164C699.924 146.864 696.607 145.126 694.264 141.381C693.356 139.931 692.271 138.592 691.187 137.254C690.203 136.04 689.219 134.826 688.366 133.528C685.128 128.59 680.11 126.238 675.029 123.948C673.969 123.525 672.844 123.283 671.703 123.233L670.872 123.169C664.459 122.681 658.057 122.194 651.597 122.62C648.021 122.827 644.433 122.669 640.889 122.147C637.368 121.653 633.823 121.329 630.278 121.005C623.457 120.382 616.636 119.758 609.983 117.924C608.728 117.645 607.504 117.237 606.333 116.707C599.735 113.283 592.602 113.068 585.439 113.253C580.215 113.388 575.358 115.128 570.623 117.196C565.56 119.404 560.801 122.175 556.045 124.944C552.664 126.913 549.284 128.881 545.797 130.645C543.768 131.666 541.749 132.71 539.729 133.754C530.867 138.335 521.995 142.921 512.268 145.63C509.027 146.518 505.909 147.973 502.837 149.408L502.36 149.63C493.979 153.599 485.923 158.217 478.265 163.442C475.58 165.258 473.007 167.25 470.435 169.242C469.396 170.046 468.358 170.85 467.313 171.642C464.56 173.706 461.355 175.089 457.962 175.677C450.912 176.995 443.82 177.523 436.663 176.673C436.442 176.646 436.218 176.603 435.995 176.56C435.492 176.463 434.992 176.367 434.528 176.46C429.441 177.489 424.551 176.698 419.585 175.895C418.235 175.677 416.88 175.458 415.514 175.274C410.054 174.526 404.634 173.613 399.214 172.699C396.504 172.243 393.794 171.786 391.079 171.35C389.324 171.071 387.498 171.148 385.698 171.223C385.502 171.231 385.307 171.239 385.112 171.247C379.074 171.481 373.116 170.788 367.154 170.094C363.336 169.649 359.516 169.204 355.672 169.003C353.843 168.908 352.027 169.032 350.211 169.156C349.473 169.207 348.735 169.257 347.997 169.293C341.294 169.622 334.582 168.872 328.117 167.074C326.358 166.587 325.306 165.192 324.275 163.807C322.765 161.77 320.774 160.67 318.251 160.102C304.583 157.113 291.06 153.597 277.895 148.828C276.944 148.515 276.035 148.088 275.187 147.556C269.056 143.387 262.074 142.465 254.91 141.575C252.668 141.296 250.421 141.042 248.173 140.787C239.668 139.825 231.153 138.861 222.843 136.547C221.637 136.212 220.432 135.884 219.227 135.556C214.671 134.316 210.125 133.08 205.655 131.453C201.009 129.761 195.995 128.975 191.068 128.201L190.666 128.138C187.68 127.669 184.734 127.011 181.787 126.352C177.912 125.486 174.035 124.619 170.062 124.183C166.895 123.836 164.014 122.228 161.607 119.632C157.374 115.054 151.831 112.34 145.927 110.423C143.417 109.612 140.816 109.995 138.309 110.683C136.434 111.195 134.688 111.184 132.94 110.188C129.572 108.275 125.794 107.817 122.124 108.342C118.676 108.837 115.208 109.155 111.743 109.474C107.824 109.834 103.909 110.194 100.035 110.807C94.8837 111.619 89.7212 112.054 84.5565 112.489C82.9079 112.628 81.2591 112.766 79.6103 112.918C79.2513 112.948 78.8952 112.963 78.5417 112.977C78.1775 112.991 77.8161 113.006 77.4569 113.038C67.9304 113.881 60.9581 109.927 55.9608 101.94C55.3476 100.963 54.7049 100.006 54.0624 99.0496C52.4848 96.7004 50.9078 94.3522 49.7691 91.7233C48.7374 89.3402 46.9005 87.3936 44.5783 86.2228C43.1299 85.4743 42.0144 84.5301 41.3712 82.9653C39.1471 77.5435 34.5435 75.0053 29.2234 73.8539C25.4517 73.061 21.8535 71.5979 18.6004 69.5345C17.3661 68.8263 16.0891 68.1948 14.7767 67.6436C14.5482 67.5375 14.3192 67.4325 14.0904 67.3275C11.9886 66.3634 9.8949 65.4029 8.21601 63.6991C6.58442 62.0732 4.49328 60.9843 2.22356 60.5786C1.44595 60.4326 0.707987 60.2183 0 59.9513V0H1920V522.544H1453.43ZM1342.63 522.544C1342.01 522.446 1341.39 522.348 1340.78 522.25C1336.2 521.52 1331.62 520.791 1327.03 520.106C1322.82 519.479 1318.61 518.9 1314.4 518.322C1310.27 517.756 1306.15 517.191 1302.03 516.579C1300.96 516.421 1299.88 516.296 1298.8 516.171C1295.47 515.788 1292.13 515.403 1289.07 514.045C1286.21 512.744 1283.12 512.016 1279.98 511.901C1274.56 511.713 1269.16 511.109 1263.77 510.504C1257.67 509.821 1251.57 509.138 1245.42 509.057C1244.56 509.014 1243.71 508.923 1242.86 508.782C1229.84 507.075 1216.81 505.377 1203.72 504.373C1198.75 503.994 1193.84 503.235 1188.92 502.477C1183.54 501.647 1178.16 500.817 1172.72 500.484C1168.48 500.226 1164.25 499.647 1160.03 499.069C1159.44 498.988 1158.85 498.906 1158.26 498.826C1156.41 498.581 1154.56 498.317 1152.71 498.053C1147.64 497.329 1142.56 496.606 1137.44 496.259C1131.36 495.848 1125.34 495.163 1119.32 494.477C1118.4 494.373 1117.48 494.268 1116.56 494.164C1112.04 493.653 1107.53 493.1 1103.02 492.548C1094.5 491.504 1085.98 490.461 1077.43 489.696C1073.79 489.372 1070.15 488.994 1066.51 488.616C1058.37 487.771 1050.22 486.925 1042.01 486.672C1036.33 486.494 1030.72 485.266 1025.18 483.781C1021.22 482.706 1019.6 480.376 1019.36 476.456C1019.14 472.039 1019.61 467.614 1020.77 463.345C1022.62 456.26 1023.21 449.037 1023.47 441.773C1023.59 438.187 1021.99 435.896 1018.59 434.586C1017.25 434.09 1015.87 433.703 1014.47 433.428C1000.66 430.45 986.686 428.232 972.627 426.783C960.847 425.599 949.563 422.597 939.002 417.309C928.141 411.862 916.919 408.127 904.596 408.061C901.206 408.04 897.769 407.293 894.45 406.535C891.253 405.805 890.529 404.527 890.747 401.301C890.796 400.442 890.916 399.589 891.107 398.751C892.697 392.013 893.766 385.181 894.836 378.35C895.197 376.042 895.558 373.734 895.94 371.429C896.334 369.043 896.703 366.644 896.918 364.236C897.19 361.111 896.569 360.151 893.777 358.921C892.999 358.562 892.195 358.261 891.371 358.021C882.41 355.509 873.818 352.014 865.227 348.519C861.919 347.173 858.61 345.828 855.281 344.538C844.042 340.18 832.516 336.972 820.354 336.632C816.781 336.493 813.209 336.949 809.787 337.983C806.615 338.968 805.705 340.129 806.403 343.338C808.059 350.946 807.604 358.57 807.147 366.214C807.111 366.816 807.075 367.418 807.041 368.02C806.717 373.308 805.153 378.446 802.474 383.02C798.508 389.911 792.453 394.193 784.541 395.64C778.035 396.83 771.761 395.848 765.628 393.491C765.549 393.461 765.469 393.43 765.388 393.399C763.619 392.714 761.596 391.932 759.987 393.56C758.701 394.86 759.218 396.421 759.713 397.916C759.814 398.218 759.913 398.517 759.996 398.812C762.746 408.55 759.724 416.826 753.226 423.992C749.835 427.69 745.739 430.677 741.177 432.778C731.883 437.107 722.785 437.803 714.325 430.63C712.597 429.137 710.724 427.82 708.734 426.697C704.706 424.469 702.706 425.613 702.167 430.227C702.122 430.613 702.088 431.001 702.053 431.39C701.999 431.995 701.945 432.603 701.852 433.207C701.03 438.503 699.358 443.5 695.716 447.547C686.072 458.257 668.445 461.885 656.87 453.345C654.664 451.715 652.139 450.705 649.535 449.897C645.631 448.679 644.859 449.047 643.287 452.704C642.792 453.849 642.269 454.985 641.744 456.123C641.373 456.93 641 457.739 640.636 458.554C638.287 463.756 634.045 466.627 628.734 468.174C625.15 469.169 621.433 469.599 617.715 469.449C616.823 469.429 615.93 469.404 615.037 469.38C608.797 469.209 602.545 469.038 596.388 470.409C591.738 471.436 587.378 471.092 583.174 468.687C579.492 466.577 575.629 466.47 571.622 467.962C568.554 469.107 565.367 469.971 561.984 469.424C560.176 469.131 559.006 470.09 558.254 471.654C558.113 471.946 557.97 472.236 557.827 472.525C557.591 473.001 557.355 473.478 557.13 473.961C553.828 481.098 547.862 484.721 540.401 485.709C529.886 487.105 520.307 484.167 511.695 478.122C504.963 473.384 500.834 466.935 499.655 458.697C499.05 454.492 498.319 453.826 494.056 454.352C487.175 455.196 480.384 454.627 473.601 453.532C461.37 451.569 453.765 443.146 453.052 430.835C453.039 430.612 453.038 430.388 453.037 430.163C453.036 429.815 453.034 429.466 452.988 429.118C452.632 426.412 451.504 425.609 448.906 426.553C447.424 427.095 446 427.806 444.579 428.514C443.954 428.826 443.329 429.138 442.701 429.434C423.675 438.545 406.363 426.62 401.292 410.743C399.13 403.976 397.766 396.901 399.505 389.69C399.624 389.13 399.682 388.558 399.676 387.986C399.717 384.232 398.757 383.587 395.396 385.11C394.827 385.367 394.264 385.639 393.701 385.911C392.592 386.447 391.483 386.983 390.332 387.4C384.985 389.365 379.535 390.018 373.964 388.365C371.734 387.703 369.472 387.156 367.209 386.609C362.676 385.513 358.142 384.416 353.875 382.403C344.452 377.957 339.564 370.644 340.695 360.213C341.183 355.746 339.25 353.982 335.047 353.68C331.225 353.407 327.433 352.879 323.641 352.351C321.352 352.032 319.064 351.714 316.769 351.451C310.839 350.754 304.838 349.813 299.19 347.83C294.642 346.237 290.041 345.661 285.323 345.494C280.824 345.33 279.91 345.948 278.251 350.092C277.062 353.057 275.9 356.03 274.736 359.005C274.349 359.996 273.962 360.986 273.574 361.977C270.038 370.999 266.563 380.029 266.802 389.967C266.998 397.748 263.986 404.374 259.333 410.396C254.639 416.471 250.684 423.08 247.552 430.085C241.35 443.838 235.348 457.641 230.967 472.082C230.538 473.478 229.958 474.806 229.378 476.133C228.541 478.049 227.704 479.964 227.326 482.079C225.757 490.876 222.286 492.997 213.837 489.74C211.364 488.787 208.831 488.028 206.299 487.269C202.826 486.228 199.356 485.187 196.052 483.649C194.237 482.817 192.365 482.116 190.449 481.553C185.575 480.107 180.725 478.566 175.875 477.026C173.655 476.32 171.435 475.615 169.212 474.919C166.786 474.159 164.357 473.407 161.929 472.654C157.818 471.38 153.708 470.107 149.613 468.8C147.755 468.208 145.892 467.628 144.029 467.048C138.668 465.379 133.305 463.709 128.051 461.746C124.069 460.259 120.052 458.862 116.034 457.465C109.545 455.208 103.055 452.951 96.7118 450.316C92.7368 448.671 88.7209 447.114 84.7064 445.557C81.0104 444.124 77.3156 442.692 73.6552 441.191C68.4318 439.05 63.1318 437.13 57.8336 435.212C54.1514 433.878 50.4701 432.545 46.816 431.138C40.6356 428.754 34.3911 426.539 28.1471 424.325C21.8928 422.108 15.639 419.89 9.45045 417.502C6.28314 416.279 3.13365 415.012 0 413.709V522.544H1342.63Z" fill="url(#paint0_linear_473_2995)"/>
<defs>
<linearGradient id="paint0_linear_473_2995" x1="0" y1="0" x2="248.233" y2="965.027" gradientUnits="userSpaceOnUse">
<stop stop-color="#051A30"/>
<stop offset="0.472757" stop-color="#001830"/>
<stop offset="1" stop-color="#284664"/>
</linearGradient>
</defs>
</svg>
