<?xml version="1.0" encoding="utf-8"?>
<!-- Generator: Adobe Illustrator 24.2.3, SVG Export Plug-In . SVG Version: 6.00 Build 0)  -->
<svg version="1.1" id="Layer_1" xmlns="http://www.w3.org/2000/svg" xmlns:xlink="http://www.w3.org/1999/xlink" x="0px" y="0px"
	 width="159.1px" height="35.7px" viewBox="0 0 159.1 35.7" style="enable-background:new 0 0 159.1 35.7;" xml:space="preserve">
<style type="text/css">
	.st0{fill:#FFFFFF;}
	.st1{fill:#908F9C;}
	.st2{fill:#4ABFA7;}
</style>
<path class="st0" d="M47.8,3.9c-0.2-0.2-0.3-0.3-0.6-0.4c-0.2-0.1-0.4-0.1-0.7-0.1c-0.2,0-0.5,0-0.7,0.1c-0.2,0.1-0.4,0.2-0.6,0.4
	c-0.2,0.2-0.3,0.4-0.4,0.6c-0.1,0.2-0.1,0.4-0.1,0.7v14.3c0,0.2,0,0.5,0.1,0.7c0.1,0.2,0.2,0.4,0.4,0.6c0.2,0.2,0.4,0.3,0.6,0.4
	c0.2,0.1,0.4,0.1,0.7,0.1c0.5,0,0.9-0.2,1.2-0.5c0.2-0.2,0.3-0.4,0.4-0.6c0.1-0.2,0.1-0.4,0.1-0.7V5.1c0-0.2,0-0.5-0.1-0.7
	C48.1,4.3,47.9,4.1,47.8,3.9z"/>
<path class="st0" d="M61.5,9c-0.7-1.1-1.9-1.6-3.7-1.6c-0.9,0-1.7,0.2-2.5,0.7c-0.5,0.3-1,0.7-1.4,1.1c0-0.4-0.2-0.7-0.5-1
	c-0.3-0.3-0.8-0.5-1.2-0.5c-0.5,0-0.9,0.2-1.2,0.5c-0.2,0.2-0.3,0.4-0.4,0.6c-0.1,0.2-0.1,0.4-0.1,0.7v10.1c0,0.2,0,0.5,0.1,0.7
	c0.1,0.2,0.2,0.4,0.4,0.6c0.3,0.3,0.8,0.5,1.2,0.5c0.5,0,0.9-0.2,1.2-0.5c0.2-0.2,0.3-0.4,0.4-0.6c0.1-0.2,0.1-0.4,0.1-0.7v-6.3
	c0-0.4,0-0.7,0.2-1c0.1-0.3,0.3-0.6,0.6-0.9c0.5-0.5,1.2-0.7,2.1-0.7c0.8,0,1.4,0.2,1.7,0.7c0.3,0.4,0.5,1.1,0.5,2v6.3
	c0,0.2,0,0.5,0.1,0.7c0.1,0.2,0.2,0.4,0.4,0.6c0.3,0.3,0.8,0.5,1.2,0.5c0.5,0,0.9-0.2,1.2-0.5c0.2-0.2,0.3-0.4,0.4-0.6
	c0.1-0.2,0.1-0.4,0.1-0.7v-6.3C62.5,11.4,62.2,10,61.5,9z"/>
<path class="st0" d="M71.2,17.9c-0.2,0-0.4,0-0.6,0.1c-0.2,0.1-0.3,0.1-0.5,0.1c-0.2,0-0.4-0.1-0.6-0.2c-0.1-0.1-0.1-0.2-0.2-0.3
	c0-0.1,0-0.2,0-0.3V11h1.5c0.2,0,0.4,0,0.6-0.1c0.2-0.1,0.4-0.2,0.5-0.3c0.1-0.1,0.3-0.3,0.3-0.5c0.1-0.2,0.1-0.4,0.1-0.6
	c0-0.2,0-0.4-0.1-0.6c-0.1-0.2-0.2-0.4-0.3-0.5c-0.2-0.2-0.3-0.3-0.5-0.3S71,7.9,70.8,7.9h-1.5V6.5c0-0.5-0.2-1.6-0.5-1.9
	c-0.2-0.2-0.3-0.3-0.5-0.4c-0.2-0.1-0.4-0.1-0.7-0.1c-0.2,0-0.5,0-0.7,0.1c-0.2,0.1-0.4,0.2-0.6,0.4c-0.3,0.3-0.5,1.4-0.5,1.9v1.3
	H65c-0.2,0-0.4,0-0.6,0.1C64.2,8,64,8.2,63.8,8.3c-0.1,0.1-0.3,0.3-0.3,0.5c-0.1,0.2-0.1,0.4-0.1,0.6c0,0.2,0,0.4,0.1,0.6
	c0.1,0.2,0.2,0.4,0.3,0.5c0.2,0.2,0.3,0.3,0.5,0.3C64.6,11,64.8,11,65,11h0.9v6.5c0,1.5,0.4,2.5,1.2,2.9c0.7,0.5,1.6,0.7,2.7,0.7
	c0.6,0,1.2-0.2,1.8-0.5c0.6-0.3,0.8-0.8,0.8-1.3c0-0.4-0.1-0.7-0.3-1c-0.1-0.1-0.2-0.2-0.4-0.3C71.5,18,71.3,17.9,71.2,17.9z"/>
<path class="st0" d="M85.1,10.5c-0.6-1-1.4-1.8-2.4-2.5c-1-0.6-2.1-0.9-3.2-0.9c-1.1,0-2.2,0.3-3.2,0.9c-1,0.6-1.9,1.5-2.4,2.5
	C73.3,11.7,73,13,73,14.3c0,1.2,0.3,2.4,0.9,3.5c0.6,1,1.4,1.9,2.5,2.4c0.9,0.5,2,0.8,3,0.9c1,0.1,2.1,0,3.1-0.4
	c0.7-0.2,1.3-0.6,1.9-1c0.5-0.4,0.8-0.9,0.8-1.4c0-0.2,0-0.4-0.1-0.6c-0.1-0.2-0.2-0.3-0.3-0.5c-0.5-0.5-1.2-0.6-2-0.2
	c-0.1,0-0.2,0.1-0.5,0.3c-0.3,0.2-0.5,0.3-0.8,0.4c-0.5,0.1-1,0.2-1.5,0.2c-0.8,0-1.6-0.3-2.2-0.8c-0.6-0.5-1-1.1-1.2-1.8h7.8
	c0.4,0,0.9-0.1,1.2-0.4c0.2-0.1,0.3-0.3,0.4-0.5c0.1-0.2,0.1-0.4,0.1-0.6C86,12.7,85.7,11.5,85.1,10.5z M79.5,10.3
	c0.7,0,1.4,0.2,1.9,0.7c0.2,0.2,0.5,0.4,0.6,0.7c0.2,0.3,0.3,0.5,0.3,0.8h-5.9C76.9,11,77.9,10.3,79.5,10.3L79.5,10.3z"/>
<path class="st0" d="M95.8,7.8c-0.4-0.3-0.9-0.5-1.4-0.5c-0.8,0-1.6,0.2-2.4,0.6c-0.5,0.2-1,0.6-1.3,1c-0.1-0.3-0.2-0.6-0.4-0.8
	c-0.3-0.3-0.8-0.5-1.2-0.5s-0.9,0.2-1.2,0.5c-0.2,0.2-0.3,0.4-0.4,0.6c-0.1,0.2-0.1,0.4-0.1,0.7v10.1c0,0.2,0,0.5,0.1,0.7
	c0.1,0.2,0.2,0.4,0.4,0.6c0.3,0.3,0.8,0.5,1.2,0.5s0.9-0.2,1.2-0.5c0.2-0.2,0.3-0.4,0.4-0.6c0.1-0.2,0.1-0.4,0.1-0.7v-5.8
	c0-0.6,0.1-1.2,0.4-1.8c0.2-0.4,0.5-0.8,0.9-1.1c0.3-0.2,0.7-0.4,1.1-0.4c0.2,0,0.3,0,0.5,0.1c0.2,0,0.3,0.1,0.3,0.1
	c0.9,0.3,1.5,0.2,2-0.3c0.3-0.3,0.5-0.7,0.5-1.3c0-0.2-0.1-0.4-0.2-0.6S95.9,8,95.8,7.8z"/>
<path class="st0" d="M111.4,11.9c-0.2-0.2-0.3-0.3-0.5-0.4c-0.2-0.1-0.4-0.1-0.7-0.1h-4c-0.2,0-0.4,0-0.7,0.1
	c-0.2,0.1-0.4,0.2-0.6,0.4c-0.3,0.3-0.5,0.8-0.5,1.2c0,0.4,0.2,0.9,0.5,1.2c0.2,0.2,0.3,0.3,0.6,0.4c0.2,0.1,0.4,0.1,0.7,0.1h2v2.7
	c-0.4,0.1-0.8,0.2-1.2,0.3c-0.5,0.1-0.9,0.1-1.4,0.1c-1,0-1.9-0.3-2.7-0.7c-0.8-0.5-1.5-1.2-2-2c-0.5-0.8-0.7-1.8-0.7-2.8
	c0-1,0.3-1.9,0.7-2.8s1.2-1.5,2-2c0.8-0.5,1.8-0.8,2.7-0.7c0.9,0,1.8,0.2,2.6,0.5c0.8,0.4,1.5,0.2,2-0.3c0.3-0.3,0.5-0.8,0.5-1.2
	c0-0.3-0.1-0.6-0.2-0.8c-0.1-0.2-0.4-0.4-0.6-0.6c-1.2-0.7-2.6-1-4.3-1c-1.6,0-3.2,0.4-4.5,1.2c-1.4,0.8-2.5,1.9-3.3,3.2
	c-0.8,1.4-1.2,2.9-1.2,4.5c0,1.6,0.4,3.1,1.2,4.5c0.8,1.4,1.9,2.5,3.3,3.3c1.4,0.8,2.9,1.2,4.5,1.2c1.9,0,3.7-0.5,5.3-1.5
	c0.3-0.1,0.5-0.4,0.6-0.6c0.2-0.3,0.2-0.6,0.2-0.9v-5.1c0-0.2,0-0.4-0.1-0.7C111.7,12.3,111.6,12.1,111.4,11.9z"/>
<path class="st0" d="M121.9,7.8c-0.4-0.3-0.9-0.5-1.4-0.5c-0.8,0-1.6,0.2-2.4,0.6c-0.5,0.2-1,0.6-1.3,1c-0.1-0.3-0.2-0.6-0.4-0.8
	c-0.3-0.3-0.8-0.5-1.2-0.5s-0.9,0.2-1.2,0.5c-0.2,0.2-0.3,0.4-0.4,0.6c-0.1,0.2-0.1,0.4-0.1,0.7v10.1c0,0.2,0,0.5,0.1,0.7
	c0.1,0.2,0.2,0.4,0.4,0.6c0.3,0.3,0.8,0.5,1.2,0.5s0.9-0.2,1.2-0.5c0.2-0.2,0.3-0.4,0.4-0.6c0.1-0.2,0.1-0.4,0.1-0.7v-5.8
	c0-0.6,0.1-1.2,0.4-1.8c0.2-0.4,0.5-0.8,0.9-1.1c0.3-0.2,0.7-0.4,1.1-0.4c0.2,0,0.3,0,0.5,0.1c0.2,0,0.3,0.1,0.3,0.1
	c0.9,0.3,1.5,0.2,2-0.3c0.3-0.3,0.5-0.7,0.5-1.3c0-0.2-0.1-0.4-0.2-0.6C122.2,8.2,122.1,8,121.9,7.8z"/>
<path class="st0" d="M134.3,10.5c-0.6-1-1.4-1.8-2.4-2.5c-0.9-0.6-2-0.9-3.2-0.9c-1.1,0-2.2,0.3-3.2,0.9c-1,0.6-1.9,1.5-2.4,2.5
	c-0.6,1.2-0.9,2.5-0.9,3.8c0,1.2,0.3,2.4,0.9,3.5c0.6,1,1.4,1.9,2.5,2.4c0.9,0.5,2,0.8,3,0.9c1,0.1,2.1,0,3.1-0.4
	c0.7-0.2,1.3-0.6,1.9-1c0.5-0.4,0.8-0.9,0.8-1.4c0-0.2,0-0.4-0.1-0.6c-0.1-0.2-0.2-0.3-0.3-0.5c-0.5-0.5-1.2-0.6-2-0.2
	c-0.1,0-0.2,0.1-0.5,0.3c-0.3,0.2-0.5,0.3-0.8,0.4c-0.5,0.1-1,0.2-1.5,0.2c-0.8,0-1.6-0.3-2.2-0.8c-0.6-0.5-1-1.1-1.2-1.8h7.8
	c0.4,0,0.9-0.1,1.2-0.4c0.2-0.1,0.3-0.3,0.4-0.5s0.1-0.4,0.1-0.6C135.2,12.6,134.9,11.5,134.3,10.5z M128.7,10.3
	c0.7,0,1.4,0.2,1.9,0.7c0.2,0.2,0.5,0.4,0.6,0.7c0.2,0.3,0.3,0.5,0.3,0.8h-5.9C126.1,11,127.1,10.3,128.7,10.3L128.7,10.3z"/>
<path class="st0" d="M148.6,8c-0.2-0.2-0.3-0.3-0.5-0.4c-0.2-0.1-0.4-0.1-0.6-0.1c-0.4,0-0.7,0.1-1,0.3c-0.3,0.2-0.5,0.5-0.6,0.9
	c-0.4-0.3-0.9-0.6-1.4-0.8c-0.7-0.3-1.5-0.4-2.2-0.4c-1.1,0-2.1,0.3-3,0.9c-0.9,0.6-1.7,1.4-2.2,2.4c-0.5,1.1-0.8,2.3-0.8,3.5
	c0,1.2,0.3,2.4,0.8,3.5c0.5,1,1.3,1.8,2.2,2.4c0.9,0.6,2,0.9,3.1,0.9c0.8,0,1.5-0.2,2.2-0.5c0.5-0.2,1-0.5,1.4-0.9
	c0.1,0.3,0.2,0.5,0.4,0.7c0.2,0.2,0.3,0.3,0.5,0.4c0.2,0.1,0.4,0.1,0.6,0.1c0.2,0,0.4,0,0.6-0.1c0.2-0.1,0.4-0.2,0.5-0.4
	c0.2-0.2,0.3-0.3,0.4-0.5c0.1-0.2,0.1-0.4,0.1-0.6V9.2c0-0.2,0-0.4-0.1-0.6C148.9,8.3,148.8,8.1,148.6,8z M145.9,14.3
	c0,1.1-0.3,2-0.9,2.7c-0.3,0.3-0.7,0.6-1.1,0.8c-0.4,0.2-0.8,0.3-1.3,0.3s-0.9-0.1-1.3-0.3c-0.4-0.2-0.8-0.4-1.1-0.8
	c-0.6-0.7-0.9-1.6-0.9-2.7c0-1.1,0.3-2,0.9-2.7c0.3-0.3,0.7-0.6,1.1-0.8c0.4-0.2,0.8-0.3,1.3-0.3s0.9,0.1,1.3,0.3
	c0.4,0.2,0.8,0.5,1.1,0.8C145.6,12.3,145.9,13.2,145.9,14.3L145.9,14.3z"/>
<path class="st0" d="M157.9,17.9c-0.2,0-0.4,0-0.6,0.1c-0.2,0.1-0.3,0.1-0.5,0.1c-0.2,0-0.4-0.1-0.6-0.2c-0.1-0.1-0.1-0.2-0.2-0.3
	c0-0.1,0-0.2,0-0.3V11h1.5c0.2,0,0.4,0,0.6-0.1c0.2-0.1,0.4-0.2,0.5-0.3c0.2-0.1,0.3-0.3,0.3-0.5c0.1-0.2,0.1-0.4,0.1-0.6
	c0-0.2,0-0.4-0.1-0.6s-0.2-0.4-0.3-0.5c-0.2-0.2-0.3-0.3-0.5-0.3c-0.2-0.1-0.4-0.1-0.6-0.1H156v-2c0-0.2,0-0.5-0.1-0.7
	c-0.1-0.2-0.2-0.4-0.4-0.6c-0.2-0.2-0.3-0.3-0.5-0.4c-0.2-0.1-0.4-0.1-0.7-0.1c-0.2,0-0.5,0-0.7,0.1c-0.2,0.1-0.4,0.2-0.6,0.4
	c-0.2,0.2-0.3,0.4-0.4,0.6c-0.1,0.2-0.1,0.4-0.1,0.7v2h-0.9c-0.2,0-0.4,0-0.6,0.1s-0.4,0.2-0.5,0.3c-0.2,0.1-0.3,0.3-0.3,0.5
	s-0.1,0.4-0.1,0.6c0,0.2,0,0.4,0.1,0.6c0.1,0.2,0.2,0.4,0.3,0.5c0.1,0.2,0.3,0.3,0.5,0.3c0.2,0.1,0.4,0.1,0.6,0.1h0.9v6.5
	c0,1.5,0.4,2.5,1.2,2.9c0.7,0.5,1.6,0.7,2.7,0.7c0.6,0,1.2-0.2,1.8-0.5c0.6-0.3,0.8-0.8,0.8-1.3c0-0.4-0.1-0.7-0.3-1
	c-0.1-0.1-0.2-0.2-0.4-0.3C158.2,18,158,17.9,157.9,17.9z"/>
<path class="st1" d="M17.9,0c-3.5,0-7,1-9.9,3C5,5,2.7,7.8,1.4,11c-1.4,3.3-1.7,6.8-1,10.3C1,24.8,2.7,28,5.2,30.5
	c2.5,2.5,5.7,4.2,9.2,4.9c3.5,0.7,7.1,0.3,10.3-1s6.1-3.6,8-6.6c2-2.9,3-6.4,3-9.9c0-4.7-1.9-9.3-5.2-12.6C27.2,1.9,22.6,0,17.9,0z
	 M17.9,34.4c-3.3,0-6.5-1-9.2-2.8c-2.7-1.8-4.9-4.4-6.1-7.4c-1.3-3-1.6-6.3-0.9-9.6c0.6-3.2,2.2-6.2,4.5-8.5
	c2.3-2.3,5.3-3.9,8.5-4.5c3.2-0.6,6.6-0.3,9.6,0.9c3,1.3,5.6,3.4,7.4,6.1c1.8,2.7,2.8,5.9,2.8,9.2c0,2.2-0.4,4.3-1.3,6.3
	c-0.8,2-2.1,3.8-3.6,5.4s-3.4,2.8-5.4,3.6C22.2,34,20.1,34.4,17.9,34.4z"/>
<path class="st2" d="M17.9,2.9c-2.9,0-5.8,0.9-8.2,2.5S5.4,9.3,4.2,12c-1.1,2.7-1.4,5.7-0.8,8.5s2,5.5,4,7.5c2.1,2.1,4.7,3.5,7.6,4
	c2.9,0.6,5.8,0.3,8.5-0.8c2.7-1.1,5-3,6.6-5.4c1.6-2.4,2.5-5.3,2.5-8.2c0-1.9-0.4-3.8-1.1-5.6c-0.7-1.8-1.8-3.4-3.2-4.8
	c-1.4-1.4-3-2.5-4.8-3.2C21.8,3.3,19.8,2.9,17.9,2.9z M21.7,20.2c0,0.8-0.1,1.7-0.5,2.4c-0.3,0.8-0.8,1.5-1.4,2.1
	c-0.6,0.6-1.3,1.1-2.1,1.4c-0.8,0.3-1.6,0.5-2.4,0.5c-0.8,0-1.7-0.2-2.4-0.5c-0.8-0.3-1.5-0.8-2.1-1.4c-0.6-0.6-1.1-1.3-1.4-2.1
	C9.2,21.9,9,21,9,20.2c0-0.2,0-0.3,0.1-0.5c0.1-0.2,0.2-0.3,0.3-0.4c0.1-0.1,0.3-0.2,0.4-0.3c0.2-0.1,0.3-0.1,0.5-0.1
	c0.2,0,0.3,0,0.5,0.1c0.2,0.1,0.3,0.2,0.4,0.3c0.1,0.1,0.2,0.3,0.3,0.4c0.1,0.2,0.1,0.3,0.1,0.5c0,1,0.4,1.9,1.1,2.6
	c0.7,0.7,1.7,1.1,2.7,1.1c1,0,1.9-0.4,2.7-1.1c0.7-0.7,1.1-1.6,1.1-2.6v-5.1c0-0.3,0.2-0.6,0.4-0.9c0.2-0.2,0.6-0.4,0.9-0.4
	c0.3,0,0.6,0.1,0.9,0.4c0.2,0.2,0.4,0.5,0.4,0.9L21.7,20.2z M25.5,16.4c-0.2,0-0.3,0-0.5-0.1c-0.2-0.1-0.3-0.2-0.4-0.3
	c-0.1-0.1-0.2-0.3-0.3-0.4c-0.1-0.2-0.1-0.3-0.1-0.5c0-0.5-0.1-1-0.3-1.5c-0.2-0.5-0.5-0.9-0.8-1.3c-0.3-0.4-0.8-0.7-1.2-0.9
	c-0.5-0.2-1-0.3-1.5-0.3c-0.5,0-1,0.1-1.5,0.3c-0.5,0.2-0.9,0.5-1.3,0.8c-0.4,0.3-0.6,0.8-0.8,1.2c-0.2,0.5-0.3,1-0.3,1.5v5.2
	c0,0.2,0,0.3-0.1,0.5c-0.1,0.2-0.2,0.3-0.3,0.4c-0.1,0.1-0.3,0.2-0.4,0.3c-0.2,0.1-0.3,0.1-0.5,0.1c-0.2,0-0.3,0-0.5-0.1
	c-0.2-0.1-0.3-0.2-0.4-0.3c-0.1-0.1-0.2-0.3-0.3-0.4c-0.1-0.2-0.1-0.3-0.1-0.5v-5.1c0-1.7,0.7-3.2,1.9-4.4c1.2-1.2,2.8-1.8,4.4-1.8
	s3.3,0.7,4.4,1.8s1.9,2.7,1.9,4.4c0,0.2,0,0.3-0.1,0.5c-0.1,0.2-0.2,0.3-0.3,0.4c-0.1,0.1-0.3,0.2-0.4,0.3
	C25.8,16.3,25.7,16.4,25.5,16.4z"/>
<path class="st0" d="M15.4,26.7c0.8,0,1.7-0.2,2.4-0.5c0.8-0.3,1.5-0.8,2.1-1.4c0.6-0.6,1.1-1.3,1.4-2c0.3-0.8,0.5-1.6,0.5-2.4v-5.1
	c0-0.3-0.2-0.6-0.4-0.9c-0.2-0.2-0.6-0.4-0.9-0.4c-0.3,0-0.6,0.1-0.9,0.4c-0.2,0.2-0.4,0.5-0.4,0.9v5.1c0,1-0.4,1.9-1.1,2.6
	c-0.7,0.7-1.7,1.1-2.7,1.1s-1.9-0.4-2.7-1.1c-0.7-0.7-1.1-1.6-1.1-2.6c0-0.2,0-0.3-0.1-0.5c-0.1-0.2-0.2-0.3-0.3-0.4
	c-0.1-0.1-0.3-0.2-0.4-0.3c-0.2-0.1-0.3-0.1-0.5-0.1s-0.3,0-0.5,0.1c-0.2,0.1-0.3,0.2-0.4,0.3c-0.1,0.1-0.2,0.3-0.3,0.4
	C9.1,20.1,9,20.2,9,20.4c0,1.7,0.7,3.3,1.9,4.5C12.1,26,13.7,26.7,15.4,26.7z"/>
<path class="st0" d="M20.5,9.1c-0.8,0-1.7,0.1-2.4,0.4c-0.8,0.3-1.5,0.8-2.1,1.3c-0.6,0.6-1.1,1.3-1.4,2c-0.3,0.8-0.5,1.6-0.5,2.4
	v5.1c0,0.2,0,0.3,0.1,0.5c0.1,0.2,0.2,0.3,0.3,0.4c0.1,0.1,0.3,0.2,0.4,0.3c0.2,0.1,0.3,0.1,0.5,0.1s0.3,0,0.5-0.1
	c0.2-0.1,0.3-0.2,0.4-0.3c0.1-0.1,0.2-0.3,0.3-0.4c0.1-0.2,0.1-0.3,0.1-0.5v-5.2c0-0.5,0.1-1,0.3-1.5c0.2-0.5,0.5-0.9,0.8-1.2
	c0.4-0.3,0.8-0.6,1.3-0.8c0.5-0.2,1-0.3,1.5-0.3c0.5,0,1,0.1,1.5,0.3c0.5,0.2,0.9,0.5,1.2,0.9c0.3,0.4,0.6,0.8,0.8,1.3
	c0.2,0.5,0.3,1,0.3,1.5c0,0.2,0,0.3,0.1,0.5c0.1,0.2,0.2,0.3,0.3,0.4c0.1,0.1,0.3,0.2,0.4,0.3c0.2,0.1,0.3,0.1,0.5,0.1
	c0.3,0,0.7-0.1,0.9-0.4c0.2-0.2,0.4-0.6,0.4-0.9c0-1.6-0.7-3.2-1.9-4.4C23.7,9.8,22.2,9.1,20.5,9.1z"/>
<path class="st0" d="M49.2,32c0,0,0.1,0.1,0.1,0.1c0,0.1,0,0.1,0,0.2c0,0.1,0,0.1,0,0.2s-0.1,0.1-0.1,0.1c-0.1,0.1-0.2,0.1-0.3,0.1
	h-3.4c-0.1,0-0.1,0-0.2,0c-0.1,0-0.1-0.1-0.2-0.1c0,0-0.1-0.1-0.1-0.2c0-0.1,0-0.1,0-0.2v-5.9c0-0.1,0-0.1,0-0.2
	c0-0.1,0.1-0.1,0.1-0.2c0,0,0.1-0.1,0.2-0.1c0.1,0,0.1,0,0.2,0h3.4c0.1,0,0.1,0,0.2,0c0.1,0,0.1,0.1,0.2,0.1c0,0,0.1,0.1,0.1,0.2
	c0,0.1,0,0.1,0,0.2c0,0.1,0,0.1,0,0.2c0,0.1-0.1,0.1-0.1,0.1c-0.1,0.1-0.2,0.1-0.3,0.1H46v2h2.5c0.1,0,0.1,0,0.2,0
	c0.1,0,0.1,0.1,0.2,0.1c0,0,0.1,0.1,0.1,0.1c0,0.1,0,0.1,0,0.2c0,0.1,0,0.1,0,0.2c0,0.1-0.1,0.1-0.1,0.1c-0.1,0.1-0.2,0.1-0.3,0.1
	H46v2.2h2.9c0.1,0,0.1,0,0.2,0C49.1,31.9,49.2,32,49.2,32z"/>
<path class="st0" d="M56.8,26.4c0.4,0.3,0.8,0.7,1,1.2c0.4,1.1,0.4,2.4,0,3.5c-0.2,0.5-0.5,0.9-1,1.2c-0.5,0.3-1,0.5-1.6,0.5h-2.4
	c-0.1,0-0.1,0-0.2,0c-0.1,0-0.1-0.1-0.2-0.1c0,0-0.1-0.1-0.1-0.2c0-0.1,0-0.1,0-0.2v-5.9c0-0.1,0-0.1,0-0.2c0-0.1,0.1-0.1,0.1-0.2
	c0,0,0.1-0.1,0.2-0.1c0.1,0,0.1,0,0.2,0h2.4C55.7,25.9,56.3,26.1,56.8,26.4z M56.6,31.2c0.3-0.5,0.5-1.2,0.5-1.8
	c0-0.6-0.2-1.3-0.5-1.8c-0.3-0.5-0.8-0.7-1.5-0.7h-1.8v5.1h1.8C55.7,31.9,56.2,31.6,56.6,31.2L56.6,31.2z"/>
<path class="st0" d="M66.2,26c0.1,0.1,0.1,0.2,0.1,0.3v3.8c0,0.5-0.1,1-0.3,1.4c-0.2,0.4-0.5,0.7-0.9,1c-0.4,0.2-0.9,0.4-1.4,0.4
	c-0.5,0-1-0.1-1.4-0.4c-0.4-0.2-0.7-0.6-1-1c-0.2-0.4-0.4-0.9-0.3-1.4v-3.8c0-0.1,0-0.1,0-0.2c0-0.1,0.1-0.1,0.1-0.2
	c0,0,0.1-0.1,0.2-0.1c0.1,0,0.1,0,0.2,0c0.1,0,0.1,0,0.2,0c0.1,0,0.1,0.1,0.2,0.1c0,0,0.1,0.1,0.1,0.2c0,0.1,0,0.1,0,0.2v3.8
	c0,0.3,0.1,0.6,0.2,0.9c0.1,0.3,0.4,0.5,0.6,0.6c0.3,0.1,0.5,0.2,0.8,0.2c0.3,0,0.6-0.1,0.9-0.2c0.3-0.1,0.5-0.4,0.6-0.6
	c0.2-0.3,0.2-0.6,0.2-0.9v-3.8c0-0.1,0-0.2,0.1-0.3c0,0,0.1-0.1,0.1-0.1c0.1,0,0.1,0,0.2,0c0.1,0,0.1,0,0.2,0
	C66.1,26,66.2,26,66.2,26z"/>
<path class="st0" d="M74.8,26.7c0,0.1,0,0.2-0.1,0.3c0,0.1-0.1,0.1-0.1,0.1c-0.1,0-0.1,0-0.2,0c-0.1,0-0.2,0-0.3-0.1
	c-0.4-0.2-0.9-0.3-1.3-0.3c-0.5,0-0.9,0.1-1.3,0.3c-0.4,0.2-0.7,0.5-0.9,0.9c-0.2,0.4-0.3,0.9-0.3,1.3c0,0.5,0.1,1,0.3,1.4
	c0.2,0.4,0.5,0.7,0.9,0.9c0.4,0.2,0.8,0.3,1.3,0.3c0.5,0,0.9-0.1,1.3-0.4c0.1,0,0.2-0.1,0.3-0.1c0.1,0,0.1,0,0.2,0
	c0.1,0,0.1,0.1,0.2,0.1c0.1,0.1,0.1,0.2,0.1,0.3c0,0.1,0,0.2-0.1,0.2c0,0.1-0.1,0.1-0.2,0.2c-0.3,0.2-0.6,0.3-0.9,0.3
	c-0.3,0.1-0.6,0.1-0.9,0.1c-0.6,0-1.2-0.1-1.8-0.4c-0.5-0.3-1-0.7-1.3-1.2c-0.3-0.6-0.5-1.2-0.5-1.9c0-0.6,0.2-1.2,0.5-1.8
	c0.3-0.5,0.7-1,1.3-1.2c0.6-0.3,1.2-0.5,1.8-0.5s1.2,0.2,1.8,0.5c0.1,0,0.1,0.1,0.2,0.2C74.8,26.5,74.8,26.6,74.8,26.7z"/>
<path class="st0" d="M82.9,32.4c0,0.1,0,0.1,0,0.2c0,0.1-0.1,0.1-0.1,0.1s-0.1,0.1-0.1,0.1c-0.1,0-0.1,0-0.2,0c-0.1,0-0.2,0-0.3-0.1
	c-0.1-0.1-0.1-0.1-0.2-0.2l-0.6-1.4h-3l-0.6,1.5c0,0.1-0.1,0.2-0.2,0.2c-0.1,0.1-0.2,0.1-0.3,0.1c-0.1,0-0.1,0-0.2,0s-0.1,0-0.1-0.1
	c0,0-0.1-0.1-0.1-0.1c0,0,0-0.1,0-0.2c0-0.1,0-0.1,0-0.2l2.5-6.1c0-0.1,0.1-0.2,0.2-0.2c0.1-0.1,0.2-0.1,0.3-0.1
	c0.1,0,0.2,0,0.3,0.1c0.1,0.1,0.1,0.1,0.2,0.2l2.5,6C82.9,32.2,82.9,32.3,82.9,32.4z M78.8,30.2h2.3l-1.2-2.7L78.8,30.2z"/>
<path class="st0" d="M89.9,26c0,0,0.1,0.1,0.1,0.1c0,0.1,0,0.1,0,0.2c0,0.1,0,0.1,0,0.2c0,0.1-0.1,0.1-0.1,0.1
	c-0.1,0.1-0.2,0.1-0.3,0.1h-1.8v5.5c0,0.1,0,0.1,0,0.2c0,0.1-0.1,0.1-0.1,0.2c-0.1,0.1-0.2,0.1-0.4,0.1c-0.1,0-0.3,0-0.4-0.1
	c0,0-0.1-0.1-0.1-0.2c0-0.1,0-0.1,0-0.2v-5.5h-1.7c-0.1,0-0.2,0-0.3-0.1c0,0-0.1-0.1-0.1-0.1c0-0.1,0-0.1,0-0.2c0-0.1,0-0.1,0-0.2
	c0-0.1,0.1-0.1,0.1-0.1c0.1-0.1,0.2-0.1,0.3-0.1h4.5C89.7,25.9,89.8,25.9,89.9,26z"/>
<path class="st0" d="M93.7,32.6c-0.1,0.1-0.2,0.1-0.3,0.1c-0.1,0-0.1,0-0.2,0c-0.1,0-0.1-0.1-0.2-0.1c0,0-0.1-0.1-0.1-0.2
	c0-0.1,0-0.1,0-0.2v-5.9c0-0.1,0-0.1,0-0.2c0-0.1,0.1-0.1,0.1-0.2c0,0,0.1-0.1,0.2-0.1c0.1,0,0.1,0,0.2,0c0.1,0,0.1,0,0.2,0
	c0.1,0,0.1,0.1,0.2,0.1c0,0,0.1,0.1,0.1,0.2c0,0.1,0,0.1,0,0.2v5.9c0,0.1,0,0.1,0,0.2C93.8,32.5,93.7,32.6,93.7,32.6z"/>
<path class="st0" d="M103,31.1c-0.3,0.5-0.7,1-1.2,1.3c-0.5,0.3-1.1,0.5-1.7,0.5c-0.6,0-1.2-0.2-1.7-0.5c-0.5-0.3-0.9-0.7-1.2-1.3
	c-0.3-0.6-0.4-1.2-0.4-1.8c0-0.6,0.1-1.2,0.4-1.8c0.3-0.5,0.7-1,1.2-1.3c0.5-0.3,1.1-0.5,1.7-0.5c0.6,0,1.2,0.2,1.7,0.5
	c0.5,0.3,0.9,0.7,1.2,1.3c0.3,0.6,0.4,1.2,0.4,1.8C103.4,30,103.3,30.6,103,31.1z M102.1,28c-0.2-0.4-0.5-0.7-0.8-0.9
	c-0.4-0.2-0.8-0.3-1.2-0.3c-0.4,0-0.8,0.1-1.2,0.3c-0.4,0.2-0.6,0.5-0.8,0.9c-0.2,0.4-0.3,0.9-0.3,1.3c0,0.5,0.1,0.9,0.3,1.3
	c0.2,0.4,0.5,0.7,0.8,0.9c0.4,0.2,0.8,0.3,1.2,0.3c0.4,0,0.8-0.1,1.2-0.3c0.4-0.2,0.6-0.6,0.8-0.9c0.2-0.4,0.3-0.9,0.3-1.3
	S102.3,28.4,102.1,28L102.1,28z"/>
<path class="st0" d="M111.8,26c0,0,0.1,0.1,0.1,0.1c0,0.1,0,0.1,0,0.2v6c0,0.1,0,0.1,0,0.2c0,0.1-0.1,0.1-0.1,0.2s-0.1,0.1-0.2,0.1
	c-0.1,0-0.1,0-0.2,0c-0.1,0-0.1,0-0.2,0c-0.1,0-0.1-0.1-0.2-0.1l-3.9-5v4.7c0,0.1,0,0.1,0,0.2c0,0.1-0.1,0.1-0.1,0.1
	c0,0-0.1,0.1-0.1,0.1c-0.1,0-0.1,0-0.2,0c-0.1,0-0.1,0-0.2,0c-0.1,0-0.1-0.1-0.1-0.1c0,0-0.1-0.1-0.1-0.1c0-0.1,0-0.1,0-0.2v-6
	c0-0.1,0-0.1,0-0.2c0-0.1,0.1-0.1,0.1-0.2c0,0,0.1-0.1,0.2-0.1c0.1,0,0.1,0,0.2,0c0.1,0,0.2,0,0.2,0c0.1,0,0.1,0.1,0.2,0.1l3.9,5
	v-4.8c0-0.1,0-0.1,0-0.2c0-0.1,0.1-0.1,0.1-0.1c0,0,0.1-0.1,0.1-0.1c0.1,0,0.1,0,0.2,0c0.1,0,0.1,0,0.2,0
	C111.7,26,111.7,26,111.8,26z"/>
<path class="st0" d="M125,29.3c0,0,0.1,0.1,0.1,0.2s0,0.1,0,0.2v2.2c0,0.1,0,0.2-0.1,0.2c0,0.1-0.1,0.1-0.2,0.2
	c-0.6,0.4-1.4,0.6-2.1,0.6c-0.6,0-1.3-0.2-1.8-0.5c-0.5-0.3-1-0.8-1.3-1.3c-0.3-0.5-0.5-1.1-0.5-1.8c0-0.6,0.2-1.2,0.5-1.8
	c0.3-0.5,0.8-1,1.3-1.3c0.5-0.3,1.2-0.5,1.8-0.5c0.3,0,0.6,0,0.9,0.1c0.3,0.1,0.6,0.2,0.8,0.3c0.1,0,0.1,0.1,0.2,0.2
	c0,0.1,0.1,0.1,0.1,0.2c0,0.1,0,0.2-0.1,0.3c0,0-0.1,0.1-0.1,0.1c-0.1,0-0.1,0-0.2,0c-0.1,0-0.2,0-0.3-0.1c-0.4-0.2-0.8-0.3-1.3-0.3
	c-0.5,0-0.9,0.1-1.3,0.3c-0.4,0.2-0.7,0.6-0.9,0.9c-0.2,0.4-0.3,0.9-0.3,1.3c0,0.5,0.1,0.9,0.3,1.3c0.2,0.4,0.5,0.7,0.9,0.9
	c0.4,0.2,0.8,0.4,1.3,0.4c0.2,0,0.5,0,0.7-0.1c0.2,0,0.4-0.1,0.6-0.2v-1.6h-1.2c-0.1,0-0.1,0-0.2,0c-0.1,0-0.1-0.1-0.2-0.1
	c0,0-0.1-0.1-0.1-0.1c0-0.1,0-0.1,0-0.2c0-0.1,0-0.1,0-0.2c0-0.1,0.1-0.1,0.1-0.2c0,0,0.1-0.1,0.2-0.1c0.1,0,0.1,0,0.2,0h1.7
	c0.1,0,0.1,0,0.2,0C124.9,29.2,124.9,29.3,125,29.3z"/>
<path class="st0" d="M133.5,32.2c0,0.1,0.1,0.1,0.1,0.2c0,0.1,0,0.1,0,0.2c0,0.1-0.1,0.1-0.1,0.1c-0.1,0.1-0.2,0.1-0.3,0.1
	c-0.1,0-0.2,0-0.3-0.1c-0.2-0.1-0.4-0.3-0.5-0.5c-0.1-0.3-0.2-0.7-0.2-1.1c0-0.1,0-0.3-0.1-0.4c-0.1-0.1-0.1-0.2-0.2-0.3
	c-0.2-0.2-0.5-0.2-0.8-0.2h-2v2.2c0,0.1,0,0.2-0.1,0.3c0,0-0.1,0.1-0.1,0.1c-0.1,0-0.1,0-0.2,0c-0.1,0-0.3,0-0.4-0.1
	c0,0-0.1-0.1-0.1-0.1c0-0.1,0-0.1,0-0.2v-5.9c0-0.1,0-0.1,0-0.2c0-0.1,0.1-0.1,0.1-0.2s0.1-0.1,0.2-0.1c0.1,0,0.1,0,0.2,0h2.8
	c0.3,0,0.7,0.1,1,0.3c0.3,0.2,0.5,0.4,0.7,0.7c0.2,0.3,0.3,0.7,0.3,1c0,0.4-0.1,0.7-0.3,1c-0.2,0.3-0.4,0.6-0.8,0.7
	c0.2,0.1,0.4,0.3,0.6,0.5c0.1,0.2,0.2,0.5,0.2,0.8c0,0.3,0,0.5,0.1,0.8c0,0.1,0,0.1,0.1,0.2c0,0,0.1,0.1,0.1,0.1
	C133.4,32,133.5,32.1,133.5,32.2z M131.8,29.1c0.2-0.1,0.3-0.3,0.4-0.5c0.1-0.2,0.1-0.4,0.1-0.7c0-0.3-0.1-0.6-0.3-0.8
	c-0.1-0.1-0.2-0.2-0.3-0.2c-0.1-0.1-0.3-0.1-0.4-0.1h-2.2v2.5h2.2C131.5,29.3,131.7,29.2,131.8,29.1z"/>
<path class="st0" d="M142.2,31.1c-0.3,0.5-0.7,1-1.2,1.3c-0.5,0.3-1.1,0.5-1.7,0.5c-0.6,0-1.2-0.2-1.7-0.5c-0.5-0.3-0.9-0.7-1.2-1.3
	c-0.3-0.6-0.4-1.2-0.4-1.8c0-0.6,0.1-1.2,0.4-1.8c0.3-0.5,0.7-1,1.2-1.3c0.5-0.3,1.1-0.5,1.7-0.5c0.6,0,1.2,0.2,1.7,0.5
	c0.5,0.3,0.9,0.7,1.2,1.3c0.3,0.6,0.4,1.2,0.4,1.8C142.6,30,142.5,30.6,142.2,31.1z M141.3,28c-0.2-0.4-0.5-0.7-0.8-0.9
	c-0.4-0.2-0.8-0.3-1.2-0.3c-0.4,0-0.8,0.1-1.2,0.3c-0.4,0.2-0.6,0.5-0.8,0.9c-0.2,0.4-0.3,0.9-0.3,1.3c0,0.5,0.1,0.9,0.3,1.3
	c0.2,0.4,0.5,0.7,0.8,0.9c0.4,0.2,0.8,0.3,1.2,0.3c0.4,0,0.8-0.1,1.2-0.3c0.4-0.2,0.6-0.6,0.8-0.9c0.2-0.4,0.3-0.9,0.3-1.3
	S141.5,28.4,141.3,28L141.3,28z"/>
<path class="st0" d="M150.8,26c0.1,0.1,0.1,0.2,0.1,0.3v3.8c0,0.5-0.1,1-0.3,1.4c-0.2,0.4-0.5,0.7-1,1c-0.4,0.2-0.9,0.4-1.4,0.4
	c-0.5,0-1-0.1-1.4-0.4c-0.4-0.2-0.7-0.6-1-1c-0.2-0.4-0.4-0.9-0.3-1.4v-3.8c0-0.1,0-0.1,0-0.2c0-0.1,0.1-0.1,0.1-0.2
	c0,0,0.1-0.1,0.2-0.1c0.1,0,0.1,0,0.2,0c0.1,0,0.1,0,0.2,0c0.1,0,0.1,0.1,0.1,0.1c0,0,0.1,0.1,0.1,0.2c0,0.1,0,0.1,0,0.2v3.8
	c0,0.3,0.1,0.6,0.2,0.9c0.1,0.3,0.4,0.5,0.6,0.6c0.3,0.1,0.6,0.2,0.8,0.2c0.3,0,0.6-0.1,0.9-0.2c0.3-0.2,0.5-0.4,0.6-0.6
	c0.2-0.3,0.2-0.6,0.2-0.9v-3.8c0-0.1,0-0.2,0.1-0.3c0,0,0.1-0.1,0.1-0.1s0.1,0,0.2,0c0.1,0,0.1,0,0.2,0C150.7,26,150.7,26,150.8,26z
	"/>
<path class="st0" d="M157.9,26.2c0.3,0.2,0.5,0.5,0.7,0.8c0.2,0.3,0.3,0.7,0.3,1.1c0,0.4-0.1,0.7-0.3,1.1c-0.2,0.3-0.4,0.6-0.7,0.8
	c-0.3,0.2-0.6,0.3-1,0.3h-1.9v2.2c0,0.1,0,0.2-0.1,0.3c-0.1,0.1-0.2,0.1-0.3,0.1c-0.1,0-0.2,0-0.3-0.1c-0.1-0.1-0.1-0.2-0.1-0.3
	v-5.9c0-0.1,0-0.1,0-0.2c0-0.1,0.1-0.1,0.1-0.2c0,0,0.1-0.1,0.2-0.1c0.1,0,0.1,0,0.2,0h2.3C157.3,25.9,157.6,26,157.9,26.2z
	 M157.5,29.1c0.2-0.1,0.3-0.3,0.4-0.5c0.1-0.2,0.1-0.4,0.1-0.6c0-0.3-0.1-0.6-0.3-0.8c-0.1-0.1-0.2-0.2-0.3-0.3
	c-0.1-0.1-0.3-0.1-0.4-0.1h-1.8v2.4h1.9C157.1,29.2,157.3,29.2,157.5,29.1z"/>
</svg>
