<svg width="215" height="154" viewBox="0 0 215 154" fill="none" xmlns="http://www.w3.org/2000/svg">
<path d="M43.1936 30.9352C43.5721 30.5792 43.5903 29.9837 43.2344 29.6053C42.8785 29.2268 42.2827 29.2085 41.9045 29.5644L39.8878 31.4611L31.813 28.3116L13.8151 21.2918L50.7787 20.8425C50.8082 20.8421 50.8864 20.8412 50.9268 20.9412C50.9672 21.0413 50.91 21.0949 50.8886 21.1151L45.0918 26.5669C44.7133 26.9228 44.695 27.5183 45.0509 27.8968C45.4069 28.2753 46.0025 28.2935 46.3808 27.9376L52.1776 22.4858C52.7947 21.9055 52.9887 21.0229 52.6717 20.2373C52.3546 19.4517 51.6027 18.9508 50.7557 18.9611L8.95341 19.4691C8.90829 19.4696 8.86265 19.4738 8.81805 19.4809C8.76788 19.4889 8.71669 19.5017 8.66845 19.5177C8.66691 19.5183 8.66524 19.5186 8.66265 19.5197C8.32614 19.6429 8.09323 19.9075 8.03619 20.2632C8.0161 20.3882 8.02158 20.5171 8.05255 20.6399C8.05296 20.6414 10.5559 30.5669 10.5559 30.5669C10.683 31.0707 11.1944 31.3762 11.6982 31.2492C12.2022 31.1221 12.5075 30.6107 12.3805 30.1069L10.5269 22.7569L32.8433 39.4885L30.665 41.5257L18.3952 53.001C18.308 53.0824 18.1641 53.0414 18.1346 52.9243C18.1256 52.8886 13.4552 34.368 13.4552 34.368C13.3282 33.8643 12.8167 33.5587 12.3129 33.6858C11.8093 33.8134 11.5036 34.3243 11.6307 34.8281L16.3101 53.3844C16.4884 54.0916 17.0127 54.6365 17.7124 54.8423C18.2482 54.9998 18.8052 54.9343 19.2758 54.6713C19.4197 54.5909 19.5557 54.4919 19.6804 54.3752L29.7089 44.996C30.442 45.0245 41.0561 45.4372 41.0561 45.4372C41.3164 45.4474 41.5885 45.338 41.7699 45.1497C41.9534 44.9592 42.0522 44.6832 42.0303 44.4192C42.03 44.4165 41.2557 35.1038 41.0746 32.9279L43.1936 30.9352ZM31.6419 43.1883L34.3723 40.6347L38.114 43.44L31.6419 43.1883ZM39.9816 42.4883L15.0415 23.7898L39.2106 33.2167L39.9816 42.4883Z" fill="white"/>
<path d="M49.8472 31.6611C49.4729 31.3007 48.8772 31.3121 48.517 31.6861C48.1565 32.0604 48.1677 32.656 48.542 33.0163C50.0285 34.4481 52.1437 35.1963 54.2 35.0177C54.3371 35.0058 54.4645 34.9652 54.5772 34.9022C54.8905 34.7272 55.0889 34.3797 55.0559 33.9991C55.0109 33.4815 54.5549 33.0983 54.0373 33.1433C52.5145 33.2755 50.9481 32.7214 49.8472 31.6611Z" fill="white"/>
<path d="M52.294 27.6053C51.8553 27.3268 51.274 27.4565 50.9955 27.8954C50.717 28.334 50.8469 28.9154 51.2856 29.1938C53.6 30.6632 56.5513 31.0762 59.1804 30.2986C59.2489 30.2783 59.3134 30.251 59.3733 30.2176C59.7487 30.0078 59.9427 29.5594 59.8157 29.1297C59.6683 28.6315 59.1449 28.347 58.6466 28.4944C56.531 29.12 54.1564 28.7877 52.294 27.6053Z" fill="white"/>
<path d="M29.9705 50.5771C29.6253 50.9655 29.6604 51.5601 30.0487 51.9053C31.1911 52.9207 31.8651 54.4394 31.8512 55.9678C31.8466 56.4874 32.2639 56.9123 32.7834 56.917C32.9528 56.9185 33.1123 56.8752 33.2503 56.7981C33.5355 56.6387 33.7296 56.3349 33.7328 55.9847C33.7514 53.9208 32.8415 51.87 31.2988 50.4987C30.9104 50.1536 30.3154 50.1888 29.9705 50.5771Z" fill="white"/>
<path d="M26.3833 53.3422C25.9676 53.6538 25.8832 54.2436 26.1948 54.6593C27.518 56.4244 28.0335 58.7662 27.5736 60.9239C27.4653 61.4321 27.7896 61.9319 28.2977 62.0401C28.5299 62.0897 28.7602 62.0487 28.9524 61.9414C29.1807 61.8138 29.3551 61.592 29.414 61.316C29.9853 58.6345 29.3448 55.7242 27.7005 53.5307C27.3888 53.1149 26.7994 53.0302 26.3833 53.3422Z" fill="white"/>
<path d="M43.5815 46.1056C50.2691 54.8862 70.0186 71.6747 95.5162 68.5843C127.388 64.7213 137.115 53.5824 156.177 55.3239C175.238 57.0653 194.78 95.6078 178.082 98.774C161.385 101.94 157.3 86.6742 162.389 81.9342C167.478 77.1942 183.082 62.9511 201.86 70.4566C220.638 77.9621 216.815 150.877 123.94 148.086" stroke="white" stroke-width="2" stroke-dasharray="8 8"/>
</svg>
