<svg width="20" height="21" viewBox="0 0 20 21" fill="none" xmlns="http://www.w3.org/2000/svg">
<g clip-path="url(#clip0_615_10420)">
<path d="M18.5306 14.5749V12.9414L11.4523 7.71972C11.4739 6.34352 11.4721 4.95138 11.4287 3.53204C11.3495 1.85509 10.6999 0.5 9.99968 0.5C9.29964 0.5 8.65012 1.85509 8.57096 3.53204C8.52755 4.95138 8.52575 6.34355 8.54736 7.71972L1.46875 12.9414V14.5749L8.66282 11.6117C8.75315 13.8199 8.86358 16.008 8.94304 18.2086L6.75291 19.4213V20.5L9.99968 19.9336L13.2462 20.5V19.4213L11.0566 18.2086C11.1358 16.008 11.2459 13.8199 11.3368 11.6117L18.5306 14.5749Z" fill="white"/>
<path d="M5.95608 8.79614H4.63184V11.019H5.95608V8.79614Z" fill="white"/>
<path d="M15.3682 8.79614H14.0439V11.019H15.3682V8.79614Z" fill="white"/>
</g>
<defs>
<clipPath id="clip0_615_10420">
<rect width="20" height="20" fill="white" transform="translate(0 0.5)"/>
</clipPath>
</defs>
</svg>
