<svg width="20" height="21" viewBox="0 0 20 21" fill="none" xmlns="http://www.w3.org/2000/svg">
<g clip-path="url(#clip0_615_10400)">
<path d="M10.3574 18.3065C10.9875 18.1461 11.4285 17.5788 11.4285 16.9286C11.4285 16.2785 10.9875 15.7111 10.3574 15.5508V18.3065Z" fill="white"/>
<path d="M9.99972 9.78589C7.04105 9.78589 4.64258 12.1844 4.64258 15.143C4.64258 18.1017 7.04105 20.5002 9.99972 20.5002C12.9584 20.5002 15.3569 18.1017 15.3569 15.143C15.3535 12.1858 12.957 9.78923 9.99972 9.78589ZM12.1426 16.9287C12.1406 17.9733 11.3866 18.8645 10.3569 19.0395V19.4287C10.3569 19.626 10.197 19.7859 9.99972 19.7859C9.80248 19.7859 9.64258 19.626 9.64258 19.4287V19.0395C8.61283 18.8645 7.8588 17.9733 7.85686 16.9287C7.85686 16.7315 8.01676 16.5716 8.21401 16.5716C8.41125 16.5716 8.57115 16.7315 8.57115 16.9287C8.57358 17.5782 9.01376 18.1442 9.64258 18.3066V15.468C8.61196 15.2947 7.85721 14.4024 7.85721 13.3573C7.85721 12.3122 8.61196 11.4199 9.64258 11.2466V10.8573C9.64258 10.6601 9.80248 10.5002 9.99972 10.5002C10.197 10.5002 10.3569 10.6601 10.3569 10.8573V11.2466C11.3866 11.4216 12.1406 12.3128 12.1426 13.3573C12.1426 13.5546 11.9827 13.7145 11.7854 13.7145C11.5882 13.7145 11.4283 13.5546 11.4283 13.3573C11.4259 12.7079 10.9857 12.1418 10.3569 11.9795V14.818C11.3866 14.993 12.1406 15.8842 12.1426 16.9287Z" fill="white"/>
<path d="M8.57129 13.3573C8.57372 14.0068 9.0139 14.5729 9.64272 14.7352V11.9795C9.0139 12.1418 8.57372 12.7079 8.57129 13.3573Z" fill="white"/>
<path d="M10.0004 5.14307C6.25042 5.14307 4.28613 6.07164 4.28613 6.57164V10.1816C5.4122 9.45092 7.7147 9.07164 10.0004 9.07164C12.2861 9.07164 14.5886 9.45092 15.7147 10.1816V6.57164C15.7147 6.07164 13.7522 5.14307 10.0004 5.14307Z" fill="white"/>
<path d="M13.3545 10.0869C14.0331 10.5385 14.6146 11.1214 15.0645 11.8012C15.5359 11.568 15.7145 11.3458 15.7145 11.2144C15.7145 10.8958 14.9102 10.4026 13.3545 10.0869Z" fill="white"/>
<path d="M6.64613 10.0869C5.09042 10.4026 4.28613 10.8958 4.28613 11.2144C4.28613 11.3458 4.4647 11.568 4.93613 11.8023C5.38595 11.1221 5.96738 10.5389 6.64613 10.0869Z" fill="white"/>
<path d="M18.5714 7.74226V4.44226L20.0018 3.47083L10.1007 0.514759C10.0346 0.494755 9.964 0.494755 9.89786 0.514759L0 3.4694L3.75607 6.02369C4.47822 4.97512 7.25 4.42869 10 4.42869C12.75 4.42869 15.5214 4.97512 16.2429 6.02333L17.8571 4.92869V7.74369C17.5772 7.90533 17.4407 8.23487 17.5243 8.54715C17.608 8.85942 17.891 9.07656 18.2143 9.07656C18.5376 9.07656 18.8206 8.85942 18.9042 8.54715C18.9879 8.23487 18.8514 7.90533 18.5714 7.74369V7.74226Z" fill="white"/>
</g>
<defs>
<clipPath id="clip0_615_10400">
<rect width="20" height="20" fill="white" transform="translate(0 0.5)"/>
</clipPath>
</defs>
</svg>
