<svg width="108" height="72" viewBox="0 0 108 72" fill="none" xmlns="http://www.w3.org/2000/svg">
<path d="M100.349 23.146L14.3031 28.5941C14.0694 28.6088 13.8422 28.6735 13.6387 28.7833C13.4352 28.8931 13.2607 29.0451 13.1283 29.2278C12.9959 29.4106 12.909 29.6194 12.8743 29.8385C12.8396 30.0576 12.8578 30.2813 12.9277 30.4927L19.6893 50.9653C19.8011 51.3036 20.0387 51.5922 20.3582 51.7775C20.6776 51.9629 21.0573 52.0325 21.4269 51.9734L23.702 51.6083C24.0549 51.5519 24.4175 51.6128 24.7283 51.7806L30.0589 54.6597C31.2559 55.3056 32.6807 54.2653 32.3239 53.0078C32.2618 52.7891 32.2542 52.5597 32.3017 52.3377C32.3491 52.1157 32.4504 51.9071 32.5975 51.7284C32.7446 51.5496 32.9335 51.4055 33.1494 51.3075C33.3653 51.2094 33.6023 51.16 33.8418 51.1632L95.8161 51.9811C96.1862 51.986 96.5458 51.8656 96.8301 51.6415C97.1143 51.4174 97.3043 51.1045 97.3657 50.7594L101.979 24.8493C102.017 24.6314 102.003 24.408 101.938 24.1959C101.872 23.9838 101.756 23.7886 101.599 23.6247C101.443 23.4609 101.249 23.3327 101.032 23.2498C100.815 23.1669 100.582 23.1314 100.349 23.146Z" fill="#FAA859"/>
<path d="M96 28.2856L91.3002 53.3018L86.9479 53.314L28.8115 53.4758L30.1724 58.2856L21.9388 53.8276L18.0363 54.0269L12.8306 36.0808L12 33.2172L96 28.2856Z" fill="#C0392B"/>
<path d="M96 28.2856L91.3002 53.1307L86.9479 53.1428L91.0523 31.8519L12.8306 36.0275L12.8015 36.0289L12 33.1835L96 28.2856Z" fill="#73221A"/>
<path d="M33.17 56.5704C33.0941 56.5704 33.0196 56.5517 32.9541 56.5163L24.8298 52.109L21.0555 52.3023C20.9573 52.3066 20.8605 52.2796 20.7813 52.2256C20.7021 52.1717 20.6452 52.0942 20.6203 52.0061L14.5851 31.152C14.57 31.0978 14.5675 31.0413 14.5776 30.9861C14.5878 30.9309 14.6104 30.8784 14.644 30.8319C14.6776 30.7854 14.7215 30.7461 14.7727 30.7164C14.8239 30.6868 14.8812 30.6675 14.941 30.6599L98.9441 25.7179C99.0087 25.7098 99.0745 25.7156 99.1363 25.7348C99.1982 25.7539 99.2545 25.786 99.301 25.8284C99.3475 25.8708 99.3829 25.9225 99.4045 25.9796C99.4261 26.0366 99.4334 26.0975 99.4257 26.1576L94.7256 51.2281C94.7141 51.3208 94.6674 51.4067 94.5939 51.4706C94.5205 51.5344 94.425 51.572 94.3244 51.5768L32.354 51.7242L33.5827 56.0747C33.5997 56.1334 33.6019 56.1949 33.589 56.2544C33.5761 56.314 33.5486 56.37 33.5086 56.418C33.4686 56.4661 33.4171 56.505 33.3583 56.5316C33.2994 56.5582 33.2347 56.5719 33.1692 56.5715L33.17 56.5704ZM24.9354 51.3103C25.0113 51.3102 25.0858 51.3288 25.1513 51.3644L32.4949 55.3488L31.395 51.4548C31.379 51.398 31.3768 51.3385 31.3885 51.2808C31.4003 51.223 31.4258 51.1684 31.4631 51.1209C31.5004 51.0734 31.5486 51.0342 31.6043 51.0061C31.66 50.978 31.7217 50.9617 31.785 50.9584L93.9198 50.8028L98.5119 26.5726L15.5306 31.3851L21.3588 51.4928L24.9118 51.3106L24.9354 51.3103Z" fill="white"/>
<path d="M21.0327 46.7295L21.9169 41.0446L24.3244 40.9408C25.0491 40.9096 25.6142 41.0439 26.0197 41.3437C26.4306 41.6432 26.6482 42.0748 26.6725 42.6385C26.6928 43.1108 26.5952 43.5291 26.3797 43.8934C26.1693 44.252 25.8589 44.537 25.4486 44.7483C25.0382 44.9596 24.5485 45.0775 23.9795 45.102L22.1518 45.1808L22.9677 44.46L22.627 46.6608L21.0327 46.7295ZM24.5675 46.5771L23.3275 44.5735L24.9781 44.5024L26.2342 46.5052L24.5675 46.5771ZM22.9354 44.6469L22.3482 43.9382L23.9989 43.867C24.3531 43.8517 24.6233 43.7567 24.8094 43.582C24.9954 43.4072 25.0819 43.1669 25.0687 42.8609C25.0585 42.6247 24.9732 42.4536 24.8126 42.3476C24.6521 42.2416 24.4323 42.1946 24.1531 42.2066L22.6152 42.2729L23.4361 41.4793L22.9354 44.6469Z" fill="white"/>
<path d="M28.9938 42.9256L31.6107 42.8127L31.4286 44.0145L28.8117 44.1273L28.9938 42.9256ZM28.7595 45.1621L31.7146 45.0347L31.51 46.2777L26.993 46.4725L27.8772 40.7876L32.2896 40.5974L32.0931 41.84L29.2508 41.9626L28.7595 45.1621Z" fill="white"/>
<path d="M35.4834 46.2193C34.9091 46.2441 34.4027 46.1611 33.9642 45.9702C33.5311 45.7792 33.1912 45.5034 32.9444 45.143C32.6974 44.7772 32.5633 44.3501 32.5422 43.8616C32.5212 43.3731 32.5876 42.9185 32.7416 42.4978C32.8955 42.077 33.1217 41.7096 33.4201 41.3956C33.7182 41.0762 34.0784 40.8241 34.5007 40.6391C34.9283 40.454 35.4051 40.3501 35.9312 40.3274C36.4519 40.3049 36.9174 40.3763 37.3279 40.5414C37.7383 40.7066 38.0503 40.9566 38.2637 41.2916L37.1519 42.2592C37.0138 42.05 36.8377 41.8936 36.6234 41.7899C36.4146 41.686 36.1679 41.6401 35.8834 41.6524C35.6097 41.6642 35.3622 41.7233 35.1409 41.8296C34.9249 41.9357 34.7403 42.0808 34.5869 42.2649C34.4335 42.449 34.3191 42.6637 34.2436 42.9089C34.1679 43.1488 34.1361 43.4083 34.1481 43.6875C34.159 43.9398 34.2223 44.1602 34.3379 44.3488C34.4588 44.5318 34.6235 44.6726 34.8321 44.7712C35.0458 44.8641 35.295 44.9045 35.5795 44.8922C35.8318 44.8813 36.0711 44.8199 36.2975 44.708C36.5293 44.5958 36.7395 44.42 36.9282 44.1807L37.9102 45.066C37.6099 45.4608 37.2566 45.7476 36.8502 45.9264C36.4436 46.0999 35.988 46.1976 35.4834 46.2193Z" fill="white"/>
<path d="M41.2778 45.9695C40.6981 45.9945 40.1943 45.9113 39.7666 45.72C39.3386 45.5234 39.004 45.2447 38.7625 44.884C38.5211 44.5234 38.3899 44.0988 38.3688 43.6103C38.3475 43.1165 38.414 42.6619 38.5681 42.2465C38.7221 41.8258 38.9482 41.4584 39.2466 41.1444C39.5448 40.825 39.905 40.5728 40.3272 40.3879C40.7548 40.2027 41.2263 40.0991 41.7416 40.0768C42.3214 40.0518 42.8252 40.1377 43.2532 40.3343C43.6809 40.5256 44.0154 40.8016 44.2569 41.1623C44.4983 41.5229 44.6295 41.9475 44.6506 42.436C44.6719 42.9298 44.6056 43.3871 44.4516 43.8078C44.2974 44.2232 44.0713 44.5906 43.7731 44.91C43.4748 45.224 43.1118 45.4736 42.6841 45.6587C42.2619 45.8437 41.7931 45.9472 41.2778 45.9695ZM41.3577 44.6431C41.6369 44.631 41.8816 44.5694 42.0919 44.4581C42.3076 44.3467 42.4866 44.1964 42.6291 44.0074C42.7766 43.8128 42.8856 43.5957 42.9559 43.3561C43.0262 43.1164 43.0557 42.8651 43.0444 42.602C43.0335 42.3497 42.9704 42.132 42.8549 41.9487C42.7448 41.7652 42.5883 41.6268 42.3852 41.5334C42.1874 41.4343 41.9462 41.391 41.6617 41.4032C41.3879 41.415 41.1432 41.4767 40.9275 41.5882C40.7118 41.6996 40.5302 41.8527 40.3826 42.0473C40.2402 42.2363 40.1338 42.4506 40.0635 42.6902C39.9932 42.9299 39.9637 43.1812 39.975 43.4443C39.9857 43.6912 40.0461 43.9091 40.1565 44.0979C40.2719 44.2812 40.4286 44.4223 40.6265 44.5213C40.8295 44.6147 41.0732 44.6553 41.3577 44.6431Z" fill="white"/>
<path d="M45.0388 45.6943L45.923 40.0095L47.2193 39.9536L48.939 43.7273L48.2546 43.7568L51.1003 39.7862L52.4611 39.7275L51.593 45.4117L50.1195 45.4753L50.6406 42.0325L50.9059 42.013L48.7992 44.9756L48.0987 45.0058L46.7589 42.1837L47.0418 42.1957L46.5042 45.6312L45.0388 45.6943Z" fill="white"/>
<path d="M52.721 45.3631L53.6052 39.6782L54.9016 39.6223L56.6212 43.396L55.9368 43.4255L58.7826 39.4549L60.1433 39.3963L59.2752 45.0804L57.8017 45.144L58.3228 41.7012L58.5882 41.6817L56.4814 44.6443L55.7809 44.6745L54.4412 41.8524L54.724 41.8644L54.1865 45.2999L52.721 45.3631Z" fill="white"/>
<path d="M62.4042 41.4849L65.021 41.372L64.8389 42.5738L62.2221 42.6866L62.4042 41.4849ZM62.1699 43.7214L65.1249 43.594L64.9204 44.837L60.4033 45.0318L61.2875 39.3469L65.6999 39.1566L65.5034 40.3993L62.6611 40.5219L62.1699 43.7214Z" fill="white"/>
<path d="M65.8131 44.7985L66.6973 39.1136L68.0098 39.057L70.4509 42.727L69.9027 42.7345L70.4897 38.9501L72.0518 38.8827L71.1676 44.5676L69.8551 44.6242L67.422 40.9539L67.9622 40.9467L67.3752 44.7312L65.8131 44.7985Z" fill="white"/>
<path d="M72.3002 44.5188L73.1844 38.8339L75.6321 38.7284C76.2226 38.7029 76.7314 38.7778 77.1584 38.9529C77.5908 39.1279 77.9273 39.3877 78.1681 39.7322C78.4086 40.0714 78.5393 40.4852 78.5604 40.9737C78.5819 41.4729 78.5155 41.9275 78.3611 42.3375C78.2064 42.7422 77.9797 43.0961 77.6809 43.3994C77.3818 43.6973 77.0209 43.9334 76.5982 44.1076C76.1752 44.2764 75.7034 44.372 75.1827 44.3945L72.3002 44.5188ZM74.0972 43.1667L75.1762 43.1202C75.5788 43.1029 75.9134 43.0051 76.1799 42.8269C76.4465 42.6487 76.6462 42.4142 76.7788 42.1234C76.9113 41.8273 76.9697 41.4994 76.9542 41.1398C76.9433 40.8875 76.8804 40.6751 76.7654 40.5026C76.6558 40.3298 76.4943 40.2024 76.281 40.1201C76.0729 40.0323 75.8158 39.995 75.5099 40.0082L74.5758 40.0485L74.0972 43.1667Z" fill="white"/>
<path d="M80.9533 40.685L83.5701 40.5722L83.388 41.7739L80.7711 41.8867L80.9533 40.685ZM80.719 42.9215L83.674 42.7941L83.4694 44.0371L78.9524 44.2319L79.8366 38.547L84.249 38.3568L84.0525 39.5995L81.2102 39.722L80.719 42.9215Z" fill="white"/>
<path d="M84.3622 43.9987L85.2464 38.3138L87.6942 38.2082C88.2846 38.1828 88.7934 38.2576 89.2204 38.4328C89.6528 38.6078 89.9894 38.8675 90.2301 39.2121C90.4706 39.5513 90.6014 39.9651 90.6224 40.4536C90.6439 40.9528 90.5775 41.4074 90.4231 41.8174C90.2684 42.222 90.0417 42.576 89.7429 42.8793C89.4438 43.1772 89.0829 43.4133 88.6602 43.5874C88.2372 43.7563 87.7654 43.8519 87.2447 43.8744L84.3622 43.9987ZM86.1592 42.6466L87.2382 42.6001C87.6408 42.5827 87.9754 42.4849 88.242 42.3067C88.5085 42.1285 88.7082 41.894 88.8408 41.6033C88.9733 41.3072 89.0317 40.9793 89.0162 40.6196C89.0053 40.3674 88.9424 40.155 88.8274 39.9824C88.7178 39.8097 88.5563 39.6822 88.343 39.6C88.1349 39.5122 87.8778 39.4748 87.5719 39.488L86.6379 39.5283L86.1592 42.6466Z" fill="white"/>
<path d="M66.073 21.9241C65.2381 21.3539 64.2708 21.3604 63.6315 21.3647L62.1731 21.3737C61.4819 21.3787 60.7914 21.3827 60.0916 21.3866H60.0689C59.9386 21.3866 59.8011 21.3935 59.66 21.3996C59.5401 21.4046 59.417 21.4104 59.2935 21.4115C59.0994 21.4115 58.9551 21.4025 58.8615 21.378L58.8528 21.3758C58.8168 21.2876 58.7988 21.108 58.8442 20.8441C58.8802 20.6404 58.9421 20.4164 59.0084 20.1792C59.0706 19.9578 59.1351 19.7285 59.1883 19.4808C59.4954 18.039 59.2359 16.4388 58.4766 15.0888C58.0475 14.3278 56.8797 12.5594 55.2996 12.5746C55.1121 12.5762 54.9257 12.6035 54.7456 12.6556C54.5301 12.7188 54.3261 12.8161 54.1412 12.9436C53.5799 13.3266 53.1965 13.9915 53.1159 14.7212C53.0608 15.2195 53.1357 15.6756 53.1958 16.0421C53.2145 16.1555 53.2336 16.2692 53.2473 16.3826C53.3308 17.0868 53.1853 17.8813 52.8153 18.7435C52.4527 19.5874 51.9322 20.3812 51.3807 21.2232L51.3652 21.2473C50.885 22.017 50.048 23.1913 49.8078 23.4746C49.7139 23.5542 49.6278 23.6424 49.5321 23.74C49.3074 23.9693 48.9683 24.316 48.5097 24.5435C48.308 24.6441 48.1253 24.7789 47.9697 24.942C47.4514 24.4667 46.772 24.2059 46.0689 24.2123L43.5528 24.2368C42.814 24.2447 42.1085 24.5455 41.5911 25.073C41.0737 25.6005 40.7867 26.3117 40.7931 27.0505L40.8701 35.0234C40.8781 35.7622 41.1788 36.4677 41.7062 36.985C42.2336 37.5024 42.9447 37.7894 43.6835 37.7832L46.1999 37.7591C46.8898 37.7515 47.5524 37.4887 48.0599 37.0213C48.5674 36.554 48.8839 35.9152 48.9482 35.2283C49.0408 35.2433 49.1344 35.2506 49.2282 35.2502L50.2909 35.2402C50.3809 35.2826 50.4742 35.3287 50.5703 35.3762C50.8317 35.5116 51.1003 35.6325 51.3749 35.7384C52.4427 36.1315 53.5551 36.1726 54.4054 36.1643C54.8414 36.16 55.273 36.1402 55.6906 36.1207C56.0891 36.1024 56.4653 36.0847 56.8275 36.0815C56.9517 36.0815 57.0744 36.0815 57.1943 36.0836C57.3743 36.0876 57.5543 36.0926 57.7343 36.0977C58.2797 36.1132 58.8438 36.1286 59.4144 36.1232C60.461 36.1132 61.8369 36.0394 63.1944 35.5548C64.2906 35.1638 65.1539 34.0561 65.2464 32.9203C65.2708 32.6376 65.2445 32.3528 65.1687 32.0794C65.5616 31.6727 65.8294 31.1617 65.9401 30.6072C66.0509 30.0527 65.9999 29.478 65.7933 28.9517C66.1526 28.6299 66.4407 28.2365 66.6389 27.7968C66.9118 27.167 66.9398 26.4579 66.7174 25.8085C66.9847 25.4541 67.1614 25.0397 67.2318 24.6014C67.392 23.5801 66.924 22.5059 66.073 21.9241Z" fill="#C0392B"/>
<path d="M46.2073 25.1364L43.6284 25.1612C42.7473 25.1697 42.0398 25.8908 42.0483 26.772L42.1267 34.9436C42.1352 35.8247 42.8563 36.5322 43.7375 36.5237L46.3164 36.499C47.1975 36.4905 47.905 35.7693 47.8965 34.8882L47.8181 26.7166C47.8096 25.8354 47.0885 25.128 46.2073 25.1364Z" fill="white"/>
<path d="M65.9881 24.4081C66.0266 24.1333 65.9887 23.8533 65.8784 23.5986C65.7682 23.344 65.5899 23.1247 65.3631 22.9649C64.8721 22.6297 64.2352 22.6211 63.6398 22.6254L62.1829 22.634C61.4869 22.6391 60.7924 22.6435 60.0995 22.6474H60.0819C59.8414 22.6499 59.5743 22.6697 59.3065 22.6722C59.0476 22.6747 58.7881 22.661 58.5505 22.6002C58.2391 22.521 57.9658 22.3601 57.7822 22.0483C57.5349 21.6304 57.5194 21.1123 57.6022 20.6321C57.685 20.1518 57.8542 19.6936 57.9554 19.2184C58.2074 18.0304 57.9712 16.7628 57.3794 15.7087C57.046 15.1169 56.1604 13.8277 55.313 13.8367C55.2406 13.8372 55.1687 13.8476 55.0991 13.8677C55.0114 13.8935 54.9282 13.9331 54.8529 13.985C54.5804 14.1712 54.4072 14.5218 54.3698 14.8609C54.319 15.3192 54.4454 15.7768 54.4997 16.2347C54.6214 17.2571 54.3806 18.296 53.9745 19.2421C53.5684 20.1882 53.0003 21.0536 52.4359 21.9148C51.9034 22.7687 50.8191 24.2954 50.6524 24.4146C50.4598 24.5521 49.9529 25.2358 49.0717 25.6746C48.9505 25.7363 48.8491 25.8308 48.7791 25.9474C48.709 26.0639 48.6732 26.1978 48.6757 26.3338L48.7441 33.5248C48.7446 33.5863 48.7572 33.6472 48.7813 33.7038C48.8054 33.7605 48.8404 33.8118 48.8843 33.8549C48.9282 33.898 48.9803 33.932 49.0374 33.955C49.0945 33.978 49.1555 33.9895 49.2171 33.9888L50.5534 33.9758C50.9833 34.1533 51.4034 34.4046 51.8113 34.5547C52.609 34.8481 53.4953 34.9115 54.3939 34.9028C55.2104 34.8949 56.0369 34.8276 56.816 34.82C56.9537 34.8186 57.0899 34.8194 57.2246 34.8226C57.9385 34.8391 58.6714 34.8686 59.404 34.8618C60.5524 34.8506 61.7005 34.7491 62.7733 34.3664C63.7881 34.0064 64.6118 32.4116 63.3777 31.7269C63.6993 31.6532 63.9936 31.4904 64.2269 31.2571C64.4602 31.0238 64.623 30.7295 64.6967 30.4079C64.7705 30.0863 64.7521 29.7505 64.6437 29.4389C64.5354 29.1273 64.3414 28.8525 64.084 28.646C64.6474 28.2979 65.2216 27.8929 65.488 27.2863C65.7544 26.6797 65.5733 25.8312 64.9559 25.5943C65.2204 25.5106 65.4566 25.3556 65.6387 25.1463C65.8208 24.937 65.9417 24.6816 65.9881 24.4081Z" fill="white"/>
<path d="M63.6336 10.7729L66.5532 11.6132L62.8438 15.1466L63.6336 10.7729Z" fill="#C0392B"/>
<path d="M69.8435 14.1152L70.5257 17.2832L64.2246 17.2328L69.8435 14.1152Z" fill="#C0392B"/>
<path d="M43.7297 17.4978L42.5154 14.4536L48.9756 17.2796L43.7297 17.4978Z" fill="#C0392B"/>
<path d="M48.7336 9.29801L50.6222 9.03125L50.3947 12.6068L48.7336 9.29801Z" fill="#C0392B"/>
<path d="M42.2273 11.0588L45.6541 8.38794L49.2635 15.7078L42.2273 11.0588Z" fill="#C0392B"/>
</svg>
