<svg width="1708" height="1001" viewBox="0 0 1708 1001" fill="none" xmlns="http://www.w3.org/2000/svg">
<path d="M1528.48 973.119C1561.3 972.737 1597.64 969.642 1620.91 933.439C1639.76 903.843 1644.82 860.326 1648.97 817.79L1701.55 293.979C1708.48 224.462 1714.4 148.159 1689.55 88.2376C1656.12 8.50813 1584.81 0.356096 1524.13 0.57693L246.013 4.02246C200.012 4.02246 156.826 9.79909 113.647 26.4643C92.0662 34.9497 71.9165 50.4873 54.5101 72.0655C37.1036 93.6437 22.8306 120.779 12.6207 151.703C-6.41801 218.448 1.44907 295.804 9.72385 368.3L55.3884 766.905C59.2259 820.344 69.7184 872.192 86.2691 919.499C124.475 1004.5 261.904 1000.23 305.978 1000.19C404.477 1000.1 504.312 995.318 603.253 992.386L1202.53 979.826L1528.48 973.119Z" fill="#294563"/>
</svg>
