<svg width="43" height="44" viewBox="0 0 43 44" fill="none" xmlns="http://www.w3.org/2000/svg">
<path d="M1.32999 32.6175L4.27463 35.5816L26.4494 32.5021C28.8912 35.0375 31.4039 37.5604 34.0407 40.0587C37.2064 42.9611 40.8202 44.2679 42.0828 43.0259C43.3449 41.7844 42.0733 38.1736 39.1931 34.9903C36.7128 32.3379 34.2065 29.8087 31.6869 27.3499L35.0368 5.32061L32.0922 2.35656L24.463 20.4927C20.3196 16.6461 16.1762 12.8717 12.0661 9.01968L13.8288 2.9348L11.8844 0.977538L7.05145 7.76366L0.177016 12.4941L2.12146 14.4514L8.25538 12.7683C12.0794 16.9016 15.8251 21.0673 19.6418 25.2353L1.32999 32.6175Z" fill="#294563"/>
</svg>
