<svg width="112" height="19" viewBox="0 0 112 19" fill="none" xmlns="http://www.w3.org/2000/svg">
<path d="M25.1745 1.76052C25.1925 1.71154 25.2151 1.66466 25.242 1.62058C25.3617 1.60842 25.4825 1.62381 25.5962 1.66572L25.7944 1.4987L25.8829 1.42647C26.0016 1.46631 26.1254 1.48611 26.2498 1.48515C26.4317 1.4299 26.6105 1.36359 26.7853 1.28653V1.36779C26.7853 1.45356 26.9287 1.47161 27.0721 1.40841C27.3698 1.39074 27.6684 1.41043 27.9618 1.46709C28.1432 1.46709 28.6534 1.27299 28.7588 1.28202C28.8643 1.29105 29.1426 1.41293 29.2311 1.42647C29.3631 1.40119 29.4909 1.35557 29.6106 1.29104C29.6697 1.29104 29.8173 1.29104 29.8215 1.17819C29.8257 1.06534 30.1546 1.24591 30.2432 1.24591L30.3106 1.20528C30.4835 1.10145 30.5088 1.16013 30.5637 1.30458L30.6016 1.41744C30.7113 1.2775 30.8546 1.20076 30.9263 1.24591C31.0996 1.29514 31.2807 1.30437 31.4576 1.27299L31.5673 1.20076L31.6685 1.13756C31.7748 1.14871 31.8805 1.16679 31.9848 1.19173L32.0269 1.23236C32.0986 1.29556 32.145 1.38584 32.2167 1.44904C32.249 1.43933 32.2776 1.41871 32.2981 1.39024C32.3186 1.36178 32.33 1.32699 32.3305 1.29104C32.3305 1.23236 32.5372 1.13305 32.6932 1.09694L32.8281 1.20076L32.8576 1.22785C32.9236 1.2612 32.9956 1.27851 33.0685 1.27851C33.1414 1.27851 33.2134 1.2612 33.2793 1.22785L33.3721 1.18271L33.4269 1.15562C33.5028 1.15562 33.5619 1.20076 33.5534 1.26396V1.35424C33.5534 1.39035 33.604 1.42195 33.6715 1.41744L33.6968 1.39035C33.7516 1.33167 33.7727 1.25042 33.8233 1.19173L33.8866 1.11048C33.9745 1.14353 34.0677 1.15734 34.1607 1.15111C34.3615 1.14554 34.5585 1.21055 34.7215 1.33619L34.9998 1.16465C35.0594 1.1395 35.1257 1.1395 35.1854 1.16465L35.3034 1.35424C35.4348 1.29073 35.5592 1.21202 35.6745 1.11951C35.7209 1.06534 35.898 0.970542 35.936 1.04728C35.9739 1.12402 36.1637 1.28653 36.2564 1.20076H36.3492L36.5137 1.16014L36.9143 1.13756L37.239 1.06082C37.3655 1.03374 37.8251 1.20979 37.8715 1.14659L37.9305 1.11048L37.9812 1.07888C38.0613 1.07888 38.0908 1.07888 38.057 1.15111V1.19173C38.057 1.23236 38.1245 1.26847 38.1667 1.30007L38.2721 1.3723C38.2885 1.28671 38.3139 1.2034 38.348 1.12402C38.4853 1.02894 38.6501 0.990442 38.8119 1.01568L38.9848 1.05179H39.0185C39.0564 1.10145 39.0733 1.14208 39.0565 1.13756C38.9994 1.20714 38.9563 1.28859 38.9299 1.37681C38.8836 1.50321 38.4366 1.45807 38.4028 1.47612V1.50321V1.53029C38.528 1.6502 38.6704 1.74776 38.8245 1.8192L39.0818 1.70635L39.1914 1.65669C39.3263 1.62509 39.3263 1.56189 39.1914 1.51675C39.0564 1.47161 39.2167 1.09694 39.3516 1.03825H39.5119C39.8078 1.07954 40.1085 1.05962 40.3974 0.979573C40.4536 0.968138 40.5113 0.96904 40.5671 0.982232C40.623 0.995424 40.6757 1.02063 40.7221 1.05631L40.8022 1.11499C40.836 1.24139 40.9034 1.28653 40.9456 1.2143C40.992 1.14861 41.0502 1.09358 41.1169 1.05248C41.1835 1.01137 41.2572 0.985046 41.3336 0.975055C41.4601 0.975055 41.8649 0.943458 41.9619 0.808034L42.0673 0.893804L42.0968 0.916376C42.1582 0.985115 42.2159 1.05745 42.2697 1.13305L42.4089 1.05179H42.4468C42.4841 1.05201 42.5207 1.06304 42.5526 1.08371C42.5845 1.10437 42.6106 1.1339 42.6282 1.16917C42.6282 1.22334 42.7167 1.3723 42.7462 1.28202V1.23688C42.7462 1.20528 42.7462 1.16465 42.7462 1.13756C42.801 1.03825 42.8727 1.05631 42.9655 1.11048C43.189 1.24139 43.0161 0.984085 43.1257 0.984085H43.1932C43.3168 0.958947 43.4442 0.966699 43.5643 1.00666L43.6782 0.911857C43.7226 0.88372 43.7746 0.872582 43.8257 0.880262L44.0745 1.13756C44.2348 0.934428 44.4541 0.844144 44.5637 0.938941C44.6733 1.03374 45.1667 0.938941 45.251 0.988597C45.3354 1.03825 45.7191 0.889285 45.9089 0.902827L46.0691 0.817064H46.0944C46.145 0.817064 46.3263 0.889288 46.4908 0.934429L46.7607 0.884773L46.9547 0.853171C46.9842 0.975053 47.077 1.02471 47.1655 0.961513C47.2541 0.898315 47.5872 0.961513 47.6336 0.961513C47.7554 0.923893 47.8751 0.878673 47.992 0.826088L48.1438 0.862201L48.3167 0.902827C48.4552 0.866478 48.5999 0.866478 48.7384 0.902827C48.764 0.921072 48.7941 0.930813 48.8248 0.930813C48.8556 0.930813 48.8857 0.921072 48.9113 0.902827C48.9661 0.853172 49.2191 0.708725 49.2613 0.767408C49.3419 0.853664 49.4361 0.923961 49.5396 0.975055C49.7409 0.983318 49.9421 0.954301 50.1342 0.889285C50.3635 0.852955 50.5965 0.852955 50.8258 0.889285C50.9185 0.889285 51.1884 0.808035 51.2475 0.844148C51.359 0.893862 51.4748 0.931663 51.5932 0.957001L51.724 0.84866C51.9011 0.84866 52.0824 0.875743 52.1456 0.875743C52.2089 0.875743 52.4155 0.826088 52.5378 0.812546C52.6601 0.799003 52.9595 0.812545 52.9595 0.663578L53.2041 0.817064L53.2505 0.844148C53.3486 0.867785 53.4494 0.876897 53.5499 0.871232C53.7595 0.89154 53.9707 0.882436 54.1782 0.844148C54.3706 0.773591 54.5702 0.72812 54.7728 0.708723L54.8191 0.740318C54.9203 0.80803 54.992 0.902828 55.1523 0.889285H55.2914C55.3504 0.810542 55.4254 0.747248 55.5107 0.704211H55.5613H55.7216L56.2613 0.550725L56.3541 0.699692C56.3776 0.734046 56.4075 0.762858 56.4419 0.784346C56.4763 0.805834 56.5144 0.819543 56.554 0.82462C56.5935 0.829698 56.6336 0.826039 56.6717 0.813868C56.7099 0.801697 56.7453 0.781278 56.7758 0.753867L57.5475 0.659067H57.771C57.9731 0.675341 58.1761 0.675341 58.3782 0.659067C58.4667 0.659067 58.6692 0.785465 58.6818 0.717753C58.6945 0.650041 58.7872 0.591357 58.8631 0.717753C58.939 0.844149 59.4746 0.717753 59.6601 0.717753C59.9132 0.698547 60.1643 0.656262 60.4107 0.591357L60.7185 0.812546C60.9759 0.778803 61.2352 0.765226 61.4945 0.77192C61.5395 0.709925 61.6038 0.667216 61.6757 0.65149C61.7476 0.635764 61.8224 0.648054 61.8866 0.68615L61.9794 0.731295C62.1711 0.66529 62.367 0.614002 62.5655 0.577816H62.9071C63.0672 0.579353 63.2257 0.611451 63.3752 0.672609C63.4131 0.708722 63.5439 0.780945 63.5607 0.740318C63.6292 0.661367 63.7192 0.607641 63.818 0.586839C63.9996 0.556958 64.1845 0.556958 64.3661 0.586839V0.631983V0.826088C64.5137 0.799003 64.7583 0.73581 64.9101 0.690669L65.0619 0.776432C65.1049 0.797825 65.1516 0.808916 65.199 0.808916C65.2463 0.808916 65.2931 0.797825 65.336 0.776432C65.4668 0.668093 65.6101 0.699695 65.7577 0.681639H65.8969L66.2933 0.568785C66.365 0.546215 66.5842 0.677123 66.715 0.659067C66.8457 0.64101 67.1873 0.604899 67.2505 0.604899C67.3138 0.604899 67.4613 0.532668 67.4993 0.564267C67.5372 0.595866 67.824 0.785466 68.0517 0.916376L68.077 0.546213C68.1381 0.531467 68.2015 0.531467 68.2625 0.546213L68.583 0.659067C68.8609 0.596087 69.1428 0.555345 69.4264 0.537183H69.7427C69.7764 0.650037 70.08 0.677126 70.4174 0.604899H70.7336C70.8095 0.604899 70.7969 0.740318 70.7041 0.789974L70.6619 0.817064C70.586 0.817064 70.5776 0.857689 70.6619 0.884773C70.7463 0.911858 70.9065 0.920886 70.9065 0.835118C70.9065 0.749349 71.0077 0.473989 71.1258 0.455932C71.2439 0.437876 71.6698 0.564272 71.8047 0.541702H71.9818C72.1246 0.53358 72.2675 0.553464 72.4035 0.600381L72.6144 0.695181C72.7964 0.631591 72.9752 0.557755 73.1499 0.473986C73.2427 0.428844 73.3903 0.663578 73.4071 0.663578C73.4743 0.639837 73.5381 0.606427 73.5969 0.564267L73.6897 0.636495C73.833 0.744834 73.9174 0.735807 73.9342 0.546213V0.496558C73.9753 0.472159 74.0229 0.463771 74.0691 0.472828C74.1152 0.481886 74.157 0.507827 74.1872 0.546213C74.2421 0.627468 74.5626 0.577812 74.7355 0.546213C74.9084 0.514614 75.427 0.501071 75.5029 0.510099L75.5367 0.42433C75.5647 0.411666 75.5948 0.405147 75.6252 0.405147C75.6556 0.405147 75.6857 0.411666 75.7138 0.42433C75.777 0.483014 75.7475 0.650039 75.9077 0.582327L75.9752 0.550725C75.9752 0.415301 76.1734 0.374675 76.3674 0.460444L76.5487 0.541702C76.7216 0.546303 76.8944 0.528105 77.0632 0.487527C77.1854 0.383702 77.3035 0.27988 77.3499 0.532672L77.5692 0.586839C77.6863 0.610219 77.8064 0.610219 77.9234 0.586839C77.9697 0.535265 78.0134 0.481014 78.0541 0.42433C78.132 0.367717 78.2193 0.327856 78.3114 0.306965C78.4252 0.306965 78.7331 0.383705 78.7584 0.356621C78.8407 0.320253 78.9332 0.320253 79.0156 0.356621C79.0746 0.41079 79.315 0.546215 79.374 0.505588C79.4331 0.464961 79.6059 0.383708 79.6481 0.415306C79.6903 0.446905 79.8337 0.514613 79.8463 0.460444C79.8535 0.441024 79.8654 0.424005 79.8808 0.411146C79.8961 0.398287 79.9144 0.390053 79.9338 0.387293C79.9531 0.384533 79.9728 0.387351 79.9908 0.395448C80.0087 0.403546 80.0244 0.416632 80.0361 0.43336H80.1162H80.2806C80.3312 0.541699 80.424 0.573295 80.4873 0.501069C80.5505 0.428843 80.7318 0.243766 80.7487 0.284393C80.7681 0.314385 80.795 0.337916 80.8264 0.352288C80.8577 0.36666 80.8922 0.371293 80.9258 0.365651C80.9933 0.334052 81.1957 0.275363 81.2126 0.311476V0.34759C81.2505 0.464958 81.3939 0.464958 81.4065 0.397246C81.4656 0.171539 81.6048 0.180566 81.765 0.275363L81.8915 0.352109L82.3933 0.198623L82.5072 0.320507C82.5597 0.382239 82.6312 0.421685 82.7086 0.431631C82.786 0.441577 82.8642 0.421358 82.9289 0.374674C82.9642 0.37348 82.9988 0.386344 83.0258 0.410788L83.1608 0.550725L83.3421 0.33856H83.5656C83.7638 0.365645 83.9535 0.383704 83.9873 0.383704L84.2403 0.315995C84.3246 0.315995 84.6325 0.483014 84.7337 0.42433C84.8349 0.365646 85.1553 0.302447 85.1806 0.401758C85.2059 0.501069 85.6023 0.320507 85.7921 0.306965C85.9819 0.293422 86.4246 0.410793 86.4373 0.352109C86.45 0.293425 86.5132 0.148968 86.5469 0.198623V0.230225V0.257309C86.6318 0.312506 86.7302 0.339232 86.8295 0.334048C86.9686 0.334048 87.2512 0.478499 87.2006 0.537183C87.1499 0.595867 86.1716 0.613923 85.9734 0.650037C85.7752 0.68615 85.7921 0.803517 85.9144 0.76289L86.0409 0.808034C86.1231 0.736713 86.2139 0.677503 86.3108 0.631983C86.4246 0.577813 86.5849 0.893803 86.6313 0.907346C86.6776 0.920888 86.7409 0.799006 86.7367 0.744836V0.699692C86.7915 0.519127 86.7789 0.555238 86.6481 0.514611L86.4921 0.460444C86.3842 0.48776 86.2785 0.523984 86.1758 0.568785H86.1505L85.9987 0.650037C86.2016 0.604131 86.413 0.63442 86.5975 0.735806C86.7929 0.818787 87.0042 0.849766 87.2132 0.826088C87.3102 0.799003 87.6602 0.866715 87.7487 0.826088C87.8373 0.78546 87.8289 0.600385 87.7993 0.555244C87.7388 0.479474 87.6578 0.425811 87.5674 0.401758C87.4915 0.401758 87.3861 0.361136 87.4915 0.315995C87.6304 0.249844 87.7631 0.169736 87.8879 0.0767464C87.8879 0.0406333 88.1114 0.0767464 88.1409 0.0767464C88.221 0.153336 88.2971 0.234717 88.3686 0.320507C88.4319 0.392733 88.7903 0.55524 88.7903 0.586839C88.7903 0.618438 88.862 0.47399 88.8493 0.415306H88.8156L88.6891 0.361132C88.5499 0.315991 88.4698 0.225712 88.5078 0.153486C88.4572 0.0857738 88.4319 0.00903103 88.5373 0.0451441L88.7144 0.0993115C88.9045 0.124276 89.0931 0.160446 89.2795 0.207653C89.5109 0.199384 89.7404 0.159954 89.9626 0.0902882C90.0343 0.0632034 90.1903 0.0361131 90.2873 0L90.3801 0.0361139C90.3801 0.0361139 90.4265 0.0361139 90.4349 0.0361139L90.4981 0.0993115C90.5218 0.133479 90.5565 0.157019 90.5954 0.165361C90.6344 0.173702 90.6749 0.166252 90.709 0.144456C90.8116 0.0993061 90.9268 0.0993061 91.0295 0.144456C91.118 0.185083 91.4511 0.0993157 91.5819 0.167028L91.6957 0.243767C91.6957 0.243767 91.6493 0.329537 91.6409 0.379193V0.42433C91.6409 0.473985 91.6999 0.424335 91.7421 0.352109C91.7843 0.279883 92.0668 0.185082 92.0542 0.157997C92.0415 0.130913 92.0795 0.0496558 92.1722 0.0496558C92.3902 0.0887124 92.6046 0.14761 92.8132 0.225707C93.0312 0.236922 93.2495 0.217194 93.4626 0.167028C93.4963 0.167028 93.5722 0.221194 93.5554 0.248279C93.5018 0.305646 93.4407 0.354316 93.374 0.392734C93.3192 0.428848 93.4626 0.740319 93.703 0.776432L93.7999 0.582327L93.8758 0.42433C93.7325 0.221194 93.7494 0.0316034 93.9096 0.00451854L93.956 0.0406325C94.053 0.117373 94.0783 0.252797 94.2469 0.266339C94.2476 0.276862 94.2476 0.287412 94.2469 0.297935C94.2765 0.523641 94.2807 0.519126 94.5295 0.550725H94.656C94.8247 0.604895 94.9596 0.550726 94.9596 0.460444C94.9596 0.370161 95.0186 0.112858 95.0903 0.10383L95.1873 0.185081C95.2843 0.279878 95.2843 0.374678 95.1873 0.392734C95.0903 0.410791 95.1114 0.66358 95.1873 0.672609C95.2632 0.681637 95.474 0.523645 95.5078 0.555244C95.5415 0.586843 95.6638 0.677125 95.7018 0.668097H95.7313C95.7779 0.625406 95.8272 0.586187 95.8789 0.550725C95.9295 0.514612 96.1487 0.699697 96.1909 0.641013C96.2331 0.58233 96.3933 0.483017 96.4692 0.51913C96.593 0.568906 96.7252 0.590432 96.8572 0.582327C96.9078 0.582327 97.0427 0.451413 97.0596 0.514611C97.0765 0.577809 97.1692 0.731293 97.2367 0.722264H97.2789L97.5572 0.586839C97.8144 0.713235 98.0548 0.839631 98.0969 0.862201C98.1391 0.884772 98.253 0.93443 98.2656 0.920887C98.2911 0.859457 98.3122 0.796085 98.3289 0.731295C98.3289 0.659068 98.5903 0.731295 98.6536 0.731295C98.7168 0.731295 98.894 0.73129 98.9024 0.789974C98.9108 0.848657 99.1427 0.762895 99.2144 0.704211C99.2861 0.645527 99.6361 0.604894 99.6361 0.564267L99.8132 0.546213C99.8417 0.525966 99.873 0.510723 99.906 0.501069L100.176 0.744836C100.205 0.537186 100.336 0.392735 100.471 0.428848C100.606 0.464961 100.796 0.780948 100.813 0.735806C100.832 0.674847 100.859 0.617087 100.893 0.564267C100.994 0.634328 101.087 0.71608 101.171 0.808034C101.171 0.835119 101.12 0.916371 101.108 0.975055V1.02923C101.114 1.06323 101.131 1.09403 101.155 1.11687C101.18 1.13972 101.21 1.15334 101.243 1.15562L101.268 1.12853C101.441 0.984081 101.517 1.03374 101.555 1.21882C101.656 1.21882 101.74 1.16917 101.745 1.11951C101.749 1.06985 101.745 0.961514 101.69 0.947971C101.635 0.934429 101.723 0.767405 101.808 0.749348C101.892 0.731292 102.057 0.961517 102.082 1.09243V1.2143C102.082 1.26396 101.976 1.3407 101.922 1.33619H101.694C101.441 1.30007 101.243 1.33618 101.251 1.4039C101.26 1.47161 101.635 1.51675 101.673 1.59801C101.714 1.68601 101.741 1.78055 101.753 1.87788C101.741 1.99933 101.696 2.1142 101.622 2.20741L101.546 2.27513C101.458 2.3609 101.361 2.44215 101.264 2.52341C101.264 2.52341 101.239 2.44215 101.243 2.34284C101.247 2.24353 101.074 1.98171 100.998 2.03136C100.922 2.08102 100.732 2.25256 100.779 2.31124L100.813 2.33833L100.859 2.37444C100.918 2.40604 100.935 2.45569 100.901 2.47826C100.867 2.50083 100.817 2.60466 100.855 2.64528C100.893 2.68591 101.656 2.78974 101.601 2.80779C101.546 2.82585 101.5 2.8755 101.601 2.87099C101.702 2.86648 101.812 3.10573 101.846 3.10122C101.879 3.0967 101.964 3.0651 101.951 3.03802C101.939 3.01093 101.951 2.96128 102.04 2.97933H102.103C102.318 3.0967 102.415 3.19601 102.326 3.20504C102.238 3.21407 101.972 3.29081 101.972 3.35401C101.972 3.4172 102.073 3.55714 102.141 3.64291C102.27 3.71853 102.416 3.753 102.563 3.74222C102.645 3.69027 102.743 3.67411 102.837 3.69708C102.929 3.73319 103.145 3.75576 103.081 3.66096C103.018 3.56617 103.317 3.20955 103.44 3.04253H103.773C103.832 2.92065 103.887 2.87099 103.895 2.92516C103.904 2.97933 103.975 3.14184 104.017 3.08316C104.059 3.04175 104.111 3.01419 104.167 3.00378C104.224 2.99337 104.281 3.00055 104.334 3.02448C104.493 3.13937 104.678 3.20924 104.869 3.22761C104.975 3.20053 105.27 3.0019 105.489 3.0651L105.687 3.11476C105.687 3.11476 105.687 3.06059 105.734 3.03802C105.78 3.01545 105.826 2.93419 105.869 2.93419H106.012C105.977 3.03487 105.93 3.13042 105.873 3.21858C105.855 3.30456 105.869 3.39441 105.91 3.47044C105.951 3.54647 106.018 3.60317 106.096 3.62937L106.219 3.34949C106.244 3.28178 106.392 3.24566 106.489 3.22309C106.518 3.22431 106.546 3.23268 106.572 3.24755C106.597 3.26242 106.619 3.2834 106.636 3.30886C106.666 3.37206 106.661 3.43978 106.758 3.36304C106.855 3.2863 106.927 3.28178 106.982 3.36304C107.037 3.44429 107.062 3.53006 107.037 3.59325C106.968 3.70576 106.891 3.8115 106.805 3.90924L106.725 4.01307C106.821 4.15174 106.955 4.25565 107.108 4.311C107.3 4.36183 107.497 4.38909 107.695 4.39226C107.928 4.4683 108.145 4.59422 108.331 4.76241C108.399 4.86172 108.753 4.9159 108.774 4.94298C108.797 5.08184 108.797 5.22393 108.774 5.36279L108.905 5.52982L108.951 5.5885C108.985 5.67427 108.917 5.78261 108.804 5.83227L108.723 5.90901C108.597 6.0354 108.61 6.04443 108.513 5.97672C108.498 5.96608 108.483 5.954 108.47 5.9406L108.31 5.84129C108.243 5.9722 108.154 6.0038 108.112 5.91352C108.07 5.82324 107.69 5.80066 107.593 5.81872C107.496 5.83678 107.201 5.94512 107.336 5.99026C107.471 6.0354 107.732 6.19791 107.682 6.28368L107.787 6.33785L107.964 6.43264C108.087 6.28819 108.192 6.18889 108.196 6.22048C108.242 6.28105 108.306 6.32257 108.378 6.33785C108.458 6.33785 108.378 6.59516 108.234 6.62224L108.167 6.69446L108.091 6.77572C108.028 6.92017 108.015 7.0556 108.066 7.07817C108.116 7.10074 108.137 7.25873 108.007 7.38513C107.876 7.51152 107.585 7.83654 107.614 7.85911C107.644 7.88168 107.741 7.96745 107.682 8.03516H107.534C107.479 8.05676 107.428 8.09149 107.386 8.13681C107.345 8.18212 107.313 8.23686 107.294 8.29698L107.404 8.39178C107.379 8.60428 107.316 8.80964 107.218 8.99667L107.104 9.07341C106.978 9.15016 106.876 9.26301 106.872 9.32169C106.868 9.38038 106.716 9.58351 106.683 9.66025L106.632 9.71894L106.514 9.85436C106.6 10.0059 106.649 10.1782 106.657 10.3554L106.632 10.4818L106.59 10.6624C106.742 10.685 106.801 10.7527 106.729 10.8114C106.569 10.924 106.39 11.0022 106.202 11.0416H106.067H105.873C105.76 11.1389 105.639 11.2236 105.51 11.2944C105.396 11.1138 105.278 11.3756 105.148 11.2944C105.025 11.225 104.892 11.1777 104.755 11.1544C104.743 11.1822 104.725 11.2068 104.702 11.2267C104.68 11.2467 104.655 11.2616 104.627 11.2705C104.599 11.2793 104.57 11.282 104.542 11.2784C104.513 11.2747 104.485 11.2648 104.46 11.2492C104.351 11.1905 104.039 11.3531 104.039 11.3576C103.946 11.2673 103.811 11.3576 103.752 11.3215L103.579 11.2267C103.404 11.3008 103.21 11.3008 103.035 11.2267L102.879 11.3531H102.854C102.786 11.3531 102.533 11.2718 102.293 11.1951L102.069 11.344H102.031C101.939 11.3331 101.845 11.3331 101.753 11.344C101.609 11.3312 101.467 11.2978 101.331 11.2447C101.206 11.2305 101.08 11.2507 100.964 11.3034C100.761 11.3151 100.557 11.3151 100.353 11.3034H100.205C100.134 11.3154 100.06 11.3044 99.9945 11.2718L99.8891 11.186C99.7879 11.2312 99.5729 11.3079 99.4126 11.3576L99.265 11.4072C99.2229 11.4072 99.1975 11.4659 99.168 11.4975L99.0837 11.5788C99.0458 11.493 98.9698 11.4388 98.9192 11.4569C98.8616 11.5054 98.8139 11.5662 98.7791 11.6353C98.7443 11.7044 98.7231 11.7804 98.7168 11.8586V12.0211V12.0482C98.4992 12.0411 98.2814 12.0592 98.0674 12.1024L98.1096 12.0708L98.3837 11.8496C98.3837 12.0437 98.4385 12.1882 98.5144 12.1701C98.5903 12.1521 98.5945 11.9399 98.5945 11.8586C98.5642 11.7367 98.5079 11.6239 98.4301 11.5291C98.3963 11.502 98.2024 11.6374 98.1222 11.7097C98.0421 11.7819 98.4976 12.125 98.8476 12.2243L98.9445 12.1385L99.0584 12.0437C99.1014 11.9679 99.1644 11.9074 99.2394 11.8696C99.3144 11.8319 99.3981 11.8186 99.4801 11.8316C99.6192 11.8812 99.9608 12.0392 99.9524 11.9264L99.9777 11.8586V11.8316C100.07 11.8316 100.138 11.8316 100.125 11.8677C100.113 11.9038 100.125 11.985 100.18 11.9941C100.235 12.0031 100.382 12.0527 100.37 12.0934H100.21C100.07 12.1972 100.049 12.3055 100.159 12.3371L100.197 12.3055L100.357 12.1837C100.53 12.1851 100.703 12.2063 100.872 12.2469C100.964 12.2785 101.192 12.1159 101.234 12.1024H101.26L101.361 12.1521C101.474 12.2087 101.602 12.2215 101.723 12.1882L101.825 12.2694C101.858 12.2694 101.951 12.2694 102.014 12.2694H102.052C102.063 12.27 102.074 12.2729 102.084 12.278C102.094 12.2831 102.103 12.2902 102.111 12.299C102.118 12.3078 102.124 12.3181 102.128 12.3293C102.131 12.3405 102.133 12.3524 102.132 12.3642V12.4816C102.11 12.6058 102.06 12.7221 101.985 12.8201H101.812H101.626C101.369 12.8201 101.403 12.9736 101.694 13.1497L102.006 13.1271H102.137C102.211 13.0398 102.305 12.9758 102.411 12.942L102.445 12.9691L102.542 13.0459C102.548 13.1884 102.592 13.3261 102.668 13.4431H102.752C102.782 13.4431 102.82 13.3664 102.811 13.3302V13.2986C102.725 13.2695 102.632 13.2695 102.546 13.2986L102.428 13.267C102.356 13.2445 102.272 13.3393 102.111 13.2986L101.901 13.24C101.65 13.2836 101.414 13.3938 101.213 13.5605L101.34 13.6869L101.373 13.7185C101.551 13.6863 101.717 13.6001 101.85 13.4702L102.116 13.5695L102.537 13.8223L102.731 13.6146C102.683 13.5582 102.651 13.4887 102.638 13.4139C102.624 13.339 102.63 13.2617 102.655 13.1903C102.714 13.109 102.938 12.9556 103.077 13.082L103.136 13.1768C103.136 13.2174 103.136 13.2941 103.098 13.3393L103.056 13.398C103.005 13.6282 103.077 13.7952 103.216 13.7726C103.355 13.7501 103.575 14.0706 103.511 14.1157C103.448 14.1608 103.267 14.3414 103.381 14.3188C103.495 14.2963 104.62 14.1473 104.793 14.0796C104.966 14.0119 104.734 13.9622 104.502 13.9938L104.308 14.0796H104.249C104.178 14.0796 104.127 14.0796 104.136 14.0525C104.138 14.0218 104.131 13.9911 104.116 13.965C104.101 13.9388 104.078 13.9188 104.051 13.9081C103.971 13.9893 103.912 14.0841 103.84 14.1699L103.786 14.2331C103.871 14.3388 103.982 14.417 104.106 14.4588C104.22 14.4949 104.452 14.2376 104.481 14.2105C104.511 14.1834 104.62 14.2105 104.642 14.3775L104.857 14.2827L104.979 14.2286C104.683 14.1956 104.39 14.1397 104.102 14.0615C104.068 14.0585 104.035 14.046 104.007 14.0252C103.979 14.0045 103.957 13.9762 103.943 13.9433C103.928 13.9103 103.922 13.8739 103.925 13.8376C103.927 13.8013 103.939 13.7665 103.958 13.7365C104.028 13.6626 104.102 13.5946 104.182 13.5334C104.211 13.6192 104.211 13.7591 104.27 13.7817L104.443 13.8539C104.445 13.7453 104.474 13.6392 104.528 13.5469C104.826 13.5505 105.123 13.5914 105.413 13.6688L105.734 13.5063L105.848 13.4521C105.835 13.4929 105.833 13.5364 105.841 13.5783C105.849 13.6202 105.868 13.6592 105.894 13.6914C105.936 13.7275 106.109 13.7952 106.122 13.7275C106.148 13.6717 106.191 13.627 106.244 13.6008C106.296 13.5745 106.356 13.5683 106.413 13.583C106.552 13.6237 106.413 13.9803 106.501 14.0345C106.76 14.1197 107.039 14.1053 107.29 13.9938L107.581 13.899H107.614C107.707 14.0029 107.808 14.0706 107.838 14.048C107.867 14.0254 107.943 13.9532 107.948 13.9306L107.834 13.8584C107.72 13.7917 107.596 13.7488 107.467 13.732H107.399C107.36 13.7388 107.32 13.7388 107.281 13.732C107.024 13.5966 107.058 13.7591 107.049 13.8945V13.9216C107.024 13.9532 106.999 13.9216 106.995 13.8494C106.99 13.7771 106.742 13.741 106.708 13.6959V13.6598C106.72 13.6397 106.737 13.623 106.757 13.6113C106.777 13.5995 106.799 13.5929 106.822 13.5921C106.965 13.6417 107.092 13.4341 107.243 13.5921C107.408 13.4928 107.564 13.4657 107.589 13.5334L107.644 13.574H107.673L107.96 13.4205C108.032 13.3799 108.285 13.2986 108.314 13.3709C108.344 13.4431 108.454 13.6237 108.475 13.6146H108.513L108.728 13.556C108.946 13.4887 109.175 13.4748 109.398 13.5153C109.398 13.6869 109.499 13.8765 109.301 14.0254C109.301 14.0254 109.301 14.1247 109.348 14.1473C109.37 14.1575 109.395 14.1627 109.419 14.1627C109.444 14.1627 109.468 14.1575 109.491 14.1473C109.545 14.0689 109.596 13.9875 109.643 13.9035L109.672 13.8584C109.719 13.8133 109.769 13.8223 109.786 13.881C109.827 13.973 109.888 14.0534 109.963 14.1157C110.014 14.1157 110.187 14.1157 110.229 14.1157C110.271 14.1157 110.41 14.224 110.423 14.1924C110.436 14.1608 110.511 14.0976 110.554 14.1518C110.61 14.1987 110.68 14.2241 110.752 14.2241C110.823 14.2241 110.893 14.1987 110.95 14.1518L111.076 14.066C111.157 14.1428 111.19 14.2376 111.152 14.2737C111.114 14.3098 111.034 14.4407 111.098 14.4498C111.161 14.4588 111.342 14.531 111.317 14.5852C111.292 14.6393 111.283 14.8289 111.367 14.8425C111.452 14.856 111.536 14.9734 111.321 15.0817L111.148 15.1765C111.089 15.21 111.04 15.2599 111.005 15.321C110.989 15.3498 110.981 15.3825 110.981 15.4158C110.981 15.4491 110.989 15.4817 111.005 15.5106C111.034 15.5305 111.066 15.544 111.1 15.5502C111.135 15.5564 111.169 15.5552 111.203 15.5467L111.325 15.5061C111.322 15.4063 111.345 15.3076 111.393 15.2217H111.439C111.578 15.163 111.983 15.3255 112 15.4474V15.4835L111.717 15.6731C111.609 15.7586 111.51 15.857 111.422 15.9665C111.422 15.9891 111.346 15.9891 111.279 15.8898H111.211H111.148C111.043 15.9665 111.001 16.0613 111.06 16.0974C111.201 16.2578 111.289 16.4644 111.308 16.6842V16.928V17.1989C111.072 17.3523 110.887 17.4426 110.857 17.393C110.828 17.3433 110.769 17.244 110.71 17.2846C110.651 17.3253 110.684 17.56 110.625 17.569C110.566 17.578 110.423 17.6774 110.499 17.7676H110.558C110.658 17.7448 110.756 17.7162 110.853 17.6819C110.929 17.6819 111.064 17.6367 111.064 17.7676C111.064 17.8985 111.039 17.9482 110.988 17.9663L110.811 18.0295C110.771 18.0407 110.73 18.0411 110.69 18.0306C110.65 18.0201 110.613 17.9991 110.583 17.9694C110.553 17.9397 110.53 17.9024 110.517 17.8608C110.503 17.8192 110.5 17.7748 110.507 17.7315L110.233 17.7857L110.014 17.8263C110.102 18.0024 110.094 18.1559 109.993 18.1604C109.892 18.1649 109.605 18.1604 109.596 18.0836C109.588 18.0069 109.504 17.9392 109.436 18.0159C109.369 18.0927 109.162 18.2687 109.149 18.2055C109.137 18.1423 109.057 17.9933 109.006 18.0475C108.832 18.1687 108.627 18.2301 108.42 18.2236L108.268 18.3048L108.104 18.3906C107.906 18.3793 107.707 18.3793 107.509 18.3906H107.298C107.157 18.4072 107.015 18.3996 106.876 18.368C106.699 18.3364 106.198 18.4493 106.155 18.4312C106.045 18.3999 105.932 18.3803 105.818 18.3725C105.668 18.3818 105.518 18.3697 105.371 18.3364C105.295 18.2868 104.97 18.5034 104.814 18.5666L104.789 18.3319V18.2552L104.464 18.3951C104.393 18.4222 104.262 18.526 104.22 18.4628C104.178 18.3996 103.84 18.4628 103.748 18.4944C103.605 18.4907 103.464 18.4695 103.326 18.4312C103.271 18.4312 103.107 18.5305 103.069 18.5621C103.031 18.5937 102.862 18.535 102.816 18.517C102.663 18.5144 102.512 18.5467 102.373 18.6118C102.225 18.6795 101.69 18.4899 101.529 18.4809C101.308 18.5276 101.092 18.5987 100.884 18.693C100.813 18.693 100.547 18.6705 100.442 18.7743L100.248 18.6434C100.167 18.5847 99.965 18.675 99.8259 18.675C99.6867 18.675 99.5771 18.6253 99.4548 18.6208C99.3603 18.6294 99.267 18.6491 99.1765 18.6795L98.9698 18.7382C98.9698 18.6028 98.9698 18.5666 98.9698 18.6524C98.9698 18.7382 98.6325 18.6524 98.5102 18.684H98.3964L97.9367 18.6434C97.4307 18.6163 96.874 18.6028 96.6716 18.6118C96.4355 18.6446 96.2016 18.6944 95.9716 18.7608C95.8469 18.7935 95.72 18.8161 95.5921 18.8285L95.5457 18.7788C95.3981 18.6298 95.2337 18.7788 95.1241 18.7427L94.9554 18.6614C94.7915 18.6824 94.6259 18.6824 94.462 18.6614C94.2277 18.7031 93.9954 18.7574 93.7662 18.8239L93.5596 18.7111L93.4415 18.6524C93.282 18.6969 93.1161 18.7092 92.9524 18.6885C92.8849 18.6614 92.7162 18.7427 92.674 18.6885C92.6319 18.6344 92.459 18.5486 92.3704 18.5937C92.212 18.6691 92.0466 18.7266 91.8771 18.7653C91.7439 18.7637 91.6117 18.7408 91.4849 18.6976C91.249 18.7179 91.0158 18.7649 90.7891 18.8375C90.5529 18.8917 89.8951 18.7562 89.8445 18.8014C89.7939 18.8465 89.5788 18.7337 89.5283 18.7201C89.4776 18.7066 89.3301 18.7517 89.309 18.7201C89.2879 18.6885 89.2078 18.6208 89.1867 18.6614C89.1487 18.6942 89.1029 18.715 89.0545 18.7214C89.006 18.7278 88.9569 18.7195 88.9126 18.6976C88.8072 18.6389 88.4403 18.7969 88.3518 18.8059L88.2969 18.7743C88.2156 18.7168 88.1203 18.6862 88.0228 18.6862C87.9254 18.6862 87.8301 18.7168 87.7487 18.7743C87.5843 18.8736 87.4072 18.6344 87.3018 18.7021C87.2331 18.7493 87.1558 18.7802 87.0751 18.7927C86.9943 18.8051 86.912 18.7989 86.8337 18.7743C86.7938 18.7554 86.7507 18.7456 86.7072 18.7456C86.6636 18.7456 86.6205 18.7554 86.5807 18.7743C86.5174 18.7969 86.3656 18.7111 86.3572 18.7246C86.2728 18.8646 86.1716 18.666 86.1084 18.7246C86.0451 18.7833 86.0114 18.7607 85.9397 18.7246L85.8048 18.6389L84.9614 18.7562C84.6746 18.7923 83.6963 18.7562 83.5698 18.7878H83.1481C82.8831 18.7683 82.6169 18.7942 82.3596 18.8646C82.13 18.8782 81.8998 18.8554 81.6764 18.7969H81.5162C81.3264 18.7969 81.1325 18.7969 80.9427 18.7969H80.8373C80.7951 18.7111 80.7403 18.6479 80.7192 18.6479C80.6557 18.6596 80.5944 18.6824 80.5379 18.7156C80.4788 18.7517 80.2975 18.851 80.2385 18.8104C80.1794 18.7698 79.7704 18.8781 79.4836 18.8691C79.1969 18.8601 78.3662 18.7788 78.265 18.7653C78.1638 18.7517 77.8433 18.842 77.7632 18.7653C77.6831 18.6885 77.3415 18.8375 77.2276 18.8465C77.1138 18.8555 76.7596 18.8826 76.6288 18.9007C76.4981 18.9187 76.1312 18.7923 76.0385 18.8194C75.8654 18.851 75.6886 18.851 75.5156 18.8194C75.4228 18.7878 74.9885 18.8465 74.7987 18.8194L74.6174 18.7698L74.474 18.7337C74.1524 18.808 73.8247 18.8473 73.4957 18.851C73.1921 18.851 72.2053 18.8781 71.9776 18.9187L71.9101 18.6614V18.6389C71.7541 18.6389 71.6445 18.675 71.6656 18.7066C71.6715 18.7226 71.6735 18.7399 71.6713 18.757C71.6691 18.774 71.6628 18.7901 71.653 18.8038C71.6432 18.8174 71.6303 18.8281 71.6155 18.8348C71.6007 18.8415 71.5845 18.844 71.5686 18.842C71.3638 18.853 71.1605 18.8847 70.9614 18.9368L70.8011 18.8555L70.7125 18.8149C70.6582 18.7555 70.5897 18.7134 70.5144 18.693C70.4722 18.7291 70.4342 18.8285 70.4132 18.8239L69.9577 18.7517C69.6589 18.8436 69.3444 18.8606 69.0385 18.8014C69.0385 18.7382 68.9204 18.5937 68.8149 18.6344H68.7264C68.5367 18.6344 68.6125 18.7788 68.5324 18.8149C68.4432 18.8313 68.353 18.8403 68.2625 18.842C68.1571 18.842 68.0601 18.9052 67.9589 18.9187H67.8999L67.5879 18.833C67.4451 18.8243 67.3021 18.8442 67.1662 18.8917C67.1071 18.9142 66.8246 18.8601 66.7445 18.8917C66.6644 18.9233 66.2005 18.9368 65.9433 19L65.7156 18.842C65.6723 18.822 65.6256 18.8117 65.5785 18.8117C65.5314 18.8117 65.4847 18.822 65.4415 18.842L65.2517 18.9684C65.0539 18.9047 64.8525 18.8549 64.6487 18.8194V18.851C64.5306 19.0677 64.3704 18.7833 64.227 18.8871L64.0963 18.9865C63.8995 18.8912 63.6928 18.8215 63.4806 18.7788L63.2993 18.8962L63.1685 18.9774C63.1167 18.9137 63.0514 18.864 62.9781 18.8326C62.9048 18.8012 62.8255 18.789 62.7469 18.7969L62.7047 18.8555C62.6077 18.9955 62.5318 18.7923 62.4559 18.8555L62.4306 18.8781C62.3089 18.8905 62.1861 18.8798 62.0679 18.8465C61.6872 18.8503 61.3069 18.8789 60.9294 18.9323C60.8805 18.8754 60.8146 18.8385 60.7431 18.8278C60.6716 18.8171 60.5988 18.8333 60.5372 18.8736C60.3854 19 60.3517 18.7698 60.2041 18.8239L60.0945 18.8646C59.8351 18.7967 59.5662 18.7814 59.3017 18.8194H59.0529C58.9053 18.8194 58.6607 18.851 58.6312 18.7878L58.5258 18.6208C58.4422 18.6823 58.3473 18.7239 58.2475 18.7427C58.2095 18.7427 58.0408 18.7427 57.9186 18.7427H57.8131C57.712 18.7591 57.613 18.7879 57.5179 18.8285C57.4789 18.7608 57.4289 18.7012 57.3703 18.6524C57.3197 18.6208 57.2059 18.7653 57.1679 18.8375H57.0541H56.9149C56.7631 18.8375 56.4932 18.8601 56.3246 18.8781L56.1601 18.851L55.9957 18.8285C55.8101 18.8285 55.6499 18.8014 55.6372 18.7472C55.6282 18.6785 55.6097 18.6115 55.5824 18.5486C55.5534 18.5753 55.534 18.612 55.5276 18.6524C55.5276 18.7066 55.4137 18.8555 55.3336 18.842L55.3041 18.8104C55.1523 18.6389 55.1565 18.6389 54.9456 18.7878H54.9203C54.7813 18.8183 54.6404 18.8379 54.4986 18.8465C54.2794 18.8691 53.7185 18.675 53.6553 18.7111C53.592 18.7472 53.4613 18.6705 53.5246 18.6163C53.5878 18.5621 53.6974 18.4086 53.5836 18.4402C53.4268 18.5042 53.2835 18.6008 53.1619 18.7246H53.124C53.0396 18.7246 52.9595 18.666 52.8752 18.6614C52.7908 18.6569 52.7234 18.7201 52.6475 18.7291C52.5573 18.752 52.4635 18.752 52.3734 18.7291L52.1077 18.6118C51.8784 18.6701 51.646 18.7138 51.4119 18.7427H51.3318C51.1523 18.6809 50.9631 18.6579 50.7752 18.675L50.5264 18.7653C50.2986 18.6614 50.1047 18.6298 50.0499 18.6885C49.747 18.7214 49.4418 18.7214 49.139 18.6885H48.6077C48.3247 18.6793 48.0417 18.705 47.7643 18.7653L47.5577 18.6976C47.4438 18.6569 47.136 18.5757 47.0559 18.526C46.9965 18.509 46.9339 18.509 46.8745 18.526C46.8366 18.7201 46.748 18.7517 46.5878 18.6073C46.4456 18.6317 46.3048 18.6648 46.1661 18.7066L45.9974 18.666C45.9093 18.6237 45.8132 18.6037 45.7167 18.6076C45.6201 18.6115 45.5257 18.6392 45.4408 18.6885C45.3944 18.7246 45.2679 18.6885 45.1794 18.666H45.1119C45.0194 18.6424 44.9222 18.6552 44.8378 18.7021C44.6568 18.7182 44.4745 18.703 44.298 18.6569C44.0518 18.6405 43.8047 18.6496 43.5601 18.684L43.4041 18.5305C43.4041 18.5305 43.3577 18.5621 43.3281 18.5666L42.8559 18.6524C42.6028 18.5892 42.3583 18.5396 42.3161 18.535C42.2739 18.5305 41.945 18.5621 41.633 18.5621L41.3504 18.6028H41.1986C41.1438 18.4989 41.0848 18.4673 41.0637 18.535C40.8122 18.6272 40.5493 18.6789 40.2836 18.6885L40.0559 18.5125H40.0348C39.8976 18.5544 39.7557 18.5757 39.6131 18.5757L39.4655 18.526C39.3432 18.4854 39.2462 18.7337 39.0818 18.5621C39.0565 18.535 38.9595 18.5621 38.8962 18.5621C38.833 18.5621 38.8119 18.5892 38.7739 18.5847H38.7065C38.5743 18.5747 38.4415 18.59 38.3143 18.6298L38.2257 18.5125C38.1034 18.3454 38.0107 18.6163 37.8589 18.5125C37.7071 18.4086 37.7914 18.2552 37.6986 18.1694C37.6579 18.1511 37.6142 18.1417 37.57 18.1417C37.5258 18.1417 37.4821 18.1511 37.4414 18.1694L37.3064 18.2326C37.1715 18.3364 37.0914 18.4267 37.1251 18.4402C37.1589 18.4538 37.1251 18.508 36.9818 18.5396L36.8384 18.5125C36.756 18.4843 36.6713 18.4647 36.5854 18.4538H36.3239C36.1679 18.2913 36.0414 18.2055 36.0414 18.2687C36.0414 18.3319 35.9149 18.5666 35.7631 18.5621C35.6113 18.5576 35.2655 18.3635 35.2444 18.3906L35.2233 18.4177L35.1854 18.4583C35.0676 18.5082 34.9395 18.5238 34.8143 18.5034C34.586 18.4799 34.3611 18.4284 34.1438 18.35C34.089 18.3048 33.9329 18.3003 33.9245 18.35C33.9161 18.3996 33.6926 18.4177 33.6799 18.4177C33.6427 18.3262 33.6213 18.2284 33.6167 18.1288L33.3763 18.2822C33.2531 18.3455 33.1227 18.391 32.9884 18.4177H32.9167C32.807 18.4177 32.7143 18.3319 32.7143 18.2461V18.1694C32.7143 18.0836 32.7143 17.9933 32.5793 18.0069C32.4444 18.0204 32.5034 18.1333 32.4866 18.201V18.2326C32.457 18.2913 32.4064 18.3003 32.3727 18.2326C32.3546 18.2127 32.333 18.1968 32.3091 18.186C32.2852 18.1752 32.2595 18.1696 32.2335 18.1696C32.2076 18.1696 32.1819 18.1752 32.158 18.186C32.1341 18.1968 32.1125 18.2127 32.0944 18.2326L32.0354 18.3093C32.0028 18.3452 31.9595 18.3675 31.9131 18.3725H31.8751C31.8299 18.3048 31.7944 18.2303 31.7697 18.1513C31.7444 18.0701 31.5209 18.034 31.5715 18.0611C31.6221 18.0881 31.5715 18.2822 31.3311 18.4402L31.1245 18.2416L31.0444 18.1649C30.946 18.2097 30.8502 18.2609 30.7576 18.3184C30.6775 18.3635 30.2769 18.201 30.2432 18.1875H30.1757C30.142 18.1875 30.1251 18.2371 30.142 18.2552C30.1588 18.2732 30.0113 18.3861 29.7625 18.4357L29.6317 18.3635L29.4251 18.2597C29.2269 18.3003 29.0835 18.2913 29.1046 18.2597C29.0819 18.1636 29.0405 18.0737 28.9831 17.9959C28.9257 17.9181 28.8536 17.8542 28.7715 17.8083L28.4594 17.9843L28.2697 18.0927C27.9576 17.9979 27.7721 17.9256 27.848 17.9301L27.9365 17.727L28.3582 17.8173C28.3878 17.8173 28.4088 17.6593 28.2022 17.6774L28.0884 17.6051L27.8396 17.4426C27.7637 17.6006 27.6962 17.7044 27.6878 17.6728C27.6752 17.6392 27.6564 17.6086 27.6325 17.583C27.6086 17.5574 27.58 17.5373 27.5486 17.5239C27.4853 17.5239 27.3462 17.6367 27.3335 17.6683C27.2576 17.7607 27.1712 17.8426 27.0763 17.9121C26.9793 17.9933 26.8317 18.3635 26.8191 18.2958C26.8064 18.2281 26.7094 18.034 26.6462 18.0385C26.5355 18.0338 26.4255 18.0187 26.3173 17.9933C26.2667 17.9933 26.1528 18.0204 26.2161 18.052C26.3042 18.1005 26.3841 18.1646 26.4522 18.2416V18.2732C26.4433 18.2843 26.4323 18.2933 26.42 18.2995C26.4076 18.3057 26.3942 18.3091 26.3805 18.3093L26.2624 18.2777C26.1149 18.2236 25.9883 18.1288 25.9883 18.0701C25.9883 18.0114 25.9335 17.8444 25.8618 17.8669C25.7902 17.8895 25.7396 18.1243 25.7143 18.1875C25.689 18.2507 25.4275 18.2236 25.4022 18.2145C25.374 18.1674 25.3591 18.1125 25.3591 18.0565C25.3591 18.0005 25.374 17.9457 25.4022 17.8986C25.4781 17.7496 25.5118 17.4471 25.4022 17.6006C25.2926 17.7541 24.9341 18.052 24.8624 18.0204C24.7908 17.9888 24.6221 18.1378 24.5926 18.201C24.563 18.2642 24.2721 18.2823 24.2299 18.201C24.1877 18.1197 24.5504 17.9888 24.6516 17.9482C24.7896 17.9001 24.9236 17.8397 25.0522 17.7676C25.077 17.6987 25.0871 17.6246 25.0817 17.551H25.0606C25.0143 17.551 24.9341 17.551 24.9131 17.551L24.8329 17.6367C24.7612 17.736 24.6811 17.8173 24.6516 17.8128C24.6265 17.8028 24.6037 17.7872 24.5848 17.7669C24.5659 17.7467 24.5513 17.7223 24.542 17.6954C24.5053 17.596 24.4525 17.5042 24.3859 17.4246C24.348 17.3749 24.2215 17.2621 24.192 17.2801C24.0965 17.3472 24.0075 17.4243 23.9263 17.5103H24.0233H24.2426C24.3059 17.5979 24.3637 17.6898 24.4155 17.7857C24.3981 17.8168 24.3741 17.8432 24.3456 17.8628C24.3171 17.8824 24.2847 17.8946 24.251 17.8986H24.1667H24.095C24.0314 17.9172 23.9693 17.9414 23.9094 17.9708C23.8757 17.9708 23.7618 17.9166 23.7155 17.9708C23.6691 18.0249 23.5383 18.0295 23.4962 17.9708C23.454 17.9121 23.239 17.727 23.1209 17.8128L23.0408 17.876L22.9564 17.9392C22.8406 17.8629 22.721 17.7936 22.598 17.7315L22.5179 17.6232L22.442 17.5148L22.092 17.6999L22.054 17.7451L21.9865 17.8308C21.9492 17.8904 21.8953 17.9359 21.8326 17.9611C21.7698 17.9862 21.7012 17.9896 21.6365 17.9708C21.51 17.9256 21.2907 17.7451 21.2148 17.7225C21.1389 17.6999 20.9365 17.6819 20.9703 17.7812L20.9407 17.8083C20.8859 17.8624 20.7847 17.876 20.7173 17.9211C20.751 17.9888 20.7468 18.0565 20.7173 18.0746C20.6877 18.0927 20.5781 18.0295 20.5444 17.9617C20.3835 17.8119 20.1756 17.7329 19.9624 17.7406V18.0249C19.9624 18.1062 19.6968 18.1423 19.6504 18.0656C19.604 17.9888 19.6167 17.9166 19.7516 17.8986C19.7938 17.8986 19.8654 17.7947 19.8486 17.7676L19.7938 17.6548C19.7463 17.6989 19.6903 17.7311 19.6297 17.7491C19.5692 17.7671 19.5056 17.7703 19.4438 17.7586C19.3004 17.7586 18.9167 17.8805 18.8661 17.8534H18.8155C18.7564 17.8534 18.6679 17.8218 18.6257 17.8534L18.4486 17.9572L18.0522 17.8308C17.9309 17.8278 17.8096 17.8353 17.6895 17.8534L17.5672 17.7631L17.5293 17.736C17.499 17.7222 17.4649 17.7216 17.4342 17.7342C17.4035 17.7468 17.3787 17.7718 17.3648 17.8037C17.3315 17.8734 17.2838 17.934 17.2254 17.9809C17.1669 18.0278 17.0992 18.0599 17.0275 18.0746C16.8352 18.0595 16.6421 18.0595 16.4498 18.0746V18.0972L16.4287 18.1288C16.3992 18.1649 16.3654 18.1649 16.3528 18.1288V18.1017L16.3064 18.034C16.2516 17.9708 16.0871 17.9888 15.9395 18.0746H15.9184L15.7793 17.9482C15.7419 17.9851 15.6981 18.0137 15.6503 18.0323C15.6025 18.0509 15.5518 18.0591 15.501 18.0565C15.3601 18.0567 15.2194 18.0492 15.0793 18.034C14.8916 18.0422 14.7064 18.0834 14.5311 18.1559C14.4425 18.1559 14.1558 18.0881 14.0377 18.1559L13.8943 18.0295L13.7847 17.9347C13.5949 18.001 13.3979 18.0404 13.1986 18.052L13.0721 18.1197L12.9413 18.1829C12.8013 18.126 12.6693 18.0485 12.5492 17.9527L12.4395 18.0881C12.3468 18.2055 12.2582 18.0295 12.1696 18.0295C12.0811 18.0295 11.9209 18.1378 11.8829 18.1107C11.7386 18.0225 11.5697 17.9921 11.4064 18.0249C11.2124 18.0249 10.9847 17.9482 10.8202 18.1152C10.7355 18.0988 10.6523 18.0746 10.5714 18.043C10.3633 17.9917 10.147 17.9917 9.93892 18.043L9.79132 18.0159C9.47915 17.9647 9.17061 17.8908 8.86783 17.7947C8.80457 17.7947 8.77506 17.6683 8.72445 17.6051C8.69363 17.5678 8.65211 17.5424 8.60638 17.5329C8.5347 17.5329 8.45458 17.5916 8.39133 17.578H8.34916C8.32538 17.527 8.2916 17.482 8.25012 17.4462C8.20864 17.4103 8.16044 17.3845 8.10879 17.3704C7.93971 17.3583 7.76988 17.3674 7.60276 17.3975L7.52686 17.3478C7.32234 17.2376 7.09264 17.1921 6.86481 17.2169C6.83951 17.2169 6.77626 17.1176 6.78891 17.0995C6.80156 17.0815 6.98289 16.9641 6.74253 16.937C6.63289 16.937 6.64554 16.8197 6.74253 16.752L6.7847 16.7158C6.80138 16.6891 6.81027 16.6577 6.81027 16.6256C6.81027 16.5934 6.80138 16.562 6.7847 16.5353C6.75518 16.4766 6.91542 16.3908 6.97445 16.4405C7.03349 16.4901 7.26121 16.4134 7.32446 16.4631L7.35397 16.5172C7.37927 16.5579 7.35397 16.6211 7.35397 16.6662C7.38198 16.7036 7.42038 16.7305 7.46361 16.7429H7.48891C7.55983 16.6874 7.62363 16.6221 7.67868 16.5488C7.74615 16.4631 7.89795 16.1606 7.86 16.0974C7.82205 16.0342 7.48048 16.0974 7.38349 16.0613V16.0162L7.34976 15.8898C7.27386 15.7724 7.18109 15.7272 7.13892 15.7859C7.09675 15.8446 7.05036 16.1019 6.95337 16.0071C6.85639 15.9123 6.4347 15.7769 6.37144 15.7227C6.30819 15.6686 6.48529 15.4745 6.56542 15.5331C6.64554 15.5918 6.89855 15.7273 6.9365 15.7002C6.97883 15.618 7.01412 15.5319 7.04192 15.4429L7.19373 15.5331C7.25202 15.5576 7.31677 15.5576 7.37506 15.5331C7.42988 15.4609 7.42145 15.4067 7.29494 15.3616L7.19795 15.3255C7.11361 15.1991 7.11783 15.0592 7.19795 15.014L7.24855 14.9508L7.27807 14.9147C7.26066 14.8459 7.22012 14.7864 7.16422 14.7477C7.0091 14.6631 6.8448 14.5994 6.67506 14.5581L6.63289 14.7161L6.56119 14.9644C6.35457 14.9012 6.24072 14.8289 6.30397 14.8064C6.36722 14.7838 6.47687 14.7116 6.45156 14.689L6.20698 14.4768L6.12686 14.4091L6.05096 14.3504C5.93094 14.3741 5.80703 14.3567 5.69674 14.3008H5.59554C5.48334 14.2894 5.37038 14.2894 5.25818 14.3008C5.06871 14.2849 4.87838 14.2849 4.68891 14.3008C4.50759 14.3324 4.37264 14.2105 4.19131 14.2466C4.0805 14.2515 3.97114 14.2183 3.87927 14.1518L3.75277 14.0841C3.54679 14.0779 3.34126 14.0598 3.13709 14.0299C2.94733 13.9983 2.31903 13.7139 2.10397 13.6462L1.89733 13.6011L1.75818 13.5695C1.60353 13.5574 1.44991 13.5333 1.29854 13.4973L1.2142 13.4521L0.864203 13.2625C0.923239 13.0594 0.999144 12.8111 1.0371 12.7163L0.77986 12.757C0.653354 12.757 0.585886 12.7163 0.611187 12.6035L0.632267 12.5312C0.643556 12.4937 0.646773 12.4539 0.641661 12.4148C0.636549 12.3757 0.623251 12.3383 0.602758 12.3055C0.564806 12.2649 0.472034 12.1295 0.522637 12.1024C0.630361 12.0343 0.731996 11.9557 0.826252 11.8677L0.68288 11.818C0.564807 11.7819 0.514201 11.7277 0.573237 11.6555L0.674438 11.5291C0.508357 11.3353 0.388314 11.1015 0.324443 10.8475L0.113599 10.6037L0.0587776 10.545C0.147332 10.378 0.16841 10.2381 0.105157 10.229C0.0419039 10.22 -0.0466474 10.1433 0.0292564 10.0756C0.10516 10.0078 0.0292626 9.76408 0.0882989 9.75054C0.147335 9.73699 0.294919 9.58803 0.25275 9.47066L0.2148 9.35781C0.172631 9.24044 0.0925106 9.11856 0.109378 9.0057C0.149439 8.87816 0.228084 8.76855 0.332872 8.69423C0.400342 8.64006 0.581665 8.66714 0.619617 8.60846L0.691309 8.49109C0.800948 8.49109 0.94011 8.52269 0.999146 8.5272C1.05818 8.53172 1.34915 8.25636 1.42083 8.27893C1.49252 8.3015 1.813 8.18864 1.93107 8.18413L2.04914 8.1435C2.1377 8.11191 2.29794 8.22475 2.36963 8.18864C2.41267 8.15778 2.46331 8.14131 2.51511 8.14131C2.56692 8.14131 2.61754 8.15778 2.66058 8.18864C2.75702 8.22784 2.86355 8.22784 2.95999 8.18864L3.20879 8.07128C3.18348 8.2067 3.35637 8.16156 3.59673 7.97648L3.94674 8.03516H4.00577C4.07094 7.99105 4.14982 7.97644 4.22505 7.99454C4.41452 8.01576 4.60475 7.96284 4.76059 7.84557L5.04734 7.98551C5.13589 8.03065 5.36783 7.89974 5.41422 7.94488L5.57445 8.09385C5.69674 8.01259 5.9118 7.8862 6.05518 7.81397L6.17747 7.78688C6.31715 7.763 6.45948 7.763 6.59916 7.78688C6.80362 7.85727 7.02478 7.84768 7.22325 7.7598L7.39192 7.66501C7.54279 7.64178 7.69672 7.66043 7.83892 7.71917L7.86843 7.75078L7.91903 7.81397C7.98228 7.8862 8.09192 7.8546 8.1594 7.74626C8.22686 7.63792 8.72024 7.74626 8.88048 7.74626C9.04072 7.74626 9.5088 7.54764 9.63109 7.53861H9.74494C9.91616 7.55856 10.0894 7.54323 10.2552 7.49347C10.2998 7.46783 10.3484 7.45101 10.3986 7.44381H10.4871C10.601 7.39339 10.718 7.35117 10.8371 7.31742H10.9341H11.0142C11.0859 7.40318 11.1407 7.37158 11.1365 7.24519L11.3558 7.2813C11.4257 7.30721 11.5004 7.31499 11.5737 7.30401C11.647 7.29302 11.7169 7.26358 11.7775 7.2181C11.8006 7.20874 11.8261 7.20874 11.8492 7.2181C11.8492 7.29936 11.8492 7.39867 11.9968 7.36256C12.0558 7.36256 12.0684 7.21811 12.1317 7.19102C12.2786 7.12856 12.4336 7.0905 12.5913 7.07817H12.7684C12.9388 7.10775 13.1125 7.10775 13.2829 7.07817C13.4275 7.03751 13.5762 7.01628 13.7257 7.01497C13.8404 7.03141 13.9567 7.03141 14.0715 7.01497C14.101 6.98788 14.2233 6.91565 14.2317 6.94725C14.2536 6.98006 14.2842 7.00497 14.3196 7.01868C14.355 7.03238 14.3935 7.03424 14.4299 7.024C14.5635 6.9662 14.7086 6.946 14.8516 6.96531C14.9022 7.00143 15.1046 7.10976 15.1552 7.08268C15.2327 7.01391 15.3033 6.93676 15.366 6.85246C15.4251 6.78475 15.6907 6.82086 15.7877 6.79377H16.007C16.1838 6.79636 16.3601 6.81448 16.5341 6.84795H16.6775C16.7162 6.85906 16.7569 6.85906 16.7956 6.84795L17.1034 6.67641C17.2889 6.80281 17.4492 6.86149 17.4576 6.80732C17.466 6.75315 17.5588 6.62224 17.6432 6.65835H17.7064H17.7654C17.8774 6.63901 17.9808 6.58211 18.0606 6.49584H18.2082H18.2672C18.2833 6.47865 18.2961 6.45825 18.3048 6.43578C18.3135 6.41332 18.3179 6.38925 18.3179 6.36493C18.3179 6.34062 18.3135 6.31655 18.3048 6.29408C18.2961 6.27162 18.2833 6.25121 18.2672 6.23403H18.1913C18.0606 6.20243 18.0648 6.30173 18.0395 6.37848C18.0142 6.45522 17.9088 6.41459 17.8413 6.42362C17.6895 6.4507 17.4998 6.53195 17.3986 6.4823C17.2406 6.42934 17.0742 6.41092 16.9094 6.42813C16.7365 6.42813 16.5678 6.42813 16.395 6.42813C16.2221 6.42813 16.0492 6.42813 15.8805 6.42813C15.6401 6.45522 15.5558 6.28368 15.4335 6.17534L15.2901 6.04895C15.1483 6.0485 15.0068 6.06515 14.8684 6.0986C14.7782 6.12078 14.6866 6.13587 14.5944 6.14374C14.4737 6.11155 14.3595 6.05651 14.257 5.98123C14.1937 5.9406 13.9407 5.85483 13.8943 5.90449L13.8648 5.96318C13.8142 6.04894 13.8227 6.05346 13.9829 6.05346H14.063C14.063 6.0986 14.063 6.17986 14.0335 6.18437C13.9239 6.18437 13.7594 6.29271 13.7341 6.10763V6.01734C13.7636 5.89998 13.7931 5.78261 13.8016 5.75552C13.81 5.72844 13.8016 5.66073 13.7594 5.67427H13.7215L13.5654 5.70587L13.3588 5.74198C13.377 5.76859 13.3892 5.79939 13.3943 5.83192C13.3995 5.86445 13.3975 5.89782 13.3885 5.92937C13.3795 5.96092 13.3637 5.98979 13.3425 6.01368C13.3212 6.03757 13.295 6.05583 13.266 6.067C13.0889 6.12603 12.8992 6.12603 12.7221 6.067V6.02637L12.7431 5.95415C12.7727 5.88192 12.7431 5.82324 12.7052 5.82775C12.6505 5.81696 12.6013 5.7855 12.5664 5.7391C12.5316 5.6927 12.5135 5.63445 12.5154 5.57496H12.4733L12.0811 5.44405C12.157 5.15966 12.3172 4.95201 12.4395 4.99264L12.5239 5.02423C12.604 5.05132 12.6799 5.09646 12.7642 5.11903C12.8171 5.12467 12.8703 5.11201 12.916 5.08292L12.9456 5.06035C13.0796 5.04762 13.2078 4.99613 13.3166 4.91138V4.78499C13.2099 4.71772 13.0901 4.67757 12.9666 4.66762L12.895 4.70825C12.8401 4.73985 12.895 4.89333 12.7516 4.85721L12.6546 4.83013C12.5576 4.74888 12.4437 4.74888 12.4016 4.83013C12.3594 4.91138 12.119 4.83013 12.1275 4.79402C12.1359 4.7579 12.1275 4.68567 12.0853 4.68567C12.0431 4.68567 11.8702 4.72179 11.8618 4.76693C11.8534 4.81207 11.7901 4.94298 11.7522 4.93847C11.7522 4.89784 11.7522 4.83916 11.71 4.80756L11.5919 4.66762C11.3937 4.66762 11.2124 4.66762 11.1703 4.66762C11.1281 4.66762 11.0943 4.48705 11.2419 4.29746L11.4528 4.40128L11.613 4.48705C11.7901 4.48705 11.9419 4.4058 11.9462 4.32003C11.9504 4.23426 11.9166 3.99501 11.8618 3.99501C11.807 3.99501 11.651 4.03113 11.7058 4.08078V4.12141V4.16203C11.7058 4.22975 11.5962 4.26135 11.4949 4.23426C11.3937 4.20718 11.2209 4.09884 11.3389 4.0537V4.00855C11.3389 3.94536 11.2715 3.87313 11.2124 3.81445C11.1534 3.75577 11.107 3.87764 11.0522 3.87313C10.9941 3.86056 10.941 3.82902 10.9004 3.78285C10.9004 3.78285 10.951 3.71513 10.9805 3.68354L11.3727 3.75125C11.5624 3.78285 12.0727 3.62034 12.1233 3.65645H12.1654C12.2239 3.64531 12.2789 3.61895 12.3257 3.57971C12.3309 3.57011 12.3336 3.5592 12.3336 3.54811C12.3336 3.53702 12.3309 3.52612 12.3257 3.51652V3.48491C12.2962 3.48491 12.3257 3.42623 12.3636 3.39915C12.4016 3.37207 12.5956 3.33595 12.6335 3.36755C12.6715 3.39915 12.8148 3.46686 12.8528 3.43075C12.8941 3.40726 12.9414 3.39854 12.9876 3.40585C13.0339 3.41315 13.0768 3.43611 13.11 3.47137C13.1816 3.58686 13.2605 3.69697 13.3462 3.80091C13.3547 3.68857 13.3447 3.5755 13.3166 3.46686V3.30886V3.27275C13.3487 3.25565 13.3841 3.24676 13.42 3.24676C13.4558 3.24676 13.4912 3.25565 13.5233 3.27275V3.31338L13.5697 3.41269C13.616 3.54812 13.713 3.51652 13.7931 3.34046L13.8943 3.25469L14.0124 3.15538C14.0715 3.02447 14.1432 2.94322 14.1642 2.97482C14.2468 3.04945 14.3479 3.09653 14.4552 3.11024L14.548 3.15538L14.6365 3.19601C14.7799 3.21858 14.8937 3.19601 14.8937 3.12379C14.8937 3.05156 14.9359 2.93871 14.9823 2.96579H15.0329C15.1355 3.02565 15.2466 3.06684 15.3618 3.08767C15.4166 3.08767 15.4757 2.91162 15.5347 2.91162H15.6486C15.7524 2.9116 15.8557 2.92524 15.9564 2.95225C15.9777 2.95761 15.9998 2.95784 16.0212 2.95292C16.0426 2.94799 16.0627 2.93805 16.0801 2.92379C16.0974 2.90954 16.1116 2.89133 16.1216 2.87049C16.1315 2.84965 16.1371 2.82669 16.1377 2.80328V2.713L16.1588 2.60918C16.2094 2.50084 16.4456 2.47827 16.6901 2.55952L16.9642 2.33381C17.1287 2.19839 17.2679 1.96365 17.5588 2.19387C17.6853 2.09004 17.8413 2.06296 17.9088 2.12616L17.9847 2.17582L18.0185 2.19839H18.2799C18.4357 2.16195 18.5892 2.11522 18.7395 2.05845C18.9465 2.02951 19.1549 2.01293 19.3636 2.0088C19.4944 2.0088 19.7853 1.83726 19.8697 1.90045C19.954 1.96365 20.1058 2.15325 20.0932 2.19839C20.0805 2.24353 20.1185 2.40604 20.2239 2.40152H20.3293H20.498C20.6109 2.29195 20.7153 2.17269 20.81 2.04491C20.8733 1.95011 21.0968 1.71086 21.1474 1.75149H21.1853L21.3835 1.8508C21.3539 1.96443 21.292 2.06539 21.2064 2.1397L21.1769 2.19839L21.1558 2.24353C21.1811 2.30672 21.2317 2.35638 21.2655 2.34736C21.3965 2.26795 21.5233 2.18053 21.645 2.08554L21.8516 2.16679L21.9106 2.19387C21.9697 2.22547 22.0624 2.16679 22.1215 2.05845C22.1805 1.95011 22.4167 1.68829 22.4968 1.74697H22.5769L22.7161 1.78309C22.8257 1.85252 22.9415 1.90998 23.0618 1.95462C23.1293 1.95462 23.1209 2.18484 23.1504 2.21644C23.1799 2.24804 23.2938 2.26158 23.3148 2.30672C23.3359 2.35186 23.5004 2.30673 23.5215 2.21193C23.5426 2.11713 23.8209 2.15776 23.8799 2.1713C24.042 2.13497 24.2079 2.12131 24.3733 2.13067L24.5673 2.15324H24.7528C24.9468 2.19839 25.145 2.15324 25.1745 2.10359C25.204 2.05393 25.1408 1.81469 25.1745 1.76052ZM105.295 3.9273C105.384 3.79639 105.325 3.6384 105.16 3.5752L105.029 3.55263L104.827 3.51652C104.604 3.51652 104.486 3.5436 104.566 3.60228C104.646 3.66097 105.194 4.05821 105.295 3.9273ZM107.315 5.23189C107.349 5.20029 107.315 5.02423 107.243 4.83915H106.645C106.514 5.01972 106.484 5.24543 106.581 5.34925H106.632L106.758 5.32217C106.885 5.24543 107.016 5.20931 107.054 5.24091C107.135 5.26942 107.223 5.26623 107.302 5.23189H107.315ZM108.715 16.1606C108.766 16.1606 108.88 16.0748 108.968 15.9439C109.057 15.813 108.783 15.4925 108.825 15.4699V15.3616C108.698 15.3255 108.572 15.3255 108.551 15.3616C108.529 15.3977 108.61 15.5467 108.639 15.6099C108.669 15.6731 108.639 15.8491 108.677 15.9168C108.715 15.9846 108.669 16.1471 108.702 16.1606H108.715ZM15.7245 4.72179C15.7245 4.79401 15.6528 4.82562 15.5769 4.78047C15.501 4.73533 15.5516 4.93396 15.7371 4.92944H15.9016L16.2094 4.96555C16.3233 4.80755 16.3317 4.69471 16.2347 4.71728C16.1377 4.73985 15.8636 4.68116 15.851 4.62699C15.8323 4.56603 15.8083 4.50709 15.7793 4.45094C15.7475 4.53747 15.729 4.62893 15.7245 4.72179ZM19.7305 2.46472C19.8022 2.3293 19.6883 2.22547 19.4775 2.22998L19.351 2.09456C19.2741 2.13947 19.2122 2.20889 19.1739 2.29318C19.1739 2.35638 19.4185 2.47827 19.4944 2.49632C19.4944 2.6498 19.5534 2.6814 19.6588 2.555L19.7305 2.46472ZM100.501 2.63626C100.501 2.55049 100.467 2.5234 100.437 2.58209C100.409 2.62253 100.371 2.65257 100.326 2.66797C100.281 2.68336 100.233 2.68332 100.189 2.66786C100.104 2.61369 99.8174 2.5866 99.847 2.61369C99.8765 2.64077 99.9018 2.72654 99.847 2.75814C99.7921 2.78974 99.771 2.88454 99.9903 2.82585L100.087 2.86648L100.226 2.92065C100.295 2.91317 100.36 2.88103 100.41 2.82942C100.459 2.77781 100.491 2.70976 100.501 2.63626ZM108.808 14.1654C108.884 14.2105 108.96 14.1924 108.981 14.1202C109.002 14.048 108.858 13.8178 108.825 13.7546L108.728 13.8358L108.551 13.9938C108.428 13.9635 108.304 13.9424 108.18 13.9306C108.172 13.9433 108.167 13.9582 108.167 13.9735C108.167 13.9888 108.172 14.0037 108.18 14.0164C108.276 14.0796 108.386 14.1338 108.487 14.1924H108.517C108.542 14.2556 108.736 14.1202 108.808 14.1654ZM17.3016 2.6498C17.445 2.69043 17.5588 2.69946 17.5588 2.6498C17.5668 2.57503 17.5852 2.50197 17.6136 2.43312C17.6432 2.37443 17.5546 2.31575 17.466 2.37895L17.3185 2.28867C17.1835 2.20742 17.1413 2.38798 17.0486 2.44215C16.9558 2.49632 16.9727 2.57306 17.0486 2.64077C17.1245 2.70848 17.1498 2.75362 17.2552 2.66786L17.3016 2.6498ZM97.9915 12.5809C97.9409 12.6215 97.9915 12.6441 98.1012 12.6215C98.2108 12.599 98.5229 12.8021 98.6325 12.7976C98.7421 12.7931 98.7885 12.5267 98.6578 12.5132C98.4318 12.4953 98.2046 12.512 97.9831 12.5628L97.9915 12.5809ZM70.2951 18.21C70.2318 18.1784 70.177 18.21 70.177 18.2732C70.177 18.3364 70.1475 18.4989 70.1095 18.4989C70.0716 18.4989 69.9493 18.4989 69.9493 18.5576C69.9533 18.614 69.9617 18.6698 69.9746 18.7246C70.1615 18.7099 70.3474 18.6828 70.5312 18.6434V18.5305V18.4583C70.4933 18.377 70.3415 18.2416 70.2951 18.21ZM92.8849 0.794492C92.9319 0.822439 92.987 0.830523 93.0393 0.817154C93.0916 0.803785 93.1373 0.769931 93.1674 0.722264L93.1927 0.641013C93.1961 0.605343 93.1926 0.569304 93.1825 0.535137C93.1723 0.500971 93.1557 0.469406 93.1337 0.44239C93.1219 0.422147 93.1063 0.404828 93.0878 0.391598C93.0692 0.378368 93.0483 0.369527 93.0263 0.365678C93.0044 0.36183 92.9819 0.363065 92.9604 0.369288C92.9389 0.375511 92.9189 0.386578 92.9017 0.401758L92.8216 0.455932C92.6825 0.505588 92.7963 0.735808 92.868 0.794492H92.8849ZM90.5234 0.794492C90.6795 0.758379 90.7849 0.672611 90.7596 0.604899C90.6633 0.510248 90.536 0.45998 90.4054 0.464962C90.321 0.514618 90.3548 0.844145 90.5066 0.812546L90.5234 0.794492ZM110.119 14.8425C110.153 14.7341 110.06 14.6845 109.913 14.7341L109.795 14.7973C109.702 14.847 109.617 14.9147 109.765 15.0095H109.807C109.807 15.154 110.073 14.9914 110.102 14.8605L110.119 14.8425ZM27.7046 1.78309C27.5697 1.84629 27.6329 1.94108 27.8438 1.99525L27.9914 2.04491C28.1347 2.09456 28.1938 1.99977 28.2613 1.93206C28.3287 1.86434 28.2866 1.84177 28.2613 1.80114C28.1115 1.74972 27.9545 1.72681 27.7974 1.73343L27.7046 1.78309ZM12.7853 4.06724C12.7745 4.03245 12.7544 4.00186 12.7273 3.97936C12.7003 3.95686 12.6677 3.94345 12.6335 3.94085C12.5256 3.95392 12.4211 3.98917 12.3257 4.04467C12.2204 4.13686 12.1415 4.25887 12.098 4.39677H12.119L12.1443 4.41934C12.3015 4.36027 12.4515 4.28147 12.5913 4.18461L12.7727 4.05821L12.7853 4.06724ZM26.701 2.08554C26.701 2.15325 26.7643 2.1713 26.857 2.13067C26.9936 2.07168 27.1204 1.98935 27.2323 1.88691L27.1691 1.81468C27.1227 1.76051 27.1691 1.63863 27.0215 1.66572L26.8865 1.68829C26.7969 1.80557 26.7295 1.94053 26.6884 2.08554H26.701ZM66.871 1.09243C66.9933 1.15562 67.0017 1.15562 66.8963 1.09243C66.7909 1.02923 66.5421 0.808033 66.5083 0.884773C66.4947 0.95935 66.5052 1.03667 66.5382 1.10396C66.5712 1.17126 66.6246 1.22451 66.6897 1.25494L66.7234 1.22333L66.871 1.09243ZM34.907 1.90045C34.907 1.96365 34.9872 1.94108 35.0631 1.85531C35.139 1.76954 35.1685 1.4987 35.0631 1.52127C34.9361 1.54789 34.8127 1.59188 34.6962 1.65218C34.6962 1.65218 34.6962 1.73343 34.7426 1.72891C34.789 1.7244 34.8986 1.8192 34.907 1.90045ZM49.8812 1.33168C49.6155 1.3091 49.4806 1.39487 49.5818 1.51224L49.7336 1.48064C49.877 1.44633 50.0179 1.40107 50.1553 1.34522C50.1553 1.34522 50.1553 1.25945 50.1553 1.21882C50.1433 1.20739 50.1293 1.19869 50.114 1.19325C50.0988 1.18782 50.0827 1.18577 50.0667 1.18722L49.8812 1.33168ZM11.1829 16.7971C11.2366 16.6844 11.2571 16.5569 11.2419 16.4315L11.0901 16.4721C11.0395 16.4721 10.9763 16.6075 10.9468 16.4947C10.9172 16.3818 10.8708 16.3096 10.7401 16.3863C10.8039 16.5061 10.8883 16.6118 10.9889 16.6978L11.0859 16.7339L11.1829 16.7971ZM96.2373 11.8993C96.271 11.8361 96.1825 11.7684 96.0391 11.7503L95.9548 11.7909L95.862 11.8361C95.8302 11.8795 95.8095 11.9311 95.8021 11.9858C95.7947 12.0404 95.8008 12.0962 95.8198 12.1475H95.8746H95.9464C96.0564 12.0899 96.1552 12.0102 96.2373 11.9128V11.8993ZM81.5162 0.749348C81.5752 0.659065 81.5162 0.622953 81.4318 0.672609C81.3475 0.722264 81.0523 0.672609 81.0102 0.722264V0.753867C81.0102 0.826093 80.9511 0.920884 81.0945 0.952483H81.1704C81.2589 1.02471 81.4571 0.857687 81.5162 0.76289V0.749348ZM98.2572 2.78071C98.1222 2.67237 98.1138 2.64529 98.2572 2.72203C98.4302 2.81263 98.6176 2.86774 98.8096 2.88453C98.8433 2.86196 98.8096 2.72202 98.603 2.64528L98.5018 2.68592L98.2572 2.78071ZM84.2318 0.943459C84.3373 1.00666 84.4216 1.02471 84.4174 0.984085C84.4215 0.917798 84.4343 0.852452 84.4554 0.789974C84.4554 0.758375 84.4216 0.641011 84.2951 0.631983C84.1686 0.622955 84.1222 0.893803 84.2318 0.957001V0.943459ZM68.4059 0.975055C68.3005 0.975055 68.3216 1.07436 68.4565 1.19173L68.5957 1.23688H68.6378C68.7728 1.11499 68.5114 0.997627 68.4059 0.997627V0.975055ZM27.1902 16.9777C27.0721 16.9777 27.0004 17.0409 27.0384 17.1176C27.0763 17.1943 27.2534 17.3388 27.3715 17.2982C27.4896 17.2575 27.3082 16.9777 27.1902 16.9777ZM99.1048 13.5966C99.1048 13.6192 99.0837 13.6778 99.012 13.7275C98.9403 13.7771 98.9277 13.9397 99.012 13.8945L99.1048 13.8584L99.2102 13.8133C99.3578 13.7726 99.4084 13.6823 99.3241 13.6101L99.2524 13.5469C99.2228 13.5244 99.1933 13.4882 99.168 13.4882H99.1174C99.1087 13.4934 99.1014 13.5007 99.0958 13.5095C99.0902 13.5183 99.0867 13.5284 99.0855 13.539C99.0843 13.5495 99.0853 13.5602 99.0887 13.5702C99.0921 13.5803 99.0976 13.5893 99.1048 13.5966ZM97.418 12.0843C97.5614 12.0843 97.612 12.0166 97.5235 11.9579C97.4349 11.8993 97.1018 11.9579 96.9963 11.9579C96.8909 11.9579 97.2831 12.0889 97.4307 12.0843H97.418ZM63.8011 1.15562C63.9487 1.28202 64.1131 1.20528 64.1637 0.979573L63.9065 0.875743H63.8517C63.7252 0.952484 63.6451 1.03825 63.6704 1.06082L63.8011 1.15562ZM22.6823 4.21621C22.6699 4.22304 22.6595 4.2334 22.6523 4.24614C22.645 4.25888 22.6412 4.27351 22.6412 4.28843C22.6412 4.30335 22.645 4.31799 22.6523 4.33073C22.6595 4.34347 22.6699 4.35382 22.6823 4.36066C22.807 4.43258 22.9384 4.49008 23.0745 4.5322H23.163C23.1936 4.52448 23.2205 4.50526 23.239 4.47803C23.239 4.45094 23.239 4.39677 23.239 4.38323L23.1124 4.29746C22.9775 4.22523 22.7498 4.15752 22.695 4.21621H22.6823ZM14.919 4.89333C14.8439 4.81096 14.7463 4.75612 14.6403 4.73667C14.5343 4.71721 14.4252 4.73412 14.3287 4.78499C14.5817 5.11 14.5859 5.11001 14.9317 4.89333H14.919Z" fill="url(#paint0_linear_627_10245)"/>
<defs>
<linearGradient id="paint0_linear_627_10245" x1="1.12" y1="1.71" x2="7.32461" y2="36.7446" gradientUnits="userSpaceOnUse">
<stop stop-color="#EECFD5"/>
<stop offset="1" stop-color="#C86478"/>
</linearGradient>
</defs>
</svg>
