<svg width="505" height="452" viewBox="0 0 505 452" fill="none" xmlns="http://www.w3.org/2000/svg">
<path d="M226.422 19.8076C227.036 19.8084 227.637 19.9824 228.157 20.3098C228.677 20.6371 229.095 21.1047 229.364 21.6592" stroke="#FBCB9C" stroke-width="2" stroke-linecap="round" stroke-linejoin="round"/>
<path d="M232.896 23.4183C232.897 22.2185 232.584 21.0394 231.988 19.9999C231.392 18.9604 230.533 18.0971 229.499 17.497C228.465 16.8969 227.292 16.5811 226.098 16.5815C224.904 16.582 223.731 16.8985 222.697 17.4994C221.664 18.1002 220.806 18.9641 220.21 20.0041C219.615 21.044 219.302 22.2233 219.305 23.4231C219.307 24.6229 219.624 25.8009 220.224 26.8385C220.824 27.876 221.685 28.7365 222.721 29.3332V33.9C222.721 34.7258 223.047 35.5177 223.628 36.1016C224.21 36.6855 224.998 37.0136 225.82 37.0136H226.384C226.791 37.0136 227.194 36.933 227.57 36.7765C227.946 36.62 228.287 36.3907 228.575 36.1015C228.862 35.8124 229.091 35.4691 229.246 35.0914C229.402 34.7136 229.482 34.3088 229.481 33.9V29.3332C230.518 28.7365 231.38 27.8753 231.98 26.8367C232.579 25.7981 232.895 24.6189 232.896 23.4183V23.4183Z" stroke="#FBCB9C" stroke-width="2" stroke-linecap="round" stroke-linejoin="round"/>
<path d="M222.719 32.4492H229.479" stroke="#FBCB9C" stroke-width="2" stroke-linecap="round" stroke-linejoin="round"/>
<path d="M236.668 24.1157H238.357" stroke="#FBCB9C" stroke-width="2" stroke-linecap="round" stroke-linejoin="round"/>
<path d="M213.848 24.1157H215.538" stroke="#FBCB9C" stroke-width="2" stroke-linecap="round" stroke-linejoin="round"/>
<path d="M226.102 13.4999V11.8013" stroke="#FBCB9C" stroke-width="2" stroke-linecap="round" stroke-linejoin="round"/>
<path d="M233.57 16.6087L234.766 15.4072" stroke="#FBCB9C" stroke-width="2" stroke-linecap="round" stroke-linejoin="round"/>
<path d="M217.434 32.8221L218.629 31.6206" stroke="#FBCB9C" stroke-width="2" stroke-linecap="round" stroke-linejoin="round"/>
<path d="M218.629 16.6087L217.434 15.4072" stroke="#FBCB9C" stroke-width="2" stroke-linecap="round" stroke-linejoin="round"/>
<path d="M234.766 32.8221L233.57 31.6206" stroke="#FBCB9C" stroke-width="2" stroke-linecap="round" stroke-linejoin="round"/>
<path d="M246.858 35.1215C249.295 30.1712 249.897 24.5109 248.557 19.1549C247.217 13.799 244.022 9.09775 239.545 5.89372C235.068 2.68968 229.602 1.19238 224.126 1.67018C218.651 2.14798 213.523 4.56965 209.663 8.50113C205.803 12.4326 203.463 17.6169 203.062 23.1247C202.661 28.6325 204.225 34.1038 207.474 38.5579C210.724 43.012 215.446 46.1578 220.794 47.4313C226.142 48.7048 231.767 48.0228 236.661 45.5075" stroke="#FBCB9C" stroke-width="2" stroke-linecap="round" stroke-linejoin="round"/>
<path d="M254.83 43.0327L237.678 35.6296C237.606 35.5982 237.526 35.5893 237.448 35.6042C237.371 35.6191 237.3 35.6569 237.244 35.7129C237.188 35.7689 237.151 35.8404 237.136 35.9182C237.121 35.9959 237.13 36.0763 237.161 36.149L244.528 53.3822C244.553 53.4406 244.592 53.4919 244.642 53.5318C244.692 53.5717 244.75 53.5989 244.813 53.6111C244.875 53.6233 244.939 53.6202 245 53.6019C245.061 53.5837 245.117 53.5509 245.162 53.5064L247.639 51.027C247.713 50.9537 247.813 50.9125 247.917 50.9125C248.021 50.9125 248.12 50.9537 248.194 51.027L255.599 58.4668C255.635 58.5036 255.679 58.5328 255.727 58.5527C255.774 58.5726 255.826 58.5828 255.877 58.5828C255.929 58.5828 255.98 58.5726 256.028 58.5527C256.076 58.5328 256.119 58.5036 256.156 58.4668L259.886 54.7191C259.922 54.6825 259.951 54.639 259.971 54.5912C259.991 54.5433 260.001 54.492 260.001 54.4402C260.001 54.3884 259.991 54.3371 259.971 54.2892C259.951 54.2414 259.922 54.1979 259.886 54.1613L252.481 46.7247C252.444 46.688 252.415 46.6444 252.396 46.5964C252.376 46.5485 252.366 46.497 252.366 46.4451C252.366 46.3931 252.376 46.3417 252.396 46.2937C252.415 46.2457 252.444 46.2021 252.481 46.1654L254.953 43.6828C255.001 43.6372 255.036 43.5805 255.055 43.5179C255.075 43.4553 255.079 43.3887 255.067 43.3241C255.055 43.2596 255.026 43.1991 254.985 43.1482C254.944 43.0974 254.89 43.0576 254.83 43.0327V43.0327Z" stroke="#FBCB9C" stroke-width="2" stroke-linecap="round" stroke-linejoin="round"/>
<path d="M45.3789 386.919L54.1157 396.127L18.0785 430.334L9.34166 421.126L45.3789 386.919Z" stroke="#FBCB9C" stroke-width="2" stroke-miterlimit="10"/>
<path d="M43.8828 398.196L47.7365 402.257" stroke="#FBCB9C" stroke-width="2" stroke-miterlimit="10"/>
<path d="M41.9367 407.762L40.2852 406.022" stroke="#FBCB9C" stroke-width="2" stroke-miterlimit="10"/>
<path d="M30.3352 418.772L28.6836 417.032" stroke="#FBCB9C" stroke-width="2" stroke-miterlimit="10"/>
<path d="M32.2812 409.207L36.1349 413.268" stroke="#FBCB9C" stroke-width="2" stroke-miterlimit="10"/>
<path d="M20.6797 420.217L24.5334 424.278" stroke="#FBCB9C" stroke-width="2" stroke-miterlimit="10"/>
<path d="M6.00196 417.572L36.7812 388.358L39.2448 381.649L32.4166 383.759L1.63736 412.973L6.00196 417.572Z" stroke="#FBCB9C" stroke-width="2" stroke-miterlimit="10"/>
<path d="M11.8417 412.067L7.4375 407.426" stroke="#FBCB9C" stroke-width="2" stroke-miterlimit="10"/>
<path d="M62.8687 407.702L33.8302 435.264L27.0017 437.374L29.4654 430.664L58.5039 403.103L62.8687 407.702Z" stroke="#FBCB9C" stroke-width="2" stroke-miterlimit="10"/>
<path d="M56.143 405.289L53.957 402.985L48.14 408.507" stroke="#FBCB9C" stroke-width="2" stroke-miterlimit="10"/>
<path d="M90.8405 101.821L31.6871 77.7257C28.0716 76.253 23.9452 77.9938 22.4706 81.6139L7.21656 119.062C5.74193 122.682 7.47747 126.811 11.093 128.283L70.2464 152.379C73.862 153.852 77.9883 152.111 79.463 148.491L94.717 111.043C96.1916 107.423 94.4561 103.294 90.8405 101.821Z" stroke="#FBCB9C" stroke-width="2" stroke-linecap="round" stroke-linejoin="round"/>
<path d="M40.4062 135.073L44.5294 136.752" stroke="#FBCB9C" stroke-width="2" stroke-linecap="round" stroke-linejoin="round"/>
<path d="M7.98828 117.173L80.2347 146.602" stroke="#FBCB9C" stroke-width="2" stroke-linecap="round" stroke-linejoin="round"/>
<path d="M30.4339 145.592L34.4878 137.785" stroke="#FBCB9C" stroke-width="2" stroke-linecap="round" stroke-linejoin="round"/>
<path d="M46.8711 142.829L44.3182 151.247" stroke="#FBCB9C" stroke-width="2" stroke-linecap="round" stroke-linejoin="round"/>
<path d="M23.3125 142.691L51.4354 154.146" stroke="#FBCB9C" stroke-width="2" stroke-linecap="round" stroke-linejoin="round"/>
<path d="M84.9852 107.794L31.7031 86.0898L19.9166 115.025L73.1987 136.729L84.9852 107.794Z" stroke="#FBCB9C" stroke-width="2" stroke-linecap="round" stroke-linejoin="round"/>
<path d="M27.5469 111.809L69.9905 129.098" stroke="#FBCB9C" stroke-width="2" stroke-linecap="round" stroke-linejoin="round"/>
<path d="M35.2301 117.024C36.2801 117.265 37.3271 116.608 37.5685 115.557C37.81 114.506 37.1544 113.458 36.1044 113.218C35.0544 112.977 34.0074 113.634 33.766 114.685C33.5245 115.736 34.1801 116.784 35.2301 117.024Z" stroke="#FBCB9C" stroke-width="2" stroke-linecap="round" stroke-linejoin="round"/>
<path d="M64.6609 109.263C63.9234 111.074 61.9202 112.207 60.2886 111.542C58.657 110.878 58.0162 108.672 58.7554 106.857C59.4947 105.042 61.4239 104.114 63.0455 104.774C64.667 105.435 65.4002 107.448 64.6609 109.263Z" stroke="#FBCB9C" stroke-width="2" stroke-linecap="round" stroke-linejoin="round"/>
<path d="M51.314 116.43C51.962 114.839 53.2145 113.571 54.796 112.903C56.3776 112.236 58.1587 112.224 59.7477 112.871V112.871C61.3369 113.518 62.6034 114.771 63.2688 116.354C63.9342 117.937 63.9439 119.72 63.2957 121.311" stroke="#FBCB9C" stroke-width="2" stroke-linecap="round" stroke-linejoin="round"/>
<path d="M49.6901 103.962L39.7578 99.916" stroke="#FBCB9C" stroke-width="2" stroke-linecap="round" stroke-linejoin="round"/>
<path d="M43.3352 106.644L37.918 104.437" stroke="#FBCB9C" stroke-width="2" stroke-linecap="round" stroke-linejoin="round"/>
<path d="M471.207 379.388C471.175 379.341 471.144 379.292 471.108 379.246C471.108 379.246 467.657 374.844 466.04 373.187C465.886 373.021 465.719 372.867 465.54 372.727C464.825 372.123 463.704 372.288 463.045 372.779C462.805 372.951 462.607 373.177 462.469 373.438C462.33 373.699 462.254 373.989 462.247 374.283C461.861 373.806 461.302 373.499 460.69 373.427C460.078 373.356 459.461 373.526 458.972 373.901C458.671 374.133 458.429 374.434 458.267 374.778C458.106 375.122 458.029 375.5 458.044 375.879C457.653 375.522 457.155 375.302 456.626 375.253C456.097 375.204 455.566 375.329 455.114 375.609C454.662 375.888 454.314 376.307 454.122 376.801C453.931 377.296 453.907 377.838 454.055 378.346L448.974 371.673C448.078 370.497 446.546 370.156 445.549 370.911C444.551 371.666 444.473 373.231 445.367 374.403L454.275 386.092C453.459 385.545 452.731 385.068 452.197 384.741C450.298 383.575 448.28 383.495 447.429 384.489C446.151 385.962 449.088 387.528 450.919 389.027C452.426 390.257 455.396 392.517 456.203 392.998C457.609 393.838 458.913 394.469 459.964 394.768C463.455 396.004 466.8 395.161 469.577 393.06C472.943 390.512 475.728 385.297 471.211 379.387L471.207 379.388Z" stroke="#FBCB9C" stroke-width="2" stroke-linecap="round" stroke-linejoin="round"/>
<path d="M432.629 399.316C432.423 398.638 432.085 398.006 431.633 397.458C431.182 396.911 430.627 396.457 429.999 396.124C429.371 395.79 428.683 395.583 427.974 395.515C427.265 395.447 426.549 395.518 425.867 395.725L399.426 403.756L386.387 360.823L412.828 352.793C413.51 352.586 414.226 352.514 414.935 352.583C415.644 352.651 416.332 352.858 416.96 353.191C417.588 353.525 418.143 353.978 418.594 354.526C419.046 355.074 419.384 355.705 419.59 356.384L432.629 399.316Z" stroke="#FBCB9C" stroke-width="2" stroke-linecap="round" stroke-linejoin="round"/>
<path d="M457.966 368.973L449.655 341.608L423.214 349.638C421.836 350.057 420.68 351.002 420.001 352.267C419.321 353.533 419.173 355.013 419.589 356.384L432.628 399.316C432.212 397.946 432.36 396.465 433.04 395.2C433.72 393.935 434.875 392.989 436.253 392.571L443.426 390.392" stroke="#FBCB9C" stroke-width="2" stroke-linecap="round" stroke-linejoin="round"/>
<path d="M413.335 361.557L395.965 366.833" stroke="#FBCB9C" stroke-width="2" stroke-linecap="round" stroke-linejoin="round"/>
<path d="M415.277 367.956L397.906 373.232" stroke="#FBCB9C" stroke-width="2" stroke-linecap="round" stroke-linejoin="round"/>
<path d="M417.222 374.357L399.852 379.633" stroke="#FBCB9C" stroke-width="2" stroke-linecap="round" stroke-linejoin="round"/>
<path d="M444.945 351.955L427.574 357.231" stroke="#FBCB9C" stroke-width="2" stroke-linecap="round" stroke-linejoin="round"/>
<path d="M446.89 358.354L429.52 363.63" stroke="#FBCB9C" stroke-width="2" stroke-linecap="round" stroke-linejoin="round"/>
<path d="M440.564 367.267L431.465 370.031" stroke="#FBCB9C" stroke-width="2" stroke-linecap="round" stroke-linejoin="round"/>
<path d="M419.163 380.758L401.793 386.033" stroke="#FBCB9C" stroke-width="2" stroke-linecap="round" stroke-linejoin="round"/>
<path d="M488.955 33.0278L468.17 55.1015L438 52.8712L459.032 31.4375L488.955 33.0278Z" stroke="#FBCB9C" stroke-width="2" stroke-linecap="round" stroke-linejoin="round"/>
<path d="M479.742 43.0513L483.606 53.0575C484.772 56.0776 479.401 60.9876 471.606 64.0226C463.811 67.0577 456.549 67.0684 455.383 64.0483L451.605 54.2625" stroke="#FBCB9C" stroke-width="2" stroke-linecap="round" stroke-linejoin="round"/>
<path d="M445.602 53.584L447.578 58.6995" stroke="#FBCB9C" stroke-width="2" stroke-linecap="round" stroke-linejoin="round"/>
<path d="M450.227 59.8743C450.081 59.4951 449.825 59.1682 449.493 58.9348C449.162 58.7014 448.768 58.572 448.363 58.563C447.958 58.554 447.56 58.6658 447.218 58.8842C446.876 59.1027 446.607 59.4179 446.443 59.7902C446.28 60.1625 446.23 60.575 446.3 60.9756C446.371 61.3762 446.558 61.747 446.837 62.041C447.117 62.335 447.478 62.539 447.873 62.6273C448.269 62.7156 448.682 62.6841 449.059 62.5369C449.31 62.4392 449.539 62.2927 449.734 62.106C449.928 61.9192 450.084 61.6959 450.193 61.4486C450.301 61.2013 450.36 60.935 450.366 60.6649C450.372 60.3948 450.325 60.1261 450.227 59.8743V59.8743Z" stroke="#FBCB9C" stroke-width="2" stroke-linecap="round" stroke-linejoin="round"/>
<path d="M447.594 62.5435L448.772 65.5913" stroke="#FBCB9C" stroke-width="2" stroke-linecap="round" stroke-linejoin="round"/>
<path d="M450.141 61.5527L451.317 64.6006" stroke="#FBCB9C" stroke-width="2" stroke-linecap="round" stroke-linejoin="round"/>
<path d="M503.653 84.3733L485.19 84.8613L473.148 70.8012L491.441 70.6963L503.653 84.3733Z" stroke="#FBCB9C" stroke-width="2" stroke-linecap="round" stroke-linejoin="round"/>
<path d="M495.367 84.6963L492.724 90.6894C491.927 92.498 487.497 92.2797 482.831 90.2035C478.165 88.1274 475.03 84.9789 475.827 83.1703L478.413 77.3228" stroke="#FBCB9C" stroke-width="2" stroke-linecap="round" stroke-linejoin="round"/>
<path d="M451.635 75.3518L441.811 86.4839L427.012 85.8696L436.966 75.0479L451.635 75.3518Z" stroke="#FBCB9C" stroke-width="2" stroke-linecap="round" stroke-linejoin="round"/>
<path d="M447.29 80.4028L449.338 85.2422C449.956 86.7019 447.405 89.1891 443.638 90.7965C439.872 92.4039 436.319 92.5195 435.7 91.0619L433.703 86.3338" stroke="#FBCB9C" stroke-width="2" stroke-linecap="round" stroke-linejoin="round"/>
<path d="M245.397 427.898C246.26 427.914 247.085 428.398 247.491 429.222L252.886 440.161C253.314 441.028 253.158 442.03 252.571 442.725" stroke="#FBCB9C" stroke-width="2" stroke-miterlimit="10" stroke-linecap="round" stroke-linejoin="round"/>
<path d="M242.489 428.444C242.489 428.444 238.626 431.912 241.5 439.006C244.373 446.1 250.395 444.641 250.395 444.641L242.489 428.444Z" stroke="#FBCB9C" stroke-width="2" stroke-miterlimit="10" stroke-linecap="round" stroke-linejoin="round"/>
<path d="M252.24 424.519C251.818 425.189 251.738 426.053 252.104 426.815L257.377 437.813C257.801 438.698 258.704 439.196 259.628 439.148" stroke="#FBCB9C" stroke-width="2" stroke-miterlimit="10" stroke-linecap="round" stroke-linejoin="round"/>
<path d="M254.578 422.404C254.578 422.404 259.694 421.511 263.5 428.152C267.306 434.792 262.438 438.624 262.438 438.624L254.578 422.404Z" stroke="#FBCB9C" stroke-width="2" stroke-miterlimit="10" stroke-linecap="round" stroke-linejoin="round"/>
<path d="M268.957 427.845C269.461 423.16 268.661 418.195 266.218 413.243C260.734 402.124 248.276 397.056 237.152 402.522L237.152 402.521C237.148 402.523 237.144 402.525 237.141 402.527C237.137 402.529 237.134 402.53 237.13 402.532L237.13 402.533C226.018 408.021 222.452 420.983 227.937 432.102C230.379 437.054 233.833 440.712 237.858 443.165" stroke="#FBCB9C" stroke-width="2" stroke-miterlimit="10" stroke-linecap="round" stroke-linejoin="round"/>
<path d="M251.733 406.853C247.976 404.807 243.424 404.533 239.172 406.623L239.172 406.622C239.169 406.624 239.167 406.625 239.165 406.626C239.162 406.627 239.16 406.628 239.158 406.629L239.158 406.63C234.928 408.719 232.377 412.47 231.699 416.673" stroke="#FBCB9C" stroke-width="2" stroke-miterlimit="10" stroke-linecap="round" stroke-linejoin="round"/>
</svg>
