<svg width="513" height="152" viewBox="0 0 513 152" fill="none" xmlns="http://www.w3.org/2000/svg">
<path d="M456.467 149.562C466.328 149.562 477.259 149.155 484.375 143.689C490.143 139.219 491.818 132.607 493.213 126.143L510.842 46.5423C513.167 35.9781 515.214 24.3797 507.958 15.2191C498.19 3.02963 476.794 1.66304 458.56 1.58917L74.4945 0.148544C61.1176 -0.399475 47.7106 0.570663 34.6786 3.02968C28.1648 4.28244 22.0563 6.61072 16.7509 9.86285C11.4455 13.115 7.06216 17.2181 3.88635 21.9049C-2.06744 32.0259 0.0257345 43.8089 2.2584 54.8533L14.5846 115.579C15.5506 123.716 18.5219 131.623 23.3292 138.85C36.9113 156.358 67.6105 151.372 89.2394 151.261C118.946 151.261 148.669 151.125 178.407 150.854L358.509 150.005L456.467 149.562Z" fill="white"/>
</svg>
