<?xml version="1.0" encoding="utf-8"?>
<!-- Generator: Adobe Illustrator 26.3.1, SVG Export Plug-In . SVG Version: 6.00 Build 0)  -->
<svg version="1.1" id="Layer_1" xmlns="http://www.w3.org/2000/svg" xmlns:xlink="http://www.w3.org/1999/xlink" x="0px" y="0px"
	 viewBox="0 0 433 237.5" style="enable-background:new 0 0 433 237.5;" xml:space="preserve">
<style type="text/css">
	.st0{fill:#C76478;}
	.st1{fill:none;}
	.st2{fill:#32B3C7;}
	.st3{fill:#284664;}
	.st4{fill:#F9A95A;}
	.st5{fill:#327846;}
	.st6{fill:#63636B;}
	.st7{display:none;fill:url(#SVGID_1_);}
	.st8{fill:#908F9C;}
	.st9{fill:#4ABFA7;}
	.st10{fill:#FFFFFF;}
</style>
<g>
	<g>
		<path class="st0" d="M185.5,132.4c-10,0-18,8.1-18,18c0,10,8.1,18,18,18c10,0,18-8.1,18-18S195.5,132.4,185.5,132.4z"/>
	</g>
	<g>
		<g>
			<path class="st1" d="M95.4,96.3c-9.9,0-18,8.1-18,18c0,10,8.1,18,18,18s18-8.1,18-18C113.5,104.4,105.4,96.3,95.4,96.3z"/>
		</g>
		<g>
			<path class="st0" d="M185.5,96c10,0,18-8.1,18-18c0-10-8.1-18-18-18h-18V42.2c0-10-8.1-18-18-18c-10,0-18,8.1-18,18V60h-18
				c-2.5,0-4.9,0.5-7,1.4c24.6,5.1,43.1,26.9,43.1,53c0,15.8-6.8,30-17.6,39.9c1.8,8.1,9,14.1,17.6,14.1c10,0,18-8.1,18-18V96H185.5
				L185.5,96z"/>
		</g>
		<g>
			<path class="st2" d="M131.5,96h-18c-10,0-18-8.1-18-18c0-7.5,4.5-13.9,11-16.6c-3.5-0.7-7.2-1.1-11-1.1
				c-17.7,0-33.4,8.5-43.3,21.6c4.4,3.3,7.2,8.5,7.2,14.4v54.1c0,1.3-0.1,2.6-0.4,3.9c9.6,8.8,22.4,14.1,36.5,14.1
				s26.9-5.4,36.5-14.1c-0.3-1.2-0.4-2.5-0.4-3.9L131.5,96L131.5,96z M95.4,132.4c-9.9,0-18-8.1-18-18c0-10,8.1-18,18-18
				s18,8.1,18,18C113.5,124.3,105.4,132.4,95.4,132.4z"/>
		</g>
		<g>
			<path class="st0" d="M149.5,114.3c0-26.1-18.5-47.9-43.1-53c-6.5,2.7-11,9.1-11,16.6c0,10,8.1,18,18,18h18v54.4
				c0,1.3,0.2,2.6,0.4,3.9C142.7,144.4,149.5,130.1,149.5,114.3z"/>
		</g>
		<g>
			<path class="st3" d="M149.5,114.3c0-26.1-18.5-47.9-43.1-53c-6.5,2.7-11,9.1-11,16.6c0,10,8.1,18,18,18h18v54.4
				c0,1.3,0.2,2.6,0.4,3.9C142.7,144.4,149.5,130.1,149.5,114.3z"/>
		</g>
		<g>
			<path class="st4" d="M41.4,66.3c9.9,0,18-8.1,18-18c0-10-8.1-18-18-18c-10,0-18,8.1-18,18C23.3,58.2,31.4,66.3,41.4,66.3z"/>
		</g>
		<g>
			<path class="st4" d="M41.4,114.3c0-12.2,4-23.4,10.8-32.4c-3-2.3-6.8-3.6-10.8-3.6c-10,0-18,8.1-18,18v54.1c0,10,8.1,18,18,18
				c8.6,0,15.8-6.1,17.6-14.1C48.1,144.4,41.4,130.1,41.4,114.3z"/>
		</g>
		<g>
			<path class="st2" d="M59.4,96.3c0-5.9-2.8-11.1-7.2-14.4c-6.8,9-10.8,20.3-10.8,32.4c0,15.8,6.8,30,17.6,39.9
				c0.3-1.2,0.4-2.5,0.4-3.9V96.3L59.4,96.3z"/>
		</g>
		<g>
			<path class="st5" d="M59.4,96.3c0-5.9-2.8-11.1-7.2-14.4c-6.8,9-10.8,20.3-10.8,32.4c0,15.8,6.8,30,17.6,39.9
				c0.3-1.2,0.4-2.5,0.4-3.9V96.3L59.4,96.3z"/>
		</g>
	</g>
</g>
<g>
	<path class="st3" d="M226.8,60.2h7.7v26.1h-7.7V60.2z"/>
	<path class="st3" d="M239,60.2h21.3v6h-13.6v4.1H259v6h-12.3v4.1h13.9v6H239V60.2z"/>
	<path class="st3" d="M264.4,60.2h7.7v19.6H283v6.5h-18.6V60.2z"/>
	<path class="st3" d="M283.7,60.2h22.9v6.2H299v19.9h-7.8V66.4h-7.5V60.2z"/>
	<path class="st3" d="M323.2,66.6c-1.6-0.6-3-0.9-4.1-0.9c-0.7,0-1.2,0.1-1.6,0.4s-0.6,0.6-0.6,1.1c0,0.7,0.4,1.2,1.1,1.6
		s1.9,0.8,3.5,1.2c1.8,0.5,3.4,1,4.5,1.6c1.2,0.5,2.2,1.4,3.1,2.4c0.9,1.1,1.3,2.5,1.3,4.3s-0.5,3.3-1.4,4.6c-1,1.2-2.2,2.2-3.9,2.8
		c-1.6,0.6-3.4,0.9-5.4,0.9c-2.2,0-4.5-0.4-6.7-1.1c-2.2-0.8-4.2-1.8-5.8-3.1l2.9-5.9c1.3,1.1,2.9,2.1,4.8,2.9s3.5,1.2,4.9,1.2
		c0.9,0,1.5-0.2,2-0.5s0.7-0.8,0.7-1.4c0-0.7-0.4-1.3-1.2-1.6c-0.8-0.4-2-0.8-3.6-1.2c-1.8-0.5-3.3-1-4.5-1.5s-2.2-1.3-3.1-2.4
		s-1.3-2.5-1.3-4.2s0.5-3.1,1.4-4.4s2.1-2.2,3.8-2.9c1.6-0.7,3.5-1,5.7-1c2,0,3.9,0.3,5.8,0.8s3.6,1.3,5.1,2.2l-2.9,6
		C326.4,67.8,324.8,67.1,323.2,66.6z"/>
</g>
<g>
	<path class="st3" d="M246.7,102.3c2.1,1.2,3.8,2.8,5,4.8s1.9,4.3,1.9,6.8s-0.6,4.8-1.9,6.8c-1.2,2.1-2.9,3.7-5,4.9
		c-2.1,1.2-4.5,1.8-7.1,1.8s-5-0.6-7.1-1.8c-2.1-1.2-3.8-2.8-5-4.8s-1.9-4.3-1.9-6.9c0-2.5,0.6-4.8,1.9-6.8c1.2-2,2.9-3.6,5-4.8
		s4.5-1.8,7.1-1.8S244.6,101.1,246.7,102.3z M235.7,106.8c-1.2,0.7-2.2,1.7-2.9,3s-1.1,2.6-1.1,4.2c0,1.5,0.4,2.9,1.1,4.2
		c0.7,1.3,1.7,2.3,2.9,3s2.6,1.1,4,1.1s2.8-0.4,4-1.1s2.2-1.7,2.9-3s1.1-2.7,1.1-4.2s-0.4-2.9-1.1-4.2c-0.7-1.3-1.7-2.3-2.9-3
		s-2.5-1.1-4-1.1C238.3,105.7,236.9,106,235.7,106.8z"/>
	<path class="st3" d="M275.3,108.8c1.3,1.4,2,3.2,2,5.6V127h-5.7v-10.9c0-1.3-0.4-2.3-1.1-3s-1.7-1.1-2.9-1.1
		c-1.4,0-2.5,0.5-3.4,1.5c-0.8,1-1.2,2.2-1.2,3.7v9.9h-5.7v-20h5.7v3.5c1.4-2.4,3.7-3.7,6.9-3.7C272.2,106.8,274,107.4,275.3,108.8z
		"/>
	<path class="st3" d="M282.5,99.4h5.7V127h-5.7V99.4z"/>
	<path class="st3" d="M299,99c0.6,0.6,0.9,1.4,0.9,2.3s-0.3,1.7-0.9,2.3c-0.6,0.6-1.3,0.9-2.2,0.9c-0.9,0-1.6-0.3-2.2-0.9
		s-0.9-1.4-0.9-2.3s0.3-1.7,0.9-2.3c0.6-0.6,1.3-0.9,2.2-0.9C297.6,98.1,298.4,98.4,299,99z M293.9,107h5.7v20h-5.7V107z"/>
	<path class="st3" d="M323.1,108.8c1.3,1.4,2,3.2,2,5.6V127h-5.7v-10.9c0-1.3-0.4-2.3-1.1-3s-1.7-1.1-2.9-1.1
		c-1.4,0-2.5,0.5-3.4,1.5c-0.8,1-1.2,2.2-1.2,3.7v9.9h-5.7v-20h5.7v3.5c1.4-2.4,3.7-3.7,6.9-3.7C320,106.8,321.8,107.4,323.1,108.8z
		"/>
	<path class="st3" d="M345.9,109.6c1.7,1.9,2.5,4.5,2.5,7.8c0,0.6,0,1.1,0,1.4H334c0.3,1.3,0.9,2.2,1.9,3c0.9,0.7,2,1.1,3.3,1.1
		c1,0,1.8-0.2,2.7-0.5c0.9-0.4,1.6-0.9,2.3-1.6l3,3c-1,1.1-2.2,2-3.7,2.6s-3.1,0.9-4.9,0.9c-2.1,0-3.9-0.4-5.5-1.3s-2.8-2-3.6-3.6
		s-1.3-3.3-1.3-5.3s0.4-3.8,1.3-5.4c0.9-1.5,2.1-2.8,3.6-3.6c1.6-0.9,3.3-1.3,5.4-1.3C341.8,106.8,344.3,107.7,345.9,109.6z
		 M343.1,115.3c0-1.3-0.5-2.4-1.3-3.2c-0.8-0.8-1.9-1.2-3.1-1.2s-2.3,0.4-3.1,1.2c-0.8,0.8-1.4,1.8-1.6,3.2H343.1z"/>
	<path class="st3" d="M225,141.9h21.7v5h-8v21h-5.9v-21H225V141.9z"/>
	<path class="st3" d="M265.7,150.5c1.7,1.9,2.5,4.5,2.5,7.8c0,0.6,0,1.1,0,1.4h-14.3c0.3,1.3,1,2.2,1.9,3c0.9,0.7,2,1.1,3.3,1.1
		c0.9,0,1.9-0.2,2.7-0.5c0.9-0.4,1.6-0.9,2.3-1.6l3,3c-1,1.1-2.2,2-3.7,2.6s-3.1,0.9-4.9,0.9c-2.1,0-3.9-0.4-5.5-1.3
		c-1.6-0.9-2.8-2-3.6-3.6c-0.9-1.5-1.3-3.3-1.3-5.3s0.4-3.8,1.3-5.4c0.9-1.5,2.1-2.8,3.6-3.6c1.6-0.9,3.3-1.3,5.3-1.3
		C261.6,147.7,264,148.7,265.7,150.5z M262.8,156.3c0-1.3-0.5-2.4-1.3-3.2s-1.8-1.2-3.1-1.2c-1.2,0-2.3,0.4-3.1,1.2
		c-0.8,0.8-1.4,1.8-1.6,3.2H262.8z"/>
	<path class="st3" d="M281.3,152.4c-1.1-0.3-2-0.5-2.9-0.5c-0.7,0-1.2,0.1-1.7,0.4c-0.4,0.2-0.6,0.6-0.6,1.1s0.3,1,0.9,1.3
		s1.5,0.6,2.8,1c1.4,0.4,2.6,0.8,3.5,1.2s1.7,1,2.4,1.8c0.7,0.8,1,1.9,1,3.2c0,2-0.8,3.5-2.3,4.6s-3.5,1.6-5.9,1.6
		c-1.6,0-3.2-0.2-4.7-0.7s-2.8-1.2-4-2.1l1.9-3.9c1,0.8,2.1,1.4,3.4,1.8c1.3,0.4,2.4,0.6,3.6,0.6c0.8,0,1.4-0.1,1.8-0.4
		c0.5-0.3,0.7-0.6,0.7-1.2c0-0.6-0.3-1-0.9-1.3s-1.5-0.7-2.8-1c-1.4-0.4-2.5-0.8-3.4-1.2s-1.7-1-2.3-1.8c-0.6-0.8-1-1.9-1-3.1
		c0-2,0.7-3.5,2.2-4.6s3.4-1.6,5.6-1.6c1.4,0,2.7,0.2,4.1,0.6c1.4,0.4,2.6,0.9,3.7,1.7l-2,3.9C283.4,153.2,282.4,152.7,281.3,152.4z
		"/>
	<path class="st3" d="M302.8,166.8c-0.7,0.5-1.6,0.8-2.5,1s-1.8,0.4-2.7,0.4c-1.9,0-3.4-0.5-4.5-1.6c-1.2-1.1-1.8-2.6-1.8-4.6v-9.2
		h-2.8v-3.9h2.8v-5.5h5.7v5.5h5.4v4H297v8.2c0,1.5,0.6,2.3,1.8,2.3c0.8,0,1.8-0.2,2.8-0.7L302.8,166.8z"/>
	<path class="st3" d="M315.7,152.4c-1.1-0.3-2-0.5-2.9-0.5c-0.7,0-1.3,0.1-1.7,0.4c-0.4,0.2-0.6,0.6-0.6,1.1s0.3,1,0.9,1.3
		s1.5,0.6,2.8,1c1.4,0.4,2.6,0.8,3.5,1.2s1.7,1,2.4,1.8c0.7,0.8,1,1.9,1,3.2c0,2-0.8,3.5-2.3,4.6s-3.5,1.6-5.9,1.6
		c-1.6,0-3.2-0.2-4.7-0.7s-2.8-1.2-3.9-2.1l1.9-3.9c1,0.8,2.1,1.4,3.4,1.8s2.4,0.6,3.5,0.6c0.8,0,1.4-0.1,1.8-0.4
		c0.5-0.3,0.7-0.6,0.7-1.2c0-0.6-0.3-1-0.9-1.3s-1.5-0.7-2.8-1c-1.4-0.4-2.5-0.8-3.4-1.2s-1.7-1-2.3-1.8s-1-1.9-1-3.1
		c0-2,0.7-3.5,2.2-4.6s3.4-1.6,5.6-1.6c1.4,0,2.7,0.2,4.1,0.6c1.4,0.4,2.6,0.9,3.7,1.7l-2,3.9C317.8,153.2,316.7,152.7,315.7,152.4z
		"/>
	<path class="st3" d="M326.9,165.3c0.3,0.3,0.5,0.7,0.5,1.2s-0.2,0.9-0.5,1.2s-0.7,0.5-1.2,0.5s-0.9-0.2-1.2-0.5
		c-0.3-0.3-0.5-0.7-0.5-1.2s0.2-0.9,0.5-1.2s0.7-0.5,1.2-0.5C326.2,164.8,326.6,165,326.9,165.3z"/>
	<path class="st3" d="M340.7,150.6c-1.4,0-2.6,0.3-3.8,1c-1.1,0.6-2,1.5-2.6,2.7c-0.6,1.1-0.9,2.5-0.9,4s0.3,2.8,0.9,4
		s1.5,2.1,2.6,2.7c1.1,0.6,2.4,1,3.8,1c1.3,0,2.4-0.2,3.5-0.7c1-0.5,1.9-1.1,2.7-1.9l1.4,1.5c-0.9,1-2,1.9-3.3,2.4
		c-1.3,0.6-2.8,0.9-4.4,0.9c-1.9,0-3.5-0.4-5-1.2s-2.6-2-3.4-3.5s-1.3-3.2-1.3-5.1s0.4-3.6,1.3-5.1c0.8-1.5,2-2.7,3.4-3.5
		c1.5-0.8,3.1-1.2,5-1.2c1.5,0,2.9,0.2,4.1,0.7s2.3,1.2,3.2,2.1l-1.4,1.7C344.9,151.3,343,150.6,340.7,150.6z"/>
	<path class="st3" d="M366.7,149.6c1.5,0.8,2.7,2,3.5,3.5s1.3,3.2,1.3,5c0,1.9-0.4,3.6-1.3,5.1c-0.8,1.5-2,2.7-3.5,3.5
		s-3.2,1.2-5.1,1.2s-3.6-0.4-5-1.2s-2.7-2-3.5-3.5s-1.3-3.2-1.3-5.1c0-1.9,0.4-3.6,1.3-5c0.8-1.5,2-2.6,3.5-3.5
		c1.5-0.8,3.2-1.2,5-1.2S365.2,148.8,366.7,149.6z M357.8,151.5c-1.1,0.6-2,1.5-2.6,2.7s-0.9,2.5-0.9,4s0.3,2.9,0.9,4
		c0.6,1.2,1.5,2.1,2.6,2.7c1.1,0.6,2.4,1,3.8,1s2.7-0.3,3.8-1c1.1-0.6,2-1.5,2.6-2.7s0.9-2.5,0.9-4s-0.3-2.8-0.9-4s-1.5-2.1-2.6-2.7
		c-1.1-0.6-2.4-1-3.8-1C360.2,150.5,358.9,150.8,357.8,151.5z"/>
	<path class="st3" d="M406.9,150.4c1.3,1.3,1.9,3.2,1.9,5.6v12h-2.5v-11.4c0-1.9-0.5-3.3-1.5-4.3s-2.4-1.5-4.2-1.5
		c-2.1,0-3.7,0.8-4.9,2.2c-1.2,1.4-1.8,3.2-1.8,5.5v9.6h-2.5v-11.4c0-1.9-0.5-3.3-1.5-4.3s-2.4-1.5-4.2-1.5c-2.1,0-3.7,0.8-4.9,2.2
		c-1.2,1.4-1.8,3.2-1.8,5.5v9.6h-2.5v-19.5h2.5v4.6c0.6-1.5,1.6-2.7,2.9-3.5s2.8-1.2,4.7-1.2c1.8,0,3.4,0.5,4.6,1.4s2,2.2,2.4,3.9
		c0.6-1.7,1.6-3,2.9-3.9s3-1.3,4.9-1.3C403.9,148.4,405.7,149,406.9,150.4z"/>
</g>
<path class="st6" d="M33.7,192.9c0.9,0.6,1.6,1.3,2,2.4c0.4,1.1,0.7,2.2,0.7,3.5c0,1.4-0.2,2.6-0.7,3.6s-1.2,1.8-2,2.4
	c-0.9,0.6-1.9,0.9-3,0.9c-1,0-1.9-0.2-2.7-0.7c-0.8-0.5-1.3-1.1-1.7-1.9v1.5c0,0.3-0.1,0.6-0.3,0.8s-0.4,0.3-0.8,0.3
	s-0.6-0.1-0.8-0.3s-0.3-0.5-0.3-0.8v-17c0-0.3,0.1-0.5,0.3-0.8s0.5-0.3,0.8-0.3s0.6,0.1,0.8,0.3c0.2,0.2,0.3,0.4,0.3,0.8v7.2
	c0.4-0.8,1-1.5,1.7-1.9s1.6-0.7,2.7-0.7C31.8,192,32.8,192.3,33.7,192.9z M33.1,202.4c0.7-0.9,1.1-2.1,1.1-3.7
	c0-1.6-0.4-2.8-1.1-3.6c-0.7-0.9-1.7-1.3-3-1.3s-2.2,0.4-2.9,1.3c-0.7,0.9-1,2.1-1,3.7s0.3,2.8,1,3.7s1.7,1.3,2.9,1.3
	C31.5,203.7,32.5,203.3,33.1,202.4z"/>
<path class="st6" d="M49.8,192.1c0.3,0,0.5,0.1,0.7,0.3s0.3,0.4,0.3,0.7c0,0.2,0,0.3-0.1,0.4l-7.6,16.2c-0.1,0.2-0.2,0.4-0.4,0.5
	s-0.3,0.2-0.5,0.2c-0.3,0-0.5-0.1-0.7-0.3s-0.3-0.4-0.3-0.7c0-0.1,0-0.3,0.1-0.4l1.9-4.1l-5.3-11.5c-0.1-0.1-0.1-0.3-0.1-0.4
	c0-0.3,0.1-0.5,0.4-0.7c0.3-0.2,0.5-0.3,0.8-0.3c0.2,0,0.4,0,0.5,0.2s0.3,0.3,0.4,0.5l4.5,10.1l4.5-10
	C49,192.3,49.4,192.1,49.8,192.1z"/>
<path class="st6" d="M101.8,189.3c-0.3-0.3-0.7-0.5-1.1-0.5s-0.9,0.2-1.2,0.5c-0.3,0.3-0.5,0.7-0.5,1.1v13.1c0,0.9,0.7,1.6,1.5,1.6
	h0.1c0.4,0,0.8-0.2,1.1-0.5l0,0c0.3-0.3,0.5-0.7,0.5-1.1v-13.1C102.3,190.1,102.1,189.6,101.8,189.3z"/>
<path class="st6" d="M114.4,194L114.4,194c-0.6-1-1.7-1.5-3.3-1.5c-0.8,0-1.6,0.2-2.3,0.6c-0.5,0.3-0.9,0.6-1.3,1
	c0-0.4-0.2-0.7-0.4-0.9c-0.6-0.6-1.6-0.6-2.2,0c-0.3,0.3-0.5,0.7-0.4,1.1v9.3c0,0.4,0.1,0.8,0.4,1.1c0.6,0.6,1.6,0.6,2.2,0
	c0.3-0.3,0.5-0.7,0.4-1.1v-5.7c0-0.7,0.2-1.3,0.7-1.7c0.4-0.5,1.1-0.7,1.9-0.7s1.3,0.2,1.6,0.6c0.3,0.4,0.5,1,0.5,1.8v5.7
	c0,0.4,0.1,0.8,0.4,1.1c0.6,0.6,1.6,0.6,2.2,0c0.3-0.3,0.5-0.7,0.4-1.1v-5.7C115.3,196.2,115,194.9,114.4,194z"/>
<path class="st6" d="M123.3,202.2c-0.2,0-0.4,0-0.6,0.1c-0.1,0-0.3,0.1-0.4,0.1c-0.2,0-0.4,0-0.5-0.2c-0.1-0.1-0.2-0.3-0.2-0.5v-5.9
	h1.4c0.4,0,0.8-0.1,1-0.4c0.3-0.3,0.4-0.6,0.4-1c0-0.8-0.6-1.5-1.4-1.5c0,0,0,0-0.1,0h-1.4v-1.2c0-0.4-0.1-1.5-0.4-1.8
	s-0.7-0.5-1.1-0.5s-0.8,0.2-1.1,0.5c-0.3,0.3-0.5,1.3-0.5,1.8v1.2h-0.8c-0.4,0-0.8,0.1-1,0.4c-0.3,0.3-0.4,0.6-0.4,1
	c0,0.8,0.6,1.5,1.4,1.5c0,0,0,0,0.1,0h0.8v6c0,1.4,0.4,2.3,1.1,2.7s1.6,0.7,2.5,0.6c0.6,0,1.1-0.1,1.6-0.4c0.5-0.3,0.8-0.7,0.8-1.2
	c0-0.3-0.1-0.7-0.3-0.9C123.8,202.4,123.6,202.2,123.3,202.2z"/>
<path class="st6" d="M136,195.4c-0.5-0.9-1.3-1.7-2.2-2.3c-0.9-0.5-1.9-0.8-2.9-0.8s-2,0.3-2.9,0.8c-0.9,0.6-1.7,1.4-2.2,2.3
	c-0.6,1.1-0.9,2.3-0.8,3.5c0,1.1,0.3,2.2,0.8,3.2c0.5,0.9,1.3,1.7,2.2,2.2c1.7,0.9,3.7,1.1,5.6,0.4c0.6-0.2,1.2-0.5,1.7-0.9
	s0.7-0.8,0.7-1.3c0-0.4-0.1-0.7-0.4-0.9c-0.5-0.5-1.1-0.5-1.8-0.2c-0.1,0-0.2,0.1-0.4,0.3c-0.2,0.1-0.5,0.3-0.8,0.3
	c-0.4,0.1-0.9,0.2-1.4,0.2c-0.7,0-1.5-0.2-2-0.7c-0.5-0.4-0.9-1-1.1-1.7h7.1c0.4,0,0.8-0.1,1.1-0.4c0.3-0.3,0.5-0.6,0.5-1
	C136.8,197.4,136.5,196.3,136,195.4z M130.9,195.2c0.6,0,1.3,0.2,1.7,0.6c0.5,0.3,0.8,0.8,0.8,1.4H128
	C128.5,195.8,129.4,195.2,130.9,195.2L130.9,195.2z"/>
<path class="st6" d="M145.8,193L145.8,193c-0.4-0.3-0.8-0.4-1.3-0.4c-0.7,0-1.5,0.2-2.2,0.5c-0.5,0.2-0.9,0.6-1.2,1
	c-0.1-0.3-0.2-0.6-0.4-0.8c-0.6-0.6-1.6-0.6-2.2,0c-0.3,0.3-0.5,0.7-0.4,1.1v9.3c0,0.4,0.1,0.8,0.4,1.1c0.6,0.6,1.6,0.6,2.2,0
	c0.3-0.3,0.5-0.7,0.4-1.1v-5.3c0-0.6,0.1-1.1,0.3-1.6c0.2-0.4,0.5-0.7,0.8-1c0.3-0.2,0.6-0.3,1-0.3c0.2,0,0.3,0,0.4,0.1
	c0.2,0,0.3,0.1,0.3,0.1c0.8,0.3,1.4,0.2,1.8-0.2c0.3-0.3,0.4-0.7,0.4-1.2C146.3,193.6,146.1,193.2,145.8,193z"/>
<path class="st6" d="M160.1,196.7L160.1,196.7c-0.3-0.3-0.7-0.5-1.1-0.5h-3.6c-0.4,0-0.8,0.1-1.1,0.4c-0.6,0.6-0.6,1.6,0,2.2
	c0.3,0.3,0.7,0.4,1.1,0.4h1.9v2.5c-0.3,0.1-0.7,0.2-1.1,0.2c-0.4,0.1-0.9,0.1-1.3,0.1c-0.9,0-1.7-0.2-2.5-0.7
	c-2.4-1.5-3.2-4.6-1.8-7.1c0.4-0.7,1-1.3,1.8-1.8s1.6-0.7,2.5-0.7c0.8,0,1.6,0.2,2.4,0.5c0.8,0.3,1.4,0.2,1.9-0.3
	c0.3-0.3,0.4-0.7,0.4-1.1c0-0.3-0.1-0.5-0.2-0.7c-0.1-0.2-0.3-0.4-0.6-0.5c-1.1-0.6-2.4-0.9-3.9-0.9c-2.9,0-5.7,1.5-7.2,4.1
	c-1.5,2.5-1.5,5.7,0,8.2c0.7,1.2,1.8,2.3,3,3c1.3,0.7,2.7,1.1,4.1,1.1c1.7,0,3.4-0.5,4.9-1.4c0.5-0.3,0.8-0.8,0.8-1.4v-4.7
	C160.6,197.4,160.4,197,160.1,196.7z"/>
<path class="st6" d="M169.7,193L169.7,193c-0.4-0.3-0.8-0.4-1.3-0.4c-0.7,0-1.5,0.2-2.2,0.5c-0.5,0.2-0.9,0.6-1.2,1
	c-0.2-0.8-1-1.4-1.9-1.2c-0.3,0.1-0.6,0.2-0.8,0.4c-0.3,0.3-0.5,0.7-0.4,1.1v9.3c0,0.4,0.1,0.8,0.4,1.1c0.6,0.6,1.6,0.6,2.2,0
	c0.3-0.3,0.5-0.7,0.4-1.1v-5.3c0-0.6,0.1-1.1,0.3-1.6c0.2-0.4,0.5-0.7,0.8-1c0.3-0.2,0.6-0.3,1-0.3c0.2,0,0.3,0,0.4,0.1
	c0.2,0,0.3,0.1,0.3,0.1c0.8,0.3,1.4,0.2,1.8-0.2c0.3-0.3,0.4-0.7,0.4-1.2C170.3,193.6,170.1,193.2,169.7,193z"/>
<path class="st6" d="M181.1,195.4c-0.5-0.9-1.3-1.7-2.2-2.3c-0.9-0.5-1.9-0.8-2.9-0.8s-2,0.3-2.9,0.8c-0.9,0.6-1.7,1.4-2.2,2.3
	c-0.6,1.1-0.9,2.3-0.8,3.5c0,1.1,0.3,2.2,0.8,3.2c0.5,0.9,1.3,1.7,2.2,2.2c1.7,0.9,3.7,1.1,5.6,0.4c0.6-0.2,1.2-0.5,1.7-0.9
	s0.7-0.8,0.7-1.3c0-0.4-0.1-0.7-0.4-0.9c-0.5-0.5-1.1-0.5-1.8-0.2c-0.1,0-0.2,0.1-0.4,0.3c-0.2,0.1-0.5,0.3-0.8,0.3
	c-0.4,0.1-0.9,0.2-1.4,0.2c-0.7,0-1.5-0.3-2-0.7s-0.9-1-1.1-1.7h7.1c0.4,0,0.8-0.1,1.1-0.4c0.3-0.3,0.5-0.6,0.5-1
	C181.9,197.4,181.6,196.3,181.1,195.4z M176,195.2c0.6,0,1.3,0.2,1.8,0.6c0.5,0.3,0.8,0.8,0.8,1.4h-5.4
	C173.5,195.8,174.5,195.2,176,195.2L176,195.2z"/>
<path class="st6" d="M194.2,193.1c-0.3-0.3-0.7-0.4-1.1-0.4c-0.7,0-1.3,0.5-1.5,1.1c-0.4-0.3-0.8-0.6-1.3-0.8
	c-0.6-0.3-1.3-0.4-2-0.4c-1,0-2,0.3-2.8,0.8c-0.9,0.6-1.5,1.3-2,2.2c-0.5,1-0.7,2.1-0.7,3.2c0,1.1,0.2,2.2,0.7,3.2
	c0.5,0.9,1.1,1.7,2,2.2c0.8,0.5,1.8,0.8,2.8,0.8c0.7,0,1.4-0.2,2-0.5c0.5-0.2,0.9-0.5,1.2-0.8c0.1,0.2,0.2,0.5,0.4,0.6
	c0.3,0.3,0.7,0.4,1.1,0.4c0.4,0,0.8-0.2,1.1-0.4c0.3-0.3,0.4-0.7,0.4-1.1V194C194.7,193.8,194.5,193.4,194.2,193.1z M191.7,198.9
	c0,1-0.3,1.8-0.8,2.5c-0.5,0.6-1.3,1-2.2,1c-0.8,0-1.6-0.3-2.1-1c-0.6-0.7-0.8-1.5-0.8-2.5s0.3-1.8,0.8-2.5c1-1.2,2.8-1.3,4-0.3
	c0.1,0.1,0.2,0.2,0.3,0.3C191.4,197.1,191.7,197.9,191.7,198.9z"/>
<path class="st6" d="M202.7,202.2c-0.2,0-0.4,0-0.6,0.1c-0.1,0-0.3,0.1-0.4,0.1c-0.2,0-0.4,0-0.5-0.2c-0.1-0.1-0.2-0.3-0.2-0.5v-5.9
	h1.4c0.4,0,0.8-0.1,1-0.4c0.3-0.3,0.4-0.6,0.4-1c0-0.8-0.6-1.5-1.4-1.5c0,0,0,0-0.1,0h-1.4V191c0-0.4-0.1-0.8-0.4-1.1
	c-0.3-0.3-0.7-0.5-1.1-0.5c-0.9,0-1.6,0.7-1.6,1.5c0,0,0,0,0,0.1v1.9H197c-0.4,0-0.8,0.1-1,0.4c-0.3,0.3-0.4,0.6-0.4,1
	c0,0.8,0.6,1.5,1.4,1.5c0,0,0,0,0.1,0h0.8v6c0,1.4,0.4,2.3,1.1,2.7c0.7,0.4,1.6,0.7,2.5,0.6c0.6,0,1.1-0.1,1.6-0.4
	c0.5-0.3,0.8-0.7,0.8-1.2c0-0.3-0.1-0.7-0.3-0.9C203.2,202.4,202.9,202.2,202.7,202.2z"/>
<linearGradient id="SVGID_1_" gradientUnits="userSpaceOnUse" x1="58.0521" y1="7043.7144" x2="90.8521" y2="7043.7144" gradientTransform="matrix(1 0 0 1 0 -6846.6143)">
	<stop  offset="0" style="stop-color:#8F8F9B"/>
	<stop  offset="1" style="stop-color:#62626B"/>
</linearGradient>
<path class="st7" d="M74.4,180.7c-9.1,0-16.4,7.3-16.4,16.4c0,9.1,7.3,16.4,16.4,16.4s16.4-7.3,16.4-16.4S83.5,180.7,74.4,180.7z
	 M78.7,199.9c-0.1,3.9-3.3,7-7.1,6.9c-3.8-0.1-6.9-3.1-6.9-6.9c0-0.8,0.6-1.4,1.4-1.4s1.4,0.6,1.4,1.4c0,2.3,1.8,4.3,4.1,4.3
	c2.3,0,4.3-1.8,4.3-4.1c0-0.1,0-0.1,0-0.2v-5.7c0-0.8,0.6-1.4,1.4-1.4s1.4,0.6,1.4,1.4L78.7,199.9z M82.9,195.6
	c-0.8,0-1.4-0.6-1.4-1.4l0,0c0-2.3-1.8-4.3-4.1-4.3c-2.3,0-4.3,1.8-4.3,4.1c0,0.1,0,0.1,0,0.2v5.7c0,0.8-0.6,1.4-1.4,1.5
	c-0.8,0-1.4-0.6-1.5-1.4v-0.1v-5.7c0-3.9,3.1-7,7-7s7,3.1,7,7C84.3,195,83.7,195.6,82.9,195.6L82.9,195.6L82.9,195.6z"/>
<g>
	<path class="st8" d="M74.4,180.7c-9,0-16.4,7.4-16.4,16.4c0,9,7.4,16.4,16.4,16.4c9,0,16.4-7.4,16.4-16.4
		C90.8,188.1,83.4,180.7,74.4,180.7z M74.4,212.3c-8.4,0-15.2-6.8-15.2-15.2s6.8-15.2,15.2-15.2c8.4,0,15.2,6.8,15.2,15.2
		C89.6,205.5,82.8,212.3,74.4,212.3z"/>
	<path class="st9" d="M74.4,183.4c-7.5,0-13.5,6.1-13.5,13.5c0,7.5,6.1,13.5,13.5,13.5c7.5,0,13.5-6.1,13.5-13.5
		C87.9,189.5,81.9,183.4,74.4,183.4z M77.9,199.3c0,3.2-2.6,5.8-5.8,5.8c-3.2,0-5.8-2.6-5.8-5.8c0-0.6,0.5-1.2,1.2-1.2
		c0.6,0,1.2,0.5,1.2,1.2c0,1.9,1.6,3.4,3.5,3.4c1.9,0,3.4-1.5,3.4-3.4v-4.7c0-0.6,0.6-1.1,1.2-1.1c0.6,0,1.1,0.5,1.1,1.1L77.9,199.3
		z M81.4,195.7c-0.6,0-1.2-0.5-1.2-1.2v0c0-1.9-1.5-3.5-3.4-3.5c-1.9,0-3.5,1.5-3.5,3.4c0,0,0,0.1,0,0.1v4.7c0,0.6-0.5,1.2-1.2,1.2
		c-0.6,0-1.2-0.5-1.2-1.2v-4.7c0.1-3.2,2.7-5.8,5.9-5.7c3.1,0,5.7,2.6,5.7,5.7C82.5,195.2,82,195.7,81.4,195.7z"/>
	<path class="st10" d="M72.1,205.2c3.2,0,5.8-2.6,5.8-5.8v-4.7c0-0.6-0.5-1.1-1.1-1.1c-0.6,0-1.2,0.5-1.2,1.1v4.7
		c0,1.9-1.5,3.4-3.4,3.4c-1.9,0-3.5-1.5-3.5-3.4c0-0.6-0.5-1.2-1.2-1.2c-0.6,0-1.2,0.5-1.2,1.2C66.3,202.6,68.9,205.2,72.1,205.2z"
		/>
	<path class="st10" d="M76.8,189.1c-3.2-0.1-5.8,2.5-5.9,5.7v4.7c0,0.6,0.5,1.2,1.2,1.2s1.2-0.5,1.2-1.2v-4.7c0,0,0-0.1,0-0.1
		c0-1.9,1.6-3.4,3.5-3.4c1.9,0,3.4,1.6,3.4,3.5v0c0,0.6,0.5,1.2,1.2,1.2v0c0.6,0,1.2-0.5,1.2-1.2C82.5,191.6,79.9,189.1,76.8,189.1z
		"/>
</g>
</svg>
