<?xml version="1.0" encoding="utf-8"?>
<!-- Generator: Adobe Illustrator 27.0.0, SVG Export Plug-In . SVG Version: 6.00 Build 0)  -->
<svg version="1.1" id="Layer_1" xmlns="http://www.w3.org/2000/svg" xmlns:xlink="http://www.w3.org/1999/xlink" x="0px" y="0px"
	 width="1440px" height="367px" viewBox="0 0 1440 367" style="enable-background:new 0 0 1440 367;" xml:space="preserve">
<style type="text/css">
	.st0{fill:none;stroke:#111D2A;stroke-linecap:round;stroke-linejoin:round;stroke-miterlimit:10;stroke-dasharray:10,10;}
	.st1{fill:#294563;}
	.st2{fill:none;stroke:#111D2A;stroke-width:2;stroke-linecap:round;stroke-linejoin:round;stroke-miterlimit:10;}
	.st3{fill:none;stroke:#111D2A;stroke-linecap:round;stroke-linejoin:round;stroke-miterlimit:10;}
	.st4{fill:#111D2A;}
	.st5{fill:#708296;}
	.st6{fill:#FFFFFF;}
</style>
<path class="st0" d="M1114,153.9c42-34.2,126.5-106,175.5-87c50.8,19.7,82.6,60.2,61.5,87c-18.5,23.5-50,3.3-50-18.5
	c0-31.5,35-132.5,103.5-134c68.5-1.5,60.6,114,123.5,114c44,0,104.2-70.5,127.5-93"/>
<path class="st0" d="M826.5,96.3c2.8-28.7,2.6-58.2-45.4-68.6c-55-12-98.7,67.9-59.7,63.1c36.5-4.4-8.1-60.5-49.5-44.1
	c-35.4,14.1-40.4,30.6-69.5,39.7"/>
<path class="st1" d="M559.3,113.4c-1.2-0.5,29-25.5,29-25.5l12.1-2.6l2.5,3.2l8.6-3.2l6.7,1.3l-15,7.1l2.5,8.8L559.3,113.4z"/>
<path class="st2" d="M554.6,115.4l54.2-31.2l15.1,0.2L554.6,115.4z"/>
<path class="st2" d="M607,91.7l1.6,8.7l-41.5,9.4"/>
<path class="st2" d="M604.2,86.7l-0.6-3.7l-47,31.2"/>
<path class="st2" d="M554.7,115.5l49-32.6l-17.1,2.3L554.7,115.5z"/>
<path class="st0" d="M283.5,296.2c-36,31-92.9,34.2-130,0C115,260.6,131,194.1,169,167.1c38-27,14-97-63-90
	c-50.8,4.6-85.5,18.8-144.3,95.5c-54.5,71-114.9,102.7-201.7,57.5"/>
<path class="st3" d="M1161.5,147.1l-2.1,7l-6.4,2.6l6.4,2.6l2.1,6.8l2.3-6.8l6.2-2.6l-6.2-2.6L1161.5,147.1z"/>
<path class="st4" d="M322.1,274.4l-18.3,5.6l-2.4-5.3l48.6-10.3L322.1,274.4z"/>
<path class="st1" d="M346.3,266l-37.9,25.4l-4.1-7.6l12.8-8.1L346.3,266z"/>
<path class="st4" d="M309.5,285.2l-1,6.1l-4.1-7.6l12.8-8.1l29.1-9.7L309.5,285.2z"/>
<path class="st5" d="M352.1,263.9l-53.1,15.4l-9.7,10.9L352.1,263.9z"/>
<path class="st6" d="M352,263.9l-50.6,10.7l8.9-7.4L352,263.9z"/>
<path class="st3" d="M863.5,342.1l-2.1,7l-6.4,2.6l6.4,2.6l2.1,6.8l2.3-6.8l6.2-2.6l-6.2-2.6L863.5,342.1z"/>
<path class="st3" d="M218.5,240.1l-2.1,7l-6.4,2.6l6.4,2.6l2.1,6.8l2.3-6.8l6.2-2.6l-6.2-2.6L218.5,240.1z"/>
</svg>
