<svg width="341" height="348" viewBox="0 0 341 348" fill="none" xmlns="http://www.w3.org/2000/svg">
<g clip-path="url(#clip0_2733_11684)">
<g filter="url(#filter0_dii_2733_11684)">
<path d="M296.958 122.543C302.325 112.937 297.884 103.316 287.126 101.153C281.851 100.005 277.176 96.9447 273.996 92.5574C270.816 88.1701 269.353 82.7632 269.886 77.3697C271.19 66.4255 263.438 59.2442 252.675 61.3984C247.369 62.3626 241.89 61.3281 237.286 58.4923C232.681 55.6564 229.273 51.2181 227.713 46.025C224.747 35.4155 214.846 31.7404 205.748 37.8688C201.223 40.806 195.776 41.9616 190.447 41.1146C185.119 40.2677 180.283 37.4776 176.864 33.2778C170.07 24.5988 159.558 25.0102 153.456 34.179C150.426 38.6709 145.817 41.844 140.552 43.0642C135.308 44.3727 129.761 43.6432 125.019 41.0213C115.451 35.6229 105.902 40.0387 103.763 50.8671C102.63 56.1475 99.6048 60.8205 95.2616 63.9972C90.9184 67.1738 85.5608 68.6325 80.2079 68.0956C69.3137 66.7578 62.1911 74.549 64.3572 85.351C65.33 90.6855 64.3141 96.1882 61.5036 100.808C58.693 105.428 54.2848 108.842 49.1209 110.397C38.5749 113.37 34.9378 123.292 41.0591 132.449C43.9959 137.007 45.1573 142.49 44.3206 147.846C43.4839 153.202 40.7079 158.054 36.5252 161.472C27.924 168.273 28.3641 178.857 37.499 184.993C41.9403 188.08 45.0972 192.702 46.3656 197.973C47.6341 203.245 46.9251 208.797 44.3744 213.567C39.0261 223.168 43.4443 232.775 54.2067 234.956C59.4864 236.104 64.1645 239.166 67.346 243.558C70.5276 247.949 71.9892 253.361 71.4512 258.758C70.1471 269.703 77.9181 276.88 88.6622 274.73C93.9691 273.757 99.4515 274.788 104.058 277.625C108.665 280.462 112.071 284.905 113.624 290.103C116.609 300.708 126.487 304.369 135.589 298.259C140.116 295.323 145.566 294.17 150.896 295.02C156.226 295.871 161.061 298.665 164.478 302.869C171.267 311.529 181.784 311.137 187.882 301.949C190.943 297.488 195.537 294.323 200.784 293.061C206.031 291.798 211.563 292.527 216.318 295.107C225.89 300.524 235.435 296.089 237.579 285.28C238.696 279.974 241.725 275.275 246.082 272.082C250.44 268.889 255.822 267.427 261.195 267.977C272.089 269.315 279.323 261.497 277.045 250.722C276.064 245.386 277.076 239.88 279.888 235.258C282.7 230.636 287.113 227.224 292.282 225.676C302.846 222.699 306.465 212.781 300.343 203.624C297.418 199.059 296.262 193.577 297.098 188.222C297.933 182.866 300.7 178.011 304.873 174.582C313.474 167.781 313.057 157.212 303.899 151.061C299.461 147.985 296.3 143.378 295.02 138.119C293.74 132.859 294.43 127.314 296.958 122.543Z" fill="url(#paint0_linear_2733_11684)" shape-rendering="crispEdges"/>
</g>
<g filter="url(#filter1_d_2733_11684)">
<path d="M197.924 281.815C175.549 287.207 152.069 285.806 130.453 277.788C108.837 269.771 90.0572 255.498 76.4876 236.775C62.918 218.052 55.1687 195.719 54.2196 172.601C53.2706 149.483 59.1645 126.619 71.156 106.9C83.1474 87.1811 100.698 71.493 121.587 61.8202C142.477 52.1473 165.767 48.924 188.513 52.558C211.258 56.1921 232.438 66.5202 249.372 82.2361C266.306 97.952 278.234 118.35 283.648 140.85C290.868 171.01 285.899 202.787 269.829 229.213C253.759 255.638 227.901 274.555 197.924 281.815ZM144.592 60.1658C123.369 65.2725 104.145 76.5925 89.3508 92.6943C74.557 108.796 64.8579 128.957 61.48 150.626C58.1021 172.296 61.1971 194.502 70.3736 214.435C79.5501 234.369 94.396 251.135 113.034 262.614C131.672 274.092 153.265 279.768 175.082 278.922C196.899 278.077 217.961 270.749 235.603 257.864C253.246 244.98 266.677 227.118 274.199 206.538C281.721 185.957 282.995 163.582 277.86 142.242C270.943 113.645 253.027 88.9446 228.044 73.558C203.061 58.1714 173.049 53.3552 144.592 60.1658Z" fill="white"/>
</g>
<g filter="url(#filter2_d_2733_11684)">
<path d="M152.148 91.4859C137.079 95.104 123.427 103.135 112.919 114.562C102.412 125.99 95.5207 140.301 93.1179 155.685C90.715 171.068 92.9083 186.834 99.4203 200.988C105.932 215.141 116.47 227.046 129.702 235.197C142.933 243.348 158.263 247.379 173.752 246.779C189.241 246.18 204.194 240.977 216.72 231.829C229.245 222.68 238.779 209.998 244.117 195.386C249.455 180.773 250.356 164.888 246.707 149.738C241.821 129.433 229.115 111.89 211.383 100.966C193.65 90.0418 172.343 86.6319 152.148 91.4859ZM187.07 236.62C173.584 239.873 159.431 239.031 146.401 234.201C133.371 229.371 122.049 220.77 113.868 209.486C105.687 198.201 101.014 184.741 100.44 170.806C99.8665 156.872 103.417 143.09 110.644 131.203C117.871 119.317 128.448 109.86 141.039 104.028C153.63 98.1967 167.669 96.2528 181.379 98.4425C195.089 100.632 207.855 106.857 218.063 116.33C228.27 125.802 235.46 138.097 238.723 151.659C240.892 160.66 241.276 169.997 239.853 179.138C238.431 188.279 235.23 197.044 230.434 204.934C225.637 212.823 219.339 219.682 211.899 225.119C204.458 230.555 196.022 234.464 187.07 236.62Z" fill="white"/>
</g>
<path d="M170.223 167.31L187.756 240.176L212.811 230.406L242.328 194.917L244.562 170.248L239.614 149.683L170.223 167.31Z" fill="#707070"/>
<path d="M171.41 169.598L153.786 96.7538L128.744 106.555L99.2714 142.082L97.0678 166.754L102.042 187.312L171.41 169.598Z" fill="#707070"/>
<path d="M98.6073 185.512L108.37 206.858L122.826 226.106L151.665 239.675L183.81 241.7L187.755 240.177L170.222 167.31L98.6073 185.512Z" fill="#7D7D7D"/>
<path d="M243.005 151.306L233.215 129.972L218.735 110.742L189.879 97.2093L157.731 95.225L153.788 96.7533L171.413 169.598L243.005 151.306Z" fill="#7D7D7D"/>
<g filter="url(#filter3_d_2733_11684)">
<path d="M192.865 223.368L183.085 220.851L175.479 227.532L174.808 217.379L166.112 212.167L175.507 208.422L177.751 198.518L184.203 206.349L194.283 205.448L188.886 214.031L192.865 223.368Z" fill="white"/>
</g>
<g filter="url(#filter4_d_2733_11684)">
<path d="M170.557 131.624L160.777 129.108L153.17 135.788L152.499 125.636L143.803 120.424L153.199 116.678L155.442 106.775L161.894 114.606L171.974 113.705L166.578 122.288L170.557 131.624Z" fill="white"/>
</g>
<g filter="url(#filter5_d_2733_11684)">
<path d="M269.772 124.702L63.2773 174.388L71.7491 209.596L278.244 159.91L269.772 124.702Z" fill="white"/>
</g>
<path d="M272.85 118.64L56.3516 170.733L66.0336 210.971L282.532 158.878L272.85 118.64Z" fill="white"/>
<g filter="url(#filter6_d_2733_11684)">
<path d="M258.938 142.955C258.61 141.593 258.692 140.165 259.172 138.852C259.652 137.538 260.509 136.398 261.635 135.576C262.761 134.753 264.105 134.286 265.498 134.232C266.89 134.178 268.268 134.54 269.458 135.273C270.647 136.005 271.595 137.075 272.18 138.348C272.766 139.62 272.964 141.037 272.748 142.42C272.532 143.803 271.913 145.09 270.969 146.117C270.025 147.145 268.798 147.867 267.444 148.193C266.544 148.41 265.611 148.446 264.697 148.3C263.783 148.154 262.906 147.828 262.116 147.342C261.326 146.855 260.639 146.218 260.094 145.465C259.548 144.712 259.156 143.859 258.938 142.955Z" fill="#830F0F"/>
</g>
<g filter="url(#filter7_d_2733_11684)">
<path d="M66.1218 189.35C65.7939 187.987 65.8755 186.558 66.3563 185.244C66.8371 183.93 67.6954 182.789 68.8226 181.967C69.9498 181.145 71.2953 180.679 72.6885 180.626C74.0818 180.574 75.4604 180.938 76.6496 181.672C77.8388 182.407 78.7852 183.479 79.3691 184.753C79.953 186.027 80.148 187.445 79.9295 188.829C79.7109 190.212 79.0887 191.498 78.1415 192.524C77.1944 193.55 75.9649 194.27 74.6087 194.592C73.7102 194.809 72.7776 194.844 71.8645 194.698C70.9513 194.551 70.0754 194.225 69.287 193.738C68.4986 193.251 67.8132 192.613 67.2701 191.86C66.7269 191.107 66.3367 190.254 66.1218 189.35Z" fill="#830F0F"/>
</g>
<g filter="url(#filter8_d_2733_11684)">
<path d="M220.635 202.73L214.632 201.185L209.985 205.273L209.577 199.076L204.26 195.881L210.008 193.588L211.368 187.539L215.335 192.326L221.484 191.777L218.198 197.021L220.635 202.73Z" fill="white"/>
</g>
<g filter="url(#filter9_d_2733_11684)">
<path d="M202.287 127.456L196.285 125.911L191.637 129.999L191.229 123.802L185.913 120.608L191.661 118.314L193.021 112.266L196.988 117.052L203.136 116.503L199.85 121.748L202.287 127.456Z" fill="white"/>
</g>
<g filter="url(#filter10_d_2733_11684)">
<path d="M141.782 221.703L146.424 217.597L152.422 219.123L149.967 213.419L153.23 208.16L147.086 208.728L143.123 203.96L141.768 210.027L136.043 212.335L141.355 215.511L141.782 221.703Z" fill="white"/>
</g>
<g filter="url(#filter11_d_2733_11684)">
<path d="M123.436 146.43L128.079 142.323L134.076 143.849L131.621 138.145L134.884 132.886L128.74 133.454L124.778 128.686L123.422 134.753L117.697 137.061L123.009 140.237L123.436 146.43Z" fill="white"/>
</g>
<path d="M103.027 187.367C102.28 188.481 101.159 189.218 99.6647 189.577C97.8156 190.022 96.2184 189.775 94.8731 188.837C93.5264 187.893 92.6019 186.377 92.0996 184.29C91.5565 182.033 91.7397 180.148 92.6493 178.636C93.4399 177.32 94.6434 176.468 96.2599 176.079C98.423 175.558 100.176 175.891 101.52 177.077C102.265 177.745 102.755 178.478 102.99 179.275L100.303 179.922C99.9798 179.344 99.6433 178.93 99.2941 178.68C98.6706 178.236 97.8791 178.13 96.9197 178.36C95.9428 178.595 95.268 179.178 94.8953 180.109C94.5212 181.035 94.5087 182.222 94.8576 183.672C95.2065 185.123 95.7648 186.139 96.5324 186.721C97.3044 187.296 98.1497 187.473 99.0684 187.252C100.01 187.026 100.654 186.543 100.999 185.804C101.192 185.405 101.299 184.851 101.319 184.141L103.979 183.501C104.085 184.966 103.768 186.255 103.027 187.367Z" fill="#830F0F"/>
<path d="M113.984 182.94L109.248 184.079L108.998 186.951L106.19 187.627L107.666 173.594L110.702 172.864L118.366 184.697L115.452 185.398L113.984 182.94ZM112.698 180.892L109.869 176.191L109.436 181.677L112.698 180.892Z" fill="#830F0F"/>
<path d="M122.465 183.711L119.962 184.313L116.851 171.384L120.758 170.444L125.542 180.047L125.416 169.323L129.28 168.393L132.391 181.322L129.888 181.925L127.783 173.18C127.723 172.928 127.641 172.577 127.539 172.125C127.435 171.667 127.353 171.316 127.294 171.07L127.472 182.506L124.864 183.133L119.837 172.865C119.896 173.11 119.983 173.46 120.099 173.915C120.213 174.364 120.3 174.714 120.361 174.966L122.465 183.711Z" fill="#830F0F"/>
<path d="M151.248 176.785L147.794 177.616L142.466 172.922L141.503 174.555L142.543 178.879L139.901 179.515L136.79 166.586L139.432 165.951L140.713 171.275L144.395 164.756L147.867 163.921L143.88 170.513L151.248 176.785Z" fill="#830F0F"/>
<path d="M160.355 168.618L154.11 170.12L154.91 173.445L162.027 171.732L162.587 174.057L152.844 176.401L149.733 163.472L159.162 161.203L159.713 163.493L152.909 165.13L153.57 167.875L159.815 166.372L160.355 168.618ZM152.679 158.996L154.912 158.459L157.584 160.59L155.561 161.077L154.072 159.876L153.284 161.625L151.261 162.112L152.679 158.996ZM155.693 159.097L156.737 156.071L159.51 155.404L157.49 158.664L155.693 159.097Z" fill="#830F0F"/>
<path d="M171.19 158.309L171.74 160.599L167.894 161.524L170.454 172.164L167.75 172.814L165.19 162.175L161.326 163.104L160.775 160.815L171.19 158.309Z" fill="#830F0F"/>
<path d="M186.206 168.373L180.851 169.662L179.462 163.89L178.258 164.18L177.718 161.935L178.922 161.645L177.744 156.751L183.117 155.458C184.111 155.219 184.994 155.167 185.765 155.303C186.54 155.432 187.27 155.792 187.953 156.382C188.473 156.832 188.91 157.383 189.264 158.034C189.617 158.685 189.895 159.431 190.098 160.273C190.472 161.829 190.508 163.243 190.205 164.516C189.72 166.563 188.387 167.849 186.206 168.373ZM182.868 157.875L180.888 158.351L181.53 161.018L184.234 160.367L184.774 162.612L182.07 163.263L182.918 166.789L184.776 166.342C185.503 166.167 186.012 165.995 186.304 165.826C186.786 165.555 187.14 165.133 187.365 164.559C187.57 164.033 187.657 163.45 187.626 162.808C187.599 162.158 187.528 161.594 187.412 161.115C186.985 159.337 186.261 158.246 185.241 157.842C184.671 157.62 183.88 157.631 182.868 157.875Z" fill="#830F0F"/>
<path d="M200.787 162.053L196.051 163.193L195.801 166.065L192.992 166.741L194.469 152.708L197.504 151.978L205.168 163.811L202.255 164.512L200.787 162.053ZM199.501 160.006L196.672 155.305L196.239 160.791L199.501 160.006ZM193.599 149.475L195.832 148.937L198.504 151.069L196.48 151.556L194.992 150.355L194.204 152.104L192.18 152.59L193.599 149.475ZM187.895 149.084L190.66 148.419L192.965 150.639L191.169 151.071L187.895 149.084Z" fill="#830F0F"/>
<path d="M213.215 156.604L211.303 148.657L214.033 148L215.945 155.947C216.275 157.321 216.321 158.443 216.08 159.311C215.627 160.904 214.287 161.969 212.06 162.505C209.833 163.041 208.153 162.703 207.018 161.491C206.409 160.827 205.94 159.808 205.609 158.434L203.697 150.487L206.427 149.831L208.339 157.777C208.553 158.666 208.814 159.29 209.122 159.649C209.622 160.296 210.418 160.488 211.511 160.225C212.599 159.963 213.218 159.43 213.369 158.627C213.48 158.167 213.429 157.493 213.215 156.604Z" fill="#830F0F"/>
<path d="M228.928 152.73L226.155 153.398L227.375 158.468L224.749 159.099L221.638 146.17L227.944 144.653C228.85 144.454 229.569 144.398 230.1 144.487C230.638 144.574 231.123 144.776 231.556 145.092C231.914 145.353 232.222 145.662 232.481 146.02C232.739 146.379 232.93 146.813 233.052 147.321C233.2 147.935 233.192 148.578 233.027 149.248C232.861 149.913 232.453 150.453 231.802 150.87C232.453 150.967 232.954 151.208 233.305 151.594C233.661 151.972 233.948 152.614 234.166 153.521L234.375 154.389C234.517 154.98 234.636 155.375 234.734 155.574C234.884 155.891 235.105 156.097 235.399 156.193L235.477 156.518L232.521 157.229C232.37 156.962 232.257 156.745 232.179 156.578C232.022 156.233 231.895 155.87 231.798 155.492L231.491 154.294C231.281 153.473 230.998 152.959 230.641 152.754C230.29 152.548 229.719 152.54 228.928 152.73ZM229.994 149.987C230.47 149.613 230.62 149.063 230.446 148.338C230.257 147.555 229.872 147.091 229.29 146.946C228.962 146.864 228.508 146.893 227.926 147.033L224.804 147.784L225.64 151.258L228.684 150.525C229.288 150.38 229.725 150.2 229.994 149.987Z" fill="#830F0F"/>
<path d="M244.485 151.539L239.748 152.679L239.498 155.55L236.69 156.226L238.167 142.193L241.202 141.463L248.866 153.296L245.953 153.997L244.485 151.539ZM243.198 149.492L240.369 144.79L239.936 150.277L243.198 149.492Z" fill="#830F0F"/>
<path d="M125.669 261.589C123.183 260.505 121.961 259.928 119.514 258.676L124.993 247.816C127.254 249.033 128.486 249.569 130.856 250.582C131.461 250.781 132.016 251.109 132.484 251.543C132.952 251.977 133.321 252.507 133.567 253.097C133.783 253.75 133.758 254.459 133.497 255.093C133.398 255.405 133.239 255.693 133.028 255.941C132.818 256.188 132.559 256.391 132.269 256.537C131.89 256.715 131.478 256.814 131.059 256.828C131.583 257.233 131.97 257.789 132.171 258.421C132.345 259.038 132.309 259.695 132.069 260.287C131.832 260.951 131.377 261.514 130.779 261.884C130.377 262.136 129.932 262.31 129.466 262.398C128.872 262.492 128.265 262.47 127.678 262.333C126.986 262.153 126.313 261.904 125.669 261.589ZM130.004 255.063C130.232 255.024 130.443 254.922 130.616 254.77C130.789 254.617 130.916 254.419 130.983 254.197C131.051 253.976 131.055 253.74 130.997 253.515C130.938 253.291 130.819 253.088 130.652 252.927C130.233 252.583 129.761 252.309 129.256 252.115C128.154 251.628 127.622 251.38 126.516 250.795L125.384 253.205C126.614 253.82 127.234 254.106 128.484 254.637C128.944 254.913 129.469 255.06 130.004 255.063ZM127.763 256.631C126.463 256.053 125.824 255.772 124.552 255.147L123.169 258.073C124.464 258.712 125.126 259.008 126.445 259.581C126.901 259.806 127.395 259.943 127.901 259.983C128.224 259.992 128.542 259.895 128.806 259.707C129.069 259.519 129.265 259.249 129.362 258.939C129.476 258.675 129.501 258.38 129.433 258.1C129.366 257.82 129.21 257.569 128.988 257.386C128.617 257.061 128.189 256.808 127.726 256.64L127.763 256.631Z" fill="white"/>
<path d="M142.14 264.594C140.049 264.087 139.09 263.784 137.084 263.138L135.378 265.211C134.16 264.812 133.539 264.605 132.33 264.163C135.351 261.011 138.185 257.685 140.821 254.202C141.993 254.573 142.586 254.747 143.763 255.058C144.163 259.417 144.786 263.754 145.629 268.05C144.345 267.785 143.715 267.62 142.435 267.294C142.197 266.223 142.146 265.681 142.14 264.594ZM141.088 247.783L143.594 248.546C143.869 249.687 144.102 250.245 144.469 251.364L142.801 250.895C141.993 249.664 141.649 249.053 140.995 247.806L141.088 247.783ZM144.893 253.618C144.194 253.885 143.423 253.895 142.715 253.647C141.982 253.477 141.327 253.062 140.857 252.471C140.667 252.169 140.543 251.829 140.496 251.475C140.448 251.121 140.477 250.761 140.58 250.419L141.669 250.771C141.629 251.001 141.653 251.238 141.74 251.455C141.827 251.672 141.973 251.86 142.161 251.999C142.431 252.188 142.732 252.33 143.049 252.418C143.37 252.519 143.707 252.559 144.042 252.536C144.273 252.516 144.494 252.432 144.68 252.293C144.866 252.154 145.009 251.965 145.093 251.748L146.206 252.035C146.107 252.392 145.929 252.722 145.686 253C145.443 253.277 145.14 253.496 144.8 253.64L144.893 253.618ZM141.856 262.267C141.685 260.329 141.595 259.222 141.481 257.191C140.284 258.844 139.679 259.604 138.427 261.271C139.718 261.811 140.418 262.019 141.785 262.383L141.856 262.267Z" fill="white"/>
<path d="M158.846 270.116C157.639 270.011 157.055 269.953 155.858 269.806C154.25 266.753 152.8 263.62 151.512 260.419C150.934 263.825 150.637 265.539 150.04 268.949L147.276 268.426L149.656 256.471C150.755 256.701 151.312 256.805 152.42 256.994C153.61 260.123 154.965 263.187 156.48 266.172L157.458 257.721C158.451 257.839 158.938 257.9 159.922 257.98L158.846 270.116Z" fill="white"/>
<path d="M170.362 270.275C169.478 270.757 168.483 270.996 167.477 270.969C166.632 270.99 165.791 270.839 165.005 270.525C164.219 270.21 163.504 269.739 162.903 269.14C162.315 268.516 161.873 267.769 161.608 266.952C161.344 266.136 161.264 265.271 161.373 264.421C161.421 262.668 162.152 261.005 163.41 259.793C164.025 259.231 164.746 258.797 165.53 258.516C166.314 258.236 167.146 258.115 167.978 258.159C169.347 258.085 170.704 258.452 171.853 259.207C172.816 259.882 173.48 260.909 173.703 262.068C172.615 262.131 172.067 262.144 170.99 262.166C170.883 261.796 170.691 261.456 170.428 261.175C170.165 260.894 169.84 260.68 169.479 260.55C169.007 260.36 168.503 260.266 167.995 260.274C167.514 260.256 167.035 260.34 166.59 260.522C166.145 260.705 165.744 260.98 165.414 261.33C164.618 262.243 164.198 263.427 164.242 264.641C164.149 265.22 164.193 265.814 164.372 266.373C164.551 266.932 164.859 267.441 165.272 267.857C166.01 268.5 166.955 268.849 167.93 268.841C168.794 268.896 169.647 268.634 170.332 268.105C170.928 267.613 171.315 266.911 171.415 266.142C170.161 266.166 169.459 266.197 168.271 266.166L168.286 264.183C170.51 264.182 171.625 264.151 173.846 264.052C173.979 266.653 174.058 267.961 174.177 270.584L172.226 270.658L171.866 269.161C171.425 269.608 170.918 269.984 170.362 270.275Z" fill="white"/>
<path d="M179.963 257.73L182.748 257.357C184.392 260.921 185.271 262.689 187.061 266.039C187.611 262.185 187.834 260.251 188.151 256.413L190.812 255.773C190.258 260.915 189.876 263.501 188.89 268.648L186.132 269.133C183.5 264.659 182.241 262.369 179.963 257.73Z" fill="white"/>
<path d="M202.502 262.541C200.551 263.189 199.579 263.482 197.628 264.051C197.532 265.123 197.482 265.65 197.367 266.727L194.352 267.452C195.064 263.142 195.549 258.796 195.806 254.433C196.96 254.155 197.537 254.016 198.627 253.556C201.299 256.977 204.145 260.257 207.154 263.382L204.131 264.485C203.491 263.788 203.155 263.374 202.502 262.541ZM198.721 251.574C198.311 252.149 197.716 252.564 197.036 252.751C196.354 253.012 195.6 253.018 194.913 252.767C194.58 252.611 194.285 252.38 194.052 252.094C193.82 251.807 193.655 251.471 193.57 251.111L194.649 250.851C194.731 251.067 194.874 251.253 195.06 251.388C195.247 251.523 195.468 251.599 195.698 251.608C196.021 251.606 196.339 251.53 196.628 251.384C196.934 251.299 197.22 251.156 197.472 250.964C197.652 250.82 197.788 250.628 197.864 250.41C197.941 250.192 197.954 249.957 197.904 249.731L198.983 249.472C199.102 249.828 199.141 250.206 199.098 250.579C199.055 250.952 198.931 251.311 198.735 251.63L198.721 251.574ZM201.062 260.73C199.793 259.056 199.2 258.308 198.019 256.672C197.948 258.668 197.907 259.727 197.766 261.761C199.102 261.42 199.763 261.221 201.076 260.786L201.062 260.73Z" fill="white"/>
<path d="M219.31 258.022C218.247 258.595 217.72 258.86 216.644 259.376C213.654 257.701 210.759 255.859 207.973 253.861C209.328 257.039 210.027 258.632 211.382 261.81L208.824 262.881L204.326 251.551C205.351 251.146 205.85 250.927 206.865 250.485C209.541 252.477 212.324 254.319 215.202 256.002C213.697 252.939 212.937 251.419 211.4 248.384L213.587 247.244C215.885 251.561 217.03 253.78 219.31 258.022Z" fill="white"/>
<path d="M231.9 250.202C229.784 251.721 228.701 252.456 226.494 253.839L220.071 243.507C222.157 242.193 223.188 241.49 225.145 240.049C225.614 239.661 226.16 239.379 226.746 239.221C227.333 239.063 227.947 239.032 228.547 239.131C229.192 239.307 229.763 239.691 230.169 240.226C230.386 240.476 230.553 240.766 230.659 241.08C230.765 241.394 230.808 241.726 230.786 242.057C230.739 242.473 230.608 242.875 230.401 243.238C231.014 242.979 231.696 242.934 232.339 243.109C232.95 243.284 233.489 243.655 233.873 244.165C234.317 244.71 234.565 245.391 234.573 246.095C234.595 246.565 234.521 247.034 234.354 247.474C234.157 248.027 233.841 248.529 233.428 248.944C232.958 249.409 232.446 249.83 231.9 250.202ZM228.48 243.107C228.549 242.907 228.56 242.692 228.511 242.486C228.461 242.28 228.353 242.093 228.2 241.947C228.092 241.767 227.932 241.624 227.743 241.536C227.553 241.448 227.342 241.418 227.136 241.45C226.638 241.624 226.174 241.883 225.765 242.216C224.822 242.878 224.35 243.21 223.398 243.835C223.99 244.741 224.294 245.183 224.881 246.071C225.987 245.35 226.58 244.95 227.598 244.19C227.975 243.906 228.278 243.534 228.48 243.107ZM228.701 245.825L225.918 247.761L227.709 250.458C228.862 249.686 229.399 249.299 230.561 248.485C230.974 248.222 231.326 247.874 231.595 247.464C231.764 247.19 231.84 246.869 231.812 246.547C231.785 246.226 231.655 245.922 231.442 245.68C231.282 245.441 231.048 245.262 230.777 245.17C230.505 245.078 230.212 245.078 229.941 245.17C229.491 245.328 229.075 245.569 228.714 245.881L228.701 245.825Z" fill="white"/>
<path d="M242.697 237.805C241.2 239.274 240.428 239.994 238.857 241.402C239.235 242.399 239.398 242.914 239.762 243.935C238.804 244.78 238.313 245.195 237.341 245.983C236.149 241.764 234.742 237.61 233.125 233.536C234.032 232.724 234.482 232.299 235.361 231.454C239.286 233.346 243.31 235.021 247.416 236.472C246.508 237.442 246.035 237.932 245.099 238.87C244.141 238.487 243.655 238.267 242.697 237.805ZM240.642 236.874C238.81 235.969 237.921 235.549 236.146 234.551C236.912 236.346 237.336 237.373 238.074 239.294C239.108 238.352 239.618 237.853 240.642 236.874ZM234.117 230.704C234.061 230.893 233.97 231.069 233.849 231.224C233.884 231.341 233.913 231.459 233.934 231.579L233.05 232.406C232.903 232.204 232.839 232.1 232.673 231.903C233.006 231.565 233.17 231.268 233.163 231.072C233.188 230.888 233.143 230.701 233.037 230.548C232.978 230.477 232.904 230.42 232.82 230.383L232.54 230.45L232.373 230.49C232.262 230.551 232.161 230.628 232.074 230.721L231.733 231.02L231.267 230.558L231.548 230.253C231.629 230.152 231.718 230.058 231.815 229.971C232.02 229.767 232.261 229.602 232.524 229.484C232.796 229.362 233.098 229.331 233.389 229.395L233.671 229.505C233.784 229.558 233.883 229.636 233.962 229.732C234.042 229.765 234.118 229.807 234.189 229.855C234.236 229.969 234.265 230.089 234.274 230.211C234.27 230.387 234.216 230.558 234.117 230.704Z" fill="white"/>
<path d="M256.297 225.763C255.56 226.792 255.189 227.297 254.402 228.199C250.931 228.098 247.468 227.78 244.035 227.249C246.558 229.552 247.947 230.662 250.558 232.924C249.804 233.799 249.42 234.247 248.638 235.089L239.672 226.873C240.45 226.013 240.838 225.583 241.569 224.694C244.913 225.255 248.286 225.613 251.671 225.768L244.949 220.575C245.578 219.751 245.892 219.339 246.511 218.477L256.297 225.763Z" fill="white"/>
<path d="M81.4173 124.084C81.9078 123.095 82.1668 122.617 82.6849 121.661L92.0041 126.763C91.5425 127.626 91.3303 128.053 90.9097 129.006L81.4173 124.084Z" fill="white"/>
<path d="M93.5729 115.359C92.2582 117.259 91.6098 118.247 90.3824 120.264L92.6937 121.688C94.1045 119.368 94.7714 118.377 96.2549 116.278L97.8022 117.39C96.1086 119.746 94.5489 122.197 93.1305 124.73L83.9664 119.373C85.4955 116.632 87.1777 113.98 89.005 111.43L90.5478 112.524C89.0965 114.674 88.3032 115.796 86.9065 118.091L88.8249 119.273C90.0805 117.209 90.7288 116.222 92.0904 114.271L93.5729 115.359Z" fill="white"/>
<path d="M90.3735 109.517L91.9776 107.428L98.8286 112.827C100.226 111.026 100.943 110.161 102.447 108.473L103.877 109.752C102.111 111.717 100.451 113.775 98.9028 115.917L90.3735 109.517Z" fill="white"/>
<path d="M102.558 95.8364L103.852 97.2075C102.791 98.1954 102.243 98.7032 101.269 99.8086L107.432 105.947C106.781 106.599 106.449 106.936 105.863 107.611L99.505 101.559C98.503 102.632 97.9276 103.186 97.0463 104.269L95.6253 103.027C97.7951 100.497 100.11 98.0959 102.558 95.8364Z" fill="white"/>
<path d="M112.817 98.9501C113.173 98.6684 113.484 98.3332 113.739 97.9561C113.923 97.7341 114.023 97.4538 114.022 97.1646C114.021 96.8753 113.918 96.5954 113.732 96.374C113.633 96.2382 113.496 96.1351 113.339 96.0778C113.181 96.0205 113.01 96.0117 112.848 96.0524C112.313 96.1565 111.801 96.3534 111.334 96.6343L110.234 97.2159C109.482 97.669 108.669 98.0112 107.82 98.232C107.374 98.3108 106.914 98.2664 106.49 98.1035C106.066 97.9406 105.694 97.6653 105.413 97.3069C105.11 96.9582 104.895 96.5413 104.787 96.0916C104.678 95.642 104.68 95.173 104.791 94.7246C105.089 93.5105 105.811 92.445 106.825 91.7212C107.693 90.9463 108.785 90.4688 109.942 90.3575C110.454 90.3122 110.969 90.4005 111.438 90.6137C111.906 90.8269 112.312 91.1579 112.617 91.5746C111.865 92.1317 111.482 92.4218 110.739 93.0163C110.555 92.7881 110.306 92.6209 110.026 92.5365C109.746 92.4521 109.447 92.4544 109.168 92.543C108.687 92.683 108.242 92.9252 107.863 93.2531C107.443 93.5846 107.113 94.018 106.906 94.5127C106.846 94.7034 106.839 94.907 106.886 95.1016C106.932 95.2962 107.031 95.4744 107.171 95.6168C107.286 95.7583 107.44 95.8612 107.614 95.9114C107.788 95.9616 107.974 95.9567 108.145 95.8973C108.65 95.7287 109.139 95.5118 109.603 95.2494L111.352 94.3338C111.982 93.9923 112.676 93.7849 113.39 93.7245C113.811 93.7127 114.228 93.8108 114.6 94.0093C114.972 94.2078 115.287 94.4998 115.513 94.8567C115.809 95.2173 116.019 95.6405 116.129 96.0944C116.238 96.5482 116.243 97.0208 116.144 97.4765C115.825 98.5895 115.144 99.5619 114.209 100.238C113.289 101.115 112.1 101.652 110.836 101.763C110.334 101.81 109.828 101.735 109.361 101.544C108.893 101.353 108.478 101.052 108.15 100.667L109.759 99.1711C110.047 99.4462 110.406 99.6343 110.795 99.7136C111.168 99.7445 111.542 99.6921 111.892 99.5601C112.241 99.4281 112.557 99.2197 112.817 98.9501Z" fill="white"/>
<path d="M126.329 91.7792C125.222 92.5026 123.884 92.7821 122.58 92.5625C121.791 92.3841 121.046 92.0446 120.392 91.5651C119.738 91.0856 119.189 90.4764 118.779 89.7753C118.286 89.1186 117.949 88.3569 117.796 87.5492C117.643 86.7416 117.676 85.9097 117.895 85.1183C118.371 83.7632 119.351 82.6474 120.63 82.0053C121.829 81.2418 123.267 80.9521 124.668 81.1923C125.458 81.4045 126.19 81.7934 126.81 82.3298C127.43 82.8662 127.922 83.5363 128.248 84.29C128.648 84.9844 128.905 85.7519 129.005 86.5472C129.105 87.3425 129.046 88.1495 128.831 88.9206C128.377 90.1516 127.486 91.1697 126.329 91.7792ZM126.811 88.2188C126.915 87.2271 126.675 86.229 126.131 85.3932C125.735 84.4849 125.02 83.7548 124.122 83.3428C123.705 83.2158 123.268 83.1755 122.835 83.2244C122.403 83.2733 121.986 83.4104 121.608 83.6272C121.231 83.8439 120.902 84.1359 120.641 84.4852C120.381 84.8345 120.194 85.2338 120.092 85.6586C119.939 86.6593 120.185 87.6813 120.776 88.5029C121.282 89.3484 122.064 89.9927 122.987 90.3267C123.38 90.4517 123.795 90.4937 124.204 90.45C124.614 90.4064 125.01 90.278 125.367 90.073C125.725 89.868 126.036 89.5908 126.281 89.2588C126.527 88.9268 126.701 88.5472 126.793 88.1439L126.811 88.2188Z" fill="white"/>
<path d="M140.256 84.944C139.404 85.2481 138.99 85.4072 138.165 85.7442C135.869 83.8867 133.48 82.149 131.006 80.5382C132.262 83.3043 132.888 84.678 134.126 87.4485L132.229 88.3206L127.611 78.7024L130.002 77.5926C132.969 79.5314 134.383 80.4978 137.134 82.6864C136.031 79.9031 135.503 78.5258 134.405 75.7613L136.585 74.92C138.059 78.9204 138.801 80.9392 140.256 84.944Z" fill="white"/>
<path d="M138.782 74.1536L141.17 73.3611L143.773 81.7223C145.84 81.0666 146.892 80.7739 148.99 80.2492C149.17 80.9977 149.26 81.3719 149.44 82.1204C146.99 82.7033 144.572 83.4171 142.198 84.259C140.849 80.2086 140.186 78.2699 138.782 74.1536Z" fill="white"/>
<path d="M148.362 71.4135L150.781 70.8314C151.65 75.0169 152.076 77.1119 152.94 81.2787L150.782 81.7981C149.819 77.635 149.338 75.5534 148.362 71.4135Z" fill="white"/>
<path d="M163.376 80.0841C162.489 80.1591 162.043 80.1872 161.145 80.3041C159.399 77.9132 157.531 75.6139 155.55 73.4153L156.761 80.9037C155.943 81.1007 155.529 81.1012 154.701 81.2608L152.765 70.7597L155.355 70.3146C157.323 72.4787 159.181 74.7404 160.924 77.0912C160.584 74.1244 160.423 72.6387 160.106 69.6862C161.027 69.5835 161.487 69.5322 162.416 69.4669C162.863 73.6948 163 75.8196 163.376 80.0841Z" fill="white"/>
<path d="M173.247 74.7691C171.05 74.7235 169.954 74.7497 167.766 74.8208C167.814 75.918 167.828 76.4688 167.875 77.5659C170.296 77.4785 171.513 77.4628 173.95 77.5296C173.921 78.3086 173.914 78.6865 173.917 79.5172C171.198 79.4234 168.477 79.4768 165.765 79.6772C165.505 75.4045 165.368 73.2798 165.168 69.0124C168.098 68.8092 171.038 68.7627 173.974 68.8731C173.959 69.6289 173.951 70.0068 173.918 70.7672C171.424 70.7139 170.184 70.7153 167.685 70.802L167.779 73.0756C170.005 72.9955 171.124 72.9835 173.376 73.0157L173.247 74.7691Z" fill="white"/>
<path d="M189.492 70.3652L189.153 72.2284C187.752 71.9715 187.094 71.8529 185.628 71.6513L184.433 80.352C183.538 80.2309 183.088 80.161 182.179 80.0631C182.6 76.5767 182.882 74.8062 183.211 71.3421C181.791 71.1691 181.178 71.0789 179.679 70.9843L179.814 69.091C183.061 69.3317 186.292 69.7572 189.492 70.3652Z" fill="white"/>
<path d="M197.592 78.4927C195.469 77.8552 194.338 77.5731 192.155 77.0889L191.577 79.7617C193.974 80.3134 195.188 80.615 197.565 81.3298L197.027 83.1817C194.382 82.362 191.696 81.6867 188.98 81.1587C189.791 77.0043 190.216 74.9226 191.046 70.7636C193.986 71.3247 196.893 72.0459 199.756 72.924L199.227 74.734C196.789 74.0139 195.538 73.6419 193.072 73.1268L192.581 75.3432C194.807 75.8371 195.9 76.1282 198.101 76.7666L197.592 78.4927Z" fill="white"/>
<path d="M203.069 83.5884C203.496 83.7597 203.946 83.865 204.404 83.9006C204.691 83.9492 204.985 83.8974 205.237 83.7538C205.489 83.6102 205.684 83.3835 205.79 83.112C205.839 82.9503 205.844 82.7781 205.805 82.6135C205.765 82.4488 205.682 82.2979 205.564 82.1764C205.181 81.7688 204.739 81.4213 204.253 81.1457L203.19 80.4909C202.407 80.0663 201.692 79.524 201.071 78.8828C200.774 78.5341 200.576 78.1115 200.499 77.6596C200.421 77.2078 200.467 76.7436 200.63 76.3163C200.762 75.8737 201 75.4704 201.322 75.1411C201.644 74.8118 202.041 74.5665 202.479 74.4263C203.687 74.079 204.98 74.1748 206.127 74.6967C207.249 75.0829 208.231 75.7984 208.945 76.7506C209.248 77.1722 209.438 77.665 209.497 78.1814C209.556 78.6979 209.481 79.2205 209.28 79.6987L207.086 78.7618C207.181 78.4815 207.195 78.1794 207.126 77.891C207.056 77.6027 206.907 77.34 206.694 77.1338C206.317 76.7855 205.871 76.5217 205.386 76.3598C204.885 76.1455 204.337 76.0722 203.799 76.1477C203.6 76.1772 203.413 76.2625 203.26 76.3938C203.107 76.5252 202.994 76.6972 202.934 76.8903C202.87 77.0603 202.859 77.2459 202.901 77.4228C202.944 77.5998 203.038 77.7598 203.173 77.8821C203.584 78.2345 204.022 78.5527 204.484 78.8334C205.201 79.2747 205.552 79.5069 206.255 79.9713C206.886 80.3427 207.43 80.8465 207.85 81.4482C208.071 81.8096 208.199 82.2207 208.222 82.644C208.245 83.0673 208.162 83.4893 207.981 83.8716C207.797 84.3013 207.517 84.6829 207.164 84.9874C206.811 85.292 206.393 85.5113 205.942 85.6289C204.801 85.908 203.599 85.8006 202.522 85.3235C201.364 84.9705 200.346 84.2596 199.612 83.292C199.314 82.8802 199.121 82.4021 199.047 81.899C198.974 81.3958 199.024 80.8827 199.192 80.4037C200.068 80.6879 200.494 80.8229 201.337 81.1348C201.245 81.5233 201.268 81.9305 201.402 82.3068C201.574 82.6268 201.812 82.9066 202.099 83.1276C202.386 83.3486 202.717 83.5057 203.069 83.5884Z" fill="white"/>
<path d="M220.91 81.8887C220.538 82.5522 220.363 82.8911 219.987 83.536C218.688 82.7995 218.031 82.4428 216.703 81.7527L212.674 89.5519L210.545 88.4803L214.334 80.5806C212.997 79.9324 212.312 79.6221 210.965 79.0158L211.712 77.292C214.867 78.6355 217.939 80.1706 220.91 81.8887Z" fill="white"/>
<path d="M221.31 92.7988C221.705 93.0697 222.135 93.286 222.587 93.4418C222.851 93.5714 223.151 93.6047 223.436 93.5361C223.722 93.4674 223.974 93.3011 224.15 93.0656C224.25 92.9277 224.306 92.7625 224.31 92.5918C224.315 92.4211 224.268 92.2529 224.176 92.1092C223.888 91.6049 223.52 91.1517 223.085 90.7682L222.136 89.8485C221.445 89.2393 220.84 88.5393 220.336 87.7676C220.11 87.3627 219.998 86.904 220.011 86.4405C220.024 85.9771 220.163 85.5263 220.411 85.1363C220.642 84.7312 220.969 84.39 221.363 84.1431C221.757 83.8963 222.206 83.7516 222.67 83.7219C223.969 83.6668 225.25 84.0565 226.302 84.8274C227.355 85.4679 228.193 86.4114 228.706 87.5351C228.926 88.0145 229.017 88.543 228.971 89.0682C228.924 89.5933 228.742 90.0968 228.442 90.5285C227.624 89.9135 227.199 89.6199 226.354 89.0513C226.51 88.7956 226.589 88.4994 226.579 88.1991C226.57 87.8989 226.474 87.6077 226.302 87.3614C225.999 86.9158 225.6 86.5448 225.135 86.2762C224.675 85.9438 224.137 85.7387 223.574 85.6817C223.374 85.663 223.173 85.7 222.993 85.7888C222.813 85.8775 222.661 86.0145 222.553 86.1847C222.459 86.3468 222.415 86.533 222.425 86.7205C222.435 86.908 222.5 87.0886 222.611 87.24C222.952 87.6854 223.334 88.0971 223.753 88.4696C224.375 89.0919 224.684 89.3937 225.301 90.0766C225.854 90.5984 226.299 91.2246 226.611 91.9193C226.764 92.3178 226.811 92.7495 226.747 93.1713C226.682 93.5932 226.509 93.9904 226.244 94.3236C225.966 94.7107 225.6 95.0252 225.176 95.2409C224.751 95.4566 224.282 95.5672 223.806 95.5635C222.582 95.5482 221.394 95.1405 220.415 94.3998C219.295 93.7939 218.383 92.8602 217.802 91.7226C217.592 91.2554 217.498 90.7438 217.529 90.2324C217.561 89.721 217.716 89.2254 217.983 88.789C218.806 89.2641 219.222 89.5203 220.031 90.0185C219.859 90.3773 219.791 90.7778 219.836 91.1739C219.955 91.5333 220.147 91.8637 220.401 92.1437C220.655 92.4237 220.965 92.6469 221.31 92.7988Z" fill="white"/>
</g>
<defs>
<filter id="filter0_dii_2733_11684" x="15.3496" y="16.0264" width="310.707" height="312.085" filterUnits="userSpaceOnUse" color-interpolation-filters="sRGB">
<feFlood flood-opacity="0" result="BackgroundImageFix"/>
<feColorMatrix in="SourceAlpha" type="matrix" values="0 0 0 0 0 0 0 0 0 0 0 0 0 0 0 0 0 0 127 0" result="hardAlpha"/>
<feOffset dy="4"/>
<feGaussianBlur stdDeviation="7.5"/>
<feComposite in2="hardAlpha" operator="out"/>
<feColorMatrix type="matrix" values="0 0 0 0 0 0 0 0 0 0 0 0 0 0 0 0 0 0 0.25 0"/>
<feBlend mode="normal" in2="BackgroundImageFix" result="effect1_dropShadow_2733_11684"/>
<feBlend mode="normal" in="SourceGraphic" in2="effect1_dropShadow_2733_11684" result="shape"/>
<feColorMatrix in="SourceAlpha" type="matrix" values="0 0 0 0 0 0 0 0 0 0 0 0 0 0 0 0 0 0 127 0" result="hardAlpha"/>
<feOffset dy="-4"/>
<feGaussianBlur stdDeviation="2"/>
<feComposite in2="hardAlpha" operator="arithmetic" k2="-1" k3="1"/>
<feColorMatrix type="matrix" values="0 0 0 0 0 0 0 0 0 0 0 0 0 0 0 0 0 0 0.25 0"/>
<feBlend mode="normal" in2="shape" result="effect2_innerShadow_2733_11684"/>
<feColorMatrix in="SourceAlpha" type="matrix" values="0 0 0 0 0 0 0 0 0 0 0 0 0 0 0 0 0 0 127 0" result="hardAlpha"/>
<feOffset dy="3"/>
<feGaussianBlur stdDeviation="2"/>
<feComposite in2="hardAlpha" operator="arithmetic" k2="-1" k3="1"/>
<feColorMatrix type="matrix" values="0 0 0 0 1 0 0 0 0 1 0 0 0 0 1 0 0 0 0.25 0"/>
<feBlend mode="normal" in2="effect2_innerShadow_2733_11684" result="effect3_innerShadow_2733_11684"/>
</filter>
<filter id="filter1_d_2733_11684" x="50.1211" y="51.106" width="240.764" height="241.93" filterUnits="userSpaceOnUse" color-interpolation-filters="sRGB">
<feFlood flood-opacity="0" result="BackgroundImageFix"/>
<feColorMatrix in="SourceAlpha" type="matrix" values="0 0 0 0 0 0 0 0 0 0 0 0 0 0 0 0 0 0 127 0" result="hardAlpha"/>
<feOffset dy="4"/>
<feGaussianBlur stdDeviation="2"/>
<feComposite in2="hardAlpha" operator="out"/>
<feColorMatrix type="matrix" values="0 0 0 0 0 0 0 0 0 0 0 0 0 0 0 0 0 0 0.25 0"/>
<feBlend mode="normal" in2="BackgroundImageFix" result="effect1_dropShadow_2733_11684"/>
<feBlend mode="normal" in="SourceGraphic" in2="effect1_dropShadow_2733_11684" result="shape"/>
</filter>
<filter id="filter2_d_2733_11684" x="88.1699" y="89.3281" width="164.74" height="165.51" filterUnits="userSpaceOnUse" color-interpolation-filters="sRGB">
<feFlood flood-opacity="0" result="BackgroundImageFix"/>
<feColorMatrix in="SourceAlpha" type="matrix" values="0 0 0 0 0 0 0 0 0 0 0 0 0 0 0 0 0 0 127 0" result="hardAlpha"/>
<feOffset dy="4"/>
<feGaussianBlur stdDeviation="2"/>
<feComposite in2="hardAlpha" operator="out"/>
<feColorMatrix type="matrix" values="0 0 0 0 0 0 0 0 0 0 0 0 0 0 0 0 0 0 0.25 0"/>
<feBlend mode="normal" in2="BackgroundImageFix" result="effect1_dropShadow_2733_11684"/>
<feBlend mode="normal" in="SourceGraphic" in2="effect1_dropShadow_2733_11684" result="shape"/>
</filter>
<filter id="filter3_d_2733_11684" x="162.111" y="198.518" width="36.1719" height="37.0132" filterUnits="userSpaceOnUse" color-interpolation-filters="sRGB">
<feFlood flood-opacity="0" result="BackgroundImageFix"/>
<feColorMatrix in="SourceAlpha" type="matrix" values="0 0 0 0 0 0 0 0 0 0 0 0 0 0 0 0 0 0 127 0" result="hardAlpha"/>
<feOffset dy="4"/>
<feGaussianBlur stdDeviation="2"/>
<feComposite in2="hardAlpha" operator="out"/>
<feColorMatrix type="matrix" values="0 0 0 0 0 0 0 0 0 0 0 0 0 0 0 0 0 0 0.25 0"/>
<feBlend mode="normal" in2="BackgroundImageFix" result="effect1_dropShadow_2733_11684"/>
<feBlend mode="normal" in="SourceGraphic" in2="effect1_dropShadow_2733_11684" result="shape"/>
</filter>
<filter id="filter4_d_2733_11684" x="139.803" y="106.775" width="36.1719" height="37.0132" filterUnits="userSpaceOnUse" color-interpolation-filters="sRGB">
<feFlood flood-opacity="0" result="BackgroundImageFix"/>
<feColorMatrix in="SourceAlpha" type="matrix" values="0 0 0 0 0 0 0 0 0 0 0 0 0 0 0 0 0 0 127 0" result="hardAlpha"/>
<feOffset dy="4"/>
<feGaussianBlur stdDeviation="2"/>
<feComposite in2="hardAlpha" operator="out"/>
<feColorMatrix type="matrix" values="0 0 0 0 0 0 0 0 0 0 0 0 0 0 0 0 0 0 0.25 0"/>
<feBlend mode="normal" in2="BackgroundImageFix" result="effect1_dropShadow_2733_11684"/>
<feBlend mode="normal" in="SourceGraphic" in2="effect1_dropShadow_2733_11684" result="shape"/>
</filter>
<filter id="filter5_d_2733_11684" x="59.2773" y="124.702" width="222.967" height="93.8945" filterUnits="userSpaceOnUse" color-interpolation-filters="sRGB">
<feFlood flood-opacity="0" result="BackgroundImageFix"/>
<feColorMatrix in="SourceAlpha" type="matrix" values="0 0 0 0 0 0 0 0 0 0 0 0 0 0 0 0 0 0 127 0" result="hardAlpha"/>
<feOffset dy="5"/>
<feGaussianBlur stdDeviation="2"/>
<feComposite in2="hardAlpha" operator="out"/>
<feColorMatrix type="matrix" values="0 0 0 0 0 0 0 0 0 0 0 0 0 0 0 0 0 0 0.25 0"/>
<feBlend mode="normal" in2="BackgroundImageFix" result="effect1_dropShadow_2733_11684"/>
<feBlend mode="normal" in="SourceGraphic" in2="effect1_dropShadow_2733_11684" result="shape"/>
</filter>
<filter id="filter6_d_2733_11684" x="254.74" y="132.227" width="22.0918" height="22.1611" filterUnits="userSpaceOnUse" color-interpolation-filters="sRGB">
<feFlood flood-opacity="0" result="BackgroundImageFix"/>
<feColorMatrix in="SourceAlpha" type="matrix" values="0 0 0 0 0 0 0 0 0 0 0 0 0 0 0 0 0 0 127 0" result="hardAlpha"/>
<feOffset dy="2"/>
<feGaussianBlur stdDeviation="2"/>
<feComposite in2="hardAlpha" operator="out"/>
<feColorMatrix type="matrix" values="0 0 0 0 0 0 0 0 0 0 0 0 0 0 0 0 0 0 0.25 0"/>
<feBlend mode="normal" in2="BackgroundImageFix" result="effect1_dropShadow_2733_11684"/>
<feBlend mode="normal" in="SourceGraphic" in2="effect1_dropShadow_2733_11684" result="shape"/>
</filter>
<filter id="filter7_d_2733_11684" x="61.9238" y="178.621" width="22.0918" height="22.165" filterUnits="userSpaceOnUse" color-interpolation-filters="sRGB">
<feFlood flood-opacity="0" result="BackgroundImageFix"/>
<feColorMatrix in="SourceAlpha" type="matrix" values="0 0 0 0 0 0 0 0 0 0 0 0 0 0 0 0 0 0 127 0" result="hardAlpha"/>
<feOffset dy="2"/>
<feGaussianBlur stdDeviation="2"/>
<feComposite in2="hardAlpha" operator="out"/>
<feColorMatrix type="matrix" values="0 0 0 0 0 0 0 0 0 0 0 0 0 0 0 0 0 0 0.25 0"/>
<feBlend mode="normal" in2="BackgroundImageFix" result="effect1_dropShadow_2733_11684"/>
<feBlend mode="normal" in="SourceGraphic" in2="effect1_dropShadow_2733_11684" result="shape"/>
</filter>
<filter id="filter8_d_2733_11684" x="200.26" y="187.539" width="25.2246" height="25.7334" filterUnits="userSpaceOnUse" color-interpolation-filters="sRGB">
<feFlood flood-opacity="0" result="BackgroundImageFix"/>
<feColorMatrix in="SourceAlpha" type="matrix" values="0 0 0 0 0 0 0 0 0 0 0 0 0 0 0 0 0 0 127 0" result="hardAlpha"/>
<feOffset dy="4"/>
<feGaussianBlur stdDeviation="2"/>
<feComposite in2="hardAlpha" operator="out"/>
<feColorMatrix type="matrix" values="0 0 0 0 0 0 0 0 0 0 0 0 0 0 0 0 0 0 0.25 0"/>
<feBlend mode="normal" in2="BackgroundImageFix" result="effect1_dropShadow_2733_11684"/>
<feBlend mode="normal" in="SourceGraphic" in2="effect1_dropShadow_2733_11684" result="shape"/>
</filter>
<filter id="filter9_d_2733_11684" x="181.912" y="112.266" width="25.2246" height="25.7334" filterUnits="userSpaceOnUse" color-interpolation-filters="sRGB">
<feFlood flood-opacity="0" result="BackgroundImageFix"/>
<feColorMatrix in="SourceAlpha" type="matrix" values="0 0 0 0 0 0 0 0 0 0 0 0 0 0 0 0 0 0 127 0" result="hardAlpha"/>
<feOffset dy="4"/>
<feGaussianBlur stdDeviation="2"/>
<feComposite in2="hardAlpha" operator="out"/>
<feColorMatrix type="matrix" values="0 0 0 0 0 0 0 0 0 0 0 0 0 0 0 0 0 0 0.25 0"/>
<feBlend mode="normal" in2="BackgroundImageFix" result="effect1_dropShadow_2733_11684"/>
<feBlend mode="normal" in="SourceGraphic" in2="effect1_dropShadow_2733_11684" result="shape"/>
</filter>
<filter id="filter10_d_2733_11684" x="132.043" y="203.96" width="25.1875" height="25.7432" filterUnits="userSpaceOnUse" color-interpolation-filters="sRGB">
<feFlood flood-opacity="0" result="BackgroundImageFix"/>
<feColorMatrix in="SourceAlpha" type="matrix" values="0 0 0 0 0 0 0 0 0 0 0 0 0 0 0 0 0 0 127 0" result="hardAlpha"/>
<feOffset dy="4"/>
<feGaussianBlur stdDeviation="2"/>
<feComposite in2="hardAlpha" operator="out"/>
<feColorMatrix type="matrix" values="0 0 0 0 0 0 0 0 0 0 0 0 0 0 0 0 0 0 0.25 0"/>
<feBlend mode="normal" in2="BackgroundImageFix" result="effect1_dropShadow_2733_11684"/>
<feBlend mode="normal" in="SourceGraphic" in2="effect1_dropShadow_2733_11684" result="shape"/>
</filter>
<filter id="filter11_d_2733_11684" x="113.697" y="128.686" width="25.1875" height="25.7432" filterUnits="userSpaceOnUse" color-interpolation-filters="sRGB">
<feFlood flood-opacity="0" result="BackgroundImageFix"/>
<feColorMatrix in="SourceAlpha" type="matrix" values="0 0 0 0 0 0 0 0 0 0 0 0 0 0 0 0 0 0 127 0" result="hardAlpha"/>
<feOffset dy="4"/>
<feGaussianBlur stdDeviation="2"/>
<feComposite in2="hardAlpha" operator="out"/>
<feColorMatrix type="matrix" values="0 0 0 0 0 0 0 0 0 0 0 0 0 0 0 0 0 0 0.25 0"/>
<feBlend mode="normal" in2="BackgroundImageFix" result="effect1_dropShadow_2733_11684"/>
<feBlend mode="normal" in="SourceGraphic" in2="effect1_dropShadow_2733_11684" result="shape"/>
</filter>
<linearGradient id="paint0_linear_2733_11684" x1="133.854" y1="16.3275" x2="205.185" y2="312.778" gradientUnits="userSpaceOnUse">
<stop offset="0.0989583" stop-color="#881010"/>
<stop offset="0.34375" stop-color="#820F0F"/>
<stop offset="0.692708" stop-color="#7A0D0D" stop-opacity="0.909603"/>
<stop offset="0.9375" stop-color="#740B0B" stop-opacity="0.83"/>
</linearGradient>
<clipPath id="clip0_2733_11684">
<rect width="280" height="288.968" fill="white" transform="translate(0.257812 66.4084) rotate(-13.5291)"/>
</clipPath>
</defs>
</svg>
