<svg width="32" height="33" viewBox="0 0 32 33" fill="none" xmlns="http://www.w3.org/2000/svg">
<g id="noto-v1:graduation-cap">
<path id="Vector" d="M4.35254 11.7852H27.2425V21.9177H4.35254V11.7852Z" fill="#2F2F2F"/>
<g id="Group">
<path id="Vector_2" d="M4.35257 16.5C6.79257 17.565 9.26757 18.66 11.6801 19.805C13.1801 20.5175 14.5776 20.865 15.9526 20.865C16.9551 20.865 17.9551 20.675 18.9276 20.2975C19.6926 20.0025 20.4301 19.645 21.1451 19.3C21.6126 19.075 22.0526 18.86 22.5051 18.6625C23.0076 18.44 23.5101 18.215 24.0126 17.9925C24.8826 17.6 25.7501 17.205 26.6201 16.8075C26.8276 16.7125 27.0351 16.62 27.2451 16.525V20.4325C27.2451 21.305 27.2651 22.18 27.2451 23.0525C27.1776 25.9475 23.7651 26.435 20.8651 26.73C16.4901 27.175 11.1326 27.4225 6.95257 26.135C5.82757 25.7875 5.14507 25.1725 4.74007 24.415C3.80257 22.6625 4.35507 20.145 4.35507 18.43C4.35257 17.7875 4.35257 17.145 4.35257 16.5Z" fill="#006CA2"/>
<path id="Vector_3" d="M0.147564 11.8714C0.205064 11.7339 0.282564 11.6014 0.352564 11.4964C0.635064 11.0814 1.05756 10.7539 1.48506 10.4989C1.67756 10.3839 1.87506 10.2589 2.07756 10.1689C3.24756 9.64641 4.43506 9.05891 5.60256 8.49391C8.31756 7.18891 11.0151 5.83891 13.8626 4.85141C14.4401 4.65141 15.0051 4.56641 15.5626 4.56641C17.0276 4.56641 18.4376 5.15641 19.8376 5.79141C22.1676 6.84891 24.5001 7.90391 26.8276 8.95891C28.0401 9.50891 29.3176 9.98391 30.4951 10.6189C31.1326 10.9639 32.0976 11.5414 31.9376 12.4889C31.8301 13.1414 31.1301 13.4164 30.5951 13.6564C29.7876 14.0164 28.9776 14.3714 28.1726 14.7339C27.8626 14.8739 27.5526 15.0139 27.2426 15.1564C25.9951 15.7239 24.7501 16.2939 23.5001 16.8539C23.0001 17.0789 22.5001 17.3014 22.0001 17.5214C20.8251 18.0389 19.6726 18.6739 18.4776 19.1389C17.6226 19.4689 16.7826 19.6189 15.9526 19.6189C14.6951 19.6189 13.4576 19.2714 12.2151 18.6789C9.61506 17.4439 6.99006 16.2864 4.35256 15.1414C3.67506 14.8439 2.99506 14.5514 2.31756 14.2589C1.40506 13.8639 -0.397436 13.2039 0.147564 11.8714Z" fill="#006CA2"/>
</g>
<path id="Vector_4" d="M31.4405 26.3022C31.4405 26.3022 31.4205 26.8972 31.5305 27.6697C31.5305 27.6697 29.5955 28.0422 28.168 26.8297C28.168 26.8297 28.1855 26.2847 28.268 26.0547L31.4405 26.3022Z" fill="#ED6C30"/>
<path id="Vector_5" d="M31.4371 25.9155C31.4321 25.748 31.4171 25.5755 31.3946 25.408C31.3346 24.9755 31.1821 24.6055 30.8746 24.293C30.7846 24.203 30.6871 24.148 30.5896 24.108V13.8555H29.2971V15.143C29.2921 15.278 29.2946 15.408 29.2971 15.5305V16.7455H29.3046C29.3046 16.8755 29.3046 17.0055 29.3071 17.1355C29.3171 18.238 29.2971 19.338 29.2846 20.4405C29.2796 20.6655 29.2771 20.893 29.2771 21.1205V24.083C29.0796 24.1555 28.9096 24.2855 28.7721 24.5055C28.6096 24.7705 28.5121 25.073 28.4271 25.3705C28.3846 25.518 28.2646 26.053 28.2646 26.053C28.2646 26.053 28.2421 26.2555 28.4471 26.3505C28.7396 26.4855 29.4221 26.7055 30.6246 26.5855C30.7821 26.5705 30.9396 26.538 31.0896 26.4905C31.2046 26.4555 31.3846 26.418 31.4396 26.3005C31.4771 26.223 31.4396 25.9905 31.4371 25.9155ZM27.5896 29.043C27.7671 28.6755 27.8896 28.283 27.9821 27.888C28.0296 27.6905 28.1671 26.8305 28.1671 26.8305C28.1671 26.8305 28.5896 27.203 29.8246 27.278C30.8396 27.3405 31.4696 27.143 31.4696 27.143C31.4696 27.143 31.6546 27.928 31.6646 28.9305C31.6721 29.543 31.5846 30.133 31.3521 30.698C31.2796 30.8755 31.1971 31.063 31.0521 31.193C30.9421 31.2955 30.6946 31.3455 30.5596 31.2555C30.4671 31.1905 30.5096 31.123 30.4921 31.033C30.4546 30.813 30.2871 31.038 30.2246 31.1205C30.1171 31.2655 30.0921 31.383 29.9046 31.4405C29.6321 31.5205 29.1646 31.6005 28.9971 31.2955C28.9371 31.188 29.0271 31.1055 28.8721 31.103C28.7971 31.103 28.6996 31.2355 28.6496 31.283C28.5471 31.3805 28.4346 31.408 28.2946 31.393C28.0671 31.3755 27.7371 31.258 27.6846 31.003C27.6621 30.9155 27.8046 30.7255 27.6196 30.7355C27.4446 30.743 27.3521 30.958 27.1396 30.9405C26.9571 30.928 26.8196 30.7955 26.7621 30.6255C26.6621 30.3205 26.9121 29.978 27.1021 29.7605C27.2996 29.533 27.4596 29.313 27.5896 29.043Z" fill="#F79329"/>
<path id="Vector_6" d="M30.0327 14.3995C29.9927 14.3995 29.9527 14.3945 29.9127 14.387L15.7427 11.3045C15.4377 11.237 15.2427 10.937 15.3102 10.6295C15.3777 10.3245 15.6777 10.1295 15.9852 10.197L30.1552 13.2795C30.4602 13.347 30.6552 13.647 30.5877 13.9545C30.5592 14.0805 30.4888 14.1931 30.388 14.2739C30.2872 14.3548 30.1619 14.399 30.0327 14.3995Z" fill="#F79329"/>
</g>
</svg>
