<svg width="61" height="60" viewBox="0 0 61 60" fill="none" xmlns="http://www.w3.org/2000/svg">
<g id="g1971">
<g id="g1973">
<g id="Clip path group">
<mask id="mask0_1781_9171" style="mask-type:luminance" maskUnits="userSpaceOnUse" x="0" y="0" width="61" height="60">
<g id="clipPath1979">
<path id="path1977" d="M0.333008 7.62939e-06H60.333V60H0.333008V7.62939e-06Z" fill="white"/>
</g>
</mask>
<g mask="url(#mask0_1781_9171)">
<g id="g1975">
<g id="g1981">
<path id="path1983" d="M55.3525 54.9609H5.31348C3.04824 54.9609 1.21191 53.1246 1.21191 50.8594V16.1719C1.21191 14.8774 2.26121 13.8281 3.55566 13.8281H57.1103C58.4048 13.8281 59.4541 14.8774 59.4541 16.1719V50.8594C59.4541 53.1246 57.6178 54.9609 55.3525 54.9609Z" fill="#D6F0F4"/>
</g>
<g id="g1989">
<path id="path1991" d="M54.7666 51.4453H31.5635C30.9162 51.4453 30.3916 50.9207 30.3916 50.2734V11.4844C30.3916 10.8371 30.9162 10.3125 31.5635 10.3125H54.7666C55.4138 10.3125 55.9385 10.8371 55.9385 11.4844V50.2734C55.9385 50.9207 55.4138 51.4453 54.7666 51.4453Z" fill="white"/>
</g>
<g id="g1997">
<path id="path1999" d="M29.2197 51.4453H5.89941C5.25219 51.4453 4.72754 50.9207 4.72754 50.2734V11.4844C4.72754 10.8371 5.25219 10.3125 5.89941 10.3125H29.2197C29.867 10.3125 30.3916 10.8371 30.3916 11.4844V50.2734C30.3916 50.9207 29.867 51.4453 29.2197 51.4453Z" fill="white"/>
</g>
<g id="g2001">
<path id="path2003" d="M47.7939 22.2656H12.8721C11.5776 22.2656 10.5283 21.2163 10.5283 19.9219V7.38281C10.5283 6.08836 11.5776 5.03906 12.8721 5.03906H47.7939C49.0884 5.03906 50.1377 6.08836 50.1377 7.38281V19.9219C50.1377 21.2163 49.0884 22.2656 47.7939 22.2656Z" fill="#33B2C7"/>
</g>
<g id="g2009">
<path id="path2011" d="M51.8369 35.625H34.4932C34.1696 35.625 33.9072 35.3626 33.9072 35.0391V26.3672C33.9072 26.0436 34.1696 25.7812 34.4932 25.7812H51.8369C52.1605 25.7812 52.4229 26.0436 52.4229 26.3672V35.0391C52.4229 35.3626 52.1605 35.625 51.8369 35.625Z" fill="#84D1DD"/>
</g>
<g id="g2013">
<path id="path2015" d="M26.1728 35.625H8.8291C8.50555 35.625 8.24316 35.3626 8.24316 35.0391V26.3672C8.24316 26.0436 8.50555 25.7812 8.8291 25.7812H26.1728C26.4964 25.7812 26.7588 26.0436 26.7588 26.3672V35.0391C26.7588 35.3626 26.4964 35.625 26.1728 35.625Z" fill="#84D1DD"/>
</g>
<g id="g2017">
<path id="path2019 (Stroke)" fill-rule="evenodd" clip-rule="evenodd" d="M9.77832 19.9219C9.77832 21.6305 11.1634 23.0156 12.8721 23.0156H22.6837C23.0979 23.0156 23.4337 22.6798 23.4337 22.2656C23.4337 21.8514 23.0979 21.5156 22.6837 21.5156H12.8721C11.9918 21.5156 11.2783 20.8021 11.2783 19.9219V7.38281C11.2783 6.50257 11.9918 5.78906 12.8721 5.78906H47.7939C48.6742 5.78906 49.3877 6.50257 49.3877 7.38281V19.9219C49.3877 20.8021 48.6742 21.5156 47.7939 21.5156H26.7853C26.3711 21.5156 26.0353 21.8514 26.0353 22.2656C26.0353 22.6798 26.3711 23.0156 26.7853 23.0156H47.7939C49.5026 23.0156 50.8877 21.6305 50.8877 19.9219V7.38281C50.8877 5.67414 49.5026 4.28906 47.7939 4.28906H12.8721C11.1634 4.28906 9.77832 5.67414 9.77832 7.38281V19.9219Z" fill="#294563"/>
</g>
<g id="g2021">
<path id="path2023 (Stroke)" fill-rule="evenodd" clip-rule="evenodd" d="M0.461914 50.8594C0.461914 53.5388 2.63403 55.7109 5.31348 55.7109H55.3525C58.032 55.7109 60.2041 53.5388 60.2041 50.8594V47.9625C60.2041 47.5483 59.8683 47.2125 59.4541 47.2125C59.0399 47.2125 58.7041 47.5483 58.7041 47.9625V50.8594C58.7041 52.7104 57.2036 54.2109 55.3525 54.2109H5.31348C3.46246 54.2109 1.96191 52.7104 1.96191 50.8594V16.1719C1.96191 15.2916 2.67542 14.5781 3.55566 14.5781H4.43902C4.85324 14.5781 5.18902 14.2423 5.18902 13.8281C5.18902 13.4139 4.85324 13.0781 4.43902 13.0781H3.55566C1.847 13.0781 0.461914 14.4632 0.461914 16.1719V50.8594Z" fill="#294563"/>
</g>
<g id="g2025">
<path id="path2027 (Stroke)" fill-rule="evenodd" clip-rule="evenodd" d="M59.4543 44.6094C59.8685 44.6094 60.2043 44.2736 60.2043 43.8594V16.1703C60.2043 14.4617 58.8193 13.0766 57.1106 13.0766H56.1406C55.7264 13.0766 55.3906 13.4124 55.3906 13.8266C55.3906 14.2408 55.7264 14.5766 56.1406 14.5766H57.1106C57.9908 14.5766 58.7043 15.2901 58.7043 16.1703V43.8594C58.7043 44.2736 59.0401 44.6094 59.4543 44.6094Z" fill="#294563"/>
</g>
<g id="g2029">
<path id="path2031 (Stroke)" fill-rule="evenodd" clip-rule="evenodd" d="M29.6416 50.2734C29.6416 51.3349 30.502 52.1953 31.5635 52.1953H54.7666C55.828 52.1953 56.6885 51.3349 56.6885 50.2734V11.4844C56.6885 10.4229 55.828 9.5625 54.7666 9.5625H50.3333C49.9191 9.5625 49.5833 9.89828 49.5833 10.3125C49.5833 10.7267 49.9191 11.0625 50.3333 11.0625H54.7666C54.9996 11.0625 55.1885 11.2514 55.1885 11.4844V50.2734C55.1885 50.5065 54.9996 50.6953 54.7666 50.6953H31.5635C31.3305 50.6953 31.1416 50.5065 31.1416 50.2734C31.1416 49.8592 30.8058 49.5234 30.3916 49.5234C29.9774 49.5234 29.6416 49.8592 29.6416 50.2734Z" fill="#294563"/>
</g>
<g id="g2033">
<path id="path2035 (Stroke)" fill-rule="evenodd" clip-rule="evenodd" d="M3.97754 50.2734C3.97754 51.3349 4.83797 52.1953 5.89941 52.1953H29.2197C30.2812 52.1953 31.1416 51.3349 31.1416 50.2734V22.4127C31.1416 21.9985 30.8058 21.6627 30.3916 21.6627C29.9774 21.6627 29.6416 21.9985 29.6416 22.4127V50.2734C29.6416 50.5065 29.4527 50.6953 29.2197 50.6953H5.89941C5.6664 50.6953 5.47754 50.5065 5.47754 50.2734V11.4844C5.47754 11.2514 5.6664 11.0625 5.89941 11.0625H10.2611C10.6753 11.0625 11.0111 10.7267 11.0111 10.3125C11.0111 9.89828 10.6753 9.5625 10.2611 9.5625H5.89941C4.83797 9.5625 3.97754 10.4229 3.97754 11.4844V50.2734Z" fill="#294563"/>
</g>
<g id="g2037">
<path id="path2039 (Stroke)" fill-rule="evenodd" clip-rule="evenodd" d="M33.1572 35.0391C33.1572 35.7768 33.7554 36.375 34.4932 36.375H51.8369C52.5747 36.375 53.1729 35.7768 53.1729 35.0391V26.3672C53.1729 25.6294 52.5747 25.0312 51.8369 25.0312H34.4932C33.7554 25.0312 33.1572 25.6294 33.1572 26.3672V35.0391ZM34.6572 34.875V26.5312H51.6729V34.875H34.6572Z" fill="#294563"/>
</g>
<g id="g2041">
<path id="path2043 (Stroke)" fill-rule="evenodd" clip-rule="evenodd" d="M34.915 46.1719C34.915 46.5861 35.2508 46.9219 35.665 46.9219H45.9775C46.3918 46.9219 46.7275 46.5861 46.7275 46.1719C46.7275 45.7577 46.3918 45.4219 45.9775 45.4219H35.665C35.2508 45.4219 34.915 45.7577 34.915 46.1719Z" fill="#294563"/>
</g>
<g id="g2045">
<path id="path2047 (Stroke)" fill-rule="evenodd" clip-rule="evenodd" d="M34.915 42.6562C34.915 43.0705 35.2508 43.4062 35.665 43.4062H50.665C51.0793 43.4062 51.415 43.0705 51.415 42.6562C51.415 42.242 51.0793 41.9062 50.665 41.9062H35.665C35.2508 41.9062 34.915 42.242 34.915 42.6562Z" fill="#294563"/>
</g>
<g id="g2049">
<path id="path2051 (Stroke)" fill-rule="evenodd" clip-rule="evenodd" d="M34.915 39.1406C34.915 39.5548 35.2508 39.8906 35.665 39.8906H50.665C51.0793 39.8906 51.415 39.5548 51.415 39.1406C51.415 38.7264 51.0793 38.3906 50.665 38.3906H35.665C35.2508 38.3906 34.915 38.7264 34.915 39.1406Z" fill="#294563"/>
</g>
<g id="g2053">
<path id="path2055 (Stroke)" fill-rule="evenodd" clip-rule="evenodd" d="M7.49316 35.0391C7.49316 35.7768 8.09133 36.375 8.8291 36.375H26.1728C26.9106 36.375 27.5088 35.7768 27.5088 35.0391V26.3672C27.5088 25.6294 26.9106 25.0312 26.1728 25.0312H8.8291C8.09133 25.0312 7.49316 25.6294 7.49316 26.3672V35.0391ZM8.99316 34.875V26.5312H26.0088V34.875H8.99316Z" fill="#294563"/>
</g>
<g id="g2057">
<path id="path2059 (Stroke)" fill-rule="evenodd" clip-rule="evenodd" d="M9.25098 46.1719C9.25098 46.5861 9.58676 46.9219 10.001 46.9219H20.3135C20.7277 46.9219 21.0635 46.5861 21.0635 46.1719C21.0635 45.7577 20.7277 45.4219 20.3135 45.4219H10.001C9.58676 45.4219 9.25098 45.7577 9.25098 46.1719Z" fill="#294563"/>
</g>
<g id="g2061">
<path id="path2063 (Stroke)" fill-rule="evenodd" clip-rule="evenodd" d="M9.25098 42.6562C9.25098 43.0705 9.58676 43.4062 10.001 43.4062H25.001C25.4152 43.4062 25.751 43.0705 25.751 42.6562C25.751 42.242 25.4152 41.9062 25.001 41.9062H10.001C9.58676 41.9062 9.25098 42.242 9.25098 42.6562Z" fill="#294563"/>
</g>
<g id="g2065">
<path id="path2067 (Stroke)" fill-rule="evenodd" clip-rule="evenodd" d="M9.25098 39.1406C9.25098 39.5548 9.58676 39.8906 10.001 39.8906H25.001C25.4152 39.8906 25.751 39.5548 25.751 39.1406C25.751 38.7264 25.4152 38.3906 25.001 38.3906H10.001C9.58676 38.3906 9.25098 38.7264 9.25098 39.1406Z" fill="#294563"/>
</g>
</g>
</g>
</g>
</g>
</g>
</svg>
