<svg width="61" height="60" viewBox="0 0 61 60" fill="none" xmlns="http://www.w3.org/2000/svg">
<g clip-path="url(#clip0_1679_9436)">
<path d="M43.8071 20.3906C42.5211 20.3906 41.24 19.8704 40.3051 18.8454C37.7951 16.0936 34.2212 14.5153 30.4996 14.5153C26.7782 14.5153 23.2042 16.0935 20.6942 18.8454C19.0639 20.6326 16.3792 20.8853 14.4555 19.5199C14.2985 19.4085 14.1849 16.646 14.0389 16.5129C12.1055 14.7495 11.9294 14.3926 13.6928 12.4593C15.802 10.147 18.3131 8.32441 21.1565 7.0418C24.1031 5.71289 27.2465 5.03906 30.4996 5.03906C33.7526 5.03906 36.8962 5.71289 39.8428 7.04191C42.6863 8.32441 45.1974 10.1471 47.3065 12.4595C49.07 14.3927 47.8994 14.6303 45.966 16.3938C45.8459 16.5034 46.7546 19.3649 46.6269 19.4598C45.788 20.0827 44.7962 20.3906 43.8071 20.3906Z" fill="white"/>
<path d="M52.8242 36.2695C51.8534 36.2695 52.2296 35.0374 52.2296 34.0666L51.0664 30.791V28.6523C51.0664 17.3443 41.8666 8.14453 30.5586 8.14453C19.2506 8.14453 10.0508 17.3443 10.0508 28.6523V30.784L9.02481 33.8086C9.02481 34.7794 9.26375 36.2695 8.29297 36.2695C7.32219 36.2695 8.0075 34.7794 8.0075 33.8086L6.53516 31.5738V28.6523C6.53516 15.4058 17.312 4.62891 30.5586 4.62891C43.8052 4.62891 54.582 15.4058 54.582 28.6523V31.6219L53.3067 34.0666C53.3067 35.0374 53.795 36.2695 52.8242 36.2695Z" fill="#D6F0F4"/>
<path d="M10.7539 32.7539C5.57621 32.7539 1.37891 36.9512 1.37891 42.1289V43.1836C1.37891 48.3613 6.65961 51.5332 11.8373 51.5332L15.4414 51.0015V33.75L11.1875 32.7539H10.7539Z" fill="#33B2C7"/>
<path d="M50.2465 32.7539C55.4242 32.7539 59.6215 36.9512 59.6215 42.1289L59.4707 43.282C59.4707 45.9995 57.9071 47.823 56.0598 49.5354C54.3875 51.0857 51.788 51.8692 49.3278 51.8692L45.5811 51.3892L45.887 35.0839L49.8129 32.7539H50.2465Z" fill="#33B2C7"/>
<path d="M16.1445 30.1172C14.5912 30.1172 13.332 31.3764 13.332 32.9297V51.3127L14.0513 52.4414C14.0513 53.9947 16.1445 54.7316 16.1445 54.7316C17.6979 54.7316 18.957 53.9361 18.957 52.3828V51.0613V32.9297C18.957 31.3764 17.6979 30.1172 16.1445 30.1172Z" fill="white"/>
<path d="M44.8555 30.1172C43.3021 30.1172 42.043 31.3764 42.043 32.9297V51.3127L42.7623 52.4414C42.7623 53.9947 44.8555 54.7316 44.8555 54.7316C46.4088 54.7316 47.668 53.9361 47.668 52.3828V51.0613V32.9297C47.668 31.3764 46.4088 30.1172 44.8555 30.1172Z" fill="white"/>
<path d="M55.4609 33.5354V28.6523C55.4609 14.9211 44.2898 3.75 30.5586 3.75C24.5123 3.75 18.6782 5.9523 14.1311 9.95133C13.7667 10.2718 13.7311 10.8272 14.0516 11.1918C14.372 11.5561 14.9273 11.5918 15.292 11.2713C19.5181 7.55461 24.9399 5.50781 30.5586 5.50781C43.3205 5.50781 53.7031 15.8904 53.7031 28.6523V32.6384C53.139 32.4131 52.5514 32.2345 51.9453 32.1067V28.6523C51.9948 17.0679 42.4391 7.24184 30.5586 7.26562C18.7074 7.25789 9.1373 16.9937 9.17188 28.6523V32.0828C8.56625 32.2034 7.97879 32.375 7.41406 32.5928V28.6523C7.41406 23.3952 9.23246 18.2447 12.5341 14.1497C12.8388 13.7718 12.7795 13.2185 12.4016 12.9138C12.0236 12.6091 11.4703 12.6686 11.1657 13.0464C7.61293 17.4529 5.65625 22.9952 5.65625 28.6523V33.4623C2.56578 35.36 0.5 38.7712 0.5 42.6562C0.5 48.6011 5.33645 53.4375 11.2812 53.4375H12.6075C13.0625 54.9606 14.4755 56.0742 16.1445 56.0742C18.18 56.0742 19.8359 54.4182 19.8359 52.3828V32.9297C19.8359 30.8943 18.18 29.2383 16.1445 29.2383C14.4755 29.2383 13.0625 30.3519 12.6075 31.875C11.8475 31.8793 11.7103 31.8657 10.9297 31.8813V28.6523C10.9297 25.375 11.7382 22.2834 13.1645 19.5646C15.3078 21.8196 19.1752 21.8471 21.3438 19.4378C23.6877 16.8681 27.0249 15.3943 30.4999 15.3943C31.4114 15.3943 32.3259 15.4965 33.218 15.698C33.6916 15.8044 34.162 15.5077 34.269 15.0342C34.3759 14.5607 34.0787 14.0902 33.6052 13.9833C32.5862 13.7531 31.5413 13.6365 30.4998 13.6365C26.5318 13.6365 22.7212 15.3192 20.045 18.2531C18.4573 19.9719 15.581 19.9419 14.1042 17.9618C17.6094 12.5852 23.6754 9.02344 30.5584 9.02344C37.405 9.02344 43.443 12.5477 46.9565 17.8767C46.3627 18.7725 45.058 19.5314 43.8071 19.5117C42.7237 19.5117 41.684 19.0529 40.9544 18.2531C40.0007 17.2076 38.8966 16.3126 37.6726 15.5931C37.2542 15.3473 36.7155 15.487 36.4694 15.9054C36.2234 16.3239 36.3632 16.8625 36.7817 17.1086C37.8539 17.7387 38.8208 18.5224 39.6556 19.4377C40.7175 20.6018 42.2306 21.2694 43.807 21.2694C45.2707 21.268 46.8474 20.6374 47.9108 19.4858C49.3633 22.2238 50.1875 25.3433 50.1875 28.6523V31.8858C50.0247 31.8702 48.6141 31.8757 48.3925 31.875C47.9375 30.3519 46.5245 29.2383 44.8555 29.2383C42.82 29.2383 41.1641 30.8943 41.1641 32.9297V52.3828C41.1641 54.4182 42.82 56.0742 44.8555 56.0742C46.5245 56.0742 47.9375 54.9606 48.3925 53.4375H49.7188C55.6636 53.4375 60.5 48.6011 60.5 42.6562C60.5 38.8207 58.4863 35.447 55.4609 33.5354ZM14.2109 32.9297C14.2109 31.8635 15.0784 30.9961 16.1445 30.9961C17.2107 30.9961 18.0781 31.8635 18.0781 32.9297V52.3828C18.0781 53.449 17.2107 54.3164 16.1445 54.3164C15.0784 54.3164 14.2109 53.449 14.2109 52.3828V32.9297ZM12.4531 33.6328V51.6797H11.2812C6.3057 51.6797 2.25781 47.6318 2.25781 42.6562C2.25781 37.6807 6.3057 33.6328 11.2812 33.6328H12.4531ZM49.7188 51.6797H48.5469V40.405C48.5469 39.9196 48.1534 39.5261 47.668 39.5261C47.1826 39.5261 46.7891 39.9196 46.7891 40.405V52.3828C46.7891 53.449 45.9216 54.3164 44.8555 54.3164C43.7893 54.3164 42.9219 53.449 42.9219 52.3828V32.9297C42.9219 31.8635 43.7893 30.9961 44.8555 30.9961C45.9216 30.9961 46.7891 31.8635 46.7891 32.9297V36.2508C46.7891 36.7362 47.1826 37.1297 47.668 37.1297C48.1534 37.1297 48.5469 36.7362 48.5469 36.2508V33.6328H49.7188C54.6943 33.6328 58.7422 37.6807 58.7422 42.6562C58.7422 47.6318 54.6943 51.6797 49.7188 51.6797Z" fill="#294563"/>
<path d="M30.5 30.9961C30.0146 30.9961 29.6211 31.3896 29.6211 31.875V53.4375C29.6211 53.9229 30.0146 54.3164 30.5 54.3164C30.9854 54.3164 31.3789 53.9229 31.3789 53.4375V31.875C31.3789 31.3896 30.9854 30.9961 30.5 30.9961Z" fill="#294563"/>
<path d="M39.1133 39.2578C38.6279 39.2578 38.2344 39.6513 38.2344 40.1367V45.293C38.2344 45.7784 38.6279 46.1719 39.1133 46.1719C39.5987 46.1719 39.9922 45.7784 39.9922 45.293V40.1367C39.9922 39.6513 39.5987 39.2578 39.1133 39.2578Z" fill="#294563"/>
<path d="M36.2422 36.5039C35.7568 36.5039 35.3633 36.8974 35.3633 37.3828V47.9297C35.3633 48.4151 35.7568 48.8086 36.2422 48.8086C36.7276 48.8086 37.1211 48.4151 37.1211 47.9297V37.3828C37.1211 36.8974 36.7276 36.5039 36.2422 36.5039Z" fill="#294563"/>
<path d="M33.3711 33.75C32.8857 33.75 32.4922 34.1435 32.4922 34.6289V50.7129C32.4922 51.1983 32.8857 51.5918 33.3711 51.5918C33.8565 51.5918 34.25 51.1983 34.25 50.7129V34.6289C34.25 34.1435 33.8565 33.75 33.3711 33.75Z" fill="#294563"/>
<path d="M27.6289 33.75C27.1435 33.75 26.75 34.1435 26.75 34.6289V42.544C26.75 43.0294 27.1435 43.4229 27.6289 43.4229C28.1143 43.4229 28.5078 43.0294 28.5078 42.544V34.6289C28.5078 34.1435 28.1143 33.75 27.6289 33.75Z" fill="#294563"/>
<path d="M27.6289 45.7695C27.1435 45.7695 26.75 46.163 26.75 46.6484V50.6541C26.75 51.1395 27.1435 51.533 27.6289 51.533C28.1143 51.533 28.5078 51.1395 28.5078 50.6541V46.6484C28.5078 46.163 28.1143 45.7695 27.6289 45.7695Z" fill="#294563"/>
<path d="M21.8867 39.2578C21.4013 39.2578 21.0078 39.6513 21.0078 40.1367V45.293C21.0078 45.7784 21.4013 46.1719 21.8867 46.1719C22.3721 46.1719 22.7656 45.7784 22.7656 45.293V40.1367C22.7656 39.6513 22.3721 39.2578 21.8867 39.2578Z" fill="#294563"/>
<path d="M24.7578 36.5039C24.2724 36.5039 23.8789 36.8974 23.8789 37.3828V47.9297C23.8789 48.4151 24.2724 48.8086 24.7578 48.8086C25.2432 48.8086 25.6367 48.4151 25.6367 47.9297V37.3828C25.6367 36.8974 25.2432 36.5039 24.7578 36.5039Z" fill="#294563"/>
</g>
<defs>
<clipPath id="clip0_1679_9436">
<rect width="60" height="60" fill="white" transform="translate(0.5)"/>
</clipPath>
</defs>
</svg>
