<svg width="39" height="39" viewBox="0 0 39 39" fill="none" xmlns="http://www.w3.org/2000/svg">
<g id="Frame 3284" filter="url(#filter0_d_1642_12974)">
<path id="Vector" d="M21.2873 6.79751C16.4191 5.79397 11.6592 8.92687 10.6556 13.7951C9.65208 18.6634 12.785 23.4233 17.6532 24.4268C22.5215 25.4304 27.2814 22.2975 28.285 17.4292C29.2885 12.5609 26.1556 7.80105 21.2873 6.79751Z" fill="white"/>
<path id="Vector_2" d="M21.2873 6.79751C16.4191 5.79397 11.6592 8.92687 10.6556 13.7951C9.65208 18.6634 12.785 23.4233 17.6532 24.4268C22.5215 25.4304 27.2814 22.2975 28.285 17.4292C29.2885 12.5609 26.1556 7.80105 21.2873 6.79751ZM20.3283 11.4497C18.0328 10.9765 15.781 12.4586 15.3078 14.7541C15.2243 15.1594 14.8271 15.4208 14.4218 15.3373C14.0166 15.2537 13.7552 14.8565 13.8387 14.4513C14.4788 11.346 17.5264 9.34058 20.6312 9.98058C21.0364 10.0641 21.2978 10.4613 21.2143 10.8666C21.1308 11.2718 20.7336 11.5332 20.3283 11.4497Z" fill="#337845"/>
</g>
<defs>
<filter id="filter0_d_1642_12974" x="-2.34277" y="-2.19922" width="43.626" height="43.625" filterUnits="userSpaceOnUse" color-interpolation-filters="sRGB">
<feFlood flood-opacity="0" result="BackgroundImageFix"/>
<feColorMatrix in="SourceAlpha" type="matrix" values="0 0 0 0 0 0 0 0 0 0 0 0 0 0 0 0 0 0 127 0" result="hardAlpha"/>
<feOffset dy="4"/>
<feGaussianBlur stdDeviation="5"/>
<feComposite in2="hardAlpha" operator="out"/>
<feColorMatrix type="matrix" values="0 0 0 0 0 0 0 0 0 0 0 0 0 0 0 0 0 0 0.2 0"/>
<feBlend mode="normal" in2="BackgroundImageFix" result="effect1_dropShadow_1642_12974"/>
<feBlend mode="normal" in="SourceGraphic" in2="effect1_dropShadow_1642_12974" result="shape"/>
</filter>
</defs>
</svg>
