<svg width="39" height="39" viewBox="0 0 39 39" fill="none" xmlns="http://www.w3.org/2000/svg">
<g id="Frame 3284" filter="url(#filter0_d_1642_12986)">
<path id="Vector" d="M17.928 6.88025C13.0058 7.57203 9.57641 12.123 10.2682 17.0452C10.96 21.9675 15.5109 25.3969 20.4332 24.7051C25.3554 24.0133 28.7848 19.4624 28.093 14.5401C27.4012 9.61786 22.8503 6.18848 17.928 6.88025Z" fill="white"/>
<path id="Vector_2" d="M17.928 6.88025C13.0058 7.57203 9.57641 12.123 10.2682 17.0452C10.96 21.9675 15.5109 25.3969 20.4332 24.7051C25.3554 24.0133 28.7848 19.4624 28.093 14.5401C27.4012 9.61786 22.8503 6.18848 17.928 6.88025ZM18.5891 11.584C16.2682 11.9102 14.6458 14.0632 14.972 16.3842C15.0295 16.7939 14.7434 17.1737 14.3336 17.2312C13.9239 17.2888 13.5441 17.0026 13.4866 16.5929C13.0453 13.4531 15.2412 10.5398 18.3804 10.0986C18.7901 10.041 19.1698 10.3272 19.2274 10.7369C19.285 11.1467 18.9988 11.5264 18.5891 11.584Z" fill="#FAA859"/>
</g>
<defs>
<filter id="filter0_d_1642_12986" x="-2.11426" y="-1.50391" width="42.5889" height="42.5898" filterUnits="userSpaceOnUse" color-interpolation-filters="sRGB">
<feFlood flood-opacity="0" result="BackgroundImageFix"/>
<feColorMatrix in="SourceAlpha" type="matrix" values="0 0 0 0 0 0 0 0 0 0 0 0 0 0 0 0 0 0 127 0" result="hardAlpha"/>
<feOffset dy="4"/>
<feGaussianBlur stdDeviation="5"/>
<feComposite in2="hardAlpha" operator="out"/>
<feColorMatrix type="matrix" values="0 0 0 0 0 0 0 0 0 0 0 0 0 0 0 0 0 0 0.2 0"/>
<feBlend mode="normal" in2="BackgroundImageFix" result="effect1_dropShadow_1642_12986"/>
<feBlend mode="normal" in="SourceGraphic" in2="effect1_dropShadow_1642_12986" result="shape"/>
</filter>
</defs>
</svg>
