<svg width="39" height="39" viewBox="0 0 39 39" fill="none" xmlns="http://www.w3.org/2000/svg">
<g id="Frame 3284" filter="url(#filter0_d_1642_12962)">
<path id="Vector" d="M21.0276 6.79751C16.1593 5.79397 11.3994 8.92687 10.3959 13.7951C9.39231 18.6634 12.5252 23.4233 17.3935 24.4268C22.2617 25.4304 27.0216 22.2975 28.0252 17.4292C29.0287 12.5609 25.8958 7.80105 21.0276 6.79751Z" fill="white"/>
<path id="Vector_2" d="M21.0276 6.79751C16.1593 5.79397 11.3994 8.92687 10.3959 13.7951C9.39231 18.6634 12.5252 23.4233 17.3935 24.4268C22.2617 25.4304 27.0216 22.2975 28.0252 17.4292C29.0287 12.5609 25.8958 7.80105 21.0276 6.79751ZM20.0686 11.4497C17.7731 10.9765 15.5212 12.4586 15.048 14.7541C14.9645 15.1594 14.5673 15.4208 14.1621 15.3373C13.7568 15.2537 13.4954 14.8565 13.5789 14.4513C14.2191 11.346 17.2667 9.34058 20.3714 9.98058C20.7766 10.0641 21.0381 10.4613 20.9545 10.8666C20.871 11.2718 20.4738 11.5332 20.0686 11.4497Z" fill="#C86478"/>
</g>
<defs>
<filter id="filter0_d_1642_12962" x="-2.60254" y="-2.19922" width="43.626" height="43.625" filterUnits="userSpaceOnUse" color-interpolation-filters="sRGB">
<feFlood flood-opacity="0" result="BackgroundImageFix"/>
<feColorMatrix in="SourceAlpha" type="matrix" values="0 0 0 0 0 0 0 0 0 0 0 0 0 0 0 0 0 0 127 0" result="hardAlpha"/>
<feOffset dy="4"/>
<feGaussianBlur stdDeviation="5"/>
<feComposite in2="hardAlpha" operator="out"/>
<feColorMatrix type="matrix" values="0 0 0 0 0 0 0 0 0 0 0 0 0 0 0 0 0 0 0.2 0"/>
<feBlend mode="normal" in2="BackgroundImageFix" result="effect1_dropShadow_1642_12962"/>
<feBlend mode="normal" in="SourceGraphic" in2="effect1_dropShadow_1642_12962" result="shape"/>
</filter>
</defs>
</svg>
