<?xml version="1.0" encoding="utf-8"?>
<!-- Generator: Adobe Illustrator 27.0.0, SVG Export Plug-In . SVG Version: 6.00 Build 0)  -->
<svg version="1.1" id="Layer_1" xmlns="http://www.w3.org/2000/svg" xmlns:xlink="http://www.w3.org/1999/xlink" x="0px" y="0px"
	 width="47.8px" height="60px" viewBox="0 0 47.8 60" style="enable-background:new 0 0 47.8 60;" xml:space="preserve">
<style type="text/css">
	.st0{fill:#337845;}
	.st1{fill:#FFFFFF;}
	.st2{fill:#294563;}
</style>
<g id="Group">
	<g id="Group_2">
		<g id="Group_3">
			<g id="Group_4">
				<g id="Group_5">
					<path id="Vector" class="st0" d="M5.4,39.6h0.3c0-1.2,1-2.2,2.2-2.2c0,0,0,0,0.1,0l0.1,0v-32H4.5C3.9,5.4,3.4,6,3.4,6.6v30.8
						C4.5,37.5,5.4,38.4,5.4,39.6z"/>
				</g>
				<g id="Group_6">
					<path id="Vector_2" class="st0" d="M24.4,52.1l0,0.1c-0.1,0.6-0.3,1.3-0.8,1.7l-2.9,2.9h20.5c0.6,0,1.2-0.5,1.2-1.2v-3.5H24.4z
						"/>
				</g>
			</g>
			<g id="Group_7">
				<path id="Vector_3" class="st1" d="M45.8,0.9H9.1c-0.6,0-1.2,0.5-1.2,1.2v35.3c1.2,0,2.2,1,2.2,2.2h0.2c0-1.2,1-2.2,2.2-2.2
					s2.2,1,2.2,2.2H15v-8.8c0-1.2,1-2.2,2.2-2.2c1.2,0,2.2,1,2.2,2.2v10.8h1.3c0.7,0,1.4,0.3,1.9,0.8l1,1c0.5,0.5,0.8,1.2,0.8,1.9
					V52c0,0.1,0,0.1,0,0.2h21.4c0.6,0,1.2-0.5,1.2-1.2v-49C46.9,1.4,46.4,0.9,45.8,0.9z"/>
			</g>
			<g id="Group_8">
				<path id="Vector_4" class="st1" d="M35.4,52.3h10.4c0.6,0,1.2-0.5,1.2-1.2V40.7H36.5c-0.6,0-1.2,0.5-1.2,1.2V52.3z"/>
			</g>
			<g id="Group_9">
				<g id="Group_10">
					<g id="Group_11">
						<path id="Vector_5" class="st1" d="M35.4,41.9v10.4l11.6-11.6H36.5C35.9,40.7,35.4,41.2,35.4,41.9z"/>
					</g>
				</g>
			</g>
		</g>
		<g id="Group_12">
			<g id="Group_13">
				<path id="Vector_6" class="st0" d="M17.6,11.9c1.5,0,2.8-1.2,2.8-2.8c0-1.5-1.2-2.8-2.8-2.8c-1.5,0-2.8,1.2-2.8,2.8
					C14.8,10.7,16,11.9,17.6,11.9z"/>
			</g>
		</g>
	</g>
	<g id="Group_14">
		<path id="Vector_7" class="st1" d="M23.7,43.3l-1-1c-0.5-0.5-1.3-0.8-2-0.8h-1.2V30.8c0-1.3-1-2.3-2.3-2.3c-1.3,0-2.3,1-2.3,2.3
			v8.8c0-1.3-1-2.3-2.3-2.3c-1.3,0-2.3,1-2.3,2.3c0-1.3-1-2.3-2.3-2.3c-1.3,0-2.3,1-2.3,2.3c0-1.3-1-2.3-2.3-2.3
			c-1.3,0-2.3,1-2.3,2.3v14.1c0,2.8,2,5,4.7,5.4h10.1c1.9,0,3.8-0.8,5.1-2.1l2.9-2.9c0.5-0.5,0.8-1.3,0.8-2v-6.7
			C24.5,44.6,24.2,43.8,23.7,43.3z"/>
	</g>
	<g id="Group_15">
		<path id="Vector_8" class="st2" d="M45.8,0H9.1C8,0,7,0.9,7,2.1v2.5H4.5c-1.1,0-2.1,0.9-2.1,2.1v29.9C1.1,36.8,0,38.1,0,39.6v5
			c0,0.5,0.4,0.9,0.9,0.9c0.5,0,0.9-0.4,0.9-0.9v-5c0-0.8,0.7-1.4,1.4-1.4c0.8,0,1.4,0.7,1.4,1.4c0,0.5,0.4,0.9,0.9,0.9
			s0.9-0.4,0.9-0.9c0-0.8,0.7-1.4,1.4-1.4c0.8,0,1.4,0.7,1.4,1.4c0,0.5,0.4,0.9,0.9,0.9c0.5,0,0.9-0.4,0.9-0.9
			c0-0.8,0.7-1.4,1.4-1.4s1.4,0.7,1.4,1.4c0,0.5,0.4,0.9,0.9,0.9s0.9-0.4,0.9-0.9v-8.8c0-0.8,0.6-1.4,1.4-1.4s1.4,0.7,1.4,1.4v16.6
			c0,0.5,0.4,0.9,0.9,0.9c0.5,0,0.9-0.4,0.9-0.9v-5h0.3c0.5,0,1,0.2,1.4,0.6l1,1c0.4,0.4,0.6,0.9,0.6,1.4V52c0,0.5-0.2,1-0.6,1.4
			l-2.9,2.9c-1.2,1.2-2.8,1.9-4.5,1.9h-10c-2.2-0.3-3.9-2.3-3.9-4.5v-5.1c0-0.5-0.4-0.9-0.9-0.9c-0.5,0-0.9,0.4-0.9,0.9v5.1
			c0,3.1,2.3,5.8,5.5,6.3c0,0,0.1,0,0.1,0h10.1c2.1,0,4.1-0.8,5.7-2.3h8.3c0.5,0,0.9-0.4,0.9-0.9c0-0.5-0.4-0.9-0.9-0.9h-6.6
			l1.3-1.3c0.4-0.4,0.8-1,0.9-1.5h16.3v2.5c0,0.2-0.1,0.3-0.3,0.3h-7.5c-0.5,0-0.9,0.4-0.9,0.9c0,0.5,0.4,0.9,0.9,0.9h7.5
			c1.1,0,2.1-0.9,2.1-2.1v-2.5h2.5c1.1,0,2.1-0.9,2.1-2.1v-49C47.8,0.9,46.9,0,45.8,0z M23.4,41.7c-0.7-0.7-1.6-1.1-2.6-1.1h-0.3V40
			h9.7c0.5,0,0.9-0.4,0.9-0.9s-0.4-0.9-0.9-0.9h-9.7v-2.9h14.8c0.5,0,0.9-0.4,0.9-0.9c0-0.5-0.4-0.9-0.9-0.9H20.4v-2.8
			c0,0,0,0,0-0.1h19.8c0.5,0,0.9-0.4,0.9-0.9c0-0.5-0.4-0.9-0.9-0.9H19.8c-0.6-0.8-1.5-1.4-2.6-1.4c-1.8,0-3.2,1.4-3.2,3.2v5.9
			c-0.4-0.2-0.9-0.3-1.4-0.3c-0.9,0-1.7,0.4-2.3,1c-0.4-0.4-0.9-0.7-1.4-0.9V15.9c0-0.5-0.4-0.9-0.9-0.9c-0.5,0-0.9,0.4-0.9,0.9
			v20.5c-0.6,0.2-1.1,0.5-1.5,0.9c-0.4-0.4-0.8-0.7-1.3-0.8V6.6c0-0.2,0.1-0.3,0.3-0.3H7v5.5c0,0.5,0.4,0.9,0.9,0.9
			c0.5,0,0.9-0.4,0.9-0.9V2.1c0-0.2,0.1-0.3,0.3-0.3h36.7c0.2,0,0.3,0.1,0.3,0.3v37.8h-9.5c-1.1,0-2.1,0.9-2.1,2.1v9.5h-9.1v-6.1
			c0-0.2,0-0.4-0.1-0.7h4.8c0.5,0,0.9-0.4,0.9-0.9c0-0.5-0.4-0.9-0.9-0.9h-5.6c0,0,0,0,0,0c-0.1-0.1-0.1-0.1-0.2-0.2L23.4,41.7z
			 M44.8,41.6l-8.6,8.6v-8.3c0-0.2,0.1-0.3,0.3-0.3H44.8z M45.8,51.4h-8.3l8.6-8.6v8.3C46.1,51.3,45.9,51.4,45.8,51.4z"/>
		<path id="Vector_9" class="st2" d="M23.4,11.9h9.5c0.5,0,0.9-0.4,0.9-0.9s-0.4-0.9-0.9-0.9h-9.5c-0.5,0-0.9,0.4-0.9,0.9
			S22.9,11.9,23.4,11.9z"/>
		<path id="Vector_10" class="st2" d="M23.4,8.1h9.5c0.5,0,0.9-0.4,0.9-0.9s-0.4-0.9-0.9-0.9h-9.5c-0.5,0-0.9,0.4-0.9,0.9
			S22.9,8.1,23.4,8.1z"/>
		<path id="Vector_11" class="st2" d="M14.8,16.8h25.4c0.5,0,0.9-0.4,0.9-0.9c0-0.5-0.4-0.9-0.9-0.9H14.8c-0.5,0-0.9,0.4-0.9,0.9
			C13.9,16.5,14.3,16.8,14.8,16.8z"/>
		<path id="Vector_12" class="st2" d="M41.1,20.6c0-0.5-0.4-0.9-0.9-0.9H14.8c-0.5,0-0.9,0.4-0.9,0.9c0,0.5,0.4,0.9,0.9,0.9h25.4
			C40.7,21.5,41.1,21.1,41.1,20.6z"/>
		<path id="Vector_13" class="st2" d="M17.9,24.4h-3.2c-0.5,0-0.9,0.4-0.9,0.9s0.4,0.9,0.9,0.9h3.2c0.5,0,0.9-0.4,0.9-0.9
			S18.4,24.4,17.9,24.4z"/>
		<path id="Vector_14" class="st2" d="M40.2,24.4H20.9c-0.5,0-0.9,0.4-0.9,0.9s0.4,0.9,0.9,0.9h19.3c0.5,0,0.9-0.4,0.9-0.9
			S40.7,24.4,40.2,24.4z"/>
		<path id="Vector_15" class="st2" d="M38.1,35.4h2.1c0.5,0,0.9-0.4,0.9-0.9c0-0.5-0.4-0.9-0.9-0.9h-2.1c-0.5,0-0.9,0.4-0.9,0.9
			C37.2,35,37.6,35.4,38.1,35.4z"/>
		<path id="Vector_16" class="st2" d="M17.6,12.8c2,0,3.7-1.6,3.7-3.7c0-2-1.6-3.7-3.7-3.7c-2,0-3.7,1.6-3.7,3.7
			C13.9,11.1,15.5,12.8,17.6,12.8z M17.6,7.2c1.1,0,1.9,0.9,1.9,1.9c0,1.1-0.9,1.9-1.9,1.9c-1.1,0-1.9-0.9-1.9-1.9
			C15.6,8.1,16.5,7.2,17.6,7.2z"/>
	</g>
</g>
</svg>
