<svg width="61" height="60" viewBox="0 0 61 60" fill="none" xmlns="http://www.w3.org/2000/svg">
<g id="Vocabulary">
<path id="Vector" d="M50.7088 51.0457H18.642C16.9816 51.0457 15.6357 49.6998 15.6357 48.0395V3.94762C15.6357 2.2873 16.9816 0.941406 18.642 0.941406H50.7088C52.3691 0.941406 53.715 2.2873 53.715 3.94762V48.0395C53.715 49.6998 52.3691 51.0457 50.7088 51.0457Z" fill="white"/>
<path id="Vector_2" d="M53.715 31.004H15.6357V3.94762C15.6357 2.2873 16.9816 0.941406 18.642 0.941406H50.7088C52.3691 0.941406 53.715 2.2873 53.715 3.94762V31.004Z" fill="#954B5A"/>
<path id="Vector_3" d="M46.6999 55.0536H14.6332C12.9729 55.0536 11.627 53.7077 11.627 52.0473V7.95543C11.627 6.29512 12.9729 4.94922 14.6332 4.94922H46.7C48.3603 4.94922 49.7062 6.29512 49.7062 7.95543V52.0473C49.7062 53.7075 48.3603 55.0536 46.6999 55.0536Z" fill="white"/>
<path id="Vector_4" d="M49.7063 35.0118H11.627V7.95543C11.627 6.29512 12.9729 4.94922 14.6332 4.94922H46.7C48.3603 4.94922 49.7062 6.29512 49.7062 7.95543L49.7063 35.0118Z" fill="#C86478"/>
<path id="Vector_5" d="M42.6922 59.0614H10.6254C8.96504 59.0614 7.61914 57.7155 7.61914 56.0552V11.9632C7.61914 10.3029 8.96504 8.95703 10.6254 8.95703H42.6922C44.3525 8.95703 45.6984 10.3029 45.6984 11.9632V56.0552C45.6984 57.7155 44.3525 59.0614 42.6922 59.0614Z" fill="white"/>
<path id="Vector_6" d="M45.6984 39.0196H7.61914V11.9632C7.61914 10.3029 8.96504 8.95703 10.6254 8.95703H42.6922C44.3525 8.95703 45.6984 10.3029 45.6984 11.9632V39.0196Z" fill="#DDA2AE"/>
<path id="Vector_7" d="M50.7088 0H18.642C16.4662 0 14.6962 1.77012 14.6962 3.9457V4.00828H14.6337C12.458 4.00828 10.688 5.7784 10.688 7.95398V8.01656H10.6254C8.44969 8.01656 6.67969 9.78668 6.67969 11.9623V56.0543C6.67969 58.23 8.4498 60 10.6254 60H42.6922C44.8679 60 46.6379 58.2299 46.6379 56.0543V55.9917H46.7005C48.8762 55.9917 50.6462 54.2216 50.6462 52.046V51.9834H50.7088C52.8845 51.9834 54.6545 50.2133 54.6545 48.0377V3.9457C54.6545 1.77012 52.8845 0 50.7088 0ZM16.5751 3.9457C16.5751 2.80605 17.5023 1.87887 18.642 1.87887H50.7088C51.8484 1.87887 52.7756 2.80605 52.7756 3.9457V30.0626H50.6462V7.9541C50.6462 5.7784 48.8761 4.0084 46.7005 4.0084H16.5751V3.9457ZM12.5668 7.9541C12.5668 6.81445 13.494 5.88727 14.6337 5.88727H46.7005C47.8402 5.88727 48.7673 6.81445 48.7673 7.9541V34.071H46.6379V11.9624C46.6379 9.78668 44.8678 8.01668 42.6922 8.01668H12.5668V7.9541ZM10.6253 9.89566H42.6921C43.8318 9.89566 44.7589 10.8229 44.7589 11.9625V38.0794H8.55844V11.9624C8.55844 10.8229 9.48562 9.89566 10.6253 9.89566ZM44.7589 56.0543C44.7589 57.1939 43.8318 58.1211 42.6921 58.1211H10.6253C9.48562 58.1211 8.55844 57.1939 8.55844 56.0543V39.9582H44.7588L44.7589 56.0543ZM48.7672 52.0459C48.7672 53.1855 47.84 54.1127 46.7004 54.1127H46.6378V35.9498H48.7672V52.0459ZM50.7088 50.1043H50.6462V31.9414H52.7756V48.0375C52.7756 49.1772 51.8484 50.1043 50.7088 50.1043Z" fill="#294563"/>
<path id="Vector_8" d="M12.3778 33.9096C12.8779 34.0484 13.3956 33.7556 13.5345 33.2558L14.7351 28.9334H25.5546L26.7552 33.2557C26.8708 33.6716 27.2485 33.9441 27.66 33.9441C27.7432 33.9441 27.8278 33.9329 27.912 33.9096C28.4119 33.7707 28.7046 33.2529 28.5658 32.753L23.9631 16.1832C23.6106 14.9139 22.4444 14.0273 21.1269 14.0273H19.1632C17.8458 14.0273 16.6795 14.9139 16.3269 16.1831L11.7239 32.753C11.5852 33.2529 11.8778 33.7707 12.3778 33.9096ZM18.1372 16.686C18.2647 16.227 18.6866 15.9062 19.1631 15.9062H21.1268C21.6033 15.9062 22.0252 16.2268 22.1526 16.686L25.0327 27.0545H15.2569L18.1372 16.686Z" fill="#294563"/>
<path id="Vector_9" d="M35.1764 33.9467C36.5779 33.9467 37.8571 33.4145 38.8235 32.5421C39.0573 33.352 39.8038 33.9467 40.6878 33.9467C41.2066 33.9467 41.6273 33.5261 41.6273 33.0072C41.6273 32.4884 41.2068 32.0677 40.6878 32.0677C40.6533 32.0677 40.6253 32.0397 40.6253 32.0051V28.4978V27.4957V22.9864C40.6253 22.4676 40.2047 22.0469 39.6858 22.0469C39.167 22.0469 38.7463 22.4675 38.7463 22.9864V23.3846C37.7893 22.5524 36.5411 22.0469 35.1764 22.0469C32.172 22.0469 29.7275 24.4912 29.7275 27.4957V28.4978C29.7275 31.5024 32.172 33.9467 35.1764 33.9467ZM31.6065 27.4957C31.6065 25.5272 33.208 23.9259 35.1764 23.9259C37.1449 23.9259 38.7463 25.5273 38.7463 27.4957V28.4978C38.7463 30.4663 37.1448 32.0677 35.1764 32.0677C33.2079 32.0677 31.6065 30.4662 31.6065 28.4978V27.4957Z" fill="#294563"/>
<path id="Vector_10" d="M39.6862 44.0938H13.6319C13.1131 44.0938 12.6924 44.5143 12.6924 45.0332C12.6924 45.552 13.113 45.9727 13.6319 45.9727H39.6862C40.205 45.9727 40.6257 45.5521 40.6257 45.0332C40.6257 44.5143 40.2051 44.0938 39.6862 44.0938Z" fill="#294563"/>
<path id="Vector_11" d="M29.6654 52.1094H13.6319C13.1131 52.1094 12.6924 52.53 12.6924 53.0489C12.6924 53.5677 13.113 53.9884 13.6319 53.9884H29.6652C30.184 53.9884 30.6047 53.5678 30.6047 53.0489C30.6048 52.53 30.1841 52.1094 29.6654 52.1094Z" fill="#294563"/>
<path id="Vector_12" d="M13.6319 49.9805H19.6441C20.1629 49.9805 20.5836 49.56 20.5836 49.0411C20.5836 48.5223 20.163 48.1016 19.6441 48.1016H13.6319C13.1131 48.1016 12.6924 48.5221 12.6924 49.0411C12.6925 49.5598 13.1131 49.9805 13.6319 49.9805Z" fill="#294563"/>
<path id="Vector_13" d="M39.6857 48.1016H23.6524C23.1336 48.1016 22.7129 48.5221 22.7129 49.0411C22.7129 49.5598 23.1335 49.9805 23.6524 49.9805H39.6857C40.2045 49.9805 40.6252 49.56 40.6252 49.0411C40.6252 48.5221 40.2046 48.1016 39.6857 48.1016Z" fill="#294563"/>
</g>
</svg>
