<svg width="65" height="65" viewBox="0 0 65 65" fill="none" xmlns="http://www.w3.org/2000/svg">
<g id="Group">
<path id="Vector" d="M49.9422 63.7143L41.1488 57.9906L32.3555 63.7143V42.9414H49.9422V63.7143Z" fill="white"/>
<path id="Vector_2" d="M63.7288 26.4987C63.7288 28.7645 60.2962 30.4601 59.6324 32.5047C58.9444 34.6237 60.7007 38.0085 59.417 39.7723C58.1206 41.5538 54.35 40.9228 52.5686 42.2193C50.8048 43.5029 50.247 47.2907 48.128 47.9787C46.0834 48.6426 43.4149 45.9277 41.1489 45.9277C38.8831 45.9277 36.2144 48.6426 34.17 47.9787C32.0509 47.2907 31.4932 43.5029 29.7294 42.2191C27.9479 40.9227 24.1774 41.5537 22.881 39.7722C21.5974 38.0084 23.3537 34.6236 22.6657 32.5046C22.0019 30.46 18.5693 28.7644 18.5693 26.4986C18.5693 24.2328 22.0019 22.5372 22.6657 20.4927C23.3537 18.3736 21.5974 14.9888 22.8811 13.225C24.1775 11.4435 27.9481 12.0745 29.7295 10.7781C31.4933 9.49447 32.0511 5.70658 34.1701 5.01861C36.2147 4.35475 38.8832 7.06967 41.1492 7.06967C43.415 7.06967 46.0837 4.35475 48.1281 5.01861C50.2472 5.70658 50.8049 9.49447 52.5687 10.7782C54.3502 12.0746 58.1207 11.4437 59.4171 13.2251C60.7007 14.9889 58.9444 18.3737 59.6325 20.4928C60.2962 22.5372 63.7288 24.2328 63.7288 26.4987Z" fill="#337845"/>
<path id="Vector_3" d="M41.1488 41.075C49.1993 41.075 55.7254 34.5489 55.7254 26.4984C55.7254 18.448 49.1993 11.9219 41.1488 11.9219C33.0984 11.9219 26.5723 18.448 26.5723 26.4984C26.5723 34.5489 33.0984 41.075 41.1488 41.075Z" fill="white"/>
<path id="Vector_4" d="M23.5005 32.4492H15.3327L6.25096 37.0277C3.40229 38.4638 1.60547 41.382 1.60547 44.5722V63.7129H37.2278V44.5722C37.2278 41.3821 35.431 38.4639 32.5823 37.0277L23.5005 32.4492Z" fill="white"/>
<path id="Vector_5" d="M15.333 23.8008H23.5008V37.0691H15.333V23.8008Z" fill="white"/>
<path id="Vector_6" d="M21.0216 40.8865H17.8118L16.6152 36.0977H22.2182L21.0216 40.8865Z" fill="#337845"/>
<path id="Vector_7" d="M15.3327 32.4492L19.4165 36.0949L16.6416 38.4684C16.2129 38.8352 15.5847 38.8478 15.1414 38.4987L10.5342 34.8684L15.3327 32.4492Z" fill="white"/>
<path id="Vector_8" d="M23.5009 32.4492L19.417 36.0949L22.1919 38.4684C22.6206 38.8352 23.2489 38.8478 23.6921 38.4987L28.2994 34.8685L23.5009 32.4492Z" fill="white"/>
<path id="Vector_9" d="M17.812 40.8867H21.0218L23.7762 63.7159H15.0576L17.812 40.8867Z" fill="#337845"/>
<path id="Vector_10" d="M25.6257 2.50094L24.7729 3.68003C24.1986 4.47388 23.0049 4.43926 22.4777 3.61353L21.8346 2.60644C21.4302 1.97321 20.7307 1.58997 19.9794 1.58997H11.1001C8.54771 1.58997 6.47852 3.65916 6.47852 6.21158V19.4008C6.47852 21.7748 8.40296 23.6991 10.7768 23.6991H11.6044H27.2962H28.0559C30.4298 23.6991 32.3541 21.7746 32.3541 19.4008V6.21146C32.3541 3.65903 30.2849 1.58984 27.7325 1.58984H27.4092C26.7029 1.58984 26.0396 1.92871 25.6257 2.50094Z" fill="#337845"/>
<path id="Vector_11" d="M19.4165 28.0251C14.5109 28.0251 10.5342 24.0483 10.5342 19.1427V11.8789C10.5342 11.6429 10.7438 11.4605 10.9773 11.4957C15.4583 12.1697 19.0234 11.5677 21.5242 9.48298C21.6837 9.34999 21.9183 9.36974 22.0577 9.52361C23.3588 10.9601 25.2682 11.6459 27.8837 11.4614C28.1079 11.4455 28.299 11.6224 28.299 11.8472V19.1427C28.2989 24.0483 24.3222 28.0251 19.4165 28.0251Z" fill="white"/>
<path id="Vector_12" d="M41.8772 21.1768L43.4264 23.5208C43.5427 23.6966 43.7187 23.8246 43.9219 23.8808L46.6298 24.6299C47.2331 24.7967 47.4699 25.5256 47.0799 26.0152L45.3295 28.2129C45.1981 28.3779 45.1309 28.5847 45.1402 28.7954L45.2646 31.6023C45.2924 32.2276 44.6724 32.678 44.0863 32.4584L41.4552 31.4727C41.2577 31.3987 41.0402 31.3987 40.8427 31.4727L38.2117 32.4584C37.6256 32.678 37.0056 32.2275 37.0334 31.6023L37.1577 28.7954C37.1671 28.5847 37.0999 28.3777 36.9685 28.2129L35.218 26.0152C34.828 25.5256 35.0649 24.7967 35.6681 24.6299L38.3761 23.8808C38.5793 23.8245 38.7553 23.6966 38.8715 23.5208L40.4208 21.1768C40.7659 20.6546 41.5321 20.6546 41.8772 21.1768Z" fill="#337845"/>
<g id="Group_2">
<path id="Vector_13" d="M62.242 30.602C63.3783 29.4564 64.6661 28.1579 64.6661 26.4983C64.6661 25.6939 64.3618 24.8931 63.7364 24.0503C63.4278 23.6345 62.8406 23.5477 62.4248 23.8563C62.009 24.165 61.9222 24.7521 62.2308 25.1679C62.6131 25.6829 62.7911 26.1056 62.7911 26.4983C62.7911 27.3859 61.8353 28.3497 60.9108 29.2816C60.0207 30.1792 59.1003 31.1072 58.7406 32.2148C58.3653 33.3708 58.5645 34.6975 58.7571 35.9806C58.9473 37.246 59.1436 38.5545 58.659 39.2203C58.1648 39.8996 56.8493 40.1167 55.5774 40.3267C54.3044 40.5369 52.9883 40.7542 52.0171 41.4609C51.0587 42.1585 50.4526 43.3342 49.8666 44.4713C49.271 45.6268 48.6552 46.8216 47.8385 47.0869C47.0804 47.3334 45.9113 46.7491 44.7812 46.1843C43.6061 45.5972 42.3909 44.9898 41.149 44.9898C40.1342 44.9898 39.1372 45.3954 38.1652 45.8641V44.5742C38.1652 43.553 38.0029 42.5606 37.6965 41.6269C38.8231 41.883 39.9782 42.0124 41.1492 42.0124C49.7037 42.0124 56.6631 35.0527 56.6631 26.4983C56.6631 17.944 49.7034 10.9843 41.1489 10.9843C38.3515 10.9843 35.6652 11.7174 33.2919 13.1171V6.98653C33.6944 6.38042 34.0669 6.03731 34.4595 5.90994C35.2172 5.66307 36.3864 6.2473 37.5169 6.81229C38.692 7.39952 39.9072 8.00675 41.149 8.00675C42.3909 8.00675 43.606 7.39964 44.7812 6.81229C45.9114 6.24755 47.0807 5.66307 47.8385 5.90994C48.6551 6.17505 49.2709 7.36989 49.8666 8.52536C50.4526 9.66245 51.0587 10.8382 52.0171 11.5358C52.9884 12.2425 54.3045 12.4599 55.5774 12.67C56.8494 12.88 58.1648 13.0971 58.659 13.7763C59.1436 14.4422 58.9473 15.7506 58.7571 17.016C58.5645 18.2992 58.3653 19.6259 58.7406 20.7819C58.9231 21.3436 59.2597 21.9012 59.8004 22.5367C59.9857 22.7547 60.2495 22.8668 60.515 22.8668C60.7297 22.8668 60.9455 22.7934 61.1218 22.6434C61.5162 22.308 61.5639 21.7164 61.2286 21.322C60.8572 20.8855 60.627 20.5194 60.5241 20.2029C60.2852 19.4673 60.451 18.3627 60.6113 17.2945C60.8575 15.6554 61.1119 13.9605 60.1751 12.6731C59.2286 11.3725 57.5276 11.0918 55.8827 10.8202C54.8254 10.6457 53.7322 10.4652 53.1202 10.0198C52.5215 9.58408 52.0188 8.60923 51.5331 7.66651C50.7995 6.2433 49.968 4.63022 48.4174 4.12674C46.9286 3.64325 45.4108 4.40173 43.9429 5.13521C42.9624 5.6252 41.9484 6.13193 41.1489 6.13193C40.3494 6.13193 39.3355 5.6252 38.3547 5.13521C36.8869 4.40173 35.3686 3.64375 33.8804 4.12674C33.5666 4.22861 33.2865 4.37473 33.0365 4.54685C32.3268 2.29329 30.2176 0.654341 27.7327 0.654341C27.6337 0.675341 25.96 0.441348 24.8663 1.95318L24.0134 3.13227C23.8917 3.30051 23.72 3.32151 23.635 3.31876C23.5459 3.31614 23.3797 3.28564 23.2679 3.11077L22.6248 2.10355C22.0452 1.19595 21.0564 0.654091 19.9795 0.654091H11.1004C8.03525 0.654091 5.54133 3.14789 5.54133 6.21318V13.9602C5.54133 14.4781 5.96094 14.8977 6.4788 14.8977C6.99666 14.8977 7.41627 14.4781 7.41627 13.9602V6.21318C7.41627 4.18174 9.06897 2.52904 11.1004 2.52904H19.9797C20.4133 2.52904 20.8114 2.74716 21.0447 3.11252L21.6879 4.11974C22.1027 4.76947 22.8103 5.17058 23.5809 5.19296C24.3549 5.21608 25.0811 4.85559 25.5329 4.23111L26.3856 3.05215C26.8675 2.38604 27.5962 2.55316 27.7329 2.52904C29.7644 2.52904 31.4171 4.18174 31.4171 6.21318V19.4024C31.4171 21.0845 30.1751 22.4817 28.56 22.7256C28.9966 21.6151 29.2365 20.4066 29.2365 19.143V11.8474C29.2365 11.4814 29.0829 11.1285 28.8151 10.879C28.5469 10.6291 28.1818 10.5006 27.8178 10.5266C25.5487 10.6864 23.8924 10.1527 22.7528 8.89448C22.2733 8.36524 21.4701 8.30762 20.924 8.7631C18.7118 10.6073 15.4123 11.2143 11.1165 10.5687C10.736 10.5113 10.3496 10.623 10.0574 10.8745C9.7647 11.1267 9.59683 11.4928 9.59683 11.879V19.1428C9.59683 20.4064 9.8367 21.6149 10.2733 22.7253C8.65836 22.4816 7.41627 21.0842 7.41627 19.4022V17.5848C7.41627 17.067 6.99666 16.6474 6.4788 16.6474C5.96094 16.6474 5.54133 17.067 5.54133 17.5848V19.4022C5.54133 22.2892 7.89001 24.638 10.777 24.638H11.282C12.0908 25.8314 13.1549 26.8381 14.3952 27.5792V31.8737C12.9219 32.6165 7.85463 35.1712 5.82894 36.1924C2.64554 37.7974 0.667969 41.009 0.667969 44.5741V63.7147C0.667969 64.2326 1.08758 64.6522 1.60544 64.6522H37.2276C37.7455 64.6522 38.1651 64.2326 38.1651 63.7147V61.0518L41.1489 59.1096L49.4308 64.5005C49.5858 64.6013 49.7638 64.6522 49.9423 64.6522C50.0958 64.6522 50.2494 64.6146 50.3891 64.5388C50.6915 64.3749 50.8797 64.0586 50.8797 63.7147V46.5425C51.1142 46.1425 51.3275 45.7289 51.5331 45.3302C52.019 44.3874 52.5215 43.4126 53.1202 42.9769C53.7322 42.5315 54.8254 42.351 55.8827 42.1765C57.5276 41.9049 59.2286 41.6241 60.1751 40.3236C61.1119 39.0362 60.8575 37.3414 60.6113 35.7022C60.451 34.634 60.2852 33.5294 60.5241 32.7938C60.7457 32.1107 61.5063 31.3437 62.242 30.602ZM33.2919 19.4024V15.3483C35.5979 13.719 38.308 12.8594 41.1489 12.8594C48.6694 12.8594 54.7879 18.9778 54.7879 26.4983C54.7879 34.019 48.6694 40.1374 41.1489 40.1374C39.5838 40.1374 38.0518 39.8752 36.5918 39.3578C35.7101 38.0382 34.4881 36.9409 33.004 36.1927L30.3805 34.87C28.5019 32.4588 27.5097 29.567 27.5097 26.4983C27.5097 25.8761 27.5519 25.2516 27.6354 24.6383H28.0559C30.9431 24.6381 33.2919 22.2893 33.2919 19.4024ZM15.1847 33.5755L17.992 36.0817L16.0323 37.7579C15.9439 37.8334 15.8133 37.8363 15.7217 37.7641L12.2706 35.0447L15.1847 33.5755ZM18.1585 38.4064L19.4165 37.3303L20.6746 38.4064L20.2894 39.9481H18.5437L18.1585 38.4064ZM20.8411 36.0816L23.6484 33.5755L26.5626 35.0447L23.1113 37.764C23.0199 37.8361 22.8892 37.8334 22.8009 37.7578L20.8411 36.0816ZM25.6366 26.7362C25.6705 29.0323 26.1942 31.2374 27.1733 33.2528L24.4379 31.8738V27.5793C24.8588 27.3278 25.2594 27.0458 25.6366 26.7362ZM11.4717 19.1429V12.5106C15.7814 13.0539 19.2242 12.3856 21.7221 10.5207C23.1174 11.8426 25.0121 12.4816 27.3614 12.4249V19.1429C27.3614 23.5238 23.7973 27.0878 19.4164 27.0878C15.0355 27.0878 11.4717 23.5238 11.4717 19.1429ZM19.4165 28.9628C20.5165 28.9628 21.5747 28.781 22.563 28.4459V32.0314L19.4165 34.8402L16.2701 32.0314V28.4459C17.2582 28.781 18.3166 28.9628 19.4165 28.9628ZM2.54291 44.5741C2.54291 41.7211 4.12549 39.151 6.67292 37.8668L10.4232 35.9761L14.5613 39.2367C14.9455 39.5396 15.4094 39.6901 15.8728 39.6901C16.092 39.6901 16.311 39.6562 16.5215 39.5891L16.8602 40.945L15.9211 48.7279C15.8591 49.2419 16.2256 49.709 16.7396 49.771C17.2551 49.8327 17.7206 49.4665 17.7827 48.9526L18.6429 41.8231H20.1904L22.7187 62.7773H16.1148L17.3455 52.5774C17.4075 52.0635 17.041 51.5964 16.527 51.5344C16.0136 51.475 15.546 51.8388 15.4839 52.3528L14.2262 62.7773H11.4717V49.0328C11.4717 48.5149 11.052 48.0953 10.5342 48.0953C10.0163 48.0953 9.59671 48.5149 9.59671 49.0328V62.7773H2.54291V44.5741ZM36.2902 62.7773H29.2364V49.0328C29.2364 48.5149 28.8168 48.0953 28.2989 48.0953C27.781 48.0953 27.3614 48.5149 27.3614 49.0328V62.7773H24.607L21.9728 40.9449L22.3117 39.589C22.5222 39.6562 22.7412 39.69 22.9604 39.69C23.4238 39.69 23.8877 39.5393 24.2718 39.2366L28.4099 35.9759L32.16 37.8666C34.7075 39.1508 36.2901 41.721 36.2901 44.5739L36.2902 62.7773ZM41.6604 57.2053C41.3494 57.0029 40.9485 57.0032 40.6374 57.2053L38.1651 58.8146V47.9562C38.2284 47.9247 38.2916 47.8931 38.355 47.8615C39.3356 47.3715 40.3496 46.8647 41.149 46.8647C41.9485 46.8647 42.9625 47.3715 43.9431 47.8615C45.0893 48.4343 46.266 49.0223 47.4355 49.0223C47.7636 49.0223 48.0912 48.9759 48.4174 48.8701C48.6257 48.8024 48.8211 48.7147 49.0048 48.6102V61.9859L41.6604 57.2053Z" fill="#294563"/>
<path id="Vector_14" d="M41.8093 52.3906H40.4883C39.9704 52.3906 39.5508 52.8103 39.5508 53.3281C39.5508 53.846 39.9704 54.2656 40.4883 54.2656H41.8093C42.3272 54.2656 42.7468 53.846 42.7468 53.3281C42.7468 52.8103 42.3272 52.3906 41.8093 52.3906Z" fill="#294563"/>
<path id="Vector_15" d="M36.2201 28.778L36.0969 31.5608C36.0698 32.1699 36.3482 32.7474 36.8414 33.1056C37.1558 33.3341 37.5278 33.452 37.9043 33.452C38.1183 33.452 38.3337 33.4139 38.5406 33.3364L41.1491 32.3592L43.7575 33.3364C44.3283 33.5503 44.9636 33.4639 45.4569 33.1056C45.95 32.7474 46.2285 32.1698 46.2013 31.5608L46.0781 28.778L47.8135 26.5992C48.1934 26.1225 48.3076 25.4916 48.1193 24.9118C47.9309 24.3319 47.4677 23.8887 46.8802 23.7263L44.1954 22.9837L42.6594 20.66C42.3234 20.1514 41.7587 19.8477 41.1491 19.8477C40.5395 19.8477 39.9748 20.1514 39.6388 20.6599L38.1029 22.9837L35.4181 23.7263C34.8305 23.8888 34.3673 24.332 34.1789 24.9118C33.9906 25.4915 34.1048 26.1225 34.4847 26.5992L36.2201 28.778ZM38.6257 24.7844C39.0472 24.6679 39.4123 24.4028 39.6538 24.0377L41.1492 21.7751L42.6446 24.0374C42.8858 24.4025 43.2509 24.6678 43.6723 24.7843L46.2863 25.5074L44.5969 27.6286C44.3243 27.9704 44.1848 28.3995 44.204 28.8369L44.324 31.5464L41.7843 30.595C41.5795 30.5183 41.3645 30.48 41.1492 30.48C40.934 30.48 40.719 30.5183 40.5141 30.595L37.9744 31.5463L38.0946 28.8366C38.1137 28.3998 37.9743 27.9708 37.7018 27.6288L36.0121 25.5074L38.6257 24.7844Z" fill="#294563"/>
</g>
</g>
</svg>
