<svg xmlns="http://www.w3.org/2000/svg" xmlns:xlink="http://www.w3.org/1999/xlink" width="66" height="184" viewBox="0 0 66 184">
    <defs>
        <path id="prefix__a" d="M0.647 0.014L23.665 0.014 23.665 1.703 0.647 1.703z"/>
        <path id="prefix__c" d="M0.559 0.006L11.708 0.006 11.708 1.703 0.559 1.703z"/>
        <path id="prefix__e" d="M.7 2.999s1.182 4.8 4.02 3.29c2.838-1.513.737-4.989.127-5.944C3.564 1.06.7 3 .7 3"/>
        <path id="prefix__h" d="M4.276.512C.883 1.987-.794 4.86 2.242 3.296 4.816 1.97 5.76.34 4.912.34c-.154 0-.364.055-.636.171"/>
        <linearGradient id="prefix__f" x1="37.288%" x2="79.152%" y1="24.314%" y2="89.7%">
            <stop offset="0%" stop-color="#C89169"/>
            <stop offset="100%" stop-color="#C89169"/>
        </linearGradient>
        <linearGradient id="prefix__i" x1="-4.233%" x2="104.151%" y1="66.454%" y2="33.636%">
            <stop offset="0%" stop-color="#502F26"/>
            <stop offset="100%" stop-color="#3B211C"/>
        </linearGradient>
    </defs>
    <g fill="none" fill-rule="evenodd">
        <g>
            <path fill="#284664" d="M23.835 82.751c-1.491 3.682-4.136 7.47-8.387 11.217 0 0-10.187 1.335-13.787-2.385-1.42-1.464-1.676-5.987-.657-11.635 1.567-8.697 6.168-20.065 14.233-27.046 0 0 15.062 13.933 8.598 29.85" transform="translate(.786) translate(8.603)"/>
            <path fill="#F29744" d="M23.835 82.751c-1.491 3.682-4.136 7.47-8.387 11.217 0 0-10.187 1.335-13.787-2.385-1.42-1.464-1.676-5.987-.657-11.635l22.831 2.803z" transform="translate(.786) translate(8.603)"/>
            <path fill="#E8C0A8" d="M44.44 105.422s1.312.519 1.879 1.347c.568.826 1.076 1.861 1.395 2.742.65 1.793.824 3.557.953 3.89.128.331-.3.88-.818.747-.518-.135-.96-1.969-1.08-2.37-.207-.685-.24-1.399-.489-1.133-.248.265-.187 1.77-.189 2.488-.002.719-.027 2.718-.223 3.963-.135.862-.464 1.475-.846 1.391-.383-.083-.574-.802-.534-1.338.042-.537.213-3.873.176-3.997-.07-.232-.296 4.96-.451 5.514-.154.554-1.275.916-1.363-.38-.091-1.297.152-5.194.13-5.259-.06-.158-.348 4.398-.436 4.912-.09.513-.863.903-1.11.087-.25-.818.097-5.26.07-5.402-.064-.32-.205.846-.27 1.722-.073.979-.188 1.961-.509 2.1-.522.222-.844-.37-.71-1.702.138-1.33.077-4.355.087-5.048.008-.693.515-2.496.662-2.955.003-.22.003-.313-.022-.553-.056-.511.193-.714.708-.877l1.653-.528c.563-.179 1.16.107 1.336.639" transform="translate(.786) translate(8.603)"/>
            <path fill="#D7D7D7" d="M46.164 104.844c.173-.957-.496-17.53-1.023-24.025-.747-9.16-1.934-16.925-3.525-22.489-1.898-6.632-5.511-7.759-6.916-7.587-3.915.475-1.18 4.012-1.762 8.955-.333 2.825 5.707 18.296 5.726 20.274.015 1.978 1.327 22.745 1.343 25 .1.62 6.063.386 6.157-.128" transform="translate(.786) translate(8.603)"/>
            <path fill="#2D2A25" d="M49.21 178.045s-4.995-2.429-5.877-4.192c0 0-2.768.004-3.547 2.783 0 0-3.786.664-5.702-1.587l-.462 7.218 22.72-.012c-.625-1.663-1.123-3.461-7.131-4.21" transform="translate(.786) translate(8.603)"/>
            <path fill="#2D2A25" d="M34.084 175.044c.387.455.821.818 1.314 1.027.554 1.468 1.613 4.198 3.267 6.193l-5.043.001.462-7.22z" transform="translate(.786) translate(8.603)"/>
            <g transform="translate(.786) translate(8.603) translate(32.856 182.226)">
                <mask id="prefix__b" fill="#fff">
                    <use xlink:href="#prefix__a"/>
                </mask>
                <path fill="#EFEDED" d="M.765.04L.647 1.704l22.956-.012c.027-.664.176-.998-.118-1.664L.765.04z" mask="url(#prefix__b)"/>
            </g>
            <path fill="#2D2A25" d="M22.148 181.097l-1.122-4.403s-1.052-3.021-4.296-3.021c-3.245 0-4.299 3.021-4.299 3.021l-.8 4.92 10.517-.517z" transform="translate(.786) translate(8.603)"/>
            <g transform="translate(.786) translate(8.603) translate(10.9 182.226)">
                <mask id="prefix__d" fill="#fff">
                    <use xlink:href="#prefix__c"/>
                </mask>
                <path fill="#EAE7E4" d="M11.677.095c.06.333.074.936-.328 1.551H.9S.54.972.56.07l11.117.026z" mask="url(#prefix__d)"/>
            </g>
            <path fill="#2D2A25" d="M11.463 182.233c.056-.957 2.05-3.87 5.39-3.87 4.274 0 5.256 2.441 5.647 3.705 0 0 .046.106.076.285l-11.116-.009c0-.037.001-.073.003-.11" transform="translate(.786) translate(8.603)"/>
            <path fill="#284664" d="M44.962 98.916l.405 76.32s-5.921 3-11.503.658l-2.133-63.529-1.65-.076-8.06 63.613s-4.263 1.932-10.558-.407l6.39-76.579h27.11z" transform="translate(.786) translate(8.603)"/>
            <path fill="#071A29" d="M17.853 98.916h27.169v10.656c-2.233.985-6.728 2.567-13.215 3.716l-.06-.918-1.658-.08-.185 1.308c-3.779.583-8.192.99-13.237 1.082l1.186-15.764z" transform="translate(.786) translate(8.603)"/>
            <path fill="#E8C0A8" d="M32.255 47.716l.11 5.065-6.663.23-.143-6.588c2.798 1.598 5.561 1.465 6.696 1.293" transform="translate(.786) translate(8.603)"/>
            <path fill="#CF9F82" d="M25.559 46.423l-.11-5.075 6.661-.232.145 6.6c-1.135.172-3.898.304-6.696-1.293" transform="translate(.786) translate(8.603)"/>
            <path fill="#323657" d="M46.325 75.95l-1.519.867c.363-10.178-1.189-15.08-2.484-18.509-1.397-3.689-3.46-5.724-3.478-5.74l1.787-.878c.304.276 6.91 5.63 5.694 24.26" transform="translate(.786) translate(8.603)"/>
            <path fill="#E8C0A8" d="M29.507 53.927c-3.943 0-4.89-2.756-5.026-3.617 2.802-.71 5.574-.995 9.022-.41.08 1.002-.121 4.027-3.996 4.027" transform="translate(.786) translate(8.603)"/>
            <path fill="#FAAA5A" d="M19.296 51.706c.632-.45 2.728-1.337 3.493-1.523.25-.06 2.665-.22 2.912-.276.17.95 2.834 3.342 4.665 3.38 2.975.062 2.85-2.337 2.753-3.443.358.055 5.21 1.504 5.546 1.7 1.402.807 3.287 3.11 5.548 12.71 1.789 7.59 2.956 25.483 1.797 45.725 0 0-11.723 4.693-30.54.696 0 0 1.09-44.71 1.428-49.492.337-4.78.439-8.086 2.398-9.477" transform="translate(.786) translate(8.603)"/>
            <path fill="#E8C0A8" d="M23.768 44.953s17.386 2.759 19.712-2.224c.35-.751-.114-5.74-.632-9.29-.769-5.243-2.584-11.765-5.401-15.439-4.657-6.068-16.4-12.296-21.97-7.275-5.567 5.02-16.466 20.212 8.29 34.228" transform="translate(.786) translate(8.603)"/>
            <path fill="#E8C0A8" d="M37.147 24.854c-.015-.002-.022-.004-.038-.005l-.012-1.007c2.608 1.28 5.3 1.846 7.855 2.575-2.38 5.549-7.864 3.723-8.872-1.4.397-.155.824-.17 1.067-.163.286.035.233.007 0 0" transform="translate(.786) translate(8.603)"/>
            <path fill="#D0904B" d="M29.977 11.492l.92.351c-.209.036-.535-.112-.92-.35" transform="translate(.786) translate(8.603)"/>
            <path fill="#284664" d="M22.745 33.884c.755 3.534 2.709 10.559.79 12.674-4.313-1.547-9.789-4.27-13.324-7.284-3.442-2.933-8.463-10.02-5.155-17.16 2.806-7.55 4.44-9.408 7.219-10.789 2.245-1.117 6.874-2.951 10.146-2.77 1.506.085 3.123.38 4.538.865.819.279 2.238 1.536 3.248 2.159l-.456-.174c-1.26 2.286-7.283 1.225-7.658 3.878-.436 3.074 4.482 9.665 4.45 12.75-.028 2.637-3.533 2.412-3.798 5.85" transform="translate(.786) translate(8.603)"/>
            <path fill="#E8C0A8" d="M21.22 32.768c1.589 1.9 4.899 3.225 6.137 2.171 1.238-1.054.953-3.449-.637-5.35-1.59-1.896-4.347-3.97-5.915-2.475-1.175 1.122-1.175 3.755.414 5.654" transform="translate(.786) translate(8.603)"/>
            <path fill="#284664" d="M15.196 10.2c-1.55.541-1.333 1.06.196 2.26 1.023.8 5.224 4.336 6.315 3.54l.672.508c2.008-.232 4.417-1.053 6.318-1.756 1.068-.395 3.223-1.027 4.18-1.77 2.308-1.79 3.409-9.82.59-10.693-2.819-.872-3.576 2.328-3.576 2.328S31.741.75 28.39.457c-3.353-.293-3.344 4.431-3.344 4.431s.145-.889-.544-.88c-.69.01-.105 1.05-1.062 1.922-3.066 2.79-5.848 3.432-8.244 4.27" transform="translate(.786) translate(8.603)"/>
        </g>
        <g transform="translate(.786) translate(40.862 19.421)">
            <mask id="prefix__g" fill="#fff">
                <use xlink:href="#prefix__e"/>
            </mask>
            <path fill="url(#prefix__f)" d="M.7 2.999s1.182 4.8 4.02 3.29c2.838-1.513.737-4.989.127-5.944C3.564 1.06.7 3 .7 3" mask="url(#prefix__g)"/>
        </g>
        <g transform="translate(.786) translate(40.145 18.702)">
            <mask id="prefix__j" fill="#fff">
                <use xlink:href="#prefix__h"/>
            </mask>
            <path fill="url(#prefix__i)" d="M4.276.512C.883 1.987-.794 4.86 2.242 3.296 4.816 1.97 5.76.34 4.912.34c-.154 0-.364.055-.636.171" mask="url(#prefix__j)"/>
        </g>
        <g>
            <path stroke="#4B2B19" stroke-width=".309" d="M44.354 1.846c.102-1.943 2.108-2.107 2.649-.726" transform="translate(.786) translate(0 23.018)"/>
            <path fill="#A56052" d="M43.178 11.329c-.13.628.215 1.225.59 1.667.394.447.932.757 1.517.889 1.175.3 2.437.111 3.679-.124l-.892.348c-.31.072-.621.161-.94.214-.638.098-1.298.084-1.946-.06-.635-.178-1.257-.529-1.65-1.079-.385-.526-.634-1.25-.358-1.855" transform="translate(.786) translate(0 23.018)"/>
            <path fill="#323657" d="M28.58 58.748l-1.465-1.344c5.132-6.48 6.794-13.318 4.934-20.319-1.388-5.237-4.825-9.135-4.854-9.17l1.88-.87c.131.151 3.307 3.752 4.825 9.471.899 3.379 1.04 6.79.428 10.143-.76 4.165-2.695 8.232-5.748 12.089" transform="translate(.786) translate(0 23.018)"/>
            <path fill="#23466C" d="M45.055 81.923L38.6 56.51 0 66.401l6.456 25.417c.353 1.389 1.774 2.227 3.173 1.869l33.533-8.596c1.399-.358 2.247-1.776 1.893-3.168" transform="translate(.786) translate(0 23.018)"/>
            <path fill="#D0D2D3" d="M42.347 81.297L42.663 82.539 6.456 91.818 6.141 90.577z" transform="translate(.786) translate(0 23.018)"/>
            <path fill="#0E0F2D" d="M45.055 81.923L38.6 56.51l-2.89.742 6.455 25.414c.353 1.391 1.288 2.353 2.085 2.147.8-.204 1.16-1.497.806-2.889" transform="translate(.786) translate(0 23.018)"/>
            <path fill="#D0D2D3" d="M36.242 57.113l1.822-.468 6.458 25.416c.221.874-.006 1.691-.509 1.822-.501.126-1.093-.48-1.315-1.356l-6.456-25.414z" transform="translate(.786) translate(0 23.018)"/>
            <path fill="#D9332D" d="M46.126 75.648L45.707 78.639 47.503 81.063 43.554 82.074 42.18 76.66z" transform="translate(.786) translate(0 23.018)"/>
            <path fill="#D0D2D3" d="M8.963 68.677L12.922 84.265 23.228 81.623 19.269 66.036zM23.788 64.736L27.748 80.323 30.22 79.691 26.174 64.124zM27.706 63.724L31.664 79.311 34.138 78.679 30.092 63.113z" transform="translate(.786) translate(0 23.018)"/>
            <path fill="#E8C0A8" d="M19.883 84.103s1.278.688 1.755 1.598c.48.91.874 2.023 1.092 2.955.445 1.902.408 3.716.5 4.07.092.352-.413.856-.925.657-.513-.198-.742-2.116-.817-2.539-.126-.721-.073-1.45-.36-1.21-.284.239-.296 1.474-.443 2.255-.038.196-.102.543-.131.679-.181.795-.35.707-.894.603-.394-.076-.659-.175-.561-.716.029-.161.104-.341.08-.473-.056.175-.11.394-.236.646-.262.524-1.482.507-1.472-.312-.012-.398.012-.737.004-.667-.019.194-.087.393-.174.794-.111.52-1.385.71-1.373-.163.008-.569.102-1.074.09-1.222-.116.343-.128.778-.186 1.05-.1.467-.124.712-.447.724-.319.012-.694.012-.682-.235-.182-1.58.149-3.982.24-4.684.094-.704.831-2.472 1.036-2.92.029-.222.04-.318.043-.565.006-.526.283-.7.83-.805l1.749-.333c.595-.113 1.17.25 1.282.813" transform="translate(.786) translate(0 23.018)"/>
            <path fill="#F5BD23" d="M21.639 85.701c.292-.952 1.702-22.676 2.15-24.878.444-2.203 5.051-10.809 6.963-16.413 1.37-4.024 1.544-15.462-2-16.27-3.95-.902-7.947 2-9.138 6.946-.68 2.83-4.743 23.986-4.965 25.996-.222 2.011.954 21.702.698 23.994.027.642 6.133 1.136 6.292.625" transform="translate(.786) translate(0 23.018)"/>
        </g>
    </g>
</svg>
