<svg width="1395" height="911" viewBox="0 0 1395 911" fill="none" xmlns="http://www.w3.org/2000/svg">
<g filter="url(#filter0_f_347_5371)">
<ellipse opacity="0.7" rx="107.268" ry="85.2403" transform="matrix(-0.995438 0.0954119 -0.36511 -0.930964 983.353 426.031)" fill="url(#paint0_linear_347_5371)"/>
<ellipse opacity="0.7" rx="53.6289" ry="42.6162" transform="matrix(-0.995438 0.0954119 -0.36511 -0.930964 905.464 548.596)" fill="url(#paint1_linear_347_5371)"/>
<ellipse opacity="0.7" rx="85.563" ry="67.9927" transform="matrix(-0.995438 0.0954119 -0.36511 -0.930964 653.825 363.99)" fill="url(#paint2_linear_347_5371)"/>
<ellipse opacity="0.7" rx="130.165" ry="103.247" transform="matrix(-0.995438 0.0954119 -0.36511 -0.930964 435.57 513.582)" fill="url(#paint3_linear_347_5371)"/>
<ellipse opacity="0.7" rx="48.1194" ry="38.2381" transform="matrix(-0.995438 0.0954119 -0.36511 -0.930964 715.472 526.568)" fill="url(#paint4_linear_347_5371)"/>
<g opacity="0.7" filter="url(#filter1_f_347_5371)">
<ellipse rx="51.7167" ry="35.9145" transform="matrix(-0.9816 -0.190951 0.165515 -0.986207 687.092 514.394)" fill="url(#paint5_linear_347_5371)"/>
</g>
</g>
<defs>
<filter id="filter0_f_347_5371" x="0.591797" y="0.1604" width="1394.01" height="910.351" filterUnits="userSpaceOnUse" color-interpolation-filters="sRGB">
<feFlood flood-opacity="0" result="BackgroundImageFix"/>
<feBlend mode="normal" in="SourceGraphic" in2="BackgroundImageFix" result="shape"/>
<feGaussianBlur stdDeviation="150" result="effect1_foregroundBlur_347_5371"/>
</filter>
<filter id="filter1_f_347_5371" x="625.976" y="467.615" width="122.233" height="93.5588" filterUnits="userSpaceOnUse" color-interpolation-filters="sRGB">
<feFlood flood-opacity="0" result="BackgroundImageFix"/>
<feBlend mode="normal" in="SourceGraphic" in2="BackgroundImageFix" result="shape"/>
<feGaussianBlur stdDeviation="5" result="effect1_foregroundBlur_347_5371"/>
</filter>
<linearGradient id="paint0_linear_347_5371" x1="107.268" y1="0" x2="107.268" y2="170.481" gradientUnits="userSpaceOnUse">
<stop stop-color="#FFCD6B"/>
<stop offset="1" stop-color="#C86478"/>
</linearGradient>
<linearGradient id="paint1_linear_347_5371" x1="53.6289" y1="0" x2="53.6289" y2="85.2324" gradientUnits="userSpaceOnUse">
<stop stop-color="#FFCD6B"/>
<stop offset="1" stop-color="#33B2C7"/>
</linearGradient>
<linearGradient id="paint2_linear_347_5371" x1="85.563" y1="0" x2="85.563" y2="135.985" gradientUnits="userSpaceOnUse">
<stop stop-color="#FFCD6B"/>
<stop offset="1" stop-color="#33B2C7"/>
</linearGradient>
<linearGradient id="paint3_linear_347_5371" x1="37.19" y1="43.3269" x2="160.374" y2="197.492" gradientUnits="userSpaceOnUse">
<stop stop-color="#33B2C7"/>
<stop offset="1" stop-color="white"/>
</linearGradient>
<linearGradient id="paint4_linear_347_5371" x1="48.1194" y1="0" x2="48.1194" y2="76.4761" gradientUnits="userSpaceOnUse">
<stop stop-color="white"/>
<stop offset="1" stop-color="#C86478"/>
</linearGradient>
<linearGradient id="paint5_linear_347_5371" x1="51.7167" y1="0" x2="51.7167" y2="71.8289" gradientUnits="userSpaceOnUse">
<stop stop-color="#FFCD6B"/>
<stop offset="1" stop-color="#C86478"/>
</linearGradient>
</defs>
</svg>
