<svg width="24" height="25" viewBox="0 0 24 25" fill="none" xmlns="http://www.w3.org/2000/svg">
<path d="M21.8906 3.23035H21.1875V2.52722C21.1875 1.36411 20.2412 0.417847 19.0781 0.417847C17.915 0.417847 16.9688 1.36411 16.9688 2.52722V3.23035H14.1562V2.52722C14.1562 1.36411 13.21 0.417847 12.0469 0.417847C10.8838 0.417847 9.9375 1.36411 9.9375 2.52722V3.23035H7.03125V2.52722C7.03125 1.36411 6.08498 0.417847 4.92188 0.417847C3.75877 0.417847 2.8125 1.36411 2.8125 2.52722V3.23035H2.10938C0.946266 3.23035 0 4.17661 0 5.33972C0 5.44172 0 22.0388 0 22.3085C0 23.4716 0.946266 24.4178 2.10938 24.4178H21.8906C23.0537 24.4178 24 23.4716 24 22.3085C24 22.179 24 5.56819 24 5.33972C24 4.17661 23.0537 3.23035 21.8906 3.23035ZM18.375 2.52722C18.375 2.13952 18.6904 1.8241 19.0781 1.8241C19.4658 1.8241 19.7812 2.13952 19.7812 2.52722V5.33972C19.7812 5.72742 19.4658 6.04285 19.0781 6.04285C18.6904 6.04285 18.375 5.72742 18.375 5.33972V2.52722ZM11.3438 2.52722C11.3438 2.13952 11.6592 1.8241 12.0469 1.8241C12.4346 1.8241 12.75 2.13952 12.75 2.52722V5.33972C12.75 5.72742 12.4346 6.04285 12.0469 6.04285C11.6592 6.04285 11.3438 5.72742 11.3438 5.33972V2.52722ZM4.21875 2.52722C4.21875 2.13952 4.53417 1.8241 4.92188 1.8241C5.30958 1.8241 5.625 2.13952 5.625 2.52722V5.33972C5.625 5.72742 5.30958 6.04285 4.92188 6.04285C4.53417 6.04285 4.21875 5.72742 4.21875 5.33972V2.52722ZM22.5938 22.3085C22.5938 22.6962 22.2783 23.0116 21.8906 23.0116H2.10938C1.72167 23.0116 1.40625 22.6962 1.40625 22.3085V10.3553H22.5938V22.3085ZM22.5938 8.9491H1.40625V5.33972C1.40625 4.95202 1.72167 4.6366 2.10938 4.6366H2.8125V5.33972C2.8125 6.50283 3.75877 7.4491 4.92188 7.4491C6.08498 7.4491 7.03125 6.50283 7.03125 5.33972V4.6366H9.9375V5.33972C9.9375 6.50283 10.8838 7.4491 12.0469 7.4491C13.21 7.4491 14.1562 6.50283 14.1562 5.33972V4.6366H16.9688V5.33972C16.9688 6.50283 17.915 7.4491 19.0781 7.4491C20.2412 7.4491 21.1875 6.50283 21.1875 5.33972V4.6366H21.8906C22.2783 4.6366 22.5938 4.95202 22.5938 5.33972V8.9491Z" fill="#A05060"/>
<path d="M20.4844 11.7616H3.51562C3.12731 11.7616 2.8125 12.0764 2.8125 12.4647V20.9022C2.8125 21.2905 3.12731 21.6053 3.51562 21.6053H20.4844C20.8727 21.6053 21.1875 21.2905 21.1875 20.9022V12.4647C21.1875 12.0764 20.8727 11.7616 20.4844 11.7616ZM7.03125 20.1991H4.21875V17.3866H7.03125V20.1991ZM7.03125 15.9803H4.21875V13.1678H7.03125V15.9803ZM11.3438 20.1991H8.4375V17.3866H11.3438V20.1991ZM11.3438 15.9803H8.4375V13.1678H11.3438V15.9803ZM15.5625 20.1991H12.75V17.3866H15.5625V20.1991ZM15.5625 15.9803H12.75V13.1678H15.5625V15.9803ZM19.7812 20.1991H16.9688V17.3866H19.7812V20.1991ZM19.7812 15.9803H16.9688V13.1678H19.7812V15.9803Z" fill="#A05060"/>
</svg>
