<?xml version="1.0" encoding="utf-8"?>
<!-- Generator: Adobe Illustrator 24.2.3, SVG Export Plug-In . SVG Version: 6.00 Build 0)  -->
<svg version="1.1" id="Layer_1" xmlns="http://www.w3.org/2000/svg" xmlns:xlink="http://www.w3.org/1999/xlink" x="0px" y="0px"
	 width="89px" height="32.8px" viewBox="0 0 89 32.8" style="enable-background:new 0 0 89 32.8;" xml:space="preserve">
<style type="text/css">
	.st0{fill:#C76478;}
	.st1{fill:#32B3C7;}
	.st2{fill:#284664;}
	.st3{fill:#F9A95A;}
	.st4{fill:#327846;}
	.st5{fill:#FFFFFF;}
</style>
<path class="st0" d="M37.4,24.6c-2.3,0-4.2,1.8-4.2,4.1c0,2.3,1.9,4.1,4.2,4.1c2.3,0,4.2-1.8,4.2-4.1C41.6,26.4,39.7,24.6,37.4,24.6
	z"/>
<path class="st0" d="M37.4,16.3c2.3,0,4.2-1.8,4.2-4.1c0-2.3-1.9-4.1-4.2-4.1h-4.2v-4c0-2.3-1.9-4.1-4.2-4.1C26.8,0,25,1.8,25,4.1v4
	h-4.2c-0.6,0-1.1,0.1-1.6,0.3c5.7,1.2,10,6.1,10,12.1c0,3.6-1.6,6.8-4.1,9.1c0.4,1.8,2.1,3.2,4.1,3.2c2.3,0,4.2-1.8,4.2-4.1V16.3
	H37.4z"/>
<path class="st1" d="M25,16.3h-4.2c-2.3,0-4.2-1.8-4.2-4.1c0-1.7,1-3.2,2.5-3.8c-0.8-0.2-1.7-0.3-2.5-0.3c-4.1,0-7.7,1.9-10,4.9
	c1,0.8,1.7,1.9,1.7,3.3v12.3c0,0.3,0,0.6-0.1,0.9c2.2,2,5.2,3.2,8.4,3.2c3.3,0,6.2-1.2,8.4-3.2C25,29.3,25,29,25,28.7L25,16.3z
	 M16.6,24.6c-2.3,0-4.2-1.8-4.2-4.1c0-2.3,1.9-4.1,4.2-4.1c2.3,0,4.2,1.8,4.2,4.1C20.8,22.8,18.9,24.6,16.6,24.6z"/>
<path class="st0" d="M29.1,20.5c0-5.9-4.3-10.9-10-12.1c-1.5,0.6-2.5,2.1-2.5,3.8c0,2.3,1.9,4.1,4.2,4.1h4.2v12.4
	c0,0.3,0,0.6,0.1,0.9C27.6,27.3,29.1,24.1,29.1,20.5z"/>
<path class="st2" d="M29.1,20.5c0-5.9-4.3-10.9-10-12.1c-1.5,0.6-2.5,2.1-2.5,3.8c0,2.3,1.9,4.1,4.2,4.1h4.2v12.4
	c0,0.3,0,0.6,0.1,0.9C27.6,27.3,29.1,24.1,29.1,20.5z"/>
<path class="st3" d="M4.2,9.6c2.3,0,4.2-1.8,4.2-4.1c0-2.3-1.9-4.1-4.2-4.1C1.8,1.4,0,3.2,0,5.5C0,7.7,1.8,9.6,4.2,9.6z"/>
<path class="st3" d="M4.2,20.5c0-2.8,0.9-5.3,2.5-7.4c-0.7-0.5-1.6-0.8-2.5-0.8c-2.3,0-4.2,1.8-4.2,4.1v12.3c0,2.3,1.9,4.1,4.2,4.1
	c2,0,3.6-1.4,4.1-3.2C5.7,27.3,4.2,24.1,4.2,20.5z"/>
<path class="st1" d="M8.3,16.4c0-1.3-0.6-2.5-1.7-3.3c-1.6,2-2.5,4.6-2.5,7.4c0,3.6,1.6,6.8,4.1,9.1c0.1-0.3,0.1-0.6,0.1-0.9V16.4z"
	/>
<path class="st4" d="M8.3,16.4c0-1.3-0.6-2.5-1.7-3.3c-1.6,2-2.5,4.6-2.5,7.4c0,3.6,1.6,6.8,4.1,9.1c0.1-0.3,0.1-0.6,0.1-0.9V16.4z"
	/>
<path class="st5" d="M47,8.2h1.8v5.9H47V8.2z"/>
<path class="st5" d="M49.8,8.2h4.9v1.4h-3.1v0.9h2.8v1.4h-2.8v0.9h3.2v1.4h-5V8.2z"/>
<path class="st5" d="M55.7,8.2h1.8v4.5H60v1.5h-4.3V8.2z"/>
<path class="st5" d="M60.1,8.2h5.3v1.4h-1.8v4.5h-1.8V9.6h-1.7V8.2z"/>
<path class="st5" d="M69.2,9.6c-0.4-0.1-0.7-0.2-0.9-0.2c-0.2,0-0.3,0-0.4,0.1c-0.1,0.1-0.1,0.1-0.1,0.3c0,0.2,0.1,0.3,0.3,0.4
	c0.2,0.1,0.4,0.2,0.8,0.3c0.4,0.1,0.8,0.2,1,0.4c0.3,0.1,0.5,0.3,0.7,0.5c0.2,0.3,0.3,0.6,0.3,1c0,0.4-0.1,0.8-0.3,1
	c-0.2,0.3-0.5,0.5-0.9,0.6c-0.4,0.1-0.8,0.2-1.2,0.2c-0.5,0-1-0.1-1.5-0.3c-0.5-0.2-1-0.4-1.3-0.7l0.7-1.3c0.3,0.3,0.7,0.5,1.1,0.7
	c0.4,0.2,0.8,0.3,1.1,0.3c0.2,0,0.3,0,0.5-0.1c0.1-0.1,0.2-0.2,0.2-0.3c0-0.2-0.1-0.3-0.3-0.4c-0.2-0.1-0.5-0.2-0.8-0.3
	c-0.4-0.1-0.8-0.2-1-0.3c-0.3-0.1-0.5-0.3-0.7-0.5c-0.2-0.3-0.3-0.6-0.3-1c0-0.4,0.1-0.7,0.3-1c0.2-0.3,0.5-0.5,0.9-0.7
	C67.5,8.1,67.9,8,68.4,8c0.5,0,0.9,0.1,1.3,0.2c0.4,0.1,0.8,0.3,1.2,0.5l-0.7,1.4C70,9.9,69.6,9.8,69.2,9.6z"/>
<path class="st5" d="M51.6,17.8c0.5,0.3,0.9,0.6,1.2,1.1c0.3,0.5,0.4,1,0.4,1.5s-0.1,1.1-0.4,1.5c-0.3,0.5-0.7,0.8-1.2,1.1
	c-0.5,0.3-1,0.4-1.6,0.4c-0.6,0-1.2-0.1-1.6-0.4c-0.5-0.3-0.9-0.6-1.2-1.1c-0.3-0.5-0.4-1-0.4-1.6c0-0.6,0.1-1.1,0.4-1.5
	c0.3-0.5,0.7-0.8,1.2-1.1c0.5-0.3,1-0.4,1.6-0.4C50.5,17.3,51.1,17.5,51.6,17.8z M49,18.8c-0.3,0.2-0.5,0.4-0.7,0.7
	c-0.2,0.3-0.3,0.6-0.3,1c0,0.3,0.1,0.7,0.3,1c0.2,0.3,0.4,0.5,0.7,0.7c0.3,0.2,0.6,0.3,0.9,0.3s0.6-0.1,0.9-0.3
	c0.3-0.2,0.5-0.4,0.7-0.7c0.2-0.3,0.3-0.6,0.3-1c0-0.3-0.1-0.7-0.3-1c-0.2-0.3-0.4-0.5-0.7-0.7s-0.6-0.3-0.9-0.3
	C49.6,18.5,49.3,18.6,49,18.8z"/>
<path class="st5" d="M58.2,19.2c0.3,0.3,0.5,0.7,0.5,1.3v2.9h-1.3v-2.5c0-0.3-0.1-0.5-0.3-0.7c-0.2-0.2-0.4-0.3-0.7-0.3
	c-0.3,0-0.6,0.1-0.8,0.3c-0.2,0.2-0.3,0.5-0.3,0.8v2.3H54v-4.5h1.3v0.8c0.3-0.5,0.9-0.8,1.6-0.8C57.5,18.8,57.9,18.9,58.2,19.2z"/>
<path class="st5" d="M59.8,17.1h1.3v6.3h-1.3V17.1z"/>
<path class="st5" d="M63.6,17c0.1,0.1,0.2,0.3,0.2,0.5s-0.1,0.4-0.2,0.5c-0.1,0.1-0.3,0.2-0.5,0.2c-0.2,0-0.4-0.1-0.5-0.2
	c-0.1-0.1-0.2-0.3-0.2-0.5s0.1-0.4,0.2-0.5c0.1-0.1,0.3-0.2,0.5-0.2C63.3,16.8,63.5,16.9,63.6,17z M62.5,18.8h1.3v4.5h-1.3V18.8z"/>
<path class="st5" d="M69.2,19.2c0.3,0.3,0.5,0.7,0.5,1.3v2.9h-1.3v-2.5c0-0.3-0.1-0.5-0.3-0.7c-0.2-0.2-0.4-0.3-0.7-0.3
	c-0.3,0-0.6,0.1-0.8,0.3c-0.2,0.2-0.3,0.5-0.3,0.8v2.3h-1.3v-4.5h1.3v0.8c0.3-0.5,0.9-0.8,1.6-0.8C68.5,18.8,68.9,18.9,69.2,19.2z"
	/>
<path class="st5" d="M74.5,19.4c0.4,0.4,0.6,1,0.6,1.8c0,0.1,0,0.3,0,0.3h-3.3c0.1,0.3,0.2,0.5,0.4,0.7c0.2,0.2,0.5,0.3,0.8,0.3
	c0.2,0,0.4,0,0.6-0.1c0.2-0.1,0.4-0.2,0.5-0.4l0.7,0.7c-0.2,0.3-0.5,0.5-0.9,0.6c-0.3,0.1-0.7,0.2-1.1,0.2c-0.5,0-0.9-0.1-1.3-0.3
	c-0.4-0.2-0.6-0.5-0.8-0.8c-0.2-0.4-0.3-0.8-0.3-1.2c0-0.5,0.1-0.9,0.3-1.2c0.2-0.3,0.5-0.6,0.8-0.8c0.4-0.2,0.8-0.3,1.2-0.3
	C73.5,18.8,74.1,19,74.5,19.4z M73.8,20.7c0-0.3-0.1-0.5-0.3-0.7c-0.2-0.2-0.4-0.3-0.7-0.3s-0.5,0.1-0.7,0.3
	c-0.2,0.2-0.3,0.4-0.4,0.7H73.8z"/>
<path class="st5" d="M46.6,26.8h5v1.1h-1.8v4.8h-1.4v-4.8h-1.8V26.8z"/>
<path class="st5" d="M56,28.7c0.4,0.4,0.6,1,0.6,1.8c0,0.1,0,0.3,0,0.3h-3.3c0.1,0.3,0.2,0.5,0.4,0.7c0.2,0.2,0.5,0.3,0.8,0.3
	c0.2,0,0.4,0,0.6-0.1c0.2-0.1,0.4-0.2,0.5-0.4l0.7,0.7c-0.2,0.3-0.5,0.5-0.9,0.6c-0.3,0.1-0.7,0.2-1.1,0.2c-0.5,0-0.9-0.1-1.3-0.3
	c-0.4-0.2-0.6-0.5-0.8-0.8c-0.2-0.3-0.3-0.8-0.3-1.2c0-0.5,0.1-0.9,0.3-1.2c0.2-0.3,0.5-0.6,0.8-0.8c0.4-0.2,0.8-0.3,1.2-0.3
	C55,28.1,55.6,28.3,56,28.7z M55.3,30c0-0.3-0.1-0.5-0.3-0.7c-0.2-0.2-0.4-0.3-0.7-0.3c-0.3,0-0.5,0.1-0.7,0.3
	c-0.2,0.2-0.3,0.4-0.4,0.7H55.3z"/>
<path class="st5" d="M59.6,29.1c-0.3-0.1-0.5-0.1-0.7-0.1c-0.2,0-0.3,0-0.4,0.1c-0.1,0-0.1,0.1-0.1,0.3s0.1,0.2,0.2,0.3
	c0.1,0.1,0.3,0.1,0.6,0.2c0.3,0.1,0.6,0.2,0.8,0.3c0.2,0.1,0.4,0.2,0.6,0.4c0.2,0.2,0.2,0.4,0.2,0.7c0,0.5-0.2,0.8-0.5,1
	c-0.3,0.3-0.8,0.4-1.4,0.4c-0.4,0-0.7,0-1.1-0.2c-0.3-0.1-0.6-0.3-0.9-0.5l0.4-0.9c0.2,0.2,0.5,0.3,0.8,0.4c0.3,0.1,0.6,0.1,0.8,0.1
	c0.2,0,0.3,0,0.4-0.1c0.1-0.1,0.2-0.1,0.2-0.3c0-0.1-0.1-0.2-0.2-0.3c-0.1-0.1-0.3-0.2-0.6-0.2c-0.3-0.1-0.6-0.2-0.8-0.3
	c-0.2-0.1-0.4-0.2-0.5-0.4c-0.1-0.2-0.2-0.4-0.2-0.7c0-0.5,0.2-0.8,0.5-1s0.8-0.4,1.3-0.4c0.3,0,0.6,0,0.9,0.1
	c0.3,0.1,0.6,0.2,0.9,0.4l-0.5,0.9C60,29.3,59.8,29.2,59.6,29.1z"/>
<path class="st5" d="M64.5,32.4c-0.2,0.1-0.4,0.2-0.6,0.2c-0.2,0-0.4,0.1-0.6,0.1c-0.4,0-0.8-0.1-1-0.4c-0.3-0.3-0.4-0.6-0.4-1v-2.1
	h-0.6v-0.9h0.6v-1.3h1.3v1.3h1.2v0.9h-1.2v1.9c0,0.3,0.1,0.5,0.4,0.5c0.2,0,0.4,0,0.6-0.2L64.5,32.4z"/>
<path class="st5" d="M67.5,29.1C67.3,29.1,67,29,66.8,29c-0.2,0-0.3,0-0.4,0.1c-0.1,0-0.1,0.1-0.1,0.3s0.1,0.2,0.2,0.3
	c0.1,0.1,0.3,0.1,0.6,0.2c0.3,0.1,0.6,0.2,0.8,0.3c0.2,0.1,0.4,0.2,0.6,0.4c0.2,0.2,0.2,0.4,0.2,0.7c0,0.5-0.2,0.8-0.5,1
	s-0.8,0.4-1.4,0.4c-0.4,0-0.7,0-1.1-0.2c-0.3-0.1-0.6-0.3-0.9-0.5l0.4-0.9c0.2,0.2,0.5,0.3,0.8,0.4c0.3,0.1,0.6,0.1,0.8,0.1
	c0.2,0,0.3,0,0.4-0.1c0.1-0.1,0.2-0.1,0.2-0.3c0-0.1-0.1-0.2-0.2-0.3c-0.1-0.1-0.3-0.2-0.6-0.2c-0.3-0.1-0.6-0.2-0.8-0.3
	c-0.2-0.1-0.4-0.2-0.5-0.4c-0.1-0.2-0.2-0.4-0.2-0.7c0-0.5,0.2-0.8,0.5-1c0.3-0.3,0.8-0.4,1.3-0.4c0.3,0,0.6,0,0.9,0.1
	c0.3,0.1,0.6,0.2,0.9,0.4l-0.5,0.9C68,29.3,67.7,29.2,67.5,29.1z"/>
<path class="st5" d="M70.1,32.1c0.1,0.1,0.1,0.2,0.1,0.3c0,0.1,0,0.2-0.1,0.3c-0.1,0.1-0.2,0.1-0.3,0.1s-0.2,0-0.3-0.1
	c-0.1-0.1-0.1-0.2-0.1-0.3c0-0.1,0-0.2,0.1-0.3c0.1-0.1,0.2-0.1,0.3-0.1S70,32,70.1,32.1z"/>
<path class="st5" d="M73.3,28.7c-0.3,0-0.6,0.1-0.9,0.2c-0.3,0.1-0.5,0.3-0.6,0.6c-0.1,0.3-0.2,0.6-0.2,0.9c0,0.3,0.1,0.6,0.2,0.9
	c0.1,0.3,0.3,0.5,0.6,0.6c0.3,0.1,0.6,0.2,0.9,0.2c0.3,0,0.6,0,0.8-0.2c0.2-0.1,0.4-0.3,0.6-0.4L75,32c-0.2,0.2-0.5,0.4-0.8,0.5
	c-0.3,0.1-0.6,0.2-1,0.2c-0.4,0-0.8-0.1-1.2-0.3c-0.3-0.2-0.6-0.5-0.8-0.8c-0.2-0.3-0.3-0.7-0.3-1.2s0.1-0.8,0.3-1.2
	c0.2-0.3,0.5-0.6,0.8-0.8c0.3-0.2,0.7-0.3,1.2-0.3c0.3,0,0.7,0,0.9,0.2c0.3,0.1,0.5,0.3,0.7,0.5l-0.3,0.4
	C74.2,28.9,73.8,28.7,73.3,28.7z"/>
<path class="st5" d="M79.3,28.5c0.3,0.2,0.6,0.5,0.8,0.8c0.2,0.3,0.3,0.7,0.3,1.1c0,0.4-0.1,0.8-0.3,1.2c-0.2,0.3-0.5,0.6-0.8,0.8
	c-0.3,0.2-0.7,0.3-1.2,0.3c-0.4,0-0.8-0.1-1.2-0.3c-0.3-0.2-0.6-0.5-0.8-0.8c-0.2-0.3-0.3-0.7-0.3-1.2s0.1-0.8,0.3-1.1
	c0.2-0.3,0.5-0.6,0.8-0.8c0.3-0.2,0.7-0.3,1.2-0.3C78.5,28.2,78.9,28.3,79.3,28.5z M77.2,28.9c-0.3,0.1-0.5,0.3-0.6,0.6
	c-0.1,0.3-0.2,0.6-0.2,0.9c0,0.3,0.1,0.7,0.2,0.9c0.1,0.3,0.3,0.5,0.6,0.6c0.3,0.1,0.6,0.2,0.9,0.2c0.3,0,0.6-0.1,0.9-0.2
	c0.3-0.1,0.5-0.3,0.6-0.6c0.1-0.3,0.2-0.6,0.2-0.9c0-0.3-0.1-0.6-0.2-0.9c-0.1-0.3-0.3-0.5-0.6-0.6c-0.3-0.1-0.6-0.2-0.9-0.2
	C77.8,28.7,77.5,28.8,77.2,28.9z"/>
<path class="st5" d="M88.6,28.7C88.9,29,89,29.4,89,30v2.7h-0.6v-2.6c0-0.4-0.1-0.8-0.3-1c-0.2-0.2-0.6-0.3-1-0.3
	c-0.5,0-0.9,0.2-1.1,0.5c-0.3,0.3-0.4,0.7-0.4,1.3v2.2H85v-2.6c0-0.4-0.1-0.8-0.3-1c-0.2-0.2-0.6-0.3-1-0.3c-0.5,0-0.9,0.2-1.1,0.5
	c-0.3,0.3-0.4,0.7-0.4,1.3v2.2h-0.6v-4.4h0.6v1c0.1-0.3,0.4-0.6,0.7-0.8c0.3-0.2,0.6-0.3,1.1-0.3c0.4,0,0.8,0.1,1.1,0.3
	c0.3,0.2,0.5,0.5,0.6,0.9c0.1-0.4,0.4-0.7,0.7-0.9c0.3-0.2,0.7-0.3,1.1-0.3C87.9,28.2,88.3,28.4,88.6,28.7z"/>
</svg>
