<svg width="504" height="71" viewBox="0 0 504 71" fill="none" xmlns="http://www.w3.org/2000/svg">
<g filter="url(#filter0_di_473_4851)">
<path d="M0 0.671631H20.1226V65.5735H0V0.671631ZM24.3484 30.9529H26.7631C28.9095 30.9529 30.4858 30.89 31.4919 30.7642C32.5651 30.5756 33.4036 30.1982 34.0072 29.6322C34.6109 29.1291 34.9798 28.4059 35.114 27.4625C35.3152 26.4563 35.4158 24.9784 35.4158 23.0288C35.4158 21.0792 35.3152 19.6328 35.114 18.6895C34.9798 17.6832 34.6109 16.8971 34.0072 16.3311C33.4036 15.828 32.5651 15.5135 31.4919 15.3878C30.4187 15.1991 28.8424 15.1048 26.7631 15.1048H24.3484V0.671631H32.6993C37.6628 0.671631 41.6874 1.1433 44.7728 2.08664C47.9254 2.96709 50.3066 4.35066 51.9164 6.23735C53.4591 7.99825 54.4988 10.2308 55.0354 12.9351C55.572 15.5764 55.8403 18.941 55.8403 23.0288C55.8403 26.928 55.572 30.1668 55.0354 32.7452C54.5658 35.3237 53.5933 37.4934 52.1176 39.2543C50.4407 41.2668 48.026 42.8075 44.8735 43.8767C41.788 44.8829 37.7299 45.386 32.6993 45.386H24.3484V30.9529Z" fill="url(#paint0_linear_473_4851)"/>
<path d="M0 0.671631H20.1226V65.5735H0V0.671631ZM24.3484 30.9529H26.7631C28.9095 30.9529 30.4858 30.89 31.4919 30.7642C32.5651 30.5756 33.4036 30.1982 34.0072 29.6322C34.6109 29.1291 34.9798 28.4059 35.114 27.4625C35.3152 26.4563 35.4158 24.9784 35.4158 23.0288C35.4158 21.0792 35.3152 19.6328 35.114 18.6895C34.9798 17.6832 34.6109 16.8971 34.0072 16.3311C33.4036 15.828 32.5651 15.5135 31.4919 15.3878C30.4187 15.1991 28.8424 15.1048 26.7631 15.1048H24.3484V0.671631H32.6993C37.6628 0.671631 41.6874 1.1433 44.7728 2.08664C47.9254 2.96709 50.3066 4.35066 51.9164 6.23735C53.4591 7.99825 54.4988 10.2308 55.0354 12.9351C55.572 15.5764 55.8403 18.941 55.8403 23.0288C55.8403 26.928 55.572 30.1668 55.0354 32.7452C54.5658 35.3237 53.5933 37.4934 52.1176 39.2543C50.4407 41.2668 48.026 42.8075 44.8735 43.8767C41.788 44.8829 37.7299 45.386 32.6993 45.386H24.3484V30.9529Z" fill="url(#paint1_linear_473_4851)"/>
<path d="M65.8544 0.671631H85.9771V65.5735H65.8544V0.671631ZM90.2028 50.3857H111.734V65.5735H90.2028V50.3857Z" fill="url(#paint2_linear_473_4851)"/>
<path d="M65.8544 0.671631H85.9771V65.5735H65.8544V0.671631ZM90.2028 50.3857H111.734V65.5735H90.2028V50.3857Z" fill="url(#paint3_linear_473_4851)"/>
<path d="M136.989 0.671631H138.7L146.648 26.5192L135.078 65.5735H114.955L136.989 0.671631ZM159.627 54.0648H142.825L147.051 39.5373H155.1L143.227 0.671631H161.64L183.674 65.5735H163.149L159.627 54.0648Z" fill="url(#paint4_linear_473_4851)"/>
<path d="M136.989 0.671631H138.7L146.648 26.5192L135.078 65.5735H114.955L136.989 0.671631ZM159.627 54.0648H142.825L147.051 39.5373H155.1L143.227 0.671631H161.64L183.674 65.5735H163.149L159.627 54.0648Z" fill="url(#paint5_linear_473_4851)"/>
<path d="M181.219 0.671631H237.864V15.7651H181.219V0.671631ZM199.43 19.5385H219.553V65.5735H199.43V19.5385Z" fill="url(#paint6_linear_473_4851)"/>
<path d="M181.219 0.671631H237.864V15.7651H181.219V0.671631ZM199.43 19.5385H219.553V65.5735H199.43V19.5385Z" fill="url(#paint7_linear_473_4851)"/>
<path d="M246.321 0.671631H266.444V65.5735H246.321V0.671631Z" fill="url(#paint8_linear_473_4851)"/>
<path d="M246.321 0.671631H266.444V65.5735H246.321V0.671631Z" fill="url(#paint9_linear_473_4851)"/>
<path d="M280.538 3.31299V0.671631H300.66L339.497 62.8378V65.5735H319.475L280.538 3.31299ZM320.38 24.3495V0.671631H339.497V55.0081L320.38 24.3495ZM280.538 11.1427L299.654 41.8013V65.5735H280.538V11.1427Z" fill="url(#paint10_linear_473_4851)"/>
<path d="M280.538 3.31299V0.671631H300.66L339.497 62.8378V65.5735H319.475L280.538 3.31299ZM320.38 24.3495V0.671631H339.497V55.0081L320.38 24.3495ZM280.538 11.1427L299.654 41.8013V65.5735H280.538V11.1427Z" fill="url(#paint11_linear_473_4851)"/>
<path d="M381.736 66.3282C374.693 66.3282 369.26 65.7936 365.437 64.7245C361.614 63.6554 358.797 61.9259 356.986 59.5361C355.309 57.335 354.269 54.5364 353.867 51.1404C353.464 47.7444 353.263 42.6818 353.263 35.9526V0.671631H373.385V39.726C373.385 42.0529 373.453 44.2854 373.587 46.4237C373.721 48.1217 374.023 49.348 374.492 50.1027C374.962 50.8574 375.767 51.3291 376.907 51.5177C377.913 51.7693 379.523 51.8951 381.736 51.8951H384.05C384.587 51.8951 385.191 51.8322 385.862 51.7064V66.2339C385.392 66.2968 384.721 66.3282 383.849 66.3282H381.736ZM390.087 0.671631H410.21V35.9526C410.21 42.1158 410.076 46.7696 409.807 49.9141C409.539 53.0585 408.801 55.6999 407.594 57.8381C406.252 60.2908 404.207 62.1775 401.457 63.4982C398.706 64.8188 394.917 65.6679 390.087 66.0452V0.671631Z" fill="url(#paint12_linear_473_4851)"/>
<path d="M381.736 66.3282C374.693 66.3282 369.26 65.7936 365.437 64.7245C361.614 63.6554 358.797 61.9259 356.986 59.5361C355.309 57.335 354.269 54.5364 353.867 51.1404C353.464 47.7444 353.263 42.6818 353.263 35.9526V0.671631H373.385V39.726C373.385 42.0529 373.453 44.2854 373.587 46.4237C373.721 48.1217 374.023 49.348 374.492 50.1027C374.962 50.8574 375.767 51.3291 376.907 51.5177C377.913 51.7693 379.523 51.8951 381.736 51.8951H384.05C384.587 51.8951 385.191 51.8322 385.862 51.7064V66.2339C385.392 66.2968 384.721 66.3282 383.849 66.3282H381.736ZM390.087 0.671631H410.21V35.9526C410.21 42.1158 410.076 46.7696 409.807 49.9141C409.539 53.0585 408.801 55.6999 407.594 57.8381C406.252 60.2908 404.207 62.1775 401.457 63.4982C398.706 64.8188 394.917 65.6679 390.087 66.0452V0.671631Z" fill="url(#paint13_linear_473_4851)"/>
<path d="M424.037 3.50165V0.671631H442.55L471.527 58.4041L468.206 65.5735H455.127L424.037 3.50165ZM480.884 38.311H480.481L473.74 53.5931L465.087 36.2356L480.884 0.671631H500V65.5735H480.884V38.311ZM424.037 12.8407L442.55 49.8197V65.5735H424.037V12.8407Z" fill="url(#paint14_linear_473_4851)"/>
<path d="M424.037 3.50165V0.671631H442.55L471.527 58.4041L468.206 65.5735H455.127L424.037 3.50165ZM480.884 38.311H480.481L473.74 53.5931L465.087 36.2356L480.884 0.671631H500V65.5735H480.884V38.311ZM424.037 12.8407L442.55 49.8197V65.5735H424.037V12.8407Z" fill="url(#paint15_linear_473_4851)"/>
</g>
<defs>
<filter id="filter0_di_473_4851" x="0" y="0.671631" width="504" height="69.6565" filterUnits="userSpaceOnUse" color-interpolation-filters="sRGB">
<feFlood flood-opacity="0" result="BackgroundImageFix"/>
<feColorMatrix in="SourceAlpha" type="matrix" values="0 0 0 0 0 0 0 0 0 0 0 0 0 0 0 0 0 0 127 0" result="hardAlpha"/>
<feOffset dx="4" dy="4"/>
<feComposite in2="hardAlpha" operator="out"/>
<feColorMatrix type="matrix" values="0 0 0 0 0.254321 0 0 0 0 0.254321 0 0 0 0 0.254321 0 0 0 1 0"/>
<feBlend mode="normal" in2="BackgroundImageFix" result="effect1_dropShadow_473_4851"/>
<feBlend mode="normal" in="SourceGraphic" in2="effect1_dropShadow_473_4851" result="shape"/>
<feColorMatrix in="SourceAlpha" type="matrix" values="0 0 0 0 0 0 0 0 0 0 0 0 0 0 0 0 0 0 127 0" result="hardAlpha"/>
<feOffset dy="2"/>
<feGaussianBlur stdDeviation="2"/>
<feComposite in2="hardAlpha" operator="arithmetic" k2="-1" k3="1"/>
<feColorMatrix type="matrix" values="0 0 0 0 0 0 0 0 0 0 0 0 0 0 0 0 0 0 0.15 0"/>
<feBlend mode="normal" in2="shape" result="effect2_innerShadow_473_4851"/>
</filter>
<linearGradient id="paint0_linear_473_4851" x1="506.539" y1="33.0737" x2="-6.58811" y2="33.0737" gradientUnits="userSpaceOnUse">
<stop stop-color="#EAEAEA"/>
<stop offset="0.02" stop-color="#E1E1E1"/>
<stop offset="0.1" stop-color="#C0C0C0"/>
<stop offset="0.18" stop-color="#A9A9A9"/>
<stop offset="0.26" stop-color="#9B9B9B"/>
<stop offset="0.32" stop-color="#969696"/>
<stop offset="0.42" stop-color="#B4B4B4"/>
<stop offset="0.55" stop-color="#D7D7D7"/>
<stop offset="0.66" stop-color="#ECECEC"/>
<stop offset="0.73" stop-color="#F4F4F4"/>
<stop offset="0.8" stop-color="#EEEEEE"/>
<stop offset="0.89" stop-color="#DCDCDC"/>
<stop offset="1" stop-color="#C1C1C1"/>
</linearGradient>
<linearGradient id="paint1_linear_473_4851" x1="499.953" y1="33.5068" x2="-0.0470579" y2="33.5068" gradientUnits="userSpaceOnUse">
<stop stop-color="#EAEAEA"/>
<stop offset="0.02" stop-color="#E1E1E1"/>
<stop offset="0.1" stop-color="#C0C0C0"/>
<stop offset="0.18" stop-color="#A9A9A9"/>
<stop offset="0.26" stop-color="#9B9B9B"/>
<stop offset="0.32" stop-color="#F4F4F4"/>
<stop offset="1" stop-color="#C1C1C1"/>
</linearGradient>
<linearGradient id="paint2_linear_473_4851" x1="506.539" y1="33.0737" x2="-6.58811" y2="33.0737" gradientUnits="userSpaceOnUse">
<stop stop-color="#EAEAEA"/>
<stop offset="0.02" stop-color="#E1E1E1"/>
<stop offset="0.1" stop-color="#C0C0C0"/>
<stop offset="0.18" stop-color="#A9A9A9"/>
<stop offset="0.26" stop-color="#9B9B9B"/>
<stop offset="0.32" stop-color="#969696"/>
<stop offset="0.42" stop-color="#B4B4B4"/>
<stop offset="0.55" stop-color="#D7D7D7"/>
<stop offset="0.66" stop-color="#ECECEC"/>
<stop offset="0.73" stop-color="#F4F4F4"/>
<stop offset="0.8" stop-color="#EEEEEE"/>
<stop offset="0.89" stop-color="#DCDCDC"/>
<stop offset="1" stop-color="#C1C1C1"/>
</linearGradient>
<linearGradient id="paint3_linear_473_4851" x1="499.953" y1="33.5068" x2="-0.0470579" y2="33.5068" gradientUnits="userSpaceOnUse">
<stop stop-color="#EAEAEA"/>
<stop offset="0.02" stop-color="#E1E1E1"/>
<stop offset="0.1" stop-color="#C0C0C0"/>
<stop offset="0.18" stop-color="#A9A9A9"/>
<stop offset="0.26" stop-color="#9B9B9B"/>
<stop offset="0.32" stop-color="#F4F4F4"/>
<stop offset="1" stop-color="#C1C1C1"/>
</linearGradient>
<linearGradient id="paint4_linear_473_4851" x1="506.539" y1="33.0737" x2="-6.58811" y2="33.0737" gradientUnits="userSpaceOnUse">
<stop stop-color="#EAEAEA"/>
<stop offset="0.02" stop-color="#E1E1E1"/>
<stop offset="0.1" stop-color="#C0C0C0"/>
<stop offset="0.18" stop-color="#A9A9A9"/>
<stop offset="0.26" stop-color="#9B9B9B"/>
<stop offset="0.32" stop-color="#969696"/>
<stop offset="0.42" stop-color="#B4B4B4"/>
<stop offset="0.55" stop-color="#D7D7D7"/>
<stop offset="0.66" stop-color="#ECECEC"/>
<stop offset="0.73" stop-color="#F4F4F4"/>
<stop offset="0.8" stop-color="#EEEEEE"/>
<stop offset="0.89" stop-color="#DCDCDC"/>
<stop offset="1" stop-color="#C1C1C1"/>
</linearGradient>
<linearGradient id="paint5_linear_473_4851" x1="499.953" y1="33.5068" x2="-0.0470579" y2="33.5068" gradientUnits="userSpaceOnUse">
<stop stop-color="#EAEAEA"/>
<stop offset="0.02" stop-color="#E1E1E1"/>
<stop offset="0.1" stop-color="#C0C0C0"/>
<stop offset="0.18" stop-color="#A9A9A9"/>
<stop offset="0.26" stop-color="#9B9B9B"/>
<stop offset="0.32" stop-color="#F4F4F4"/>
<stop offset="1" stop-color="#C1C1C1"/>
</linearGradient>
<linearGradient id="paint6_linear_473_4851" x1="506.539" y1="33.0737" x2="-6.58811" y2="33.0737" gradientUnits="userSpaceOnUse">
<stop stop-color="#EAEAEA"/>
<stop offset="0.02" stop-color="#E1E1E1"/>
<stop offset="0.1" stop-color="#C0C0C0"/>
<stop offset="0.18" stop-color="#A9A9A9"/>
<stop offset="0.26" stop-color="#9B9B9B"/>
<stop offset="0.32" stop-color="#969696"/>
<stop offset="0.42" stop-color="#B4B4B4"/>
<stop offset="0.55" stop-color="#D7D7D7"/>
<stop offset="0.66" stop-color="#ECECEC"/>
<stop offset="0.73" stop-color="#F4F4F4"/>
<stop offset="0.8" stop-color="#EEEEEE"/>
<stop offset="0.89" stop-color="#DCDCDC"/>
<stop offset="1" stop-color="#C1C1C1"/>
</linearGradient>
<linearGradient id="paint7_linear_473_4851" x1="499.953" y1="33.5068" x2="-0.0470579" y2="33.5068" gradientUnits="userSpaceOnUse">
<stop stop-color="#EAEAEA"/>
<stop offset="0.02" stop-color="#E1E1E1"/>
<stop offset="0.1" stop-color="#C0C0C0"/>
<stop offset="0.18" stop-color="#A9A9A9"/>
<stop offset="0.26" stop-color="#9B9B9B"/>
<stop offset="0.32" stop-color="#F4F4F4"/>
<stop offset="1" stop-color="#C1C1C1"/>
</linearGradient>
<linearGradient id="paint8_linear_473_4851" x1="506.539" y1="33.0737" x2="-6.58811" y2="33.0737" gradientUnits="userSpaceOnUse">
<stop stop-color="#EAEAEA"/>
<stop offset="0.02" stop-color="#E1E1E1"/>
<stop offset="0.1" stop-color="#C0C0C0"/>
<stop offset="0.18" stop-color="#A9A9A9"/>
<stop offset="0.26" stop-color="#9B9B9B"/>
<stop offset="0.32" stop-color="#969696"/>
<stop offset="0.42" stop-color="#B4B4B4"/>
<stop offset="0.55" stop-color="#D7D7D7"/>
<stop offset="0.66" stop-color="#ECECEC"/>
<stop offset="0.73" stop-color="#F4F4F4"/>
<stop offset="0.8" stop-color="#EEEEEE"/>
<stop offset="0.89" stop-color="#DCDCDC"/>
<stop offset="1" stop-color="#C1C1C1"/>
</linearGradient>
<linearGradient id="paint9_linear_473_4851" x1="499.953" y1="33.5068" x2="-0.0470579" y2="33.5068" gradientUnits="userSpaceOnUse">
<stop stop-color="#EAEAEA"/>
<stop offset="0.02" stop-color="#E1E1E1"/>
<stop offset="0.1" stop-color="#C0C0C0"/>
<stop offset="0.18" stop-color="#A9A9A9"/>
<stop offset="0.26" stop-color="#9B9B9B"/>
<stop offset="0.32" stop-color="#F4F4F4"/>
<stop offset="1" stop-color="#C1C1C1"/>
</linearGradient>
<linearGradient id="paint10_linear_473_4851" x1="506.539" y1="33.0737" x2="-6.58811" y2="33.0737" gradientUnits="userSpaceOnUse">
<stop stop-color="#EAEAEA"/>
<stop offset="0.02" stop-color="#E1E1E1"/>
<stop offset="0.1" stop-color="#C0C0C0"/>
<stop offset="0.18" stop-color="#A9A9A9"/>
<stop offset="0.26" stop-color="#9B9B9B"/>
<stop offset="0.32" stop-color="#969696"/>
<stop offset="0.42" stop-color="#B4B4B4"/>
<stop offset="0.55" stop-color="#D7D7D7"/>
<stop offset="0.66" stop-color="#ECECEC"/>
<stop offset="0.73" stop-color="#F4F4F4"/>
<stop offset="0.8" stop-color="#EEEEEE"/>
<stop offset="0.89" stop-color="#DCDCDC"/>
<stop offset="1" stop-color="#C1C1C1"/>
</linearGradient>
<linearGradient id="paint11_linear_473_4851" x1="499.953" y1="33.5068" x2="-0.0470579" y2="33.5068" gradientUnits="userSpaceOnUse">
<stop stop-color="#EAEAEA"/>
<stop offset="0.02" stop-color="#E1E1E1"/>
<stop offset="0.1" stop-color="#C0C0C0"/>
<stop offset="0.18" stop-color="#A9A9A9"/>
<stop offset="0.26" stop-color="#9B9B9B"/>
<stop offset="0.32" stop-color="#F4F4F4"/>
<stop offset="1" stop-color="#C1C1C1"/>
</linearGradient>
<linearGradient id="paint12_linear_473_4851" x1="506.539" y1="33.0737" x2="-6.58811" y2="33.0737" gradientUnits="userSpaceOnUse">
<stop stop-color="#EAEAEA"/>
<stop offset="0.02" stop-color="#E1E1E1"/>
<stop offset="0.1" stop-color="#C0C0C0"/>
<stop offset="0.18" stop-color="#A9A9A9"/>
<stop offset="0.26" stop-color="#9B9B9B"/>
<stop offset="0.32" stop-color="#969696"/>
<stop offset="0.42" stop-color="#B4B4B4"/>
<stop offset="0.55" stop-color="#D7D7D7"/>
<stop offset="0.66" stop-color="#ECECEC"/>
<stop offset="0.73" stop-color="#F4F4F4"/>
<stop offset="0.8" stop-color="#EEEEEE"/>
<stop offset="0.89" stop-color="#DCDCDC"/>
<stop offset="1" stop-color="#C1C1C1"/>
</linearGradient>
<linearGradient id="paint13_linear_473_4851" x1="499.953" y1="33.5068" x2="-0.0470579" y2="33.5068" gradientUnits="userSpaceOnUse">
<stop stop-color="#EAEAEA"/>
<stop offset="0.02" stop-color="#E1E1E1"/>
<stop offset="0.1" stop-color="#C0C0C0"/>
<stop offset="0.18" stop-color="#A9A9A9"/>
<stop offset="0.26" stop-color="#9B9B9B"/>
<stop offset="0.32" stop-color="#F4F4F4"/>
<stop offset="1" stop-color="#C1C1C1"/>
</linearGradient>
<linearGradient id="paint14_linear_473_4851" x1="506.539" y1="33.0737" x2="-6.58811" y2="33.0737" gradientUnits="userSpaceOnUse">
<stop stop-color="#EAEAEA"/>
<stop offset="0.02" stop-color="#E1E1E1"/>
<stop offset="0.1" stop-color="#C0C0C0"/>
<stop offset="0.18" stop-color="#A9A9A9"/>
<stop offset="0.26" stop-color="#9B9B9B"/>
<stop offset="0.32" stop-color="#969696"/>
<stop offset="0.42" stop-color="#B4B4B4"/>
<stop offset="0.55" stop-color="#D7D7D7"/>
<stop offset="0.66" stop-color="#ECECEC"/>
<stop offset="0.73" stop-color="#F4F4F4"/>
<stop offset="0.8" stop-color="#EEEEEE"/>
<stop offset="0.89" stop-color="#DCDCDC"/>
<stop offset="1" stop-color="#C1C1C1"/>
</linearGradient>
<linearGradient id="paint15_linear_473_4851" x1="499.953" y1="33.5068" x2="-0.0470579" y2="33.5068" gradientUnits="userSpaceOnUse">
<stop stop-color="#EAEAEA"/>
<stop offset="0.02" stop-color="#E1E1E1"/>
<stop offset="0.1" stop-color="#C0C0C0"/>
<stop offset="0.18" stop-color="#A9A9A9"/>
<stop offset="0.26" stop-color="#9B9B9B"/>
<stop offset="0.32" stop-color="#F4F4F4"/>
<stop offset="1" stop-color="#C1C1C1"/>
</linearGradient>
</defs>
</svg>
