<svg width="446" height="539" viewBox="0 0 446 539" fill="none" xmlns="http://www.w3.org/2000/svg">
<path d="M-3.77933 457.046L-9.94862 445.855L-12.567 458.373L-23.7578 464.542L-11.2578 467.161L-5.07058 478.352L-2.45223 465.834L8.73862 459.664L-3.77933 457.046Z" fill="#FEAA00"/>
<path d="M-0.192023 439.399C0.566621 439.285 1.33952 439.477 1.95668 439.933C2.57384 440.388 2.98469 441.071 3.09885 441.829C3.213 442.588 3.02112 443.361 2.56539 443.978C2.10967 444.595 1.42747 445.006 0.668828 445.12C0.293185 445.177 -0.0899353 445.159 -0.458614 445.067C-0.827293 444.976 -1.17435 444.812 -1.47993 444.587C-1.78552 444.361 -2.04367 444.077 -2.23964 443.752C-2.43562 443.427 -2.56557 443.066 -2.6221 442.69C-2.67862 442.314 -2.6606 441.931 -2.56906 441.563C-2.47753 441.194 -2.31429 440.847 -2.08864 440.541C-1.86299 440.236 -1.57932 439.978 -1.2539 439.782C-0.92848 439.586 -0.567666 439.456 -0.192023 439.399Z" fill="#FEAA00"/>
<path d="M304.83 476.893L298.607 465.595L295.97 478.22L284.672 484.443L297.297 487.098L303.521 498.378L306.157 485.753L317.455 479.529L304.83 476.893Z" fill="#FEAA00"/>
<path d="M308.382 459.085C308.954 458.999 309.539 459.084 310.062 459.331C310.585 459.577 311.024 459.973 311.322 460.469C311.62 460.965 311.764 461.538 311.737 462.116C311.709 462.694 311.51 463.25 311.166 463.715C310.822 464.18 310.347 464.532 309.803 464.727C309.258 464.922 308.668 464.952 308.107 464.811C307.545 464.67 307.039 464.367 306.65 463.938C306.262 463.509 306.009 462.975 305.925 462.402C305.812 461.637 306.007 460.858 306.468 460.236C306.928 459.614 307.617 459.2 308.382 459.085Z" fill="#FEAA00"/>
<path d="M8.65086 5.1576C8.75551 6.26219 8.53044 7.37303 8.00411 8.34979C7.47779 9.32655 6.67384 10.1254 5.69373 10.6455C4.71363 11.1656 3.60134 11.3835 2.49744 11.2718C1.39353 11.1601 0.347492 10.7238 -0.508563 10.0179C-1.36462 9.31207 -1.99225 8.36832 -2.31225 7.30592C-2.63225 6.24352 -2.63025 5.11012 -2.30645 4.04887C-1.98265 2.98763 -1.3516 2.04614 -0.49302 1.34334C0.365556 0.640537 1.41317 0.207945 2.51747 0.100198C3.25246 0.028485 3.99438 0.102515 4.70071 0.318024C5.40704 0.533534 6.0639 0.886285 6.63367 1.35609C7.20344 1.8259 7.67488 2.40352 8.02102 3.05585C8.36718 3.70818 8.58121 4.42241 8.65086 5.1576Z" fill="white"/>
<path d="M78.8779 54.5306L72.7086 43.3398L70.0903 55.8577L58.8994 62.027L71.3994 64.6454L77.5867 75.8362L80.205 63.3183L91.3958 57.149L78.8779 54.5306Z" fill="#FEAA00"/>
<path d="M82.4652 36.8837C83.2238 36.7696 83.9967 36.9615 84.6139 37.4173C85.2311 37.873 85.6419 38.5552 85.7561 39.3138C85.8702 40.0725 85.6783 40.8454 85.2226 41.4625C84.7669 42.0797 84.0847 42.4905 83.3261 42.6047C82.9504 42.6612 82.5673 42.6432 82.1986 42.5517C81.8299 42.4602 81.4829 42.2969 81.1773 42.0712C80.8717 41.8456 80.6136 41.562 80.4176 41.2365C80.2216 40.9111 80.0917 40.5503 80.0351 40.1747C79.9786 39.799 79.9966 39.4159 80.0882 39.0472C80.1797 38.6785 80.3429 38.3315 80.5686 38.0259C80.7942 37.7203 81.0779 37.4622 81.4033 37.2662C81.7287 37.0702 82.0896 36.9403 82.4652 36.8837Z" fill="#FEAA00"/>
<path d="M338.499 476.323C337.893 478.302 336.713 480.057 335.11 481.366C333.506 482.676 331.551 483.481 329.491 483.679C327.43 483.878 325.357 483.462 323.533 482.483C321.709 481.504 320.216 480.006 319.242 478.179C318.269 476.353 317.858 474.278 318.063 472.218C318.268 470.158 319.078 468.205 320.392 466.606C321.707 465.006 323.465 463.832 325.446 463.231C327.427 462.631 329.542 462.63 331.523 463.231C334.184 464.042 336.413 465.877 337.722 468.332C339.03 470.787 339.31 473.661 338.499 476.323Z" fill="white"/>
<path d="M405.009 64.9326L399.886 55.6574L397.725 66.0251L388.45 71.1483L398.817 73.3092L403.941 82.5844L406.102 72.2167L415.377 67.0935L405.009 64.9326Z" fill="#FEAA00"/>
<path d="M407.64 49.8884C408.263 49.8038 408.894 49.9639 409.401 50.3353C409.909 50.7066 410.252 51.2601 410.359 51.8795C410.442 52.3563 410.38 52.8471 410.182 53.2886C409.984 53.7302 409.658 54.1024 409.247 54.3576C408.836 54.6127 408.358 54.7391 407.874 54.7206C407.39 54.702 406.923 54.5394 406.533 54.2535C406.142 53.9676 405.846 53.5714 405.682 53.1159C405.519 52.6605 405.495 52.1665 405.614 51.6973C405.733 51.2282 405.989 50.8053 406.35 50.483C406.711 50.1607 407.16 49.9536 407.64 49.8884Z" fill="#FEAA00"/>
<path d="M379.991 116.875C379.506 118.531 378.539 120.004 377.214 121.109C375.889 122.214 374.266 122.9 372.55 123.08C370.834 123.26 369.104 122.925 367.579 122.119C366.054 121.313 364.803 120.071 363.985 118.552C363.167 117.033 362.82 115.305 362.987 113.588C363.153 111.871 363.827 110.243 364.922 108.909C366.016 107.576 367.483 106.598 369.135 106.101C370.787 105.603 372.549 105.608 374.198 106.115C376.385 106.786 378.218 108.292 379.302 110.306C380.387 112.32 380.634 114.68 379.991 116.875Z" fill="white"/>
<path d="M304.395 259.709L323.064 252.786L304.395 245.864L297.472 227.177L290.532 245.864L271.862 252.786L290.532 259.709L297.472 278.396L304.395 259.709Z" fill="#FEAA00"/>
<path d="M330.774 269.214C330.774 270.104 330.51 270.974 330.016 271.715C329.521 272.455 328.818 273.032 327.996 273.373C327.173 273.713 326.268 273.802 325.395 273.629C324.522 273.455 323.719 273.026 323.09 272.397C322.46 271.767 322.032 270.965 321.858 270.092C321.684 269.219 321.773 268.314 322.114 267.491C322.455 266.669 323.032 265.966 323.772 265.471C324.512 264.976 325.383 264.712 326.273 264.712C327.467 264.712 328.612 265.187 329.456 266.031C330.3 266.875 330.774 268.02 330.774 269.214Z" fill="#FEAA00"/>
</svg>
