<?xml version="1.0" encoding="utf-8"?>
<!-- Generator: Adobe Illustrator 24.2.3, SVG Export Plug-In . SVG Version: 6.00 Build 0)  -->
<svg version="1.1" id="Layer_1" xmlns="http://www.w3.org/2000/svg" xmlns:xlink="http://www.w3.org/1999/xlink" x="0px" y="0px"
	 width="222px" height="164px" viewBox="0 0 222 164" style="enable-background:new 0 0 222 164;" xml:space="preserve">
<style type="text/css">
	.st0{fill:url(#SVGID_1_);}
	.st1{fill:#294563;}
	.st2{fill:url(#SVGID_2_);}
	.st3{fill:url(#SVGID_3_);}
	.st4{fill:url(#SVGID_4_);}
	.st5{fill:url(#SVGID_5_);}
	.st6{fill:url(#SVGID_6_);}
	.st7{fill:url(#SVGID_7_);}
	.st8{fill:url(#SVGID_8_);}
	.st9{fill:url(#SVGID_9_);}
	.st10{fill:url(#SVGID_10_);}
	.st11{fill:url(#SVGID_11_);}
	.st12{fill:url(#SVGID_12_);}
	.st13{fill:url(#SVGID_13_);}
	.st14{fill:#E8A3A3;}
	.st15{fill:#F1CEB7;}
	.st16{fill:url(#SVGID_14_);}
	.st17{fill:url(#SVGID_15_);}
	.st18{fill:url(#SVGID_16_);}
	.st19{fill:url(#SVGID_17_);}
</style>
<linearGradient id="SVGID_1_" gradientUnits="userSpaceOnUse" x1="109.3991" y1="-2.1362" x2="110.6801" y2="78.828" gradientTransform="matrix(1 0 0 -1 0 166)">
	<stop  offset="0" style="stop-color:#294563"/>
	<stop  offset="1" style="stop-color:#172636"/>
</linearGradient>
<path class="st0" d="M1.6,116.3l7.8,23.2c1.2,3.5,3.4,6.5,6.4,8.7s6.6,3.4,10.2,3.4l73.6,1c0.5,0,1,0.1,1.4,0.3
	c0.5,0.2,0.9,0.5,1.2,0.8s0.6,0.8,0.8,1.2c0.2,0.5,0.3,0.9,0.3,1.4v6.8l15.6-9.7c0.6-0.4,1.3-0.6,2.1-0.6l71.9,1
	c4,0.1,7.9-1.2,11.1-3.7c3.2-2.4,5.4-5.9,6.4-9.7l9.1-35.2c0.7-2.7,0.7-5.5,0.1-8.3c-0.6-2.7-1.8-5.3-3.6-7.4c-1.8-2.2-4-3.9-6.6-5
	c-2.6-1.1-5.3-1.6-8.1-1.5L17.6,92.8c-2.7,0.1-5.4,0.9-7.8,2.3c-2.4,1.4-4.4,3.2-6,5.5c-1.5,2.3-2.5,4.9-2.9,7.6
	C0.5,110.9,0.7,113.7,1.6,116.3z"/>
<path class="st1" d="M119,153.5c1-0.5,2.1-0.7,3.3-0.5l3.4,0.1l6.7,0.2l40.4,1l13.5,0.3c3.9,0,9.9,0.6,13.6-1.1
	c2.8-1,5.2-2.7,7.2-4.9c2-2.2,3.4-4.8,4.2-7.7c0.6-2.1,2-7.6,2.6-9.8c2.3-8.7,4.6-17.3,6.8-26.1c1.1-4.7,0.3-9.7-2.1-13.8
	c-1.8-3.1-4.5-5.6-7.7-7.3c-3.2-1.6-6.8-2.4-10.4-2.1l-6.7,0.3c-43.2,2.1-131.4,7-174.9,9.6c-9.4-0.2-18.3,7.5-18.8,17.1
	c-0.5,4.6,1.5,9,3,13.3l4.5,12.7l1.1,3.2c1,3.9,3.3,7.3,6.5,9.7s7,3.8,11,3.9c-3.9-0.2-7.7-1.6-10.7-4.1c-3-2.5-5.2-5.9-6.2-9.7
	l-1.1-3.2L4,121.9c-1.3-4.2-3.2-8.4-2.6-12.8c0.4-4.3,2.5-8.4,5.8-11.2c3.3-2.9,7.5-4.4,11.9-4.3c43.5-2,131.6-6.4,174.9-8.8
	l6.7-0.4c4.2-0.4,8.5,0.8,11.9,3.4c2.5,1.9,4.4,4.6,5.5,7.5c1.1,3,1.3,6.2,0.6,9.3l-6.6,26.1c-0.5,2.2-1.9,7.7-2.5,9.8
	c-0.7,2.6-2,5-3.7,7c-1.8,2-4,3.6-6.5,4.5c-3.4,1.7-9.3,1.1-13,1.1l-13.5-0.1l-40.4-0.1h-10.1C121.1,152.8,120,153,119,153.5
	L119,153.5z"/>
<linearGradient id="SVGID_2_" gradientUnits="userSpaceOnUse" x1="74.8765" y1="125.8441" x2="73.0954" y2="76.8987" gradientTransform="matrix(1 0 0 -1 0 166)">
	<stop  offset="0" style="stop-color:#E3818C"/>
	<stop  offset="1" style="stop-color:#DF6875"/>
</linearGradient>
<path class="st2" d="M100.5,62.4l-59.2-0.7l-0.9,20.8l38.2,6.5l2.2,0.3l24.9,4.2l1.2-31.1L100.5,62.4z"/>
<linearGradient id="SVGID_3_" gradientUnits="userSpaceOnUse" x1="138.1248" y1="58.7772" x2="140.7628" y2="131.275" gradientTransform="matrix(1 0 0 -1 0 166)">
	<stop  offset="0" style="stop-color:#E3818C"/>
	<stop  offset="1" style="stop-color:#DF6875"/>
</linearGradient>
<path class="st3" d="M106.9,62.4l-1.2,31.1l61.8-5.9l4.1-0.4l0.9-20.8L106.9,62.4z"/>
<linearGradient id="SVGID_4_" gradientUnits="userSpaceOnUse" x1="84.4948" y1="141.4104" x2="83.2998" y2="108.5701" gradientTransform="matrix(1 0 0 -1 0 166)">
	<stop  offset="0" style="stop-color:#ECB993"/>
	<stop  offset="1" style="stop-color:#E58D5B"/>
</linearGradient>
<path class="st4" d="M92.2,54.8c-9.4-4.1-19.4-9-22.8-12.1c-0.5-0.5-1-0.9-1.4-1.5C63,35.1,65.4,26.5,65.6,26
	c-7.2,7.3-10.7,20.1-9.5,25.7c1.3,6.1,33.3,9.7,44.3,10.7l6.5,0.1l4,0.2C110.4,62.4,101.6,59,92.2,54.8z"/>
<linearGradient id="SVGID_5_" gradientUnits="userSpaceOnUse" x1="65.3058" y1="17.0048" x2="70.1735" y2="150.774" gradientTransform="matrix(1 0 0 -1 0 166)">
	<stop  offset="0" style="stop-color:#ECB993"/>
	<stop  offset="1" style="stop-color:#E58D5B"/>
</linearGradient>
<path class="st5" d="M58.7,85.6L78.5,89l0-0.2l1.1-26.6l-22.2-0.2l-1,23.4L58.7,85.6z"/>
<linearGradient id="SVGID_6_" gradientUnits="userSpaceOnUse" x1="83.2857" y1="-8.074" x2="89.5142" y2="163.0927" gradientTransform="matrix(1 0 0 -1 0 166)">
	<stop  offset="0" style="stop-color:#ECB993"/>
	<stop  offset="1" style="stop-color:#E58D5B"/>
</linearGradient>
<path class="st6" d="M65.6,25.9C65.4,26.5,63,35,68,41.2c6.8-7.6,20.3,8.5,24.2,13.7c9.4,4.2,18.2,7.7,18.8,7.8
	c-0.1-0.1-0.3-0.6-0.8-1.4c-0.9-1.6-2.6-4.5-4.8-8l-0.1-0.2c-8.2-13-23.1-34.5-31.8-32.1C70.5,22,67.7,23.6,65.6,25.9L65.6,25.9z"/>
<linearGradient id="SVGID_7_" gradientUnits="userSpaceOnUse" x1="101.8274" y1="151.7741" x2="99.9291" y2="99.5928" gradientTransform="matrix(1 0 0 -1 0 166)">
	<stop  offset="0" style="stop-color:#ECB993"/>
	<stop  offset="1" style="stop-color:#E58D5B"/>
</linearGradient>
<path class="st7" d="M89.6,26.5l16.3,27.7l0.1,0.2c2.3,3.6,4,6.6,5,8.3l0.9-0.2c0,0,0-0.6,0-1.7c-0.1-2-0.3-5.7-0.9-10.2
	c-1.2-9.7-3.7-23.5-9.3-34.2C101.6,16.5,93.3,20.6,89.6,26.5z"/>
<linearGradient id="SVGID_8_" gradientUnits="userSpaceOnUse" x1="121.2669" y1="150.5726" x2="124.2039" y2="100.024" gradientTransform="matrix(1 0 0 -1 0 166)">
	<stop  offset="0" style="stop-color:#ECB993"/>
	<stop  offset="1" style="stop-color:#E58D5B"/>
</linearGradient>
<path class="st8" d="M123.6,30.1c6.2-9.1,12.2-10,12.2-10c-4.4-6.3-12-11.4-18.7-6.1c-8.4,6.8-8.4,29-8.1,37.2
	c1.5,6.7,2,11.4,2,11.4s0.7-1.1,1.9-2.9C115.5,45.2,119.6,36,123.6,30.1z"/>
<linearGradient id="SVGID_9_" gradientUnits="userSpaceOnUse" x1="112.1019" y1="-7.6634" x2="116.3219" y2="108.2961" gradientTransform="matrix(1 0 0 -1 0 166)">
	<stop  offset="0" style="stop-color:#ECB993"/>
	<stop  offset="1" style="stop-color:#E58D5B"/>
</linearGradient>
<path class="st9" d="M121.3,63.3L111,62.7C111.3,62.7,115.5,63.1,121.3,63.3z"/>
<linearGradient id="SVGID_10_" gradientUnits="userSpaceOnUse" x1="138.4482" y1="-9.1169" x2="128.5112" y2="161.8754" gradientTransform="matrix(1 0 0 -1 0 166)">
	<stop  offset="0" style="stop-color:#ECB993"/>
	<stop  offset="1" style="stop-color:#E58D5B"/>
</linearGradient>
<path class="st10" d="M121.5,47.5c5.4-7.2,12-15.1,17.9-19.2c-0.6-2.9-1.8-5.7-3.5-8.1c0,0-6,1-12.2,10
	C124.5,34.4,125.4,42,121.5,47.5z"/>
<linearGradient id="SVGID_11_" gradientUnits="userSpaceOnUse" x1="87.3691" y1="104.1439" x2="88.8425" y2="144.6336" gradientTransform="matrix(1 0 0 -1 0 166)">
	<stop  offset="0" style="stop-color:#1B1B50;stop-opacity:0"/>
	<stop  offset="1" style="stop-color:#1B1B50"/>
</linearGradient>
<path class="st11" d="M65.6,25.9C65.4,26.5,63,35,68,41.2c6.8-7.6,20.3,8.5,24.2,13.7c9.4,4.2,18.2,7.7,18.8,7.8
	c-0.1-0.1-0.3-0.6-0.8-1.4c-0.9-1.6-2.6-4.5-4.8-8l-0.1-0.2c-8.2-13-23.1-34.5-31.8-32.1C70.5,22,67.7,23.6,65.6,25.9L65.6,25.9z"/>
<linearGradient id="SVGID_12_" gradientUnits="userSpaceOnUse" x1="130.1966" y1="132.8688" x2="129.5306" y2="144.3185" gradientTransform="matrix(1 0 0 -1 0 166)">
	<stop  offset="0" style="stop-color:#1B1B50;stop-opacity:0"/>
	<stop  offset="1" style="stop-color:#1B1B50"/>
</linearGradient>
<path class="st12" d="M121.5,47.5c5.4-7.2,12-15.1,17.9-19.2c-0.6-2.9-1.8-5.7-3.5-8.1c0,0-6,1-12.2,10
	C124.5,34.4,125.4,42,121.5,47.5z"/>
<linearGradient id="SVGID_13_" gradientUnits="userSpaceOnUse" x1="142.0602" y1="14.212" x2="146.9281" y2="147.9935" gradientTransform="matrix(1 0 0 -1 0 166)">
	<stop  offset="0" style="stop-color:#ECB993"/>
	<stop  offset="1" style="stop-color:#E58D5B"/>
</linearGradient>
<path class="st13" d="M153.2,89l2.2-0.2l1-23.4l-22.2-1.4l-1.1,26.6l0,0.2L153.2,89z"/>
<path class="st14" d="M171.7,87.3l-0.9-19.1l-63.8-5.7l65.6,4L171.7,87.3z"/>
<path class="st14" d="M106.9,62.4l-1.2,31.1L40.4,82.5l64.1,9.1L106.9,62.4z"/>
<path class="st15" d="M65.6,25.9c-6.2,6.2-11,16.7-10.1,25.6c1.3,5.8,20.9,8.1,26.3,9c6.2,0.8,12.4,1.5,18.6,1.8
	c-12.2-1.8-24.7-3.2-36.6-6.7c-1.5-0.4-2.9-1-4.3-1.6c-1.3-0.6-2.7-1.5-3-2.7C55.7,42.6,59.9,32.6,65.6,25.9L65.6,25.9z"/>
<path class="st15" d="M112.9,59.8c3.4-13.1,7.1-27.7,17.8-36.8c1.5-1.3,3.3-2.3,5.2-2.9c-2,0.4-3.9,1.2-5.5,2.4
	C118.9,31.1,114.8,46.2,112.9,59.8z"/>
<path class="st15" d="M101.6,16.5c9.2,21.3,9.4,46.3,9.4,46.3s0.3-0.7,0.8-1.8c-0.1-2-0.3-5.7-0.9-10.2
	C109.8,41,107.2,27.2,101.6,16.5z"/>
<linearGradient id="SVGID_14_" gradientUnits="userSpaceOnUse" x1="137.3086" y1="140.6089" x2="138.6636" y2="107.8324" gradientTransform="matrix(1 0 0 -1 0 166)">
	<stop  offset="0" style="stop-color:#ECB993"/>
	<stop  offset="1" style="stop-color:#E58D5B"/>
</linearGradient>
<path class="st16" d="M129.7,54.7c9.3-4.2,19.3-9.1,22.7-12.2c0.5-0.5,1-1,1.5-1.5c4.9-6.2,2.5-14.8,2.3-15.3
	c7.2,7.3,10.8,20.1,9.6,25.7c-1.3,6.1-33.3,9.9-44.3,11l-6.5,0.1l-4,0.3C111.5,62.4,120.3,58.9,129.7,54.7z"/>
<linearGradient id="SVGID_15_" gradientUnits="userSpaceOnUse" x1="139.2111" y1="-8.5959" x2="132.1461" y2="162.2262" gradientTransform="matrix(1 0 0 -1 0 166)">
	<stop  offset="0" style="stop-color:#ECB993"/>
	<stop  offset="1" style="stop-color:#E58D5B"/>
</linearGradient>
<path class="st17" d="M156.1,25.7c0.1,0.5,2.6,9.1-2.3,15.3c-6.9-7.6-20.2,8.6-24.1,13.7c-9.4,4.2-18.1,7.8-18.7,8
	c0-0.1,0.3-0.6,0.8-1.4c0.9-1.6,2.6-4.5,4.8-8l0.1-0.2c8.1-13.2,22.8-34.7,31.6-32.3C151.2,21.7,153.9,23.3,156.1,25.7L156.1,25.7z"
	/>
<linearGradient id="SVGID_16_" gradientUnits="userSpaceOnUse" x1="134.5782" y1="103.4159" x2="132.9072" y2="143.8348" gradientTransform="matrix(1 0 0 -1 0 166)">
	<stop  offset="0" style="stop-color:#1B1B50;stop-opacity:0"/>
	<stop  offset="1" style="stop-color:#1B1B50"/>
</linearGradient>
<path class="st18" d="M156.1,25.7c0.1,0.5,2.6,9.1-2.3,15.3c-6.9-7.6-20.2,8.6-24.1,13.7c-9.4,4.2-18.1,7.8-18.7,8
	c0-0.1,0.3-0.6,0.8-1.4c0.9-1.6,2.6-4.5,4.8-8l0.1-0.2c8.1-13.2,22.8-34.7,31.6-32.3C151.2,21.7,153.9,23.3,156.1,25.7L156.1,25.7z"
	/>
<path class="st15" d="M156.1,25.7c6.3,6.2,11.1,16.6,10.2,25.5c-1.3,5.8-20.8,8.2-26.2,9.2c-6.2,0.9-12.4,1.5-18.6,1.9
	c12.2-1.9,24.7-3.3,36.6-6.9c1.5-0.5,2.9-1,4.3-1.7c1.3-0.7,2.7-1.5,2.9-2.7C166.1,42.2,161.8,32.2,156.1,25.7L156.1,25.7z"/>
<linearGradient id="SVGID_17_" gradientUnits="userSpaceOnUse" x1="118.584" y1="103.37" x2="114.62" y2="77.1709" gradientTransform="matrix(1 0 0 -1 0 166)">
	<stop  offset="0" style="stop-color:#ECB993"/>
	<stop  offset="1" style="stop-color:#E58D5B"/>
</linearGradient>
<path class="st19" d="M106.9,62.4c6.6,10.2,5,23.9,5,23.9l15.4-4.4c-1-9.8-15.4-18.7-16.3-19.3L106.9,62.4z"/>
<path class="st15" d="M111,62.7c0.8,0.6,13.7,10.4,16.3,19.3C126.3,72.2,111.9,63.2,111,62.7z"/>
</svg>
