<svg width="56" height="56" viewBox="0 0 56 56" fill="none" xmlns="http://www.w3.org/2000/svg">
<g id="application 1" clip-path="url(#clip0_2438_8057)">
<g id="Group">
<g id="Group_2">
<g id="Group_3">
<path id="Vector" d="M53.4736 18.8894H2.52637C1.13109 18.8894 0 20.0205 0 21.4158V53.4735C0 54.8689 1.13109 56 2.52637 56H53.4735C54.8689 56 56 54.8689 56 53.4736V21.4158C56 20.0205 54.8689 18.8894 53.4736 18.8894Z" fill="#294563"/>
<path id="Vector_2" d="M1.61523 22.5421V52.3471C1.61523 53.2543 2.3507 53.9897 3.2579 53.9897H52.7421C53.6493 53.9897 54.3848 53.2542 54.3848 52.347V22.5421C54.3848 21.6349 53.6493 20.8994 52.7421 20.8994H3.2579C2.3507 20.8995 1.61523 21.6349 1.61523 22.5421Z" fill="#546A82"/>
</g>
<path id="Vector_3" d="M49.8004 24.321V50.5674C49.8004 51.3891 49.1342 52.0552 48.3126 52.0552H5.00042C4.1793 52.0552 3.51367 51.3896 3.51367 50.5685V43.7403C3.51367 43.2148 3.9396 42.7889 4.46512 42.7889C4.99064 42.7889 5.41657 42.363 5.41657 41.8374V33.052C5.41657 32.5265 4.99064 32.1006 4.46512 32.1006C3.9396 32.1006 3.51367 31.6747 3.51367 31.1491V24.3221C3.51367 23.5004 4.17985 22.8342 5.00152 22.8342H48.3137C49.1348 22.8342 49.8004 23.4999 49.8004 24.321Z" fill="url(#paint0_linear_2438_8057)"/>
<path id="Vector_4" d="M49.7996 50.5674V24.321C49.7996 23.4999 49.1339 22.8342 48.3128 22.8342H8.72852V35.0823L25.7015 52.0552H48.3117C49.1335 52.0552 49.7996 51.3892 49.7996 50.5674Z" fill="url(#paint1_linear_2438_8057)"/>
<path id="Vector_5" d="M49.8013 33.243H38.2949V42.4117L47.9385 52.0552H48.3134C49.1352 52.0552 49.8013 51.389 49.8013 50.5674V33.243Z" fill="url(#paint2_linear_2438_8057)"/>
</g>
<path id="Vector_6" d="M34.3045 40.2754H21.6957C20.5154 40.2754 19.5586 41.2322 19.5586 42.4125V43.2673C19.5586 44.4476 20.5154 45.4044 21.6957 45.4044H34.3045C35.4848 45.4044 36.4416 44.4476 36.4416 43.2673V42.4125C36.4416 41.2322 35.4848 40.2754 34.3045 40.2754Z" fill="url(#paint3_linear_2438_8057)"/>
<g id="Group_4">
<path id="Vector_7" d="M43.043 36.8941H12.9568C9.68207 36.8941 7.02734 34.2394 7.02734 30.9647V5.92941C7.02734 2.65473 9.68207 0 12.9568 0H43.043C46.3177 0 48.9724 2.65473 48.9724 5.92941V30.9647C48.9724 34.2394 46.3177 36.8941 43.043 36.8941Z" fill="#33B2C7"/>
<path id="Vector_8" d="M48.9733 30.9647V12.6274L47.4086 11.0627L8.8125 13.149L16.9517 21.2882V34.4991L19.3468 36.8941H43.0439C46.3186 36.8941 48.9733 34.2394 48.9733 30.9647Z" fill="#5BC2D2"/>
<g id="Group_5">
<g id="Group_6">
<path id="Vector_9" d="M43.4236 13.071V23.5231C43.4236 24.0758 43.2066 24.6107 42.807 24.9926C40.3486 27.3423 34.6444 28.9877 28.0009 28.9877C21.3573 28.9877 15.6531 27.3423 13.1947 24.9927C12.7951 24.6108 12.5781 24.0759 12.5781 23.5232V13.071H43.4236Z" fill="url(#paint4_linear_2438_8057)"/>
<path id="Vector_10" d="M43.4236 13.071V23.5228C43.4236 24.0763 43.2072 24.6107 42.8066 24.9922C40.3482 27.3424 34.644 28.9877 28.0009 28.9877C27.7641 28.9877 27.53 28.9849 27.2959 28.9809L12.5781 14.2631V13.071H43.4236Z" fill="url(#paint5_linear_2438_8057)"/>
<g id="Group_7">
<path id="Vector_11" d="M25.6262 6.21957L9.26146 10.5816C7.82951 10.9633 7.82951 12.9955 9.26146 13.3771L25.6262 17.7392C27.1816 18.1538 28.8184 18.1538 30.3737 17.7392L46.7384 13.3771C48.1704 12.9955 48.1704 10.9633 46.7384 10.5816L30.3737 6.21957C28.8183 5.80506 27.1816 5.80506 25.6262 6.21957Z" fill="url(#paint6_linear_2438_8057)"/>
<path id="Vector_12" d="M25.6262 6.21957L9.26146 10.5816C7.82951 10.9633 7.82951 12.9955 9.26146 13.3771L25.6262 17.7392C27.1816 18.1538 28.8184 18.1538 30.3737 17.7392L46.7384 13.3771C48.1704 12.9955 48.1704 10.9633 46.7384 10.5816L30.3737 6.21957C28.8183 5.80506 27.1816 5.80506 25.6262 6.21957Z" fill="url(#paint7_linear_2438_8057)"/>
<path id="Vector_13" d="M30.3737 6.21957L46.7384 10.5816C48.1704 10.9633 48.1704 12.9955 46.7384 13.3771L30.3737 17.7392C28.8183 18.1538 27.1815 18.1538 25.6262 17.7392L9.26146 13.3771C7.82951 12.9955 7.82951 10.9633 9.26146 10.5816L25.6262 6.21957C27.1816 5.80506 28.8183 5.80506 30.3737 6.21957Z" fill="url(#paint8_linear_2438_8057)"/>
<path id="Vector_14" d="M27.5233 10.6168L19.1662 12.6626C17.8873 12.9756 16.9871 14.1198 16.9824 15.4356L25.6252 17.7394C27.1806 18.154 28.8174 18.154 30.3727 17.7394L33.7463 16.8401L27.5233 10.6168Z" fill="url(#paint9_linear_2438_8057)"/>
</g>
<path id="Vector_15" d="M12.5781 19.2456V23.523C12.5781 24.0758 12.7951 24.6106 13.1947 24.9925C15.653 27.3421 21.3573 28.9875 28.0009 28.9875C34.6444 28.9875 40.3486 27.3421 42.807 24.9925C43.2066 24.6106 43.4236 24.0758 43.4236 23.523V19.2456H12.5781Z" fill="url(#paint10_linear_2438_8057)"/>
<path id="Vector_16" d="M27.9994 28.9876C34.2384 28.9876 39.6487 27.5364 42.3204 25.4137L29.9779 13.071H18.2465C17.4742 13.5922 16.9824 14.4719 16.9824 15.4458V27.2032C19.8624 28.3094 23.7367 28.9876 27.9994 28.9876Z" fill="url(#paint11_linear_2438_8057)"/>
</g>
<g id="Group_8">
<path id="Vector_17" d="M16.9661 30.3448C16.5113 30.3448 16.1426 29.9761 16.1426 29.5213V15.7077C16.1426 13.9499 17.3399 12.451 19.0544 12.0627L26.7215 10.3259C27.1648 10.2252 27.6062 10.5036 27.7066 10.9472C27.8072 11.3908 27.5289 11.8317 27.0853 11.9322L19.4181 13.669C18.4593 13.8862 17.7896 14.7246 17.7896 15.7077V29.5213C17.7896 29.9761 17.4209 30.3448 16.9661 30.3448Z" fill="url(#paint12_linear_2438_8057)"/>
<g id="Group_9">
<path id="Vector_18" d="M19.033 30.4729C19.033 31.6049 18.1154 34.4991 16.9833 34.4991C15.8512 34.4991 14.9336 31.605 14.9336 30.4729C14.9336 29.341 15.8512 28.4232 16.9833 28.4232C18.1154 28.4232 19.033 29.3408 19.033 30.4729Z" fill="url(#paint13_linear_2438_8057)"/>
<path id="Vector_19" d="M18.0086 30.4729C18.0086 31.6049 17.5497 34.4991 16.9838 34.4991C16.4179 34.4991 15.959 31.605 15.959 30.4729C15.959 29.341 16.4179 28.4232 16.9838 28.4232C17.5497 28.4232 18.0086 29.3408 18.0086 30.4729Z" fill="url(#paint14_linear_2438_8057)"/>
<path id="Vector_20" d="M14.9355 30.5095C14.9542 31.6653 15.8639 34.499 16.9844 34.499C18.1047 34.499 19.0145 31.6652 19.0332 30.5095H14.9355Z" fill="url(#paint15_linear_2438_8057)"/>
</g>
</g>
</g>
</g>
<path id="Vector_21" d="M37.5633 41.13L35.6564 31.8186C35.603 31.5565 35.5925 31.2993 35.6206 31.0527C35.7458 29.9317 36.6473 29.0302 37.7683 28.9051C38.015 28.8769 38.2721 28.8874 38.5342 28.9409L47.8455 30.8477C49.7483 31.2377 50.4535 33.5872 49.0804 34.9603L47.7363 36.3044L52.5483 41.1165C52.9783 41.5465 52.9783 42.2435 52.5483 42.6734L49.3891 45.8326C48.9591 46.2626 48.262 46.2626 47.8321 45.8326L43.0201 41.0206L41.676 42.3647C40.3028 43.738 37.9532 43.0329 37.5633 41.13Z" fill="url(#paint16_linear_2438_8057)"/>
</g>
</g>
<defs>
<linearGradient id="paint0_linear_2438_8057" x1="18.5433" y1="29.3311" x2="43.6963" y2="54.4841" gradientUnits="userSpaceOnUse">
<stop stop-color="#FEF0AE"/>
<stop offset="1" stop-color="#FBC56D"/>
</linearGradient>
<linearGradient id="paint1_linear_2438_8057" x1="39.2916" y1="54.5466" x2="25.4563" y2="20.0682" gradientUnits="userSpaceOnUse">
<stop stop-color="#DC8758" stop-opacity="0"/>
<stop offset="0.2153" stop-color="#DD8654" stop-opacity="0.215"/>
<stop offset="0.4291" stop-color="#E28448" stop-opacity="0.429"/>
<stop offset="0.6424" stop-color="#EA8034" stop-opacity="0.642"/>
<stop offset="0.8542" stop-color="#F47B18" stop-opacity="0.854"/>
<stop offset="1" stop-color="#FE7701"/>
</linearGradient>
<linearGradient id="paint2_linear_2438_8057" x1="52.1931" y1="45.9724" x2="43.4441" y2="37.2233" gradientUnits="userSpaceOnUse">
<stop stop-color="#DC8758" stop-opacity="0"/>
<stop offset="0.2153" stop-color="#DD8654" stop-opacity="0.215"/>
<stop offset="0.4291" stop-color="#E28448" stop-opacity="0.429"/>
<stop offset="0.6424" stop-color="#EA8034" stop-opacity="0.642"/>
<stop offset="0.8542" stop-color="#F47B18" stop-opacity="0.854"/>
<stop offset="1" stop-color="#FE7701"/>
</linearGradient>
<linearGradient id="paint3_linear_2438_8057" x1="23.7329" y1="27.0439" x2="29.8236" y2="49.5901" gradientUnits="userSpaceOnUse">
<stop stop-color="#DC8758" stop-opacity="0"/>
<stop offset="0.2153" stop-color="#DD8654" stop-opacity="0.215"/>
<stop offset="0.4291" stop-color="#E28448" stop-opacity="0.429"/>
<stop offset="0.6424" stop-color="#EA8034" stop-opacity="0.642"/>
<stop offset="0.8542" stop-color="#F47B18" stop-opacity="0.854"/>
<stop offset="1" stop-color="#FE7701"/>
</linearGradient>
<linearGradient id="paint4_linear_2438_8057" x1="23.7292" y1="16.9167" x2="32.6588" y2="21.4267" gradientUnits="userSpaceOnUse">
<stop stop-color="#5A5A5A"/>
<stop offset="1" stop-color="#444444"/>
</linearGradient>
<linearGradient id="paint5_linear_2438_8057" x1="26.077" y1="25.1309" x2="29.2793" y2="14.0028" gradientUnits="userSpaceOnUse">
<stop stop-color="#433F43" stop-opacity="0"/>
<stop offset="1" stop-color="#1A1A1A"/>
</linearGradient>
<linearGradient id="paint6_linear_2438_8057" x1="25.3758" y1="7.36944" x2="32.8845" y2="20.5604" gradientUnits="userSpaceOnUse">
<stop stop-color="#5A5A5A"/>
<stop offset="1" stop-color="#444444"/>
</linearGradient>
<linearGradient id="paint7_linear_2438_8057" x1="27.4043" y1="14.3624" x2="26.5924" y2="17.6095" gradientUnits="userSpaceOnUse">
<stop stop-color="#433F43" stop-opacity="0"/>
<stop offset="1" stop-color="#1A1A1A"/>
</linearGradient>
<linearGradient id="paint8_linear_2438_8057" x1="28.5957" y1="14.3624" x2="29.4075" y2="17.6095" gradientUnits="userSpaceOnUse">
<stop stop-color="#433F43" stop-opacity="0"/>
<stop offset="1" stop-color="#1A1A1A"/>
</linearGradient>
<linearGradient id="paint9_linear_2438_8057" x1="28.8982" y1="20.9775" x2="22.1636" y2="11.754" gradientUnits="userSpaceOnUse">
<stop stop-color="#433F43" stop-opacity="0"/>
<stop offset="1" stop-color="#1A1A1A"/>
</linearGradient>
<linearGradient id="paint10_linear_2438_8057" x1="28.0009" y1="23.7556" x2="28.0009" y2="29.8918" gradientUnits="userSpaceOnUse">
<stop stop-color="#433F43" stop-opacity="0"/>
<stop offset="1" stop-color="#1A1A1A"/>
</linearGradient>
<linearGradient id="paint11_linear_2438_8057" x1="22.6922" y1="21.0293" x2="17.7871" y2="21.0293" gradientUnits="userSpaceOnUse">
<stop stop-color="#433F43" stop-opacity="0"/>
<stop offset="1" stop-color="#1A1A1A"/>
</linearGradient>
<linearGradient id="paint12_linear_2438_8057" x1="13.9668" y1="11.826" x2="21.6531" y2="20.0248" gradientUnits="userSpaceOnUse">
<stop stop-color="#FEF0AE"/>
<stop offset="1" stop-color="#FBC56D"/>
</linearGradient>
<linearGradient id="paint13_linear_2438_8057" x1="14.347" y1="28.3681" x2="17.5088" y2="31.7406" gradientUnits="userSpaceOnUse">
<stop stop-color="#FEF0AE"/>
<stop offset="1" stop-color="#FBC56D"/>
</linearGradient>
<linearGradient id="paint14_linear_2438_8057" x1="15.7302" y1="30.1448" x2="18.8413" y2="33.2193" gradientUnits="userSpaceOnUse">
<stop stop-color="#DC8758" stop-opacity="0"/>
<stop offset="0.2153" stop-color="#DD8654" stop-opacity="0.215"/>
<stop offset="0.4291" stop-color="#E28448" stop-opacity="0.429"/>
<stop offset="0.6424" stop-color="#EA8034" stop-opacity="0.642"/>
<stop offset="0.8542" stop-color="#F47B18" stop-opacity="0.854"/>
<stop offset="1" stop-color="#FE7701"/>
</linearGradient>
<linearGradient id="paint15_linear_2438_8057" x1="16.9844" y1="31.6808" x2="16.9844" y2="34.4994" gradientUnits="userSpaceOnUse">
<stop stop-color="#DC8758" stop-opacity="0"/>
<stop offset="0.2153" stop-color="#DD8654" stop-opacity="0.215"/>
<stop offset="0.4291" stop-color="#E28448" stop-opacity="0.429"/>
<stop offset="0.6424" stop-color="#EA8034" stop-opacity="0.642"/>
<stop offset="0.8542" stop-color="#F47B18" stop-opacity="0.854"/>
<stop offset="1" stop-color="#FE7701"/>
</linearGradient>
<linearGradient id="paint16_linear_2438_8057" x1="39.4043" y1="32.6888" x2="49.8443" y2="43.1287" gradientUnits="userSpaceOnUse">
<stop stop-color="#EAF9FA"/>
<stop offset="1" stop-color="#B3DAFE"/>
</linearGradient>
<clipPath id="clip0_2438_8057">
<rect width="56" height="56" fill="white"/>
</clipPath>
</defs>
</svg>
