<svg width="20" height="21" viewBox="0 0 20 21" fill="none" xmlns="http://www.w3.org/2000/svg">
<g clip-path="url(#clip0_615_10411)">
<path d="M10 0.5C6.48574 0.5 3.55469 3.33086 3.55469 6.94531C3.55469 8.32039 3.96789 9.54657 4.7609 10.6955L9.50676 18.101C9.73699 18.461 10.2635 18.4603 10.4932 18.101L15.2597 10.6704C16.0356 9.57344 16.4453 8.28543 16.4453 6.94531C16.4453 3.39137 13.5539 0.5 10 0.5ZM10 9.875C8.38465 9.875 7.07031 8.56067 7.07031 6.94531C7.07031 5.32996 8.38465 4.01563 10 4.01563C11.6154 4.01563 12.9297 5.32996 12.9297 6.94531C12.9297 8.56067 11.6154 9.875 10 9.875Z" fill="white"/>
<path d="M14.5806 13.9646L11.6302 18.5774C10.8665 19.7681 9.12926 19.7642 8.36922 18.5785L5.41398 13.9658C2.81383 14.567 1.21094 15.6683 1.21094 16.9843C1.21094 19.268 5.73938 20.5 10 20.5C14.2606 20.5 18.7891 19.268 18.7891 16.9843C18.7891 15.6673 17.1839 14.5655 14.5806 13.9646Z" fill="white"/>
</g>
<defs>
<clipPath id="clip0_615_10411">
<rect width="20" height="20" fill="white" transform="translate(0 0.5)"/>
</clipPath>
</defs>
</svg>
