<svg width="20" height="21" viewBox="0 0 20 21" fill="none" xmlns="http://www.w3.org/2000/svg">
<g clip-path="url(#clip0_615_10395)">
<path fill-rule="evenodd" clip-rule="evenodd" d="M6.31246 7.25082C6.31126 7.25741 6.30997 7.26392 6.30849 7.27042C6.30992 7.26397 6.31131 7.25746 6.31246 7.25082ZM19.5311 17.4459H9.20743V15.2894C9.20743 15.1187 9.16181 14.9586 9.08203 14.8208H14.3625C14.4922 14.8208 14.5972 14.7161 14.5972 14.5864C14.5972 14.4567 14.4923 14.352 14.3627 14.352H8.26998H4.8086H3.7462C3.6166 14.352 3.51178 14.4567 3.51178 14.5864C3.51178 14.716 3.61656 14.8208 3.7462 14.8208H3.99654C3.91677 14.9586 3.87114 15.1187 3.87114 15.2894V17.4459H2.85954C1.28291 17.4459 1.37264e-05 16.1632 1.37264e-05 14.5864C1.37264e-05 13.0095 1.28272 11.7268 2.85954 11.7268H19.5312C19.7901 11.7268 19.9999 11.9366 19.9999 12.1956C19.9999 12.4546 19.7901 12.6643 19.5312 12.6643C18.4714 12.6643 17.6091 13.5265 17.6091 14.5864C17.6091 15.6463 18.4714 16.5086 19.5312 16.5086C19.7901 16.5086 19.9999 16.7183 19.9999 16.9773C19.9999 17.2363 19.7901 17.4459 19.5312 17.4459L19.5311 17.4459ZM4.80847 20.3615C4.74646 20.3615 4.68376 20.3493 4.62452 20.3239C4.45188 20.2503 4.33985 20.0805 4.33985 19.8929L4.3399 15.2894C4.3399 15.0304 4.54969 14.8207 4.80865 14.8207H8.27003C8.52905 14.8207 8.73878 15.0304 8.73878 15.2894V19.8928C8.73878 20.0788 8.62875 20.2473 8.45855 20.3219C8.28844 20.3973 8.08987 20.364 7.95298 20.2378L6.51028 18.9119L5.13299 20.2313C5.04381 20.3166 4.92713 20.3615 4.80847 20.3615L4.80847 20.3615ZM2.54651 9.56227C2.28754 9.56227 2.07775 9.35253 2.07775 9.09356V6.45378L0.325983 5.8934C0.138805 5.83347 0.00892938 5.66327 0.000440291 5.46696C-0.00804892 5.27046 0.106878 5.08988 0.288335 5.01413L9.81955 1.0379C9.93512 0.989552 10.0652 0.989736 10.1805 1.0379L19.7117 5.01413C19.893 5.08979 20.0079 5.27046 19.9996 5.46696C19.9911 5.66327 19.8613 5.83347 19.674 5.8934L14.6681 7.49454L15.0077 10.0562C15.0435 10.3041 14.8771 10.5487 14.612 10.5877C13.8289 10.7166 11.9143 10.7808 9.9999 10.7808C8.08614 10.7808 6.17326 10.7166 5.3892 10.5879C5.1247 10.55 4.95491 10.3042 4.99238 10.0541L5.33162 7.49472L3.01527 6.75371V9.09354C3.01509 9.35251 2.8053 9.56225 2.54652 9.56225L2.54651 9.56227ZM6.30566 7.28277L6.3052 7.28439V7.28453L6.30566 7.28277Z" fill="white"/>
</g>
<defs>
<clipPath id="clip0_615_10395">
<rect width="20" height="20" fill="white" transform="translate(0 0.5)"/>
</clipPath>
</defs>
</svg>
