<svg width="32" height="32" viewBox="0 0 32 32" fill="none" xmlns="http://www.w3.org/2000/svg">
<path d="M16.0006 16.6172C17.8968 16.6172 19.7485 15.4666 21.2144 13.3775C22.5082 11.5339 23.2806 9.25439 23.2806 7.27993C23.2806 3.26579 20.0148 0 16.0006 0C11.9865 0 8.7207 3.26579 8.7207 7.27993C8.7207 9.25439 9.49303 11.5339 10.7868 13.3775C12.2528 15.4666 14.1044 16.6172 16.0006 16.6172ZM16.0006 1.1871C19.3602 1.1871 22.0935 3.92036 22.0935 7.27993C22.0935 8.9937 21.3843 11.0688 20.2428 12.6956C19.0233 14.4334 17.4771 15.4301 16.0006 15.4301C14.5241 15.4301 12.978 14.4334 11.7585 12.6956C10.617 11.0688 9.9078 8.9937 9.9078 7.27993C9.9078 3.92036 12.6411 1.1871 16.0006 1.1871Z" fill="white"/>
<path d="M26.6684 19.8732C25.3857 17.8825 23.5799 16.2935 21.4462 15.2777C21.2195 15.1699 20.9496 15.2161 20.7719 15.3933C19.3417 16.8195 17.6918 17.5733 16.0003 17.5733C14.3086 17.5733 12.6589 16.8195 11.2296 15.3934C11.0518 15.2161 10.7818 15.1697 10.5552 15.2776C8.42146 16.2934 6.61549 17.8825 5.33263 19.8731C4.01487 21.9179 3.31836 24.2902 3.31836 26.7335V26.7438C3.31836 26.9112 3.38911 27.0709 3.51312 27.1835C6.93798 30.2895 11.3727 32 16.0002 32C20.6278 32 25.0624 30.2895 28.4873 27.1835C28.6113 27.0709 28.6821 26.9113 28.6821 26.7438V26.7335C28.6822 24.2902 27.9859 21.9179 26.6684 19.8732ZM16.0003 30.813C11.7567 30.813 7.68625 29.2763 4.50823 26.4806C4.55437 24.3553 5.18203 22.2983 6.33051 20.5162C7.42003 18.8257 8.92535 17.4546 10.7012 16.531C12.2875 17.9913 14.1116 18.7604 16.0003 18.7604C17.8887 18.7604 19.7131 17.9912 21.3002 16.5309C23.0759 17.4545 24.5812 18.8256 25.6705 20.5162C26.8187 22.2981 27.4462 24.3551 27.4924 26.4805C24.3143 29.2762 20.2439 30.813 16.0003 30.813Z" fill="white"/>
</svg>
