<svg width="32" height="32" viewBox="0 0 32 32" fill="none" xmlns="http://www.w3.org/2000/svg">
<g clip-path="url(#clip0_627_10216)">
<path d="M30.7606 22.0798C30.7699 22.0608 30.7783 22.0413 30.7849 22.0213C32.6808 17.6454 32.342 12.2808 29.8796 8.18059C31.1942 6.60906 29.4866 4.35852 27.6192 5.2293C27.2911 4.89396 26.9466 4.57256 26.5895 4.26867C27.2903 2.36354 24.9514 0.800702 23.4947 2.22411C19.2608 0.0861868 13.9949 0.113262 9.78437 2.29645C8.28656 0.70916 5.77109 2.41107 6.67794 4.40261C6.15858 4.85675 5.66698 5.34735 5.21371 5.86615C4.82234 6.31411 5.53136 6.92808 5.92003 6.48325C6.34173 6.00065 6.79862 5.54413 7.28122 5.12106C8.21446 5.79418 9.56765 5.45127 10.0796 4.4238C11.7692 4.91015 13.3827 5.60816 14.8862 6.50401C14.7603 6.9579 14.8117 7.46482 15.0277 7.88383C13.7903 8.95276 12.6759 10.1619 11.7082 11.4871C10.8148 11.2172 9.83014 11.669 9.44165 12.515C7.47156 12.5256 5.49534 12.7375 3.55507 13.1476C3.38374 12.8283 3.124 12.5638 2.80911 12.3866C3.17365 10.965 3.75104 9.61268 4.52877 8.3623C4.83866 7.86394 4.05643 7.34589 3.73234 7.86688C2.90546 9.19624 2.29131 10.6338 1.90288 12.145C-0.343779 12.1832 -0.720952 15.2912 1.41784 15.8891C1.38633 20.3125 3.29883 24.6131 6.61523 27.5427C5.92341 29.4115 8.16938 30.953 9.65156 29.6349C13.9772 31.935 19.444 31.9353 23.7699 29.6356C25.2774 31.1266 27.6918 29.4609 26.8427 27.5118C28.5519 25.9928 29.8797 24.1349 30.7606 22.0798ZM30.1697 21.031C28.8715 19.7413 27.4509 18.5713 25.9341 17.5443C26.1495 16.8695 25.9623 16.1104 25.4593 15.6123C26.7347 13.4916 27.736 11.2177 28.4408 8.84227C28.6757 8.84308 28.9015 8.79975 29.1095 8.72134C31.2692 12.3688 31.6642 17.0716 30.1697 21.031ZM8.58938 26.3324C8.1947 22.4666 8.88727 18.6099 10.6014 15.1246C11.6662 15.4569 12.8172 14.7566 13.024 13.6635C16.2577 14.0622 19.372 15.0115 22.2947 16.49C22.1542 17.0364 22.2705 17.6389 22.6054 18.0934C19.3109 22.2671 14.9622 25.4077 9.98521 27.2078C9.68364 26.7302 9.17647 26.3961 8.58938 26.3324ZM23.1728 16.9652C23.1728 16.4338 23.602 16.0015 24.1295 16.0015C25.3987 16.0543 25.3983 17.8764 24.1295 17.929C23.602 17.929 23.1728 17.4967 23.1728 16.9652ZM29.4017 6.94065C29.4017 7.47208 28.9725 7.9044 28.4449 7.9044C27.1757 7.85156 27.176 6.02954 28.4449 5.97689C28.9725 5.97689 29.4017 6.40921 29.4017 6.94065ZM26.9026 5.83814C26.2544 6.74887 26.5553 8.06541 27.5325 8.60672C26.8497 10.898 25.8818 13.0914 24.6504 15.1373C24.393 15.0632 24.1072 15.0449 23.8425 15.0854C22.5554 12.3369 20.6826 9.86136 18.3948 7.88395C18.611 7.4647 18.6625 6.95865 18.5365 6.50413C19.9846 5.64136 21.5357 4.96142 23.1578 4.47808C23.6969 5.51893 25.1431 5.81282 26.041 5.03365C26.3385 5.28964 26.6266 5.55857 26.9026 5.83814ZM15.7545 7.01324C15.7545 6.48181 16.1837 6.04949 16.7113 6.04949C17.9806 6.10232 17.9802 7.92428 16.7113 7.97693C16.1837 7.97693 15.7545 7.54461 15.7545 7.01324ZM24.8255 2.61253C25.3531 2.61253 25.7823 3.04486 25.7823 3.57629C25.7296 4.85481 23.9212 4.8545 23.8687 3.57629C23.8687 3.04486 24.2979 2.61253 24.8255 2.61253ZM8.38416 4.53998C7.85661 4.53998 7.42741 4.10766 7.42741 3.57623C7.48006 2.29764 9.28852 2.29808 9.34098 3.57623C9.34098 4.10766 8.91172 4.53998 8.38416 4.53998ZM10.2771 3.50432C10.2722 3.37413 10.2543 3.24739 10.2246 3.12508C14.1503 1.09496 19.0546 1.05957 23.0106 3.03066C22.9598 3.20068 22.932 3.38045 22.931 3.5666C21.2249 4.07133 19.5934 4.78428 18.0704 5.69013C17.3383 4.93285 16.0846 4.9326 15.3523 5.69007C13.7651 4.74601 12.0614 4.01218 10.2771 3.50432ZM15.6486 8.58678C16.2828 9.0196 17.1396 9.01966 17.7738 8.58684C19.9581 10.4728 21.7474 12.8335 22.9799 15.4551C22.8964 15.5193 22.8184 15.5904 22.7466 15.6673C19.6652 14.1044 16.377 13.1107 12.9614 12.7109C12.8692 12.4318 12.7143 12.1812 12.5134 11.976C13.43 10.7308 14.482 9.59343 15.6486 8.58678ZM11.1629 12.3444C11.6905 12.3444 12.1197 12.7768 12.1197 13.3082C12.067 14.5868 10.2586 14.5864 10.2061 13.3082C10.2062 12.7768 10.6354 12.3444 11.1629 12.3444ZM0.928993 14.0463C0.928993 13.5149 1.35819 13.0826 1.88574 13.0826C3.15495 13.1354 3.15458 14.9574 1.88574 15.01C1.35825 15.0101 0.928993 14.5778 0.928993 14.0463ZM2.35571 15.8888C2.35571 15.8888 3.78018 15.5781 3.78018 14.0587C3.78018 14.0587 7.43535 13.4745 9.27439 13.4539C9.3089 13.9083 9.50293 14.3183 9.8005 14.6277C7.97291 18.3044 7.23576 22.3808 7.66008 26.4657C7.47737 26.5418 7.30917 26.6459 7.16048 26.7725C4.10089 24.0316 2.35571 19.4393 2.35571 15.8888ZM8.38416 29.1864C7.85661 29.1864 7.42741 28.7541 7.42741 28.2227C7.42741 27.6912 7.85661 27.2589 8.38416 27.2589C8.90465 27.2589 9.34098 27.7097 9.34098 28.2227C9.34098 28.7541 8.91172 29.1864 8.38416 29.1864ZM16.7113 30.4293C14.4352 30.4293 12.1844 29.8842 10.1727 28.8493C10.2544 28.6152 10.2904 28.3486 10.2745 28.1002C15.423 26.2444 19.922 23.0013 23.3302 18.6889C23.6102 18.8202 23.9209 18.8804 24.2296 18.8642C24.438 19.6375 24.6026 20.4265 24.7193 21.2153C24.8086 21.8192 25.7368 21.6843 25.6472 21.0781C25.5233 20.2405 25.3479 19.4027 25.1252 18.5822C25.2373 18.5125 25.3415 18.4311 25.4364 18.3401C27.0014 19.4026 28.4604 20.6222 29.7822 21.972C28.9625 23.7841 27.7694 25.4249 26.2535 26.7808C26.1036 26.6682 25.9365 26.5777 25.7571 26.5133C25.8492 25.6414 25.8894 24.7611 25.8759 23.8905C25.8664 23.2778 24.9285 23.2922 24.9381 23.905C24.9511 24.7419 24.9123 25.5881 24.8233 26.4262C23.7172 26.602 22.9938 27.7489 23.2986 28.8238C21.2743 29.8752 19.006 30.4293 16.7113 30.4293ZM25.1208 29.268C24.5932 29.268 24.164 28.8356 24.164 28.3042C24.2167 27.0256 26.0251 27.0261 26.0776 28.3042C26.0776 28.8356 25.6484 29.268 25.1208 29.268Z" fill="white"/>
</g>
<defs>
<clipPath id="clip0_627_10216">
<rect width="32" height="32" fill="white"/>
</clipPath>
</defs>
</svg>
