<svg width="32" height="32" viewBox="0 0 32 32" fill="none" xmlns="http://www.w3.org/2000/svg">
<path d="M31.6941 8.95016L21.5749 5.09225C21.3296 4.99875 21.0549 5.1218 20.9614 5.36691C20.8679 5.61227 20.991 5.88693 21.2363 5.98044L30.1907 9.39426L23.9919 11.7578L16.196 8.228C15.9568 8.1196 15.6753 8.2258 15.5671 8.46481C15.4587 8.70407 15.5649 8.98556 15.804 9.09396L22.7407 12.2348L16 14.8047L1.80933 9.39426L16 3.98386L19.4971 5.31735C19.7419 5.41061 20.0168 5.28781 20.1106 5.04245C20.2041 4.79733 20.0811 4.52267 19.8357 4.42917L16.1694 3.03122C16.0603 2.98972 15.9397 2.98947 15.8306 3.03122L0.305908 8.95016C0.121826 9.02048 0 9.19723 0 9.39426V11.5647C0 11.7617 0.121826 11.9384 0.305908 12.0088L5.15381 13.8569V15.5039C5.15381 15.7663 5.36645 15.9792 5.62891 15.9792C5.8916 15.9792 6.10425 15.7663 6.10425 15.5039V14.2195L15.8306 17.9277C15.8853 17.9485 15.9426 17.959 16 17.959C16.0574 17.959 16.1147 17.9485 16.1694 17.9277L23.501 15.1325V22.654C21.1992 23.8623 18.6182 24.5097 16 24.5097C12.4268 24.5097 8.92187 23.3051 6.10425 21.113V17.405C6.10425 17.1425 5.8916 16.9297 5.62891 16.9297C5.36645 16.9297 5.15381 17.1425 5.15381 17.405V21.3432C5.15381 21.4875 5.21924 21.624 5.33179 21.7141C8.34717 24.1299 12.136 25.4602 16 25.4602C18.606 25.4602 21.1772 24.8542 23.501 23.7192V25.6428C22.7351 25.852 22.1704 26.5534 22.1704 27.3847C22.1704 28.3803 22.9805 29.1906 23.9761 29.1906C24.9719 29.1906 25.782 28.3803 25.782 27.3847C25.782 26.5534 25.2173 25.852 24.4514 25.6428V23.2173C25.2261 22.7766 25.9683 22.2751 26.6685 21.7141C26.781 21.624 26.8467 21.4875 26.8467 21.3432V13.8567L31.6941 12.0085C31.8782 11.9384 32 11.7617 32 11.5644V9.39426C32 9.19723 31.8782 9.02048 31.6941 8.95016ZM24.8315 27.3847C24.8315 27.8562 24.4478 28.24 23.9761 28.24C23.5046 28.24 23.1208 27.8562 23.1208 27.3847C23.1208 26.9131 23.5046 26.5293 23.9761 26.5293C24.4478 26.5293 24.8315 26.9131 24.8315 27.3847ZM0.950439 10.0842L15.5247 15.6408V16.7937L0.950439 11.237V10.0842ZM16.4753 16.7937V15.6408L23.501 12.9621V14.1152L16.4753 16.7937ZM25.896 21.1128C25.4324 21.4736 24.9497 21.8071 24.4514 22.1132V14.77L25.896 14.2192V21.1128ZM24.4514 13.7527V12.5998L31.0496 10.0842V11.237L24.4514 13.7527Z" fill="white"/>
</svg>
