<svg width="34" height="20" viewBox="0 0 34 20" fill="none" xmlns="http://www.w3.org/2000/svg">
<path d="M7.34657 6C6.91637 6 6.50851 5.94467 6.123 5.83402C5.74308 5.71784 5.433 5.56293 5.19275 5.36929C5.06425 5.27524 5 5.14246 5 4.97095C5 4.85477 5.03352 4.75519 5.10057 4.6722C5.1732 4.58368 5.25701 4.53942 5.35199 4.53942C5.45255 4.53942 5.56709 4.57815 5.69559 4.6556C5.93584 4.82711 6.18725 4.95159 6.44985 5.02905C6.71244 5.1065 7.00297 5.14523 7.32143 5.14523C7.72929 5.14523 8.04217 5.07607 8.26006 4.93776C8.47796 4.79391 8.58691 4.58644 8.58691 4.31535C8.58691 4.10512 8.48354 3.94467 8.27682 3.83402C8.07569 3.71784 7.73767 3.60719 7.26277 3.50207C6.7711 3.39696 6.37163 3.27524 6.06434 3.13693C5.75705 2.99862 5.52519 2.82158 5.36875 2.60581C5.21231 2.39004 5.13409 2.11618 5.13409 1.78423C5.13409 1.44122 5.23186 1.13416 5.42741 0.863071C5.62296 0.591978 5.89393 0.381743 6.24033 0.232365C6.59232 0.077455 6.98621 0 7.422 0C8.22095 0 8.87185 0.210235 9.37468 0.630706C9.44732 0.691563 9.4976 0.75242 9.52554 0.813278C9.55906 0.868603 9.57582 0.940526 9.57582 1.02905C9.57582 1.14523 9.5395 1.24758 9.46687 1.3361C9.39983 1.41909 9.31881 1.46058 9.22383 1.46058C9.16796 1.46058 9.11488 1.45228 9.0646 1.43568C9.0199 1.41909 8.95845 1.38866 8.88023 1.3444C8.65116 1.17842 8.42767 1.05671 8.20978 0.979253C7.99747 0.896266 7.73488 0.854772 7.422 0.854772C7.04208 0.854772 6.74038 0.932227 6.51689 1.08714C6.299 1.23651 6.19005 1.44675 6.19005 1.71784C6.19005 1.94467 6.28782 2.11895 6.48337 2.24066C6.67892 2.36238 7.01135 2.4758 7.48066 2.58091C7.97791 2.69156 8.38018 2.81604 8.68747 2.95436C9.00035 3.08714 9.2378 3.25864 9.39983 3.46888C9.56744 3.67911 9.65124 3.94191 9.65124 4.25726C9.65124 4.60028 9.55347 4.90456 9.35792 5.17012C9.16796 5.43015 8.89699 5.63485 8.545 5.78423C8.1986 5.92808 7.79913 6 7.34657 6Z" fill="white"/>
<path d="M11.1823 5.9751C11.0203 5.9751 10.889 5.92531 10.7885 5.82573C10.6935 5.72614 10.646 5.59613 10.646 5.43568V0.564315C10.646 0.403873 10.6935 0.276625 10.7885 0.182573C10.889 0.0829876 11.0203 0.0331951 11.1823 0.0331951C11.35 0.0331951 11.4813 0.0829876 11.5762 0.182573C11.6768 0.276625 11.7271 0.403873 11.7271 0.564315V5.43568C11.7271 5.59613 11.6768 5.72614 11.5762 5.82573C11.4813 5.92531 11.35 5.9751 11.1823 5.9751Z" fill="white"/>
<path d="M17.4783 0.0331951C17.6347 0.0331951 17.7576 0.0829876 17.847 0.182573C17.942 0.276625 17.9895 0.403873 17.9895 0.564315V5.43568C17.9895 5.59613 17.942 5.72614 17.847 5.82573C17.7521 5.92531 17.6291 5.9751 17.4783 5.9751C17.2995 5.9751 17.1626 5.91148 17.0676 5.78423L14.0087 1.84232V5.43568C14.0087 5.59613 13.964 5.72614 13.8746 5.82573C13.7852 5.92531 13.6623 5.9751 13.5059 5.9751C13.3494 5.9751 13.2265 5.92531 13.1371 5.82573C13.0477 5.72614 13.003 5.59613 13.003 5.43568V0.564315C13.003 0.403873 13.0505 0.276625 13.1455 0.182573C13.2405 0.0829876 13.3662 0.0331951 13.5226 0.0331951C13.6958 0.0331951 13.8299 0.0968189 13.9249 0.224066L16.9754 4.14938V0.564315C16.9754 0.403873 17.0201 0.276625 17.1095 0.182573C17.2045 0.0829876 17.3274 0.0331951 17.4783 0.0331951Z" fill="white"/>
<path d="M21.9038 6C21.334 6 20.8339 5.87828 20.4037 5.63485C19.9791 5.39142 19.6522 5.04288 19.4232 4.58921C19.1941 4.13555 19.0796 3.60443 19.0796 2.99585C19.0796 2.38728 19.1941 1.85892 19.4232 1.41079C19.6522 0.957123 19.9791 0.608575 20.4037 0.365145C20.8339 0.121715 21.334 0 21.9038 0C22.2726 0 22.619 0.0553251 22.943 0.165975C23.2671 0.271093 23.5548 0.426003 23.8062 0.630706C23.8789 0.686031 23.9292 0.744122 23.9571 0.804979C23.985 0.865837 23.999 0.940526 23.999 1.02905C23.999 1.15076 23.9655 1.25311 23.8984 1.3361C23.8314 1.41909 23.7504 1.46058 23.6554 1.46058C23.5436 1.46058 23.4291 1.42185 23.3118 1.3444C23.0715 1.16736 22.8481 1.04564 22.6413 0.979253C22.4346 0.907331 22.2055 0.871369 21.9541 0.871369C21.3731 0.871369 20.9317 1.05118 20.63 1.41079C20.3339 1.7704 20.1858 2.29876 20.1858 2.99585C20.1858 3.69848 20.3339 4.2296 20.63 4.58921C20.9317 4.94882 21.3731 5.12863 21.9541 5.12863C22.1944 5.12863 22.4151 5.09267 22.6162 5.02075C22.8229 4.94882 23.0548 4.82711 23.3118 4.6556C23.3677 4.62241 23.4235 4.59474 23.4794 4.57261C23.5353 4.55048 23.5939 4.53942 23.6554 4.53942C23.7504 4.53942 23.8314 4.58091 23.8984 4.6639C23.9655 4.74689 23.999 4.84924 23.999 4.97095C23.999 5.05394 23.985 5.12863 23.9571 5.19502C23.9292 5.25588 23.8789 5.31397 23.8062 5.36929C23.5548 5.574 23.2671 5.73167 22.943 5.84232C22.619 5.94744 22.2726 6 21.9038 6Z" fill="white"/>
<path d="M25.4634 5.92531C25.3014 5.92531 25.1728 5.88105 25.0779 5.79253C24.9885 5.70401 24.9438 5.57953 24.9438 5.41909V0.580913C24.9438 0.42047 24.9885 0.295989 25.0779 0.207469C25.1728 0.118949 25.3014 0.0746888 25.4634 0.0746888H28.4888C28.6508 0.0746888 28.7765 0.11065 28.8659 0.182573C28.9553 0.254495 29 0.356847 29 0.489627C29 0.627939 28.9553 0.735823 28.8659 0.813278C28.7765 0.8852 28.6508 0.921162 28.4888 0.921162H25.9997V2.53112H28.3212C28.4832 2.53112 28.6089 2.56708 28.6983 2.639C28.7877 2.71093 28.8324 2.81604 28.8324 2.95436C28.8324 3.08714 28.7877 3.18949 28.6983 3.26141C28.6089 3.33333 28.4832 3.36929 28.3212 3.36929H25.9997V5.07884H28.4888C28.6508 5.07884 28.7765 5.11757 28.8659 5.19502C28.9553 5.26694 29 5.37206 29 5.51037C29 5.64315 28.9553 5.7455 28.8659 5.81743C28.7765 5.88935 28.6508 5.92531 28.4888 5.92531H25.4634Z" fill="white"/>
<path d="M6.59119 18.2807C7.18101 18.2807 7.47591 18.5393 7.47591 19.0566C7.47591 19.5942 7.18101 19.863 6.59119 19.863H0.987941C0.732355 19.863 0.530834 19.7869 0.38338 19.6348C0.235926 19.4725 0.162199 19.2747 0.162199 19.0414C0.162199 18.7371 0.275247 18.4633 0.501343 18.2198L3.86329 14.4923C4.27616 14.0257 4.57599 13.5997 4.76276 13.2143C4.95937 12.8187 5.05767 12.4282 5.05767 12.0428C5.05767 11.5661 4.92496 11.2009 4.65954 10.9474C4.39413 10.6938 4.01566 10.567 3.52415 10.567C3.12111 10.567 2.7279 10.6481 2.34452 10.8104C1.97097 10.9626 1.5925 11.1756 1.20912 11.4494C1.11082 11.5204 1.01252 11.5813 0.914214 11.632C0.815912 11.6726 0.717609 11.6929 0.619307 11.6929C0.452192 11.6929 0.304738 11.6117 0.176945 11.4494C0.0589816 11.2872 0 11.0944 0 10.8713C0 10.7191 0.0245757 10.5873 0.073727 10.4757C0.132709 10.3641 0.221181 10.2576 0.339144 10.1562C0.771676 9.80121 1.27793 9.52228 1.85792 9.31942C2.43791 9.10642 3.01789 8.99992 3.59788 8.99992C4.61039 8.99992 5.41648 9.26364 6.01612 9.79107C6.6256 10.3185 6.93034 11.0285 6.93034 11.9211C6.93034 12.5398 6.80254 13.123 6.54696 13.6707C6.29137 14.2083 5.85884 14.8118 5.24936 15.4812L2.69841 18.2807H6.59119Z" fill="white"/>
<path d="M12.5275 19.9999C11.2987 19.9999 10.3599 19.5333 9.71111 18.6002C9.06231 17.6569 8.73791 16.2876 8.73791 14.4923C8.73791 12.7072 9.06231 11.348 9.71111 10.4149C10.3599 9.47157 11.2987 8.99992 12.5275 8.99992C13.7563 8.99992 14.6951 9.47157 15.3438 10.4149C15.9926 11.348 16.317 12.7072 16.317 14.4923C16.317 16.2775 15.9926 17.6417 15.3438 18.585C14.6951 19.5283 13.7563 19.9999 12.5275 19.9999ZM12.5275 18.4633C13.1959 18.4633 13.6825 18.1488 13.9873 17.52C14.292 16.881 14.4444 15.8718 14.4444 14.4923C14.4444 13.1027 14.292 12.0986 13.9873 11.4799C13.6825 10.851 13.1959 10.5366 12.5275 10.5366C11.859 10.5366 11.3724 10.851 11.0677 11.4799C10.7629 12.1087 10.6106 13.1129 10.6106 14.4923C10.6106 15.8718 10.7629 16.881 11.0677 17.52C11.3724 18.1488 11.859 18.4633 12.5275 18.4633Z" fill="white"/>
<path d="M33.2037 9.13685C33.4593 9.13685 33.6559 9.21292 33.7936 9.36507C33.9312 9.50707 34 9.69471 34 9.928C34 10.1613 33.9312 10.4047 33.7936 10.6583L29.0898 19.4674C28.8932 19.8123 28.6228 19.9847 28.2788 19.9847C28.0429 19.9847 27.8315 19.9036 27.6447 19.7413C27.4678 19.5688 27.3793 19.3609 27.3793 19.1175C27.3793 18.9451 27.4285 18.7726 27.5268 18.6002L31.7587 10.7191H27.3056C26.7158 10.7191 26.4209 10.4605 26.4209 9.94321C26.4209 9.40564 26.7158 9.13685 27.3056 9.13685H33.2037Z" fill="white"/>
<path d="M21.7104 19.8629C20.4816 19.8629 19.5429 19.3964 18.8941 18.4632C18.2453 17.5199 17.9209 16.1506 17.9209 14.3553C17.9209 12.5702 18.2453 11.211 18.8941 10.2779C19.5429 9.33459 20.4816 8.86295 21.7104 8.86295C22.9392 8.86295 23.878 9.33459 24.5268 10.2779C25.1756 11.211 25.5 12.5702 25.5 14.3553C25.5 16.1405 25.1756 17.5047 24.5268 18.448C23.878 19.3913 22.9392 19.8629 21.7104 19.8629ZM21.7104 18.3263C22.3789 18.3263 22.8655 18.0119 23.1702 17.383C23.475 16.744 23.6273 15.7348 23.6273 14.3553C23.6273 12.9658 23.475 11.9616 23.1702 11.3429C22.8655 10.714 22.3789 10.3996 21.7104 10.3996C21.042 10.3996 20.5554 10.714 20.2506 11.3429C19.9459 11.9718 19.7935 12.9759 19.7935 14.3553C19.7935 15.7348 19.9459 16.744 20.2506 17.383C20.5554 18.0119 21.042 18.3263 21.7104 18.3263Z" fill="white"/>
</svg>
