<svg width="32" height="32" viewBox="0 0 32 32" fill="none" xmlns="http://www.w3.org/2000/svg">
<g clip-path="url(#clip0_627_10238)">
<path d="M24.9815 6.81663C24.2319 4.86575 22.9371 3.19406 21.227 1.97238C19.4207 0.682063 17.2894 0 15.0634 0C11.9685 0 9.03392 1.34756 7.01192 3.69712C6.84305 3.89331 6.86517 4.18931 7.06142 4.35819C7.25767 4.52706 7.55355 4.50488 7.72249 4.30869C9.5663 2.16625 12.2419 0.9375 15.0634 0.9375C19.1264 0.9375 22.7872 3.50656 24.1726 7.33012C24.2638 7.58206 24.5059 7.75119 24.7757 7.75119H24.7765C28.2427 7.75125 31.0627 10.5754 31.0627 14.0468C31.0627 15.6642 30.4512 17.2012 29.3408 18.3746C29.1628 18.5626 29.171 18.8593 29.359 19.0373C29.5468 19.215 29.8435 19.2073 30.0217 19.019C31.2975 17.6707 32.0002 15.9049 32.0002 14.0468C32.0002 10.1276 28.8713 6.92644 24.9815 6.81663V6.81663Z" fill="white"/>
<path d="M16.4375 28.628V27.625C16.4375 27.3661 16.2277 27.1562 15.9688 27.1562C15.7098 27.1562 15.5 27.3661 15.5 27.625V28.628C14.7795 28.8326 14.25 29.4961 14.25 30.2812C14.25 31.229 15.0211 32 15.9688 32C16.9164 32 17.6875 31.229 17.6875 30.2812C17.6875 29.4961 17.158 28.8326 16.4375 28.628ZM15.9688 31.0625C15.5379 31.0625 15.1875 30.7121 15.1875 30.2812C15.1875 29.8504 15.5379 29.5 15.9688 29.5C16.3996 29.5 16.75 29.8504 16.75 30.2812C16.75 30.7121 16.3996 31.0625 15.9688 31.0625Z" fill="white"/>
<path d="M12.0312 24.1562C11.7723 24.1562 11.5625 24.3661 11.5625 24.625V27.1562C11.5625 27.3803 11.3803 27.5625 11.1562 27.5625H10.3095C10.1049 26.842 9.44144 26.3125 8.65625 26.3125C7.70856 26.3125 6.9375 27.0835 6.9375 28.0312C6.9375 28.979 7.70856 29.75 8.65625 29.75C9.44144 29.75 10.1049 29.2205 10.3095 28.5H11.1562C11.8972 28.5 12.5 27.8972 12.5 27.1562V24.625C12.5 24.3661 12.2902 24.1562 12.0312 24.1562ZM8.65625 28.8125C8.22544 28.8125 7.875 28.4621 7.875 28.0312C7.875 27.6004 8.22544 27.25 8.65625 27.25C9.08706 27.25 9.4375 27.6004 9.4375 28.0312C9.4375 28.4621 9.08706 28.8125 8.65625 28.8125Z" fill="white"/>
<path d="M27.1562 22.8125C26.3711 22.8125 25.7076 23.342 25.503 24.0625H24.6562C24.4322 24.0625 24.25 23.8802 24.25 23.6562V21.2492C25.0092 21.2485 25.4502 21.2471 25.477 21.2445C26.4139 21.1542 27.3105 20.8858 28.1419 20.4469C28.3708 20.326 28.4584 20.0424 28.3376 19.8135C28.2167 19.5845 27.9331 19.4968 27.7043 19.6178C26.9857 19.9971 26.2111 20.2299 25.4017 20.3099C25.2973 20.3118 24.7091 20.3125 23.7818 20.3125C23.7816 20.3125 23.7814 20.3125 23.7812 20.3125C23.7811 20.3125 23.7809 20.3125 23.7807 20.3125C20.0606 20.3123 10.8821 20.2989 5.54069 20.29C4.6475 20.2884 3.80306 20.0472 3.09869 19.5925C1.74544 18.7192 0.9375 17.2366 0.9375 15.6268C0.9375 13.3194 2.58369 11.3647 4.85187 10.979C5.14931 10.9283 5.37125 10.6712 5.37956 10.3676C5.42181 8.83192 5.81162 7.37167 6.53825 6.02748C6.66137 5.79973 6.5765 5.51536 6.34881 5.39223C6.12094 5.26898 5.83662 5.35398 5.71356 5.58167C4.95444 6.98604 4.53037 8.50529 4.45169 10.1014C1.85769 10.6584 0 12.9438 0 15.6268C0 17.5565 0.968313 19.3334 2.59025 20.3802C3.44594 20.9325 4.46563 21.2255 5.53906 21.2275C6.24638 21.2287 6.9645 21.2299 7.6875 21.231V23.6562C7.6875 23.8802 7.50525 24.0625 7.28125 24.0625H6.4345C6.22988 23.342 5.56644 22.8125 4.78125 22.8125C3.83356 22.8125 3.0625 23.5835 3.0625 24.5312C3.0625 25.479 3.83356 26.25 4.78125 26.25C5.56644 26.25 6.22988 25.7205 6.4345 25H7.28125C8.02219 25 8.625 24.3972 8.625 23.6562V21.2325C9.60494 21.2341 10.589 21.2356 11.5625 21.237V22.4375C11.5625 22.6964 11.7723 22.9062 12.0312 22.9062C12.2902 22.9062 12.5 22.6964 12.5 22.4375V21.2384C13.5231 21.2399 14.5289 21.2413 15.5 21.2425V25.4375C15.5 25.6964 15.7098 25.9062 15.9688 25.9062C16.2277 25.9062 16.4375 25.6964 16.4375 25.4375V21.2437C17.4963 21.245 18.5044 21.2462 19.4375 21.2471V27.1562C19.4375 27.8972 20.0403 28.5 20.7812 28.5H21.628C21.8326 29.2205 22.4961 29.75 23.2812 29.75C24.2289 29.75 25 28.979 25 28.0312C25 27.0835 24.2289 26.3125 23.2812 26.3125C22.4961 26.3125 21.8326 26.842 21.628 27.5625H20.7812C20.5572 27.5625 20.375 27.3802 20.375 27.1562V21.248C21.5113 21.2489 22.5081 21.2495 23.3118 21.2495H23.3125V23.6562C23.3125 24.3972 23.9153 25 24.6562 25H25.503C25.7076 25.7205 26.3711 26.25 27.1562 26.25C28.1039 26.25 28.875 25.479 28.875 24.5312C28.875 23.5835 28.1039 22.8125 27.1562 22.8125V22.8125ZM4.78125 25.3125C4.35044 25.3125 4 24.962 4 24.5312C4 24.1004 4.35044 23.75 4.78125 23.75C5.21206 23.75 5.5625 24.1004 5.5625 24.5312C5.5625 24.962 5.21206 25.3125 4.78125 25.3125ZM23.2812 27.25C23.7121 27.25 24.0625 27.6004 24.0625 28.0312C24.0625 28.462 23.7121 28.8125 23.2812 28.8125C22.8504 28.8125 22.5 28.462 22.5 28.0312C22.5 27.6004 22.8504 27.25 23.2812 27.25ZM27.1562 25.3125C26.7254 25.3125 26.375 24.962 26.375 24.5312C26.375 24.1004 26.7254 23.75 27.1562 23.75C27.5871 23.75 27.9375 24.1004 27.9375 24.5312C27.9375 24.962 27.5871 25.3125 27.1562 25.3125Z" fill="white"/>
</g>
<defs>
<clipPath id="clip0_627_10238">
<rect width="32" height="32" fill="white"/>
</clipPath>
</defs>
</svg>
