<svg width="404" height="101" viewBox="0 0 404 101" fill="none" xmlns="http://www.w3.org/2000/svg">
<g filter="url(#filter0_d_615_10480)">
<path d="M118.99 90.6134C118.459 90.8809 118 91.279 117.656 91.7721C117.408 92.169 116.214 92.534 116.4 92.2801C116.586 92.0261 117.191 91.2484 117.3 91.0738C117.408 90.8992 116.741 90.4706 116.617 90.1849L116.447 90.0579L116.012 89.7405L115.299 88.6612C115.19 88.5024 114.616 89.0262 114.461 89.2961V89.6294C114.463 90.0181 114.367 90.4007 114.182 90.7404C113.98 91.169 113.934 92.3277 113.856 92.4388C113.779 92.5499 113.5 92.4388 113.422 92.2801C113.345 92.1214 112.879 91.6769 112.693 91.4706C112.507 91.2642 113.407 90.8039 113.515 90.6452C113.624 90.4865 113.608 90.2166 113.267 90.423C112.926 90.6293 111.902 90.0262 111.716 90.0897C111.53 90.1532 111.716 90.8515 111.84 91.0738V91.2959V91.5182C111.84 91.7404 111.328 91.8515 110.755 91.7721H110.196C110.196 92.2801 109.948 92.6134 109.824 92.5499C109.41 92.4594 108.982 92.4594 108.568 92.5499L108.32 92.0896C108.754 92.0896 109.064 91.8198 109.018 91.6293C108.971 91.4388 108.521 91.042 108.258 91.3277C107.796 91.7685 107.237 92.0896 106.629 92.2642C106.138 92.2975 105.646 92.2975 105.156 92.2642C105.295 92.1589 105.464 92.1032 105.636 92.1055C105.9 92.1055 106.676 91.7404 106.676 91.4388C106.676 91.1373 107.792 90.788 107.994 90.7563C108.32 90.6818 108.63 90.5473 108.909 90.3595V90.2801C108.909 90.1849 108.676 90.0262 108.614 90.0421C107.56 90.4117 106.456 90.6151 105.342 90.6452H104.582C104.289 91.0554 103.939 91.4191 103.543 91.7245C103.357 91.8198 102.953 91.3119 102.845 91.2325C102.603 91.1016 102.355 90.985 102.1 90.8833C101.883 90.8039 101.387 90.4865 101.511 90.3754C101.635 90.2643 102.1 90.0738 102.271 90.1531V90.2643L102.535 90.8357C102.979 90.7795 103.416 90.6731 103.837 90.5182C104.029 90.3345 104.15 90.0868 104.179 89.8198C104.179 89.6135 103.341 89.2484 103.062 89.2008V89.1214C102.814 87.9627 102.069 88.6135 101.93 89.0103C101.682 89.7246 100.875 89.7881 100.379 90.1849L99.929 90.5182C99.6343 90.9626 99.3397 91.1372 99.2776 90.915V90.7087V90.3278C98.7503 90.1055 97.9594 89.7563 97.5406 89.5341L97.463 89.2643C97.2614 88.5818 96.7651 88.5659 96.1137 88.5659C95.8346 88.5659 95.5089 88.2643 95.2917 88.3278C95.0746 88.3913 94.966 88.7246 94.7799 88.931C94.5318 88.931 94.5163 89.0738 94.7799 89.2167C95.0436 89.3595 95.4623 89.7881 95.2607 89.9627C95.0591 90.1373 93.5857 89.5182 93.7098 89.3278L93.7873 89.1373C94.0355 88.55 93.6943 88.2167 92.9964 88.4548C92.2984 88.6929 92.2829 88.2167 91.9417 88.185H91.5075C90.7804 88.2555 90.0597 88.3828 89.3517 88.5659L88.9794 88.3913L88.5297 88.1532C88.0537 88.2245 87.5824 88.3252 87.1183 88.4548C86.4819 88.446 85.8501 88.3445 85.2417 88.1532C84.9625 88.1532 84.2646 88.1532 83.9234 88.1532C83.5822 88.1532 82.512 88.058 82.2019 88.312C81.8912 88.4974 81.5379 88.5951 81.1782 88.5951C80.8185 88.5951 80.4653 88.4974 80.1546 88.312L79.3791 88.5183L78.8363 88.6453C78.1769 88.5747 77.5141 88.5429 76.8511 88.55C75.9615 88.6467 75.0802 88.8112 74.2145 89.0421C73.5942 89.2008 71.6555 88.8199 70.8955 88.931L70.1511 88.5659L69.5927 88.312L67.4369 88.8199C66.9206 88.8558 66.4024 88.8558 65.886 88.8199C65.2894 88.897 64.6881 88.9288 64.0869 88.9151C64.0869 88.7881 63.7612 88.5818 63.5906 88.7088C63.42 88.8358 62.8152 89.0103 62.598 88.8199L62.3809 88.677L62.2413 88.5818C62.0382 88.54 61.8272 88.5798 61.652 88.6929C61.5279 88.804 61.1091 89.0104 60.9851 88.8992C60.861 88.7881 60.2561 88.9945 60.132 89.0738C59.6582 89.2066 59.1764 89.3074 58.6897 89.3754L58.1003 89.1849C57.8056 89.0897 57.511 88.9468 57.2318 88.8357C56.9526 88.7246 56.5339 88.185 56.0221 88.6929C55.8759 88.7117 55.7279 88.6781 55.6033 88.5977C55.045 88.0739 54.7813 87.9151 54.2075 88.7246L53.8197 89.2643C53.5406 88.6294 53.2149 88.2167 53.0908 88.3754C52.9667 88.5341 52.517 88.8516 52.4239 88.677C52.2142 88.3992 51.9431 88.1762 51.6329 88.0262C51.3848 88.0262 50.7644 88.5501 50.6093 88.7088C50.4542 88.8675 49.9424 88.5977 49.8649 88.7088C49.7873 88.8199 49.6322 88.8833 49.6787 88.5659C49.7253 88.2484 48.7637 88.7723 48.7017 88.804C48.0658 88.9786 48.0503 87.9787 47.2593 88.312L46.8405 88.4865C46.3808 88.5133 45.9199 88.5133 45.4602 88.4865C45.2896 88.4865 44.6692 88.5976 44.266 88.6135C43.8627 88.6294 42.715 88.3278 42.4669 88.6135L42.1877 88.7564L42.0326 88.8516C41.6477 88.7395 41.2817 88.5682 40.947 88.3437C40.6368 88.1374 39.0703 88.6929 38.9152 88.5024C38.7602 88.312 38.1398 87.9945 37.9382 88.2009C37.7365 88.4072 37.0541 87.9945 36.93 88.0897L36.837 88.185C36.7284 88.2961 36.6199 88.5183 36.5113 88.5183C36.4027 88.5183 35.5652 88.7405 35.6118 88.1691V88.0421C36.0305 87.8675 36.2011 87.6294 36.015 87.5501C35.8289 87.4707 35.224 87.3755 35.0844 87.5501C34.9449 87.7247 34.309 88.185 34.3245 87.7405V87.5183C34.3084 87.4136 34.2656 87.315 34.2004 87.2326H33.8437C33.487 87.2326 33.2543 87.0898 33.3474 86.7565L32.727 86.8993H32.6185C32.5254 87.0104 32.1222 86.9945 31.7344 86.8993C30.9731 86.8031 30.2054 86.7712 29.439 86.8041C29.0203 86.8041 27.6555 86.2803 27.2987 86.312C26.942 86.3438 26.0115 86.5342 25.8719 86.185C25.7323 85.8358 24.1193 85.6295 23.9642 85.6613L23.2043 84.7089C21.8705 84.566 20.6762 84.4232 20.5367 84.3756C20.3971 84.328 19.8077 84.3756 19.3424 84.3756C18.8772 84.3756 16.892 84.4549 16.0389 84.5184L15.8684 83.6137C15.8684 83.5185 15.5116 83.3598 15.4341 83.3915L14.9533 83.6296C14.541 83.487 14.1536 83.278 13.8056 83.0105C13.4103 82.7853 12.9948 82.5994 12.5649 82.455C12.1957 82.3103 11.81 82.2142 11.4172 82.1693C11.308 82.1772 11.1989 82.1531 11.1027 82.0996C11.0065 82.0462 10.9273 81.9657 10.8743 81.8677L10.7193 81.709C10.5454 81.6358 10.3503 81.6358 10.1764 81.709C9.68259 81.9104 9.15701 82.018 8.62548 82.0265C7.77247 82.0265 8.19122 81.7725 8.23775 81.4233C8.28428 81.0741 7.72594 81.0265 8.40835 80.9471C8.72469 80.9038 9.03304 80.8128 9.32341 80.6773C9.64911 80.5344 9.58707 80.3916 9.32341 80.1694L9.05974 79.9472L10.2385 78.9948C10.6262 78.6932 11.076 77.5028 10.6572 77.4076H10.3625H10.0058C9.5788 77.5587 9.11454 77.5587 8.68752 77.4076C8.34631 77.2488 8.43937 75.8204 8.56344 75.3124C8.72495 74.643 8.84923 73.9647 8.93568 73.2808C8.63822 73.3936 8.37207 73.5788 8.16021 73.8204L7.75696 73.2966L7.55534 73.0268C7.68576 72.6705 7.86317 72.334 8.08266 72.0268L7.71044 71.8681H7.50881C7.04353 72.0744 6.76437 72.0269 6.88844 71.7411V71.5189V70.884C6.60687 70.3851 6.388 69.8518 6.23704 69.2968C6.27525 68.9895 6.38736 68.6967 6.56329 68.4446C6.73923 68.1925 6.9735 67.989 7.24515 67.8524C7.86552 67.5984 7.86553 66.1382 7.41575 66.2651L7.13658 66.4556L6.85742 66.6461C6.53172 66.8365 5.91134 66.535 5.46157 65.9953L5.69421 65.535C5.74167 65.3729 5.79864 65.2139 5.86482 65.0588C6.08195 64.7255 6.34561 64.4081 6.59376 64.0906C6.84191 63.7732 7.18311 64.5668 7.50881 64.0906L7.60187 63.9478C7.9896 63.9478 7.94307 63.7097 7.50881 63.5986V63.4557C7.50881 63.2335 7.67941 62.9637 7.86553 62.7574C8.05164 62.551 8.23776 62.6463 8.39285 62.5669C8.54794 62.4875 8.87364 61.678 8.50142 61.5828C8.3329 61.562 8.17357 61.4928 8.04183 61.3833C7.9101 61.2738 7.81134 61.1283 7.75696 60.9638L7.66391 60.7891C7.01252 60.7891 7.07455 60.5035 7.80349 60.2813C8.53243 60.059 10.4866 59.1067 11.3861 59.6146L12.5028 59.4559C12.7199 59.4559 13.1852 59.8368 13.2783 60.1066L13.4954 60.7733C14.0382 60.5828 14.3174 60.1543 14.1313 59.8368V59.567C14.2452 58.7381 14.4057 57.9167 14.6121 57.1068V56.9321C14.877 56.7856 15.1517 56.6584 15.4341 56.5512C15.5892 56.5512 15.9924 55.9957 16.2716 55.9957C16.6849 55.9714 17.0951 55.9077 17.4968 55.8052C17.7012 55.6766 17.8888 55.5219 18.0552 55.3449C18.1792 55.2338 18.7686 55.6782 18.8462 55.7576C18.9237 55.837 19.42 55.9163 19.4665 55.583C19.5131 55.2497 19.8853 54.6941 20.242 54.9005C20.4555 54.9408 20.6748 54.9347 20.8859 54.8828C21.0969 54.8308 21.295 54.7341 21.4672 54.5989C21.4461 54.5607 21.433 54.5185 21.4286 54.4749C21.4242 54.4313 21.4287 54.3872 21.4419 54.3454C21.455 54.3037 21.4764 54.2651 21.5048 54.2323C21.5332 54.1994 21.5679 54.1729 21.6068 54.1545H21.7154C22.2117 54.3291 22.77 54.9957 22.9406 53.9323C23.2183 53.9538 23.4935 54.0016 23.7626 54.0751C24.2874 54.0407 24.8072 53.9502 25.3135 53.8053C25.5927 53.8053 26.4767 53.8053 26.8645 53.8053C27.2522 53.8053 28.0277 53.1228 27.7175 52.9958C27.4073 52.8688 26.7559 52.1704 26.911 51.726C27.0661 51.2816 25.3601 50.0276 25.5307 49.9959C25.7013 49.9642 25.8409 49.5674 25.3911 49.2658V48.361C24.972 48.3583 24.5626 48.2315 24.2124 47.996L24.0728 47.8214L23.7471 47.3929C23.9409 46.806 23.9409 46.1702 23.7471 45.5834L23.623 45.1072V44.9485C23.623 44.758 24.1038 44.7898 24.5691 45.0437C25.2085 45.1412 25.8618 45.0417 26.4457 44.758C26.4457 44.6787 26.3527 44.3612 26.058 44.2342H25.9184L25.6082 44.3929C25.205 44.5993 24.9413 44.5834 25.0189 44.3929V44.2025V43.9961C25.0189 43.7739 25.0189 43.6311 25.0189 43.6628C24.7486 43.7283 24.4671 43.7283 24.1969 43.6628C23.9642 43.6628 24.4295 42.647 24.6001 42.1708L25.2515 42.0597C25.3692 42.0455 25.4842 42.0134 25.5927 41.9645L25.4997 40.8851C26.5078 40.4725 27.0506 40.0121 26.849 39.8693C26.3697 39.8136 25.8858 39.8136 25.4066 39.8693C25.236 39.8693 24.0108 39.4566 23.0647 39.0916L22.0876 39.2661C21.6378 39.2661 21.5913 39.1074 21.4672 38.79L21.2811 38.2979C21.1191 38.4573 20.9207 38.5727 20.704 38.6337C20.4874 38.6946 20.2592 38.6993 20.0404 38.6471C19.3784 38.4469 18.7389 38.1755 18.1327 37.8376L18.4739 37.4249C18.3148 37.1082 18.1223 36.8102 17.9001 36.5361C17.807 36.4408 17.4658 36.3139 17.3883 36.4408L17.2642 36.5361L17.0936 36.6631C16.8765 36.7583 16.4267 36.9329 16.0855 37.044C15.5875 37.2192 15.0566 37.2736 14.5346 37.2027C14.3639 37.0758 14.0227 36.4726 14.1933 36.2186C14.3639 35.9647 15.6047 36.3773 16.0855 36.3932V36.1234C16.0855 35.8536 15.8994 35.2187 15.7753 35.2187L13.5885 35.1393C13.8832 33.8695 13.8521 32.8061 13.5885 32.7743C13.3248 32.7426 12.7355 33.314 12.6579 33.2346L12.3012 32.9489C12.1804 32.7715 12.0716 32.5859 11.9755 32.3934C11.8514 32.1394 12.2857 31.2505 12.4253 31.0283V30.822V30.6315C12.4028 30.5221 12.3408 30.4254 12.2517 30.3607C12.1625 30.2959 12.0529 30.2679 11.9445 30.2823H11.7584H11.6033C11.5309 30.31 11.4511 30.3091 11.3794 30.2798C11.3077 30.2504 11.2493 30.1947 11.2156 30.1236L11.5102 29.7586C12.0065 29.2189 11.96 28.9332 11.3861 29.1396H11.0604L10.8588 29.3141C10.1609 29.3141 9.54053 29.0919 9.50951 28.8697V28.711L9.63359 27.0444C9.06811 26.5529 8.47795 26.092 7.86553 25.6635L7.69492 25.3143C7.7229 24.7634 7.60501 24.215 7.35371 23.7271L6.99701 23.6C6.09746 23.2985 6.12848 22.7588 6.17501 22.1398V21.9176C6.17501 21.489 5.70973 21.3144 5.15139 21.5208L5.50811 20.9652C5.84932 20.4414 5.24444 20.4573 5.07384 20.251C4.90324 20.0446 4.68611 20.9176 4.5 20.251V20.1558L5.12038 19.8224C5.05851 19.4091 4.8807 19.0232 4.60856 18.7114L4.74814 18.0923C4.74814 17.9336 4.91876 17.7749 4.90325 17.632V17.4574C4.77917 17.267 4.81019 17.1558 4.90325 17.1876C5.30601 17.2005 5.70405 17.0959 6.05094 16.886C6.34561 16.648 5.92686 15.7274 6.05094 15.648C6.59376 16.0607 7.07455 16.14 7.60187 15.5527L8.02062 15.0607C8.47039 15.4099 8.85812 15.5369 8.90465 15.3464C9.25929 14.8472 9.7671 14.484 10.347 14.3147L10.8433 15.1718L11.0915 15.6162C11.7739 15.1242 12.2237 14.6798 12.0841 14.648C11.9445 14.6163 11.6033 14.394 11.6498 14.2671H12.6269H12.782C12.867 14.2898 12.9569 14.2835 13.0381 14.2491C13.1193 14.2147 13.1873 14.1542 13.2318 14.0766C13.2318 13.9179 13.8676 14.0766 13.9142 13.902C13.9607 13.7274 14.2864 13.4893 14.395 13.6798C14.4642 13.754 14.5488 13.8113 14.6427 13.8474C14.7365 13.8835 14.8371 13.8976 14.9369 13.8884C15.0368 13.8793 15.1334 13.8472 15.2194 13.7946C15.3055 13.742 15.3789 13.6702 15.4341 13.5845L15.6667 13.3465L15.8063 13.2036C16.2376 13.1796 16.6683 13.2612 17.0626 13.4417C17.4348 13.5846 18.7376 13.2354 19.0012 13.4417C19.2649 13.648 20.0249 13.9655 20.3195 13.4417L20.5677 13.1242L20.8003 12.8068C21.233 12.7682 21.6684 12.8334 22.0721 12.9973C22.3202 13.1243 22.8321 12.4894 23.1267 12.5052C23.5554 12.5371 23.978 12.6279 24.383 12.775C24.4916 12.775 25.0189 12.9814 25.1429 12.775C25.267 12.5687 25.8409 11.8703 26.12 11.9656C26.5326 12.0135 26.9504 11.9702 27.3453 11.8386C27.5624 11.7433 28.2138 12.0132 28.3224 11.9338V11.8545V11.5529C28.8526 11.6968 29.3711 11.8825 29.8733 12.1084V11.2831C30.3053 11.139 30.7456 11.0224 31.1916 10.9339C32.2273 10.9248 33.2627 10.9725 34.2935 11.0767L34.6657 11.172C35.0534 11.2672 35.3016 11.6958 35.3171 10.9815C35.3171 10.9815 35.7668 10.7751 35.7824 10.791C36.2476 11.3465 36.9456 10.9021 37.0852 10.791C37.5039 10.3148 38.0933 10.9656 38.5585 10.5053L38.7291 10.3466L40.2801 10.7751C40.6788 10.6609 41.0489 10.4607 41.3657 10.1879C41.769 9.87043 43.1493 10.4259 43.2269 10.3942V9.5371C43.9718 9.70597 44.7489 9.64519 45.4602 9.36248L45.941 10.0133L46.1736 10.3307L47.7246 9.69583H48.0347H48.1433C48.4063 9.66835 48.6713 9.66835 48.9343 9.69583C49.26 9.69583 50.4852 9.69583 50.7644 9.69583C51.0436 9.69583 51.9586 9.39425 52.0517 9.48948C52.1447 9.58472 52.5014 9.80693 52.579 9.67995V9.58472L52.6565 9.4736C52.7651 9.36249 52.8892 9.34662 52.9202 9.4736C52.9856 9.63734 53.0864 9.78382 53.2149 9.90213L53.8352 9.75929C54.3588 9.68331 54.8769 9.57197 55.3862 9.42598L55.4792 9.33075L56.0996 8.72759C56.5804 9.299 57.0767 9.61647 57.2008 9.44187C57.3248 9.26727 57.7281 8.91805 57.8522 9.01328C57.9762 9.10852 58.2399 8.75935 58.2554 8.0927L59.155 8.93394L59.31 9.07679C59.7558 8.99957 60.2073 8.96238 60.6594 8.96567C60.923 8.96567 61.5589 9.10852 61.5744 8.96567C61.5899 8.82282 62.536 8.74347 62.6756 8.88632C62.8152 9.02918 63.0788 8.77523 63.0633 8.15621L64.0559 8.93394C64.149 9.0133 64.6918 8.71171 65.033 8.56886L65.2036 8.48951C65.7118 8.29336 66.2295 8.12382 66.7545 7.98159C67.4524 7.77524 69.2826 8.64825 69.4377 8.64825C69.9843 8.59158 70.5278 8.50681 71.0661 8.39428C72.1553 8.30652 73.2495 8.30652 74.3386 8.39428L74.5247 8.23555L74.99 7.88635C75.3954 8.07768 75.8227 8.21633 76.2618 8.29905H77.0372C77.4852 8.09693 77.9464 7.92719 78.4176 7.79112C79.1619 7.67566 79.9136 7.61727 80.6664 7.6165H81.3023H81.4729C81.6745 7.53714 81.8762 7.61653 81.9072 7.74351C81.9382 7.87049 82.6826 7.74351 82.7912 7.74351C82.8998 7.74351 83.3495 7.36258 83.5201 7.50543C83.8022 7.71459 84.1518 7.80546 84.4972 7.7594C85.0568 7.53387 85.6395 7.37409 86.2343 7.28319L86.3894 7.48954C86.7306 7.93397 87.1338 7.04509 87.506 7.6165L87.6767 7.85463C88.0879 7.60743 88.5715 7.51744 89.0415 7.60066C89.2121 7.71177 89.7084 7.94985 89.7549 7.83874C89.8014 7.72763 90.0186 7.47369 90.1271 7.50543C90.226 7.52875 90.3292 7.52326 90.4251 7.48959C90.5211 7.45593 90.6059 7.39545 90.67 7.31497C91.4275 7.1643 92.1946 7.06879 92.9653 7.02923L93.8649 7.28319C94.7156 7.54814 95.6338 7.46273 96.4239 7.04512L96.8427 6.79115C97.378 6.8521 97.9011 6.99661 98.3936 7.21969C98.5305 7.28684 98.686 7.30299 98.8332 7.26532C98.9804 7.22765 99.1102 7.13855 99.2001 7.01339C99.4483 6.68007 100.534 7.25144 100.611 7.12446C100.689 6.99748 100.999 6.68006 101.046 6.90227C101.092 7.12449 101.325 7.36255 101.511 7.07684C101.697 6.79114 102.969 7.2197 103.512 7.07684L104.132 7.17208L104.97 7.29908C105.575 7.00856 106.24 6.87241 106.908 6.90227C106.908 7.01338 107.249 7.26731 107.327 7.12446C107.486 6.88868 107.714 6.71082 107.978 6.61658L108.568 7.10862C109.361 7.03073 110.159 7.0042 110.956 7.02923C111.468 7.02923 113.096 6.83877 113.469 7.14035L113.918 6.60069C113.918 6.50546 114.554 6.75943 114.88 6.75943H115.857C116.927 6.68006 118.432 6.52131 119.192 6.37845L119.75 6.94989L119.874 7.06101C120.285 6.99522 120.699 6.95809 121.115 6.94989C121.425 6.94989 122.216 7.10861 122.247 6.94989C122.278 6.79116 123.317 6.87051 123.674 7.23558L124.232 6.77527L124.418 6.61658L125.752 6.85466C125.969 6.85466 126.807 6.98161 127.117 6.98161H127.396C127.602 7.00588 127.81 7.00588 128.016 6.98161C128.249 6.98161 128.435 6.79117 128.652 6.75943H128.776C129.018 6.83951 129.279 6.83951 129.521 6.75943C130.002 6.76361 130.471 6.91264 130.87 7.18796V6.52135C131.473 6.60671 132.065 6.75564 132.638 6.96577H133.336H133.879L135.228 6.39434C135.368 6.39434 135.88 6.63245 136.081 7.01339L136.748 6.80704C137.089 6.69593 137.71 6.60067 137.834 6.72765C138.377 7.31493 138.563 6.36261 139.059 6.60069L139.493 6.80704C140.084 6.83201 140.671 6.91708 141.246 7.06101L141.355 6.96577L142.021 6.41023C142.502 6.65402 143.038 6.75833 143.572 6.71181C143.712 6.6007 144.239 6.39437 144.379 6.56896C144.561 6.79868 144.758 7.01602 144.968 7.21969L145.806 6.8705C146.617 6.70622 147.448 6.66347 148.272 6.74354C149.026 6.70168 149.782 6.70168 150.536 6.74354C150.924 6.90226 151.932 6.36261 152.289 6.55308L153.25 5.44199C154.182 5.81896 155.149 6.10074 156.135 6.28322C156.445 6.28322 157.019 6.17212 156.988 6.48957C156.957 6.80702 158.167 6.18798 158.539 6.07687C158.938 5.98889 159.35 5.98889 159.749 6.07687C159.981 6.07687 160.586 5.94989 160.633 6.07687C160.679 6.20385 160.974 6.45782 161.082 6.33084C161.488 6.05253 161.96 5.89335 162.447 5.87057L162.882 6.09276L164.215 6.50546L164.525 6.315C164.929 6.04517 165.316 5.91815 165.379 6.02926C165.67 6.28014 165.987 6.49831 166.325 6.68003L167.038 6.09276C167.279 6.11134 167.513 6.18746 167.72 6.315C168.45 6.43356 169.196 6.3626 169.892 6.10865L170.171 5.87057C170.364 5.97801 170.514 6.1508 170.596 6.35932C170.678 6.56784 170.687 6.79909 170.621 7.01339L171.536 6.52135L172.234 6.15627C172.234 6.61657 172.234 6.74355 172.234 6.41023C172.234 6.07691 173.304 6.58484 173.35 6.56896L174.219 6.41023C174.948 6.45981 175.671 6.58747 176.375 6.79115C176.747 6.88639 177.677 6.44197 177.817 6.55308C177.957 6.66418 178.344 6.98161 178.375 6.98161C178.514 6.92824 178.64 6.84732 178.748 6.74354C179.115 6.55014 179.532 6.47805 179.942 6.53719H180.221C180.376 6.53719 180.671 6.29909 180.717 6.33084L181.183 6.69592C181.821 6.50545 182.499 6.50545 183.137 6.69592L183.68 6.85466H183.897C184.173 6.85239 184.444 6.78158 184.688 6.64831C184.843 6.52133 185.525 6.48959 185.727 6.36262C186.476 6.35559 187.224 6.42472 187.96 6.56896H188.565H189.092C189.477 6.72491 189.901 6.75266 190.302 6.64831C190.666 6.45868 191.074 6.37626 191.481 6.41023L191.806 6.55308C192.163 6.69593 192.458 7.15623 192.473 6.41023C192.601 6.38372 192.733 6.38372 192.861 6.41023C193.661 6.54382 194.471 6.59169 195.281 6.55308L195.885 6.47369C196.242 6.62707 196.61 6.74922 196.987 6.83877C197.337 6.81128 197.685 6.75289 198.026 6.6642C198.998 6.62688 199.972 6.70678 200.926 6.90227C201.484 7.061 203.035 6.26735 203.407 6.28322C204.127 6.26065 204.842 6.14328 205.532 5.93403C205.997 5.74356 207.083 6.56895 207.083 6.55308C207.083 6.5372 207.874 6.10864 208.169 6.44196H208.464C208.774 6.44196 209.208 6.15625 209.487 6.23561L210.076 6.39434C210.336 6.12457 210.673 5.94662 211.038 5.88641L211.193 5.98164L211.457 6.14038C211.689 6.36259 212.015 6.45782 212.17 6.33084C212.325 6.20386 212.698 6.06103 212.729 6.2515C212.76 6.44197 213.644 6.47371 213.799 6.2515C213.954 6.02928 214.59 5.90228 214.714 6.07687C214.913 6.32897 215.148 6.54844 215.412 6.72765C215.846 5.93403 216.528 6.58482 217.071 6.55308H217.335C217.662 6.42978 218.01 6.37577 218.358 6.39434C218.683 6.4325 219.005 6.49617 219.32 6.5848C219.615 6.69591 220.949 6.36261 221.507 6.50546L222.127 6.37845C222.468 6.29909 222.934 6.61658 223.259 6.52135L223.818 6.36262C224.361 6.47372 225.214 6.5848 225.694 6.63242L226.144 6.55308L226.935 6.44196L228.812 6.28322C229.133 6.38246 229.423 6.56893 229.649 6.82288C229.866 7.09271 230.843 6.68003 231.014 6.82288C231.185 6.96573 231.696 7.15624 231.805 7.06101C231.805 6.82292 231.495 6.41021 231.541 6.39434L232.053 6.17215C232.128 6.46009 232.291 6.71592 232.518 6.90227C232.76 6.91389 232.999 6.84724 233.201 6.71181C233.34 6.6007 233.821 6.41021 233.992 6.53719C234.162 6.66417 234.597 6.53718 234.628 6.02926L235.434 6.37845C235.31 6.64829 235.636 6.80701 236.163 6.72765C236.69 6.64829 237.962 7.25147 238.071 7.15624V6.47369C238.457 6.5487 238.829 6.68812 239.172 6.88638C239.296 6.99749 239.699 7.2197 239.746 7.02923C239.769 6.95647 239.808 6.89024 239.861 6.83577C239.913 6.7813 239.977 6.7401 240.048 6.71544C240.119 6.69079 240.194 6.68336 240.268 6.69374C240.342 6.70413 240.413 6.73204 240.475 6.77527C240.8 6.99748 242.181 6.63242 242.553 6.63242C243.066 6.70581 243.555 6.90157 243.98 7.20385C244.057 7.36258 245.066 7.07688 245.205 6.91816C245.293 6.85766 245.392 6.81609 245.495 6.79609C245.599 6.7761 245.706 6.77807 245.809 6.80186C245.912 6.82564 246.01 6.87076 246.095 6.93443C246.181 6.99811 246.253 7.07895 246.306 7.17208L247.02 6.9975C247.78 6.82291 246.554 6.41022 247.113 6.34673H247.671H251.083H254.356H254.821C255.442 6.39551 256.061 6.23978 256.589 5.9023L257.085 6.48957L257.395 6.83877C257.469 6.44781 257.671 6.09463 257.969 5.8388L258.202 6.09276L258.59 6.48957L260.063 6.12454C260.681 6.03836 261.289 5.88944 261.878 5.68006C262.157 5.52134 263.212 5.98166 263.568 5.99753C264.132 5.89478 264.683 5.72981 265.212 5.50549C265.687 5.32865 266.174 5.19064 266.67 5.09279L267.042 4.90233L267.74 4.52141C268.05 4.96584 268.314 5.18803 268.345 4.99756C268.419 4.82807 268.546 4.68893 268.706 4.60254C268.867 4.51615 269.051 4.48757 269.229 4.52141C269.952 4.75836 270.694 4.92836 271.447 5.02934C271.85 5.02934 273.339 4.39443 274.146 4.37856H274.812C275.479 4.37856 276.115 4.2833 276.767 4.29917H277.216C277.662 4.1042 278.158 4.06518 278.628 4.1881L278.845 4.09282C279.496 3.7595 279.682 3.90237 279.76 4.4579C280.424 4.35246 281.056 4.09174 281.606 3.69601L282.583 4.36267H282.691C282.8 4.44204 282.893 4.26744 282.908 3.96586C282.924 3.66429 284.18 3.96584 284.459 4.09282C285.005 4.17164 285.558 4.17164 286.103 4.09282C286.61 3.95026 287.13 3.86514 287.654 3.8389C287.918 3.8389 288.879 3.58491 289.438 3.64839C289.996 3.71188 291.625 3.64839 291.857 3.64839C292.09 3.64839 292.586 4.12457 292.648 3.99759C292.71 3.87061 292.989 3.68014 293.114 3.99759H293.284L293.563 4.09282C293.92 4.09282 294.742 3.98175 295.378 3.93414L295.75 3.7119L296.246 3.39448C296.541 3.55997 296.861 3.67268 297.192 3.72779C297.447 3.68172 297.693 3.59607 297.921 3.47382C298.446 3.48415 298.968 3.56417 299.472 3.7119C300.161 3.71166 300.846 3.60466 301.504 3.39448C301.628 3.39448 302.264 4.07697 302.311 3.87063C302.391 3.68468 302.518 3.52368 302.679 3.40388C302.839 3.28407 303.028 3.20968 303.226 3.18813H303.598H304.094C304.611 3.39804 305.167 3.49009 305.723 3.45793C306.095 3.45793 307.274 3.06116 307.553 2.99767C307.832 2.93418 308.576 3.23575 308.623 2.99767C308.669 2.75958 308.871 2.31513 308.995 2.331C309.491 2.74369 309.91 3.21986 310.763 2.72782L310.996 2.58497C311.419 2.67554 311.851 2.71287 312.283 2.69609C312.645 2.73447 313.003 2.80345 313.353 2.90239H313.493L313.989 2.80716C314.581 2.68225 315.186 2.63955 315.788 2.6802H316.191H316.502C316.92 2.36275 317.386 2.25164 317.525 2.42624C317.665 2.60083 318.13 2.8548 318.332 2.6802C318.533 2.5056 319.371 2.14052 319.588 2.36273C320.063 2.63654 320.594 2.79409 321.139 2.82305L321.666 2.90239L322.178 2.99767C322.623 2.82858 323.087 2.71658 323.558 2.66431L323.9 2.52147L324.055 2.44212C324.675 2.42069 325.29 2.31936 325.885 2.14054L326.629 2.64847L327.032 2.91828C327.777 2.91828 328.428 2.61672 328.475 2.34689C328.521 2.07706 329.436 2.26753 329.669 2.34689C329.902 2.42625 330.817 2.50559 331.127 2.56908C331.437 2.63257 332.197 2.26752 332.259 2.28339L332.755 2.64847C332.911 2.77545 334.105 3.0294 333.934 2.83893C333.764 2.64846 333.779 2.47384 334.322 2.71193L334.896 2.15643C335.144 1.93422 335.966 2.15643 336.524 2.15643H336.943C337.164 2.35688 337.409 2.52753 337.672 2.66431C337.78 2.66431 338.556 2.66431 339.316 2.75954L339.843 2.17227L339.921 2.07704C340.665 2.331 341.193 2.41037 341.099 2.23577C341.006 2.06118 340.882 1.60087 340.944 1.53738C341.302 1.41757 341.671 1.33775 342.046 1.29931C342.542 1.29931 343.907 1.66438 344.124 1.55327H344.232L344.713 1.77546C345.238 1.73436 345.766 1.80461 346.264 1.98181C346.528 2.12466 347.505 1.31516 348.125 0.934223L348.73 1.14057L349.443 1.39454C349.716 1.16459 350.007 0.957555 350.312 0.775489C350.494 0.750081 350.668 0.685146 350.824 0.585028C351.01 0.458048 351.832 0.807228 352.049 0.918335C352.266 1.02944 353.088 1.25166 352.918 0.918335C352.747 0.585014 353.709 0.918355 353.895 0.838992C354.29 0.811261 354.685 0.8878 355.042 1.06123C355.322 1.26757 356.345 1.23581 356.268 1.14057C356.952 0.884436 357.686 0.802726 358.408 0.902496L358.889 1.20408L359.788 1.75962C359.866 1.15647 360.269 0.965984 360.672 1.34692L361.51 1.09296C362.496 0.838832 363.537 0.922451 364.472 1.33103C364.702 1.47789 364.965 1.56352 365.236 1.58015C365.507 1.59679 365.777 1.54388 366.023 1.42626C366.318 1.26754 367.109 1.63264 367.574 1.85485C367.838 1.95009 366.954 2.20404 367.574 2.39451C367.745 2.39451 368.055 2.1564 368.272 2.17227C368.489 2.18814 369.156 2.29924 369.249 2.50558L369.575 3.12463C370.273 3.3151 371.234 3.58495 371.699 3.74367C372.425 3.93546 373.168 4.04719 373.917 4.07698C374.196 4.07698 375.034 4.28332 375.236 4.21983C375.437 4.15634 375.84 4.09286 375.794 4.37856C375.747 4.66427 376.771 4.25159 376.957 4.1881C377.437 4.15723 377.919 4.15723 378.399 4.1881C378.958 4.1881 380.354 4.79121 380.493 4.7436C380.633 4.69598 381.145 4.74359 381.16 4.83883C381.267 5.02787 381.43 5.17739 381.625 5.26582C381.82 5.35424 382.037 5.37703 382.246 5.33092C383.268 5.44304 384.274 5.68288 385.239 6.04515L385.456 6.75943C385.549 7.10862 386.557 7.15624 386.743 7.85463L386.821 8.17205L388.232 8.69586C388.338 8.75628 388.42 8.8533 388.463 8.96959C388.505 9.08589 388.506 9.21388 388.465 9.33075L389.039 9.55294C388.815 9.96717 388.687 10.429 388.667 10.9021V11.2354L388.791 11.9497C388.849 12.478 389.042 12.9814 389.349 13.41H389.628C389.783 13.41 389.938 13.41 389.938 13.5528C389.938 13.6957 389.644 13.8544 389.349 13.9972L389.085 14.156C389.085 14.156 389.085 14.3782 389.085 14.4734C389.085 14.5686 389.271 14.4734 389.365 14.4734C389.458 14.4734 389.458 14.3782 389.52 14.3623H389.845C390.202 14.3623 390.497 14.3623 390.466 14.4893C390.582 14.8721 390.816 15.2062 391.133 15.4416L391.396 15.7591L391.567 15.9654C391.567 16.3781 391.226 16.5686 390.76 16.394C390.295 16.2194 389.132 16.394 389.52 17.2352C389.907 18.0765 390 20.5049 389.613 20.616C389.154 20.7258 388.71 20.8966 388.294 21.124C388.641 21.2939 388.978 21.4847 389.303 21.6954L389.427 21.9811C389.83 22.7906 390.078 21.5525 390.466 21.9811L390.698 22.2192C391.179 22.3938 391.443 22.7588 391.272 23.0128C391.102 23.2667 391.598 24.6 391.691 25.2191L391.381 25.8063C391.32 25.9942 391.3 26.1936 391.323 26.3902C391.345 26.5868 391.41 26.7759 391.512 26.944C391.614 27.1122 391.751 27.2553 391.914 27.3631C392.076 27.471 392.259 27.541 392.451 27.5682H393.118C393.878 27.6951 394.188 27.8221 393.831 27.8538C393.475 27.8856 392.466 28.1078 392.466 28.33C392.466 28.5523 392.823 29.203 393.273 29.1396H393.692H393.924C394.231 29.1477 394.537 29.1795 394.839 29.2348C395.087 29.2348 396.39 29.2348 396.902 29.2348C397.414 29.2348 398.189 30.5839 398.112 30.695H397.802C397.197 30.6157 396.871 31.0284 397.104 31.4569C397.336 31.8855 397.414 32.1394 397.709 32.2823L398.344 32.6156C398.344 33.187 398.562 33.5362 398.717 33.3775H398.887C399.074 33.3416 399.266 33.3754 399.43 33.4727C399.476 33.5375 399.5 33.6152 399.5 33.6949C399.5 33.7747 399.476 33.8524 399.43 33.9171C399.288 34.1044 399.099 34.2489 398.884 34.3355C398.668 34.4221 398.434 34.4476 398.205 34.4092C398.126 34.4227 398.053 34.4579 397.993 34.5111C397.933 34.5643 397.888 34.6333 397.864 34.7107C397.872 34.7902 397.9 34.8661 397.947 34.9303C397.993 34.9946 398.055 35.0448 398.127 35.0758L398.577 35.2663C399.104 35.4409 399.089 35.806 398.577 36.0599H398.081H397.693C397.135 35.7742 396.669 35.9329 396.669 36.4091V36.7266L396.545 37.1868C396.037 37.3292 395.518 37.4301 394.994 37.4884C394.669 37.4884 394.762 38.5043 394.994 39.0757C395.227 39.6471 395.568 41.3613 395.243 41.5041C394.917 41.647 395.243 42.5676 395.398 42.7264C395.553 42.8851 395.91 43.4406 395.646 43.5993L395.336 43.7104C395.056 43.8057 394.731 43.2978 394.421 43.7104C394.043 43.6401 393.674 43.5283 393.319 43.3771C392.579 43.3358 391.836 43.4107 391.117 43.5993C390.152 43.572 389.197 43.3788 388.294 43.0279C387.482 42.9202 386.663 42.8724 385.844 42.885C385.503 42.885 384.619 42.3613 384.51 42.5517C384.329 42.8937 384.228 43.2741 384.215 43.6628C384.215 43.9168 385.332 44.0755 385.58 44.0596L385.689 44.1549C385.937 44.3612 385.689 44.8691 386.418 44.8056H386.526C386.568 44.8924 386.63 44.9666 386.708 45.0211C386.785 45.0757 386.876 45.1085 386.97 45.1165C387.063 45.1245 387.158 45.1074 387.243 45.0668C387.329 45.0262 387.402 44.9635 387.457 44.885L387.534 45.6151V45.7579C388.04 45.8996 388.562 45.9691 389.085 45.9643L389.163 46.4087V46.7579C389.272 47.1706 389.163 47.3928 388.946 47.25C388.564 47.087 388.143 47.0429 387.736 47.123C387.557 47.2127 387.361 47.2593 387.162 47.2593C386.963 47.2593 386.767 47.2127 386.588 47.123C386.247 46.9008 385.425 46.2342 385.301 46.3929C385.503 46.8691 385.968 47.3611 385.89 47.7897L385.797 48.2817C385.239 48.8531 384.929 49.4245 385.115 49.5674C385.314 49.6458 385.528 49.6766 385.74 49.6574C385.953 49.6381 386.158 49.5693 386.34 49.4562L386.542 49.1864L386.666 49.0118C386.666 48.7579 386.775 48.5674 386.852 48.5991L387.271 49.1388C387.622 48.8911 388.038 48.7583 388.465 48.7579C388.62 48.7579 388.574 49.2816 388 49.6308L388.372 50.2023L388.527 50.4403C388.77 50.417 389.014 50.4757 389.221 50.6075C389.428 50.7394 389.588 50.9371 389.675 51.1704C389.907 51.6784 390.202 52.2498 390.093 52.345C389.929 52.4019 389.755 52.42 389.583 52.398C389.411 52.376 389.246 52.3145 389.101 52.218L388.791 51.9958C388.587 52.0321 388.404 52.1454 388.279 52.3133C388.17 52.472 388.062 53.0117 388.279 53.0275C388.496 53.0434 389.396 53.2815 389.147 53.4402C388.899 53.599 388.263 54.2021 388.372 54.3926C388.481 54.583 388.884 55.0751 389.023 54.9323H389.147C389.535 54.837 390.14 55.2338 390.574 55.9957L390.76 56.3131C390.576 56.5858 390.374 56.8457 390.156 57.0909C390.128 57.1352 390.11 57.1847 390.102 57.2365C390.095 57.2883 390.097 57.3412 390.11 57.3918C390.123 57.4425 390.147 57.4898 390.178 57.5309C390.21 57.572 390.25 57.6059 390.295 57.6305H390.838C391.412 57.6305 391.582 57.8052 391.35 58.2496C391.35 58.3766 391.117 58.567 391.164 58.6146L391.427 58.8369C391.366 58.9793 391.258 59.0953 391.122 59.1649C390.986 59.2345 390.831 59.2532 390.683 59.2178L390.528 58.8527V58.7099C389.706 58.7099 389.737 58.8527 390.528 59.1861L390.187 59.8368L390.016 60.186C389.939 60.3351 389.898 60.5013 389.898 60.6701C389.898 60.8389 389.939 61.0051 390.016 61.1542C390.171 61.2812 390.481 61.9478 390.264 62.2018C390.047 62.4558 388.992 62.805 388.992 63.043L389.085 63.2018L389.287 63.5192C389.458 63.916 389.442 64.1223 389.287 63.9636C388.959 63.7863 388.586 63.7144 388.217 63.7573C387.826 63.8209 387.429 63.8209 387.038 63.7573C386.79 63.7573 386.077 63.8367 386.201 63.9319L386.992 64.5509C387.193 64.6779 387.86 64.3446 387.922 64.3446C387.984 64.3446 388.139 64.5033 388.108 64.7731C388.077 65.043 389.132 64.7731 389.318 64.7731C389.504 64.7731 389.845 64.9795 389.504 65.1382C389.163 65.2969 388.186 65.5509 388.108 65.408C387.96 65.2276 387.748 65.1137 387.519 65.0906C387.41 65.0906 386.945 65.9159 386.743 65.9001C386.535 65.9372 386.338 66.0241 386.168 66.1537C385.998 66.2833 385.861 66.452 385.766 66.6461L385.953 67.0905C386.02 67.3031 386.15 67.489 386.325 67.6226C386.5 67.7563 386.711 67.831 386.93 67.8365H387.038C387.178 67.9635 387.131 68.2651 386.945 68.5349C386.57 68.8547 386.176 69.1515 385.766 69.4237C385.658 69.5349 385.673 69.9793 385.549 70.0111C385.425 70.0428 385.301 70.3126 385.255 70.3444C385.208 70.3761 385.255 70.5983 385.534 70.7729C385.901 71.1673 386.13 71.6753 386.185 72.2173L385.953 72.4713C385.286 73.1697 385.456 73.5506 386.371 73.9792L387.1 74.2966C386.676 74.7394 386.282 75.2114 385.921 75.7093C385.735 76.0108 385.177 76.3759 385.689 76.4076L385.611 77.0743V77.3441C385.611 77.7251 385.751 78.3282 385.797 78.6456L386.061 78.8837L386.387 79.1377C386.254 79.5692 386.099 79.993 385.921 80.4075L386.247 80.8043L387.054 81.7567L385.766 82.5185C386.1 83.2059 386.534 83.8374 387.054 84.3915L387.643 85.3279L387.814 85.5977L387.116 85.4232C386.924 85.4565 386.74 85.5265 386.573 85.6295C386.24 85.8214 385.886 85.9706 385.518 86.074C385.078 86.127 384.646 86.2335 384.231 86.3914L383.874 86.5342L383.455 86.7088C382.549 86.6822 381.644 86.8 380.772 87.058C379.78 87.3279 376.585 87.5183 376.042 87.6612H375.53L375.003 87.7405C373.976 87.9041 372.94 87.9995 371.901 88.0262H370.35C369.741 88.2662 369.179 88.6156 368.691 89.058L368.194 88.4389C368.194 88.3596 367.279 88.6452 367.264 88.6135C367.016 87.9627 366.488 89.0897 366.132 88.4865L366.007 88.2802C365.569 88.5736 365.058 88.7333 364.534 88.7405L364.022 89.1214C363.46 89.0462 362.889 89.0949 362.347 89.2643C362.099 89.3913 361.029 89.1056 360.796 89.1532C360.062 89.2716 359.321 89.3458 358.579 89.3754C357.701 89.5266 356.815 89.6273 355.926 89.677C355.756 89.5341 354.639 89.9786 354.127 90.1373L353.724 90.0421L353.042 89.8833C352.344 89.9944 351.491 90.1055 351.01 90.1531C350.529 90.2007 349.645 90.4706 349.568 90.3436C349.49 90.2167 348.761 90.3436 348.373 90.7087C347.986 91.0737 346.404 90.5658 346.047 90.7087L345.923 90.6293L345.349 90.2643C344.73 90.5814 344.037 90.7135 343.348 90.6452L342.836 90.7881L342.325 90.9309C341.686 90.7647 341.029 90.6899 340.371 90.7087H339.828H339.316C338.711 90.8661 338.072 90.8102 337.501 90.5499L336.912 90.8357L336.478 91.042C335.57 91.0337 334.662 91.0974 333.764 91.2325L332.911 91.0261L332.337 90.8833C331.577 91.0896 330.786 91.2801 330.522 91.3118C330.096 91.2491 329.666 91.2173 329.235 91.2166C328.72 91.2797 328.199 91.2797 327.684 91.2166C327.141 91.2166 325.776 91.4706 325.73 91.3595C325.683 91.2483 325.528 91.2325 325.513 91.5658C325.497 91.8991 324.411 91.2801 324.194 91.2801C323.977 91.2801 323 91.2801 322.535 91.3753C322.069 91.4706 320.829 91.2642 320.503 91.3753C319.843 91.3769 319.184 91.3185 318.533 91.2007C318.099 91.2007 316.548 91.2007 316.083 91.2007C315.618 91.2007 314.408 91.7087 314.206 91.7245C314.005 91.7404 313.338 91.5817 313.09 91.5975C312.841 91.6134 312.112 91.5975 311.539 91.5975L309.212 91.423C309.011 91.423 308.53 91.5975 308.375 91.423C308.22 91.2484 306.901 91.4229 306.483 91.5023C305.609 91.5464 304.744 91.701 303.908 91.9626L303.195 91.5023L302.652 91.169C301.657 91.1695 300.665 91.2705 299.69 91.4706L298.93 91.1849H298.821C298.64 91.3505 298.412 91.4547 298.171 91.4831C297.929 91.5115 297.685 91.4628 297.472 91.3436C296.383 91.298 295.293 91.3994 294.23 91.6451C293.1 91.6053 291.978 91.4457 290.88 91.169C290.756 91.169 289.903 91.296 289.097 91.4071L288.337 91.1531L287.902 91.0103C287.816 91.2232 287.656 91.3959 287.453 91.4955C287.249 91.5951 287.018 91.6145 286.801 91.5499C286.46 91.3753 285.514 91.1055 285.25 91.2959C284.987 91.4864 284.196 91.8991 284.01 91.7086C283.456 91.3813 282.816 91.2371 282.179 91.2959L281.668 91.5182C281.425 91.6355 281.16 91.6963 280.892 91.6963C280.624 91.6963 280.359 91.6355 280.117 91.5182L279.605 91.2642C279.273 91.4788 278.876 91.5633 278.488 91.5023C278.256 91.5023 277.449 91.2483 277.216 91.2007C276.769 91.2052 276.329 91.3138 275.929 91.5182C275.666 91.6769 274.766 91.5182 274.533 91.5182C274.017 91.5597 273.499 91.5597 272.982 91.5182C272.688 91.5182 271.881 91.3595 271.866 91.1849C271.85 91.0103 271.664 90.5023 271.556 90.5658C271.447 90.6293 271.121 90.6452 271.044 90.5658C270.966 90.4865 270.485 90.296 270.237 90.3913L270.098 90.6928C269.989 90.9309 269.462 91.0102 269.152 91.2007C268.237 91.7404 268.221 91.7404 267.259 91.1055L267.12 91.0103C266.997 90.9567 266.863 90.936 266.73 90.9499C266.597 90.9637 266.47 91.0118 266.36 91.0896C266.158 91.2325 265.321 91.5182 265.042 91.3118C264.762 91.1055 263.94 90.6611 263.909 90.8357C263.824 91.0229 263.699 91.1883 263.543 91.32C263.388 91.4518 263.206 91.5465 263.01 91.5975C261.695 91.5411 260.379 91.5835 259.07 91.7245L257.721 91.2801L257.302 91.1531C256.589 91.534 255.891 91.6928 255.751 91.5023C255.612 91.3118 254.976 91.661 254.898 91.7245C254.454 91.8142 254 91.8409 253.549 91.8039C252.638 91.7397 251.731 91.6179 250.835 91.4388C250.336 91.4903 249.851 91.6413 249.408 91.8833C249.113 92.042 247.64 91.9943 247.035 92.3912L246.322 91.8357L245.888 91.4865C245.418 91.6396 244.914 91.6396 244.445 91.4865C244.135 91.3277 243.266 91.9626 242.894 92.0102C242.522 92.0578 241.622 91.7721 241.591 91.5975C241.551 91.5198 241.494 91.452 241.425 91.3991C241.357 91.3462 241.277 91.3094 241.193 91.2912C241.109 91.273 241.021 91.274 240.938 91.294C240.854 91.314 240.775 91.3526 240.707 91.4071L240.413 91.6928L240.072 92.0102C239.744 91.8672 239.38 91.8338 239.032 91.915C238.846 91.9944 238.272 92.1372 238.241 91.915C238.21 91.6928 238.024 91.661 237.916 92.169L237.218 91.8991L236.861 91.7563L235.9 91.9785C235.682 91.9785 234.86 91.6928 234.597 91.7563C234.072 91.8103 233.543 91.7453 233.046 91.5658C232.767 91.4071 231.728 91.5658 231.278 91.3753L230.874 91.2959C230.704 91.2959 230.347 91.5182 230.316 91.4706C229.959 91.0896 229.804 91.4706 229.525 91.4706C229.246 91.4706 229.106 91.2484 228.874 91.169C228.641 91.0896 228.626 91.3277 228.626 91.423V91.5023C228.781 91.5975 228.858 91.7086 228.796 91.7563C228.734 91.8039 228.455 91.7563 228.253 91.7563C227.764 91.6946 227.268 91.7378 226.796 91.8833H226.439C225.896 91.8833 225.136 91.5341 224.888 91.7245L224.314 92.0896C223.919 91.8814 223.486 91.7623 223.042 91.7404C222.592 91.8242 222.158 91.9796 221.755 92.2007C221.538 92.3435 221.336 91.661 221.305 91.6293C220.928 91.597 220.55 91.597 220.173 91.6293L217.288 91.915C216.854 91.915 215.737 90.9626 215.52 91.1055C215.303 91.2483 214.993 91.9467 214.342 92.0102C212.922 91.8293 211.521 91.5212 210.154 91.0896L209.223 91.8198L208.975 92.0261C208.48 91.9469 207.992 91.8247 207.517 91.661C207.347 91.5658 206.68 91.661 206.385 91.661C206.091 91.661 205.191 91.8832 205.036 91.8991C204.518 91.9147 203.999 91.8882 203.485 91.8198C202.279 91.7968 201.074 91.8924 199.887 92.1055L199.096 91.5817C199.096 91.5817 197.157 91.9944 197.126 92.0102C197.095 92.0261 196.94 92.2324 196.831 92.2483L196.351 92.3435C195.901 92.1213 195.56 91.8039 195.606 91.6293C195.653 91.4547 195.513 90.9309 195.327 90.9309C195.141 90.9309 194.753 91.0738 194.893 91.2325V91.6451C194.893 91.9943 194.49 92.2007 194.009 92.1055H193.249C192.739 92.2288 192.22 92.3084 191.698 92.3435C191.202 92.3435 189.744 92.1055 189.449 92.2166C189.154 92.3277 188.177 92.0896 187.898 92.2166C187.619 92.3436 186.688 92.1213 186.533 92.2166H186.378C185.658 92.3265 184.923 92.2778 184.222 92.0737L183.555 91.8833H181.462C181.167 91.8833 180.872 91.2642 180.516 91.6769L180.314 91.8991L180.221 92.0261C179.894 92.2649 179.517 92.4224 179.12 92.4864C178.348 92.4316 177.586 92.2715 176.855 92.0102C176.544 92.0029 176.233 91.9764 175.925 91.9309C175.559 91.8839 175.189 91.8839 174.824 91.9309C174.282 91.9737 173.737 91.9737 173.195 91.9309C172.607 91.8587 172.029 91.7148 171.474 91.5023C171.474 91.4229 171.179 91.5975 170.915 92.0578L170.109 91.661C169.892 91.5499 169.287 92.0896 168.822 92.1372H168.434C168.145 92.0613 167.843 92.0593 167.554 92.1313C167.264 92.2032 166.997 92.347 166.774 92.5499L166.107 92.0737L165.72 91.788C165.099 91.5499 164.479 91.4864 164.37 91.661C164.262 91.8356 163.703 92.2166 163.548 92.0261C163.399 91.8858 163.208 91.8003 163.006 91.7831C162.804 91.7659 162.602 91.8179 162.432 91.9309L162.153 92.0737C161.929 92.1374 161.693 92.1374 161.47 92.0737V91.2959C160.664 91.0737 159.919 91.0896 159.919 91.2959C159.85 91.4877 159.722 91.6515 159.554 91.763C159.386 91.8745 159.188 91.9278 158.989 91.915L158.647 92.0102C158.368 92.0102 158.198 92.2959 158.151 91.8991C158.155 91.8183 158.136 91.738 158.096 91.6682C158.056 91.5984 157.996 91.5423 157.925 91.5068C157.854 91.4712 157.775 91.4578 157.696 91.4683C157.618 91.4788 157.544 91.5127 157.484 91.5658C156.74 92.1055 155.933 91.7404 155.096 91.8515L154.553 91.9309L153.266 92.0896H153.173L152.521 91.9785C151.622 91.8356 151.141 91.6451 151.42 91.5499C151.699 91.4547 151.125 90.9309 151.063 90.7722C151.001 90.6135 150.66 90.4389 150.629 90.7722C150.598 91.1055 150.303 91.9944 150.024 91.8674L149.823 91.7086L149.59 91.5341C149.46 91.3541 149.269 91.229 149.055 91.1823C148.841 91.1355 148.618 91.1703 148.427 91.2801C148.024 91.4865 146.876 91.661 146.736 91.3912C146.597 91.1213 145.914 90.6293 145.589 90.9944V92.1213C144.948 92.1421 144.308 92.0835 143.681 91.9467C142.968 91.903 142.253 91.903 141.541 91.9467L140.641 91.661C139.943 91.5944 139.238 91.6589 138.563 91.8515L138.191 91.7086L137.818 91.5817C137.57 91.1055 137.12 90.8198 136.795 90.9785C136.469 91.1373 135.725 91.6134 135.756 91.7404V91.9626C135.721 92.0176 135.673 92.0616 135.615 92.0896C135.557 92.1177 135.493 92.1287 135.43 92.1213C135.153 91.9796 134.902 91.7919 134.685 91.5658C134.453 91.3277 133.476 91.8198 133.336 91.8357C132.96 91.8123 132.586 91.7539 132.22 91.661V91.5341L132.111 91.1214C132.514 91.1214 133.15 91.1214 133.522 91.1214C133.895 91.1214 134.05 90.2166 133.693 90.169C133.336 90.1214 132.282 90.169 132.282 90.4389L132.126 90.6928C131.94 90.9944 131.63 91.4706 131.335 91.4865C130.544 91.4865 131.18 90.8357 130.839 90.5817C130.839 90.5817 130.436 90.8039 130.11 91.1849C129.785 91.5658 128.11 91.5499 127.582 91.5817C127.055 91.6134 126.497 90.7087 126.341 91.042C126.186 91.3754 127.303 91.6293 127.381 91.6769C127.423 91.7642 127.439 91.8627 127.425 91.9592C127.411 92.0557 127.368 92.1456 127.303 92.2166H127.117H126.884C126.406 91.9772 125.958 91.6787 125.55 91.3277L125.442 89.9786C125.442 89.7881 124.884 89.4706 124.853 89.4865C123.503 90.4071 123.953 89.296 123.813 88.8675C123.674 88.7564 123.519 88.8675 123.488 89.2643C123.457 89.6611 123.147 90.169 122.836 89.8992C122.526 89.6294 122.076 90.8039 121.968 91.0261C121.859 91.2484 121.394 91.9308 121.208 91.9467C121.022 91.9626 119.983 91.9467 119.207 91.9467H118.494H118.339C118.184 91.9467 118.044 91.9468 118.044 91.8357C118.044 91.7245 118.044 91.4229 118.044 91.2007C118.116 91.0133 118.236 90.8493 118.392 90.7263C118.547 90.6033 118.733 90.5259 118.928 90.5023H119.176H119.409C119.723 90.7166 120.068 90.8775 120.432 90.9785H120.789C120.96 90.9785 121.254 90.9785 121.301 90.8198L121.503 90.423C121.567 90.216 121.685 90.0304 121.843 89.8853C122.001 89.7402 122.194 89.6409 122.402 89.5976L122.511 89.4706C122.743 89.1532 122.743 88.677 123.038 88.4548L123.596 88.0104C123.346 87.6852 123.021 87.4288 122.65 87.2644C122.449 87.2644 121.828 87.4866 121.828 87.9469C121.828 88.4072 121.425 89.6294 120.96 89.6452L120.681 89.9627C120.339 90.3595 120.014 90.4071 119.502 90.0421L118.99 90.6134ZM124.015 87.058C123.782 86.9482 123.526 86.8991 123.271 86.9152C123.271 86.9152 123.348 87.2167 123.565 87.3913C124.221 87.6053 124.926 87.6053 125.582 87.3913L126.171 87.8517C126.171 87.8517 126.419 87.8517 126.497 87.7088L126.698 87.5183C126.962 87.185 126.853 86.8834 126.481 86.82C126.109 86.7565 124.403 87.185 124.077 87.058H124.015ZM112.771 87.7405C112.243 87.9151 111.964 88.2643 112.181 88.5342C112.399 88.804 113.345 88.2485 113.577 88.1056C114.151 87.9642 114.74 87.8949 115.33 87.8993C115.733 87.8993 116.881 87.6929 116.71 87.4231C116.54 87.1532 115.423 87.4231 115.159 87.4231C114.638 87.4567 114.115 87.4085 113.608 87.2802L113.159 87.4866L112.771 87.7405ZM383.331 43.4247C383.766 43.5676 383.952 43.4247 383.75 43.1232C383.549 42.8216 382.851 41.6787 382.509 41.1073L381.874 41.8533L381.393 42.4089C380.881 42.2184 380.741 42.1391 381.083 42.2343C381.424 42.3295 382.897 43.2819 383.331 43.4247ZM203.175 87.931C202.784 87.913 202.395 87.9948 202.043 88.1691V88.2485L202.198 88.5342C202.109 88.6311 202.06 88.7588 202.06 88.8913C202.06 89.0238 202.109 89.1515 202.198 89.2484C202.399 89.3595 203.159 88.9786 203.531 88.8834C203.904 88.7881 203.733 87.9151 203.175 87.931ZM389.938 42.9644C389.659 42.5359 389.504 42.52 389.613 42.9644C389.721 43.4089 390.978 43.9009 391.35 43.9326V43.4882V43.2818C391.66 42.8692 391.35 42.8374 390.543 43.2818L390.295 43.1866L389.938 42.9644ZM109.312 87.2961C108.428 87.5183 107.978 87.6929 108.32 87.6929C108.869 87.8502 109.391 88.091 109.871 88.4072C110.134 88.5501 110.91 88.7723 110.91 88.5024C110.91 88.2326 110.553 87.7564 110.119 87.9469H110.026L109.312 87.2961ZM147.419 88.8834C147.233 88.8834 147.326 89.3278 147.636 89.9468L148.055 90.1531L148.566 90.4071C148.961 90.7011 149.443 90.8469 149.931 90.8198L150.009 90.6611L150.102 90.4865C150.102 90.1849 149.574 89.9944 149.032 90.0579L148.721 89.9151L148.365 89.7563C148.121 89.4049 147.796 89.1212 147.419 88.931V88.8834ZM273.231 88.804C273.494 88.6929 273.541 88.4707 273.355 88.2961C273.052 88.0466 272.762 87.7817 272.486 87.5025C272.362 87.3437 271.757 87.5025 271.881 87.8993C272.005 88.2961 272.967 88.9786 273.231 88.8516V88.804ZM134.934 89.6929C134.856 89.2326 134.81 89.1849 134.841 89.5817C134.872 89.9786 134.732 91.0261 135.058 90.9944C135.383 90.9626 135.011 90.1849 134.934 89.7405V89.6929ZM16.101 60.4558C16.4112 60.4558 16.5973 60.3289 16.5042 60.0273C15.8839 60.0273 15.7443 59.7098 15.7908 59.2495V59.0273C15.6978 58.7257 15.4341 58.8051 15.1859 59.2178C14.9378 59.6305 15.7753 60.3765 16.101 60.4558ZM10.7348 68.0905C10.7348 67.9159 10.4866 67.7254 10.2229 67.6619L10.0058 67.5825C9.80419 67.4873 9.72665 67.1858 9.40095 67.4715C9.07525 67.7572 8.95118 67.8365 9.40095 68.1064C9.85072 68.3762 9.10627 69.0428 9.91276 68.9952C10.2074 68.9952 10.4711 68.4714 10.7037 68.1699L10.7348 68.0905Z" fill="#FAA859"/>
</g>
<defs>
<filter id="filter0_d_615_10480" x="0.5" y="0.557617" width="403" height="100" filterUnits="userSpaceOnUse" color-interpolation-filters="sRGB">
<feFlood flood-opacity="0" result="BackgroundImageFix"/>
<feColorMatrix in="SourceAlpha" type="matrix" values="0 0 0 0 0 0 0 0 0 0 0 0 0 0 0 0 0 0 127 0" result="hardAlpha"/>
<feOffset dy="4"/>
<feGaussianBlur stdDeviation="2"/>
<feComposite in2="hardAlpha" operator="out"/>
<feColorMatrix type="matrix" values="0 0 0 0 0.616667 0 0 0 0 0.606389 0 0 0 0 0.606389 0 0 0 0.25 0"/>
<feBlend mode="normal" in2="BackgroundImageFix" result="effect1_dropShadow_615_10480"/>
<feBlend mode="normal" in="SourceGraphic" in2="effect1_dropShadow_615_10480" result="shape"/>
</filter>
</defs>
</svg>
