<svg width="536" height="409" viewBox="0 0 536 409" fill="none" xmlns="http://www.w3.org/2000/svg">
<path d="M305.777 0.474399C238.706 -0.0931238 172.149 14.0626 109.621 42.194C85.0411 53.5209 60.1575 67.3805 42.5569 90.2454C24.9563 113.11 15.0028 146.528 24.3493 175.514C35.0918 209.284 69.5647 240.52 54.6952 272.25C48.626 285.898 34.9704 292.441 24.3493 302.15C-7.02828 331.417 -6.72482 391.218 17.4912 428.786C41.7072 466.355 83.2203 483.451 123.398 487.391C163.576 491.331 203.754 483.662 243.932 480.777C337.458 474.164 443.183 489.009 513.343 417.459C525.481 405.007 536.527 388.474 535.981 369.689C535.009 334.513 497.563 318.894 467.46 312.773L387.529 295.818C362.099 290.612 330.903 278.793 327.869 249.033C324.349 214.912 360.217 196.409 388.56 185.715C413.304 176.124 437.302 164.121 460.298 149.835C480.205 137.453 502.115 117.05 498.412 91.2304C495.378 70.1243 476.563 57.7421 459.873 48.4555C405.493 18.3442 348.686 -3.53575 305.777 0.474399Z" fill="#C86478"/>
</svg>
